<?xml version="1.0" encoding="utf-8" standalone="no"?>
<!DOCTYPE svg PUBLIC "-//W3C//DTD SVG 1.1//EN"
  "http://www.w3.org/Graphics/SVG/1.1/DTD/svg11.dtd">
<svg xmlns:xlink="http://www.w3.org/1999/xlink" width="432pt" height="432pt" viewBox="0 0 432 432" xmlns="http://www.w3.org/2000/svg" version="1.1">
 <metadata>
  <rdf:RDF xmlns:dc="http://purl.org/dc/elements/1.1/" xmlns:cc="http://creativecommons.org/ns#" xmlns:rdf="http://www.w3.org/1999/02/22-rdf-syntax-ns#">
   <cc:Work>
    <dc:type rdf:resource="http://purl.org/dc/dcmitype/StillImage"/>
    <dc:date>2024-06-04T13:29:52.964330</dc:date>
    <dc:format>image/svg+xml</dc:format>
    <dc:creator>
     <cc:Agent>
      <dc:title>Matplotlib v3.7.2, https://matplotlib.org/</dc:title>
     </cc:Agent>
    </dc:creator>
   </cc:Work>
  </rdf:RDF>
 </metadata>
 <defs>
  <style type="text/css">*{stroke-linejoin: round; stroke-linecap: butt}</style>
 </defs>
 <g id="figure_1">
  <g id="patch_1">
   <path d="M 0 432 
L 432 432 
L 432 0 
L 0 0 
z
" style="fill: #ffffff"/>
  </g>
  <g id="axes_1">
   <g id="patch_2">
    <path d="M 87.482 357.928 
L 396.855 357.928 
L 396.855 27 
L 87.482 27 
z
" style="fill: #ffffff"/>
   </g>
   <g id="matplotlib.axis_1">
    <g id="xtick_1">
     <g id="line2d_1">
      <defs>
       <path id="m64bd1b425d" d="M 0 0 
L 0 3.5 
" style="stroke: #000000; stroke-width: 0.8"/>
      </defs>
      <g>
       <use xlink:href="#m64bd1b425d" x="87.482" y="357.928" style="stroke: #000000; stroke-width: 0.8"/>
      </g>
     </g>
     <g id="text_1">
      <!-- 0.75 -->
      <g transform="translate(73.905281 375.237687) scale(0.14 -0.14)">
       <defs>
        <path id="CenturyGothic-30" d="M 203 2297 
Q 203 3206 398 3703 
Q 594 4200 950 4456 
Q 1306 4713 1747 4713 
Q 2194 4713 2556 4455 
Q 2919 4197 3130 3681 
Q 3341 3166 3341 2297 
Q 3341 1431 3133 918 
Q 2925 406 2559 145 
Q 2194 -116 1747 -116 
Q 1306 -116 953 137 
Q 600 391 401 892 
Q 203 1394 203 2297 
z
M 638 2288 
Q 638 1509 777 1111 
Q 916 713 1187 506 
Q 1459 300 1763 300 
Q 2069 300 2334 501 
Q 2600 703 2738 1106 
Q 2909 1597 2909 2288 
Q 2909 2981 2756 3423 
Q 2603 3866 2333 4070 
Q 2063 4275 1763 4275 
Q 1456 4275 1187 4070 
Q 919 3866 778 3467 
Q 638 3069 638 2288 
z
" transform="scale(0.015625)"/>
        <path id="CenturyGothic-2e" d="M 969 688 
Q 1128 688 1240 575 
Q 1353 463 1353 300 
Q 1353 141 1240 26 
Q 1128 -88 969 -88 
Q 809 -88 696 26 
Q 584 141 584 300 
Q 584 463 696 575 
Q 809 688 969 688 
z
" transform="scale(0.015625)"/>
        <path id="CenturyGothic-37" d="M 459 4597 
L 3375 4597 
L 916 -116 
L 538 78 
L 2663 4163 
L 459 4163 
L 459 4597 
z
" transform="scale(0.015625)"/>
        <path id="CenturyGothic-35" d="M 3147 4597 
L 3147 4159 
L 1509 4159 
L 1281 2906 
Q 1581 2994 1822 2994 
Q 2450 2994 2858 2573 
Q 3266 2153 3266 1497 
Q 3266 1044 3056 666 
Q 2847 288 2489 86 
Q 2131 -116 1663 -116 
Q 1103 -116 718 226 
Q 334 569 259 1113 
L 731 1113 
Q 784 847 911 681 
Q 1038 516 1248 414 
Q 1459 313 1691 313 
Q 2144 313 2469 656 
Q 2794 1000 2794 1516 
Q 2794 1981 2500 2272 
Q 2206 2563 1716 2563 
Q 1309 2563 731 2316 
L 1156 4597 
L 3147 4597 
z
" transform="scale(0.015625)"/>
       </defs>
       <use xlink:href="#CenturyGothic-30"/>
       <use xlink:href="#CenturyGothic-2e" x="55.419922"/>
       <use xlink:href="#CenturyGothic-37" x="83.105469"/>
       <use xlink:href="#CenturyGothic-35" x="138.525391"/>
      </g>
     </g>
    </g>
    <g id="xtick_2">
     <g id="line2d_2">
      <g>
       <use xlink:href="#m64bd1b425d" x="149.3566" y="357.928" style="stroke: #000000; stroke-width: 0.8"/>
      </g>
     </g>
     <g id="text_2">
      <!-- 0.80 -->
      <g transform="translate(135.779881 375.237687) scale(0.14 -0.14)">
       <defs>
        <path id="CenturyGothic-38" d="M 2459 2522 
Q 2925 2291 3126 1994 
Q 3328 1697 3328 1319 
Q 3328 788 2981 381 
Q 2556 -116 1766 -116 
Q 1003 -116 609 320 
Q 216 756 216 1281 
Q 216 1666 422 1973 
Q 628 2281 1109 2522 
Q 772 2697 603 2956 
Q 434 3216 434 3513 
Q 434 3813 614 4098 
Q 794 4384 1111 4548 
Q 1428 4713 1797 4713 
Q 2156 4713 2462 4547 
Q 2769 4381 2942 4097 
Q 3116 3813 3116 3500 
Q 3116 3188 2952 2944 
Q 2788 2700 2459 2522 
z
M 1775 4266 
Q 1397 4266 1148 4042 
Q 900 3819 900 3509 
Q 900 3203 1167 2954 
Q 1434 2706 1791 2706 
Q 2019 2706 2222 2818 
Q 2425 2931 2539 3126 
Q 2653 3322 2653 3519 
Q 2653 3797 2428 4031 
Q 2203 4266 1775 4266 
z
M 1797 2291 
Q 1322 2291 1000 1983 
Q 678 1675 678 1266 
Q 678 1013 815 788 
Q 953 563 1200 441 
Q 1447 319 1772 319 
Q 2275 319 2572 616 
Q 2869 913 2869 1309 
Q 2869 1694 2555 1992 
Q 2241 2291 1797 2291 
z
" transform="scale(0.015625)"/>
       </defs>
       <use xlink:href="#CenturyGothic-30"/>
       <use xlink:href="#CenturyGothic-2e" x="55.419922"/>
       <use xlink:href="#CenturyGothic-38" x="83.105469"/>
       <use xlink:href="#CenturyGothic-30" x="138.525391"/>
      </g>
     </g>
    </g>
    <g id="xtick_3">
     <g id="line2d_3">
      <g>
       <use xlink:href="#m64bd1b425d" x="211.2312" y="357.928" style="stroke: #000000; stroke-width: 0.8"/>
      </g>
     </g>
     <g id="text_3">
      <!-- 0.85 -->
      <g transform="translate(197.654481 375.237687) scale(0.14 -0.14)">
       <use xlink:href="#CenturyGothic-30"/>
       <use xlink:href="#CenturyGothic-2e" x="55.419922"/>
       <use xlink:href="#CenturyGothic-38" x="83.105469"/>
       <use xlink:href="#CenturyGothic-35" x="138.525391"/>
      </g>
     </g>
    </g>
    <g id="xtick_4">
     <g id="line2d_4">
      <g>
       <use xlink:href="#m64bd1b425d" x="273.1058" y="357.928" style="stroke: #000000; stroke-width: 0.8"/>
      </g>
     </g>
     <g id="text_4">
      <!-- 0.90 -->
      <g transform="translate(259.529081 375.237687) scale(0.14 -0.14)">
       <defs>
        <path id="CenturyGothic-39" d="M 1228 -116 
L 850 128 
L 2091 2009 
Q 1841 1928 1622 1928 
Q 1075 1928 694 2323 
Q 313 2719 313 3297 
Q 313 3694 497 4012 
Q 681 4331 1020 4522 
Q 1359 4713 1747 4713 
Q 2128 4713 2451 4528 
Q 2775 4344 2959 4012 
Q 3144 3681 3144 3306 
Q 3144 3022 3030 2711 
Q 2916 2400 2622 1963 
L 1228 -116 
z
M 1728 2331 
Q 2131 2331 2414 2614 
Q 2697 2897 2697 3297 
Q 2697 3697 2414 3980 
Q 2131 4263 1728 4263 
Q 1328 4263 1045 3980 
Q 763 3697 763 3297 
Q 763 2897 1045 2614 
Q 1328 2331 1728 2331 
z
" transform="scale(0.015625)"/>
       </defs>
       <use xlink:href="#CenturyGothic-30"/>
       <use xlink:href="#CenturyGothic-2e" x="55.419922"/>
       <use xlink:href="#CenturyGothic-39" x="83.105469"/>
       <use xlink:href="#CenturyGothic-30" x="138.525391"/>
      </g>
     </g>
    </g>
    <g id="xtick_5">
     <g id="line2d_5">
      <g>
       <use xlink:href="#m64bd1b425d" x="334.9804" y="357.928" style="stroke: #000000; stroke-width: 0.8"/>
      </g>
     </g>
     <g id="text_5">
      <!-- 0.95 -->
      <g transform="translate(321.403681 375.237687) scale(0.14 -0.14)">
       <use xlink:href="#CenturyGothic-30"/>
       <use xlink:href="#CenturyGothic-2e" x="55.419922"/>
       <use xlink:href="#CenturyGothic-39" x="83.105469"/>
       <use xlink:href="#CenturyGothic-35" x="138.525391"/>
      </g>
     </g>
    </g>
    <g id="xtick_6">
     <g id="line2d_6">
      <g>
       <use xlink:href="#m64bd1b425d" x="396.855" y="357.928" style="stroke: #000000; stroke-width: 0.8"/>
      </g>
     </g>
     <g id="text_6">
      <!-- 1.00 -->
      <g transform="translate(383.278281 375.237687) scale(0.14 -0.14)">
       <defs>
        <path id="CenturyGothic-31" d="M 1184 4597 
L 2088 4597 
L 2088 0 
L 1631 0 
L 1631 4147 
L 909 4147 
L 1184 4597 
z
" transform="scale(0.015625)"/>
       </defs>
       <use xlink:href="#CenturyGothic-31"/>
       <use xlink:href="#CenturyGothic-2e" x="55.419922"/>
       <use xlink:href="#CenturyGothic-30" x="83.105469"/>
       <use xlink:href="#CenturyGothic-30" x="138.525391"/>
      </g>
     </g>
    </g>
    <g id="text_7">
     <!-- T$_\mathrm{c}$ / T$\mathrm{_c^{unirradiated}}$ -->
     <g transform="translate(176.0685 400.358937) scale(0.2 -0.2)">
      <defs>
       <path id="CenturyGothic-54" d="M 103 4150 
L 103 4597 
L 2625 4597 
L 2625 4150 
L 1600 4150 
L 1600 0 
L 1131 0 
L 1131 4150 
L 103 4150 
z
" transform="scale(0.015625)"/>
       <path id="DejaVuSans-63" d="M 3122 3366 
L 3122 2828 
Q 2878 2963 2633 3030 
Q 2388 3097 2138 3097 
Q 1578 3097 1268 2742 
Q 959 2388 959 1747 
Q 959 1106 1268 751 
Q 1578 397 2138 397 
Q 2388 397 2633 464 
Q 2878 531 3122 666 
L 3122 134 
Q 2881 22 2623 -34 
Q 2366 -91 2075 -91 
Q 1284 -91 818 406 
Q 353 903 353 1747 
Q 353 2603 823 3093 
Q 1294 3584 2113 3584 
Q 2378 3584 2631 3529 
Q 2884 3475 3122 3366 
z
" transform="scale(0.015625)"/>
       <path id="CenturyGothic-20" transform="scale(0.015625)"/>
       <path id="CenturyGothic-2f" d="M 2613 4713 
L 703 -625 
L 225 -625 
L 2131 4713 
L 2613 4713 
z
" transform="scale(0.015625)"/>
       <path id="DejaVuSans-75" d="M 544 1381 
L 544 3500 
L 1119 3500 
L 1119 1403 
Q 1119 906 1312 657 
Q 1506 409 1894 409 
Q 2359 409 2629 706 
Q 2900 1003 2900 1516 
L 2900 3500 
L 3475 3500 
L 3475 0 
L 2900 0 
L 2900 538 
Q 2691 219 2414 64 
Q 2138 -91 1772 -91 
Q 1169 -91 856 284 
Q 544 659 544 1381 
z
M 1991 3584 
L 1991 3584 
z
" transform="scale(0.015625)"/>
       <path id="DejaVuSans-6e" d="M 3513 2113 
L 3513 0 
L 2938 0 
L 2938 2094 
Q 2938 2591 2744 2837 
Q 2550 3084 2163 3084 
Q 1697 3084 1428 2787 
Q 1159 2491 1159 1978 
L 1159 0 
L 581 0 
L 581 3500 
L 1159 3500 
L 1159 2956 
Q 1366 3272 1645 3428 
Q 1925 3584 2291 3584 
Q 2894 3584 3203 3211 
Q 3513 2838 3513 2113 
z
" transform="scale(0.015625)"/>
       <path id="DejaVuSans-69" d="M 603 3500 
L 1178 3500 
L 1178 0 
L 603 0 
L 603 3500 
z
M 603 4863 
L 1178 4863 
L 1178 4134 
L 603 4134 
L 603 4863 
z
" transform="scale(0.015625)"/>
       <path id="DejaVuSans-72" d="M 2631 2963 
Q 2534 3019 2420 3045 
Q 2306 3072 2169 3072 
Q 1681 3072 1420 2755 
Q 1159 2438 1159 1844 
L 1159 0 
L 581 0 
L 581 3500 
L 1159 3500 
L 1159 2956 
Q 1341 3275 1631 3429 
Q 1922 3584 2338 3584 
Q 2397 3584 2469 3576 
Q 2541 3569 2628 3553 
L 2631 2963 
z
" transform="scale(0.015625)"/>
       <path id="DejaVuSans-61" d="M 2194 1759 
Q 1497 1759 1228 1600 
Q 959 1441 959 1056 
Q 959 750 1161 570 
Q 1363 391 1709 391 
Q 2188 391 2477 730 
Q 2766 1069 2766 1631 
L 2766 1759 
L 2194 1759 
z
M 3341 1997 
L 3341 0 
L 2766 0 
L 2766 531 
Q 2569 213 2275 61 
Q 1981 -91 1556 -91 
Q 1019 -91 701 211 
Q 384 513 384 1019 
Q 384 1609 779 1909 
Q 1175 2209 1959 2209 
L 2766 2209 
L 2766 2266 
Q 2766 2663 2505 2880 
Q 2244 3097 1772 3097 
Q 1472 3097 1187 3025 
Q 903 2953 641 2809 
L 641 3341 
Q 956 3463 1253 3523 
Q 1550 3584 1831 3584 
Q 2591 3584 2966 3190 
Q 3341 2797 3341 1997 
z
" transform="scale(0.015625)"/>
       <path id="DejaVuSans-64" d="M 2906 2969 
L 2906 4863 
L 3481 4863 
L 3481 0 
L 2906 0 
L 2906 525 
Q 2725 213 2448 61 
Q 2172 -91 1784 -91 
Q 1150 -91 751 415 
Q 353 922 353 1747 
Q 353 2572 751 3078 
Q 1150 3584 1784 3584 
Q 2172 3584 2448 3432 
Q 2725 3281 2906 2969 
z
M 947 1747 
Q 947 1113 1208 752 
Q 1469 391 1925 391 
Q 2381 391 2643 752 
Q 2906 1113 2906 1747 
Q 2906 2381 2643 2742 
Q 2381 3103 1925 3103 
Q 1469 3103 1208 2742 
Q 947 2381 947 1747 
z
" transform="scale(0.015625)"/>
       <path id="DejaVuSans-74" d="M 1172 4494 
L 1172 3500 
L 2356 3500 
L 2356 3053 
L 1172 3053 
L 1172 1153 
Q 1172 725 1289 603 
Q 1406 481 1766 481 
L 2356 481 
L 2356 0 
L 1766 0 
Q 1100 0 847 248 
Q 594 497 594 1153 
L 594 3053 
L 172 3053 
L 172 3500 
L 594 3500 
L 594 4494 
L 1172 4494 
z
" transform="scale(0.015625)"/>
       <path id="DejaVuSans-65" d="M 3597 1894 
L 3597 1613 
L 953 1613 
Q 991 1019 1311 708 
Q 1631 397 2203 397 
Q 2534 397 2845 478 
Q 3156 559 3463 722 
L 3463 178 
Q 3153 47 2828 -22 
Q 2503 -91 2169 -91 
Q 1331 -91 842 396 
Q 353 884 353 1716 
Q 353 2575 817 3079 
Q 1281 3584 2069 3584 
Q 2775 3584 3186 3129 
Q 3597 2675 3597 1894 
z
M 3022 2063 
Q 3016 2534 2758 2815 
Q 2500 3097 2075 3097 
Q 1594 3097 1305 2825 
Q 1016 2553 972 2059 
L 3022 2063 
z
" transform="scale(0.015625)"/>
      </defs>
      <use xlink:href="#CenturyGothic-54" transform="translate(0 0.529687)"/>
      <use xlink:href="#DejaVuSans-63" transform="translate(43.535156 -15.876563) scale(0.7)"/>
      <use xlink:href="#CenturyGothic-20" transform="translate(84.755859 0.529687)"/>
      <use xlink:href="#CenturyGothic-2f" transform="translate(112.441406 0.529687)"/>
      <use xlink:href="#CenturyGothic-20" transform="translate(156.142578 0.529687)"/>
      <use xlink:href="#CenturyGothic-54" transform="translate(183.828125 0.529687)"/>
      <use xlink:href="#DejaVuSans-75" transform="translate(227.363281 38.810938) scale(0.7)"/>
      <use xlink:href="#DejaVuSans-6e" transform="translate(271.728516 38.810938) scale(0.7)"/>
      <use xlink:href="#DejaVuSans-69" transform="translate(316.09375 38.810938) scale(0.7)"/>
      <use xlink:href="#DejaVuSans-72" transform="translate(335.541992 38.810938) scale(0.7)"/>
      <use xlink:href="#DejaVuSans-72" transform="translate(364.321289 38.810938) scale(0.7)"/>
      <use xlink:href="#DejaVuSans-61" transform="translate(393.100586 38.810938) scale(0.7)"/>
      <use xlink:href="#DejaVuSans-64" transform="translate(435.996094 38.810938) scale(0.7)"/>
      <use xlink:href="#DejaVuSans-69" transform="translate(480.429688 38.810938) scale(0.7)"/>
      <use xlink:href="#DejaVuSans-61" transform="translate(499.87793 38.810938) scale(0.7)"/>
      <use xlink:href="#DejaVuSans-74" transform="translate(542.773438 38.810938) scale(0.7)"/>
      <use xlink:href="#DejaVuSans-65" transform="translate(570.219727 38.810938) scale(0.7)"/>
      <use xlink:href="#DejaVuSans-64" transform="translate(613.286133 38.810938) scale(0.7)"/>
      <use xlink:href="#DejaVuSans-63" transform="translate(227.363281 -26.814063) scale(0.7)"/>
     </g>
    </g>
   </g>
   <g id="matplotlib.axis_2">
    <g id="ytick_1">
     <g id="line2d_7">
      <defs>
       <path id="me5353b4dcb" d="M 0 0 
L -3.5 0 
" style="stroke: #000000; stroke-width: 0.8"/>
      </defs>
      <g>
       <use xlink:href="#me5353b4dcb" x="87.482" y="357.928" style="stroke: #000000; stroke-width: 0.8"/>
      </g>
     </g>
     <g id="text_8">
      <!-- 0.00 -->
      <g transform="translate(53.328563 363.082844) scale(0.14 -0.14)">
       <use xlink:href="#CenturyGothic-30"/>
       <use xlink:href="#CenturyGothic-2e" x="55.419922"/>
       <use xlink:href="#CenturyGothic-30" x="83.105469"/>
       <use xlink:href="#CenturyGothic-30" x="138.525391"/>
      </g>
     </g>
    </g>
    <g id="ytick_2">
     <g id="line2d_8">
      <g>
       <use xlink:href="#me5353b4dcb" x="87.482" y="316.562" style="stroke: #000000; stroke-width: 0.8"/>
      </g>
     </g>
     <g id="text_9">
      <!-- 0.05 -->
      <g transform="translate(53.328563 321.716844) scale(0.14 -0.14)">
       <use xlink:href="#CenturyGothic-30"/>
       <use xlink:href="#CenturyGothic-2e" x="55.419922"/>
       <use xlink:href="#CenturyGothic-30" x="83.105469"/>
       <use xlink:href="#CenturyGothic-35" x="138.525391"/>
      </g>
     </g>
    </g>
    <g id="ytick_3">
     <g id="line2d_9">
      <g>
       <use xlink:href="#me5353b4dcb" x="87.482" y="275.196" style="stroke: #000000; stroke-width: 0.8"/>
      </g>
     </g>
     <g id="text_10">
      <!-- 0.10 -->
      <g transform="translate(53.328563 280.350844) scale(0.14 -0.14)">
       <use xlink:href="#CenturyGothic-30"/>
       <use xlink:href="#CenturyGothic-2e" x="55.419922"/>
       <use xlink:href="#CenturyGothic-31" x="83.105469"/>
       <use xlink:href="#CenturyGothic-30" x="138.525391"/>
      </g>
     </g>
    </g>
    <g id="ytick_4">
     <g id="line2d_10">
      <g>
       <use xlink:href="#me5353b4dcb" x="87.482" y="233.83" style="stroke: #000000; stroke-width: 0.8"/>
      </g>
     </g>
     <g id="text_11">
      <!-- 0.15 -->
      <g transform="translate(53.328563 238.984844) scale(0.14 -0.14)">
       <use xlink:href="#CenturyGothic-30"/>
       <use xlink:href="#CenturyGothic-2e" x="55.419922"/>
       <use xlink:href="#CenturyGothic-31" x="83.105469"/>
       <use xlink:href="#CenturyGothic-35" x="138.525391"/>
      </g>
     </g>
    </g>
    <g id="ytick_5">
     <g id="line2d_11">
      <g>
       <use xlink:href="#me5353b4dcb" x="87.482" y="192.464" style="stroke: #000000; stroke-width: 0.8"/>
      </g>
     </g>
     <g id="text_12">
      <!-- 0.20 -->
      <g transform="translate(53.328563 197.618844) scale(0.14 -0.14)">
       <defs>
        <path id="CenturyGothic-32" d="M 741 3156 
L 300 3156 
Q 319 3838 755 4275 
Q 1191 4713 1831 4713 
Q 2466 4713 2858 4303 
Q 3250 3894 3250 3338 
Q 3250 2947 3062 2605 
Q 2875 2263 2334 1678 
L 1191 444 
L 3313 444 
L 3313 0 
L 191 0 
L 1947 1897 
Q 2481 2469 2642 2745 
Q 2803 3022 2803 3328 
Q 2803 3716 2514 3995 
Q 2225 4275 1806 4275 
Q 1366 4275 1073 3981 
Q 781 3688 741 3156 
z
" transform="scale(0.015625)"/>
       </defs>
       <use xlink:href="#CenturyGothic-30"/>
       <use xlink:href="#CenturyGothic-2e" x="55.419922"/>
       <use xlink:href="#CenturyGothic-32" x="83.105469"/>
       <use xlink:href="#CenturyGothic-30" x="138.525391"/>
      </g>
     </g>
    </g>
    <g id="ytick_6">
     <g id="line2d_12">
      <g>
       <use xlink:href="#me5353b4dcb" x="87.482" y="151.098" style="stroke: #000000; stroke-width: 0.8"/>
      </g>
     </g>
     <g id="text_13">
      <!-- 0.25 -->
      <g transform="translate(53.328563 156.252844) scale(0.14 -0.14)">
       <use xlink:href="#CenturyGothic-30"/>
       <use xlink:href="#CenturyGothic-2e" x="55.419922"/>
       <use xlink:href="#CenturyGothic-32" x="83.105469"/>
       <use xlink:href="#CenturyGothic-35" x="138.525391"/>
      </g>
     </g>
    </g>
    <g id="ytick_7">
     <g id="line2d_13">
      <g>
       <use xlink:href="#me5353b4dcb" x="87.482" y="109.732" style="stroke: #000000; stroke-width: 0.8"/>
      </g>
     </g>
     <g id="text_14">
      <!-- 0.30 -->
      <g transform="translate(53.328563 114.886844) scale(0.14 -0.14)">
       <defs>
        <path id="CenturyGothic-33" d="M 847 3531 
L 378 3531 
Q 506 4100 868 4406 
Q 1231 4713 1725 4713 
Q 2084 4713 2395 4548 
Q 2706 4384 2876 4106 
Q 3047 3828 3047 3525 
Q 3047 2931 2456 2584 
Q 2788 2450 3000 2191 
Q 3300 1825 3300 1372 
Q 3300 981 3094 626 
Q 2888 272 2531 78 
Q 2175 -116 1734 -116 
Q 1141 -116 744 226 
Q 347 569 225 1231 
L 675 1231 
Q 794 784 1016 584 
Q 1300 331 1741 331 
Q 2241 331 2544 631 
Q 2847 931 2847 1334 
Q 2847 1603 2695 1837 
Q 2544 2072 2289 2190 
Q 2034 2309 1500 2338 
L 1500 2759 
Q 1816 2759 2075 2870 
Q 2334 2981 2451 3153 
Q 2569 3325 2569 3528 
Q 2569 3828 2330 4047 
Q 2091 4266 1725 4266 
Q 1428 4266 1212 4098 
Q 997 3931 847 3531 
z
" transform="scale(0.015625)"/>
       </defs>
       <use xlink:href="#CenturyGothic-30"/>
       <use xlink:href="#CenturyGothic-2e" x="55.419922"/>
       <use xlink:href="#CenturyGothic-33" x="83.105469"/>
       <use xlink:href="#CenturyGothic-30" x="138.525391"/>
      </g>
     </g>
    </g>
    <g id="ytick_8">
     <g id="line2d_14">
      <g>
       <use xlink:href="#me5353b4dcb" x="87.482" y="68.366" style="stroke: #000000; stroke-width: 0.8"/>
      </g>
     </g>
     <g id="text_15">
      <!-- 0.35 -->
      <g transform="translate(53.328563 73.520844) scale(0.14 -0.14)">
       <use xlink:href="#CenturyGothic-30"/>
       <use xlink:href="#CenturyGothic-2e" x="55.419922"/>
       <use xlink:href="#CenturyGothic-33" x="83.105469"/>
       <use xlink:href="#CenturyGothic-35" x="138.525391"/>
      </g>
     </g>
    </g>
    <g id="ytick_9">
     <g id="line2d_15">
      <g>
       <use xlink:href="#me5353b4dcb" x="87.482" y="27" style="stroke: #000000; stroke-width: 0.8"/>
      </g>
     </g>
     <g id="text_16">
      <!-- 0.40 -->
      <g transform="translate(53.328563 32.154844) scale(0.14 -0.14)">
       <defs>
        <path id="CenturyGothic-34" d="M 2725 4713 
L 2819 4713 
L 2819 1509 
L 3375 1509 
L 3375 1069 
L 2819 1069 
L 2819 0 
L 2359 0 
L 2359 1069 
L 163 1069 
L 2725 4713 
z
M 2359 1509 
L 2359 3425 
L 1006 1509 
L 2359 1509 
z
" transform="scale(0.015625)"/>
       </defs>
       <use xlink:href="#CenturyGothic-30"/>
       <use xlink:href="#CenturyGothic-2e" x="55.419922"/>
       <use xlink:href="#CenturyGothic-34" x="83.105469"/>
       <use xlink:href="#CenturyGothic-30" x="138.525391"/>
      </g>
     </g>
    </g>
    <g id="text_17">
     <!-- Suppression 1 - $\mathrm{I_c^{On}\, /\, I_c^{Off}}$ -->
     <g transform="translate(43.528563 299.964) rotate(-90) scale(0.2 -0.2)">
      <defs>
       <path id="CenturyGothic-53" d="M 84 856 
L 475 1091 
Q 888 331 1428 331 
Q 1659 331 1862 439 
Q 2066 547 2172 728 
Q 2278 909 2278 1113 
Q 2278 1344 2122 1566 
Q 1906 1872 1334 2303 
Q 759 2738 619 2931 
Q 375 3256 375 3634 
Q 375 3934 519 4181 
Q 663 4428 923 4570 
Q 1184 4713 1491 4713 
Q 1816 4713 2098 4552 
Q 2381 4391 2697 3959 
L 2322 3675 
Q 2063 4019 1880 4128 
Q 1697 4238 1481 4238 
Q 1203 4238 1026 4069 
Q 850 3900 850 3653 
Q 850 3503 912 3362 
Q 975 3222 1141 3056 
Q 1231 2969 1734 2597 
Q 2331 2156 2553 1812 
Q 2775 1469 2775 1122 
Q 2775 622 2395 253 
Q 2016 -116 1472 -116 
Q 1053 -116 712 107 
Q 372 331 84 856 
z
" transform="scale(0.015625)"/>
       <path id="CenturyGothic-75" d="M 431 3400 
L 872 3400 
L 872 1813 
Q 872 1231 934 1013 
Q 1028 700 1292 519 
Q 1556 338 1922 338 
Q 2288 338 2542 514 
Q 2797 691 2894 978 
Q 2959 1175 2959 1813 
L 2959 3400 
L 3406 3400 
L 3406 1731 
Q 3406 1028 3242 672 
Q 3078 316 2748 114 
Q 2419 -88 1922 -88 
Q 1425 -88 1092 114 
Q 759 316 595 677 
Q 431 1038 431 1763 
L 431 3400 
z
" transform="scale(0.015625)"/>
       <path id="CenturyGothic-70" d="M 494 3400 
L 928 3400 
L 928 2775 
Q 1188 3131 1525 3309 
Q 1863 3488 2278 3488 
Q 3003 3488 3518 2966 
Q 4034 2444 4034 1709 
Q 4034 959 3523 435 
Q 3013 -88 2291 -88 
Q 1884 -88 1543 81 
Q 1203 250 928 584 
L 928 -1244 
L 494 -1244 
L 494 3400 
z
M 2244 3066 
Q 1675 3066 1286 2669 
Q 897 2272 897 1681 
Q 897 1294 1070 984 
Q 1244 675 1567 494 
Q 1891 313 2250 313 
Q 2603 313 2914 495 
Q 3225 678 3409 1006 
Q 3594 1334 3594 1694 
Q 3594 2056 3411 2381 
Q 3228 2706 2918 2886 
Q 2609 3066 2244 3066 
z
" transform="scale(0.015625)"/>
       <path id="CenturyGothic-72" d="M 322 3400 
L 769 3400 
L 769 2903 
Q 969 3197 1191 3342 
Q 1413 3488 1653 3488 
Q 1834 3488 2041 3372 
L 1813 3003 
Q 1675 3063 1581 3063 
Q 1363 3063 1159 2883 
Q 956 2703 850 2325 
Q 769 2034 769 1150 
L 769 0 
L 322 0 
L 322 3400 
z
" transform="scale(0.015625)"/>
       <path id="CenturyGothic-65" d="M 3350 1128 
L 3719 934 
Q 3538 578 3300 359 
Q 3063 141 2766 26 
Q 2469 -88 2094 -88 
Q 1263 -88 794 457 
Q 325 1003 325 1691 
Q 325 2338 722 2844 
Q 1225 3488 2069 3488 
Q 2938 3488 3456 2828 
Q 3825 2363 3831 1666 
L 775 1666 
Q 788 1072 1153 692 
Q 1519 313 2056 313 
Q 2316 313 2561 403 
Q 2806 494 2978 644 
Q 3150 794 3350 1128 
z
M 3350 2044 
Q 3263 2394 3095 2603 
Q 2928 2813 2653 2941 
Q 2378 3069 2075 3069 
Q 1575 3069 1216 2747 
Q 953 2513 819 2044 
L 3350 2044 
z
" transform="scale(0.015625)"/>
       <path id="CenturyGothic-73" d="M 2197 3028 
L 1916 2738 
Q 1566 3078 1231 3078 
Q 1019 3078 867 2937 
Q 716 2797 716 2609 
Q 716 2444 841 2294 
Q 966 2141 1366 1934 
Q 1853 1681 2028 1447 
Q 2200 1209 2200 913 
Q 2200 494 1906 203 
Q 1613 -88 1172 -88 
Q 878 -88 611 40 
Q 344 169 169 394 
L 444 706 
Q 778 328 1153 328 
Q 1416 328 1600 497 
Q 1784 666 1784 894 
Q 1784 1081 1663 1228 
Q 1541 1372 1113 1591 
Q 653 1828 488 2059 
Q 322 2291 322 2588 
Q 322 2975 586 3231 
Q 850 3488 1253 3488 
Q 1722 3488 2197 3028 
z
" transform="scale(0.015625)"/>
       <path id="CenturyGothic-69" d="M 641 4800 
Q 791 4800 897 4694 
Q 1003 4588 1003 4438 
Q 1003 4291 897 4184 
Q 791 4078 641 4078 
Q 494 4078 387 4184 
Q 281 4291 281 4438 
Q 281 4588 387 4694 
Q 494 4800 641 4800 
z
M 422 3400 
L 863 3400 
L 863 0 
L 422 0 
L 422 3400 
z
" transform="scale(0.015625)"/>
       <path id="CenturyGothic-6f" d="M 2097 3488 
Q 2881 3488 3397 2919 
Q 3866 2400 3866 1691 
Q 3866 978 3370 445 
Q 2875 -88 2097 -88 
Q 1316 -88 820 445 
Q 325 978 325 1691 
Q 325 2397 794 2916 
Q 1309 3488 2097 3488 
z
M 2097 3059 
Q 1553 3059 1162 2656 
Q 772 2253 772 1681 
Q 772 1313 950 994 
Q 1128 675 1431 501 
Q 1734 328 2097 328 
Q 2459 328 2762 501 
Q 3066 675 3244 994 
Q 3422 1313 3422 1681 
Q 3422 2253 3030 2656 
Q 2638 3059 2097 3059 
z
" transform="scale(0.015625)"/>
       <path id="CenturyGothic-6e" d="M 488 3400 
L 925 3400 
L 925 2791 
Q 1188 3141 1506 3314 
Q 1825 3488 2200 3488 
Q 2581 3488 2876 3294 
Q 3172 3100 3312 2772 
Q 3453 2444 3453 1750 
L 3453 0 
L 3019 0 
L 3019 1622 
Q 3019 2209 2969 2406 
Q 2891 2744 2675 2914 
Q 2459 3084 2113 3084 
Q 1716 3084 1402 2821 
Q 1088 2559 988 2172 
Q 925 1919 925 1247 
L 925 0 
L 488 0 
L 488 3400 
z
" transform="scale(0.015625)"/>
       <path id="CenturyGothic-2d" d="M 203 1919 
L 1922 1919 
L 1922 1538 
L 203 1538 
L 203 1919 
z
" transform="scale(0.015625)"/>
       <path id="DejaVuSans-49" d="M 628 4666 
L 1259 4666 
L 1259 0 
L 628 0 
L 628 4666 
z
" transform="scale(0.015625)"/>
       <path id="DejaVuSans-4f" d="M 2522 4238 
Q 1834 4238 1429 3725 
Q 1025 3213 1025 2328 
Q 1025 1447 1429 934 
Q 1834 422 2522 422 
Q 3209 422 3611 934 
Q 4013 1447 4013 2328 
Q 4013 3213 3611 3725 
Q 3209 4238 2522 4238 
z
M 2522 4750 
Q 3503 4750 4090 4092 
Q 4678 3434 4678 2328 
Q 4678 1225 4090 567 
Q 3503 -91 2522 -91 
Q 1538 -91 948 565 
Q 359 1222 359 2328 
Q 359 3434 948 4092 
Q 1538 4750 2522 4750 
z
" transform="scale(0.015625)"/>
       <path id="DejaVuSans-2f" d="M 1625 4666 
L 2156 4666 
L 531 -594 
L 0 -594 
L 1625 4666 
z
" transform="scale(0.015625)"/>
       <path id="DejaVuSans-66" d="M 2375 4863 
L 2375 4384 
L 1825 4384 
Q 1516 4384 1395 4259 
Q 1275 4134 1275 3809 
L 1275 3500 
L 2222 3500 
L 2222 3053 
L 1275 3053 
L 1275 0 
L 697 0 
L 697 3053 
L 147 3053 
L 147 3500 
L 697 3500 
L 697 3744 
Q 697 4328 969 4595 
Q 1241 4863 1831 4863 
L 2375 4863 
z
" transform="scale(0.015625)"/>
      </defs>
      <use xlink:href="#CenturyGothic-53" transform="translate(0 0.529687)"/>
      <use xlink:href="#CenturyGothic-75" transform="translate(49.804688 0.529687)"/>
      <use xlink:href="#CenturyGothic-70" transform="translate(110.595703 0.529687)"/>
      <use xlink:href="#CenturyGothic-70" transform="translate(178.808594 0.529687)"/>
      <use xlink:href="#CenturyGothic-72" transform="translate(247.021484 0.529687)"/>
      <use xlink:href="#CenturyGothic-65" transform="translate(277.099609 0.529687)"/>
      <use xlink:href="#CenturyGothic-73" transform="translate(342.089844 0.529687)"/>
      <use xlink:href="#CenturyGothic-73" transform="translate(380.908203 0.529687)"/>
      <use xlink:href="#CenturyGothic-69" transform="translate(419.726562 0.529687)"/>
      <use xlink:href="#CenturyGothic-6f" transform="translate(439.746094 0.529687)"/>
      <use xlink:href="#CenturyGothic-6e" transform="translate(505.224609 0.529687)"/>
      <use xlink:href="#CenturyGothic-20" transform="translate(566.210938 0.529687)"/>
      <use xlink:href="#CenturyGothic-31" transform="translate(593.896484 0.529687)"/>
      <use xlink:href="#CenturyGothic-20" transform="translate(649.316406 0.529687)"/>
      <use xlink:href="#CenturyGothic-2d" transform="translate(677.001953 0.529687)"/>
      <use xlink:href="#CenturyGothic-20" transform="translate(710.205078 0.529687)"/>
      <use xlink:href="#DejaVuSans-49" transform="translate(737.890625 0.529687)"/>
      <use xlink:href="#DejaVuSans-4f" transform="translate(768.339844 38.810937) scale(0.7)"/>
      <use xlink:href="#DejaVuSans-6e" transform="translate(823.4375 38.810937) scale(0.7)"/>
      <use xlink:href="#DejaVuSans-63" transform="translate(768.339844 -26.814063) scale(0.7)"/>
      <use xlink:href="#DejaVuSans-2f" transform="translate(886.772786 0.529687)"/>
      <use xlink:href="#DejaVuSans-49" transform="translate(936.699868 0.529687)"/>
      <use xlink:href="#DejaVuSans-4f" transform="translate(967.149087 38.810938) scale(0.7)"/>
      <use xlink:href="#DejaVuSans-66" transform="translate(1022.246743 38.810938) scale(0.7)"/>
      <use xlink:href="#DejaVuSans-66" transform="translate(1046.890298 38.810938) scale(0.7)"/>
      <use xlink:href="#DejaVuSans-63" transform="translate(967.149087 -26.814063) scale(0.7)"/>
     </g>
    </g>
   </g>
   <g id="line2d_16">
    <defs>
     <path id="m1e137a975c" d="M -4 0 
L 4 0 
M 0 4 
L 0 -4 
" style="stroke: #e5715e"/>
    </defs>
    <g clip-path="url(#pa7039c265f)">
     <use xlink:href="#m1e137a975c" x="343.731189" y="229.232539" style="fill: #e5715e; stroke: #e5715e"/>
     <use xlink:href="#m1e137a975c" x="342.340429" y="229.959154" style="fill: #e5715e; stroke: #e5715e"/>
     <use xlink:href="#m1e137a975c" x="342.156314" y="232.916533" style="fill: #e5715e; stroke: #e5715e"/>
     <use xlink:href="#m1e137a975c" x="342.074565" y="223.169169" style="fill: #e5715e; stroke: #e5715e"/>
     <use xlink:href="#m1e137a975c" x="342.181182" y="226.731641" style="fill: #e5715e; stroke: #e5715e"/>
     <use xlink:href="#m1e137a975c" x="342.043939" y="224.379177" style="fill: #e5715e; stroke: #e5715e"/>
     <use xlink:href="#m1e137a975c" x="300.338376" y="203.599672" style="fill: #e5715e; stroke: #e5715e"/>
     <use xlink:href="#m1e137a975c" x="299.45854" y="200.050014" style="fill: #e5715e; stroke: #e5715e"/>
     <use xlink:href="#m1e137a975c" x="298.910664" y="201.175744" style="fill: #e5715e; stroke: #e5715e"/>
     <use xlink:href="#m1e137a975c" x="267.487426" y="181.684085" style="fill: #e5715e; stroke: #e5715e"/>
     <use xlink:href="#m1e137a975c" x="267.149076" y="187.6999" style="fill: #e5715e; stroke: #e5715e"/>
     <use xlink:href="#m1e137a975c" x="266.773834" y="185.122334" style="fill: #e5715e; stroke: #e5715e"/>
     <use xlink:href="#m1e137a975c" x="268.466968" y="180.659631" style="fill: #e5715e; stroke: #e5715e"/>
     <use xlink:href="#m1e137a975c" x="268.025357" y="179.155397" style="fill: #e5715e; stroke: #e5715e"/>
     <use xlink:href="#m1e137a975c" x="267.730462" y="178.675048" style="fill: #e5715e; stroke: #e5715e"/>
     <use xlink:href="#m1e137a975c" x="229.521501" y="161.369607" style="fill: #e5715e; stroke: #e5715e"/>
     <use xlink:href="#m1e137a975c" x="229.23724" y="163.089117" style="fill: #e5715e; stroke: #e5715e"/>
     <use xlink:href="#m1e137a975c" x="229.00134" y="172.778959" style="fill: #e5715e; stroke: #e5715e"/>
     <use xlink:href="#m1e137a975c" x="228.580269" y="157.307085" style="fill: #e5715e; stroke: #e5715e"/>
     <use xlink:href="#m1e137a975c" x="194.029965" y="146.762994" style="fill: #e5715e; stroke: #e5715e"/>
     <use xlink:href="#m1e137a975c" x="193.256503" y="152.822642" style="fill: #e5715e; stroke: #e5715e"/>
     <use xlink:href="#m1e137a975c" x="193.929271" y="147.825073" style="fill: #e5715e; stroke: #e5715e"/>
     <use xlink:href="#m1e137a975c" x="193.369655" y="156.528664" style="fill: #e5715e; stroke: #e5715e"/>
     <use xlink:href="#m1e137a975c" x="193.491147" y="145.224664" style="fill: #e5715e; stroke: #e5715e"/>
     <use xlink:href="#m1e137a975c" x="192.848108" y="124.027884" style="fill: #e5715e; stroke: #e5715e"/>
     <use xlink:href="#m1e137a975c" x="193.091857" y="138.96983" style="fill: #e5715e; stroke: #e5715e"/>
     <use xlink:href="#m1e137a975c" x="190.786477" y="178.340626" style="fill: #e5715e; stroke: #e5715e"/>
     <use xlink:href="#m1e137a975c" x="190.835005" y="164.129481" style="fill: #e5715e; stroke: #e5715e"/>
     <use xlink:href="#m1e137a975c" x="190.203917" y="168.883946" style="fill: #e5715e; stroke: #e5715e"/>
     <use xlink:href="#m1e137a975c" x="190.31317" y="168.127642" style="fill: #e5715e; stroke: #e5715e"/>
     <use xlink:href="#m1e137a975c" x="190.5964" y="162.014989" style="fill: #e5715e; stroke: #e5715e"/>
     <use xlink:href="#m1e137a975c" x="190.289085" y="161.397628" style="fill: #e5715e; stroke: #e5715e"/>
     <use xlink:href="#m1e137a975c" x="190.115433" y="165.250251" style="fill: #e5715e; stroke: #e5715e"/>
     <use xlink:href="#m1e137a975c" x="187.902974" y="183.013152" style="fill: #e5715e; stroke: #e5715e"/>
     <use xlink:href="#m1e137a975c" x="188.632139" y="169.968679" style="fill: #e5715e; stroke: #e5715e"/>
     <use xlink:href="#m1e137a975c" x="189.004114" y="168.517077" style="fill: #e5715e; stroke: #e5715e"/>
     <use xlink:href="#m1e137a975c" x="188.863236" y="163.735758" style="fill: #e5715e; stroke: #e5715e"/>
     <use xlink:href="#m1e137a975c" x="189.872412" y="155.051951" style="fill: #e5715e; stroke: #e5715e"/>
     <use xlink:href="#m1e137a975c" x="187.615055" y="173.917177" style="fill: #e5715e; stroke: #e5715e"/>
     <use xlink:href="#m1e137a975c" x="187.66072" y="170.345628" style="fill: #e5715e; stroke: #e5715e"/>
     <use xlink:href="#m1e137a975c" x="186.00416" y="181.794685" style="fill: #e5715e; stroke: #e5715e"/>
     <use xlink:href="#m1e137a975c" x="188.054968" y="162.362461" style="fill: #e5715e; stroke: #e5715e"/>
     <use xlink:href="#m1e137a975c" x="188.47526" y="160.101039" style="fill: #e5715e; stroke: #e5715e"/>
     <use xlink:href="#m1e137a975c" x="186.964932" y="168.963678" style="fill: #e5715e; stroke: #e5715e"/>
     <use xlink:href="#m1e137a975c" x="185.394186" y="185.428187" style="fill: #e5715e; stroke: #e5715e"/>
     <use xlink:href="#m1e137a975c" x="187.866482" y="169.33506" style="fill: #e5715e; stroke: #e5715e"/>
     <use xlink:href="#m1e137a975c" x="186.832391" y="171.881265" style="fill: #e5715e; stroke: #e5715e"/>
     <use xlink:href="#m1e137a975c" x="186.113784" y="173.845833" style="fill: #e5715e; stroke: #e5715e"/>
     <use xlink:href="#m1e137a975c" x="186.317435" y="177.595428" style="fill: #e5715e; stroke: #e5715e"/>
     <use xlink:href="#m1e137a975c" x="185.631003" y="181.01007" style="fill: #e5715e; stroke: #e5715e"/>
     <use xlink:href="#m1e137a975c" x="186.485715" y="174.459746" style="fill: #e5715e; stroke: #e5715e"/>
     <use xlink:href="#m1e137a975c" x="186.393844" y="175.599064" style="fill: #e5715e; stroke: #e5715e"/>
     <use xlink:href="#m1e137a975c" x="185.982971" y="180.473705" style="fill: #e5715e; stroke: #e5715e"/>
     <use xlink:href="#m1e137a975c" x="185.881683" y="174.40223" style="fill: #e5715e; stroke: #e5715e"/>
     <use xlink:href="#m1e137a975c" x="185.649556" y="175.705678" style="fill: #e5715e; stroke: #e5715e"/>
     <use xlink:href="#m1e137a975c" x="185.499213" y="175.783925" style="fill: #e5715e; stroke: #e5715e"/>
     <use xlink:href="#m1e137a975c" x="185.123413" y="179.506775" style="fill: #e5715e; stroke: #e5715e"/>
     <use xlink:href="#m1e137a975c" x="185.140432" y="174.974865" style="fill: #e5715e; stroke: #e5715e"/>
     <use xlink:href="#m1e137a975c" x="185.688642" y="171.077244" style="fill: #e5715e; stroke: #e5715e"/>
     <use xlink:href="#m1e137a975c" x="185.756034" y="168.252993" style="fill: #e5715e; stroke: #e5715e"/>
     <use xlink:href="#m1e137a975c" x="184.795245" y="176.053395" style="fill: #e5715e; stroke: #e5715e"/>
     <use xlink:href="#m1e137a975c" x="259.179792" y="237.237825" style="fill: #e5715e; stroke: #e5715e"/>
    </g>
   </g>
   <g id="line2d_17">
    <path d="M 184.795245 164.714754 
L 343.731189 220.291367 
L 343.731189 220.291367 
" clip-path="url(#pa7039c265f)" style="fill: none; stroke: #e5715e; stroke-width: 4; stroke-linecap: square"/>
   </g>
   <g id="line2d_18">
    <defs>
     <path id="m647988715a" d="M -4 0 
L 4 0 
M 0 4 
L 0 -4 
" style="stroke: #c14168"/>
    </defs>
    <g clip-path="url(#pa7039c265f)">
     <use xlink:href="#m647988715a" x="391.524701" y="146.96405" style="fill: #c14168; stroke: #c14168"/>
     <use xlink:href="#m647988715a" x="390.650417" y="151.971799" style="fill: #c14168; stroke: #c14168"/>
     <use xlink:href="#m647988715a" x="390.680553" y="135.43775" style="fill: #c14168; stroke: #c14168"/>
     <use xlink:href="#m647988715a" x="391.012596" y="132.663274" style="fill: #c14168; stroke: #c14168"/>
     <use xlink:href="#m647988715a" x="389.557865" y="156.633753" style="fill: #c14168; stroke: #c14168"/>
     <use xlink:href="#m647988715a" x="281.244726" y="115.57681" style="fill: #c14168; stroke: #c14168"/>
     <use xlink:href="#m647988715a" x="280.532281" y="106.526017" style="fill: #c14168; stroke: #c14168"/>
     <use xlink:href="#m647988715a" x="279.535231" y="114.235798" style="fill: #c14168; stroke: #c14168"/>
     <use xlink:href="#m647988715a" x="279.410455" y="109.879177" style="fill: #c14168; stroke: #c14168"/>
     <use xlink:href="#m647988715a" x="279.167891" y="112.799473" style="fill: #c14168; stroke: #c14168"/>
     <use xlink:href="#m647988715a" x="279.079712" y="111.824268" style="fill: #c14168; stroke: #c14168"/>
     <use xlink:href="#m647988715a" x="278.686906" y="119.085318" style="fill: #c14168; stroke: #c14168"/>
     <use xlink:href="#m647988715a" x="278.336691" y="113.316422" style="fill: #c14168; stroke: #c14168"/>
     <use xlink:href="#m647988715a" x="278.085451" y="117.014983" style="fill: #c14168; stroke: #c14168"/>
     <use xlink:href="#m647988715a" x="184.811742" y="108.403568" style="fill: #c14168; stroke: #c14168"/>
     <use xlink:href="#m647988715a" x="184.81516" y="115.784013" style="fill: #c14168; stroke: #c14168"/>
     <use xlink:href="#m647988715a" x="184.875128" y="111.220527" style="fill: #c14168; stroke: #c14168"/>
     <use xlink:href="#m647988715a" x="182.706521" y="117.783315" style="fill: #c14168; stroke: #c14168"/>
     <use xlink:href="#m647988715a" x="157.069316" y="77.68914" style="fill: #c14168; stroke: #c14168"/>
     <use xlink:href="#m647988715a" x="159.413217" y="79.775989" style="fill: #c14168; stroke: #c14168"/>
     <use xlink:href="#m647988715a" x="157.865685" y="81.858786" style="fill: #c14168; stroke: #c14168"/>
     <use xlink:href="#m647988715a" x="157.814114" y="77.739846" style="fill: #c14168; stroke: #c14168"/>
     <use xlink:href="#m647988715a" x="157.75357" y="76.509587" style="fill: #c14168; stroke: #c14168"/>
     <use xlink:href="#m647988715a" x="157.484523" y="73.281668" style="fill: #c14168; stroke: #c14168"/>
     <use xlink:href="#m647988715a" x="157.6358" y="74.797619" style="fill: #c14168; stroke: #c14168"/>
     <use xlink:href="#m647988715a" x="157.267126" y="80.358515" style="fill: #c14168; stroke: #c14168"/>
     <use xlink:href="#m647988715a" x="156.556165" y="70.636804" style="fill: #c14168; stroke: #c14168"/>
     <use xlink:href="#m647988715a" x="156.45941" y="75.07221" style="fill: #c14168; stroke: #c14168"/>
     <use xlink:href="#m647988715a" x="156.289961" y="67.446935" style="fill: #c14168; stroke: #c14168"/>
     <use xlink:href="#m647988715a" x="156.390725" y="62.109312" style="fill: #c14168; stroke: #c14168"/>
     <use xlink:href="#m647988715a" x="156.010758" y="61.797851" style="fill: #c14168; stroke: #c14168"/>
     <use xlink:href="#m647988715a" x="155.997807" y="60.225544" style="fill: #c14168; stroke: #c14168"/>
     <use xlink:href="#m647988715a" x="156.029221" y="58.521963" style="fill: #c14168; stroke: #c14168"/>
     <use xlink:href="#m647988715a" x="155.719139" y="64.623172" style="fill: #c14168; stroke: #c14168"/>
     <use xlink:href="#m647988715a" x="155.581164" y="66.340571" style="fill: #c14168; stroke: #c14168"/>
     <use xlink:href="#m647988715a" x="155.648863" y="61.68408" style="fill: #c14168; stroke: #c14168"/>
     <use xlink:href="#m647988715a" x="155.22387" y="60.938267" style="fill: #c14168; stroke: #c14168"/>
     <use xlink:href="#m647988715a" x="155.14594" y="64.081981" style="fill: #c14168; stroke: #c14168"/>
     <use xlink:href="#m647988715a" x="154.6876" y="74.354314" style="fill: #c14168; stroke: #c14168"/>
     <use xlink:href="#m647988715a" x="154.971846" y="58.36223" style="fill: #c14168; stroke: #c14168"/>
     <use xlink:href="#m647988715a" x="154.552958" y="59.036848" style="fill: #c14168; stroke: #c14168"/>
     <use xlink:href="#m647988715a" x="153.715809" y="60.034205" style="fill: #c14168; stroke: #c14168"/>
     <use xlink:href="#m647988715a" x="153.699552" y="63.761334" style="fill: #c14168; stroke: #c14168"/>
     <use xlink:href="#m647988715a" x="153.48046" y="53.743997" style="fill: #c14168; stroke: #c14168"/>
     <use xlink:href="#m647988715a" x="153.164847" y="54.093671" style="fill: #c14168; stroke: #c14168"/>
     <use xlink:href="#m647988715a" x="152.756661" y="53.479295" style="fill: #c14168; stroke: #c14168"/>
     <use xlink:href="#m647988715a" x="152.698039" y="73.05092" style="fill: #c14168; stroke: #c14168"/>
     <use xlink:href="#m647988715a" x="152.325717" y="72.582829" style="fill: #c14168; stroke: #c14168"/>
     <use xlink:href="#m647988715a" x="151.808369" y="67.754022" style="fill: #c14168; stroke: #c14168"/>
     <use xlink:href="#m647988715a" x="152.078057" y="69.097461" style="fill: #c14168; stroke: #c14168"/>
     <use xlink:href="#m647988715a" x="152.229545" y="73.263701" style="fill: #c14168; stroke: #c14168"/>
     <use xlink:href="#m647988715a" x="152.058527" y="76.575578" style="fill: #c14168; stroke: #c14168"/>
     <use xlink:href="#m647988715a" x="151.783877" y="70.496256" style="fill: #c14168; stroke: #c14168"/>
     <use xlink:href="#m647988715a" x="151.637053" y="70.655432" style="fill: #c14168; stroke: #c14168"/>
     <use xlink:href="#m647988715a" x="151.422969" y="68.574903" style="fill: #c14168; stroke: #c14168"/>
     <use xlink:href="#m647988715a" x="151.708822" y="72.500208" style="fill: #c14168; stroke: #c14168"/>
     <use xlink:href="#m647988715a" x="151.407296" y="79.459863" style="fill: #c14168; stroke: #c14168"/>
     <use xlink:href="#m647988715a" x="150.943266" y="80.430899" style="fill: #c14168; stroke: #c14168"/>
     <use xlink:href="#m647988715a" x="150.91509" y="76.6953" style="fill: #c14168; stroke: #c14168"/>
     <use xlink:href="#m647988715a" x="150.938696" y="68.934713" style="fill: #c14168; stroke: #c14168"/>
     <use xlink:href="#m647988715a" x="151.085541" y="69.42992" style="fill: #c14168; stroke: #c14168"/>
     <use xlink:href="#m647988715a" x="150.397956" y="58.805279" style="fill: #c14168; stroke: #c14168"/>
     <use xlink:href="#m647988715a" x="150.364505" y="70.881598" style="fill: #c14168; stroke: #c14168"/>
     <use xlink:href="#m647988715a" x="150.65083" y="65.065845" style="fill: #c14168; stroke: #c14168"/>
     <use xlink:href="#m647988715a" x="149.935214" y="65.336899" style="fill: #c14168; stroke: #c14168"/>
     <use xlink:href="#m647988715a" x="150.035389" y="64.360413" style="fill: #c14168; stroke: #c14168"/>
     <use xlink:href="#m647988715a" x="150.015226" y="74.604176" style="fill: #c14168; stroke: #c14168"/>
     <use xlink:href="#m647988715a" x="149.506939" y="69.887088" style="fill: #c14168; stroke: #c14168"/>
     <use xlink:href="#m647988715a" x="149.157221" y="63.707948" style="fill: #c14168; stroke: #c14168"/>
     <use xlink:href="#m647988715a" x="149.275553" y="68.132307" style="fill: #c14168; stroke: #c14168"/>
     <use xlink:href="#m647988715a" x="149.099824" y="62.349477" style="fill: #c14168; stroke: #c14168"/>
     <use xlink:href="#m647988715a" x="148.926349" y="78.268592" style="fill: #c14168; stroke: #c14168"/>
     <use xlink:href="#m647988715a" x="148.644518" y="70.286007" style="fill: #c14168; stroke: #c14168"/>
    </g>
   </g>
   <g id="line2d_19">
    <path d="M 148.644518 69.182556 
L 391.524701 149.327256 
L 391.524701 149.327256 
" clip-path="url(#pa7039c265f)" style="fill: none; stroke: #c14168; stroke-width: 4; stroke-linecap: square"/>
   </g>
   <g id="line2d_20">
    <defs>
     <path id="m416a8f19d7" d="M -4 0 
L 4 0 
M 0 4 
L 0 -4 
" style="stroke: #863071"/>
    </defs>
    <g clip-path="url(#pa7039c265f)">
     <use xlink:href="#m416a8f19d7" x="385.282572" y="193.484466" style="fill: #863071; stroke: #863071"/>
     <use xlink:href="#m416a8f19d7" x="384.855948" y="197.629511" style="fill: #863071; stroke: #863071"/>
     <use xlink:href="#m416a8f19d7" x="374.779648" y="193.192961" style="fill: #863071; stroke: #863071"/>
     <use xlink:href="#m416a8f19d7" x="357.42824" y="203.953334" style="fill: #863071; stroke: #863071"/>
     <use xlink:href="#m416a8f19d7" x="357.59689" y="197.611407" style="fill: #863071; stroke: #863071"/>
     <use xlink:href="#m416a8f19d7" x="271.693822" y="138.53169" style="fill: #863071; stroke: #863071"/>
     <use xlink:href="#m416a8f19d7" x="271.790627" y="138.064367" style="fill: #863071; stroke: #863071"/>
     <use xlink:href="#m416a8f19d7" x="270.876208" y="144.152319" style="fill: #863071; stroke: #863071"/>
     <use xlink:href="#m416a8f19d7" x="231.084314" y="139.584168" style="fill: #863071; stroke: #863071"/>
     <use xlink:href="#m416a8f19d7" x="230.884683" y="132.647549" style="fill: #863071; stroke: #863071"/>
     <use xlink:href="#m416a8f19d7" x="229.945384" y="134.971171" style="fill: #863071; stroke: #863071"/>
     <use xlink:href="#m416a8f19d7" x="230.562663" y="129.921985" style="fill: #863071; stroke: #863071"/>
     <use xlink:href="#m416a8f19d7" x="230.012059" y="126.69853" style="fill: #863071; stroke: #863071"/>
     <use xlink:href="#m416a8f19d7" x="190.575342" y="109.756461" style="fill: #863071; stroke: #863071"/>
     <use xlink:href="#m416a8f19d7" x="189.776073" y="128.391537" style="fill: #863071; stroke: #863071"/>
     <use xlink:href="#m416a8f19d7" x="190.614611" y="122.273831" style="fill: #863071; stroke: #863071"/>
     <use xlink:href="#m416a8f19d7" x="144.773496" y="87.085802" style="fill: #863071; stroke: #863071"/>
     <use xlink:href="#m416a8f19d7" x="148.766695" y="89.790293" style="fill: #863071; stroke: #863071"/>
     <use xlink:href="#m416a8f19d7" x="147.827635" y="107.089106" style="fill: #863071; stroke: #863071"/>
     <use xlink:href="#m416a8f19d7" x="142.728044" y="103.946018" style="fill: #863071; stroke: #863071"/>
     <use xlink:href="#m416a8f19d7" x="142.51196" y="98.171003" style="fill: #863071; stroke: #863071"/>
    </g>
   </g>
   <g id="line2d_21">
    <path d="M 142.51196 95.507295 
L 385.282572 199.294987 
L 385.282572 199.294987 
" clip-path="url(#pa7039c265f)" style="fill: none; stroke: #863071; stroke-width: 4; stroke-linecap: square"/>
   </g>
   <g id="patch_3">
    <path d="M 87.482 357.928 
L 87.482 27 
" style="fill: none; stroke: #000000; stroke-width: 0.8; stroke-linejoin: miter; stroke-linecap: square"/>
   </g>
   <g id="patch_4">
    <path d="M 396.855 357.928 
L 396.855 27 
" style="fill: none; stroke: #000000; stroke-width: 0.8; stroke-linejoin: miter; stroke-linecap: square"/>
   </g>
   <g id="patch_5">
    <path d="M 87.482 357.928 
L 396.855 357.928 
" style="fill: none; stroke: #000000; stroke-width: 0.8; stroke-linejoin: miter; stroke-linecap: square"/>
   </g>
   <g id="patch_6">
    <path d="M 87.482 27 
L 396.855 27 
" style="fill: none; stroke: #000000; stroke-width: 0.8; stroke-linejoin: miter; stroke-linecap: square"/>
   </g>
   <g id="legend_1">
    <g id="patch_7">
     <path d="M 95.882 351.928 
L 151.350125 351.928 
Q 153.750125 351.928 153.750125 349.528 
L 153.750125 299.219875 
Q 153.750125 296.819875 151.350125 296.819875 
L 95.882 296.819875 
Q 93.482 296.819875 93.482 299.219875 
L 93.482 349.528 
Q 93.482 351.928 95.882 351.928 
z
" style="fill: #ffffff; opacity: 0.8; stroke: #cccccc; stroke-linejoin: miter"/>
    </g>
    <g id="line2d_22">
     <g>
      <use xlink:href="#m1e137a975c" x="110.282" y="306.25675" style="fill: #e5715e; stroke: #e5715e"/>
     </g>
    </g>
    <g id="text_18">
     <!-- f37 -->
     <g transform="translate(131.882 310.45675) scale(0.12 -0.12)">
      <defs>
       <path id="CenturyGothic-66" d="M 1888 4713 
L 1888 4284 
Q 1647 4388 1475 4388 
Q 1347 4388 1262 4336 
Q 1178 4284 1156 4217 
Q 1134 4150 1134 3859 
L 1134 3400 
L 1844 3400 
L 1844 3025 
L 1131 3025 
L 1131 0 
L 694 0 
L 694 3025 
L 247 3025 
L 247 3400 
L 694 3400 
L 694 3931 
Q 694 4297 761 4453 
Q 828 4609 989 4704 
Q 1150 4800 1378 4800 
Q 1591 4800 1888 4713 
z
" transform="scale(0.015625)"/>
      </defs>
      <use xlink:href="#CenturyGothic-66"/>
      <use xlink:href="#CenturyGothic-33" x="31.396484"/>
      <use xlink:href="#CenturyGothic-37" x="86.816406"/>
     </g>
    </g>
    <g id="line2d_23">
     <g>
      <use xlink:href="#m647988715a" x="110.282" y="323.426125" style="fill: #c14168; stroke: #c14168"/>
     </g>
    </g>
    <g id="text_19">
     <!-- f29 -->
     <g transform="translate(131.882 327.626125) scale(0.12 -0.12)">
      <use xlink:href="#CenturyGothic-66"/>
      <use xlink:href="#CenturyGothic-32" x="31.396484"/>
      <use xlink:href="#CenturyGothic-39" x="86.816406"/>
     </g>
    </g>
    <g id="line2d_24">
     <g>
      <use xlink:href="#m416a8f19d7" x="110.282" y="340.5955" style="fill: #863071; stroke: #863071"/>
     </g>
    </g>
    <g id="text_20">
     <!-- f28 -->
     <g transform="translate(131.882 344.7955) scale(0.12 -0.12)">
      <use xlink:href="#CenturyGothic-66"/>
      <use xlink:href="#CenturyGothic-32" x="31.396484"/>
      <use xlink:href="#CenturyGothic-38" x="86.816406"/>
     </g>
    </g>
   </g>
  </g>
 </g>
 <defs>
  <clipPath id="pa7039c265f">
   <rect x="87.482" y="27" width="309.373" height="330.928"/>
  </clipPath>
 </defs>
</svg>
