<?xml version="1.0" encoding="utf-8" standalone="no"?>
<!DOCTYPE svg PUBLIC "-//W3C//DTD SVG 1.1//EN"
  "http://www.w3.org/Graphics/SVG/1.1/DTD/svg11.dtd">
<svg xmlns:xlink="http://www.w3.org/1999/xlink" width="864pt" height="432pt" viewBox="0 0 864 432" xmlns="http://www.w3.org/2000/svg" version="1.1">
 <metadata>
  <rdf:RDF xmlns:dc="http://purl.org/dc/elements/1.1/" xmlns:cc="http://creativecommons.org/ns#" xmlns:rdf="http://www.w3.org/1999/02/22-rdf-syntax-ns#">
   <cc:Work>
    <dc:type rdf:resource="http://purl.org/dc/dcmitype/StillImage"/>
    <dc:date>2024-09-26T17:24:39.776469</dc:date>
    <dc:format>image/svg+xml</dc:format>
    <dc:creator>
     <cc:Agent>
      <dc:title>Matplotlib v3.7.2, https://matplotlib.org/</dc:title>
     </cc:Agent>
    </dc:creator>
   </cc:Work>
  </rdf:RDF>
 </metadata>
 <defs>
  <style type="text/css">*{stroke-linejoin: round; stroke-linecap: butt}</style>
 </defs>
 <g id="figure_1">
  <g id="patch_1">
   <path d="M 0 432 
L 864 432 
L 864 0 
L 0 0 
z
" style="fill: #ffffff"/>
  </g>
  <g id="axes_1">
   <g id="patch_2">
    <path d="M 81.29 364.12 
L 834.66 364.12 
L 834.66 27 
L 81.29 27 
z
" style="fill: #ffffff"/>
   </g>
   <g id="PolyCollection_1">
    <defs>
     <path id="me44e1576d6" d="M 81.792272 -72.909934 
L 81.792272 -67.88 
L 82.294518 -67.88 
L 82.796765 -67.88 
L 83.299012 -67.88 
L 83.801258 -67.88 
L 84.303505 -67.88 
L 84.805752 -67.88 
L 85.307998 -67.88 
L 85.810245 -67.88 
L 86.312492 -67.88 
L 86.814738 -67.88 
L 87.316985 -67.88 
L 87.819232 -67.88 
L 88.321478 -67.88 
L 88.823725 -67.88 
L 89.325972 -67.88 
L 89.828218 -67.88 
L 90.330465 -67.88 
L 90.832712 -67.88 
L 91.334958 -67.88 
L 91.837205 -67.88 
L 92.339452 -67.88 
L 92.841698 -67.88 
L 93.343945 -67.88 
L 93.846192 -67.88 
L 94.348438 -67.88 
L 94.850685 -67.88 
L 95.352932 -67.88 
L 95.855178 -67.88 
L 96.357425 -67.88 
L 96.859672 -67.88 
L 97.361918 -67.88 
L 97.864165 -67.88 
L 98.366412 -67.88 
L 98.868658 -67.88 
L 99.370905 -67.88 
L 99.873152 -67.88 
L 100.375398 -67.88 
L 100.877645 -67.88 
L 101.379892 -67.88 
L 101.882138 -67.88 
L 102.384385 -67.88 
L 102.886632 -67.88 
L 103.388878 -67.88 
L 103.891125 -67.88 
L 104.393372 -67.88 
L 104.895618 -67.88 
L 105.397865 -67.88 
L 105.900112 -67.88 
L 106.402333 -67.88 
L 106.90458 -67.88 
L 107.406827 -67.88 
L 107.909073 -67.88 
L 108.41132 -67.88 
L 108.913567 -67.88 
L 109.415813 -67.88 
L 109.91806 -67.88 
L 110.420307 -67.88 
L 110.922553 -67.88 
L 111.4248 -67.88 
L 111.927047 -67.88 
L 112.429293 -67.88 
L 112.93154 -67.88 
L 113.433787 -67.88 
L 113.936033 -67.88 
L 114.43828 -67.88 
L 114.940527 -67.88 
L 115.442773 -67.88 
L 115.94502 -67.88 
L 116.447267 -67.88 
L 116.949513 -67.88 
L 117.45176 -67.88 
L 117.954007 -67.88 
L 118.456253 -67.88 
L 118.9585 -67.88 
L 119.460747 -67.88 
L 119.962993 -67.88 
L 120.46524 -67.88 
L 120.967487 -67.88 
L 121.469733 -67.88 
L 121.97198 -67.88 
L 122.474227 -67.88 
L 122.976473 -67.88 
L 123.47872 -67.88 
L 123.980967 -67.88 
L 124.483213 -67.88 
L 124.98546 -67.88 
L 125.487707 -67.88 
L 125.989953 -67.88 
L 126.4922 -67.88 
L 126.994447 -67.88 
L 127.496693 -67.88 
L 127.99894 -67.88 
L 128.501187 -67.88 
L 129.003433 -67.88 
L 129.50568 -67.88 
L 130.007927 -67.88 
L 130.510173 -67.88 
L 131.01242 -67.88 
L 131.514667 -67.88 
L 131.514667 -67.88 
L 131.514667 -67.88 
L 131.01242 -67.88 
L 130.510173 -67.88 
L 130.007927 -67.88 
L 129.50568 -67.88 
L 129.003433 -67.88 
L 128.501187 -67.88 
L 127.99894 -67.88 
L 127.496693 -67.88 
L 126.994447 -67.88 
L 126.4922 -67.88 
L 125.989953 -67.88 
L 125.487707 -67.88 
L 124.98546 -67.88 
L 124.483213 -67.88 
L 123.980967 -67.88 
L 123.47872 -67.88 
L 122.976473 -67.88 
L 122.474227 -67.88 
L 121.97198 -67.88 
L 121.469733 -67.88 
L 120.967487 -67.88 
L 120.46524 -67.88 
L 119.962993 -67.88 
L 119.460747 -67.88 
L 118.9585 -67.88 
L 118.456253 -67.88 
L 117.954007 -67.88 
L 117.45176 -67.88 
L 116.949513 -67.88 
L 116.447267 -67.88 
L 115.94502 -67.88 
L 115.442773 -67.88 
L 114.940527 -67.88 
L 114.43828 -67.88 
L 113.936033 -67.88 
L 113.433787 -67.88 
L 112.93154 -67.88 
L 112.429293 -67.88 
L 111.927047 -67.88 
L 111.4248 -67.88 
L 110.922553 -67.88 
L 110.420307 -67.88 
L 109.91806 -67.88 
L 109.415813 -67.88 
L 108.913567 -67.88 
L 108.41132 -67.88 
L 107.909073 -67.88 
L 107.406827 -67.880843 
L 106.90458 -67.883054 
L 106.402333 -67.883371 
L 105.900112 -67.900337 
L 105.397865 -67.9674 
L 104.895618 -68.118877 
L 104.393372 -68.537632 
L 103.891125 -69.807513 
L 103.388878 -72.461973 
L 102.886632 -78.207257 
L 102.384385 -88.802156 
L 101.882138 -105.784346 
L 101.379892 -129.931896 
L 100.877645 -160.622612 
L 100.375398 -194.315413 
L 99.873152 -225.758066 
L 99.370905 -251.295159 
L 98.868658 -266.698821 
L 98.366412 -277.009948 
L 97.864165 -275.926992 
L 97.361918 -269.907487 
L 96.859672 -260.943062 
L 96.357425 -248.371385 
L 95.855178 -235.971251 
L 95.352932 -223.530301 
L 94.850685 -210.951756 
L 94.348438 -200.598093 
L 93.846192 -190.580799 
L 93.343945 -179.778918 
L 92.841698 -173.775148 
L 92.339452 -166.516028 
L 91.837205 -160.075485 
L 91.334958 -154.684287 
L 90.832712 -149.33839 
L 90.330465 -145.650466 
L 89.828218 -141.453583 
L 89.325972 -136.902033 
L 88.823725 -134.448086 
L 88.321478 -131.544817 
L 87.819232 -129.092353 
L 87.316985 -124.923898 
L 86.814738 -123.43108 
L 86.312492 -120.336841 
L 85.810245 -114.695795 
L 85.307998 -108.583447 
L 84.805752 -100.271938 
L 84.303505 -120.092808 
L 83.801258 -114.924852 
L 83.299012 -101.81342 
L 82.796765 -90.801648 
L 82.294518 -80.601381 
L 81.792272 -72.909934 
z
" style="stroke: #3b0f70"/>
    </defs>
    <g clip-path="url(#p6e59cb63b2)">
     <use xlink:href="#me44e1576d6" x="0" y="432" style="fill: #3b0f70; stroke: #3b0f70"/>
    </g>
   </g>
   <g id="PolyCollection_2">
    <defs>
     <path id="m61167ebf21" d="M 82.834434 -68.879378 
L 82.834434 -67.88 
L 84.378842 -67.88 
L 85.923251 -67.88 
L 87.467659 -67.88 
L 89.012068 -67.88 
L 90.556476 -67.88 
L 92.100885 -67.88 
L 93.645293 -67.88 
L 95.189702 -67.88 
L 96.73411 -67.88 
L 98.278519 -67.88 
L 99.822927 -67.88 
L 101.367336 -67.88 
L 102.911744 -67.88 
L 104.456153 -67.88 
L 106.000561 -67.88 
L 107.544945 -67.88 
L 109.089353 -67.88 
L 110.633762 -67.88 
L 112.17817 -67.88 
L 113.722579 -67.88 
L 115.266987 -67.88 
L 116.811396 -67.88 
L 118.355804 -67.88 
L 119.900213 -67.88 
L 121.444621 -67.88 
L 122.98903 -67.88 
L 124.533438 -67.88 
L 126.077847 -67.88 
L 127.622255 -67.88 
L 129.166664 -67.88 
L 130.711072 -67.88 
L 132.255481 -67.88 
L 133.799889 -67.88 
L 135.344298 -67.88 
L 136.888706 -67.88 
L 138.433115 -67.88 
L 139.977523 -67.88 
L 141.521932 -67.88 
L 143.06634 -67.88 
L 144.610748 -67.88 
L 146.155157 -67.88 
L 147.699566 -67.88 
L 149.243974 -67.88 
L 150.788383 -67.88 
L 152.332791 -67.88 
L 153.8772 -67.88 
L 155.421608 -67.88 
L 156.966017 -67.88 
L 158.510425 -67.88 
L 160.054834 -67.88 
L 161.599242 -67.88 
L 163.143651 -67.88 
L 164.688059 -67.88 
L 166.232468 -67.88 
L 167.776876 -67.88 
L 169.321284 -67.88 
L 170.865693 -67.88 
L 172.410101 -67.88 
L 173.95451 -67.88 
L 175.498919 -67.88 
L 177.043327 -67.88 
L 178.587736 -67.88 
L 180.132144 -67.88 
L 181.676553 -67.88 
L 183.220961 -67.88 
L 184.765369 -67.88 
L 186.309778 -67.88 
L 187.854186 -67.88 
L 189.398595 -67.88 
L 190.943004 -67.88 
L 192.487412 -67.88 
L 194.031821 -67.88 
L 195.576229 -67.88 
L 197.120637 -67.88 
L 198.665046 -67.88 
L 200.209454 -67.88 
L 201.753863 -67.88 
L 203.298271 -67.88 
L 204.84268 -67.88 
L 206.387089 -67.88 
L 207.931497 -67.88 
L 209.475905 -67.88 
L 211.020314 -67.88 
L 212.564722 -67.88 
L 214.109131 -67.88 
L 215.653539 -67.88 
L 217.197948 -67.88 
L 218.742356 -67.88 
L 220.286765 -67.88 
L 221.831174 -67.88 
L 223.375582 -67.88 
L 224.91999 -67.88 
L 226.464399 -67.88 
L 228.008807 -67.88 
L 229.553216 -67.88 
L 231.097624 -67.88 
L 232.642033 -67.88 
L 234.186442 -67.88 
L 235.73085 -67.88 
L 235.73085 -69.01929 
L 235.73085 -69.01929 
L 234.186442 -71.578929 
L 232.642033 -78.013913 
L 231.097624 -91.061488 
L 229.553216 -113.288992 
L 228.008807 -144.449168 
L 226.464399 -179.536344 
L 224.91999 -210.16394 
L 223.375582 -229.081294 
L 221.831174 -231.276813 
L 220.286765 -220.659126 
L 218.742356 -202.620838 
L 217.197948 -182.843474 
L 215.653539 -165.617114 
L 214.109131 -150.610782 
L 212.564722 -138.980277 
L 211.020314 -129.33529 
L 209.475905 -122.899172 
L 207.931497 -117.722813 
L 206.387089 -112.246416 
L 204.84268 -109.10091 
L 203.298271 -106.450928 
L 201.753863 -102.954965 
L 200.209454 -101.806734 
L 198.665046 -99.505314 
L 197.120637 -98.432546 
L 195.576229 -96.453886 
L 194.031821 -94.764849 
L 192.487412 -94.595074 
L 190.943004 -91.376832 
L 189.398595 -83.573269 
L 187.854186 -76.160802 
L 186.309778 -86.641193 
L 184.765369 -91.476204 
L 183.220961 -89.239546 
L 181.676553 -120.395534 
L 180.132144 -104.606996 
L 178.587736 -97.128786 
L 177.043327 -92.524686 
L 175.498919 -90.394492 
L 173.95451 -89.985705 
L 172.410101 -90.886258 
L 170.865693 -89.748416 
L 169.321284 -88.470292 
L 167.776876 -89.522157 
L 166.232468 -88.104939 
L 164.688059 -88.704035 
L 163.143651 -87.357504 
L 161.599242 -88.230273 
L 160.054834 -87.938971 
L 158.510425 -87.094481 
L 156.966017 -85.449955 
L 155.421608 -86.200525 
L 153.8772 -87.632725 
L 152.332791 -87.271657 
L 150.788383 -85.115982 
L 149.243974 -84.881483 
L 147.699566 -85.140206 
L 146.155157 -84.784556 
L 144.610748 -85.623676 
L 143.06634 -84.673533 
L 141.521932 -84.052164 
L 139.977523 -81.86982 
L 138.433115 -78.287593 
L 136.888706 -75.500964 
L 135.344298 -73.470445 
L 133.799889 -70.3364 
L 132.255481 -86.373896 
L 130.711072 -92.818947 
L 129.166664 -88.028429 
L 127.622255 -83.681161 
L 126.077847 -82.046304 
L 124.533438 -80.937575 
L 122.98903 -80.504069 
L 121.444621 -80.127265 
L 119.900213 -80.314757 
L 118.355804 -80.077388 
L 116.811396 -80.174841 
L 115.266987 -79.848422 
L 113.722579 -79.574371 
L 112.17817 -79.911406 
L 110.633762 -80.070491 
L 109.089353 -80.160392 
L 107.544945 -79.943589 
L 106.000561 -79.494546 
L 104.456153 -78.822584 
L 102.911744 -79.500257 
L 101.367336 -79.216161 
L 99.822927 -78.54953 
L 98.278519 -78.029625 
L 96.73411 -77.142748 
L 95.189702 -76.355695 
L 93.645293 -74.897943 
L 92.100885 -76.90408 
L 90.556476 -80.47077 
L 89.012068 -77.78876 
L 87.467659 -74.864676 
L 85.923251 -72.113139 
L 84.378842 -70.448466 
L 82.834434 -68.879378 
z
" style="stroke: #8c2981"/>
    </defs>
    <g clip-path="url(#p6e59cb63b2)">
     <use xlink:href="#m61167ebf21" x="0" y="432" style="fill: #8c2981; stroke: #8c2981"/>
    </g>
   </g>
   <g id="PolyCollection_3">
    <defs>
     <path id="mce93ed8b1b" d="M 84.09005 -68.726695 
L 84.09005 -67.88 
L 86.890075 -67.88 
L 89.690101 -67.88 
L 92.490126 -67.88 
L 95.290151 -67.88 
L 98.090176 -67.88 
L 100.890201 -67.88 
L 103.690226 -67.88 
L 106.490227 -67.88 
L 109.290252 -67.88 
L 112.090277 -67.88 
L 114.890302 -67.88 
L 117.690327 -67.88 
L 120.490352 -67.88 
L 123.290378 -67.88 
L 126.090403 -67.88 
L 128.890428 -67.88 
L 131.690453 -67.88 
L 134.490478 -67.88 
L 137.290503 -67.88 
L 140.090529 -67.88 
L 142.890554 -67.88 
L 145.690579 -67.88 
L 148.490604 -67.88 
L 151.290629 -67.88 
L 154.090654 -67.88 
L 156.89068 -67.88 
L 159.690705 -67.88 
L 162.49073 -67.88 
L 165.290755 -67.88 
L 168.09078 -67.88 
L 170.890805 -67.88 
L 173.690831 -67.88 
L 176.490856 -67.88 
L 179.290881 -67.88 
L 182.090906 -67.88 
L 184.890931 -67.88 
L 187.690956 -67.88 
L 190.490982 -67.88 
L 193.291007 -67.88 
L 196.091032 -67.88 
L 198.891057 -67.88 
L 201.691082 -67.88 
L 204.491107 -67.88 
L 207.291133 -67.88 
L 210.091158 -67.88 
L 212.891183 -67.88 
L 215.691208 -67.88 
L 218.491233 -67.88 
L 221.291258 -67.88 
L 224.091284 -67.88 
L 226.891309 -67.88 
L 229.691334 -67.88 
L 232.491359 -67.88 
L 235.291384 -67.88 
L 238.091409 -67.88 
L 240.891435 -67.88 
L 243.69146 -67.88 
L 246.491485 -67.88 
L 249.29151 -67.88 
L 252.091535 -67.88 
L 254.89156 -67.88 
L 257.691585 -67.88 
L 260.491611 -67.88 
L 263.291636 -67.88 
L 266.091661 -67.88 
L 268.891686 -67.88 
L 271.691711 -67.88 
L 274.491737 -67.88 
L 277.291762 -67.88 
L 280.091787 -67.88 
L 282.891812 -67.88 
L 285.691837 -67.88 
L 288.491862 -67.88 
L 291.291888 -67.88 
L 294.091913 -67.88 
L 296.891938 -67.88 
L 299.691963 -67.88 
L 302.491988 -67.88 
L 305.292013 -67.88 
L 308.092039 -67.88 
L 310.892064 -67.88 
L 313.692089 -67.88 
L 316.492114 -67.88 
L 319.292139 -67.88 
L 322.092164 -67.88 
L 324.892189 -67.88 
L 327.692215 -67.88 
L 330.49224 -67.88 
L 333.292265 -67.88 
L 336.09229 -67.88 
L 338.892315 -67.88 
L 341.692341 -67.88 
L 344.492366 -67.88 
L 347.292391 -67.88 
L 350.092416 -67.88 
L 352.892441 -67.88 
L 355.692466 -67.88 
L 358.492491 -67.88 
L 361.292517 -67.88 
L 361.292517 -67.88 
L 361.292517 -67.88 
L 358.492491 -67.88 
L 355.692466 -67.88 
L 352.892441 -67.880577 
L 350.092416 -67.886521 
L 347.292391 -67.921356 
L 344.492366 -68.180741 
L 341.692341 -69.300764 
L 338.892315 -73.07295 
L 336.09229 -83.079583 
L 333.292265 -102.927507 
L 330.49224 -132.798692 
L 327.692215 -165.53125 
L 324.892189 -189.193753 
L 322.092164 -194.472176 
L 319.292139 -183.614771 
L 316.492114 -164.605805 
L 313.692089 -145.033747 
L 310.892064 -129.310664 
L 308.092039 -118.194823 
L 305.292013 -110.673878 
L 302.491988 -105.102987 
L 299.691963 -101.367747 
L 296.891938 -97.787275 
L 294.091913 -95.028006 
L 291.291888 -94.041756 
L 288.491862 -91.04772 
L 285.691837 -90.501709 
L 282.891812 -88.32793 
L 280.091787 -88.023132 
L 277.291762 -87.096437 
L 274.491737 -86.156573 
L 271.691711 -85.491103 
L 268.891686 -84.602748 
L 266.091661 -84.439371 
L 263.291636 -84.248908 
L 260.491611 -83.011959 
L 257.691585 -82.976602 
L 254.89156 -81.415346 
L 252.091535 -81.943926 
L 249.29151 -81.332491 
L 246.491485 -80.553029 
L 243.69146 -80.621803 
L 240.891435 -80.211255 
L 238.091409 -80.091034 
L 235.291384 -79.698377 
L 232.491359 -79.428109 
L 229.691334 -79.205006 
L 226.891309 -79.462012 
L 224.091284 -78.829168 
L 221.291258 -78.822026 
L 218.491233 -78.237636 
L 215.691208 -78.120781 
L 212.891183 -77.503883 
L 210.091158 -78.304849 
L 207.291133 -77.330319 
L 204.491107 -77.479192 
L 201.691082 -77.552057 
L 198.891057 -77.435422 
L 196.091032 -75.959364 
L 193.291007 -73.390311 
L 190.490982 -70.961496 
L 187.690956 -71.651714 
L 184.890931 -77.006165 
L 182.090906 -89.91856 
L 179.290881 -85.402306 
L 176.490856 -81.251434 
L 173.690831 -80.239423 
L 170.890805 -78.510075 
L 168.09078 -77.719239 
L 165.290755 -77.515226 
L 162.49073 -77.954162 
L 159.690705 -78.066629 
L 156.89068 -77.269753 
L 154.090654 -77.734405 
L 151.290629 -78.137856 
L 148.490604 -77.412784 
L 145.690579 -75.578297 
L 142.890554 -74.524029 
L 140.090529 -72.508682 
L 137.290503 -70.151193 
L 134.490478 -68.752431 
L 131.690453 -85.342012 
L 128.890428 -80.712458 
L 126.090403 -78.084607 
L 123.290378 -76.376232 
L 120.490352 -75.734525 
L 117.690327 -75.57247 
L 114.890302 -75.206471 
L 112.090277 -75.758638 
L 109.290252 -75.207557 
L 106.490227 -75.22775 
L 103.690226 -74.863827 
L 100.890201 -73.477771 
L 98.090176 -72.413831 
L 95.290151 -76.059576 
L 92.490126 -74.889637 
L 89.690101 -72.431798 
L 86.890075 -70.412425 
L 84.09005 -68.726695 
z
" style="stroke: #de4968"/>
    </defs>
    <g clip-path="url(#p6e59cb63b2)">
     <use xlink:href="#mce93ed8b1b" x="0" y="432" style="fill: #de4968; stroke: #de4968"/>
    </g>
   </g>
   <g id="PolyCollection_4">
    <defs>
     <path id="mbcaadd8aaa" d="M 88.359147 -68.508874 
L 88.359147 -67.88 
L 95.428269 -67.88 
L 102.497391 -67.88 
L 109.566487 -67.88 
L 116.635609 -67.88 
L 123.704731 -67.88 
L 130.773853 -67.88 
L 137.842975 -67.88 
L 144.912097 -67.88 
L 151.981218 -67.88 
L 159.05034 -67.88 
L 166.119462 -67.88 
L 173.188584 -67.88 
L 180.257706 -67.88 
L 187.326828 -67.88 
L 194.395949 -67.88 
L 201.465071 -67.88 
L 208.534193 -67.88 
L 215.603315 -67.88 
L 222.672437 -67.88 
L 229.741558 -67.88 
L 236.81068 -67.88 
L 243.879802 -67.88 
L 250.948924 -67.88 
L 258.018046 -67.88 
L 265.087168 -67.88 
L 272.156289 -67.88 
L 279.225411 -67.88 
L 286.294533 -67.88 
L 293.363655 -67.88 
L 300.432777 -67.88 
L 307.501899 -67.88 
L 314.57102 -67.88 
L 321.640142 -67.88 
L 328.709264 -67.88 
L 335.778386 -67.88 
L 342.847508 -67.88 
L 349.91663 -67.88 
L 356.985751 -67.88 
L 364.054873 -67.88 
L 371.123995 -67.88 
L 378.193117 -67.88 
L 385.262239 -67.88 
L 392.331361 -67.88 
L 399.400482 -67.88 
L 406.469604 -67.88 
L 413.538726 -67.88 
L 420.607848 -67.88 
L 427.67697 -67.88 
L 434.746092 -67.88 
L 441.815213 -67.88 
L 448.884335 -67.88 
L 455.953457 -67.88 
L 463.022579 -67.88 
L 470.091701 -67.88 
L 477.160823 -67.88 
L 484.229944 -67.88 
L 491.299066 -67.88 
L 498.368188 -67.88 
L 505.43731 -67.88 
L 512.506432 -67.88 
L 519.575554 -67.88 
L 526.644675 -67.88 
L 533.713797 -67.88 
L 540.782919 -67.88 
L 547.852041 -67.88 
L 554.921163 -67.88 
L 561.990285 -67.88 
L 569.059407 -67.88 
L 576.128528 -67.88 
L 583.19765 -67.88 
L 590.266772 -67.88 
L 597.335894 -67.88 
L 604.405016 -67.88 
L 611.474137 -67.88 
L 618.543259 -67.88 
L 625.612381 -67.88 
L 632.681503 -67.88 
L 639.750625 -67.88 
L 646.819747 -67.88 
L 653.888868 -67.88 
L 660.95799 -67.88 
L 668.027112 -67.88 
L 675.096234 -67.88 
L 682.165356 -67.88 
L 689.234478 -67.88 
L 696.3036 -67.88 
L 703.372721 -67.88 
L 710.441843 -67.88 
L 717.510965 -67.88 
L 724.580087 -67.88 
L 731.649209 -67.88 
L 738.71833 -67.88 
L 745.787452 -67.88 
L 752.856574 -67.88 
L 759.925696 -67.88 
L 766.994818 -67.88 
L 774.06394 -67.88 
L 781.133061 -67.88 
L 788.202183 -67.88 
L 788.202183 -67.942923 
L 788.202183 -67.942923 
L 781.133061 -68.259086 
L 774.06394 -69.600417 
L 766.994818 -73.792154 
L 759.925696 -83.584149 
L 752.856574 -100.826879 
L 745.787452 -120.952026 
L 738.71833 -135.980136 
L 731.649209 -138.317322 
L 724.580087 -129.011562 
L 717.510965 -115.953573 
L 710.441843 -104.138975 
L 703.372721 -96.128005 
L 696.3036 -91.294575 
L 689.234478 -88.00269 
L 682.165356 -85.454685 
L 675.096234 -83.851556 
L 668.027112 -82.546268 
L 660.95799 -81.545378 
L 653.888868 -80.883769 
L 646.819747 -79.790343 
L 639.750625 -79.182345 
L 632.681503 -78.697403 
L 625.612381 -78.323141 
L 618.543259 -78.108235 
L 611.474137 -77.660859 
L 604.405016 -76.998573 
L 597.335894 -76.890902 
L 590.266772 -76.550222 
L 583.19765 -76.589033 
L 576.128528 -76.406767 
L 569.059407 -75.702027 
L 561.990285 -75.329763 
L 554.921163 -75.56148 
L 547.852041 -75.100541 
L 540.782919 -75.087358 
L 533.713797 -74.900099 
L 526.644675 -74.877554 
L 519.575554 -74.849947 
L 512.506432 -74.450975 
L 505.43731 -74.576449 
L 498.368188 -74.331575 
L 491.299066 -74.015481 
L 484.229944 -73.90183 
L 477.160823 -74.038385 
L 470.091701 -73.991622 
L 463.022579 -73.767851 
L 455.953457 -73.464998 
L 448.884335 -73.527984 
L 441.815213 -73.676531 
L 434.746092 -73.68694 
L 427.67697 -73.01947 
L 420.607848 -73.08012 
L 413.538726 -73.276087 
L 406.469604 -73.225643 
L 399.400482 -73.146346 
L 392.331361 -73.104323 
L 385.262239 -72.818985 
L 378.193117 -72.674588 
L 371.123995 -72.701015 
L 364.054873 -72.465512 
L 356.985751 -72.742548 
L 349.91663 -72.677114 
L 342.847508 -72.625502 
L 335.778386 -72.200276 
L 328.709264 -72.276189 
L 321.640142 -72.148832 
L 314.57102 -72.129765 
L 307.501899 -72.260136 
L 300.432777 -72.1445 
L 293.363655 -71.885958 
L 286.294533 -72.056123 
L 279.225411 -72.222051 
L 272.156289 -72.122007 
L 265.087168 -71.99171 
L 258.018046 -71.659178 
L 250.948924 -72.110281 
L 243.879802 -71.838157 
L 236.81068 -71.865442 
L 229.741558 -72.206046 
L 222.672437 -71.679925 
L 215.603315 -71.930979 
L 208.534193 -71.2715 
L 201.465071 -69.973791 
L 194.395949 -68.692482 
L 187.326828 -72.685518 
L 180.257706 -77.222821 
L 173.188584 -74.865137 
L 166.119462 -73.132353 
L 159.05034 -71.360475 
L 151.981218 -70.456574 
L 144.912097 -69.353962 
L 137.842975 -69.715058 
L 130.773853 -75.190757 
L 123.704731 -72.84979 
L 116.635609 -71.27675 
L 109.566487 -71.410726 
L 102.497391 -71.857139 
L 95.428269 -70.141253 
L 88.359147 -68.508874 
z
" style="stroke: #fe9f6d"/>
    </defs>
    <g clip-path="url(#p6e59cb63b2)">
     <use xlink:href="#mbcaadd8aaa" x="0" y="432" style="fill: #fe9f6d; stroke: #fe9f6d"/>
    </g>
   </g>
   <g id="matplotlib.axis_1">
    <g id="xtick_1">
     <g id="line2d_1">
      <defs>
       <path id="m836c0e7e35" d="M 0 0 
L 0 3.5 
" style="stroke: #000000; stroke-width: 0.8"/>
      </defs>
      <g>
       <use xlink:href="#m836c0e7e35" x="81.29" y="364.12" style="stroke: #000000; stroke-width: 0.8"/>
      </g>
     </g>
     <g id="text_1">
      <!-- 0 -->
      <g transform="translate(77.410469 381.429688) scale(0.14 -0.14)">
       <defs>
        <path id="CenturyGothic-30" d="M 203 2297 
Q 203 3206 398 3703 
Q 594 4200 950 4456 
Q 1306 4713 1747 4713 
Q 2194 4713 2556 4455 
Q 2919 4197 3130 3681 
Q 3341 3166 3341 2297 
Q 3341 1431 3133 918 
Q 2925 406 2559 145 
Q 2194 -116 1747 -116 
Q 1306 -116 953 137 
Q 600 391 401 892 
Q 203 1394 203 2297 
z
M 638 2288 
Q 638 1509 777 1111 
Q 916 713 1187 506 
Q 1459 300 1763 300 
Q 2069 300 2334 501 
Q 2600 703 2738 1106 
Q 2909 1597 2909 2288 
Q 2909 2981 2756 3423 
Q 2603 3866 2333 4070 
Q 2063 4275 1763 4275 
Q 1456 4275 1187 4070 
Q 919 3866 778 3467 
Q 638 3069 638 2288 
z
" transform="scale(0.015625)"/>
       </defs>
       <use xlink:href="#CenturyGothic-30"/>
      </g>
     </g>
    </g>
    <g id="xtick_2">
     <g id="line2d_2">
      <g>
       <use xlink:href="#m836c0e7e35" x="206.851667" y="364.12" style="stroke: #000000; stroke-width: 0.8"/>
      </g>
     </g>
     <g id="text_2">
      <!-- 5 -->
      <g transform="translate(202.972135 381.429688) scale(0.14 -0.14)">
       <defs>
        <path id="CenturyGothic-35" d="M 3147 4597 
L 3147 4159 
L 1509 4159 
L 1281 2906 
Q 1581 2994 1822 2994 
Q 2450 2994 2858 2573 
Q 3266 2153 3266 1497 
Q 3266 1044 3056 666 
Q 2847 288 2489 86 
Q 2131 -116 1663 -116 
Q 1103 -116 718 226 
Q 334 569 259 1113 
L 731 1113 
Q 784 847 911 681 
Q 1038 516 1248 414 
Q 1459 313 1691 313 
Q 2144 313 2469 656 
Q 2794 1000 2794 1516 
Q 2794 1981 2500 2272 
Q 2206 2563 1716 2563 
Q 1309 2563 731 2316 
L 1156 4597 
L 3147 4597 
z
" transform="scale(0.015625)"/>
       </defs>
       <use xlink:href="#CenturyGothic-35"/>
      </g>
     </g>
    </g>
    <g id="xtick_3">
     <g id="line2d_3">
      <g>
       <use xlink:href="#m836c0e7e35" x="332.413333" y="364.12" style="stroke: #000000; stroke-width: 0.8"/>
      </g>
     </g>
     <g id="text_3">
      <!-- 10 -->
      <g transform="translate(324.654271 381.429688) scale(0.14 -0.14)">
       <defs>
        <path id="CenturyGothic-31" d="M 1184 4597 
L 2088 4597 
L 2088 0 
L 1631 0 
L 1631 4147 
L 909 4147 
L 1184 4597 
z
" transform="scale(0.015625)"/>
       </defs>
       <use xlink:href="#CenturyGothic-31"/>
       <use xlink:href="#CenturyGothic-30" x="55.419922"/>
      </g>
     </g>
    </g>
    <g id="xtick_4">
     <g id="line2d_4">
      <g>
       <use xlink:href="#m836c0e7e35" x="457.975" y="364.12" style="stroke: #000000; stroke-width: 0.8"/>
      </g>
     </g>
     <g id="text_4">
      <!-- 15 -->
      <g transform="translate(450.215937 381.429688) scale(0.14 -0.14)">
       <use xlink:href="#CenturyGothic-31"/>
       <use xlink:href="#CenturyGothic-35" x="55.419922"/>
      </g>
     </g>
    </g>
    <g id="xtick_5">
     <g id="line2d_5">
      <g>
       <use xlink:href="#m836c0e7e35" x="583.536667" y="364.12" style="stroke: #000000; stroke-width: 0.8"/>
      </g>
     </g>
     <g id="text_5">
      <!-- 20 -->
      <g transform="translate(575.777604 381.429688) scale(0.14 -0.14)">
       <defs>
        <path id="CenturyGothic-32" d="M 741 3156 
L 300 3156 
Q 319 3838 755 4275 
Q 1191 4713 1831 4713 
Q 2466 4713 2858 4303 
Q 3250 3894 3250 3338 
Q 3250 2947 3062 2605 
Q 2875 2263 2334 1678 
L 1191 444 
L 3313 444 
L 3313 0 
L 191 0 
L 1947 1897 
Q 2481 2469 2642 2745 
Q 2803 3022 2803 3328 
Q 2803 3716 2514 3995 
Q 2225 4275 1806 4275 
Q 1366 4275 1073 3981 
Q 781 3688 741 3156 
z
" transform="scale(0.015625)"/>
       </defs>
       <use xlink:href="#CenturyGothic-32"/>
       <use xlink:href="#CenturyGothic-30" x="55.419922"/>
      </g>
     </g>
    </g>
    <g id="xtick_6">
     <g id="line2d_6">
      <g>
       <use xlink:href="#m836c0e7e35" x="709.098333" y="364.12" style="stroke: #000000; stroke-width: 0.8"/>
      </g>
     </g>
     <g id="text_6">
      <!-- 25 -->
      <g transform="translate(701.339271 381.429688) scale(0.14 -0.14)">
       <use xlink:href="#CenturyGothic-32"/>
       <use xlink:href="#CenturyGothic-35" x="55.419922"/>
      </g>
     </g>
    </g>
    <g id="xtick_7">
     <g id="line2d_7">
      <g>
       <use xlink:href="#m836c0e7e35" x="834.66" y="364.12" style="stroke: #000000; stroke-width: 0.8"/>
      </g>
     </g>
     <g id="text_7">
      <!-- 30 -->
      <g transform="translate(826.900937 381.429688) scale(0.14 -0.14)">
       <defs>
        <path id="CenturyGothic-33" d="M 847 3531 
L 378 3531 
Q 506 4100 868 4406 
Q 1231 4713 1725 4713 
Q 2084 4713 2395 4548 
Q 2706 4384 2876 4106 
Q 3047 3828 3047 3525 
Q 3047 2931 2456 2584 
Q 2788 2450 3000 2191 
Q 3300 1825 3300 1372 
Q 3300 981 3094 626 
Q 2888 272 2531 78 
Q 2175 -116 1734 -116 
Q 1141 -116 744 226 
Q 347 569 225 1231 
L 675 1231 
Q 794 784 1016 584 
Q 1300 331 1741 331 
Q 2241 331 2544 631 
Q 2847 931 2847 1334 
Q 2847 1603 2695 1837 
Q 2544 2072 2289 2190 
Q 2034 2309 1500 2338 
L 1500 2759 
Q 1816 2759 2075 2870 
Q 2334 2981 2451 3153 
Q 2569 3325 2569 3528 
Q 2569 3828 2330 4047 
Q 2091 4266 1725 4266 
Q 1428 4266 1212 4098 
Q 997 3931 847 3531 
z
" transform="scale(0.015625)"/>
       </defs>
       <use xlink:href="#CenturyGothic-33"/>
       <use xlink:href="#CenturyGothic-30" x="55.419922"/>
      </g>
     </g>
    </g>
    <g id="text_8">
     <!-- Depth in tape [$\mu$m] -->
     <g transform="translate(364.975 403.150937) scale(0.2 -0.2)">
      <defs>
       <path id="CenturyGothic-44" d="M 559 0 
L 559 4597 
L 1513 4597 
Q 2544 4597 3009 4431 
Q 3678 4197 4054 3619 
Q 4431 3041 4431 2241 
Q 4431 1550 4132 1025 
Q 3834 500 3357 250 
Q 2881 0 2022 0 
L 559 0 
z
M 1000 434 
L 1531 434 
Q 2484 434 2853 553 
Q 3372 722 3669 1161 
Q 3966 1600 3966 2234 
Q 3966 2900 3644 3372 
Q 3322 3844 2747 4019 
Q 2316 4150 1325 4150 
L 1000 4150 
L 1000 434 
z
" transform="scale(0.015625)"/>
       <path id="CenturyGothic-65" d="M 3350 1128 
L 3719 934 
Q 3538 578 3300 359 
Q 3063 141 2766 26 
Q 2469 -88 2094 -88 
Q 1263 -88 794 457 
Q 325 1003 325 1691 
Q 325 2338 722 2844 
Q 1225 3488 2069 3488 
Q 2938 3488 3456 2828 
Q 3825 2363 3831 1666 
L 775 1666 
Q 788 1072 1153 692 
Q 1519 313 2056 313 
Q 2316 313 2561 403 
Q 2806 494 2978 644 
Q 3150 794 3350 1128 
z
M 3350 2044 
Q 3263 2394 3095 2603 
Q 2928 2813 2653 2941 
Q 2378 3069 2075 3069 
Q 1575 3069 1216 2747 
Q 953 2513 819 2044 
L 3350 2044 
z
" transform="scale(0.015625)"/>
       <path id="CenturyGothic-70" d="M 494 3400 
L 928 3400 
L 928 2775 
Q 1188 3131 1525 3309 
Q 1863 3488 2278 3488 
Q 3003 3488 3518 2966 
Q 4034 2444 4034 1709 
Q 4034 959 3523 435 
Q 3013 -88 2291 -88 
Q 1884 -88 1543 81 
Q 1203 250 928 584 
L 928 -1244 
L 494 -1244 
L 494 3400 
z
M 2244 3066 
Q 1675 3066 1286 2669 
Q 897 2272 897 1681 
Q 897 1294 1070 984 
Q 1244 675 1567 494 
Q 1891 313 2250 313 
Q 2603 313 2914 495 
Q 3225 678 3409 1006 
Q 3594 1334 3594 1694 
Q 3594 2056 3411 2381 
Q 3228 2706 2918 2886 
Q 2609 3066 2244 3066 
z
" transform="scale(0.015625)"/>
       <path id="CenturyGothic-74" d="M 869 4663 
L 1309 4663 
L 1309 3400 
L 2003 3400 
L 2003 3025 
L 1309 3025 
L 1309 0 
L 869 0 
L 869 3025 
L 272 3025 
L 272 3400 
L 869 3400 
L 869 4663 
z
" transform="scale(0.015625)"/>
       <path id="CenturyGothic-68" d="M 488 4713 
L 925 4713 
L 925 2791 
Q 1191 3141 1509 3314 
Q 1828 3488 2200 3488 
Q 2581 3488 2876 3294 
Q 3172 3100 3312 2773 
Q 3453 2447 3453 1750 
L 3453 0 
L 3016 0 
L 3016 1622 
Q 3016 2209 2969 2406 
Q 2888 2744 2673 2914 
Q 2459 3084 2113 3084 
Q 1716 3084 1402 2821 
Q 1088 2559 988 2172 
Q 925 1922 925 1247 
L 925 0 
L 488 0 
L 488 4713 
z
" transform="scale(0.015625)"/>
       <path id="CenturyGothic-20" transform="scale(0.015625)"/>
       <path id="CenturyGothic-69" d="M 641 4800 
Q 791 4800 897 4694 
Q 1003 4588 1003 4438 
Q 1003 4291 897 4184 
Q 791 4078 641 4078 
Q 494 4078 387 4184 
Q 281 4291 281 4438 
Q 281 4588 387 4694 
Q 494 4800 641 4800 
z
M 422 3400 
L 863 3400 
L 863 0 
L 422 0 
L 422 3400 
z
" transform="scale(0.015625)"/>
       <path id="CenturyGothic-6e" d="M 488 3400 
L 925 3400 
L 925 2791 
Q 1188 3141 1506 3314 
Q 1825 3488 2200 3488 
Q 2581 3488 2876 3294 
Q 3172 3100 3312 2772 
Q 3453 2444 3453 1750 
L 3453 0 
L 3019 0 
L 3019 1622 
Q 3019 2209 2969 2406 
Q 2891 2744 2675 2914 
Q 2459 3084 2113 3084 
Q 1716 3084 1402 2821 
Q 1088 2559 988 2172 
Q 925 1919 925 1247 
L 925 0 
L 488 0 
L 488 3400 
z
" transform="scale(0.015625)"/>
       <path id="CenturyGothic-61" d="M 3875 3400 
L 3875 0 
L 3444 0 
L 3444 584 
Q 3169 250 2826 81 
Q 2484 -88 2078 -88 
Q 1356 -88 845 435 
Q 334 959 334 1709 
Q 334 2444 850 2966 
Q 1366 3488 2091 3488 
Q 2509 3488 2848 3309 
Q 3188 3131 3444 2775 
L 3444 3400 
L 3875 3400 
z
M 2125 3066 
Q 1759 3066 1450 2886 
Q 1141 2706 958 2381 
Q 775 2056 775 1694 
Q 775 1334 959 1006 
Q 1144 678 1455 495 
Q 1766 313 2122 313 
Q 2481 313 2803 494 
Q 3125 675 3298 984 
Q 3472 1294 3472 1681 
Q 3472 2272 3083 2669 
Q 2694 3066 2125 3066 
z
" transform="scale(0.015625)"/>
       <path id="CenturyGothic-5b" d="M 906 4713 
L 1956 4713 
L 1956 4269 
L 1344 4269 
L 1344 -816 
L 1956 -816 
L 1956 -1244 
L 906 -1244 
L 906 4713 
z
" transform="scale(0.015625)"/>
       <path id="DejaVuSans-Oblique-3bc" d="M -84 -1331 
L 856 3500 
L 1434 3500 
L 1009 1322 
Q 997 1256 987 1175 
Q 978 1094 978 1013 
Q 978 722 1161 565 
Q 1344 409 1684 409 
Q 2147 409 2431 671 
Q 2716 934 2816 1459 
L 3213 3500 
L 3788 3500 
L 3266 809 
Q 3253 750 3248 706 
Q 3244 663 3244 628 
Q 3244 531 3283 486 
Q 3322 441 3406 441 
Q 3438 441 3492 456 
Q 3547 472 3647 513 
L 3559 50 
Q 3422 -19 3297 -55 
Q 3172 -91 3053 -91 
Q 2847 -91 2730 40 
Q 2613 172 2613 403 
Q 2438 153 2195 31 
Q 1953 -91 1625 -91 
Q 1334 -91 1117 43 
Q 900 178 831 397 
L 494 -1331 
L -84 -1331 
z
" transform="scale(0.015625)"/>
       <path id="CenturyGothic-6d" d="M 484 3400 
L 919 3400 
L 919 2813 
Q 1147 3138 1388 3288 
Q 1719 3488 2084 3488 
Q 2331 3488 2553 3391 
Q 2775 3294 2915 3133 
Q 3056 2972 3159 2672 
Q 3378 3072 3706 3280 
Q 4034 3488 4413 3488 
Q 4766 3488 5036 3309 
Q 5306 3131 5437 2812 
Q 5569 2494 5569 1856 
L 5569 0 
L 5122 0 
L 5122 1856 
Q 5122 2403 5044 2608 
Q 4966 2813 4777 2938 
Q 4588 3063 4325 3063 
Q 4006 3063 3742 2875 
Q 3478 2688 3356 2375 
Q 3234 2063 3234 1331 
L 3234 0 
L 2800 0 
L 2800 1741 
Q 2800 2356 2723 2576 
Q 2647 2797 2456 2930 
Q 2266 3063 2003 3063 
Q 1700 3063 1436 2880 
Q 1172 2697 1045 2387 
Q 919 2078 919 1441 
L 919 0 
L 484 0 
L 484 3400 
z
" transform="scale(0.015625)"/>
       <path id="CenturyGothic-5d" d="M 1341 -1244 
L 291 -1244 
L 291 -800 
L 900 -800 
L 900 4284 
L 291 4284 
L 291 4713 
L 1341 4713 
L 1341 -1244 
z
" transform="scale(0.015625)"/>
      </defs>
      <use xlink:href="#CenturyGothic-44"/>
      <use xlink:href="#CenturyGothic-65" transform="translate(74.414062 0)"/>
      <use xlink:href="#CenturyGothic-70" transform="translate(139.404297 0)"/>
      <use xlink:href="#CenturyGothic-74" transform="translate(207.617188 0)"/>
      <use xlink:href="#CenturyGothic-68" transform="translate(241.503906 0)"/>
      <use xlink:href="#CenturyGothic-20" transform="translate(302.490234 0)"/>
      <use xlink:href="#CenturyGothic-69" transform="translate(330.175781 0)"/>
      <use xlink:href="#CenturyGothic-6e" transform="translate(350.195312 0)"/>
      <use xlink:href="#CenturyGothic-20" transform="translate(411.181641 0)"/>
      <use xlink:href="#CenturyGothic-74" transform="translate(438.867188 0)"/>
      <use xlink:href="#CenturyGothic-61" transform="translate(472.753906 0)"/>
      <use xlink:href="#CenturyGothic-70" transform="translate(541.064453 0)"/>
      <use xlink:href="#CenturyGothic-65" transform="translate(609.277344 0)"/>
      <use xlink:href="#CenturyGothic-20" transform="translate(674.267578 0)"/>
      <use xlink:href="#CenturyGothic-5b" transform="translate(701.953125 0)"/>
      <use xlink:href="#DejaVuSans-Oblique-3bc" transform="translate(737.060547 0)"/>
      <use xlink:href="#CenturyGothic-6d" transform="translate(800.683594 0)"/>
      <use xlink:href="#CenturyGothic-5d" transform="translate(894.482422 0)"/>
     </g>
    </g>
   </g>
   <g id="matplotlib.axis_2">
    <g id="ytick_1">
     <g id="line2d_8">
      <defs>
       <path id="m45c239046d" d="M 0 0 
L -3.5 0 
" style="stroke: #000000; stroke-width: 0.8"/>
      </defs>
      <g>
       <use xlink:href="#m45c239046d" x="81.29" y="364.12" style="stroke: #000000; stroke-width: 0.8"/>
      </g>
     </g>
     <g id="text_9">
      <!-- 0.00 -->
      <g transform="translate(47.136563 369.274844) scale(0.14 -0.14)">
       <defs>
        <path id="CenturyGothic-2e" d="M 969 688 
Q 1128 688 1240 575 
Q 1353 463 1353 300 
Q 1353 141 1240 26 
Q 1128 -88 969 -88 
Q 809 -88 696 26 
Q 584 141 584 300 
Q 584 463 696 575 
Q 809 688 969 688 
z
" transform="scale(0.015625)"/>
       </defs>
       <use xlink:href="#CenturyGothic-30"/>
       <use xlink:href="#CenturyGothic-2e" x="55.419922"/>
       <use xlink:href="#CenturyGothic-30" x="83.105469"/>
       <use xlink:href="#CenturyGothic-30" x="138.525391"/>
      </g>
     </g>
    </g>
    <g id="ytick_2">
     <g id="line2d_9">
      <g>
       <use xlink:href="#m45c239046d" x="81.29" y="321.98" style="stroke: #000000; stroke-width: 0.8"/>
      </g>
     </g>
     <g id="text_10">
      <!-- 0.25 -->
      <g transform="translate(47.136563 327.134844) scale(0.14 -0.14)">
       <use xlink:href="#CenturyGothic-30"/>
       <use xlink:href="#CenturyGothic-2e" x="55.419922"/>
       <use xlink:href="#CenturyGothic-32" x="83.105469"/>
       <use xlink:href="#CenturyGothic-35" x="138.525391"/>
      </g>
     </g>
    </g>
    <g id="ytick_3">
     <g id="line2d_10">
      <g>
       <use xlink:href="#m45c239046d" x="81.29" y="279.84" style="stroke: #000000; stroke-width: 0.8"/>
      </g>
     </g>
     <g id="text_11">
      <!-- 0.50 -->
      <g transform="translate(47.136563 284.994844) scale(0.14 -0.14)">
       <use xlink:href="#CenturyGothic-30"/>
       <use xlink:href="#CenturyGothic-2e" x="55.419922"/>
       <use xlink:href="#CenturyGothic-35" x="83.105469"/>
       <use xlink:href="#CenturyGothic-30" x="138.525391"/>
      </g>
     </g>
    </g>
    <g id="ytick_4">
     <g id="line2d_11">
      <g>
       <use xlink:href="#m45c239046d" x="81.29" y="237.7" style="stroke: #000000; stroke-width: 0.8"/>
      </g>
     </g>
     <g id="text_12">
      <!-- 0.75 -->
      <g transform="translate(47.136563 242.854844) scale(0.14 -0.14)">
       <defs>
        <path id="CenturyGothic-37" d="M 459 4597 
L 3375 4597 
L 916 -116 
L 538 78 
L 2663 4163 
L 459 4163 
L 459 4597 
z
" transform="scale(0.015625)"/>
       </defs>
       <use xlink:href="#CenturyGothic-30"/>
       <use xlink:href="#CenturyGothic-2e" x="55.419922"/>
       <use xlink:href="#CenturyGothic-37" x="83.105469"/>
       <use xlink:href="#CenturyGothic-35" x="138.525391"/>
      </g>
     </g>
    </g>
    <g id="ytick_5">
     <g id="line2d_12">
      <g>
       <use xlink:href="#m45c239046d" x="81.29" y="195.56" style="stroke: #000000; stroke-width: 0.8"/>
      </g>
     </g>
     <g id="text_13">
      <!-- 1.00 -->
      <g transform="translate(47.136563 200.714844) scale(0.14 -0.14)">
       <use xlink:href="#CenturyGothic-31"/>
       <use xlink:href="#CenturyGothic-2e" x="55.419922"/>
       <use xlink:href="#CenturyGothic-30" x="83.105469"/>
       <use xlink:href="#CenturyGothic-30" x="138.525391"/>
      </g>
     </g>
    </g>
    <g id="ytick_6">
     <g id="line2d_13">
      <g>
       <use xlink:href="#m45c239046d" x="81.29" y="153.42" style="stroke: #000000; stroke-width: 0.8"/>
      </g>
     </g>
     <g id="text_14">
      <!-- 1.25 -->
      <g transform="translate(47.136563 158.574844) scale(0.14 -0.14)">
       <use xlink:href="#CenturyGothic-31"/>
       <use xlink:href="#CenturyGothic-2e" x="55.419922"/>
       <use xlink:href="#CenturyGothic-32" x="83.105469"/>
       <use xlink:href="#CenturyGothic-35" x="138.525391"/>
      </g>
     </g>
    </g>
    <g id="ytick_7">
     <g id="line2d_14">
      <g>
       <use xlink:href="#m45c239046d" x="81.29" y="111.28" style="stroke: #000000; stroke-width: 0.8"/>
      </g>
     </g>
     <g id="text_15">
      <!-- 1.50 -->
      <g transform="translate(47.136563 116.434844) scale(0.14 -0.14)">
       <use xlink:href="#CenturyGothic-31"/>
       <use xlink:href="#CenturyGothic-2e" x="55.419922"/>
       <use xlink:href="#CenturyGothic-35" x="83.105469"/>
       <use xlink:href="#CenturyGothic-30" x="138.525391"/>
      </g>
     </g>
    </g>
    <g id="ytick_8">
     <g id="line2d_15">
      <g>
       <use xlink:href="#m45c239046d" x="81.29" y="69.14" style="stroke: #000000; stroke-width: 0.8"/>
      </g>
     </g>
     <g id="text_16">
      <!-- 1.75 -->
      <g transform="translate(47.136563 74.294844) scale(0.14 -0.14)">
       <use xlink:href="#CenturyGothic-31"/>
       <use xlink:href="#CenturyGothic-2e" x="55.419922"/>
       <use xlink:href="#CenturyGothic-37" x="83.105469"/>
       <use xlink:href="#CenturyGothic-35" x="138.525391"/>
      </g>
     </g>
    </g>
    <g id="ytick_9">
     <g id="line2d_16">
      <g>
       <use xlink:href="#m45c239046d" x="81.29" y="27" style="stroke: #000000; stroke-width: 0.8"/>
      </g>
     </g>
     <g id="text_17">
      <!-- 2.00 -->
      <g transform="translate(47.136563 32.154844) scale(0.14 -0.14)">
       <use xlink:href="#CenturyGothic-32"/>
       <use xlink:href="#CenturyGothic-2e" x="55.419922"/>
       <use xlink:href="#CenturyGothic-30" x="83.105469"/>
       <use xlink:href="#CenturyGothic-30" x="138.525391"/>
      </g>
     </g>
    </g>
    <g id="text_18">
     <!-- [Frenkel pairs/$\mu$m-ion] -->
     <g transform="translate(38.936563 299.96) rotate(-90) scale(0.2 -0.2)">
      <defs>
       <path id="CenturyGothic-46" d="M 559 4597 
L 2863 4597 
L 2863 4144 
L 1016 4144 
L 1016 2706 
L 2863 2706 
L 2863 2253 
L 1016 2253 
L 1016 0 
L 559 0 
L 559 4597 
z
" transform="scale(0.015625)"/>
       <path id="CenturyGothic-72" d="M 322 3400 
L 769 3400 
L 769 2903 
Q 969 3197 1191 3342 
Q 1413 3488 1653 3488 
Q 1834 3488 2041 3372 
L 1813 3003 
Q 1675 3063 1581 3063 
Q 1363 3063 1159 2883 
Q 956 2703 850 2325 
Q 769 2034 769 1150 
L 769 0 
L 322 0 
L 322 3400 
z
" transform="scale(0.015625)"/>
       <path id="CenturyGothic-6b" d="M 484 4713 
L 925 4713 
L 925 2031 
L 2497 3400 
L 3141 3400 
L 1275 1778 
L 3250 0 
L 2631 0 
L 925 1528 
L 925 0 
L 484 0 
L 484 4713 
z
" transform="scale(0.015625)"/>
       <path id="CenturyGothic-6c" d="M 422 4713 
L 859 4713 
L 859 0 
L 422 0 
L 422 4713 
z
" transform="scale(0.015625)"/>
       <path id="CenturyGothic-73" d="M 2197 3028 
L 1916 2738 
Q 1566 3078 1231 3078 
Q 1019 3078 867 2937 
Q 716 2797 716 2609 
Q 716 2444 841 2294 
Q 966 2141 1366 1934 
Q 1853 1681 2028 1447 
Q 2200 1209 2200 913 
Q 2200 494 1906 203 
Q 1613 -88 1172 -88 
Q 878 -88 611 40 
Q 344 169 169 394 
L 444 706 
Q 778 328 1153 328 
Q 1416 328 1600 497 
Q 1784 666 1784 894 
Q 1784 1081 1663 1228 
Q 1541 1372 1113 1591 
Q 653 1828 488 2059 
Q 322 2291 322 2588 
Q 322 2975 586 3231 
Q 850 3488 1253 3488 
Q 1722 3488 2197 3028 
z
" transform="scale(0.015625)"/>
       <path id="CenturyGothic-2f" d="M 2613 4713 
L 703 -625 
L 225 -625 
L 2131 4713 
L 2613 4713 
z
" transform="scale(0.015625)"/>
       <path id="CenturyGothic-2d" d="M 203 1919 
L 1922 1919 
L 1922 1538 
L 203 1538 
L 203 1919 
z
" transform="scale(0.015625)"/>
       <path id="CenturyGothic-6f" d="M 2097 3488 
Q 2881 3488 3397 2919 
Q 3866 2400 3866 1691 
Q 3866 978 3370 445 
Q 2875 -88 2097 -88 
Q 1316 -88 820 445 
Q 325 978 325 1691 
Q 325 2397 794 2916 
Q 1309 3488 2097 3488 
z
M 2097 3059 
Q 1553 3059 1162 2656 
Q 772 2253 772 1681 
Q 772 1313 950 994 
Q 1128 675 1431 501 
Q 1734 328 2097 328 
Q 2459 328 2762 501 
Q 3066 675 3244 994 
Q 3422 1313 3422 1681 
Q 3422 2253 3030 2656 
Q 2638 3059 2097 3059 
z
" transform="scale(0.015625)"/>
      </defs>
      <use xlink:href="#CenturyGothic-5b"/>
      <use xlink:href="#CenturyGothic-46" transform="translate(35.107422 0)"/>
      <use xlink:href="#CenturyGothic-72" transform="translate(83.59375 0)"/>
      <use xlink:href="#CenturyGothic-65" transform="translate(113.671875 0)"/>
      <use xlink:href="#CenturyGothic-6e" transform="translate(178.662109 0)"/>
      <use xlink:href="#CenturyGothic-6b" transform="translate(239.648438 0)"/>
      <use xlink:href="#CenturyGothic-65" transform="translate(289.84375 0)"/>
      <use xlink:href="#CenturyGothic-6c" transform="translate(354.833984 0)"/>
      <use xlink:href="#CenturyGothic-20" transform="translate(374.853516 0)"/>
      <use xlink:href="#CenturyGothic-70" transform="translate(402.539062 0)"/>
      <use xlink:href="#CenturyGothic-61" transform="translate(470.751953 0)"/>
      <use xlink:href="#CenturyGothic-69" transform="translate(539.0625 0)"/>
      <use xlink:href="#CenturyGothic-72" transform="translate(559.082031 0)"/>
      <use xlink:href="#CenturyGothic-73" transform="translate(589.160156 0)"/>
      <use xlink:href="#CenturyGothic-2f" transform="translate(627.978516 0)"/>
      <use xlink:href="#DejaVuSans-Oblique-3bc" transform="translate(671.679688 0)"/>
      <use xlink:href="#CenturyGothic-6d" transform="translate(735.302734 0)"/>
      <use xlink:href="#CenturyGothic-2d" transform="translate(829.101562 0)"/>
      <use xlink:href="#CenturyGothic-69" transform="translate(862.304688 0)"/>
      <use xlink:href="#CenturyGothic-6f" transform="translate(882.324219 0)"/>
      <use xlink:href="#CenturyGothic-6e" transform="translate(947.802734 0)"/>
      <use xlink:href="#CenturyGothic-5d" transform="translate(1008.789062 0)"/>
     </g>
    </g>
   </g>
   <g id="line2d_17">
    <path d="M 131.514667 364.12 
L 131.514667 27 
" clip-path="url(#p6e59cb63b2)" style="fill: none; stroke-dasharray: 1,1.65; stroke-dashoffset: 0; stroke: #000000"/>
   </g>
   <g id="line2d_18">
    <path d="M 181.739333 364.12 
L 181.739333 27 
" clip-path="url(#p6e59cb63b2)" style="fill: none; stroke-dasharray: 1,1.65; stroke-dashoffset: 0; stroke: #000000"/>
   </g>
   <g id="patch_3">
    <path d="M 81.29 364.12 
L 81.29 27 
" style="fill: none; stroke: #000000; stroke-width: 0.8; stroke-linejoin: miter; stroke-linecap: square"/>
   </g>
   <g id="patch_4">
    <path d="M 834.66 364.12 
L 834.66 27 
" style="fill: none; stroke: #000000; stroke-width: 0.8; stroke-linejoin: miter; stroke-linecap: square"/>
   </g>
   <g id="patch_5">
    <path d="M 81.29 364.12 
L 834.66 364.12 
" style="fill: none; stroke: #000000; stroke-width: 0.8; stroke-linejoin: miter; stroke-linecap: square"/>
   </g>
   <g id="patch_6">
    <path d="M 81.29 27 
L 834.66 27 
" style="fill: none; stroke: #000000; stroke-width: 0.8; stroke-linejoin: miter; stroke-linecap: square"/>
   </g>
  </g>
 </g>
 <defs>
  <clipPath id="p6e59cb63b2">
   <rect x="81.29" y="27" width="753.37" height="337.12"/>
  </clipPath>
 </defs>
</svg>
