<?xml version="1.0" encoding="UTF-8" standalone="no"?>
<!-- Created with Inkscape (http://www.inkscape.org/) -->

<svg
   width="94mm"
   height="70mm"
   viewBox="0 0 94 70"
   version="1.1"
   id="svg1"
   inkscape:version="1.3.2 (091e20e, 2023-11-25)"
   sodipodi:docname="figure13-FEMschematic.svg"
   xmlns:inkscape="http://www.inkscape.org/namespaces/inkscape"
   xmlns:sodipodi="http://sodipodi.sourceforge.net/DTD/sodipodi-0.dtd"
   xmlns="http://www.w3.org/2000/svg"
   xmlns:svg="http://www.w3.org/2000/svg">
  <sodipodi:namedview
     id="namedview1"
     pagecolor="#ffffff"
     bordercolor="#000000"
     borderopacity="0.25"
     inkscape:showpageshadow="2"
     inkscape:pageopacity="0.0"
     inkscape:pagecheckerboard="0"
     inkscape:deskcolor="#d1d1d1"
     inkscape:document-units="mm"
     inkscape:zoom="1.1701263"
     inkscape:cx="170.92173"
     inkscape:cy="169.21251"
     inkscape:window-width="1712"
     inkscape:window-height="799"
     inkscape:window-x="142"
     inkscape:window-y="66"
     inkscape:window-maximized="0"
     inkscape:current-layer="g23" />
  <defs
     id="defs1">
    <marker
       style="overflow:visible"
       id="marker10"
       refX="0"
       refY="0"
       orient="auto"
       inkscape:stockid="Stop"
       markerWidth="0.60000002"
       markerHeight="0.30000001"
       viewBox="0 0 1 1"
       inkscape:isstock="true"
       inkscape:collect="always"
       preserveAspectRatio="none"
       markerUnits="userSpaceOnUse">
      <path
         style="fill:none;stroke:context-stroke;stroke-width:1"
         d="M 0,4 V -4"
         id="path10" />
    </marker>
    <marker
       style="overflow:visible"
       id="Stop"
       refX="0"
       refY="0"
       orient="auto"
       inkscape:stockid="Stop"
       markerWidth="0.60000002"
       markerHeight="0.30000001"
       viewBox="0 0 1 1"
       inkscape:isstock="true"
       inkscape:collect="always"
       preserveAspectRatio="none"
       markerUnits="userSpaceOnUse">
      <path
         style="fill:none;stroke:context-stroke;stroke-width:1"
         d="M 0,4 V -4"
         id="path23" />
    </marker>
    <marker
       style="overflow:visible"
       id="Triangle"
       refX="0"
       refY="0"
       orient="auto-start-reverse"
       inkscape:stockid="Triangle arrow"
       markerWidth="0.30000001"
       markerHeight="0.30000001"
       viewBox="0 0 1 1"
       inkscape:isstock="true"
       inkscape:collect="always"
       preserveAspectRatio="xMidYMid"
       markerUnits="userSpaceOnUse">
      <path
         transform="scale(0.5)"
         style="fill:context-stroke;fill-rule:evenodd;stroke:context-stroke;stroke-width:1pt"
         d="M 5.77,0 -2.88,5 V -5 Z"
         id="path135" />
    </marker>
    <marker
       style="overflow:visible"
       id="Triangle-8"
       refX="0"
       refY="0"
       orient="auto-start-reverse"
       inkscape:stockid="Triangle arrow"
       markerWidth="0.30000001"
       markerHeight="0.30000001"
       viewBox="0 0 1 1"
       inkscape:isstock="true"
       inkscape:collect="always"
       preserveAspectRatio="xMidYMid"
       markerUnits="userSpaceOnUse">
      <path
         transform="scale(0.5)"
         style="fill:context-stroke;fill-rule:evenodd;stroke:context-stroke;stroke-width:1pt"
         d="M 5.77,0 -2.88,5 V -5 Z"
         id="path135-4" />
    </marker>
    <marker
       style="overflow:visible"
       id="Triangle-8-0"
       refX="0"
       refY="0"
       orient="auto-start-reverse"
       inkscape:stockid="Triangle arrow"
       markerWidth="0.30000001"
       markerHeight="0.30000001"
       viewBox="0 0 1 1"
       inkscape:isstock="true"
       inkscape:collect="always"
       preserveAspectRatio="xMidYMid"
       markerUnits="userSpaceOnUse">
      <path
         transform="scale(0.5)"
         style="fill:context-stroke;fill-rule:evenodd;stroke:context-stroke;stroke-width:1pt"
         d="M 5.77,0 -2.88,5 V -5 Z"
         id="path135-4-3" />
    </marker>
    <marker
       style="overflow:visible"
       id="Stop-8"
       refX="0"
       refY="0"
       orient="auto"
       inkscape:stockid="Stop"
       markerWidth="0.60000002"
       markerHeight="0.30000001"
       viewBox="0 0 1 1"
       inkscape:isstock="true"
       inkscape:collect="always"
       preserveAspectRatio="none"
       markerUnits="userSpaceOnUse">
      <path
         style="fill:none;stroke:context-stroke;stroke-width:1"
         d="M 0,4 V -4"
         id="path23-5" />
    </marker>
    <marker
       style="overflow:visible"
       id="marker10-2"
       refX="0"
       refY="0"
       orient="auto"
       inkscape:stockid="Stop"
       markerWidth="0.60000002"
       markerHeight="0.30000001"
       viewBox="0 0 1 1"
       inkscape:isstock="true"
       inkscape:collect="always"
       preserveAspectRatio="none"
       markerUnits="userSpaceOnUse">
      <path
         style="fill:none;stroke:context-stroke;stroke-width:1"
         d="M 0,4 V -4"
         id="path10-0" />
    </marker>
  </defs>
  <g
     inkscape:label="Layer 1"
     inkscape:groupmode="layer"
     id="layer1"
     transform="translate(-46.782706,-61.313054)">
    <text
       xml:space="preserve"
       style="font-style:normal;font-variant:normal;font-weight:normal;font-stretch:normal;font-size:7.05556px;font-family:sans-serif;-inkscape-font-specification:'sans-serif, Normal';font-variant-ligatures:normal;font-variant-caps:normal;font-variant-numeric:normal;font-variant-east-asian:normal;fill:none;stroke:#000000;stroke-width:0.600001;stroke-dasharray:none;stroke-dashoffset:0"
       x="131.70161"
       y="85.76445"
       id="text8"><tspan
         sodipodi:role="line"
         id="tspan8"
         style="stroke-width:0.6"
         x="131.70161"
         y="85.76445" /></text>
    <g
       id="g23"
       transform="translate(1.9962037,0.58201856)">
      <rect
         style="fill:#ffffff;stroke:#000000;stroke-width:0.346991;stroke-dasharray:none;stroke-dashoffset:0"
         id="rect1"
         width="89.653015"
         height="11.653009"
         x="46.956203"
         y="107.59888" />
      <rect
         style="fill:#ffffff;stroke:#000000;stroke-width:0.42872;stroke-dasharray:none;stroke-dashoffset:0"
         id="rect1-7"
         width="89.571274"
         height="5.5712795"
         x="47.001629"
         y="119.26655" />
      <rect
         style="fill:#ff0000;stroke:#ff0000;stroke-width:0.318809;stroke-dasharray:none;stroke-dashoffset:0"
         id="rect1-7-7"
         width="89.68119"
         height="0.68119109"
         x="46.949703"
         y="124.78467" />
      <rect
         style="fill:#000000;stroke:#000000;stroke-width:0.318809;stroke-dasharray:none;stroke-dashoffset:0"
         id="rect1-7-7-4"
         width="89.68119"
         height="0.68119109"
         x="46.949703"
         y="125.77038" />
      <rect
         style="fill:#000000;stroke:#000000;stroke-width:0.158088;stroke-dasharray:none;stroke-dashoffset:0"
         id="rect1-7-7-0"
         width="17.841911"
         height="0.84191209"
         x="118.86327"
         y="106.5448" />
      <rect
         style="fill:#000000;stroke:#000000;stroke-width:0.158088;stroke-dasharray:none;stroke-dashoffset:0"
         id="rect1-7-7-0-3"
         width="17.841911"
         height="0.84191209"
         x="46.861752"
         y="106.5448" />
      <path
         style="font-size:2.93981px;font-family:'Century Gothic';-inkscape-font-specification:'Century Gothic, Normal';baseline-shift:baseline;stroke-width:0.1"
         d="m 78.362971,-86.905623 h 0.211012 v 2.111556 h -0.211012 z m 1.401005,0.509587 q 0.3603,0 0.59715,0.261253 0.215318,0.238286 0.215318,0.564134 0,0.327284 -0.228237,0.572747 -0.226802,0.244027 -0.584231,0.244027 -0.358864,0 -0.587101,-0.244027 -0.226802,-0.245463 -0.226802,-0.572747 0,-0.324413 0.215318,-0.562699 0.23685,-0.262688 0.598585,-0.262688 z m 0,0.196657 q -0.249769,0 -0.429201,0.185174 -0.179432,0.185174 -0.179432,0.447862 0,0.169384 0.08182,0.315801 0.08182,0.146416 0.22106,0.226802 0.139239,0.07895 0.305752,0.07895 0.166513,0 0.305752,-0.07895 0.13924,-0.08039 0.22106,-0.226802 0.08182,-0.146417 0.08182,-0.315801 0,-0.262688 -0.180867,-0.447862 -0.179432,-0.185174 -0.427766,-0.185174 z m 1.185687,-0.156464 h 0.200964 v 0.279914 q 0.120578,-0.160771 0.266994,-0.239721 0.146417,-0.08039 0.318671,-0.08039 0.175126,0 0.310059,0.089 0.136368,0.089 0.200964,0.239721 0.06459,0.150723 0.06459,0.469394 v 0.803856 h -0.199528 v -0.745002 q 0,-0.269866 -0.02297,-0.360299 -0.03589,-0.15503 -0.134933,-0.232544 -0.09905,-0.07895 -0.258382,-0.07895 -0.182303,0 -0.327284,0.120578 -0.143546,0.120578 -0.18948,0.298575 -0.02871,0.116272 -0.02871,0.424895 v 0.572747 h -0.200964 z m 2.619706,1.561776 v -2.164668 h 0.199529 v 0.871322 q 0.12632,-0.155029 0.282784,-0.231108 0.156465,-0.07751 0.343074,-0.07751 0.331591,0 0.56557,0.241157 0.235415,0.239721 0.235415,0.582795 0,0.338767 -0.236851,0.578488 -0.23685,0.239721 -0.569876,0.239721 -0.190915,0 -0.345944,-0.08182 -0.15503,-0.08182 -0.274172,-0.245463 v 0.287092 z m 0.803855,-0.153594 q 0.167949,0 0.310059,-0.08182 0.14211,-0.08326 0.225366,-0.232544 0.08469,-0.149287 0.08469,-0.3158 0,-0.166513 -0.08469,-0.317236 -0.08469,-0.150723 -0.228237,-0.233979 -0.14211,-0.08469 -0.304317,-0.08469 -0.165077,0 -0.314364,0.08469 -0.147852,0.08326 -0.228238,0.225366 -0.07895,0.14211 -0.07895,0.320107 0,0.271301 0.177997,0.453604 0.179432,0.182303 0.440684,0.182303 z m 2.503436,-0.364606 0.169383,0.089 q -0.08326,0.163642 -0.192351,0.264124 -0.109094,0.100482 -0.245463,0.153594 -0.136368,0.05168 -0.308623,0.05168 -0.381831,0 -0.597149,-0.249769 -0.215319,-0.251205 -0.215319,-0.567005 0,-0.297139 0.182303,-0.529683 0.231109,-0.295704 0.618682,-0.295704 0.399056,0 0.637342,0.302881 0.169384,0.213883 0.172255,0.53399 h -1.403876 q 0.0057,0.272736 0.17369,0.447862 0.167949,0.17369 0.414847,0.17369 0.119143,0 0.231108,-0.04163 0.113401,-0.04163 0.192351,-0.11053 0.07895,-0.0689 0.17082,-0.222496 z m 0,-0.420588 q -0.04019,-0.160771 -0.117708,-0.256947 -0.07608,-0.09618 -0.202399,-0.155029 -0.12632,-0.05885 -0.265559,-0.05885 -0.229673,0 -0.394751,0.147852 -0.120578,0.107659 -0.182303,0.322978 z m 2.151748,-0.622988 v 1.561776 h -0.198093 v -0.268431 q -0.12632,0.153594 -0.28422,0.231109 -0.156465,0.07751 -0.343074,0.07751 -0.331591,0 -0.567005,-0.239721 -0.23398,-0.241156 -0.23398,-0.585666 0,-0.337332 0.236851,-0.577053 0.23685,-0.239721 0.569876,-0.239721 0.192351,0 0.34738,0.08182 0.156465,0.08182 0.274172,0.245463 v -0.287091 z m -0.803855,0.153594 q -0.167949,0 -0.310059,0.08326 -0.14211,0.08182 -0.226802,0.231108 -0.08326,0.149288 -0.08326,0.315801 0,0.165077 0.08469,0.3158 0.08469,0.150723 0.226802,0.235415 0.143545,0.08326 0.307187,0.08326 0.165078,0 0.312929,-0.08326 0.147852,-0.08326 0.226802,-0.225367 0.08039,-0.14211 0.08039,-0.320107 0,-0.271301 -0.179432,-0.453604 -0.177996,-0.182302 -0.439249,-0.182302 z m 1.254588,-0.153594 h 0.199528 v 0.269865 q 0.104788,-0.149287 0.215319,-0.218189 0.152158,-0.09187 0.320106,-0.09187 0.113401,0 0.215319,0.0445 0.101917,0.0445 0.166512,0.119143 0.0646,0.07321 0.111966,0.211012 0.100482,-0.183738 0.251205,-0.278478 0.150723,-0.09618 0.324413,-0.09618 0.162206,0 0.285655,0.08182 0.124885,0.08182 0.185174,0.228237 0.06029,0.146417 0.06029,0.43925 v 0.852661 h -0.20527 v -0.852661 q 0,-0.251205 -0.03589,-0.344509 -0.03589,-0.09474 -0.123449,-0.152159 -0.08613,-0.05742 -0.206706,-0.05742 -0.146417,0 -0.26843,0.08613 -0.120579,0.08613 -0.176561,0.229673 -0.05598,0.143546 -0.05598,0.479442 v 0.611505 h -0.199528 v -0.799549 q 0,-0.282785 -0.03589,-0.383267 -0.03445,-0.101917 -0.122014,-0.162206 -0.08756,-0.06172 -0.208141,-0.06172 -0.139239,0 -0.261253,0.08469 -0.120578,0.08326 -0.179432,0.225366 -0.05742,0.142111 -0.05742,0.434944 v 0.661745 h -0.199528 z m 4.358044,0.170819 -0.129191,0.133497 q -0.160771,-0.156464 -0.314365,-0.156464 -0.09761,0 -0.167949,0.0646 -0.0689,0.0646 -0.0689,0.150723 0,0.07608 0.05742,0.144981 0.05742,0.07034 0.241156,0.165078 0.223931,0.116271 0.304317,0.223931 0.07895,0.109094 0.07895,0.245463 0,0.192351 -0.134933,0.325848 -0.134933,0.133497 -0.337332,0.133497 -0.134933,0 -0.258382,-0.05885 -0.122014,-0.05885 -0.202399,-0.162207 l 0.12632,-0.143545 q 0.153594,0.17369 0.325848,0.17369 0.120579,0 0.205271,-0.07752 0.08469,-0.07751 0.08469,-0.182303 0,-0.08613 -0.05598,-0.153593 -0.05598,-0.06603 -0.252641,-0.166513 -0.211012,-0.109095 -0.287091,-0.215319 -0.07608,-0.106223 -0.07608,-0.242592 0,-0.177996 0.120578,-0.295704 0.122014,-0.117707 0.307188,-0.117707 0.215318,0 0.433508,0.211012 z m 0.358863,-0.170819 h 0.199528 v 0.287091 q 0.119143,-0.163642 0.274172,-0.245463 0.15503,-0.08182 0.345945,-0.08182 0.333026,0 0.569876,0.239721 0.23685,0.239721 0.23685,0.577053 0,0.34451 -0.235414,0.585666 -0.23398,0.239721 -0.56557,0.239721 -0.186609,0 -0.343074,-0.07751 -0.156465,-0.07752 -0.282785,-0.231109 v 0.839742 h -0.199528 z m 0.803855,0.153594 q -0.261253,0 -0.440685,0.182302 -0.177996,0.182303 -0.177996,0.453604 0,0.177997 0.07895,0.320107 0.08039,0.14211 0.228237,0.225367 0.149288,0.08326 0.314365,0.08326 0.162207,0 0.304317,-0.08326 0.143545,-0.08469 0.228237,-0.235415 0.08469,-0.150723 0.08469,-0.3158 0,-0.166513 -0.08469,-0.315801 -0.08326,-0.149287 -0.225366,-0.231108 -0.142111,-0.08326 -0.310059,-0.08326 z m 1.937867,-0.193787 q 0.360299,0 0.597149,0.261253 0.215319,0.238286 0.215319,0.564134 0,0.327284 -0.228238,0.572747 -0.226802,0.244027 -0.58423,0.244027 -0.358864,0 -0.587102,-0.244027 -0.226802,-0.245463 -0.226802,-0.572747 0,-0.324413 0.215319,-0.562699 0.23685,-0.262688 0.598585,-0.262688 z m 0,0.196657 q -0.24977,0 -0.429202,0.185174 -0.179432,0.185174 -0.179432,0.447862 0,0.169384 0.08182,0.315801 0.08182,0.146416 0.221061,0.226802 0.139239,0.07895 0.305752,0.07895 0.166513,0 0.305752,-0.07895 0.139239,-0.08039 0.22106,-0.226802 0.08182,-0.146417 0.08182,-0.315801 0,-0.262688 -0.180868,-0.447862 -0.179431,-0.185174 -0.427765,-0.185174 z m 1.360811,-0.736388 h 0.2024 v 0.579924 h 0.318671 v 0.172254 h -0.318671 v 1.389522 h -0.2024 v -1.389522 h -0.274172 v -0.172254 h 0.274172 z"
         id="text2-0"
         transform="rotate(90)"
         aria-label="Ion beam spot" />
      <path
         style="font-size:2.93981px;font-family:'Century Gothic';-inkscape-font-specification:'Century Gothic, Normal';baseline-shift:baseline;stroke-width:0.1"
         d="m 48.175827,112.10207 h 1.057931 v 0.20814 h -0.848354 v 0.66031 h 0.848354 v 0.20814 h -0.848354 v 1.03496 h -0.209577 z m 2.948426,0.54978 v 1.56177 H 50.92616 v -0.26843 q -0.12632,0.1536 -0.28422,0.23111 -0.156465,0.0775 -0.343074,0.0775 -0.33159,0 -0.567005,-0.23973 -0.233979,-0.24115 -0.233979,-0.58566 0,-0.33733 0.23685,-0.57705 0.23685,-0.23973 0.569876,-0.23973 0.192351,0 0.34738,0.0818 0.156465,0.0818 0.274172,0.24546 v -0.28709 z m -0.803855,0.15359 q -0.167948,0 -0.310059,0.0833 -0.14211,0.0818 -0.226802,0.23111 -0.08326,0.14928 -0.08326,0.3158 0,0.16507 0.08469,0.3158 0.08469,0.15072 0.226802,0.23541 0.143545,0.0833 0.307187,0.0833 0.165078,0 0.31293,-0.0833 0.147852,-0.0833 0.226802,-0.22537 0.08038,-0.14211 0.08038,-0.3201 0,-0.2713 -0.179432,-0.45361 -0.177996,-0.1823 -0.439249,-0.1823 z m 1.179944,-0.15359 h 0.205271 v 0.22823 q 0.09187,-0.13493 0.193786,-0.20096 0.101917,-0.0675 0.212448,-0.0675 0.08326,0 0.177996,0.0531 l -0.104788,0.16938 q -0.06316,-0.0273 -0.106224,-0.0273 -0.100482,0 -0.193786,0.0832 -0.09331,0.0818 -0.142111,0.25551 -0.03732,0.1335 -0.03732,0.53974 v 0.52824 h -0.205271 z m 2.516355,0 v 1.56177 h -0.198093 v -0.26843 q -0.12632,0.1536 -0.28422,0.23111 -0.156465,0.0775 -0.343074,0.0775 -0.331591,0 -0.567005,-0.23973 -0.23398,-0.24115 -0.23398,-0.58566 0,-0.33733 0.23685,-0.57705 0.236851,-0.23973 0.569876,-0.23973 0.192351,0 0.347381,0.0818 0.156464,0.0818 0.274172,0.24546 v -0.28709 z m -0.803856,0.15359 q -0.167948,0 -0.310058,0.0833 -0.14211,0.0818 -0.226802,0.23111 -0.08326,0.14928 -0.08326,0.3158 0,0.16507 0.08469,0.3158 0.08469,0.15072 0.226802,0.23541 0.143546,0.0833 0.307188,0.0833 0.165077,0 0.312929,-0.0833 0.147852,-0.0833 0.226802,-0.22537 0.08039,-0.14211 0.08039,-0.3201 0,-0.2713 -0.179432,-0.45361 -0.177997,-0.1823 -0.43925,-0.1823 z m 2.814929,-0.75648 v 2.16466 h -0.198093 v -0.26843 q -0.12632,0.1536 -0.28422,0.23111 -0.156465,0.0775 -0.343074,0.0775 -0.33159,0 -0.567005,-0.23973 -0.233979,-0.24115 -0.233979,-0.58566 0,-0.33733 0.23685,-0.57705 0.23685,-0.23973 0.569876,-0.23973 0.192351,0 0.34738,0.0818 0.156465,0.0818 0.274172,0.24546 v -0.88998 z m -0.803855,0.75648 q -0.167948,0 -0.310059,0.0833 -0.14211,0.0818 -0.226802,0.23111 -0.08326,0.14928 -0.08326,0.3158 0,0.16507 0.08469,0.3158 0.08469,0.15072 0.226802,0.23541 0.143545,0.0833 0.307187,0.0833 0.165078,0 0.31293,-0.0833 0.147852,-0.0833 0.226802,-0.22537 0.08038,-0.14211 0.08038,-0.3201 0,-0.2713 -0.179432,-0.45361 -0.177996,-0.1823 -0.439249,-0.1823 z m 2.814929,-0.15359 v 1.56177 h -0.198093 v -0.26843 q -0.12632,0.1536 -0.28422,0.23111 -0.156465,0.0775 -0.343074,0.0775 -0.33159,0 -0.567005,-0.23973 -0.23398,-0.24115 -0.23398,-0.58566 0,-0.33733 0.236851,-0.57705 0.23685,-0.23973 0.569876,-0.23973 0.192351,0 0.34738,0.0818 0.156465,0.0818 0.274172,0.24546 v -0.28709 z m -0.803855,0.15359 q -0.167949,0 -0.310059,0.0833 -0.14211,0.0818 -0.226802,0.23111 -0.08326,0.14928 -0.08326,0.3158 0,0.16507 0.08469,0.3158 0.08469,0.15072 0.226802,0.23541 0.143545,0.0833 0.307187,0.0833 0.165078,0 0.31293,-0.0833 0.147851,-0.0833 0.226802,-0.22537 0.08038,-0.14211 0.08038,-0.3201 0,-0.2713 -0.179432,-0.45361 -0.177996,-0.1823 -0.439249,-0.1823 z m 1.088074,-0.15359 h 0.212448 l 0.53686,1.20291 0.52107,-1.20291 h 0.213883 l -0.93161,2.13308 h -0.212448 l 0.301446,-0.68901 z m 2.381422,-0.34451 v -0.20527 h 1.158413 v 0.20527 h -0.47083 v 1.90628 H 61.17675 v -1.90628 z m 2.984312,0.34451 v 1.56177 h -0.198093 v -0.26843 q -0.12632,0.1536 -0.28422,0.23111 -0.156465,0.0775 -0.343074,0.0775 -0.331591,0 -0.567005,-0.23973 -0.23398,-0.24115 -0.23398,-0.58566 0,-0.33733 0.236851,-0.57705 0.23685,-0.23973 0.569875,-0.23973 0.192352,0 0.347381,0.0818 0.156464,0.0818 0.274172,0.24546 v -0.28709 z m -0.803855,0.15359 q -0.167949,0 -0.310059,0.0833 -0.14211,0.0818 -0.226802,0.23111 -0.08326,0.14928 -0.08326,0.3158 0,0.16507 0.08469,0.3158 0.08469,0.15072 0.226802,0.23541 0.143545,0.0833 0.307187,0.0833 0.165077,0 0.312929,-0.0833 0.147852,-0.0833 0.226802,-0.22537 0.08039,-0.14211 0.08039,-0.3201 0,-0.2713 -0.179432,-0.45361 -0.177997,-0.1823 -0.439249,-0.1823 z m 1.258894,-0.15359 h 0.199529 v 0.28709 q 0.119142,-0.16364 0.274172,-0.24546 0.155029,-0.0818 0.345944,-0.0818 0.333026,0 0.569876,0.23973 0.236851,0.23972 0.236851,0.57705 0,0.34451 -0.235415,0.58566 -0.23398,0.23973 -0.56557,0.23973 -0.186609,0 -0.343074,-0.0775 -0.156464,-0.0775 -0.282784,-0.23111 v 0.83974 h -0.199529 z m 0.803855,0.15359 q -0.261253,0 -0.440685,0.1823 -0.177996,0.18231 -0.177996,0.45361 0,0.17799 0.07895,0.3201 0.08039,0.14211 0.228237,0.22537 0.149288,0.0833 0.314365,0.0833 0.162207,0 0.304317,-0.0833 0.143545,-0.0847 0.228237,-0.23541 0.08469,-0.15073 0.08469,-0.3158 0,-0.16652 -0.08469,-0.3158 -0.08326,-0.14929 -0.225366,-0.23111 -0.14211,-0.0833 -0.310059,-0.0833 z m 2.513485,0.88998 0.169383,0.089 q -0.08326,0.16364 -0.192351,0.26413 -0.109094,0.10048 -0.245463,0.15359 -0.136368,0.0517 -0.308623,0.0517 -0.381831,0 -0.597149,-0.24977 -0.215319,-0.25121 -0.215319,-0.56701 0,-0.29714 0.182303,-0.52968 0.231109,-0.29571 0.618682,-0.29571 0.399057,0 0.637342,0.30289 0.169384,0.21388 0.172255,0.53399 H 66.27836 q 0.0057,0.27273 0.17369,0.44786 0.167949,0.17369 0.414847,0.17369 0.119143,0 0.231108,-0.0416 0.113401,-0.0416 0.192351,-0.11053 0.07895,-0.0689 0.17082,-0.2225 z m 0,-0.42059 q -0.04019,-0.16077 -0.117708,-0.25694 -0.07608,-0.0962 -0.202399,-0.15503 -0.12632,-0.0588 -0.265559,-0.0588 -0.229673,0 -0.394751,0.14785 -0.120578,0.10766 -0.182302,0.32297 z"
         id="text2-0-2"
         aria-label="Faraday Tape" />
      <path
         style="font-size:2.93981px;font-family:'Century Gothic';-inkscape-font-specification:'Century Gothic, Normal';baseline-shift:baseline;stroke-width:0.1"
         d="m 48.196384,121.1196 v -0.20527 h 1.158412 v 0.20527 h -0.470829 v 1.90629 h -0.215318 v -1.90629 z m 1.428278,-0.25838 h 0.200964 v 0.8828 q 0.122014,-0.16077 0.26843,-0.23972 0.146417,-0.0804 0.317236,-0.0804 0.175125,0 0.310058,0.089 0.136369,0.089 0.200964,0.23972 0.0646,0.14928 0.0646,0.46939 v 0.80386 h -0.200964 v -0.745 q 0,-0.26987 -0.02153,-0.3603 -0.03732,-0.15503 -0.136368,-0.23255 -0.09761,-0.079 -0.256947,-0.079 -0.182303,0 -0.327284,0.12058 -0.143545,0.12058 -0.18948,0.29857 -0.02871,0.11484 -0.02871,0.4249 v 0.57275 h -0.200964 z m 3.107762,1.64647 0.169384,0.089 q -0.08326,0.16364 -0.192352,0.26412 -0.109094,0.10048 -0.245462,0.15359 -0.136369,0.0517 -0.308623,0.0517 -0.381832,0 -0.59715,-0.24977 -0.215318,-0.2512 -0.215318,-0.56701 0,-0.29713 0.182302,-0.52968 0.231109,-0.2957 0.618682,-0.2957 0.399057,0 0.637342,0.30288 0.169384,0.21388 0.172255,0.53399 h -1.403876 q 0.0057,0.27274 0.17369,0.44786 0.167949,0.17369 0.414847,0.17369 0.119143,0 0.231108,-0.0416 0.113401,-0.0416 0.192352,-0.11053 0.07895,-0.0689 0.170819,-0.22249 z m 0,-0.42059 q -0.04019,-0.16077 -0.117708,-0.25695 -0.07608,-0.0962 -0.202399,-0.15503 -0.12632,-0.0589 -0.265559,-0.0589 -0.229673,0 -0.394751,0.14785 -0.120578,0.10766 -0.182302,0.32298 z m 0.519635,-0.62299 h 0.20527 v 0.22824 q 0.09187,-0.13493 0.193787,-0.20097 0.101917,-0.0675 0.212447,-0.0675 0.08326,0 0.177997,0.0531 l -0.104789,0.16938 q -0.06316,-0.0273 -0.106223,-0.0273 -0.100482,0 -0.193787,0.0833 -0.09331,0.0818 -0.14211,0.25551 -0.03732,0.13349 -0.03732,0.53973 v 0.52825 h -0.20527 z m 0.958884,0 h 0.199529 v 0.26987 q 0.104788,-0.14929 0.215318,-0.21819 0.152158,-0.0919 0.320107,-0.0919 0.113401,0 0.215318,0.0445 0.101917,0.0445 0.166513,0.11914 0.06459,0.0732 0.111965,0.21101 0.100482,-0.18374 0.251205,-0.27848 0.150723,-0.0962 0.324413,-0.0962 0.162207,0 0.285656,0.0818 0.124885,0.0818 0.185174,0.22824 0.06029,0.14641 0.06029,0.43925 v 0.85266 h -0.20527 v -0.85266 q 0,-0.25121 -0.03589,-0.34451 -0.03589,-0.0947 -0.123449,-0.15216 -0.08613,-0.0574 -0.206706,-0.0574 -0.146416,0 -0.26843,0.0861 -0.120578,0.0861 -0.176561,0.22967 -0.05598,0.14355 -0.05598,0.47944 v 0.61151 h -0.199528 v -0.79955 q 0,-0.28279 -0.03589,-0.38327 -0.03445,-0.10192 -0.122014,-0.16221 -0.08756,-0.0617 -0.208141,-0.0617 -0.139239,0 -0.261253,0.0847 -0.120578,0.0833 -0.179432,0.22537 -0.05742,0.14211 -0.05742,0.43494 v 0.66175 h -0.199529 z m 4.31498,0 v 1.56178 h -0.198092 v -0.26843 q -0.126321,0.15359 -0.284221,0.2311 -0.156464,0.0775 -0.343074,0.0775 -0.33159,0 -0.567005,-0.23972 -0.233979,-0.24116 -0.233979,-0.58567 0,-0.33733 0.23685,-0.57705 0.23685,-0.23972 0.569876,-0.23972 0.192351,0 0.347381,0.0818 0.156464,0.0818 0.274172,0.24546 v -0.28709 z m -0.803855,0.15359 q -0.167948,0 -0.310058,0.0833 -0.14211,0.0818 -0.226802,0.23111 -0.08326,0.14929 -0.08326,0.3158 0,0.16508 0.08469,0.3158 0.08469,0.15072 0.226802,0.23541 0.143546,0.0833 0.307188,0.0833 0.165077,0 0.312929,-0.0833 0.147852,-0.0833 0.226802,-0.22536 0.08039,-0.14211 0.08039,-0.32011 0,-0.2713 -0.179432,-0.4536 -0.177997,-0.18231 -0.43925,-0.18231 z m 1.225879,-0.75648 h 0.200964 v 2.16467 h -0.200964 z m 2.777607,0.60289 h 0.202399 v 1.24454 q 0,0.32872 -0.05742,0.48088 -0.07895,0.21532 -0.274172,0.33159 -0.195222,0.11627 -0.469394,0.11627 -0.200964,0 -0.361735,-0.0574 -0.159335,-0.056 -0.259817,-0.15216 -0.100482,-0.0947 -0.185174,-0.27847 h 0.218189 q 0.089,0.15502 0.229673,0.22967 0.140675,0.0746 0.348816,0.0746 0.20527,0 0.345945,-0.0775 0.14211,-0.0761 0.202399,-0.19235 0.06029,-0.11628 0.06029,-0.37466 v -0.0804 q -0.113401,0.14354 -0.277043,0.22106 -0.163642,0.0761 -0.34738,0.0761 -0.215319,0 -0.404799,-0.10623 -0.18948,-0.10766 -0.292833,-0.28852 -0.103352,-0.18087 -0.103352,-0.39763 0,-0.21675 0.107659,-0.40336 0.107659,-0.18804 0.297139,-0.29714 0.190916,-0.10909 0.401928,-0.10909 0.175125,0 0.325848,0.0732 0.152158,0.0718 0.292833,0.23828 z m -0.592843,0.15359 q -0.170819,0 -0.317236,0.0833 -0.146416,0.0818 -0.229673,0.22824 -0.08326,0.14498 -0.08326,0.31436 0,0.25695 0.172254,0.4249 0.172255,0.16795 0.446427,0.16795 0.277043,0 0.444991,-0.16652 0.169384,-0.16651 0.169384,-0.43781 0,-0.17656 -0.07751,-0.31437 -0.07751,-0.13923 -0.219625,-0.21962 -0.14211,-0.0804 -0.305752,-0.0804 z m 1.1498,-0.15359 h 0.20527 v 0.22824 q 0.09187,-0.13493 0.193786,-0.20097 0.101918,-0.0675 0.212448,-0.0675 0.08326,0 0.177996,0.0531 l -0.104788,0.16938 q -0.06316,-0.0273 -0.106224,-0.0273 -0.100481,0 -0.193786,0.0833 -0.0933,0.0818 -0.14211,0.25551 -0.03732,0.13349 -0.03732,0.53973 v 0.52825 h -0.20527 z m 2.275197,1.04358 0.169384,0.089 q -0.08326,0.16364 -0.192351,0.26412 -0.109094,0.10048 -0.245463,0.15359 -0.136368,0.0517 -0.308623,0.0517 -0.381831,0 -0.597149,-0.24977 -0.215319,-0.2512 -0.215319,-0.56701 0,-0.29713 0.182303,-0.52968 0.231109,-0.2957 0.618682,-0.2957 0.399056,0 0.637342,0.30288 0.169384,0.21388 0.172255,0.53399 h -1.403876 q 0.0057,0.27274 0.17369,0.44786 0.167948,0.17369 0.414847,0.17369 0.119143,0 0.231108,-0.0416 0.113401,-0.0416 0.192351,-0.11053 0.07895,-0.0689 0.170819,-0.22249 z m 0,-0.42059 q -0.04019,-0.16077 -0.117707,-0.25695 -0.07608,-0.0962 -0.202399,-0.15503 -0.12632,-0.0589 -0.265559,-0.0589 -0.229673,0 -0.394751,0.14785 -0.120578,0.10766 -0.182303,0.32298 z m 2.151748,-0.62299 v 1.56178 h -0.198093 v -0.26843 q -0.12632,0.15359 -0.28422,0.2311 -0.156465,0.0775 -0.343074,0.0775 -0.33159,0 -0.567005,-0.23972 -0.233979,-0.24116 -0.233979,-0.58567 0,-0.33733 0.23685,-0.57705 0.23685,-0.23972 0.569876,-0.23972 0.192351,0 0.34738,0.0818 0.156465,0.0818 0.274172,0.24546 v -0.28709 z m -0.803855,0.15359 q -0.167948,0 -0.310058,0.0833 -0.142111,0.0818 -0.226802,0.23111 -0.08326,0.14929 -0.08326,0.3158 0,0.16508 0.08469,0.3158 0.08469,0.15072 0.226802,0.23541 0.143546,0.0833 0.307187,0.0833 0.165078,0 0.31293,-0.0833 0.147852,-0.0833 0.226802,-0.22536 0.08038,-0.14211 0.08038,-0.32011 0,-0.2713 -0.179432,-0.4536 -0.177996,-0.18231 -0.439249,-0.18231 z m 2.041219,0.0172 -0.129191,0.1335 q -0.160771,-0.15647 -0.314365,-0.15647 -0.09761,0 -0.167948,0.0646 -0.0689,0.0646 -0.0689,0.15072 0,0.0761 0.05742,0.14498 0.05742,0.0703 0.241157,0.16508 0.223931,0.11627 0.304316,0.22393 0.07895,0.1091 0.07895,0.24546 0,0.19235 -0.134932,0.32585 -0.134933,0.1335 -0.337333,0.1335 -0.134932,0 -0.258382,-0.0588 -0.122013,-0.0589 -0.202399,-0.16221 l 0.12632,-0.14355 q 0.153594,0.17369 0.325849,0.17369 0.120578,0 0.20527,-0.0775 0.08469,-0.0775 0.08469,-0.1823 0,-0.0861 -0.05598,-0.1536 -0.05598,-0.066 -0.25264,-0.16651 -0.211012,-0.1091 -0.287091,-0.21532 -0.07608,-0.10622 -0.07608,-0.24259 0,-0.178 0.120579,-0.2957 0.122014,-0.11771 0.307187,-0.11771 0.215319,0 0.433508,0.21101 z m 1.670869,0.87276 0.169384,0.089 q -0.08326,0.16364 -0.192351,0.26412 -0.109095,0.10048 -0.245463,0.15359 -0.136369,0.0517 -0.308623,0.0517 -0.381832,0 -0.59715,-0.24977 -0.215318,-0.2512 -0.215318,-0.56701 0,-0.29713 0.182303,-0.52968 0.231108,-0.2957 0.618681,-0.2957 0.399057,0 0.637342,0.30288 0.169384,0.21388 0.172255,0.53399 h -1.403876 q 0.0057,0.27274 0.17369,0.44786 0.167949,0.17369 0.414847,0.17369 0.119143,0 0.231109,-0.0416 0.113401,-0.0416 0.192351,-0.11053 0.07895,-0.0689 0.170819,-0.22249 z m 0,-0.42059 q -0.04019,-0.16077 -0.117707,-0.25695 -0.07608,-0.0962 -0.2024,-0.15503 -0.12632,-0.0589 -0.265559,-0.0589 -0.229673,0 -0.39475,0.14785 -0.120579,0.10766 -0.182303,0.32298 z m 1.86035,-1.26607 h 0.232544 q -0.140674,0.28852 -0.225366,0.67323 -0.08469,0.3847 -0.08469,0.7938 0,0.37896 0.06316,0.73065 0.06459,0.35169 0.176561,0.61868 h -0.22106 q -0.106224,-0.25551 -0.169384,-0.60146 -0.06316,-0.34594 -0.06316,-0.72059 0,-0.40337 0.07464,-0.7852 0.07464,-0.38327 0.216753,-0.70911 z m 0.809598,0.0632 h 0.202399 v 0.57992 h 0.318671 v 0.17226 h -0.318671 v 1.38952 h -0.202399 v -1.38952 h -0.274172 v -0.17226 h 0.274172 z m 0.821081,-0.023 h 0.200964 v 0.8828 q 0.122013,-0.16077 0.26843,-0.23972 0.146416,-0.0804 0.317235,-0.0804 0.175126,0 0.310059,0.089 0.136368,0.089 0.200964,0.23972 0.0646,0.14928 0.0646,0.46939 v 0.80386 h -0.200964 v -0.745 q 0,-0.26987 -0.02153,-0.3603 -0.03732,-0.15503 -0.136369,-0.23255 -0.09761,-0.079 -0.256946,-0.079 -0.182303,0 -0.327284,0.12058 -0.143546,0.12058 -0.18948,0.29857 -0.02871,0.11484 -0.02871,0.4249 v 0.57275 h -0.200964 z m 1.863222,-0.0402 q 0.0689,0 0.117707,0.0488 0.04881,0.0488 0.04881,0.11771 0,0.0675 -0.04881,0.11627 -0.04881,0.0488 -0.117707,0.0488 -0.06747,0 -0.116272,-0.0488 -0.04881,-0.0488 -0.04881,-0.11627 0,-0.0689 0.04881,-0.11771 0.04881,-0.0488 0.116272,-0.0488 z m -0.100482,0.64308 h 0.202399 v 1.56178 h -0.202399 z m 2.134523,0.32441 -0.159336,0.099 q -0.206705,-0.27417 -0.564134,-0.27417 -0.285655,0 -0.475136,0.18374 -0.188044,0.18373 -0.188044,0.44642 0,0.17082 0.08613,0.32155 0.08756,0.15072 0.238286,0.23397 0.152158,0.0833 0.340203,0.0833 0.344509,0 0.562698,-0.27417 l 0.159336,0.10479 q -0.111966,0.16795 -0.301446,0.26125 -0.188044,0.0919 -0.429201,0.0919 -0.370348,0 -0.614375,-0.23542 -0.244027,-0.23541 -0.244027,-0.57274 0,-0.2268 0.113401,-0.42059 0.114836,-0.19522 0.314364,-0.30432 0.199529,-0.10909 0.446427,-0.10909 0.155029,0 0.298575,0.0474 0.144981,0.0474 0.245463,0.12345 0.100482,0.0761 0.170819,0.19378 z m 0.384701,-0.9273 h 0.202399 v 1.23162 l 0.722034,-0.62873 h 0.295704 l -0.856967,0.745 0.907208,0.81678 h -0.28422 l -0.783759,-0.70194 v 0.70194 h -0.202399 z m 1.698144,1.84887 q 0.07321,0 0.124885,0.0517 0.05168,0.0517 0.05168,0.12632 0,0.0732 -0.05168,0.12632 -0.05168,0.0517 -0.124885,0.0517 -0.07321,0 -0.124884,-0.0517 -0.05168,-0.0531 -0.05168,-0.12632 0,-0.0746 0.05168,-0.12632 0.05168,-0.0517 0.124884,-0.0517 z m 1.726853,-1.79576 h 0.414846 v 2.11156 h -0.209576 v -1.90485 h -0.331591 z m 1.178508,1.0565 q 0,-0.41772 0.089,-0.64596 0.09043,-0.22824 0.254075,-0.34594 0.163642,-0.11771 0.366041,-0.11771 0.205271,0 0.371784,0.11914 0.166512,0.11771 0.262688,0.35456 0.09761,0.23685 0.09761,0.63591 0,0.39762 -0.09618,0.63303 -0.09474,0.23542 -0.262688,0.356 -0.167948,0.11914 -0.373219,0.11914 -0.202399,0 -0.364605,-0.11627 -0.162207,-0.11628 -0.254076,-0.34595 -0.09043,-0.23111 -0.09043,-0.64595 z m 0.199529,0.004 q 0,0.35743 0.06316,0.54117 0.06459,0.1823 0.18948,0.27704 0.124885,0.0947 0.264124,0.0947 0.140674,0 0.262688,-0.0919 0.122014,-0.0933 0.185174,-0.27847 0.07895,-0.22537 0.07895,-0.54261 0,-0.31867 -0.07034,-0.52107 -0.07034,-0.20383 -0.195222,-0.29714 -0.123449,-0.0947 -0.261253,-0.0947 -0.140675,0 -0.264124,0.0947 -0.123449,0.0933 -0.188045,0.27705 -0.0646,0.1823 -0.0646,0.54116 z m 1.429717,0.16939 h 0.789501 v 0.17512 h -0.789501 z m 1.271813,-0.7407 h -0.215319 q 0.05885,-0.26125 0.225367,-0.40193 0.166513,-0.14067 0.393315,-0.14067 0.165077,0 0.307187,0.0761 0.143546,0.0746 0.22106,0.2024 0.07895,0.12775 0.07895,0.26699 0,0.27274 -0.271301,0.43207 0.152159,0.0617 0.24977,0.18087 0.137803,0.16795 0.137803,0.37609 0,0.17943 -0.09474,0.34308 -0.09474,0.1622 -0.258382,0.2512 -0.163642,0.089 -0.366041,0.089 -0.272737,0 -0.45504,-0.15647 -0.182302,-0.1579 -0.238285,-0.46221 h 0.206705 q 0.05455,0.20527 0.156465,0.29714 0.130627,0.11627 0.333026,0.11627 0.229673,0 0.368912,-0.13781 0.139239,-0.1378 0.139239,-0.32297 0,-0.12345 -0.07034,-0.23111 -0.0689,-0.10766 -0.186609,-0.16221 -0.116272,-0.0546 -0.361735,-0.0675 v -0.19379 q 0.144981,0 0.264124,-0.0502 0.119142,-0.0517 0.172254,-0.13063 0.05455,-0.079 0.05455,-0.17225 0,-0.13781 -0.11053,-0.23829 -0.109095,-0.10048 -0.277043,-0.10048 -0.136369,0 -0.235415,0.0775 -0.09905,0.0761 -0.167948,0.25982 z m 1.333538,0.56701 q 0,-0.41772 0.089,-0.64596 0.09043,-0.22824 0.254076,-0.34594 0.163641,-0.11771 0.366041,-0.11771 0.20527,0 0.371783,0.11914 0.166513,0.11771 0.262688,0.35456 0.09761,0.23685 0.09761,0.63591 0,0.39762 -0.09618,0.63303 -0.09474,0.23542 -0.262689,0.356 -0.167948,0.11914 -0.373218,0.11914 -0.2024,0 -0.364606,-0.11627 -0.162207,-0.11628 -0.254076,-0.34595 -0.09043,-0.23111 -0.09043,-0.64595 z m 0.199528,0.004 q 0,0.35743 0.06316,0.54117 0.0646,0.1823 0.18948,0.27704 0.124885,0.0947 0.264124,0.0947 0.140675,0 0.262688,-0.0919 0.122014,-0.0933 0.185174,-0.27847 0.07895,-0.22537 0.07895,-0.54261 0,-0.31867 -0.07034,-0.52107 -0.07034,-0.20383 -0.195222,-0.29714 -0.123449,-0.0947 -0.261253,-0.0947 -0.140675,0 -0.264124,0.0947 -0.123449,0.0933 -0.188045,0.27705 -0.06459,0.1823 -0.06459,0.54116 z m 2.361325,1.62207 v -2.13309 h 0.202399 v 0.86127 q 0,0.19523 0.04737,0.2914 0.04881,0.0962 0.156465,0.16221 0.107659,0.0646 0.232544,0.0646 0.124884,0 0.223931,-0.0617 0.100482,-0.0632 0.153593,-0.17226 0.05455,-0.11053 0.05455,-0.30288 v -0.84261 h 0.200964 v 1.56178 h -0.200964 v -0.16939 q -0.08469,0.10623 -0.192351,0.15647 -0.106224,0.0488 -0.241157,0.0488 -0.134933,0 -0.244027,-0.0488 -0.10766,-0.0502 -0.190916,-0.15216 v 0.73639 z m 1.70532,-2.13309 h 0.199528 v 0.26987 q 0.104788,-0.14929 0.215318,-0.21819 0.152159,-0.0919 0.320107,-0.0919 0.113401,0 0.215318,0.0445 0.101918,0.0445 0.166513,0.11914 0.0646,0.0732 0.111966,0.21101 0.100482,-0.18374 0.251204,-0.27848 0.150723,-0.0962 0.324413,-0.0962 0.162207,0 0.285656,0.0818 0.124885,0.0818 0.185174,0.22824 0.06029,0.14641 0.06029,0.43925 v 0.85266 h -0.20527 v -0.85266 q 0,-0.25121 -0.03589,-0.34451 -0.03589,-0.0947 -0.12345,-0.15216 -0.08613,-0.0574 -0.206705,-0.0574 -0.146417,0 -0.268431,0.0861 -0.120578,0.0861 -0.176561,0.22967 -0.05598,0.14355 -0.05598,0.47944 v 0.61151 h -0.199529 v -0.79955 q 0,-0.28279 -0.03589,-0.38327 -0.03445,-0.10192 -0.122014,-0.16221 -0.08756,-0.0617 -0.208141,-0.0617 -0.139239,0 -0.261253,0.0847 -0.120578,0.0833 -0.179432,0.22537 -0.05742,0.14211 -0.05742,0.43494 v 0.66175 h -0.199528 z m 2.945555,2.17328 h -0.232543 q 0.14211,-0.28853 0.225366,-0.67323 0.08469,-0.3847 0.08469,-0.79381 0,-0.37896 -0.06459,-0.73064 -0.06316,-0.35169 -0.175126,-0.61868 h 0.22106 q 0.107659,0.25551 0.169384,0.60289 0.06316,0.34594 0.06316,0.7206 0,0.40192 -0.07464,0.78519 -0.07464,0.38183 -0.216754,0.70768 z"
         id="text2-0-2-3"
         aria-label="Thermal grease (thick. 10-30 µm)" />
      <g
         id="text2-0-2-3-9"
         style="font-size:2.93981px;font-family:'Century Gothic';-inkscape-font-specification:'Century Gothic, Normal';baseline-shift:baseline;fill:#ff0000;stroke:#fb0000;stroke-width:0.1"
         aria-label="KTape/Target">
        <path
           style="baseline-shift:baseline"
           d="m 120.38664,120.59684 h 0.21532 v 0.79237 l 0.84261,-0.79237 h 0.28565 l -1.01486,0.9474 1.09381,1.16416 h -0.27991 l -0.9273,-0.98472 v 0.98472 h -0.21532 z"
           id="path30" />
        <path
           style="font-size:1.91088px;baseline-shift:sub"
           d="m 121.89738,122.05727 v -0.13342 h 0.75297 v 0.13342 h -0.30604 v 1.23909 h -0.13996 v -1.23909 z m 1.9398,0.22394 v 1.01515 h -0.12876 v -0.17448 q -0.0821,0.0998 -0.18474,0.15022 -0.1017,0.0504 -0.223,0.0504 -0.21553,0 -0.36855,-0.15581 -0.15209,-0.15676 -0.15209,-0.38069 0,-0.21926 0.15396,-0.37508 0.15395,-0.15582 0.37041,-0.15582 0.12503,0 0.2258,0.0532 0.1017,0.0532 0.17821,0.15955 v -0.1866 z m -0.5225,0.0998 q -0.10917,0 -0.20154,0.0541 -0.0924,0.0532 -0.14742,0.15022 -0.0541,0.097 -0.0541,0.20527 0,0.1073 0.055,0.20527 0.055,0.098 0.14742,0.15302 0.0933,0.0541 0.19967,0.0541 0.1073,0 0.20341,-0.0541 0.0961,-0.0541 0.14742,-0.14649 0.0523,-0.0924 0.0523,-0.20807 0,-0.17634 -0.11663,-0.29484 -0.1157,-0.1185 -0.28551,-0.1185 z m 0.81828,-0.0998 h 0.12969 v 0.1866 q 0.0774,-0.10636 0.17821,-0.15955 0.10077,-0.0532 0.22487,-0.0532 0.21646,0 0.37042,0.15582 0.15395,0.15582 0.15395,0.37508 0,0.22393 -0.15302,0.38069 -0.15209,0.15581 -0.36762,0.15581 -0.1213,0 -0.223,-0.0504 -0.1017,-0.0504 -0.18381,-0.15022 v 0.54583 h -0.12969 z m 0.5225,0.0998 q -0.16981,0 -0.28644,0.1185 -0.1157,0.1185 -0.1157,0.29484 0,0.1157 0.0513,0.20807 0.0523,0.0924 0.14835,0.14649 0.097,0.0541 0.20434,0.0541 0.10543,0 0.19781,-0.0541 0.0933,-0.055 0.14835,-0.15302 0.055,-0.098 0.055,-0.20527 0,-0.10823 -0.055,-0.20527 -0.0541,-0.097 -0.14649,-0.15022 -0.0924,-0.0541 -0.20154,-0.0541 z m 1.63377,0.57849 0.11009,0.0579 q -0.0541,0.10637 -0.12502,0.17168 -0.0709,0.0653 -0.15955,0.0998 -0.0886,0.0336 -0.20061,0.0336 -0.24819,0 -0.38815,-0.16235 -0.13995,-0.16328 -0.13995,-0.36855 0,-0.19314 0.11849,-0.34429 0.15022,-0.19221 0.40215,-0.19221 0.25938,0 0.41427,0.19687 0.1101,0.13903 0.11196,0.3471 h -0.91251 q 0.004,0.17727 0.11289,0.29111 0.10917,0.11289 0.26965,0.11289 0.0774,0 0.15022,-0.0271 0.0737,-0.0271 0.12503,-0.0718 0.0513,-0.0448 0.11104,-0.14462 z m 0,-0.27338 q -0.0261,-0.1045 -0.0765,-0.16702 -0.0495,-0.0625 -0.13156,-0.10077 -0.0821,-0.0383 -0.17262,-0.0383 -0.14928,0 -0.25658,0.0961 -0.0784,0.07 -0.1185,0.20994 z m 1.02168,-0.79682 -0.57009,1.59364 h -0.14276 l 0.56916,-1.59364 z m 0.0858,0.16794 v -0.13342 h 0.75297 v 0.13342 h -0.30604 v 1.23909 h -0.13996 v -1.23909 z m 1.9398,0.22394 v 1.01515 h -0.12876 v -0.17448 q -0.0821,0.0998 -0.18474,0.15022 -0.1017,0.0504 -0.223,0.0504 -0.21553,0 -0.36855,-0.15581 -0.15209,-0.15676 -0.15209,-0.38069 0,-0.21926 0.15395,-0.37508 0.15396,-0.15582 0.37042,-0.15582 0.12503,0 0.2258,0.0532 0.1017,0.0532 0.17821,0.15955 v -0.1866 z m -0.5225,0.0998 q -0.10917,0 -0.20154,0.0541 -0.0924,0.0532 -0.14742,0.15022 -0.0541,0.097 -0.0541,0.20527 0,0.1073 0.055,0.20527 0.0551,0.098 0.14742,0.15302 0.0933,0.0541 0.19967,0.0541 0.1073,0 0.20341,-0.0541 0.0961,-0.0541 0.14742,-0.14649 0.0523,-0.0924 0.0523,-0.20807 0,-0.17634 -0.11663,-0.29484 -0.1157,-0.1185 -0.28551,-0.1185 z m 0.76696,-0.0998 h 0.13342 v 0.14835 q 0.0597,-0.0877 0.12597,-0.13063 0.0662,-0.0438 0.13809,-0.0438 0.0541,0 0.11569,0.0345 l -0.0681,0.1101 q -0.0411,-0.0177 -0.069,-0.0177 -0.0653,0 -0.12596,0.0541 -0.0607,0.0532 -0.0924,0.16608 -0.0243,0.0868 -0.0243,0.35083 v 0.34336 h -0.13342 z m 1.49847,0 h 0.13156 v 0.80895 q 0,0.21366 -0.0373,0.31257 -0.0513,0.13995 -0.17821,0.21553 -0.1269,0.0756 -0.30511,0.0756 -0.13063,0 -0.23513,-0.0373 -0.10357,-0.0364 -0.16888,-0.0989 -0.0653,-0.0616 -0.12036,-0.18101 h 0.14182 q 0.0579,0.10077 0.14929,0.14929 0.0914,0.0485 0.22673,0.0485 0.13342,0 0.22486,-0.0504 0.0924,-0.0494 0.13156,-0.12503 0.0392,-0.0756 0.0392,-0.24352 v -0.0523 q -0.0737,0.0933 -0.18008,0.14369 -0.10637,0.0495 -0.2258,0.0495 -0.13995,0 -0.26311,-0.0691 -0.12317,-0.07 -0.19035,-0.18754 -0.0672,-0.11756 -0.0672,-0.25845 0,-0.14089 0.07,-0.26219 0.07,-0.12223 0.19314,-0.19314 0.1241,-0.0709 0.26126,-0.0709 0.11383,0 0.2118,0.0476 0.0989,0.0466 0.19034,0.15488 z m -0.38535,0.0998 q -0.11103,0 -0.2062,0.0541 -0.0952,0.0532 -0.14929,0.14835 -0.0541,0.0942 -0.0541,0.20434 0,0.16701 0.11197,0.27618 0.11197,0.10917 0.29018,0.10917 0.18007,0 0.28924,-0.10824 0.1101,-0.10823 0.1101,-0.28458 0,-0.11476 -0.0504,-0.20433 -0.0504,-0.0905 -0.14276,-0.14276 -0.0924,-0.0523 -0.19874,-0.0523 z m 1.65149,0.57849 0.1101,0.0579 q -0.0541,0.10637 -0.12503,0.17168 -0.0709,0.0653 -0.15955,0.0998 -0.0886,0.0336 -0.2006,0.0336 -0.24819,0 -0.38815,-0.16235 -0.13996,-0.16328 -0.13996,-0.36855 0,-0.19314 0.1185,-0.34429 0.15022,-0.19221 0.40214,-0.19221 0.25939,0 0.41427,0.19687 0.1101,0.13903 0.11197,0.3471 h -0.91252 q 0.004,0.17727 0.1129,0.29111 0.10917,0.11289 0.26965,0.11289 0.0774,0 0.15022,-0.0271 0.0737,-0.0271 0.12503,-0.0718 0.0513,-0.0448 0.11103,-0.14462 z m 0,-0.27338 q -0.0261,-0.1045 -0.0765,-0.16702 -0.0495,-0.0625 -0.13156,-0.10077 -0.0821,-0.0383 -0.17261,-0.0383 -0.14929,0 -0.25659,0.0961 -0.0784,0.07 -0.1185,0.20994 z m 0.50105,-0.78189 h 0.13156 v 0.37695 h 0.20713 v 0.11196 h -0.20713 v 0.90319 h -0.13156 v -0.90319 h -0.17821 v -0.11196 h 0.17821 z"
           id="path31" />
      </g>
      <path
         style="font-size:2.93981px;font-family:'Century Gothic';-inkscape-font-specification:'Century Gothic, Normal';baseline-shift:baseline;stroke-width:0.1"
         d="m 99.755616,108.7173 v 0.20097 h -0.752179 l -0.104788,0.57561 q 0.137804,-0.0402 0.248334,-0.0402 0.288526,0 0.475136,0.19379 0.188044,0.19235 0.188044,0.49379 0,0.20815 -0.09618,0.38184 -0.09618,0.17369 -0.261253,0.26699 -0.163642,0.0919 -0.378961,0.0919 -0.256946,0 -0.433507,-0.15647 -0.176561,-0.1579 -0.211012,-0.40766 h 0.216754 q 0.0244,0.12201 0.08182,0.19809 0.05885,0.0761 0.155029,0.12345 0.09761,0.0459 0.203835,0.0459 0.208141,0 0.357428,-0.1579 0.149287,-0.1579 0.149287,-0.39475 0,-0.21388 -0.134932,-0.34738 -0.134933,-0.1335 -0.3603,-0.1335 -0.186609,0 -0.452168,0.1134 l 0.195222,-1.04788 z m 1.220134,0.54978 h 0.19953 v 0.26987 q 0.10479,-0.14929 0.21532,-0.21819 0.15216,-0.0919 0.32011,-0.0919 0.1134,0 0.21532,0.0445 0.10191,0.0445 0.16651,0.11914 0.0646,0.0732 0.11196,0.21101 0.10049,-0.18374 0.25121,-0.27848 0.15072,-0.0962 0.32441,-0.0962 0.16221,0 0.28566,0.0818 0.12488,0.0818 0.18517,0.22824 0.0603,0.14641 0.0603,0.43925 v 0.85266 h -0.20527 v -0.85266 q 0,-0.25121 -0.0359,-0.34451 -0.0359,-0.0947 -0.12345,-0.15216 -0.0861,-0.0574 -0.2067,-0.0574 -0.14642,0 -0.26843,0.0861 -0.12058,0.0861 -0.17656,0.22967 -0.056,0.14355 -0.056,0.47944 v 0.61151 h -0.19952 v -0.79955 q 0,-0.28279 -0.0359,-0.38327 -0.0345,-0.10192 -0.12201,-0.1622 -0.0876,-0.0617 -0.20815,-0.0617 -0.13923,0 -0.26125,0.0847 -0.12058,0.0833 -0.17943,0.22537 -0.0574,0.14211 -0.0574,0.43494 v 0.66175 h -0.19953 z m 2.75751,0 h 0.19953 v 0.26987 q 0.10479,-0.14929 0.21532,-0.21819 0.15216,-0.0919 0.32011,-0.0919 0.1134,0 0.21532,0.0445 0.10191,0.0445 0.16651,0.11914 0.0646,0.0732 0.11196,0.21101 0.10049,-0.18374 0.25121,-0.27848 0.15072,-0.0962 0.32441,-0.0962 0.16221,0 0.28566,0.0818 0.12488,0.0818 0.18517,0.22824 0.0603,0.14641 0.0603,0.43925 v 0.85266 h -0.20527 v -0.85266 q 0,-0.25121 -0.0359,-0.34451 -0.0359,-0.0947 -0.12345,-0.15216 -0.0861,-0.0574 -0.2067,-0.0574 -0.14642,0 -0.26843,0.0861 -0.12058,0.0861 -0.17656,0.22967 -0.056,0.14355 -0.056,0.47944 v 0.61151 h -0.19952 v -0.79955 q 0,-0.28279 -0.0359,-0.38327 -0.0344,-0.10192 -0.12201,-0.1622 -0.0876,-0.0617 -0.20814,-0.0617 -0.13924,0 -0.26126,0.0847 -0.12058,0.0833 -0.17943,0.22537 -0.0574,0.14211 -0.0574,0.43494 v 0.66175 h -0.19953 z"
         id="text2-0-5"
         aria-label="5 mm" />
      <path
         style="font-size:2.93981px;font-family:'Century Gothic';-inkscape-font-specification:'Century Gothic, Normal';baseline-shift:baseline;stroke-width:0.1"
         d="m 72.438576,66.400222 h -0.215318 q 0.05885,-0.261252 0.225366,-0.401927 0.166513,-0.140674 0.393315,-0.140674 0.165077,0 0.307187,0.07608 0.143545,0.07464 0.22106,0.202399 0.07895,0.127755 0.07895,0.266994 0,0.272736 -0.271301,0.432072 0.152158,0.06172 0.249769,0.180867 0.137804,0.167948 0.137804,0.376089 0,0.179432 -0.09474,0.343074 -0.09474,0.162206 -0.258382,0.251204 -0.163642,0.089 -0.366041,0.089 -0.272736,0 -0.455039,-0.156464 -0.182302,-0.1579 -0.238285,-0.462216 h 0.206705 q 0.05455,0.205269 0.156465,0.297139 0.130626,0.116271 0.333025,0.116271 0.229673,0 0.368912,-0.137803 0.139239,-0.137804 0.139239,-0.322977 0,-0.12345 -0.07034,-0.231109 -0.0689,-0.107659 -0.186609,-0.162206 -0.116272,-0.05455 -0.361735,-0.06747 v -0.193787 q 0.144981,0 0.264124,-0.05024 0.119142,-0.05168 0.172254,-0.130627 0.05455,-0.07895 0.05455,-0.172254 0,-0.137804 -0.11053,-0.238286 -0.109094,-0.100481 -0.277042,-0.100481 -0.136368,0 -0.235415,0.07751 -0.09905,0.07608 -0.167948,0.259817 z m 1.685223,1.306264 q 0.07321,0 0.124885,0.05168 0.05168,0.05168 0.05168,0.12632 0,0.07321 -0.05168,0.12632 -0.05168,0.05168 -0.124885,0.05168 -0.07321,0 -0.124884,-0.05168 -0.05168,-0.05311 -0.05168,-0.12632 0,-0.07464 0.05168,-0.12632 0.05168,-0.05168 0.124884,-0.05168 z m 0.912949,-1.795754 h 0.414846 v 2.111553 h -0.209576 v -1.904847 h -0.33159 z m 1.296215,0 h 1.339279 l -1.129702,2.164665 -0.17369,-0.089 0.976108,-1.876138 h -1.011995 z m 2.863731,0 v 0.200964 h -0.752178 l -0.104788,0.575617 q 0.137804,-0.04019 0.248334,-0.04019 0.288526,0 0.475135,0.193787 0.188045,0.192351 0.188045,0.493796 0,0.208141 -0.09618,0.381831 -0.09618,0.17369 -0.261252,0.266994 -0.163642,0.09187 -0.37896,0.09187 -0.256947,0 -0.433507,-0.156464 -0.176561,-0.1579 -0.211012,-0.407669 h 0.216753 q 0.0244,0.122013 0.08182,0.198092 0.05885,0.07608 0.155029,0.12345 0.09761,0.04593 0.203835,0.04593 0.208141,0 0.357428,-0.1579 0.149287,-0.1579 0.149287,-0.39475 0,-0.213882 -0.134933,-0.34738 -0.134932,-0.133497 -0.360299,-0.133497 -0.186609,0 -0.452168,0.113401 l 0.195222,-1.047882 z m 1.220136,0.549779 h 0.199528 v 0.269866 q 0.104789,-0.149287 0.215319,-0.218189 0.152158,-0.09187 0.320106,-0.09187 0.113401,0 0.215318,0.0445 0.101917,0.0445 0.166513,0.119142 0.06459,0.07321 0.111965,0.211012 0.100482,-0.183738 0.251205,-0.278478 0.150722,-0.09617 0.324412,-0.09617 0.162207,0 0.285656,0.08182 0.124884,0.08182 0.185173,0.228237 0.06029,0.146416 0.06029,0.439249 v 0.852659 h -0.20527 v -0.852659 q 0,-0.251205 -0.03589,-0.344509 -0.03589,-0.09474 -0.123449,-0.152158 -0.08613,-0.05742 -0.206706,-0.05742 -0.146416,0 -0.268429,0.08613 -0.120579,0.08613 -0.176561,0.229672 -0.05598,0.143546 -0.05598,0.479442 v 0.611503 h -0.199528 v -0.799547 q 0,-0.282785 -0.03589,-0.383267 -0.03445,-0.101917 -0.122014,-0.162206 -0.08756,-0.06173 -0.208141,-0.06173 -0.139239,0 -0.261253,0.08469 -0.120578,0.08326 -0.179431,0.225367 -0.05742,0.142109 -0.05742,0.434942 v 0.661744 H 80.41683 Z m 2.757508,0 h 0.199528 v 0.269866 q 0.104788,-0.149287 0.215318,-0.218189 0.152158,-0.09187 0.320106,-0.09187 0.113401,0 0.215318,0.0445 0.101918,0.0445 0.166513,0.119142 0.06459,0.07321 0.111965,0.211012 0.100482,-0.183738 0.251205,-0.278478 0.150723,-0.09617 0.324413,-0.09617 0.162206,0 0.285655,0.08182 0.124884,0.08182 0.185173,0.228237 0.06029,0.146416 0.06029,0.439249 v 0.852659 h -0.20527 v -0.852659 q 0,-0.251205 -0.03589,-0.344509 -0.03589,-0.09474 -0.123449,-0.152158 -0.08613,-0.05742 -0.206705,-0.05742 -0.146417,0 -0.26843,0.08613 -0.120578,0.08613 -0.176561,0.229672 -0.05598,0.143546 -0.05598,0.479442 v 0.611503 h -0.199528 v -0.799547 q 0,-0.282785 -0.03589,-0.383267 -0.03445,-0.101917 -0.122014,-0.162206 -0.08756,-0.06173 -0.208141,-0.06173 -0.139239,0 -0.261252,0.08469 -0.120578,0.08326 -0.179432,0.225367 -0.05742,0.142109 -0.05742,0.434942 v 0.661744 h -0.199528 z"
         id="text2-0-5-0"
         aria-label="3.175 mm" />
      <g
         id="text2-6"
         style="font-size:2.93981px;font-family:'Century Gothic';-inkscape-font-specification:'Century Gothic, Normal';stroke:#000000;stroke-width:0.1"
         aria-label="T0">
        <path
           d="m 134.53246,103.10061 v -0.20527 h 1.15841 v 0.20527 h -0.47083 v 1.90629 h -0.21531 v -1.90629 z"
           id="path32" />
        <path
           style="font-size:1.91088px;baseline-shift:sub"
           d="m 135.79746,104.90907 q 0,-0.27152 0.0578,-0.41987 0.0588,-0.14835 0.16515,-0.22486 0.10637,-0.0765 0.23793,-0.0765 0.13343,0 0.24166,0.0774 0.10823,0.0765 0.17075,0.23046 0.0634,0.15395 0.0634,0.41334 0,0.25845 -0.0625,0.41147 -0.0616,0.15302 -0.17075,0.2314 -0.10916,0.0774 -0.24259,0.0774 -0.13156,0 -0.23699,-0.0756 -0.10544,-0.0756 -0.16515,-0.22487 -0.0588,-0.15022 -0.0588,-0.41987 z m 0.12969,0.003 q 0,0.23233 0.041,0.35176 0.042,0.11849 0.12317,0.18008 0.0812,0.0616 0.17168,0.0616 0.0914,0 0.17074,-0.0597 0.0793,-0.0607 0.12037,-0.18101 0.0513,-0.14649 0.0513,-0.35269 0,-0.20714 -0.0457,-0.3387 -0.0457,-0.13249 -0.12689,-0.19314 -0.0802,-0.0616 -0.16981,-0.0616 -0.0914,0 -0.17168,0.0616 -0.0803,0.0606 -0.12223,0.18008 -0.042,0.1185 -0.042,0.35176 z"
           id="path33" />
      </g>
      <g
         id="text2-6-5"
         style="font-size:2.93981px;font-family:'Century Gothic';-inkscape-font-specification:'Century Gothic, Normal';stroke:#000000;stroke-width:0.1"
         aria-label="T0">
        <path
           d="m 134.53246,127.60052 v -0.20527 h 1.15841 v 0.20527 h -0.47083 v 1.90629 h -0.21531 v -1.90629 z"
           id="path34" />
        <path
           style="font-size:1.91088px;baseline-shift:sub"
           d="m 135.79746,129.40898 q 0,-0.27152 0.0578,-0.41987 0.0588,-0.14836 0.16515,-0.22486 0.10637,-0.0765 0.23793,-0.0765 0.13343,0 0.24166,0.0774 0.10823,0.0765 0.17075,0.23046 0.0634,0.15395 0.0634,0.41334 0,0.25845 -0.0625,0.41147 -0.0616,0.15302 -0.17075,0.2314 -0.10916,0.0774 -0.24259,0.0774 -0.13156,0 -0.23699,-0.0756 -0.10544,-0.0756 -0.16515,-0.22486 -0.0588,-0.15022 -0.0588,-0.41987 z m 0.12969,0.003 q 0,0.23233 0.041,0.35176 0.042,0.11849 0.12317,0.18007 0.0812,0.0616 0.17168,0.0616 0.0914,0 0.17074,-0.0597 0.0793,-0.0607 0.12037,-0.18101 0.0513,-0.14649 0.0513,-0.35269 0,-0.20714 -0.0457,-0.3387 -0.0457,-0.13249 -0.12689,-0.19314 -0.0802,-0.0616 -0.16981,-0.0616 -0.0914,0 -0.17168,0.0616 -0.0803,0.0606 -0.12223,0.18008 -0.042,0.1185 -0.042,0.35176 z"
           id="path35" />
      </g>
      <g
         id="text2-6-5-5"
         style="font-size:2.93981px;font-family:'Century Gothic';-inkscape-font-specification:'Century Gothic, Normal';stroke:#000000;stroke-width:0.1"
         aria-label="T0">
        <path
           d="m 46.832709,103.10061 v -0.20527 h 1.158412 v 0.20527 h -0.470829 v 1.90629 h -0.215318 v -1.90629 z"
           id="path28" />
        <path
           style="font-size:1.91088px;baseline-shift:sub"
           d="m 48.097703,104.90907 q 0,-0.27152 0.05785,-0.41987 0.05878,-0.14835 0.165149,-0.22486 0.106367,-0.0765 0.237927,-0.0765 0.133425,0 0.241658,0.0774 0.108234,0.0765 0.170748,0.23046 0.06345,0.15395 0.06345,0.41334 0,0.25845 -0.06251,0.41147 -0.06158,0.15302 -0.170748,0.2314 -0.109166,0.0774 -0.242591,0.0774 -0.13156,0 -0.236994,-0.0756 -0.105434,-0.0756 -0.165149,-0.22487 -0.05878,-0.15022 -0.05878,-0.41987 z m 0.129694,0.003 q 0,0.23233 0.04105,0.35176 0.04199,0.11849 0.123162,0.18008 0.08117,0.0616 0.17168,0.0616 0.09144,0 0.170747,-0.0597 0.07931,-0.0607 0.120363,-0.18101 0.05132,-0.14649 0.05132,-0.35269 0,-0.20714 -0.04572,-0.3387 -0.04572,-0.13249 -0.126894,-0.19314 -0.08024,-0.0616 -0.169814,-0.0616 -0.09144,0 -0.17168,0.0616 -0.08024,0.0606 -0.122229,0.18008 -0.04199,0.1185 -0.04199,0.35176 z"
           id="path29" />
      </g>
      <g
         id="g8"
         transform="matrix(0,1.1103092,-0.88247159,0,178.62463,-5.0313847)">
        <path
           style="fill:none;stroke:#000000;stroke-width:0.3;stroke-dasharray:0.599999, 0.3;stroke-dashoffset:0;marker-end:url(#Triangle-8-0)"
           d="m 66.43493,102.62326 h 40.26895"
           id="path3-9-4" />
        <path
           style="fill:none;stroke:#000000;stroke-width:0.3;stroke-dasharray:0.599999, 0.3;stroke-dashoffset:0;marker-end:url(#Triangle)"
           d="M 66.434927,98.447254 H 106.70388"
           id="path3" />
        <path
           style="fill:none;stroke:#000000;stroke-width:0.3;stroke-dasharray:0.599999, 0.3;stroke-dashoffset:0;marker-end:url(#Triangle-8)"
           d="M 66.434926,94.271247 H 106.70388"
           id="path3-9" />
      </g>
      <rect
         style="fill:none;stroke:#000000;stroke-width:0.299987;stroke-dasharray:none;stroke-dashoffset:0"
         id="rect3"
         width="8.7005129"
         height="5.7000127"
         x="98.851616"
         y="-109.20916"
         transform="rotate(90)" />
      <path
         style="fill:#000000;stroke:#000000;stroke-width:0.6;stroke-dasharray:none;stroke-dashoffset:0;marker-start:url(#Stop);marker-end:url(#marker10)"
         d="M 106.13739,107.56458 H 91.73715"
         id="path6" />
      <path
         style="fill:#000000;stroke:#000000;stroke-width:0.6;stroke-dasharray:none;stroke-dashoffset:0;marker-start:url(#Stop-8);marker-end:url(#marker10-2)"
         d="M 95.453809,67.057621 H 88.053753"
         id="path6-1" />
      <path
         style="font-size:2.93981px;font-family:'Century Gothic';-inkscape-font-specification:'Century Gothic, Normal';text-align:center;text-anchor:middle;fill:#999999;stroke-width:0.1"
         d="m 119.5678,88.710329 v 0.200964 h -0.75217 l -0.10479,0.575617 q 0.1378,-0.04019 0.24833,-0.04019 0.28853,0 0.47514,0.193786 0.18804,0.192351 0.18804,0.493797 0,0.208141 -0.0962,0.381831 -0.0962,0.17369 -0.26126,0.266995 -0.16364,0.09187 -0.37896,0.09187 -0.25694,0 -0.4335,-0.156465 -0.17657,-0.1579 -0.21102,-0.407669 h 0.21676 q 0.0244,0.122014 0.0818,0.198093 0.0589,0.07608 0.15503,0.123449 0.0976,0.04594 0.20383,0.04594 0.20814,0 0.35743,-0.157901 0.14929,-0.1579 0.14929,-0.39475 0,-0.213883 -0.13494,-0.34738 -0.13493,-0.133498 -0.36029,-0.133498 -0.18661,0 -0.45217,0.113401 l 0.19522,-1.047882 z m 1.20866,2.682867 v -2.133088 h 0.2024 v 0.861274 q 0,0.195222 0.0474,0.291397 0.0488,0.09618 0.15646,0.162207 0.10766,0.0646 0.23255,0.0646 0.12488,0 0.22393,-0.06172 0.10048,-0.06316 0.15359,-0.172255 0.0545,-0.11053 0.0545,-0.302881 v -0.842613 h 0.20096 v 1.561776 h -0.20096 V 90.6525 q -0.0847,0.106224 -0.19235,0.156465 -0.10623,0.04881 -0.24116,0.04881 -0.13493,0 -0.24403,-0.04881 -0.10766,-0.05024 -0.19091,-0.152158 v 0.736389 z m 1.70532,-2.133088 h 0.19953 v 0.269866 q 0.10479,-0.149287 0.21532,-0.218189 0.15215,-0.09187 0.3201,-0.09187 0.1134,0 0.21532,0.0445 0.10192,0.0445 0.16651,0.119142 0.0646,0.07321 0.11197,0.211012 0.10048,-0.183738 0.2512,-0.278478 0.15073,-0.09618 0.32442,-0.09618 0.1622,0 0.28565,0.08182 0.12489,0.08182 0.18518,0.228237 0.0603,0.146416 0.0603,0.439249 v 0.852661 H 124.612 v -0.852661 q 0,-0.251204 -0.0359,-0.344509 -0.0359,-0.09474 -0.12345,-0.152158 -0.0861,-0.05742 -0.20671,-0.05742 -0.14641,0 -0.26843,0.08613 -0.12057,0.08613 -0.17656,0.229673 -0.056,0.143545 -0.056,0.479442 v 0.611504 h -0.19953 v -0.799549 q 0,-0.282784 -0.0359,-0.383266 -0.0345,-0.101918 -0.12202,-0.162207 -0.0876,-0.06172 -0.20814,-0.06172 -0.13924,0 -0.26125,0.08469 -0.12058,0.08326 -0.17943,0.225367 -0.0574,0.14211 -0.0574,0.434943 v 0.661745 h -0.19953 z m 3.57572,-0.549779 h 0.21101 v 2.111555 h -0.21101 z m 0.66174,0.549779 h 0.20097 v 0.279914 q 0.12058,-0.160771 0.26699,-0.239721 0.14642,-0.08039 0.31867,-0.08039 0.17513,0 0.31006,0.089 0.13637,0.089 0.20097,0.239721 0.0646,0.150723 0.0646,0.469394 v 0.803855 h -0.19953 v -0.745001 q 0,-0.269866 -0.023,-0.3603 -0.0359,-0.155029 -0.13494,-0.232544 -0.099,-0.07895 -0.25838,-0.07895 -0.1823,0 -0.32728,0.120579 -0.14355,0.120578 -0.18948,0.298574 -0.0287,0.116272 -0.0287,0.424895 v 0.572747 h -0.20097 z m 3.35179,-0.602891 v 2.164667 h -0.19809 v -0.26843 q -0.12632,0.153594 -0.28422,0.231108 -0.15646,0.07752 -0.34307,0.07752 -0.33159,0 -0.56701,-0.239721 -0.23398,-0.241157 -0.23398,-0.585666 0,-0.337332 0.23685,-0.577053 0.23685,-0.239721 0.56988,-0.239721 0.19235,0 0.34738,0.08182 0.15646,0.08182 0.27417,0.245462 v -0.889982 z m -0.80385,0.756485 q -0.16795,0 -0.31006,0.08326 -0.14211,0.08182 -0.2268,0.231109 -0.0833,0.149287 -0.0833,0.3158 0,0.165078 0.0847,0.3158 0.0847,0.150723 0.22681,0.235415 0.14354,0.08326 0.30718,0.08326 0.16508,0 0.31293,-0.08326 0.14785,-0.08326 0.2268,-0.225366 0.0804,-0.142111 0.0804,-0.320107 0,-0.271301 -0.17943,-0.453604 -0.178,-0.182303 -0.43925,-0.182303 z m 1.32923,-0.796678 q 0.0689,0 0.11771,0.04881 0.0488,0.04881 0.0488,0.117707 0,0.06747 -0.0488,0.116272 -0.0488,0.04881 -0.11771,0.04881 -0.0675,0 -0.11627,-0.04881 -0.0488,-0.04881 -0.0488,-0.116272 0,-0.0689 0.0488,-0.117707 0.0488,-0.04881 0.11627,-0.04881 z m -0.10048,0.643084 h 0.2024 v 1.561776 h -0.2024 z m 0.59284,0 h 0.2024 v 0.729212 q 0,0.266995 0.0287,0.367476 0.0431,0.143546 0.16364,0.226803 0.12202,0.08326 0.28996,0.08326 0.16795,0 0.28423,-0.08039 0.1177,-0.08182 0.1622,-0.213882 0.0301,-0.09043 0.0301,-0.383267 v -0.729212 h 0.20527 v 0.766534 q 0,0.322977 -0.0761,0.486619 -0.0747,0.163642 -0.2268,0.256947 -0.15073,0.09187 -0.37897,0.09187 -0.22823,0 -0.38183,-0.09187 -0.15215,-0.09331 -0.22823,-0.258382 -0.0746,-0.166513 -0.0746,-0.499539 z m 1.81155,0 h 0.19953 v 0.269866 q 0.10478,-0.149287 0.21531,-0.218189 0.15216,-0.09187 0.32011,-0.09187 0.1134,0 0.21532,0.0445 0.10192,0.0445 0.16651,0.119142 0.0646,0.07321 0.11197,0.211012 0.10048,-0.183738 0.2512,-0.278478 0.15072,-0.09618 0.32441,-0.09618 0.16221,0 0.28566,0.08182 0.12489,0.08182 0.18517,0.228237 0.0603,0.146416 0.0603,0.439249 v 0.852661 h -0.20527 v -0.852661 q 0,-0.251204 -0.0359,-0.344509 -0.0359,-0.09474 -0.12345,-0.152158 -0.0861,-0.05742 -0.20671,-0.05742 -0.14641,0 -0.26843,0.08613 -0.12058,0.08613 -0.17656,0.229673 -0.056,0.143545 -0.056,0.479442 v 0.611504 h -0.19953 v -0.799549 q 0,-0.282784 -0.0359,-0.383266 -0.0344,-0.101918 -0.12201,-0.162207 -0.0876,-0.06172 -0.20814,-0.06172 -0.13924,0 -0.26125,0.08469 -0.12058,0.08326 -0.17944,0.225367 -0.0574,0.14211 -0.0574,0.434943 v 0.661745 h -0.19953 z"
         id="text2-6-5-5-0"
         aria-label="5 µm Indium" />
      <g
         id="text2-6-5-5-0-3"
         style="font-size:2.82222px;font-family:'Century Gothic';-inkscape-font-specification:'Century Gothic, Normal';stroke-width:0.1"
         aria-label="Sensor CX-T&#10;(Ceramic)">
        <path
           style="text-align:center;text-anchor:middle"
           d="m 118.8806,76.898884 0.17226,-0.103353 q 0.1819,0.334863 0.4203,0.334863 0.10197,0 0.19154,-0.04685 0.0896,-0.04823 0.13643,-0.128157 0.0469,-0.07993 0.0469,-0.169499 0,-0.101975 -0.0689,-0.199815 -0.0951,-0.135048 -0.34726,-0.325217 -0.25356,-0.191547 -0.31557,-0.276985 -0.10749,-0.143316 -0.10749,-0.310059 0,-0.132291 0.0634,-0.241156 0.0634,-0.108865 0.17777,-0.170877 0.11575,-0.06339 0.2508,-0.06339 0.14331,0 0.26734,0.07166 0.1254,0.07028 0.26458,0.260449 l -0.16536,0.125402 q -0.11438,-0.151584 -0.19569,-0.199816 -0.0799,-0.04823 -0.17501,-0.04823 -0.12264,0 -0.20119,0.07441 -0.0772,0.07441 -0.0772,0.183279 0,0.06615 0.0276,0.128157 0.0276,0.06201 0.1006,0.135048 0.04,0.03858 0.26183,0.202571 0.2632,0.194304 0.36104,0.345888 0.0978,0.151584 0.0978,0.304546 0,0.220486 -0.16812,0.383094 -0.16674,0.162609 -0.40652,0.162609 -0.18466,0 -0.33486,-0.09784 -0.15021,-0.09922 -0.27699,-0.330729 z m 2.84565,-0.119889 0.16261,0.08544 q -0.0799,0.157096 -0.18466,0.253559 -0.10473,0.09646 -0.23564,0.14745 -0.13092,0.04961 -0.29628,0.04961 -0.36656,0 -0.57327,-0.239778 -0.2067,-0.241157 -0.2067,-0.544325 0,-0.285253 0.17501,-0.508495 0.22186,-0.283876 0.59393,-0.283876 0.3831,0 0.61185,0.290766 0.16261,0.205327 0.16537,0.51263 h -1.34772 q 0.006,0.261827 0.16674,0.429947 0.16123,0.166743 0.39825,0.166743 0.11438,0 0.22186,-0.03996 0.10887,-0.03996 0.18466,-0.106109 0.0758,-0.06615 0.16399,-0.213596 z m 0,-0.403765 q -0.0386,-0.15434 -0.113,-0.246669 -0.073,-0.09233 -0.1943,-0.148828 -0.12127,-0.0565 -0.25494,-0.0565 -0.22049,0 -0.37896,0.141938 -0.11576,0.103352 -0.17501,0.310058 z m 0.57188,-0.598068 h 0.19293 v 0.268717 q 0.11575,-0.15434 0.25631,-0.230132 0.14056,-0.07717 0.30593,-0.07717 0.16812,0 0.29765,0.08544 0.13092,0.08544 0.19293,0.230132 0.062,0.144694 0.062,0.450619 v 0.7717 h -0.19155 v -0.715201 q 0,-0.259071 -0.022,-0.345887 -0.0345,-0.148828 -0.12954,-0.223242 -0.0951,-0.07579 -0.24805,-0.07579 -0.17501,0 -0.31419,0.115755 -0.1378,0.115755 -0.1819,0.286632 -0.0276,0.111621 -0.0276,0.407899 v 0.549836 h -0.19293 z m 2.47496,0.163986 -0.12403,0.128158 q -0.15434,-0.150206 -0.30179,-0.150206 -0.0937,0 -0.16123,0.06201 -0.0661,0.06201 -0.0661,0.144694 0,0.07304 0.0551,0.139182 0.0551,0.06752 0.23151,0.158474 0.21497,0.111621 0.29214,0.214974 0.0758,0.104731 0.0758,0.235645 0,0.184656 -0.12954,0.312814 -0.12953,0.128157 -0.32384,0.128157 -0.12953,0 -0.24804,-0.0565 -0.11714,-0.0565 -0.19431,-0.155718 l 0.12127,-0.137804 q 0.14745,0.166742 0.31281,0.166742 0.11576,0 0.19706,-0.07441 0.0813,-0.07441 0.0813,-0.17501 0,-0.08268 -0.0537,-0.14745 -0.0537,-0.06339 -0.24253,-0.159853 -0.20257,-0.10473 -0.27561,-0.206705 -0.073,-0.101975 -0.073,-0.232888 0,-0.170877 0.11575,-0.283876 0.11713,-0.112999 0.2949,-0.112999 0.20671,0 0.41617,0.202571 z m 1.05144,-0.202571 q 0.34589,0 0.57326,0.250803 0.20671,0.228754 0.20671,0.541568 0,0.314193 -0.21911,0.549837 -0.21773,0.234266 -0.56086,0.234266 -0.34451,0 -0.56362,-0.234266 -0.21773,-0.235644 -0.21773,-0.549837 0,-0.311436 0.20671,-0.54019 0.22738,-0.252181 0.57464,-0.252181 z m 0,0.188791 q -0.23978,0 -0.41203,0.177767 -0.17226,0.177767 -0.17226,0.429947 0,0.162609 0.0786,0.303169 0.0785,0.140559 0.21222,0.217729 0.13367,0.07579 0.29352,0.07579 0.15985,0 0.29352,-0.07579 0.13367,-0.07717 0.21222,-0.217729 0.0786,-0.14056 0.0786,-0.303169 0,-0.25218 -0.17363,-0.429947 -0.17226,-0.177767 -0.41066,-0.177767 z m 1.06522,-0.150206 h 0.19706 v 0.219108 q 0.0882,-0.129536 0.18604,-0.192925 0.0978,-0.06477 0.20395,-0.06477 0.0799,0 0.17087,0.05099 l -0.10059,0.162609 q -0.0606,-0.02618 -0.10198,-0.02618 -0.0965,0 -0.18603,0.07993 -0.0896,0.07855 -0.13643,0.245291 -0.0358,0.128157 -0.0358,0.518142 v 0.507117 h -0.19706 z m 3.62286,-0.151584 -0.15985,0.122645 q -0.13229,-0.172254 -0.31833,-0.260449 -0.18465,-0.08957 -0.40652,-0.08957 -0.24253,0 -0.44924,0.117133 -0.2067,0.115755 -0.32108,0.312814 -0.113,0.195682 -0.113,0.440972 0,0.370692 0.25356,0.618739 0.25494,0.248047 0.64217,0.248047 0.42581,0 0.71244,-0.333485 l 0.15985,0.121267 q -0.15158,0.192925 -0.37896,0.299034 -0.22599,0.104731 -0.50574,0.104731 -0.53192,0 -0.83922,-0.354156 -0.25769,-0.299034 -0.25769,-0.722091 0,-0.445106 0.31143,-0.748274 0.31282,-0.304547 0.78273,-0.304547 0.28387,0 0.51263,0.112999 0.22875,0.111621 0.37482,0.314193 z m 0.29904,-0.376204 h 0.23702 l 0.48507,0.790993 0.4892,-0.790993 h 0.23427 l -0.60358,0.98254 0.64354,1.044552 h -0.23702 l -0.52641,-0.850249 -0.52917,0.850249 h -0.23702 l 0.6463,-1.044552 z m 1.6688,1.180978 h 0.75792 v 0.16812 h -0.75792 z m 0.89297,-0.983919 v -0.197059 h 1.11207 v 0.197059 h -0.45199 v 1.830033 h -0.20671 v -1.830033 z"
           id="path40" />
        <path
           style="text-align:center;text-anchor:middle"
           d="m 120.32065,78.687576 h 0.22324 q -0.13505,0.276986 -0.21635,0.6463 -0.0813,0.369314 -0.0813,0.762054 0,0.363802 0.0606,0.701421 0.062,0.337619 0.1695,0.593934 h -0.21222 q -0.10197,-0.24529 -0.16261,-0.577397 -0.0606,-0.332107 -0.0606,-0.691775 0,-0.387228 0.0717,-0.753786 0.0716,-0.367936 0.20808,-0.680751 z m 2.5287,0.465777 -0.15985,0.122645 q -0.1323,-0.172254 -0.31833,-0.260449 -0.18466,-0.08957 -0.40652,-0.08957 -0.24254,0 -0.44924,0.117133 -0.20671,0.115755 -0.32108,0.312814 -0.113,0.195682 -0.113,0.440972 0,0.370692 0.25356,0.618739 0.25493,0.248047 0.64216,0.248047 0.42581,0 0.71245,-0.333485 l 0.15985,0.121267 q -0.15159,0.192925 -0.37896,0.299034 -0.226,0.104731 -0.50574,0.104731 -0.53192,0 -0.83923,-0.354156 -0.25769,-0.299034 -0.25769,-0.722091 0,-0.445106 0.31144,-0.748274 0.31281,-0.304547 0.78272,-0.304547 0.28388,0 0.51263,0.112999 0.22876,0.111622 0.37483,0.314193 z m 1.63711,1.153417 0.1626,0.08544 q -0.0799,0.157097 -0.18465,0.253559 -0.10473,0.09646 -0.23565,0.14745 -0.13091,0.04961 -0.29627,0.04961 -0.36656,0 -0.57327,-0.239779 -0.2067,-0.241156 -0.2067,-0.544325 0,-0.285253 0.17501,-0.508495 0.22186,-0.283876 0.59393,-0.283876 0.3831,0 0.61185,0.290766 0.16261,0.205327 0.16536,0.51263 h -1.34772 q 0.006,0.261827 0.16675,0.429947 0.16123,0.166743 0.39825,0.166743 0.11438,0 0.22186,-0.03996 0.10887,-0.03996 0.18466,-0.106109 0.0758,-0.06615 0.16399,-0.213596 z m 0,-0.403765 q -0.0386,-0.15434 -0.113,-0.246668 -0.073,-0.09233 -0.19431,-0.148828 -0.12126,-0.0565 -0.25493,-0.0565 -0.22049,0 -0.37896,0.141938 -0.11576,0.103353 -0.17501,0.310058 z m 0.49885,-0.598068 h 0.19706 v 0.219108 q 0.0882,-0.129536 0.18603,-0.192925 0.0978,-0.06477 0.20395,-0.06477 0.0799,0 0.17088,0.05099 l -0.1006,0.162609 q -0.0606,-0.02618 -0.10197,-0.02618 -0.0965,0 -0.18604,0.07993 -0.0896,0.07855 -0.13643,0.245291 -0.0358,0.128157 -0.0358,0.518142 v 0.507117 h -0.19706 z m 2.4157,0 v 1.499304 h -0.19017 v -0.257692 q -0.12127,0.14745 -0.27286,0.221864 -0.1502,0.07441 -0.32935,0.07441 -0.31832,0 -0.54432,-0.230133 -0.22462,-0.23151 -0.22462,-0.562239 0,-0.323839 0.22738,-0.553971 0.22737,-0.230132 0.54708,-0.230132 0.18465,0 0.33348,0.07855 0.15021,0.07855 0.26321,0.235644 v -0.275607 z m -0.77171,0.14745 q -0.16123,0 -0.29765,0.07993 -0.13643,0.07855 -0.21773,0.221864 -0.0799,0.143316 -0.0799,0.303168 0,0.158475 0.0813,0.303169 0.0813,0.144693 0.21773,0.225998 0.1378,0.07993 0.2949,0.07993 0.15847,0 0.30041,-0.07993 0.14194,-0.07993 0.21773,-0.216352 0.0772,-0.136426 0.0772,-0.307303 0,-0.260449 -0.17226,-0.435459 -0.17087,-0.175011 -0.42168,-0.175011 z m 1.20441,-0.14745 h 0.19155 v 0.259071 q 0.10059,-0.143316 0.2067,-0.209462 0.14607,-0.08819 0.3073,-0.08819 0.10887,0 0.20671,0.04272 0.0978,0.04272 0.15985,0.114377 0.062,0.07028 0.10749,0.202572 0.0965,-0.176389 0.24116,-0.267339 0.14469,-0.09233 0.31143,-0.09233 0.15572,0 0.27423,0.07855 0.11989,0.07855 0.17777,0.219108 0.0579,0.14056 0.0579,0.421679 v 0.818554 h -0.19706 v -0.818554 q 0,-0.241156 -0.0344,-0.330729 -0.0345,-0.09095 -0.11852,-0.146071 -0.0827,-0.05512 -0.19843,-0.05512 -0.14056,0 -0.2577,0.08268 -0.11575,0.08268 -0.1695,0.220486 -0.0537,0.137804 -0.0537,0.460265 v 0.587043 h -0.19155 v -0.767566 q 0,-0.271474 -0.0344,-0.367936 -0.0331,-0.09784 -0.11713,-0.155718 -0.0841,-0.05926 -0.19982,-0.05926 -0.13366,0 -0.2508,0.0813 -0.11575,0.07993 -0.17225,0.216352 -0.0551,0.136426 -0.0551,0.417545 v 0.635275 h -0.19155 z m 2.71611,-0.617361 q 0.0661,0 0.113,0.04685 0.0468,0.04685 0.0468,0.112999 0,0.06477 -0.0468,0.111621 -0.0469,0.04685 -0.113,0.04685 -0.0648,0 -0.11162,-0.04685 -0.0469,-0.04685 -0.0469,-0.111621 0,-0.06615 0.0469,-0.112999 0.0469,-0.04685 0.11162,-0.04685 z m -0.0965,0.617361 h 0.1943 v 1.499304 h -0.1943 z m 2.04914,0.311436 -0.15296,0.09508 q -0.19844,-0.263205 -0.54157,-0.263205 -0.27423,0 -0.45613,0.176389 -0.18053,0.176388 -0.18053,0.428569 0,0.163987 0.0827,0.308681 0.0841,0.144693 0.22875,0.22462 0.14607,0.07993 0.3266,0.07993 0.33072,0 0.54019,-0.263205 l 0.15296,0.100596 q -0.10749,0.161231 -0.28939,0.250803 -0.18052,0.08819 -0.41203,0.08819 -0.35554,0 -0.5898,-0.225999 -0.23427,-0.225998 -0.23427,-0.549836 0,-0.21773 0.10887,-0.403765 0.11024,-0.187413 0.30179,-0.292144 0.19154,-0.104731 0.42857,-0.104731 0.14882,0 0.28663,0.04547 0.13918,0.04548 0.23564,0.118511 0.0965,0.07304 0.16399,0.186035 z m 0.54984,1.774912 h -0.22325 q 0.13643,-0.276985 0.21636,-0.646299 0.0813,-0.369314 0.0813,-0.762055 0,-0.363801 -0.062,-0.701421 -0.0606,-0.337619 -0.16812,-0.593934 h 0.21221 q 0.10336,0.245291 0.16261,0.578776 0.0606,0.332107 0.0606,0.691775 0,0.38585 -0.0717,0.753786 -0.0717,0.366558 -0.20808,0.679372 z"
           id="path41" />
      </g>
      <g
         id="text2-6-7"
         style="font-size:2.93981px;font-family:'Century Gothic';-inkscape-font-specification:'Century Gothic, Normal';stroke:#000000;stroke-width:0.1"
         aria-label="T0">
        <path
           d="m 125.68374,61.508668 v -0.20527 h 1.15841 v 0.20527 h -0.47083 v 1.906283 H 126.156 v -1.906283 z"
           id="path36" />
        <path
           style="font-size:1.91088px;baseline-shift:sub"
           d="m 126.94873,63.317125 q 0,-0.271516 0.0579,-0.41987 0.0588,-0.148354 0.16515,-0.224864 0.10637,-0.07651 0.23793,-0.07651 0.13342,0 0.24165,0.07744 0.10824,0.07651 0.17075,0.230462 0.0635,0.153953 0.0635,0.413339 0,0.258454 -0.0625,0.411473 -0.0616,0.153019 -0.17075,0.231395 -0.10917,0.07744 -0.24259,0.07744 -0.13156,0 -0.237,-0.07558 -0.10543,-0.07558 -0.16515,-0.224864 -0.0588,-0.15022 -0.0588,-0.41987 z m 0.1297,0.0028 q 0,0.232329 0.041,0.351758 0.042,0.118497 0.12316,0.180078 0.0812,0.06158 0.17168,0.06158 0.0914,0 0.17075,-0.05972 0.0793,-0.06065 0.12036,-0.181011 0.0513,-0.146488 0.0513,-0.352691 0,-0.207136 -0.0457,-0.338695 -0.0457,-0.132493 -0.12689,-0.19314 -0.0803,-0.06158 -0.16982,-0.06158 -0.0914,0 -0.17168,0.06158 -0.0802,0.06065 -0.12223,0.180077 -0.042,0.118497 -0.042,0.351758 z"
           id="path37" />
      </g>
      <path
         style="fill:#000000;fill-opacity:1;stroke:#000000;stroke-width:0.3;stroke-dasharray:0.3, 0.3;stroke-dashoffset:0;stroke-opacity:1"
         d="M 109.2123,107.44303 136.71642,93.932226"
         id="path14" />
      <rect
         style="fill:#ffffff;fill-opacity:1;stroke:none;stroke-width:0.342492;stroke-dasharray:0.342492, 0.342492;stroke-dashoffset:0;stroke-opacity:1"
         id="rect14"
         width="5.9638453"
         height="5.1969228"
         x="75.647797"
         y="141.63992"
         transform="matrix(0.90403671,-0.42745483,0.41552383,0.90958229,0,0)" />
      <g
         id="text2-6-7-5"
         style="font-size:2.93981px;font-family:'Century Gothic';-inkscape-font-specification:'Century Gothic, Normal';fill:#ff0000;stroke:#ff0000;stroke-width:0.1"
         aria-label="KTape/Sensor">
        <path
           d="m 120.31572,94.702084 h 0.21532 v 0.79237 l 0.84261,-0.79237 h 0.28566 l -1.01487,0.947399 1.09382,1.164154 h -0.27992 l -0.9273,-0.984722 v 0.984722 h -0.21532 z"
           id="path38" />
        <path
           style="font-size:1.91088px;baseline-shift:sub"
           d="m 121.82647,96.162515 v -0.133426 h 0.75296 v 0.133426 h -0.30603 v 1.239084 h -0.13996 v -1.239084 z m 1.9398,0.223931 v 1.015153 h -0.12876 v -0.17448 q -0.0821,0.09984 -0.18475,0.150221 -0.1017,0.05038 -0.22299,0.05038 -0.21554,0 -0.36856,-0.155818 -0.15208,-0.156752 -0.15208,-0.380683 0,-0.219266 0.15395,-0.375084 0.15395,-0.155819 0.37042,-0.155819 0.12503,0 0.2258,0.05318 0.1017,0.05318 0.17821,0.159551 v -0.186609 z m -0.52251,0.09983 q -0.10916,0 -0.20154,0.05412 -0.0924,0.05318 -0.14742,0.15022 -0.0541,0.09704 -0.0541,0.20527 0,0.107301 0.0551,0.20527 0.055,0.09797 0.14742,0.15302 0.0933,0.05412 0.19967,0.05412 0.1073,0 0.2034,-0.05412 0.0961,-0.05412 0.14742,-0.146488 0.0523,-0.09237 0.0523,-0.208069 0,-0.176346 -0.11663,-0.294843 -0.11569,-0.118497 -0.28551,-0.118497 z m 0.81828,-0.09983 h 0.1297 v 0.186609 q 0.0774,-0.106367 0.17821,-0.159551 0.10077,-0.05318 0.22486,-0.05318 0.21647,0 0.37042,0.155819 0.15395,0.155818 0.15395,0.375084 0,0.223931 -0.15302,0.380683 -0.15208,0.155818 -0.36762,0.155818 -0.12129,0 -0.22299,-0.05038 -0.10171,-0.05039 -0.18381,-0.150221 v 0.545832 h -0.1297 z m 0.52251,0.09983 q -0.16982,0 -0.28645,0.118497 -0.11569,0.118497 -0.11569,0.294843 0,0.115697 0.0513,0.208069 0.0523,0.09237 0.14836,0.146488 0.097,0.05412 0.20433,0.05412 0.10544,0 0.19781,-0.05412 0.0933,-0.05505 0.14835,-0.15302 0.0551,-0.09797 0.0551,-0.20527 0,-0.108233 -0.0551,-0.20527 -0.0541,-0.09704 -0.14648,-0.15022 -0.0924,-0.05412 -0.20154,-0.05412 z m 1.63376,0.578489 0.1101,0.05785 q -0.0541,0.106367 -0.12503,0.171681 -0.0709,0.06531 -0.15955,0.09983 -0.0886,0.03359 -0.2006,0.03359 -0.24819,0 -0.38815,-0.16235 -0.13996,-0.163283 -0.13996,-0.368553 0,-0.19314 0.1185,-0.344293 0.15022,-0.192208 0.40214,-0.192208 0.25939,0 0.41427,0.196873 0.1101,0.139024 0.11197,0.347093 h -0.91252 q 0.004,0.177278 0.1129,0.29111 0.10917,0.112898 0.26965,0.112898 0.0774,0 0.15022,-0.02706 0.0737,-0.02706 0.12503,-0.07184 0.0513,-0.04479 0.11103,-0.144622 z m 0,-0.273383 q -0.0261,-0.104501 -0.0765,-0.167015 -0.0495,-0.06251 -0.13156,-0.100769 -0.0821,-0.03825 -0.17261,-0.03825 -0.14929,0 -0.25659,0.0961 -0.0784,0.06998 -0.1185,0.209935 z m 1.02168,-0.79682 -0.57009,1.593641 h -0.14275 l 0.56916,-1.593641 z m 0.0802,1.151377 0.11663,-0.06998 q 0.12316,0.22673 0.28458,0.22673 0.069,0 0.12969,-0.03172 0.0606,-0.03266 0.0924,-0.08677 0.0317,-0.05412 0.0317,-0.114764 0,-0.06905 -0.0466,-0.135292 -0.0644,-0.09144 -0.23513,-0.220198 -0.17168,-0.129694 -0.21366,-0.187543 -0.0728,-0.09704 -0.0728,-0.209935 0,-0.08957 0.0429,-0.163283 0.0429,-0.07371 0.12036,-0.115697 0.0784,-0.04292 0.16982,-0.04292 0.097,0 0.18101,0.04852 0.0849,0.04758 0.17914,0.176346 l -0.11196,0.08491 q -0.0774,-0.102635 -0.1325,-0.135292 -0.0541,-0.03266 -0.11849,-0.03266 -0.083,0 -0.13623,0.05038 -0.0523,0.05038 -0.0523,0.124095 0,0.04479 0.0187,0.08677 0.0187,0.04199 0.0681,0.09144 0.0271,0.02613 0.17727,0.137157 0.17822,0.13156 0.24446,0.234195 0.0662,0.102635 0.0662,0.206203 0,0.149287 -0.11383,0.259386 -0.1129,0.110099 -0.27525,0.110099 -0.12503,0 -0.22673,-0.06625 -0.1017,-0.06718 -0.18754,-0.223931 z m 1.92674,-0.08117 0.11009,0.05785 q -0.0541,0.106367 -0.12502,0.171681 -0.0709,0.06531 -0.15955,0.09983 -0.0886,0.03359 -0.20061,0.03359 -0.24819,0 -0.38815,-0.16235 -0.13995,-0.163283 -0.13995,-0.368553 0,-0.19314 0.11849,-0.344293 0.15022,-0.192208 0.40215,-0.192208 0.25938,0 0.41427,0.196873 0.1101,0.139024 0.11196,0.347093 h -0.91251 q 0.004,0.177278 0.11289,0.29111 0.10917,0.112898 0.26965,0.112898 0.0774,0 0.15022,-0.02706 0.0737,-0.02706 0.12503,-0.07184 0.0513,-0.04479 0.11104,-0.144622 z m 0,-0.273383 q -0.0261,-0.104501 -0.0765,-0.167015 -0.0495,-0.06251 -0.13156,-0.100769 -0.0821,-0.03825 -0.17262,-0.03825 -0.14928,0 -0.25658,0.0961 -0.0784,0.06998 -0.1185,0.209935 z m 0.38721,-0.404941 h 0.13063 v 0.181943 q 0.0784,-0.104501 0.17354,-0.155818 0.0952,-0.05225 0.20714,-0.05225 0.11383,0 0.20154,0.05785 0.0886,0.05785 0.13062,0.155819 0.042,0.09797 0.042,0.305106 v 0.522505 h -0.12969 v -0.484251 q 0,-0.175412 -0.0149,-0.234194 -0.0233,-0.100769 -0.0877,-0.151153 -0.0644,-0.05132 -0.16795,-0.05132 -0.11849,0 -0.21273,0.07838 -0.0933,0.07838 -0.12316,0.194073 -0.0187,0.07558 -0.0187,0.276182 v 0.372285 h -0.13063 z m 1.67575,0.111032 -0.084,0.08677 q -0.1045,-0.101702 -0.20433,-0.101702 -0.0634,0 -0.10917,0.04199 -0.0448,0.04199 -0.0448,0.09797 0,0.04945 0.0373,0.09424 0.0373,0.04572 0.15675,0.1073 0.14555,0.07558 0.1978,0.145555 0.0513,0.07091 0.0513,0.159551 0,0.125028 -0.0877,0.211801 -0.0877,0.08677 -0.21926,0.08677 -0.0877,0 -0.16795,-0.03825 -0.0793,-0.03826 -0.13156,-0.105434 l 0.0821,-0.0933 q 0.0998,0.112898 0.2118,0.112898 0.0784,0 0.13343,-0.05038 0.055,-0.05039 0.055,-0.118497 0,-0.05598 -0.0364,-0.09984 -0.0364,-0.04292 -0.16422,-0.108233 -0.13716,-0.07091 -0.18661,-0.139957 -0.0495,-0.06905 -0.0495,-0.157685 0,-0.115697 0.0784,-0.192207 0.0793,-0.07651 0.19967,-0.07651 0.13995,0 0.28178,0.137158 z m 0.71191,-0.137158 q 0.2342,0 0.38815,0.169815 0.13995,0.154885 0.13995,0.366686 0,0.212735 -0.14835,0.372285 -0.14742,0.158618 -0.37975,0.158618 -0.23326,0 -0.38161,-0.158618 -0.14743,-0.15955 -0.14743,-0.372285 0,-0.210868 0.13996,-0.365753 0.15395,-0.170748 0.38908,-0.170748 z m 0,0.127828 q -0.16235,0 -0.27898,0.120362 -0.11663,0.120363 -0.11663,0.291111 0,0.110099 0.0532,0.205269 0.0532,0.09517 0.14369,0.147422 0.0905,0.05132 0.19874,0.05132 0.10823,0 0.19874,-0.05132 0.0905,-0.05225 0.14369,-0.147422 0.0532,-0.09517 0.0532,-0.205269 0,-0.170748 -0.11756,-0.291111 -0.11663,-0.120362 -0.27805,-0.120362 z m 0.72125,-0.101702 h 0.13342 V 96.5348 q 0.0597,-0.08771 0.12596,-0.130626 0.0662,-0.04385 0.13809,-0.04385 0.0541,0 0.1157,0.03452 l -0.0681,0.110099 q -0.0411,-0.01773 -0.0691,-0.01773 -0.0653,0 -0.12596,0.05412 -0.0607,0.05318 -0.0924,0.166082 -0.0243,0.08677 -0.0243,0.350825 v 0.343361 h -0.13342 z"
           id="path39" />
      </g>
      <rect
         style="fill:#000000;stroke:#000000;stroke-width:0.165822;stroke-dasharray:none;stroke-dashoffset:0"
         id="rect1-7-7-0-0"
         width="19.814161"
         height="0.83409262"
         x="116.88564"
         y="65.019485" />
      <rect
         style="fill:none;stroke:#000000;stroke-width:0.3;stroke-dasharray:none;stroke-dashoffset:0"
         id="rect3-5"
         width="26.985163"
         height="19.684744"
         x="66.055855"
         y="-136.627"
         transform="rotate(90)" />
      <rect
         style="fill:#ff0000;fill-opacity:1;stroke:#ff0000;stroke-width:0.165822;stroke-dasharray:none;stroke-dashoffset:0;stroke-opacity:1"
         id="rect1-7-7-0-0-3"
         width="19.814161"
         height="0.83409262"
         x="116.87892"
         y="92.996277" />
      <rect
         style="fill:#999999;fill-opacity:1;stroke:#999999;stroke-width:0.165822;stroke-dasharray:none;stroke-dashoffset:0;stroke-opacity:1"
         id="rect1-7-7-0-0-3-5"
         width="19.814161"
         height="0.83409262"
         x="116.87892"
         y="92.005035" />
      <path
         style="fill:#000000;fill-opacity:1;stroke:#000000;stroke-width:0.3;stroke-dasharray:0.3, 0.3;stroke-dashoffset:0;stroke-opacity:1"
         d="M 103.42195,98.596668 116.77191,64.980512"
         id="path13" />
    </g>
  </g>
</svg>
