<?xml version="1.0" encoding="UTF-8" standalone="no"?>
<svg
   width="680"
   height="500"
   viewBox="0 0 680 500"
   version="1.1"
   id="svg352"
   sodipodi:docname="figure09-thermalResistanceNorm.svg"
   inkscape:version="1.3.2 (091e20e, 2023-11-25)"
   xmlns:inkscape="http://www.inkscape.org/namespaces/inkscape"
   xmlns:sodipodi="http://sodipodi.sourceforge.net/DTD/sodipodi-0.dtd"
   xmlns="http://www.w3.org/2000/svg"
   xmlns:svg="http://www.w3.org/2000/svg">
  <defs
     id="defs352">
    <clipPath
       id="clip2"
       clip-path="url(#clip1)">
      <path
         d="M -99999,53.5 V 100001 H 100001 V 53.5 Z"
         id="path6" />
    </clipPath>
    <clipPath
       clipPathUnits="userSpaceOnUse"
       id="clipPath357">
      <g
         id="g358"
         transform="translate(1481.8136,-30.666608)">
        <path
           d="M -101480.31,111.16661 V 100032.17 H 98519.686 V 111.16661 Z"
           id="path357" />
      </g>
    </clipPath>
    <clipPath
       id="clip23-2"
       clip-path="url(#clip22)">
      <path
         d="m 1581.5,81.5 v 98 h 183 v -98 z"
         id="path266-0" />
    </clipPath>
    <clipPath
       id="clip24"
       clip-path="url(#clip23-2)">
      <path
         d="M 1582,81.5 V 180 h 183 V 81.5 Z"
         id="path267" />
    </clipPath>
    <clipPath
       id="clip25"
       clip-path="url(#clip23-2)">
      <path
         d="M 1582,81.5 V 180 h 183 V 81.5 Z"
         id="path274" />
    </clipPath>
    <clipPath
       clipPathUnits="userSpaceOnUse"
       id="clipPath362">
      <g
         id="g365"
         transform="translate(1524.9059,30.833392)">
        <g
           id="g364">
          <g
             id="g363"
             transform="translate(-43.092285,-61.5)">
            <path
               d="m -99999.5,26.5 v 99974 h 200000 V 26.5 Z"
               id="path362" />
          </g>
        </g>
      </g>
    </clipPath>
    <clipPath
       clipPathUnits="userSpaceOnUse"
       id="clipPath365">
      <g
         id="g368"
         transform="translate(43.092285,61.5)">
        <g
           id="g367">
          <g
             id="g366"
             transform="translate(-43.092285,-61.5)">
            <path
               d="m -99999.5,26.5 v 99974 h 200000 V 26.5 Z"
               id="path365" />
          </g>
        </g>
      </g>
    </clipPath>
    <clipPath
       clipPathUnits="userSpaceOnUse"
       id="clipPath368">
      <g
         id="g371"
         transform="translate(43.092285,61.5)">
        <g
           id="g370">
          <g
             id="g369"
             transform="translate(-43.092285,-61.5)">
            <path
               d="m -99999.5,26.5 v 99974 h 200000 V 26.5 Z"
               id="path368" />
          </g>
        </g>
      </g>
    </clipPath>
    <clipPath
       clipPathUnits="userSpaceOnUse"
       id="clipPath371">
      <g
         id="g374"
         transform="translate(43.092285,61.5)">
        <g
           id="g373">
          <g
             id="g372"
             transform="translate(-43.092285,-61.5)">
            <path
               d="m -99999.5,26.5 v 99974 h 200000 V 26.5 Z"
               id="path371" />
          </g>
        </g>
      </g>
    </clipPath>
    <clipPath
       clipPathUnits="userSpaceOnUse"
       id="clipPath374">
      <g
         id="g377"
         transform="translate(43.092285,61.5)">
        <g
           id="g376">
          <g
             id="g375"
             transform="translate(-43.092285,-61.5)">
            <path
               d="m -99999.5,26.5 v 99974 h 200000 V 26.5 Z"
               id="path374" />
          </g>
        </g>
      </g>
    </clipPath>
    <clipPath
       clipPathUnits="userSpaceOnUse"
       id="clipPath377">
      <g
         id="g380"
         transform="translate(43.092285,61.5)">
        <g
           id="g379">
          <g
             id="g378"
             transform="translate(-43.092285,-61.5)">
            <path
               d="m -99999.5,26.5 v 99974 h 200000 V 26.5 Z"
               id="path377" />
          </g>
        </g>
      </g>
    </clipPath>
  </defs>
  <sodipodi:namedview
     id="namedview352"
     pagecolor="#ffffff"
     bordercolor="#000000"
     borderopacity="0.25"
     inkscape:showpageshadow="2"
     inkscape:pageopacity="0.0"
     inkscape:pagecheckerboard="0"
     inkscape:deskcolor="#d1d1d1"
     inkscape:zoom="1.036512"
     inkscape:cx="348.28349"
     inkscape:cy="256.62994"
     inkscape:window-width="1824"
     inkscape:window-height="945"
     inkscape:window-x="1762"
     inkscape:window-y="42"
     inkscape:window-maximized="0"
     inkscape:current-layer="svg352" />
  <g
     id="g73"
     transform="translate(-43.092285,-61.5)"
     style="font-size:13px;font-family:'Helvetica Neue';fill:#000000;stroke:#000000">
    <clipPath
       id="clip6"
       clip-path="url(#clip2)">
      <path
         d="m 36.5,535.5 v 28 h 679 v -28 z"
         id="path71" />
    </clipPath>
    <g
       clip-path="url(#clip6)"
       id="g72" />
  </g>
  <g
     id="g381"
     transform="translate(0,-2.7499998)">
    <g
       id="g25"
       transform="translate(-37.36792,-63.666465)"
       style="font-size:13px;font-family:'Helvetica Neue';fill:#000000;stroke:#000000"
       clip-path="url(#clipPath374)">
      <g
         id="g24">
        <clipPath
           id="clip3"
           clip-path="url(#clip2)">
          <path
             d="m 45.5,60.5 v 48 h 660 v -48 z"
             id="path7" />
        </clipPath>
        <g
           clip-path="url(#clip3)"
           id="g23">
          <g
             id="g16">
            <g
               stroke-linecap="square"
               fill="#ffffff"
               id="g9">
              <path
                 stroke="none"
                 d="m 428.5,93.5 v -18 h -139 v 18 h 139"
                 fill-rule="evenodd"
                 id="path8" />
              <path
                 fill="none"
                 d="m 428.5,93.5 v -18 h -139 v 18 h 139"
                 id="path9" />
            </g>
            <g
               fill="#ffffff"
               id="g11">
              <path
                 fill="none"
                 d="m 628.5,84.5 h -200"
                 id="path10" />
              <path
                 fill="none"
                 d="m 79.5,84.5 h 210"
                 id="path11" />
            </g>
            <g
               stroke-linecap="square"
               fill="#ffffff"
               id="g12">
              <path
                 fill="none"
                 d="m 360.5,89.5 8,-5 -8,-6 -8,6 z"
                 id="path12" />
            </g>
            <g
               fill="#ffffff"
               id="g15">
              <path
                 fill="none"
                 d="m 79.5,93.5 v -18"
                 id="path13" />
              <path
                 fill="none"
                 d="m 628.5,93.5 v -18"
                 id="path14" />
              <path
                 fill="none"
                 d="m 359.5,93.5 v -18"
                 id="path15" />
            </g>
          </g>
          <g
             id="g21">
            <g
               id="g18">
              <title
                 id="title16">371</title>
              <g
                 stroke-width="1.12"
                 id="g17">
                <circle
                   stroke="none"
                   cx="640.60999"
                   cy="84.5"
                   id="ellipse16"
                   r="2.6400001" />
              </g>
            </g>
            <g
               stroke-width="1.12"
               id="g19">
              <title
                 id="title18">578</title>
              <circle
                 stroke="none"
                 cx="660.62"
                 cy="84.5"
                 id="ellipse18"
                 r="2.6400001" />
            </g>
            <g
               stroke-width="1.12"
               id="g20">
              <title
                 id="title19">580</title>
              <circle
                 stroke="none"
                 cx="691.67999"
                 cy="84.5"
                 id="ellipse19"
                 r="2.6400001" />
            </g>
          </g>
          <g
             id="g22" />
        </g>
      </g>
    </g>
    <g
       id="g46"
       transform="translate(-37.36792,-63.666465)"
       style="font-size:13px;font-family:'Helvetica Neue';fill:#000000;stroke:#000000"
       clip-path="url(#clipPath371)">
      <g
         id="g45">
        <clipPath
           id="clip4"
           clip-path="url(#clip2)">
          <path
             d="m 45.5,111.5 v 424 h 660 v -424 z"
             id="path26" />
        </clipPath>
        <g
           clip-path="url(#clip4)"
           id="g44">
          <g
             id="g41">
            <rect
               stroke="none"
               x="46.5"
               y="531.5"
               width="47"
               height="4"
               id="rect27" />
            <rect
               stroke="none"
               x="93.5"
               y="514.5"
               width="47"
               height="21"
               id="rect28" />
            <rect
               stroke="none"
               x="140.5"
               y="478.5"
               width="47"
               height="57"
               id="rect29" />
            <rect
               stroke="none"
               x="187.5"
               y="386.5"
               width="47"
               height="149"
               id="rect30" />
            <rect
               stroke="none"
               x="234.5"
               y="268.5"
               width="47"
               height="267"
               id="rect31" />
            <rect
               stroke="none"
               x="281.5"
               y="182.5"
               width="47"
               height="353"
               id="rect32" />
            <rect
               stroke="none"
               x="328.5"
               y="149.5"
               width="47"
               height="386"
               id="rect33" />
            <rect
               stroke="none"
               x="375.5"
               y="192.5"
               width="47"
               height="343"
               id="rect34" />
            <rect
               stroke="none"
               x="422.5"
               y="281.5"
               width="47"
               height="254"
               id="rect35" />
            <rect
               stroke="none"
               x="469.5"
               y="327.5"
               width="47"
               height="208"
               id="rect36" />
            <rect
               stroke="none"
               x="516.5"
               y="472.5"
               width="47"
               height="63"
               id="rect37" />
            <rect
               stroke="none"
               x="563.5"
               y="504.5"
               width="47"
               height="31"
               id="rect38" />
            <rect
               stroke="none"
               x="610.5"
               y="514.5"
               width="47"
               height="21"
               id="rect39" />
            <rect
               stroke="none"
               x="657.5"
               y="527.5"
               width="47"
               height="8"
               id="rect40" />
            <g
               stroke="#555555"
               id="g40">
              <path
                 fill="none"
                 d="m 46.5,531.5 v 4 h 47 v -4 z m 47,-17 v 21 h 47 v -21 z m 47,-36 v 57 h 47 v -57 z m 47,-92 v 149 h 47 v -149 z m 47,-118 v 267 h 47 v -267 z m 47,-86 v 353 h 47 v -353 z m 47,-33 v 386 h 47 v -386 z m 47,43 v 343 h 47 v -343 z m 47,89 v 254 h 47 v -254 z m 47,46 v 208 h 47 v -208 z m 47,145 v 63 h 47 v -63 z m 47,32 v 31 h 47 v -31 z m 47,10 v 21 h 47 v -21 z m 47,13 v 8 h 47 v -8 z"
                 id="path40" />
            </g>
          </g>
          <g
             id="g43">
            <g
               stroke-width="8"
               stroke="#2867fd"
               id="g42">
              <path
                 fill="none"
                 d="m 46.5,534.07 c 0.04,0 0.22,-0.01 0.88,-0.05 0.65,-0.04 2.56,-0.17 3.49,-0.23 1.05,-0.07 2.44,-0.18 3.49,-0.26 1.05,-0.08 2.45,-0.2 3.49,-0.3 1.05,-0.09 2.45,-0.22 3.5,-0.33 1.04,-0.11 2.44,-0.25 3.49,-0.37 1.04,-0.12 2.44,-0.29 3.49,-0.43 1.05,-0.13 2.44,-0.32 3.49,-0.47 1.05,-0.15 2.45,-0.36 3.49,-0.53 1.05,-0.16 2.45,-0.4 3.49,-0.59 1.05,-0.18 2.45,-0.45 3.5,-0.65 1.04,-0.21 2.44,-0.5 3.49,-0.73 1.05,-0.24 2.44,-0.56 3.49,-0.81 1.05,-0.26 2.44,-0.62 3.49,-0.9 1.05,-0.28 2.45,-0.68 3.49,-0.99 1.05,-0.31 2.45,-0.74 3.5,-1.08 1.04,-0.35 2.44,-0.82 3.49,-1.2 1.04,-0.37 2.44,-0.9 3.49,-1.31 1.05,-0.41 2.44,-0.98 3.49,-1.43 1.05,-0.45 2.45,-1.07 3.49,-1.56 1.05,-0.49 2.45,-1.17 3.49,-1.7 1.05,-0.54 2.45,-1.27 3.5,-1.85 1.04,-0.58 2.44,-1.38 3.49,-2.01 1.05,-0.62 2.44,-1.49 3.49,-2.17 1.05,-0.67 2.44,-1.61 3.49,-2.34 1.05,-0.73 2.45,-1.73 3.49,-2.52 1.05,-0.78 2.45,-1.87 3.5,-2.71 1.04,-0.84 2.44,-2 3.49,-2.91 1.04,-0.9 2.44,-2.14 3.49,-3.11 1.05,-0.96 2.44,-2.29 3.49,-3.32 1.05,-1.03 2.45,-2.45 3.49,-3.55 1.05,-1.09 2.45,-2.6 3.49,-3.77 1.05,-1.16 2.45,-2.76 3.5,-4 1.04,-1.23 2.44,-2.93 3.49,-4.23 1.05,-1.31 2.44,-3.1 3.49,-4.48 1.05,-1.38 2.44,-3.27 3.49,-4.73 1.05,-1.45 2.45,-3.44 3.49,-4.97 1.05,-1.53 2.45,-3.62 3.5,-5.22 1.04,-1.61 2.44,-3.8 3.49,-5.48 1.04,-1.68 2.44,-3.97 3.49,-5.73 1.05,-1.75 2.44,-4.14 3.49,-5.97 1.05,-1.84 2.45,-4.33 3.49,-6.23 1.05,-1.91 2.45,-4.5 3.49,-6.47 1.05,-1.98 2.45,-4.67 3.5,-6.72 1.04,-2.05 2.44,-4.83 3.49,-6.94 1.05,-2.12 2.44,-4.99 3.49,-7.18 1.05,-2.19 2.44,-5.15 3.49,-7.4 1.05,-2.25 2.45,-5.29 3.49,-7.6 1.05,-2.31 2.45,-5.43 3.5,-7.8 1.04,-2.37 2.44,-5.57 3.49,-7.99 1.04,-2.43 2.44,-5.69 3.49,-8.16 1.05,-2.48 2.44,-5.81 3.49,-8.32 1.05,-2.52 2.45,-5.91 3.49,-8.46 1.05,-2.56 2.45,-5.99 3.49,-8.58 1.05,-2.6 2.45,-6.07 3.5,-8.69 1.04,-2.62 2.44,-6.13 3.49,-8.78 1.05,-2.64 2.44,-6.17 3.49,-8.83 1.05,-2.66 2.44,-6.21 3.49,-8.88 1.05,-2.67 2.45,-6.23 3.49,-8.9 1.05,-2.67 3.15,-8.01 3.5,-8.9 1.04,-2.66 2.44,-6.22 3.49,-8.87 1.04,-2.65 2.44,-6.18 3.49,-8.82 1.05,-2.63 2.44,-6.13 3.49,-8.74 1.05,-2.61 2.45,-6.07 3.49,-8.64 1.05,-2.58 2.45,-5.99 3.49,-8.52 1.05,-2.53 2.45,-5.88 3.5,-8.37 1.04,-2.48 2.44,-5.76 3.49,-8.18 1.05,-2.43 2.44,-5.63 3.49,-7.99 1.05,-2.37 2.44,-5.47 3.49,-7.77 1.05,-2.29 2.45,-5.3 3.49,-7.51 1.05,-2.21 2.45,-5.11 3.5,-7.24 1.04,-2.13 2.44,-4.91 3.49,-6.95 1.04,-2.03 2.44,-4.69 3.49,-6.63 1.05,-1.94 2.44,-4.45 3.49,-6.29 1.05,-1.83 2.45,-4.21 3.49,-5.93 1.05,-1.73 2.45,-3.95 3.49,-5.56 1.05,-1.61 2.45,-3.68 3.5,-5.17 1.04,-1.49 2.44,-3.4 3.49,-4.76 1.05,-1.37 2.44,-3.1 3.49,-4.34 1.05,-1.24 2.44,-2.8 3.49,-3.9 1.05,-1.11 2.45,-2.49 3.49,-3.46 1.05,-0.97 2.45,-2.17 3.5,-3 1.04,-0.83 2.44,-1.85 3.49,-2.54 1.04,-0.69 2.44,-1.52 3.49,-2.07 1.05,-0.55 2.44,-1.19 3.49,-1.6 1.05,-0.4 2.45,-0.85 3.49,-1.12 1.05,-0.26 2.45,-0.52 3.49,-0.64 1.05,-0.12 2.45,-0.19 3.5,-0.17 1.04,0.02 2.44,0.15 3.49,0.31 1.05,0.16 2.44,0.47 3.49,0.77 1.05,0.31 2.44,0.8 3.49,1.24 1.05,0.44 2.45,1.12 3.49,1.7 1.05,0.57 2.45,1.43 3.5,2.14 1.04,0.71 2.44,1.74 3.49,2.58 1.04,0.84 2.44,2.04 3.49,3 1.05,0.96 2.44,2.33 3.49,3.42 1.05,1.08 2.45,2.61 3.49,3.81 1.05,1.2 2.45,2.89 3.49,4.2 1.05,1.31 2.45,3.14 3.5,4.56 1.04,1.42 2.44,3.39 3.49,4.92 1.05,1.52 2.44,3.62 3.49,5.24 1.05,1.62 2.44,3.85 3.49,5.56 1.05,1.71 2.45,4.05 3.49,5.85 1.05,1.8 2.45,4.25 3.5,6.12 1.04,1.88 2.44,4.43 3.49,6.38 1.05,1.95 2.44,4.6 3.49,6.61 1.05,2.02 2.44,4.75 3.49,6.83 1.05,2.07 2.45,4.88 3.49,7.01 1.05,2.13 2.45,5.01 3.49,7.19 1.05,2.18 2.45,5.11 3.5,7.33 1.04,2.22 2.44,5.21 3.49,7.47 1.05,2.26 2.44,5.29 3.49,7.57 1.05,2.29 2.44,5.36 3.49,7.67 1.05,2.31 2.45,5.4 3.49,7.73 1.05,2.33 2.45,5.45 3.5,7.79 1.04,2.34 2.44,5.47 3.49,7.81 1.05,2.35 2.44,5.49 3.49,7.84 1.05,2.34 3.05,6.83 3.49,7.82 1.05,2.35 2.45,5.48 3.49,7.81 1.05,2.34 2.45,5.45 3.49,7.78 1.05,2.32 2.45,5.41 3.5,7.72 1.04,2.31 2.44,5.38 3.49,7.66 1.05,2.29 2.44,5.32 3.49,7.58 1.05,2.26 2.44,5.26 3.49,7.49 1.05,2.24 2.45,5.19 3.49,7.39 1.05,2.2 2.45,5.11 3.5,7.28 1.04,2.16 2.44,5.02 3.49,7.15 1.05,2.13 2.44,4.94 3.49,7.02 1.05,2.09 2.44,4.84 3.49,6.88 1.05,2.04 2.45,4.74 3.49,6.73 1.05,2 2.45,4.63 3.49,6.58 1.05,1.95 2.45,4.52 3.5,6.42 1.04,1.9 2.44,4.4 3.49,6.25 1.05,1.85 2.44,4.28 3.49,6.08 1.05,1.8 2.44,4.16 3.49,5.91 1.05,1.75 2.45,4.04 3.49,5.73 1.05,1.7 2.45,3.92 3.5,5.56 1.04,1.64 2.44,3.79 3.49,5.37 1.05,1.59 2.44,3.67 3.49,5.2 1.05,1.53 2.44,3.54 3.49,5.01 1.05,1.48 2.45,3.41 3.49,4.84 1.05,1.42 2.45,3.28 3.49,4.65 1.05,1.37 2.45,3.16 3.5,4.48 1.04,1.31 2.44,3.03 3.49,4.3 1.05,1.26 2.44,2.91 3.49,4.12 1.05,1.22 2.44,2.8 3.49,3.96 1.05,1.16 2.45,2.67 3.49,3.78 1.05,1.11 2.45,2.56 3.5,3.62 1.04,1.06 2.44,2.45 3.49,3.46 1.05,1.01 2.44,2.33 3.49,3.3 1.05,0.97 2.44,2.22 3.49,3.14 1.05,0.92 2.45,2.12 3.49,3 1.05,0.87 2.45,2.01 3.49,2.84 1.05,0.84 2.45,1.92 3.5,2.71 1.04,0.79 2.44,1.81 3.49,2.56 1.05,0.75 2.44,1.73 3.49,2.44 1.05,0.71 2.44,1.63 3.49,2.3 1.05,0.68 2.45,1.55 3.49,2.19 1.05,0.63 2.45,1.46 3.5,2.06 1.04,0.6 2.44,1.38 3.49,1.94 1.05,0.57 2.44,1.31 3.49,1.84 1.05,0.54 2.44,1.23 3.49,1.73 1.05,0.51 2.45,1.16 3.49,1.63 1.05,0.48 2.45,1.09 3.49,1.54 1.05,0.45 2.45,1.02 3.5,1.44 1.04,0.42 2.44,0.96 3.49,1.36 1.05,0.39 2.44,0.9 3.49,1.27 1.05,0.37 2.44,0.84 3.49,1.19 1.05,0.34 2.45,0.79 3.49,1.11 1.05,0.33 2.45,0.74 3.5,1.05 1.04,0.3 2.44,0.69 3.49,0.97 1.05,0.28 2.44,0.65 3.49,0.91 1.05,0.27 2.44,0.61 3.49,0.85 1.05,0.25 2.45,0.57 3.49,0.8 1.05,0.23 2.45,0.52 3.49,0.73 1.05,0.22 2.45,0.49 3.5,0.69 1.04,0.2 2.44,0.46 3.49,0.64 1.05,0.19 2.44,0.42 3.49,0.6 1.05,0.17 2.44,0.39 3.49,0.55 1.05,0.16 2.45,0.36 3.49,0.51 1.05,0.15 2.45,0.34 3.5,0.47 1.04,0.14 2.44,0.32 3.49,0.44 1.05,0.13 2.44,0.29 3.49,0.41 1.05,0.12 2.44,0.27 3.49,0.38 1.05,0.11 2.45,0.25 3.49,0.35 1.05,0.1 2.45,0.22 3.5,0.32 1.04,0.09 2.44,0.21 3.49,0.29 1.04,0.09 2.44,0.2 3.49,0.28 0.79,0.06 2.87,0.2 3.49,0.25 0.62,0.04 0.67,0.04 0.66,0.04"
                 id="path41" />
            </g>
          </g>
        </g>
      </g>
    </g>
    <g
       stroke-linecap="square"
       stroke="#a5a5a5"
       id="g47"
       transform="translate(-37.36792,-63.666465)"
       style="font-size:13px;font-family:'Helvetica Neue';fill:#000000"
       clip-path="url(#clipPath368)">
      <path
         fill="none"
         d="M 704.5,535.5 H 46.5"
         id="path46" />
    </g>
    <g
       id="g71"
       transform="translate(-37.36792,-63.666465)"
       style="font-size:13px;font-family:'Helvetica Neue';fill:#000000;stroke:#000000"
       clip-path="url(#clipPath365)">
      <clipPath
         id="clip5"
         clip-path="url(#clip2)">
        <path
           d="m 36.5,535.5 v 28 h 679 v -28 z"
           id="path47" />
      </clipPath>
      <g
         clip-path="url(#clip5)"
         id="g70">
        <g
           stroke="#a5a5a5"
           id="g62">
          <path
             fill="none"
             d="m 93.5,535.5 v 3"
             id="path48" />
          <path
             fill="none"
             d="m 187.5,535.5 v 3"
             id="path49" />
          <path
             fill="none"
             d="m 281.5,535.5 v 3"
             id="path50" />
          <path
             fill="none"
             d="m 375.5,535.5 v 3"
             id="path51" />
          <path
             fill="none"
             d="m 469.5,535.5 v 3"
             id="path52" />
          <path
             fill="none"
             d="m 563.5,535.5 v 3"
             id="path53" />
          <path
             fill="none"
             d="m 657.5,535.5 v 3"
             id="path54" />
          <path
             fill="none"
             d="m 46.5,535.5 v 6"
             id="path55" />
          <path
             fill="none"
             d="m 140.5,535.5 v 6"
             id="path56" />
          <path
             fill="none"
             d="m 234.5,535.5 v 6"
             id="path57" />
          <path
             fill="none"
             d="m 328.5,535.5 v 6"
             id="path58" />
          <path
             fill="none"
             d="m 422.5,535.5 v 6"
             id="path59" />
          <path
             fill="none"
             d="m 516.5,535.5 v 6"
             id="path60" />
          <path
             fill="none"
             d="m 610.5,535.5 v 6"
             id="path61" />
          <path
             fill="none"
             d="m 704.5,535.5 v 6"
             id="path62" />
        </g>
        <g
           font-family="'Century Gothic'"
           font-size="14px"
           id="g69">
          <text
             stroke="none"
             x="46.5"
             y="543.5"
             dy="14.08"
             text-anchor="middle"
             id="text62">8</text>
          <text
             stroke="none"
             x="140.5"
             y="543.5"
             dy="14.08"
             text-anchor="middle"
             id="text63">9</text>
          <text
             stroke="none"
             x="234.5"
             y="543.5"
             dy="14.08"
             text-anchor="middle"
             id="text64">10</text>
          <text
             stroke="none"
             x="328.5"
             y="543.5"
             dy="14.08"
             text-anchor="middle"
             id="text65">11</text>
          <text
             stroke="none"
             x="422.5"
             y="543.5"
             dy="14.08"
             text-anchor="middle"
             id="text66">12</text>
          <text
             stroke="none"
             x="516.5"
             y="543.5"
             dy="14.08"
             text-anchor="middle"
             id="text67">13</text>
          <text
             stroke="none"
             x="610.5"
             y="543.5"
             dy="14.08"
             text-anchor="middle"
             id="text68">14</text>
          <text
             stroke="none"
             x="704.5"
             y="543.5"
             dy="14.08"
             text-anchor="middle"
             id="text69">15</text>
        </g>
      </g>
    </g>
    <g
       id="g283"
       transform="translate(-1535.8387,-32.999857)"
       clip-path="url(#clipPath362)"
       style="font-size:13px;font-family:'Helvetica Neue';fill:#000000;stroke:#000000">
      <clipPath
         id="clip23"
         clip-path="url(#clip22)">
        <path
           d="m 1581.5,81.5 v 98 h 183 v -98 z"
           id="path266" />
      </clipPath>
      <g
         clip-path="url(#clip23-2)"
         id="g282"
         style="font-size:13px;font-family:'Helvetica Neue';fill:#000000;stroke:#000000"
         transform="translate(434.50001,168.73281)">
        <rect
           stroke="none"
           x="1602.8228"
           y="81.105179"
           width="118.82712"
           height="96"
           id="rect266"
           style="opacity:0.124294;fill:#2867fd;fill-opacity:1;stroke-width:1.03934" />
        <rect
           stroke="none"
           x="1724.048"
           y="81.105179"
           width="41.370499"
           height="96"
           id="rect266-8"
           style="font-size:13px;font-family:'Helvetica Neue';opacity:0.124294;fill:#2867fd;fill-opacity:1;stroke:none;stroke-width:0.613261" />
        <g
           id="g274"
           transform="translate(22.146973,-1.698105)">
          <g
             id="g273">
            <clipPath
               id="clipPath1"
               clip-path="url(#clip23-2)">
              <path
                 d="M 1582,81.5 V 180 h 183 V 81.5 Z"
                 id="path1" />
            </clipPath>
            <g
               clip-path="url(#clip24)"
               id="g272">
              <text
                 stroke="none"
                 x="1584.5"
                 y="95.5"
                 id="text267"
                 style="font-style:normal;font-variant:normal;font-weight:normal;font-stretch:normal;font-size:13.3333px;font-family:'Century Gothic';-inkscape-font-specification:'Century Gothic, Normal';font-variant-ligatures:normal;font-variant-caps:normal;font-variant-numeric:normal;font-variant-east-asian:normal">Mean</text>
              <text
                 stroke="none"
                 x="1584.5"
                 y="111.5"
                 id="text268"
                 style="font-style:normal;font-variant:normal;font-weight:normal;font-stretch:normal;font-size:13.3333px;font-family:'Century Gothic';-inkscape-font-specification:'Century Gothic, Normal';font-variant-ligatures:normal;font-variant-caps:normal;font-variant-numeric:normal;font-variant-east-asian:normal">Std Dev</text>
              <text
                 stroke="none"
                 x="1584.5"
                 y="127.5"
                 id="text269"
                 style="font-style:normal;font-variant:normal;font-weight:normal;font-stretch:normal;font-size:13.3333px;font-family:'Century Gothic';-inkscape-font-specification:'Century Gothic, Normal';font-variant-ligatures:normal;font-variant-caps:normal;font-variant-numeric:normal;font-variant-east-asian:normal">Std Err Mean</text>
              <text
                 stroke="none"
                 x="1584.5"
                 y="143.5"
                 id="text270"
                 style="font-style:normal;font-variant:normal;font-weight:normal;font-stretch:normal;font-size:13.3333px;font-family:'Century Gothic';-inkscape-font-specification:'Century Gothic, Normal';font-variant-ligatures:normal;font-variant-caps:normal;font-variant-numeric:normal;font-variant-east-asian:normal">Upper 95% Mean</text>
              <text
                 stroke="none"
                 x="1584.5"
                 y="159.5"
                 id="text271"
                 style="font-style:normal;font-variant:normal;font-weight:normal;font-stretch:normal;font-size:13.3333px;font-family:'Century Gothic';-inkscape-font-specification:'Century Gothic, Normal';font-variant-ligatures:normal;font-variant-caps:normal;font-variant-numeric:normal;font-variant-east-asian:normal">Lower 95% Mean</text>
              <text
                 stroke="none"
                 x="1584.5"
                 y="175.5"
                 id="text272"
                 style="font-style:normal;font-variant:normal;font-weight:normal;font-stretch:normal;font-size:13.3333px;font-family:'Century Gothic';-inkscape-font-specification:'Century Gothic, Normal';font-variant-ligatures:normal;font-variant-caps:normal;font-variant-numeric:normal;font-variant-east-asian:normal">N</text>
            </g>
          </g>
        </g>
        <g
           id="g281"
           transform="translate(1.67684,-1.698105)">
          <g
             id="g280">
            <clipPath
               id="clipPath2"
               clip-path="url(#clip23-2)">
              <path
                 d="M 1582,81.5 V 180 h 183 V 81.5 Z"
                 id="path2" />
            </clipPath>
            <g
               clip-path="url(#clip25)"
               id="g279">
              <text
                 stroke="none"
                 x="1760.5"
                 y="95.5"
                 text-anchor="end"
                 id="text274"
                 style="font-style:normal;font-variant:normal;font-weight:normal;font-stretch:normal;font-size:13.3333px;font-family:'Century Gothic';-inkscape-font-specification:'Century Gothic, Normal';font-variant-ligatures:normal;font-variant-caps:normal;font-variant-numeric:normal;font-variant-east-asian:normal">11.34</text>
              <text
                 stroke="none"
                 x="1760.5"
                 y="111.5"
                 text-anchor="end"
                 id="text275"
                 style="font-style:normal;font-variant:normal;font-weight:normal;font-stretch:normal;font-size:13.3333px;font-family:'Century Gothic';-inkscape-font-specification:'Century Gothic, Normal';font-variant-ligatures:normal;font-variant-caps:normal;font-variant-numeric:normal;font-variant-east-asian:normal">1.08</text>
              <text
                 stroke="none"
                 x="1760.5"
                 y="127.5"
                 text-anchor="end"
                 id="text276"
                 style="font-style:normal;font-variant:normal;font-weight:normal;font-stretch:normal;font-size:13.3333px;font-family:'Century Gothic';-inkscape-font-specification:'Century Gothic, Normal';font-variant-ligatures:normal;font-variant-caps:normal;font-variant-numeric:normal;font-variant-east-asian:normal">0.04</text>
              <text
                 stroke="none"
                 x="1760.5"
                 y="143.5"
                 text-anchor="end"
                 id="text277"
                 style="font-style:normal;font-variant:normal;font-weight:normal;font-stretch:normal;font-size:13.3333px;font-family:'Century Gothic';-inkscape-font-specification:'Century Gothic, Normal';font-variant-ligatures:normal;font-variant-caps:normal;font-variant-numeric:normal;font-variant-east-asian:normal">11.42</text>
              <text
                 stroke="none"
                 x="1760.5"
                 y="159.5"
                 text-anchor="end"
                 id="text278"
                 style="font-style:normal;font-variant:normal;font-weight:normal;font-stretch:normal;font-size:13.3333px;font-family:'Century Gothic';-inkscape-font-specification:'Century Gothic, Normal';font-variant-ligatures:normal;font-variant-caps:normal;font-variant-numeric:normal;font-variant-east-asian:normal">11.26</text>
              <text
                 stroke="none"
                 x="1760.5"
                 y="175.5"
                 text-anchor="end"
                 id="text279"
                 style="font-style:normal;font-variant:normal;font-weight:normal;font-stretch:normal;font-size:13.3333px;font-family:'Century Gothic';-inkscape-font-specification:'Century Gothic, Normal';font-variant-ligatures:normal;font-variant-caps:normal;font-variant-numeric:normal;font-variant-east-asian:normal">654</text>
            </g>
          </g>
        </g>
      </g>
    </g>
    <text
       xml:space="preserve"
       style="font-size:26.6667px;font-family:'Century Gothic';-inkscape-font-specification:'Century Gothic, Normal';text-align:center;text-anchor:middle;fill:#2867fd;fill-opacity:1;stroke:#000000;stroke-width:0"
       x="407.50995"
       y="150.28065"
       id="text352"><tspan
         sodipodi:role="line"
         id="tspan352"
         x="407.50995"
         y="150.28065"
         style="font-size:26.6667px;text-align:start;text-anchor:start;fill:#2867fd;fill-opacity:1">Gamma Distribution</tspan><tspan
         sodipodi:role="line"
         x="407.50995"
         y="183.61403"
         id="tspan354"
         style="font-size:24px;text-align:start;text-anchor:start;fill:#2867fd;fill-opacity:1">α = 109.96, σ = 0.10</tspan><tspan
         sodipodi:role="line"
         x="407.50995"
         y="216.9474"
         id="tspan353"
         style="font-size:26.6667px;text-align:start;text-anchor:start;fill:#2867fd;fill-opacity:1" /></text>
  </g>
</svg>
