<?xml version="1.0" encoding="utf-8" standalone="no"?>
<!DOCTYPE svg PUBLIC "-//W3C//DTD SVG 1.1//EN"
  "http://www.w3.org/Graphics/SVG/1.1/DTD/svg11.dtd">
<svg xmlns:xlink="http://www.w3.org/1999/xlink" width="432pt" height="432pt" viewBox="0 0 432 432" xmlns="http://www.w3.org/2000/svg" version="1.1">
 <metadata>
  <rdf:RDF xmlns:dc="http://purl.org/dc/elements/1.1/" xmlns:cc="http://creativecommons.org/ns#" xmlns:rdf="http://www.w3.org/1999/02/22-rdf-syntax-ns#">
   <cc:Work>
    <dc:type rdf:resource="http://purl.org/dc/dcmitype/StillImage"/>
    <dc:date>2024-10-04T16:05:31.024457</dc:date>
    <dc:format>image/svg+xml</dc:format>
    <dc:creator>
     <cc:Agent>
      <dc:title>Matplotlib v3.7.2, https://matplotlib.org/</dc:title>
     </cc:Agent>
    </dc:creator>
   </cc:Work>
  </rdf:RDF>
 </metadata>
 <defs>
  <style type="text/css">*{stroke-linejoin: round; stroke-linecap: butt}</style>
 </defs>
 <g id="figure_1">
  <g id="patch_1">
   <path d="M 0 432 
L 432 432 
L 432 0 
L 0 0 
L 0 432 
z
" style="fill: none"/>
  </g>
  <g id="axes_1">
   <g id="patch_2">
    <path d="M 66.44 367.36 
L 406.53 367.36 
L 406.53 27 
L 66.44 27 
L 66.44 367.36 
z
" style="fill: none"/>
   </g>
   <g id="matplotlib.axis_1">
    <g id="xtick_1">
     <g id="line2d_1">
      <defs>
       <path id="md63813a9a8" d="M 0 0 
L 0 3.5 
" style="stroke: #000000; stroke-width: 0.8"/>
      </defs>
      <g>
       <use xlink:href="#md63813a9a8" x="66.44" y="367.36" style="stroke: #000000; stroke-width: 0.8"/>
      </g>
     </g>
     <g id="text_1">
      <!-- 1 -->
      <g transform="translate(62.560469 384.669688) scale(0.14 -0.14)">
       <defs>
        <path id="CenturyGothic-31" d="M 1184 4597 
L 2088 4597 
L 2088 0 
L 1631 0 
L 1631 4147 
L 909 4147 
L 1184 4597 
z
" transform="scale(0.015625)"/>
       </defs>
       <use xlink:href="#CenturyGothic-31"/>
      </g>
     </g>
    </g>
    <g id="xtick_2">
     <g id="line2d_2">
      <g>
       <use xlink:href="#md63813a9a8" x="198.004771" y="367.36" style="stroke: #000000; stroke-width: 0.8"/>
      </g>
     </g>
     <g id="text_2">
      <!-- 2 -->
      <g transform="translate(194.12524 384.669688) scale(0.14 -0.14)">
       <defs>
        <path id="CenturyGothic-32" d="M 741 3156 
L 300 3156 
Q 319 3838 755 4275 
Q 1191 4713 1831 4713 
Q 2466 4713 2858 4303 
Q 3250 3894 3250 3338 
Q 3250 2947 3062 2605 
Q 2875 2263 2334 1678 
L 1191 444 
L 3313 444 
L 3313 0 
L 191 0 
L 1947 1897 
Q 2481 2469 2642 2745 
Q 2803 3022 2803 3328 
Q 2803 3716 2514 3995 
Q 2225 4275 1806 4275 
Q 1366 4275 1073 3981 
Q 781 3688 741 3156 
z
" transform="scale(0.015625)"/>
       </defs>
       <use xlink:href="#CenturyGothic-32"/>
      </g>
     </g>
    </g>
    <g id="xtick_3">
     <g id="line2d_3">
      <g>
       <use xlink:href="#md63813a9a8" x="274.965229" y="367.36" style="stroke: #000000; stroke-width: 0.8"/>
      </g>
     </g>
     <g id="text_3">
      <!-- 3 -->
      <g transform="translate(271.085698 384.669688) scale(0.14 -0.14)">
       <defs>
        <path id="CenturyGothic-33" d="M 847 3531 
L 378 3531 
Q 506 4100 868 4406 
Q 1231 4713 1725 4713 
Q 2084 4713 2395 4548 
Q 2706 4384 2876 4106 
Q 3047 3828 3047 3525 
Q 3047 2931 2456 2584 
Q 2788 2450 3000 2191 
Q 3300 1825 3300 1372 
Q 3300 981 3094 626 
Q 2888 272 2531 78 
Q 2175 -116 1734 -116 
Q 1141 -116 744 226 
Q 347 569 225 1231 
L 675 1231 
Q 794 784 1016 584 
Q 1300 331 1741 331 
Q 2241 331 2544 631 
Q 2847 931 2847 1334 
Q 2847 1603 2695 1837 
Q 2544 2072 2289 2190 
Q 2034 2309 1500 2338 
L 1500 2759 
Q 1816 2759 2075 2870 
Q 2334 2981 2451 3153 
Q 2569 3325 2569 3528 
Q 2569 3828 2330 4047 
Q 2091 4266 1725 4266 
Q 1428 4266 1212 4098 
Q 997 3931 847 3531 
z
" transform="scale(0.015625)"/>
       </defs>
       <use xlink:href="#CenturyGothic-33"/>
      </g>
     </g>
    </g>
    <g id="xtick_4">
     <g id="line2d_4">
      <g>
       <use xlink:href="#md63813a9a8" x="329.569542" y="367.36" style="stroke: #000000; stroke-width: 0.8"/>
      </g>
     </g>
     <g id="text_4">
      <!-- 4 -->
      <g transform="translate(325.690011 384.669688) scale(0.14 -0.14)">
       <defs>
        <path id="CenturyGothic-34" d="M 2725 4713 
L 2819 4713 
L 2819 1509 
L 3375 1509 
L 3375 1069 
L 2819 1069 
L 2819 0 
L 2359 0 
L 2359 1069 
L 163 1069 
L 2725 4713 
z
M 2359 1509 
L 2359 3425 
L 1006 1509 
L 2359 1509 
z
" transform="scale(0.015625)"/>
       </defs>
       <use xlink:href="#CenturyGothic-34"/>
      </g>
     </g>
    </g>
    <g id="xtick_5">
     <g id="line2d_5">
      <g>
       <use xlink:href="#md63813a9a8" x="371.923939" y="367.36" style="stroke: #000000; stroke-width: 0.8"/>
      </g>
     </g>
     <g id="text_5">
      <!-- 5 -->
      <g transform="translate(368.044407 384.669688) scale(0.14 -0.14)">
       <defs>
        <path id="CenturyGothic-35" d="M 3147 4597 
L 3147 4159 
L 1509 4159 
L 1281 2906 
Q 1581 2994 1822 2994 
Q 2450 2994 2858 2573 
Q 3266 2153 3266 1497 
Q 3266 1044 3056 666 
Q 2847 288 2489 86 
Q 2131 -116 1663 -116 
Q 1103 -116 718 226 
Q 334 569 259 1113 
L 731 1113 
Q 784 847 911 681 
Q 1038 516 1248 414 
Q 1459 313 1691 313 
Q 2144 313 2469 656 
Q 2794 1000 2794 1516 
Q 2794 1981 2500 2272 
Q 2206 2563 1716 2563 
Q 1309 2563 731 2316 
L 1156 4597 
L 3147 4597 
z
" transform="scale(0.015625)"/>
       </defs>
       <use xlink:href="#CenturyGothic-35"/>
      </g>
     </g>
    </g>
    <g id="xtick_6">
     <g id="line2d_6">
      <g>
       <use xlink:href="#md63813a9a8" x="406.53" y="367.36" style="stroke: #000000; stroke-width: 0.8"/>
      </g>
     </g>
     <g id="text_6">
      <!-- 6 -->
      <g transform="translate(402.650469 384.669688) scale(0.14 -0.14)">
       <defs>
        <path id="CenturyGothic-36" d="M 2347 4713 
L 2725 4466 
L 1484 2584 
Q 1734 2669 1953 2669 
Q 2500 2669 2881 2273 
Q 3263 1878 3263 1300 
Q 3263 903 3078 583 
Q 2894 263 2555 73 
Q 2216 -116 1825 -116 
Q 1447 -116 1123 67 
Q 800 250 615 581 
Q 431 913 431 1291 
Q 431 1572 545 1883 
Q 659 2194 953 2631 
L 2347 4713 
z
M 1844 2266 
Q 1444 2266 1161 1983 
Q 878 1700 878 1297 
Q 878 897 1161 614 
Q 1444 331 1844 331 
Q 2244 331 2526 614 
Q 2809 897 2809 1297 
Q 2809 1700 2526 1983 
Q 2244 2266 1844 2266 
z
" transform="scale(0.015625)"/>
       </defs>
       <use xlink:href="#CenturyGothic-36"/>
      </g>
     </g>
    </g>
    <g id="text_7">
     <!-- Transport Current [A] -->
     <g transform="translate(136.474062 406.119062) scale(0.2 -0.2)">
      <defs>
       <path id="CenturyGothic-54" d="M 103 4150 
L 103 4597 
L 2625 4597 
L 2625 4150 
L 1600 4150 
L 1600 0 
L 1131 0 
L 1131 4150 
L 103 4150 
z
" transform="scale(0.015625)"/>
       <path id="CenturyGothic-72" d="M 322 3400 
L 769 3400 
L 769 2903 
Q 969 3197 1191 3342 
Q 1413 3488 1653 3488 
Q 1834 3488 2041 3372 
L 1813 3003 
Q 1675 3063 1581 3063 
Q 1363 3063 1159 2883 
Q 956 2703 850 2325 
Q 769 2034 769 1150 
L 769 0 
L 322 0 
L 322 3400 
z
" transform="scale(0.015625)"/>
       <path id="CenturyGothic-61" d="M 3875 3400 
L 3875 0 
L 3444 0 
L 3444 584 
Q 3169 250 2826 81 
Q 2484 -88 2078 -88 
Q 1356 -88 845 435 
Q 334 959 334 1709 
Q 334 2444 850 2966 
Q 1366 3488 2091 3488 
Q 2509 3488 2848 3309 
Q 3188 3131 3444 2775 
L 3444 3400 
L 3875 3400 
z
M 2125 3066 
Q 1759 3066 1450 2886 
Q 1141 2706 958 2381 
Q 775 2056 775 1694 
Q 775 1334 959 1006 
Q 1144 678 1455 495 
Q 1766 313 2122 313 
Q 2481 313 2803 494 
Q 3125 675 3298 984 
Q 3472 1294 3472 1681 
Q 3472 2272 3083 2669 
Q 2694 3066 2125 3066 
z
" transform="scale(0.015625)"/>
       <path id="CenturyGothic-6e" d="M 488 3400 
L 925 3400 
L 925 2791 
Q 1188 3141 1506 3314 
Q 1825 3488 2200 3488 
Q 2581 3488 2876 3294 
Q 3172 3100 3312 2772 
Q 3453 2444 3453 1750 
L 3453 0 
L 3019 0 
L 3019 1622 
Q 3019 2209 2969 2406 
Q 2891 2744 2675 2914 
Q 2459 3084 2113 3084 
Q 1716 3084 1402 2821 
Q 1088 2559 988 2172 
Q 925 1919 925 1247 
L 925 0 
L 488 0 
L 488 3400 
z
" transform="scale(0.015625)"/>
       <path id="CenturyGothic-73" d="M 2197 3028 
L 1916 2738 
Q 1566 3078 1231 3078 
Q 1019 3078 867 2937 
Q 716 2797 716 2609 
Q 716 2444 841 2294 
Q 966 2141 1366 1934 
Q 1853 1681 2028 1447 
Q 2200 1209 2200 913 
Q 2200 494 1906 203 
Q 1613 -88 1172 -88 
Q 878 -88 611 40 
Q 344 169 169 394 
L 444 706 
Q 778 328 1153 328 
Q 1416 328 1600 497 
Q 1784 666 1784 894 
Q 1784 1081 1663 1228 
Q 1541 1372 1113 1591 
Q 653 1828 488 2059 
Q 322 2291 322 2588 
Q 322 2975 586 3231 
Q 850 3488 1253 3488 
Q 1722 3488 2197 3028 
z
" transform="scale(0.015625)"/>
       <path id="CenturyGothic-70" d="M 494 3400 
L 928 3400 
L 928 2775 
Q 1188 3131 1525 3309 
Q 1863 3488 2278 3488 
Q 3003 3488 3518 2966 
Q 4034 2444 4034 1709 
Q 4034 959 3523 435 
Q 3013 -88 2291 -88 
Q 1884 -88 1543 81 
Q 1203 250 928 584 
L 928 -1244 
L 494 -1244 
L 494 3400 
z
M 2244 3066 
Q 1675 3066 1286 2669 
Q 897 2272 897 1681 
Q 897 1294 1070 984 
Q 1244 675 1567 494 
Q 1891 313 2250 313 
Q 2603 313 2914 495 
Q 3225 678 3409 1006 
Q 3594 1334 3594 1694 
Q 3594 2056 3411 2381 
Q 3228 2706 2918 2886 
Q 2609 3066 2244 3066 
z
" transform="scale(0.015625)"/>
       <path id="CenturyGothic-6f" d="M 2097 3488 
Q 2881 3488 3397 2919 
Q 3866 2400 3866 1691 
Q 3866 978 3370 445 
Q 2875 -88 2097 -88 
Q 1316 -88 820 445 
Q 325 978 325 1691 
Q 325 2397 794 2916 
Q 1309 3488 2097 3488 
z
M 2097 3059 
Q 1553 3059 1162 2656 
Q 772 2253 772 1681 
Q 772 1313 950 994 
Q 1128 675 1431 501 
Q 1734 328 2097 328 
Q 2459 328 2762 501 
Q 3066 675 3244 994 
Q 3422 1313 3422 1681 
Q 3422 2253 3030 2656 
Q 2638 3059 2097 3059 
z
" transform="scale(0.015625)"/>
       <path id="CenturyGothic-74" d="M 869 4663 
L 1309 4663 
L 1309 3400 
L 2003 3400 
L 2003 3025 
L 1309 3025 
L 1309 0 
L 869 0 
L 869 3025 
L 272 3025 
L 272 3400 
L 869 3400 
L 869 4663 
z
" transform="scale(0.015625)"/>
       <path id="CenturyGothic-20" transform="scale(0.015625)"/>
       <path id="CenturyGothic-43" d="M 4841 3744 
L 4478 3466 
Q 4178 3856 3758 4057 
Q 3338 4259 2834 4259 
Q 2284 4259 1815 3995 
Q 1347 3731 1089 3286 
Q 831 2841 831 2284 
Q 831 1444 1407 881 
Q 1984 319 2863 319 
Q 3828 319 4478 1075 
L 4841 800 
Q 4497 363 3983 123 
Q 3469 -116 2834 -116 
Q 1628 -116 931 688 
Q 347 1366 347 2325 
Q 347 3334 1055 4023 
Q 1763 4713 2828 4713 
Q 3472 4713 3990 4458 
Q 4509 4203 4841 3744 
z
" transform="scale(0.015625)"/>
       <path id="CenturyGothic-75" d="M 431 3400 
L 872 3400 
L 872 1813 
Q 872 1231 934 1013 
Q 1028 700 1292 519 
Q 1556 338 1922 338 
Q 2288 338 2542 514 
Q 2797 691 2894 978 
Q 2959 1175 2959 1813 
L 2959 3400 
L 3406 3400 
L 3406 1731 
Q 3406 1028 3242 672 
Q 3078 316 2748 114 
Q 2419 -88 1922 -88 
Q 1425 -88 1092 114 
Q 759 316 595 677 
Q 431 1038 431 1763 
L 431 3400 
z
" transform="scale(0.015625)"/>
       <path id="CenturyGothic-65" d="M 3350 1128 
L 3719 934 
Q 3538 578 3300 359 
Q 3063 141 2766 26 
Q 2469 -88 2094 -88 
Q 1263 -88 794 457 
Q 325 1003 325 1691 
Q 325 2338 722 2844 
Q 1225 3488 2069 3488 
Q 2938 3488 3456 2828 
Q 3825 2363 3831 1666 
L 775 1666 
Q 788 1072 1153 692 
Q 1519 313 2056 313 
Q 2316 313 2561 403 
Q 2806 494 2978 644 
Q 3150 794 3350 1128 
z
M 3350 2044 
Q 3263 2394 3095 2603 
Q 2928 2813 2653 2941 
Q 2378 3069 2075 3069 
Q 1575 3069 1216 2747 
Q 953 2513 819 2044 
L 3350 2044 
z
" transform="scale(0.015625)"/>
       <path id="CenturyGothic-5b" d="M 906 4713 
L 1956 4713 
L 1956 4269 
L 1344 4269 
L 1344 -816 
L 1956 -816 
L 1956 -1244 
L 906 -1244 
L 906 4713 
z
" transform="scale(0.015625)"/>
       <path id="CenturyGothic-41" d="M 2438 4597 
L 4581 0 
L 4088 0 
L 3366 1513 
L 1384 1513 
L 666 0 
L 153 0 
L 2325 4597 
L 2438 4597 
z
M 2381 3622 
L 1591 1956 
L 3163 1956 
L 2381 3622 
z
" transform="scale(0.015625)"/>
       <path id="CenturyGothic-5d" d="M 1341 -1244 
L 291 -1244 
L 291 -800 
L 900 -800 
L 900 4284 
L 291 4284 
L 291 4713 
L 1341 4713 
L 1341 -1244 
z
" transform="scale(0.015625)"/>
      </defs>
      <use xlink:href="#CenturyGothic-54"/>
      <use xlink:href="#CenturyGothic-72" x="42.578125"/>
      <use xlink:href="#CenturyGothic-61" x="72.65625"/>
      <use xlink:href="#CenturyGothic-6e" x="140.966797"/>
      <use xlink:href="#CenturyGothic-73" x="201.953125"/>
      <use xlink:href="#CenturyGothic-70" x="240.771484"/>
      <use xlink:href="#CenturyGothic-6f" x="308.984375"/>
      <use xlink:href="#CenturyGothic-72" x="374.462891"/>
      <use xlink:href="#CenturyGothic-74" x="404.541016"/>
      <use xlink:href="#CenturyGothic-20" x="438.427734"/>
      <use xlink:href="#CenturyGothic-43" x="466.113281"/>
      <use xlink:href="#CenturyGothic-75" x="547.412109"/>
      <use xlink:href="#CenturyGothic-72" x="608.203125"/>
      <use xlink:href="#CenturyGothic-72" x="638.28125"/>
      <use xlink:href="#CenturyGothic-65" x="668.359375"/>
      <use xlink:href="#CenturyGothic-6e" x="733.349609"/>
      <use xlink:href="#CenturyGothic-74" x="794.335938"/>
      <use xlink:href="#CenturyGothic-20" x="828.222656"/>
      <use xlink:href="#CenturyGothic-5b" x="855.908203"/>
      <use xlink:href="#CenturyGothic-41" x="891.015625"/>
      <use xlink:href="#CenturyGothic-5d" x="964.990234"/>
     </g>
    </g>
   </g>
   <g id="matplotlib.axis_2">
    <g id="ytick_1">
     <g id="line2d_7">
      <defs>
       <path id="m2e716a7ac8" d="M 0 0 
L -3.5 0 
" style="stroke: #000000; stroke-width: 0.8"/>
      </defs>
      <g>
       <use xlink:href="#m2e716a7ac8" x="66.44" y="367.36" style="stroke: #000000; stroke-width: 0.8"/>
      </g>
     </g>
     <g id="text_8">
      <!-- 18 -->
      <g transform="translate(43.921875 372.514844) scale(0.14 -0.14)">
       <defs>
        <path id="CenturyGothic-38" d="M 2459 2522 
Q 2925 2291 3126 1994 
Q 3328 1697 3328 1319 
Q 3328 788 2981 381 
Q 2556 -116 1766 -116 
Q 1003 -116 609 320 
Q 216 756 216 1281 
Q 216 1666 422 1973 
Q 628 2281 1109 2522 
Q 772 2697 603 2956 
Q 434 3216 434 3513 
Q 434 3813 614 4098 
Q 794 4384 1111 4548 
Q 1428 4713 1797 4713 
Q 2156 4713 2462 4547 
Q 2769 4381 2942 4097 
Q 3116 3813 3116 3500 
Q 3116 3188 2952 2944 
Q 2788 2700 2459 2522 
z
M 1775 4266 
Q 1397 4266 1148 4042 
Q 900 3819 900 3509 
Q 900 3203 1167 2954 
Q 1434 2706 1791 2706 
Q 2019 2706 2222 2818 
Q 2425 2931 2539 3126 
Q 2653 3322 2653 3519 
Q 2653 3797 2428 4031 
Q 2203 4266 1775 4266 
z
M 1797 2291 
Q 1322 2291 1000 1983 
Q 678 1675 678 1266 
Q 678 1013 815 788 
Q 953 563 1200 441 
Q 1447 319 1772 319 
Q 2275 319 2572 616 
Q 2869 913 2869 1309 
Q 2869 1694 2555 1992 
Q 2241 2291 1797 2291 
z
" transform="scale(0.015625)"/>
       </defs>
       <use xlink:href="#CenturyGothic-31"/>
       <use xlink:href="#CenturyGothic-38" x="55.419922"/>
      </g>
     </g>
    </g>
    <g id="ytick_2">
     <g id="line2d_8">
      <g>
       <use xlink:href="#m2e716a7ac8" x="66.44" y="324.815" style="stroke: #000000; stroke-width: 0.8"/>
      </g>
     </g>
     <g id="text_9">
      <!-- 20 -->
      <g transform="translate(43.921875 329.969844) scale(0.14 -0.14)">
       <defs>
        <path id="CenturyGothic-30" d="M 203 2297 
Q 203 3206 398 3703 
Q 594 4200 950 4456 
Q 1306 4713 1747 4713 
Q 2194 4713 2556 4455 
Q 2919 4197 3130 3681 
Q 3341 3166 3341 2297 
Q 3341 1431 3133 918 
Q 2925 406 2559 145 
Q 2194 -116 1747 -116 
Q 1306 -116 953 137 
Q 600 391 401 892 
Q 203 1394 203 2297 
z
M 638 2288 
Q 638 1509 777 1111 
Q 916 713 1187 506 
Q 1459 300 1763 300 
Q 2069 300 2334 501 
Q 2600 703 2738 1106 
Q 2909 1597 2909 2288 
Q 2909 2981 2756 3423 
Q 2603 3866 2333 4070 
Q 2063 4275 1763 4275 
Q 1456 4275 1187 4070 
Q 919 3866 778 3467 
Q 638 3069 638 2288 
z
" transform="scale(0.015625)"/>
       </defs>
       <use xlink:href="#CenturyGothic-32"/>
       <use xlink:href="#CenturyGothic-30" x="55.419922"/>
      </g>
     </g>
    </g>
    <g id="ytick_3">
     <g id="line2d_9">
      <g>
       <use xlink:href="#m2e716a7ac8" x="66.44" y="282.27" style="stroke: #000000; stroke-width: 0.8"/>
      </g>
     </g>
     <g id="text_10">
      <!-- 22 -->
      <g transform="translate(43.921875 287.424844) scale(0.14 -0.14)">
       <use xlink:href="#CenturyGothic-32"/>
       <use xlink:href="#CenturyGothic-32" x="55.419922"/>
      </g>
     </g>
    </g>
    <g id="ytick_4">
     <g id="line2d_10">
      <g>
       <use xlink:href="#m2e716a7ac8" x="66.44" y="239.725" style="stroke: #000000; stroke-width: 0.8"/>
      </g>
     </g>
     <g id="text_11">
      <!-- 24 -->
      <g transform="translate(43.921875 244.879844) scale(0.14 -0.14)">
       <use xlink:href="#CenturyGothic-32"/>
       <use xlink:href="#CenturyGothic-34" x="55.419922"/>
      </g>
     </g>
    </g>
    <g id="ytick_5">
     <g id="line2d_11">
      <g>
       <use xlink:href="#m2e716a7ac8" x="66.44" y="197.18" style="stroke: #000000; stroke-width: 0.8"/>
      </g>
     </g>
     <g id="text_12">
      <!-- 26 -->
      <g transform="translate(43.921875 202.334844) scale(0.14 -0.14)">
       <use xlink:href="#CenturyGothic-32"/>
       <use xlink:href="#CenturyGothic-36" x="55.419922"/>
      </g>
     </g>
    </g>
    <g id="ytick_6">
     <g id="line2d_12">
      <g>
       <use xlink:href="#m2e716a7ac8" x="66.44" y="154.635" style="stroke: #000000; stroke-width: 0.8"/>
      </g>
     </g>
     <g id="text_13">
      <!-- 28 -->
      <g transform="translate(43.921875 159.789844) scale(0.14 -0.14)">
       <use xlink:href="#CenturyGothic-32"/>
       <use xlink:href="#CenturyGothic-38" x="55.419922"/>
      </g>
     </g>
    </g>
    <g id="ytick_7">
     <g id="line2d_13">
      <g>
       <use xlink:href="#m2e716a7ac8" x="66.44" y="112.09" style="stroke: #000000; stroke-width: 0.8"/>
      </g>
     </g>
     <g id="text_14">
      <!-- 30 -->
      <g transform="translate(43.921875 117.244844) scale(0.14 -0.14)">
       <use xlink:href="#CenturyGothic-33"/>
       <use xlink:href="#CenturyGothic-30" x="55.419922"/>
      </g>
     </g>
    </g>
    <g id="ytick_8">
     <g id="line2d_14">
      <g>
       <use xlink:href="#m2e716a7ac8" x="66.44" y="69.545" style="stroke: #000000; stroke-width: 0.8"/>
      </g>
     </g>
     <g id="text_15">
      <!-- 32 -->
      <g transform="translate(43.921875 74.699844) scale(0.14 -0.14)">
       <use xlink:href="#CenturyGothic-33"/>
       <use xlink:href="#CenturyGothic-32" x="55.419922"/>
      </g>
     </g>
    </g>
    <g id="ytick_9">
     <g id="line2d_15">
      <g>
       <use xlink:href="#m2e716a7ac8" x="66.44" y="27" style="stroke: #000000; stroke-width: 0.8"/>
      </g>
     </g>
     <g id="text_16">
      <!-- 34 -->
      <g transform="translate(43.921875 32.154844) scale(0.14 -0.14)">
       <use xlink:href="#CenturyGothic-33"/>
       <use xlink:href="#CenturyGothic-34" x="55.419922"/>
      </g>
     </g>
    </g>
    <g id="text_17">
     <!-- Sensor temperature [K] -->
     <g transform="translate(36.034375 308.064375) rotate(-90) scale(0.2 -0.2)">
      <defs>
       <path id="CenturyGothic-53" d="M 84 856 
L 475 1091 
Q 888 331 1428 331 
Q 1659 331 1862 439 
Q 2066 547 2172 728 
Q 2278 909 2278 1113 
Q 2278 1344 2122 1566 
Q 1906 1872 1334 2303 
Q 759 2738 619 2931 
Q 375 3256 375 3634 
Q 375 3934 519 4181 
Q 663 4428 923 4570 
Q 1184 4713 1491 4713 
Q 1816 4713 2098 4552 
Q 2381 4391 2697 3959 
L 2322 3675 
Q 2063 4019 1880 4128 
Q 1697 4238 1481 4238 
Q 1203 4238 1026 4069 
Q 850 3900 850 3653 
Q 850 3503 912 3362 
Q 975 3222 1141 3056 
Q 1231 2969 1734 2597 
Q 2331 2156 2553 1812 
Q 2775 1469 2775 1122 
Q 2775 622 2395 253 
Q 2016 -116 1472 -116 
Q 1053 -116 712 107 
Q 372 331 84 856 
z
" transform="scale(0.015625)"/>
       <path id="CenturyGothic-6d" d="M 484 3400 
L 919 3400 
L 919 2813 
Q 1147 3138 1388 3288 
Q 1719 3488 2084 3488 
Q 2331 3488 2553 3391 
Q 2775 3294 2915 3133 
Q 3056 2972 3159 2672 
Q 3378 3072 3706 3280 
Q 4034 3488 4413 3488 
Q 4766 3488 5036 3309 
Q 5306 3131 5437 2812 
Q 5569 2494 5569 1856 
L 5569 0 
L 5122 0 
L 5122 1856 
Q 5122 2403 5044 2608 
Q 4966 2813 4777 2938 
Q 4588 3063 4325 3063 
Q 4006 3063 3742 2875 
Q 3478 2688 3356 2375 
Q 3234 2063 3234 1331 
L 3234 0 
L 2800 0 
L 2800 1741 
Q 2800 2356 2723 2576 
Q 2647 2797 2456 2930 
Q 2266 3063 2003 3063 
Q 1700 3063 1436 2880 
Q 1172 2697 1045 2387 
Q 919 2078 919 1441 
L 919 0 
L 484 0 
L 484 3400 
z
" transform="scale(0.015625)"/>
       <path id="CenturyGothic-4b" d="M 559 4597 
L 1028 4597 
L 1028 2872 
L 2863 4597 
L 3484 4597 
L 1275 2534 
L 3656 0 
L 3047 0 
L 1028 2144 
L 1028 0 
L 559 0 
L 559 4597 
z
" transform="scale(0.015625)"/>
      </defs>
      <use xlink:href="#CenturyGothic-53"/>
      <use xlink:href="#CenturyGothic-65" x="49.804688"/>
      <use xlink:href="#CenturyGothic-6e" x="114.794922"/>
      <use xlink:href="#CenturyGothic-73" x="175.78125"/>
      <use xlink:href="#CenturyGothic-6f" x="214.599609"/>
      <use xlink:href="#CenturyGothic-72" x="280.078125"/>
      <use xlink:href="#CenturyGothic-20" x="310.15625"/>
      <use xlink:href="#CenturyGothic-74" x="337.841797"/>
      <use xlink:href="#CenturyGothic-65" x="371.728516"/>
      <use xlink:href="#CenturyGothic-6d" x="436.71875"/>
      <use xlink:href="#CenturyGothic-70" x="530.517578"/>
      <use xlink:href="#CenturyGothic-65" x="598.730469"/>
      <use xlink:href="#CenturyGothic-72" x="663.720703"/>
      <use xlink:href="#CenturyGothic-61" x="693.798828"/>
      <use xlink:href="#CenturyGothic-74" x="762.109375"/>
      <use xlink:href="#CenturyGothic-75" x="795.996094"/>
      <use xlink:href="#CenturyGothic-72" x="856.787109"/>
      <use xlink:href="#CenturyGothic-65" x="886.865234"/>
      <use xlink:href="#CenturyGothic-20" x="951.855469"/>
      <use xlink:href="#CenturyGothic-5b" x="979.541016"/>
      <use xlink:href="#CenturyGothic-4b" x="1014.648438"/>
      <use xlink:href="#CenturyGothic-5d" x="1073.730469"/>
     </g>
    </g>
   </g>
   <g id="line2d_16">
    <defs>
     <path id="m3185e5f62d" d="M 0 4 
C 1.060812 4 2.078319 3.578535 2.828427 2.828427 
C 3.578535 2.078319 4 1.060812 4 0 
C 4 -1.060812 3.578535 -2.078319 2.828427 -2.828427 
C 2.078319 -3.578535 1.060812 -4 0 -4 
C -1.060812 -4 -2.078319 -3.578535 -2.828427 -2.828427 
C -3.578535 -2.078319 -4 -1.060812 -4 0 
C -4 1.060812 -3.578535 2.078319 -2.828427 2.828427 
C -2.078319 3.578535 -1.060812 4 0 4 
z
" style="stroke: #000000; stroke-opacity: 0.5"/>
    </defs>
    <g clip-path="url(#pd9345ea1a5)">
     <use xlink:href="#m3185e5f62d" x="-1" y="324.924173" style="fill-opacity: 0; stroke: #000000; stroke-opacity: 0.5"/>
     <use xlink:href="#m3185e5f62d" x="1.407388" y="324.929872" style="fill-opacity: 0; stroke: #000000; stroke-opacity: 0.5"/>
     <use xlink:href="#m3185e5f62d" x="44.009491" y="324.929872" style="fill-opacity: 0; stroke: #000000; stroke-opacity: 0.5"/>
     <use xlink:href="#m3185e5f62d" x="78.77964" y="324.7916" style="fill-opacity: 0; stroke: #000000; stroke-opacity: 0.5"/>
     <use xlink:href="#m3185e5f62d" x="108.289444" y="324.7916" style="fill-opacity: 0; stroke: #000000; stroke-opacity: 0.5"/>
     <use xlink:href="#m3185e5f62d" x="133.51628" y="324.738419" style="fill-opacity: 0; stroke: #000000; stroke-opacity: 0.5"/>
     <use xlink:href="#m3185e5f62d" x="156.030085" y="325.516993" style="fill-opacity: 0; stroke: #000000; stroke-opacity: 0.5"/>
     <use xlink:href="#m3185e5f62d" x="176.010459" y="325.516993" style="fill-opacity: 0; stroke: #000000; stroke-opacity: 0.5"/>
     <use xlink:href="#m3185e5f62d" x="194.177789" y="324.493785" style="fill-opacity: 0; stroke: #000000; stroke-opacity: 0.5"/>
     <use xlink:href="#m3185e5f62d" x="210.442565" y="324.493785" style="fill-opacity: 0; stroke: #000000; stroke-opacity: 0.5"/>
     <use xlink:href="#m3185e5f62d" x="225.737351" y="324.549094" style="fill-opacity: 0; stroke: #000000; stroke-opacity: 0.5"/>
     <use xlink:href="#m3185e5f62d" x="240.099408" y="324.906472" style="fill-opacity: 0; stroke: #000000; stroke-opacity: 0.5"/>
     <use xlink:href="#m3185e5f62d" x="253.17846" y="324.906472" style="fill-opacity: 0; stroke: #000000; stroke-opacity: 0.5"/>
     <use xlink:href="#m3185e5f62d" x="265.423929" y="324.906472" style="fill-opacity: 0; stroke: #000000; stroke-opacity: 0.5"/>
     <use xlink:href="#m3185e5f62d" x="277.022627" y="324.906472" style="fill-opacity: 0; stroke: #000000; stroke-opacity: 0.5"/>
     <use xlink:href="#m3185e5f62d" x="287.851004" y="325.214923" style="fill-opacity: 0; stroke: #000000; stroke-opacity: 0.5"/>
     <use xlink:href="#m3185e5f62d" x="298.121601" y="324.77671" style="fill-opacity: 0; stroke: #000000; stroke-opacity: 0.5"/>
     <use xlink:href="#m3185e5f62d" x="307.493052" y="324.77671" style="fill-opacity: 0; stroke: #000000; stroke-opacity: 0.5"/>
     <use xlink:href="#m3185e5f62d" x="317.195273" y="324.300206" style="fill-opacity: 0; stroke: #000000; stroke-opacity: 0.5"/>
     <use xlink:href="#m3185e5f62d" x="326.004807" y="324.300206" style="fill-opacity: 0; stroke: #000000; stroke-opacity: 0.5"/>
     <use xlink:href="#m3185e5f62d" x="334.462709" y="324.917108" style="fill-opacity: 0; stroke: #000000; stroke-opacity: 0.5"/>
     <use xlink:href="#m3185e5f62d" x="342.561254" y="324.689492" style="fill-opacity: 0; stroke: #000000; stroke-opacity: 0.5"/>
     <use xlink:href="#m3185e5f62d" x="350.302063" y="324.689492" style="fill-opacity: 0; stroke: #000000; stroke-opacity: 0.5"/>
     <use xlink:href="#m3185e5f62d" x="357.771706" y="324.62142" style="fill-opacity: 0; stroke: #000000; stroke-opacity: 0.5"/>
     <use xlink:href="#m3185e5f62d" x="364.9842" y="324.62142" style="fill-opacity: 0; stroke: #000000; stroke-opacity: 0.5"/>
     <use xlink:href="#m3185e5f62d" x="371.873253" y="324.640566" style="fill-opacity: 0; stroke: #000000; stroke-opacity: 0.5"/>
     <use xlink:href="#m3185e5f62d" x="378.545785" y="324.166189" style="fill-opacity: 0; stroke: #000000; stroke-opacity: 0.5"/>
     <use xlink:href="#m3185e5f62d" x="384.976101" y="324.166189" style="fill-opacity: 0; stroke: #000000; stroke-opacity: 0.5"/>
     <use xlink:href="#m3185e5f62d" x="391.21445" y="324.561857" style="fill-opacity: 0; stroke: #000000; stroke-opacity: 0.5"/>
    </g>
   </g>
   <g id="line2d_17">
    <defs>
     <path id="me5dbfe0f1b" d="M -4 4 
L 4 4 
L 4 -4 
L -4 -4 
z
" style="stroke: #482475; stroke-linejoin: miter"/>
    </defs>
    <g clip-path="url(#pd9345ea1a5)">
     <use xlink:href="#me5dbfe0f1b" x="-1" y="237.619069" style="fill: #482475; stroke: #482475; stroke-linejoin: miter"/>
     <use xlink:href="#me5dbfe0f1b" x="1.479324" y="237.638168" style="fill: #482475; stroke: #482475; stroke-linejoin: miter"/>
     <use xlink:href="#me5dbfe0f1b" x="44.030724" y="237.776439" style="fill: #482475; stroke: #482475; stroke-linejoin: miter"/>
     <use xlink:href="#me5dbfe0f1b" x="78.645663" y="237.776439" style="fill: #482475; stroke: #482475; stroke-linejoin: miter"/>
     <use xlink:href="#me5dbfe0f1b" x="108.093091" y="236.644742" style="fill: #482475; stroke: #482475; stroke-linejoin: miter"/>
     <use xlink:href="#me5dbfe0f1b" x="133.246017" y="236.644742" style="fill: #482475; stroke: #482475; stroke-linejoin: miter"/>
     <use xlink:href="#me5dbfe0f1b" x="155.925989" y="236.944684" style="fill: #482475; stroke: #482475; stroke-linejoin: miter"/>
     <use xlink:href="#me5dbfe0f1b" x="176.034221" y="237.861529" style="fill: #482475; stroke: #482475; stroke-linejoin: miter"/>
     <use xlink:href="#me5dbfe0f1b" x="193.841759" y="237.861529" style="fill: #482475; stroke: #482475; stroke-linejoin: miter"/>
     <use xlink:href="#me5dbfe0f1b" x="210.245673" y="236.953193" style="fill: #482475; stroke: #482475; stroke-linejoin: miter"/>
     <use xlink:href="#me5dbfe0f1b" x="225.775315" y="236.953193" style="fill: #482475; stroke: #482475; stroke-linejoin: miter"/>
     <use xlink:href="#me5dbfe0f1b" x="239.889914" y="236.836195" style="fill: #482475; stroke: #482475; stroke-linejoin: miter"/>
     <use xlink:href="#me5dbfe0f1b" x="253.042869" y="236.836195" style="fill: #482475; stroke: #482475; stroke-linejoin: miter"/>
     <use xlink:href="#me5dbfe0f1b" x="265.317516" y="236.132075" style="fill: #482475; stroke: #482475; stroke-linejoin: miter"/>
     <use xlink:href="#me5dbfe0f1b" x="276.985384" y="236.487325" style="fill: #482475; stroke: #482475; stroke-linejoin: miter"/>
     <use xlink:href="#me5dbfe0f1b" x="287.84527" y="236.487325" style="fill: #482475; stroke: #482475; stroke-linejoin: miter"/>
     <use xlink:href="#me5dbfe0f1b" x="298.139577" y="237.031902" style="fill: #482475; stroke: #482475; stroke-linejoin: miter"/>
    </g>
   </g>
   <g id="line2d_18">
    <defs>
     <path id="m4458aa130f" d="M -5 0 
L 5 0 
M 0 5 
L 0 -5 
" style="stroke: #000000; stroke-width: 2"/>
    </defs>
    <g clip-path="url(#pd9345ea1a5)">
     <use xlink:href="#m4458aa130f" x="-1" y="324.978241" style="stroke: #000000; stroke-width: 2"/>
     <use xlink:href="#m4458aa130f" x="76.235801" y="324.93838" style="stroke: #000000; stroke-width: 2"/>
     <use xlink:href="#m4458aa130f" x="201.657832" y="324.225752" style="stroke: #000000; stroke-width: 2"/>
     <use xlink:href="#m4458aa130f" x="264.669968" y="324.042808" style="stroke: #000000; stroke-width: 2"/>
     <use xlink:href="#m4458aa130f" x="321.350554" y="324.427841" style="stroke: #000000; stroke-width: 2"/>
     <use xlink:href="#m4458aa130f" x="357.373001" y="324.289569" style="stroke: #000000; stroke-width: 2"/>
     <use xlink:href="#m4458aa130f" x="393.663463" y="324.476767" style="stroke: #000000; stroke-width: 2"/>
    </g>
   </g>
   <g id="line2d_19">
    <defs>
     <path id="mb01e393539" d="M -4 4 
L 4 -4 
M -4 -4 
L 4 4 
" style="stroke: #482475"/>
    </defs>
    <g clip-path="url(#pd9345ea1a5)">
     <use xlink:href="#mb01e393539" x="-1" y="71.325508" style="fill-opacity: 0; stroke: #482475"/>
     <use xlink:href="#mb01e393539" x="2.288598" y="71.325508" style="fill-opacity: 0; stroke: #482475"/>
     <use xlink:href="#mb01e393539" x="24.713942" y="71.472288" style="fill-opacity: 0; stroke: #482475"/>
     <use xlink:href="#mb01e393539" x="44.658547" y="71.034075" style="fill-opacity: 0; stroke: #482475"/>
     <use xlink:href="#mb01e393539" x="62.936777" y="71.034075" style="fill-opacity: 0; stroke: #482475"/>
     <use xlink:href="#mb01e393539" x="79.603302" y="71.063857" style="fill-opacity: 0; stroke: #482475"/>
     <use xlink:href="#mb01e393539" x="94.789061" y="71.063857" style="fill-opacity: 0; stroke: #482475"/>
     <use xlink:href="#mb01e393539" x="108.709799" y="71.348908" style="fill-opacity: 0; stroke: #482475"/>
     <use xlink:href="#mb01e393539" x="121.919868" y="70.951112" style="fill-opacity: 0; stroke: #482475"/>
     <use xlink:href="#mb01e393539" x="134.265294" y="70.951112" style="fill-opacity: 0; stroke: #482475"/>
     <use xlink:href="#mb01e393539" x="145.745726" y="71.148947" style="fill-opacity: 0; stroke: #482475"/>
     <use xlink:href="#mb01e393539" x="156.570961" y="70.946858" style="fill-opacity: 0; stroke: #482475"/>
     <use xlink:href="#mb01e393539" x="166.700646" y="70.946858" style="fill-opacity: 0; stroke: #482475"/>
     <use xlink:href="#mb01e393539" x="176.450164" y="70.961749" style="fill-opacity: 0; stroke: #482475"/>
     <use xlink:href="#mb01e393539" x="185.710611" y="70.961749" style="fill-opacity: 0; stroke: #482475"/>
     <use xlink:href="#mb01e393539" x="194.679418" y="71.423362" style="fill-opacity: 0; stroke: #482475"/>
     <use xlink:href="#mb01e393539" x="203.107817" y="71.423362" style="fill-opacity: 0; stroke: #482475"/>
     <use xlink:href="#mb01e393539" x="211.213049" y="70.940476" style="fill-opacity: 0; stroke: #482475"/>
     <use xlink:href="#mb01e393539" x="218.90632" y="71.153201" style="fill-opacity: 0; stroke: #482475"/>
     <use xlink:href="#mb01e393539" x="226.30789" y="71.153201" style="fill-opacity: 0; stroke: #482475"/>
     <use xlink:href="#mb01e393539" x="233.544758" y="71.353163" style="fill-opacity: 0; stroke: #482475"/>
     <use xlink:href="#mb01e393539" x="240.492745" y="71.353163" style="fill-opacity: 0; stroke: #482475"/>
     <use xlink:href="#mb01e393539" x="247.171623" y="71.187237" style="fill-opacity: 0; stroke: #482475"/>
     <use xlink:href="#mb01e393539" x="253.561425" y="71.374435" style="fill-opacity: 0; stroke: #482475"/>
     <use xlink:href="#mb01e393539" x="259.813357" y="71.374435" style="fill-opacity: 0; stroke: #482475"/>
     <use xlink:href="#mb01e393539" x="265.819376" y="70.970258" style="fill-opacity: 0; stroke: #482475"/>
     <use xlink:href="#mb01e393539" x="271.672324" y="71.397835" style="fill-opacity: 0; stroke: #482475"/>
     <use xlink:href="#mb01e393539" x="277.363921" y="71.397835" style="fill-opacity: 0; stroke: #482475"/>
     <use xlink:href="#mb01e393539" x="282.828264" y="71.263818" style="fill-opacity: 0; stroke: #482475"/>
     <use xlink:href="#mb01e393539" x="288.195282" y="71.263818" style="fill-opacity: 0; stroke: #482475"/>
     <use xlink:href="#mb01e393539" x="293.37842" y="71.180855" style="fill-opacity: 0; stroke: #482475"/>
     <use xlink:href="#mb01e393539" x="298.442449" y="71.433998" style="fill-opacity: 0; stroke: #482475"/>
     <use xlink:href="#mb01e393539" x="303.397262" y="71.433998" style="fill-opacity: 0; stroke: #482475"/>
     <use xlink:href="#mb01e393539" x="308.22368" y="70.587353" style="fill-opacity: 0; stroke: #482475"/>
    </g>
   </g>
   <g id="patch_3">
    <path d="M 66.44 367.36 
L 66.44 27 
" style="fill: none; stroke: #000000; stroke-width: 0.8; stroke-linejoin: miter; stroke-linecap: square"/>
   </g>
   <g id="patch_4">
    <path d="M 406.53 367.36 
L 406.53 27 
" style="fill: none; stroke: #000000; stroke-width: 0.8; stroke-linejoin: miter; stroke-linecap: square"/>
   </g>
   <g id="patch_5">
    <path d="M 66.44 367.36 
L 406.53 367.36 
" style="fill: none; stroke: #000000; stroke-width: 0.8; stroke-linejoin: miter; stroke-linecap: square"/>
   </g>
   <g id="patch_6">
    <path d="M 66.44 27 
L 406.53 27 
" style="fill: none; stroke: #000000; stroke-width: 0.8; stroke-linejoin: miter; stroke-linecap: square"/>
   </g>
  </g>
 </g>
 <defs>
  <clipPath id="pd9345ea1a5">
   <rect x="66.44" y="27" width="340.09" height="340.36"/>
  </clipPath>
 </defs>
</svg>
