<?xml version="1.0" encoding="utf-8" standalone="no"?>
<!DOCTYPE svg PUBLIC "-//W3C//DTD SVG 1.1//EN"
  "http://www.w3.org/Graphics/SVG/1.1/DTD/svg11.dtd">
<svg xmlns:xlink="http://www.w3.org/1999/xlink" width="432pt" height="432pt" viewBox="0 0 432 432" xmlns="http://www.w3.org/2000/svg" version="1.1">
 <metadata>
  <rdf:RDF xmlns:dc="http://purl.org/dc/elements/1.1/" xmlns:cc="http://creativecommons.org/ns#" xmlns:rdf="http://www.w3.org/1999/02/22-rdf-syntax-ns#">
   <cc:Work>
    <dc:type rdf:resource="http://purl.org/dc/dcmitype/StillImage"/>
    <dc:date>2024-10-04T23:21:09.055490</dc:date>
    <dc:format>image/svg+xml</dc:format>
    <dc:creator>
     <cc:Agent>
      <dc:title>Matplotlib v3.7.2, https://matplotlib.org/</dc:title>
     </cc:Agent>
    </dc:creator>
   </cc:Work>
  </rdf:RDF>
 </metadata>
 <defs>
  <style type="text/css">*{stroke-linejoin: round; stroke-linecap: butt}</style>
 </defs>
 <g id="figure_1">
  <g id="patch_1">
   <path d="M 0 432 
L 432 432 
L 432 0 
L 0 0 
L 0 432 
z
" style="fill: none"/>
  </g>
  <g id="axes_1">
   <g id="patch_2">
    <path d="M 75.872 357.928 
L 398.79 357.928 
L 398.79 27 
L 75.872 27 
L 75.872 357.928 
z
" style="fill: none"/>
   </g>
   <g id="matplotlib.axis_1">
    <g id="xtick_1">
     <g id="line2d_1">
      <defs>
       <path id="m2d8d8d9437" d="M 0 0 
L 0 3.5 
" style="stroke: #000000; stroke-width: 0.8"/>
      </defs>
      <g>
       <use xlink:href="#m2d8d8d9437" x="75.872" y="357.928" style="stroke: #000000; stroke-width: 0.8"/>
      </g>
     </g>
     <g id="text_1">
      <!-- 0 -->
      <g transform="translate(71.992469 375.237687) scale(0.14 -0.14)">
       <defs>
        <path id="CenturyGothic-30" d="M 203 2297 
Q 203 3206 398 3703 
Q 594 4200 950 4456 
Q 1306 4713 1747 4713 
Q 2194 4713 2556 4455 
Q 2919 4197 3130 3681 
Q 3341 3166 3341 2297 
Q 3341 1431 3133 918 
Q 2925 406 2559 145 
Q 2194 -116 1747 -116 
Q 1306 -116 953 137 
Q 600 391 401 892 
Q 203 1394 203 2297 
z
M 638 2288 
Q 638 1509 777 1111 
Q 916 713 1187 506 
Q 1459 300 1763 300 
Q 2069 300 2334 501 
Q 2600 703 2738 1106 
Q 2909 1597 2909 2288 
Q 2909 2981 2756 3423 
Q 2603 3866 2333 4070 
Q 2063 4275 1763 4275 
Q 1456 4275 1187 4070 
Q 919 3866 778 3467 
Q 638 3069 638 2288 
z
" transform="scale(0.015625)"/>
       </defs>
       <use xlink:href="#CenturyGothic-30"/>
      </g>
     </g>
    </g>
    <g id="xtick_2">
     <g id="line2d_2">
      <g>
       <use xlink:href="#m2d8d8d9437" x="140.4556" y="357.928" style="stroke: #000000; stroke-width: 0.8"/>
      </g>
     </g>
     <g id="text_2">
      <!-- 20 -->
      <g transform="translate(132.696538 375.237687) scale(0.14 -0.14)">
       <defs>
        <path id="CenturyGothic-32" d="M 741 3156 
L 300 3156 
Q 319 3838 755 4275 
Q 1191 4713 1831 4713 
Q 2466 4713 2858 4303 
Q 3250 3894 3250 3338 
Q 3250 2947 3062 2605 
Q 2875 2263 2334 1678 
L 1191 444 
L 3313 444 
L 3313 0 
L 191 0 
L 1947 1897 
Q 2481 2469 2642 2745 
Q 2803 3022 2803 3328 
Q 2803 3716 2514 3995 
Q 2225 4275 1806 4275 
Q 1366 4275 1073 3981 
Q 781 3688 741 3156 
z
" transform="scale(0.015625)"/>
       </defs>
       <use xlink:href="#CenturyGothic-32"/>
       <use xlink:href="#CenturyGothic-30" x="55.419922"/>
      </g>
     </g>
    </g>
    <g id="xtick_3">
     <g id="line2d_3">
      <g>
       <use xlink:href="#m2d8d8d9437" x="205.0392" y="357.928" style="stroke: #000000; stroke-width: 0.8"/>
      </g>
     </g>
     <g id="text_3">
      <!-- 40 -->
      <g transform="translate(197.280137 375.237687) scale(0.14 -0.14)">
       <defs>
        <path id="CenturyGothic-34" d="M 2725 4713 
L 2819 4713 
L 2819 1509 
L 3375 1509 
L 3375 1069 
L 2819 1069 
L 2819 0 
L 2359 0 
L 2359 1069 
L 163 1069 
L 2725 4713 
z
M 2359 1509 
L 2359 3425 
L 1006 1509 
L 2359 1509 
z
" transform="scale(0.015625)"/>
       </defs>
       <use xlink:href="#CenturyGothic-34"/>
       <use xlink:href="#CenturyGothic-30" x="55.419922"/>
      </g>
     </g>
    </g>
    <g id="xtick_4">
     <g id="line2d_4">
      <g>
       <use xlink:href="#m2d8d8d9437" x="269.6228" y="357.928" style="stroke: #000000; stroke-width: 0.8"/>
      </g>
     </g>
     <g id="text_4">
      <!-- 60 -->
      <g transform="translate(261.863737 375.237687) scale(0.14 -0.14)">
       <defs>
        <path id="CenturyGothic-36" d="M 2347 4713 
L 2725 4466 
L 1484 2584 
Q 1734 2669 1953 2669 
Q 2500 2669 2881 2273 
Q 3263 1878 3263 1300 
Q 3263 903 3078 583 
Q 2894 263 2555 73 
Q 2216 -116 1825 -116 
Q 1447 -116 1123 67 
Q 800 250 615 581 
Q 431 913 431 1291 
Q 431 1572 545 1883 
Q 659 2194 953 2631 
L 2347 4713 
z
M 1844 2266 
Q 1444 2266 1161 1983 
Q 878 1700 878 1297 
Q 878 897 1161 614 
Q 1444 331 1844 331 
Q 2244 331 2526 614 
Q 2809 897 2809 1297 
Q 2809 1700 2526 1983 
Q 2244 2266 1844 2266 
z
" transform="scale(0.015625)"/>
       </defs>
       <use xlink:href="#CenturyGothic-36"/>
       <use xlink:href="#CenturyGothic-30" x="55.419922"/>
      </g>
     </g>
    </g>
    <g id="xtick_5">
     <g id="line2d_5">
      <g>
       <use xlink:href="#m2d8d8d9437" x="334.2064" y="357.928" style="stroke: #000000; stroke-width: 0.8"/>
      </g>
     </g>
     <g id="text_5">
      <!-- 80 -->
      <g transform="translate(326.447337 375.237687) scale(0.14 -0.14)">
       <defs>
        <path id="CenturyGothic-38" d="M 2459 2522 
Q 2925 2291 3126 1994 
Q 3328 1697 3328 1319 
Q 3328 788 2981 381 
Q 2556 -116 1766 -116 
Q 1003 -116 609 320 
Q 216 756 216 1281 
Q 216 1666 422 1973 
Q 628 2281 1109 2522 
Q 772 2697 603 2956 
Q 434 3216 434 3513 
Q 434 3813 614 4098 
Q 794 4384 1111 4548 
Q 1428 4713 1797 4713 
Q 2156 4713 2462 4547 
Q 2769 4381 2942 4097 
Q 3116 3813 3116 3500 
Q 3116 3188 2952 2944 
Q 2788 2700 2459 2522 
z
M 1775 4266 
Q 1397 4266 1148 4042 
Q 900 3819 900 3509 
Q 900 3203 1167 2954 
Q 1434 2706 1791 2706 
Q 2019 2706 2222 2818 
Q 2425 2931 2539 3126 
Q 2653 3322 2653 3519 
Q 2653 3797 2428 4031 
Q 2203 4266 1775 4266 
z
M 1797 2291 
Q 1322 2291 1000 1983 
Q 678 1675 678 1266 
Q 678 1013 815 788 
Q 953 563 1200 441 
Q 1447 319 1772 319 
Q 2275 319 2572 616 
Q 2869 913 2869 1309 
Q 2869 1694 2555 1992 
Q 2241 2291 1797 2291 
z
" transform="scale(0.015625)"/>
       </defs>
       <use xlink:href="#CenturyGothic-38"/>
       <use xlink:href="#CenturyGothic-30" x="55.419922"/>
      </g>
     </g>
    </g>
    <g id="xtick_6">
     <g id="line2d_6">
      <g>
       <use xlink:href="#m2d8d8d9437" x="398.79" y="357.928" style="stroke: #000000; stroke-width: 0.8"/>
      </g>
     </g>
     <g id="text_6">
      <!-- 100 -->
      <g transform="translate(387.151406 375.237687) scale(0.14 -0.14)">
       <defs>
        <path id="CenturyGothic-31" d="M 1184 4597 
L 2088 4597 
L 2088 0 
L 1631 0 
L 1631 4147 
L 909 4147 
L 1184 4597 
z
" transform="scale(0.015625)"/>
       </defs>
       <use xlink:href="#CenturyGothic-31"/>
       <use xlink:href="#CenturyGothic-30" x="55.419922"/>
       <use xlink:href="#CenturyGothic-30" x="110.839844"/>
      </g>
     </g>
    </g>
    <g id="text_7">
     <!-- $\mathrm{1 - I_c \, / \, I_c^{unirradiated}}$ -->
     <g transform="translate(158.531 400.358937) scale(0.2 -0.2)">
      <defs>
       <path id="DejaVuSans-31" d="M 794 531 
L 1825 531 
L 1825 4091 
L 703 3866 
L 703 4441 
L 1819 4666 
L 2450 4666 
L 2450 531 
L 3481 531 
L 3481 0 
L 794 0 
L 794 531 
z
" transform="scale(0.015625)"/>
       <path id="DejaVuSans-2212" d="M 678 2272 
L 4684 2272 
L 4684 1741 
L 678 1741 
L 678 2272 
z
" transform="scale(0.015625)"/>
       <path id="DejaVuSans-49" d="M 628 4666 
L 1259 4666 
L 1259 0 
L 628 0 
L 628 4666 
z
" transform="scale(0.015625)"/>
       <path id="DejaVuSans-63" d="M 3122 3366 
L 3122 2828 
Q 2878 2963 2633 3030 
Q 2388 3097 2138 3097 
Q 1578 3097 1268 2742 
Q 959 2388 959 1747 
Q 959 1106 1268 751 
Q 1578 397 2138 397 
Q 2388 397 2633 464 
Q 2878 531 3122 666 
L 3122 134 
Q 2881 22 2623 -34 
Q 2366 -91 2075 -91 
Q 1284 -91 818 406 
Q 353 903 353 1747 
Q 353 2603 823 3093 
Q 1294 3584 2113 3584 
Q 2378 3584 2631 3529 
Q 2884 3475 3122 3366 
z
" transform="scale(0.015625)"/>
       <path id="DejaVuSans-2f" d="M 1625 4666 
L 2156 4666 
L 531 -594 
L 0 -594 
L 1625 4666 
z
" transform="scale(0.015625)"/>
       <path id="DejaVuSans-75" d="M 544 1381 
L 544 3500 
L 1119 3500 
L 1119 1403 
Q 1119 906 1312 657 
Q 1506 409 1894 409 
Q 2359 409 2629 706 
Q 2900 1003 2900 1516 
L 2900 3500 
L 3475 3500 
L 3475 0 
L 2900 0 
L 2900 538 
Q 2691 219 2414 64 
Q 2138 -91 1772 -91 
Q 1169 -91 856 284 
Q 544 659 544 1381 
z
M 1991 3584 
L 1991 3584 
z
" transform="scale(0.015625)"/>
       <path id="DejaVuSans-6e" d="M 3513 2113 
L 3513 0 
L 2938 0 
L 2938 2094 
Q 2938 2591 2744 2837 
Q 2550 3084 2163 3084 
Q 1697 3084 1428 2787 
Q 1159 2491 1159 1978 
L 1159 0 
L 581 0 
L 581 3500 
L 1159 3500 
L 1159 2956 
Q 1366 3272 1645 3428 
Q 1925 3584 2291 3584 
Q 2894 3584 3203 3211 
Q 3513 2838 3513 2113 
z
" transform="scale(0.015625)"/>
       <path id="DejaVuSans-69" d="M 603 3500 
L 1178 3500 
L 1178 0 
L 603 0 
L 603 3500 
z
M 603 4863 
L 1178 4863 
L 1178 4134 
L 603 4134 
L 603 4863 
z
" transform="scale(0.015625)"/>
       <path id="DejaVuSans-72" d="M 2631 2963 
Q 2534 3019 2420 3045 
Q 2306 3072 2169 3072 
Q 1681 3072 1420 2755 
Q 1159 2438 1159 1844 
L 1159 0 
L 581 0 
L 581 3500 
L 1159 3500 
L 1159 2956 
Q 1341 3275 1631 3429 
Q 1922 3584 2338 3584 
Q 2397 3584 2469 3576 
Q 2541 3569 2628 3553 
L 2631 2963 
z
" transform="scale(0.015625)"/>
       <path id="DejaVuSans-61" d="M 2194 1759 
Q 1497 1759 1228 1600 
Q 959 1441 959 1056 
Q 959 750 1161 570 
Q 1363 391 1709 391 
Q 2188 391 2477 730 
Q 2766 1069 2766 1631 
L 2766 1759 
L 2194 1759 
z
M 3341 1997 
L 3341 0 
L 2766 0 
L 2766 531 
Q 2569 213 2275 61 
Q 1981 -91 1556 -91 
Q 1019 -91 701 211 
Q 384 513 384 1019 
Q 384 1609 779 1909 
Q 1175 2209 1959 2209 
L 2766 2209 
L 2766 2266 
Q 2766 2663 2505 2880 
Q 2244 3097 1772 3097 
Q 1472 3097 1187 3025 
Q 903 2953 641 2809 
L 641 3341 
Q 956 3463 1253 3523 
Q 1550 3584 1831 3584 
Q 2591 3584 2966 3190 
Q 3341 2797 3341 1997 
z
" transform="scale(0.015625)"/>
       <path id="DejaVuSans-64" d="M 2906 2969 
L 2906 4863 
L 3481 4863 
L 3481 0 
L 2906 0 
L 2906 525 
Q 2725 213 2448 61 
Q 2172 -91 1784 -91 
Q 1150 -91 751 415 
Q 353 922 353 1747 
Q 353 2572 751 3078 
Q 1150 3584 1784 3584 
Q 2172 3584 2448 3432 
Q 2725 3281 2906 2969 
z
M 947 1747 
Q 947 1113 1208 752 
Q 1469 391 1925 391 
Q 2381 391 2643 752 
Q 2906 1113 2906 1747 
Q 2906 2381 2643 2742 
Q 2381 3103 1925 3103 
Q 1469 3103 1208 2742 
Q 947 2381 947 1747 
z
" transform="scale(0.015625)"/>
       <path id="DejaVuSans-74" d="M 1172 4494 
L 1172 3500 
L 2356 3500 
L 2356 3053 
L 1172 3053 
L 1172 1153 
Q 1172 725 1289 603 
Q 1406 481 1766 481 
L 2356 481 
L 2356 0 
L 1766 0 
Q 1100 0 847 248 
Q 594 497 594 1153 
L 594 3053 
L 172 3053 
L 172 3500 
L 594 3500 
L 594 4494 
L 1172 4494 
z
" transform="scale(0.015625)"/>
       <path id="DejaVuSans-65" d="M 3597 1894 
L 3597 1613 
L 953 1613 
Q 991 1019 1311 708 
Q 1631 397 2203 397 
Q 2534 397 2845 478 
Q 3156 559 3463 722 
L 3463 178 
Q 3153 47 2828 -22 
Q 2503 -91 2169 -91 
Q 1331 -91 842 396 
Q 353 884 353 1716 
Q 353 2575 817 3079 
Q 1281 3584 2069 3584 
Q 2775 3584 3186 3129 
Q 3597 2675 3597 1894 
z
M 3022 2063 
Q 3016 2534 2758 2815 
Q 2500 3097 2075 3097 
Q 1594 3097 1305 2825 
Q 1016 2553 972 2059 
L 3022 2063 
z
" transform="scale(0.015625)"/>
      </defs>
      <use xlink:href="#DejaVuSans-31" transform="translate(0 0.529687)"/>
      <use xlink:href="#DejaVuSans-2212" transform="translate(83.105469 0.529687)"/>
      <use xlink:href="#DejaVuSans-49" transform="translate(186.376953 0.529687)"/>
      <use xlink:href="#DejaVuSans-63" transform="translate(216.826172 -15.876563) scale(0.7)"/>
      <use xlink:href="#DejaVuSans-2f" transform="translate(274.282551 0.529687)"/>
      <use xlink:href="#DejaVuSans-49" transform="translate(324.209634 0.529687)"/>
      <use xlink:href="#DejaVuSans-75" transform="translate(354.658853 38.810938) scale(0.7)"/>
      <use xlink:href="#DejaVuSans-6e" transform="translate(399.024087 38.810938) scale(0.7)"/>
      <use xlink:href="#DejaVuSans-69" transform="translate(443.389321 38.810938) scale(0.7)"/>
      <use xlink:href="#DejaVuSans-72" transform="translate(462.837563 38.810938) scale(0.7)"/>
      <use xlink:href="#DejaVuSans-72" transform="translate(491.61686 38.810938) scale(0.7)"/>
      <use xlink:href="#DejaVuSans-61" transform="translate(520.396157 38.810938) scale(0.7)"/>
      <use xlink:href="#DejaVuSans-64" transform="translate(563.291665 38.810938) scale(0.7)"/>
      <use xlink:href="#DejaVuSans-69" transform="translate(607.725259 38.810938) scale(0.7)"/>
      <use xlink:href="#DejaVuSans-61" transform="translate(627.173501 38.810938) scale(0.7)"/>
      <use xlink:href="#DejaVuSans-74" transform="translate(670.069009 38.810938) scale(0.7)"/>
      <use xlink:href="#DejaVuSans-65" transform="translate(697.515298 38.810938) scale(0.7)"/>
      <use xlink:href="#DejaVuSans-64" transform="translate(740.581704 38.810938) scale(0.7)"/>
      <use xlink:href="#DejaVuSans-63" transform="translate(354.658853 -26.814063) scale(0.7)"/>
     </g>
    </g>
   </g>
   <g id="matplotlib.axis_2">
    <g id="ytick_1">
     <g id="line2d_7">
      <defs>
       <path id="m4c2b3d114e" d="M 0 0 
L -3.5 0 
" style="stroke: #000000; stroke-width: 0.8"/>
      </defs>
      <g>
       <use xlink:href="#m4c2b3d114e" x="75.872" y="357.928" style="stroke: #000000; stroke-width: 0.8"/>
      </g>
     </g>
     <g id="text_8">
      <!-- 0 -->
      <g transform="translate(61.112938 363.082844) scale(0.14 -0.14)">
       <use xlink:href="#CenturyGothic-30"/>
      </g>
     </g>
    </g>
    <g id="ytick_2">
     <g id="line2d_8">
      <g>
       <use xlink:href="#m4c2b3d114e" x="75.872" y="291.7424" style="stroke: #000000; stroke-width: 0.8"/>
      </g>
     </g>
     <g id="text_9">
      <!-- 5 -->
      <g transform="translate(61.112938 296.897244) scale(0.14 -0.14)">
       <defs>
        <path id="CenturyGothic-35" d="M 3147 4597 
L 3147 4159 
L 1509 4159 
L 1281 2906 
Q 1581 2994 1822 2994 
Q 2450 2994 2858 2573 
Q 3266 2153 3266 1497 
Q 3266 1044 3056 666 
Q 2847 288 2489 86 
Q 2131 -116 1663 -116 
Q 1103 -116 718 226 
Q 334 569 259 1113 
L 731 1113 
Q 784 847 911 681 
Q 1038 516 1248 414 
Q 1459 313 1691 313 
Q 2144 313 2469 656 
Q 2794 1000 2794 1516 
Q 2794 1981 2500 2272 
Q 2206 2563 1716 2563 
Q 1309 2563 731 2316 
L 1156 4597 
L 3147 4597 
z
" transform="scale(0.015625)"/>
       </defs>
       <use xlink:href="#CenturyGothic-35"/>
      </g>
     </g>
    </g>
    <g id="ytick_3">
     <g id="line2d_9">
      <g>
       <use xlink:href="#m4c2b3d114e" x="75.872" y="225.5568" style="stroke: #000000; stroke-width: 0.8"/>
      </g>
     </g>
     <g id="text_10">
      <!-- 10 -->
      <g transform="translate(53.353875 230.711644) scale(0.14 -0.14)">
       <use xlink:href="#CenturyGothic-31"/>
       <use xlink:href="#CenturyGothic-30" x="55.419922"/>
      </g>
     </g>
    </g>
    <g id="ytick_4">
     <g id="line2d_10">
      <g>
       <use xlink:href="#m4c2b3d114e" x="75.872" y="159.3712" style="stroke: #000000; stroke-width: 0.8"/>
      </g>
     </g>
     <g id="text_11">
      <!-- 15 -->
      <g transform="translate(53.353875 164.526044) scale(0.14 -0.14)">
       <use xlink:href="#CenturyGothic-31"/>
       <use xlink:href="#CenturyGothic-35" x="55.419922"/>
      </g>
     </g>
    </g>
    <g id="ytick_5">
     <g id="line2d_11">
      <g>
       <use xlink:href="#m4c2b3d114e" x="75.872" y="93.1856" style="stroke: #000000; stroke-width: 0.8"/>
      </g>
     </g>
     <g id="text_12">
      <!-- 20 -->
      <g transform="translate(53.353875 98.340444) scale(0.14 -0.14)">
       <use xlink:href="#CenturyGothic-32"/>
       <use xlink:href="#CenturyGothic-30" x="55.419922"/>
      </g>
     </g>
    </g>
    <g id="ytick_6">
     <g id="line2d_12">
      <g>
       <use xlink:href="#m4c2b3d114e" x="75.872" y="27" style="stroke: #000000; stroke-width: 0.8"/>
      </g>
     </g>
     <g id="text_13">
      <!-- 25 -->
      <g transform="translate(53.353875 32.154844) scale(0.14 -0.14)">
       <use xlink:href="#CenturyGothic-32"/>
       <use xlink:href="#CenturyGothic-35" x="55.419922"/>
      </g>
     </g>
    </g>
    <g id="text_14">
     <!-- $\mathrm{1 - T_c \, / \, T_c^{unirradiated}}$ -->
     <g transform="translate(43.553875 277.564) rotate(-90) scale(0.2 -0.2)">
      <defs>
       <path id="DejaVuSans-54" d="M -19 4666 
L 3928 4666 
L 3928 4134 
L 2272 4134 
L 2272 0 
L 1638 0 
L 1638 4134 
L -19 4134 
L -19 4666 
z
" transform="scale(0.015625)"/>
      </defs>
      <use xlink:href="#DejaVuSans-31" transform="translate(0 0.529687)"/>
      <use xlink:href="#DejaVuSans-2212" transform="translate(83.105469 0.529687)"/>
      <use xlink:href="#DejaVuSans-54" transform="translate(186.376953 0.529687)"/>
      <use xlink:href="#DejaVuSans-63" transform="translate(248.417969 -15.876563) scale(0.7)"/>
      <use xlink:href="#DejaVuSans-2f" transform="translate(305.874348 0.529687)"/>
      <use xlink:href="#DejaVuSans-54" transform="translate(355.801431 0.529687)"/>
      <use xlink:href="#DejaVuSans-75" transform="translate(417.842446 38.810938) scale(0.7)"/>
      <use xlink:href="#DejaVuSans-6e" transform="translate(462.207681 38.810938) scale(0.7)"/>
      <use xlink:href="#DejaVuSans-69" transform="translate(506.572915 38.810938) scale(0.7)"/>
      <use xlink:href="#DejaVuSans-72" transform="translate(526.021157 38.810938) scale(0.7)"/>
      <use xlink:href="#DejaVuSans-72" transform="translate(554.800454 38.810938) scale(0.7)"/>
      <use xlink:href="#DejaVuSans-61" transform="translate(583.579751 38.810938) scale(0.7)"/>
      <use xlink:href="#DejaVuSans-64" transform="translate(626.475259 38.810938) scale(0.7)"/>
      <use xlink:href="#DejaVuSans-69" transform="translate(670.908853 38.810938) scale(0.7)"/>
      <use xlink:href="#DejaVuSans-61" transform="translate(690.357095 38.810938) scale(0.7)"/>
      <use xlink:href="#DejaVuSans-74" transform="translate(733.252603 38.810938) scale(0.7)"/>
      <use xlink:href="#DejaVuSans-65" transform="translate(760.698892 38.810938) scale(0.7)"/>
      <use xlink:href="#DejaVuSans-64" transform="translate(803.765298 38.810938) scale(0.7)"/>
      <use xlink:href="#DejaVuSans-63" transform="translate(417.842446 -26.814063) scale(0.7)"/>
     </g>
    </g>
   </g>
   <g id="line2d_13">
    <defs>
     <path id="mef0456064c" d="M -0 4 
L 4 -4 
L -4 -4 
z
" style="stroke: #472d7b; stroke-linejoin: miter"/>
    </defs>
    <g clip-path="url(#p9517b006c4)">
     <use xlink:href="#mef0456064c" x="75.872" y="357.928" style="fill-opacity: 0; stroke: #472d7b; stroke-linejoin: miter"/>
     <use xlink:href="#mef0456064c" x="346.197927" y="178.601767" style="fill-opacity: 0; stroke: #472d7b; stroke-linejoin: miter"/>
    </g>
   </g>
   <g id="line2d_14">
    <defs>
     <path id="m4d1218186e" d="M 0 -4 
L -4 4 
L 4 4 
z
" style="stroke: #472d7b; stroke-linejoin: miter"/>
    </defs>
    <g clip-path="url(#p9517b006c4)">
     <use xlink:href="#m4d1218186e" x="337.43731" y="188.282221" style="fill-opacity: 0; stroke: #472d7b; stroke-linejoin: miter"/>
    </g>
   </g>
   <g id="line2d_15">
    <defs>
     <path id="m278464342f" d="M -0 4 
L 4 -4 
L -4 -4 
z
" style="stroke: #3b528b; stroke-linejoin: miter"/>
    </defs>
    <g clip-path="url(#p9517b006c4)">
     <use xlink:href="#m278464342f" x="75.872" y="357.928" style="fill: #3b528b; stroke: #3b528b; stroke-linejoin: miter"/>
     <use xlink:href="#m278464342f" x="171.447897" y="291.513353" style="fill: #3b528b; stroke: #3b528b; stroke-linejoin: miter"/>
     <use xlink:href="#m278464342f" x="244.764535" y="240.903211" style="fill: #3b528b; stroke: #3b528b; stroke-linejoin: miter"/>
     <use xlink:href="#m278464342f" x="354.741849" y="87.980349" style="fill: #3b528b; stroke: #3b528b; stroke-linejoin: miter"/>
     <use xlink:href="#m278464342f" x="357.481926" y="87.882168" style="fill: #3b528b; stroke: #3b528b; stroke-linejoin: miter"/>
    </g>
   </g>
   <g id="line2d_16">
    <defs>
     <path id="m56d948b109" d="M 0 -4 
L -4 4 
L 4 4 
z
" style="stroke: #3b528b; stroke-linejoin: miter"/>
    </defs>
    <g clip-path="url(#p9517b006c4)">
     <use xlink:href="#m56d948b109" x="353.14762" y="97.292804" style="fill: #3b528b; stroke: #3b528b; stroke-linejoin: miter"/>
     <use xlink:href="#m56d948b109" x="342.943329" y="127.354503" style="fill: #3b528b; stroke: #3b528b; stroke-linejoin: miter"/>
     <use xlink:href="#m56d948b109" x="341.891114" y="130.366829" style="fill: #3b528b; stroke: #3b528b; stroke-linejoin: miter"/>
     <use xlink:href="#m56d948b109" x="305.164542" y="179.692173" style="fill: #3b528b; stroke: #3b528b; stroke-linejoin: miter"/>
     <use xlink:href="#m56d948b109" x="289.210764" y="199.277585" style="fill: #3b528b; stroke: #3b528b; stroke-linejoin: miter"/>
    </g>
   </g>
   <g id="line2d_17">
    <defs>
     <path id="mc50d549a66" d="M -0 4 
L 4 -4 
L -4 -4 
z
" style="stroke: #5ec962; stroke-linejoin: miter"/>
    </defs>
    <g clip-path="url(#p9517b006c4)">
     <use xlink:href="#mc50d549a66" x="75.872" y="357.928" style="fill: #5ec962; stroke: #5ec962; stroke-linejoin: miter"/>
     <use xlink:href="#mc50d549a66" x="359.973636" y="86.184996" style="fill: #5ec962; stroke: #5ec962; stroke-linejoin: miter"/>
     <use xlink:href="#mc50d549a66" x="359.447951" y="86.830525" style="fill: #5ec962; stroke: #5ec962; stroke-linejoin: miter"/>
     <use xlink:href="#mc50d549a66" x="366.876566" y="60.788672" style="fill: #5ec962; stroke: #5ec962; stroke-linejoin: miter"/>
    </g>
   </g>
   <g id="line2d_18">
    <defs>
     <path id="m349bb24d1e" d="M 0 -4 
L -4 4 
L 4 4 
z
" style="stroke: #5ec962; stroke-linejoin: miter"/>
    </defs>
    <g clip-path="url(#p9517b006c4)">
     <use xlink:href="#m349bb24d1e" x="358.141215" y="93.523446" style="fill: #5ec962; stroke: #5ec962; stroke-linejoin: miter"/>
     <use xlink:href="#m349bb24d1e" x="343.212082" y="127.98396" style="fill: #5ec962; stroke: #5ec962; stroke-linejoin: miter"/>
     <use xlink:href="#m349bb24d1e" x="316.53579" y="167.841852" style="fill: #5ec962; stroke: #5ec962; stroke-linejoin: miter"/>
    </g>
   </g>
   <g id="line2d_19">
    <defs>
     <path id="me60846926c" d="M -0 4 
L 4 -4 
L -4 -4 
z
" style="stroke: #2c728e; stroke-linejoin: miter"/>
    </defs>
    <g clip-path="url(#p9517b006c4)">
     <use xlink:href="#me60846926c" x="75.872" y="357.928" style="fill: #2c728e; stroke: #2c728e; stroke-linejoin: miter"/>
     <use xlink:href="#me60846926c" x="256.825484" y="235.381865" style="fill: #2c728e; stroke: #2c728e; stroke-linejoin: miter"/>
     <use xlink:href="#me60846926c" x="333.538316" y="147.812855" style="fill: #2c728e; stroke: #2c728e; stroke-linejoin: miter"/>
     <use xlink:href="#me60846926c" x="337.890621" y="137.257766" style="fill: #2c728e; stroke: #2c728e; stroke-linejoin: miter"/>
    </g>
   </g>
   <g id="line2d_20">
    <defs>
     <path id="m4e6ae4d03a" d="M 0 -4 
L -4 4 
L 4 4 
z
" style="stroke: #2c728e; stroke-linejoin: miter"/>
    </defs>
    <g clip-path="url(#p9517b006c4)">
     <use xlink:href="#m4e6ae4d03a" x="278.707936" y="212.539786" style="fill: #2c728e; stroke: #2c728e; stroke-linejoin: miter"/>
     <use xlink:href="#m4e6ae4d03a" x="357.421628" y="98.691576" style="fill: #2c728e; stroke: #2c728e; stroke-linejoin: miter"/>
     <use xlink:href="#m4e6ae4d03a" x="338.368118" y="148.485287" style="fill: #2c728e; stroke: #2c728e; stroke-linejoin: miter"/>
     <use xlink:href="#m4e6ae4d03a" x="344.996486" y="129.25494" style="fill: #2c728e; stroke: #2c728e; stroke-linejoin: miter"/>
     <use xlink:href="#m4e6ae4d03a" x="322.356932" y="171.150613" style="fill: #2c728e; stroke: #2c728e; stroke-linejoin: miter"/>
     <use xlink:href="#m4e6ae4d03a" x="360.670896" y="86.375885" style="fill: #2c728e; stroke: #2c728e; stroke-linejoin: miter"/>
    </g>
   </g>
   <g id="line2d_21">
    <defs>
     <path id="m939e42b4c3" d="M -0 4 
L 4 -4 
L -4 -4 
z
" style="stroke: #21918c; stroke-linejoin: miter"/>
    </defs>
    <g clip-path="url(#p9517b006c4)">
     <use xlink:href="#m939e42b4c3" x="75.872" y="357.928" style="fill: #21918c; stroke: #21918c; stroke-linejoin: miter"/>
     <use xlink:href="#m939e42b4c3" x="147.912908" y="310.664795" style="fill: #21918c; stroke: #21918c; stroke-linejoin: miter"/>
    </g>
   </g>
   <g id="line2d_22">
    <defs>
     <path id="mb5b48a204d" d="M -0 4 
L 4 -4 
L -4 -4 
z
" style="stroke: #28ae80; stroke-linejoin: miter"/>
    </defs>
    <g clip-path="url(#p9517b006c4)">
     <use xlink:href="#mb5b48a204d" x="75.872" y="357.928" style="fill: #28ae80; stroke: #28ae80; stroke-linejoin: miter"/>
     <use xlink:href="#mb5b48a204d" x="83.402279" y="350.882607" style="fill: #28ae80; stroke: #28ae80; stroke-linejoin: miter"/>
     <use xlink:href="#mb5b48a204d" x="94.473771" y="341.236488" style="fill: #28ae80; stroke: #28ae80; stroke-linejoin: miter"/>
     <use xlink:href="#mb5b48a204d" x="110.278515" y="331.519739" style="fill: #28ae80; stroke: #28ae80; stroke-linejoin: miter"/>
     <use xlink:href="#mb5b48a204d" x="152.522835" y="305.793017" style="fill: #28ae80; stroke: #28ae80; stroke-linejoin: miter"/>
     <use xlink:href="#mb5b48a204d" x="225.474669" y="257.514132" style="fill: #28ae80; stroke: #28ae80; stroke-linejoin: miter"/>
     <use xlink:href="#mb5b48a204d" x="284.634971" y="207.357305" style="fill: #28ae80; stroke: #28ae80; stroke-linejoin: miter"/>
     <use xlink:href="#mb5b48a204d" x="328.250426" y="152.754528" style="fill: #28ae80; stroke: #28ae80; stroke-linejoin: miter"/>
    </g>
   </g>
   <g id="line2d_23">
    <defs>
     <path id="m051b47312e" d="M -0 4 
L 4 -4 
L -4 -4 
z
" style="stroke: #addc30; stroke-linejoin: miter"/>
    </defs>
    <g clip-path="url(#p9517b006c4)">
     <use xlink:href="#m051b47312e" x="75.872" y="357.928" style="fill: #addc30; stroke: #addc30; stroke-linejoin: miter"/>
     <use xlink:href="#m051b47312e" x="167.986333" y="297.972939" style="fill: #addc30; stroke: #addc30; stroke-linejoin: miter"/>
     <use xlink:href="#m051b47312e" x="273.371048" y="219.432106" style="fill: #addc30; stroke: #addc30; stroke-linejoin: miter"/>
     <use xlink:href="#m051b47312e" x="337.476783" y="135.789389" style="fill: #addc30; stroke: #addc30; stroke-linejoin: miter"/>
    </g>
   </g>
   <g id="line2d_24">
    <defs>
     <path id="mcf07c34474" d="M 0 -4 
L -4 4 
L 4 4 
z
" style="stroke: #addc30; stroke-linejoin: miter"/>
    </defs>
    <g clip-path="url(#p9517b006c4)">
     <use xlink:href="#mcf07c34474" x="280.920002" y="210.706353" style="fill: #addc30; stroke: #addc30; stroke-linejoin: miter"/>
     <use xlink:href="#mcf07c34474" x="281.146148" y="210.789026" style="fill: #addc30; stroke: #addc30; stroke-linejoin: miter"/>
     <use xlink:href="#mcf07c34474" x="284.514946" y="205.902278" style="fill: #addc30; stroke: #addc30; stroke-linejoin: miter"/>
    </g>
   </g>
   <g id="line2d_25">
    <path d="M 366.4982 59.342103 
L 365.422776 65.684113 
L 364.114827 72.059874 
L 362.574354 78.455433 
L 360.801357 84.863576 
L 358.795835 91.280208 
L 356.528724 97.782109 
L 354.029089 104.274176 
L 351.267864 110.824956 
L 348.245049 117.420912 
L 344.960645 124.052311 
L 341.414651 130.711997 
L 337.578001 137.443976 
L 333.450696 144.235219 
L 329.032736 151.075568 
L 324.295055 157.99832 
L 319.266719 164.951453 
L 313.889597 172.004782 
L 308.192754 179.108516 
L 302.147124 186.289404 
L 295.752708 193.537146 
L 289.009506 200.843121 
L 281.888452 208.229597 
L 274.389546 215.686851 
L 266.483723 223.233795 
L 258.170983 230.860207 
L 249.451325 238.557275 
L 240.295684 246.341645 
L 230.70406 254.204134 
L 220.647388 262.159323 
L 210.125667 270.197917 
L 199.109833 278.332853 
L 187.599884 286.554889 
L 175.566756 294.875624 
L 163.010449 303.285972 
L 149.930962 311.777845 
L 136.29923 320.362066 
L 122.086187 329.048127 
L 107.291834 337.827345 
L 91.916171 346.691918 
L 75.930131 355.650892 
L 75.872 355.683018 
L 75.872 355.683018 
" clip-path="url(#p9517b006c4)" style="fill: none; stroke: #000000; stroke-opacity: 0.1; stroke-width: 8; stroke-linecap: round"/>
   </g>
   <g id="patch_3">
    <path d="M 75.872 357.928 
L 75.872 27 
" style="fill: none; stroke: #000000; stroke-width: 0.8; stroke-linejoin: miter; stroke-linecap: square"/>
   </g>
   <g id="patch_4">
    <path d="M 75.872 357.928 
L 398.79 357.928 
" style="fill: none; stroke: #000000; stroke-width: 0.8; stroke-linejoin: miter; stroke-linecap: square"/>
   </g>
   <g id="legend_1">
    <g id="line2d_26">
     <g>
      <use xlink:href="#mef0456064c" x="98.672" y="42.6" style="fill-opacity: 0; stroke: #472d7b; stroke-linejoin: miter"/>
     </g>
    </g>
    <g id="text_15">
     <!-- ffj20 -->
     <g transform="translate(120.272 46.8) scale(0.12 -0.12)">
      <defs>
       <path id="CenturyGothic-66" d="M 1888 4713 
L 1888 4284 
Q 1647 4388 1475 4388 
Q 1347 4388 1262 4336 
Q 1178 4284 1156 4217 
Q 1134 4150 1134 3859 
L 1134 3400 
L 1844 3400 
L 1844 3025 
L 1131 3025 
L 1131 0 
L 694 0 
L 694 3025 
L 247 3025 
L 247 3400 
L 694 3400 
L 694 3931 
Q 694 4297 761 4453 
Q 828 4609 989 4704 
Q 1150 4800 1378 4800 
Q 1591 4800 1888 4713 
z
" transform="scale(0.015625)"/>
       <path id="CenturyGothic-6a" d="M 650 4800 
Q 800 4800 904 4694 
Q 1009 4588 1009 4438 
Q 1009 4291 904 4184 
Q 800 4078 650 4078 
Q 500 4078 395 4184 
Q 291 4291 291 4438 
Q 291 4588 395 4694 
Q 500 4800 650 4800 
z
M 434 3400 
L 878 3400 
L 878 -513 
Q 878 -941 723 -1136 
Q 569 -1331 300 -1331 
Q 78 -1331 -200 -1225 
L -200 -831 
Q -25 -922 116 -922 
Q 294 -922 381 -775 
Q 434 -681 434 -384 
L 434 3400 
z
" transform="scale(0.015625)"/>
      </defs>
      <use xlink:href="#CenturyGothic-66"/>
      <use xlink:href="#CenturyGothic-66" x="31.396484"/>
      <use xlink:href="#CenturyGothic-6a" x="62.792969"/>
      <use xlink:href="#CenturyGothic-32" x="83.105469"/>
      <use xlink:href="#CenturyGothic-30" x="138.525391"/>
     </g>
    </g>
    <g id="line2d_27">
     <g>
      <use xlink:href="#m4d1218186e" x="98.672" y="60.455625" style="fill-opacity: 0; stroke: #472d7b; stroke-linejoin: miter"/>
     </g>
    </g>
    <g id="text_16">
     <!-- ffj20$\mathrm{^a}$ -->
     <g transform="translate(120.272 64.655625) scale(0.12 -0.12)">
      <use xlink:href="#CenturyGothic-66" transform="translate(0 0.51875)"/>
      <use xlink:href="#CenturyGothic-66" transform="translate(31.396484 0.51875)"/>
      <use xlink:href="#CenturyGothic-6a" transform="translate(62.792969 0.51875)"/>
      <use xlink:href="#CenturyGothic-32" transform="translate(83.105469 0.51875)"/>
      <use xlink:href="#CenturyGothic-30" transform="translate(138.525391 0.51875)"/>
      <use xlink:href="#DejaVuSans-61" transform="translate(194.902344 38.8) scale(0.7)"/>
     </g>
    </g>
    <g id="line2d_28">
     <g>
      <use xlink:href="#m278464342f" x="98.672" y="77.975625" style="fill: #3b528b; stroke: #3b528b; stroke-linejoin: miter"/>
     </g>
    </g>
    <g id="text_17">
     <!-- ffj23 -->
     <g transform="translate(120.272 82.175625) scale(0.12 -0.12)">
      <defs>
       <path id="CenturyGothic-33" d="M 847 3531 
L 378 3531 
Q 506 4100 868 4406 
Q 1231 4713 1725 4713 
Q 2084 4713 2395 4548 
Q 2706 4384 2876 4106 
Q 3047 3828 3047 3525 
Q 3047 2931 2456 2584 
Q 2788 2450 3000 2191 
Q 3300 1825 3300 1372 
Q 3300 981 3094 626 
Q 2888 272 2531 78 
Q 2175 -116 1734 -116 
Q 1141 -116 744 226 
Q 347 569 225 1231 
L 675 1231 
Q 794 784 1016 584 
Q 1300 331 1741 331 
Q 2241 331 2544 631 
Q 2847 931 2847 1334 
Q 2847 1603 2695 1837 
Q 2544 2072 2289 2190 
Q 2034 2309 1500 2338 
L 1500 2759 
Q 1816 2759 2075 2870 
Q 2334 2981 2451 3153 
Q 2569 3325 2569 3528 
Q 2569 3828 2330 4047 
Q 2091 4266 1725 4266 
Q 1428 4266 1212 4098 
Q 997 3931 847 3531 
z
" transform="scale(0.015625)"/>
      </defs>
      <use xlink:href="#CenturyGothic-66"/>
      <use xlink:href="#CenturyGothic-66" x="31.396484"/>
      <use xlink:href="#CenturyGothic-6a" x="62.792969"/>
      <use xlink:href="#CenturyGothic-32" x="83.105469"/>
      <use xlink:href="#CenturyGothic-33" x="138.525391"/>
     </g>
    </g>
    <g id="line2d_29">
     <g>
      <use xlink:href="#m56d948b109" x="98.672" y="95.83125" style="fill: #3b528b; stroke: #3b528b; stroke-linejoin: miter"/>
     </g>
    </g>
    <g id="text_18">
     <!-- ffj23$\mathrm{^a}$ -->
     <g transform="translate(120.272 100.03125) scale(0.12 -0.12)">
      <use xlink:href="#CenturyGothic-66" transform="translate(0 0.51875)"/>
      <use xlink:href="#CenturyGothic-66" transform="translate(31.396484 0.51875)"/>
      <use xlink:href="#CenturyGothic-6a" transform="translate(62.792969 0.51875)"/>
      <use xlink:href="#CenturyGothic-32" transform="translate(83.105469 0.51875)"/>
      <use xlink:href="#CenturyGothic-33" transform="translate(138.525391 0.51875)"/>
      <use xlink:href="#DejaVuSans-61" transform="translate(194.902344 38.8) scale(0.7)"/>
     </g>
    </g>
    <g id="line2d_30">
     <g>
      <use xlink:href="#mc50d549a66" x="98.672" y="113.35125" style="fill: #5ec962; stroke: #5ec962; stroke-linejoin: miter"/>
     </g>
    </g>
    <g id="text_19">
     <!-- ffj28 -->
     <g transform="translate(120.272 117.55125) scale(0.12 -0.12)">
      <use xlink:href="#CenturyGothic-66"/>
      <use xlink:href="#CenturyGothic-66" x="31.396484"/>
      <use xlink:href="#CenturyGothic-6a" x="62.792969"/>
      <use xlink:href="#CenturyGothic-32" x="83.105469"/>
      <use xlink:href="#CenturyGothic-38" x="138.525391"/>
     </g>
    </g>
    <g id="line2d_31">
     <g>
      <use xlink:href="#m349bb24d1e" x="98.672" y="131.206875" style="fill: #5ec962; stroke: #5ec962; stroke-linejoin: miter"/>
     </g>
    </g>
    <g id="text_20">
     <!-- ffj28$\mathrm{^a}$ -->
     <g transform="translate(120.272 135.406875) scale(0.12 -0.12)">
      <use xlink:href="#CenturyGothic-66" transform="translate(0 0.51875)"/>
      <use xlink:href="#CenturyGothic-66" transform="translate(31.396484 0.51875)"/>
      <use xlink:href="#CenturyGothic-6a" transform="translate(62.792969 0.51875)"/>
      <use xlink:href="#CenturyGothic-32" transform="translate(83.105469 0.51875)"/>
      <use xlink:href="#CenturyGothic-38" transform="translate(138.525391 0.51875)"/>
      <use xlink:href="#DejaVuSans-61" transform="translate(194.902344 38.8) scale(0.7)"/>
     </g>
    </g>
    <g id="line2d_32">
     <g>
      <use xlink:href="#me60846926c" x="185.192" y="42.6" style="fill: #2c728e; stroke: #2c728e; stroke-linejoin: miter"/>
     </g>
    </g>
    <g id="text_21">
     <!-- ffj29 -->
     <g transform="translate(206.792 46.8) scale(0.12 -0.12)">
      <defs>
       <path id="CenturyGothic-39" d="M 1228 -116 
L 850 128 
L 2091 2009 
Q 1841 1928 1622 1928 
Q 1075 1928 694 2323 
Q 313 2719 313 3297 
Q 313 3694 497 4012 
Q 681 4331 1020 4522 
Q 1359 4713 1747 4713 
Q 2128 4713 2451 4528 
Q 2775 4344 2959 4012 
Q 3144 3681 3144 3306 
Q 3144 3022 3030 2711 
Q 2916 2400 2622 1963 
L 1228 -116 
z
M 1728 2331 
Q 2131 2331 2414 2614 
Q 2697 2897 2697 3297 
Q 2697 3697 2414 3980 
Q 2131 4263 1728 4263 
Q 1328 4263 1045 3980 
Q 763 3697 763 3297 
Q 763 2897 1045 2614 
Q 1328 2331 1728 2331 
z
" transform="scale(0.015625)"/>
      </defs>
      <use xlink:href="#CenturyGothic-66"/>
      <use xlink:href="#CenturyGothic-66" x="31.396484"/>
      <use xlink:href="#CenturyGothic-6a" x="62.792969"/>
      <use xlink:href="#CenturyGothic-32" x="83.105469"/>
      <use xlink:href="#CenturyGothic-39" x="138.525391"/>
     </g>
    </g>
    <g id="line2d_33">
     <g>
      <use xlink:href="#m4e6ae4d03a" x="185.192" y="60.455625" style="fill: #2c728e; stroke: #2c728e; stroke-linejoin: miter"/>
     </g>
    </g>
    <g id="text_22">
     <!-- ffj29$\mathrm{^a}$ -->
     <g transform="translate(206.792 64.655625) scale(0.12 -0.12)">
      <use xlink:href="#CenturyGothic-66" transform="translate(0 0.51875)"/>
      <use xlink:href="#CenturyGothic-66" transform="translate(31.396484 0.51875)"/>
      <use xlink:href="#CenturyGothic-6a" transform="translate(62.792969 0.51875)"/>
      <use xlink:href="#CenturyGothic-32" transform="translate(83.105469 0.51875)"/>
      <use xlink:href="#CenturyGothic-39" transform="translate(138.525391 0.51875)"/>
      <use xlink:href="#DejaVuSans-61" transform="translate(194.902344 38.8) scale(0.7)"/>
     </g>
    </g>
    <g id="line2d_34">
     <g>
      <use xlink:href="#m939e42b4c3" x="185.192" y="77.975625" style="fill: #21918c; stroke: #21918c; stroke-linejoin: miter"/>
     </g>
    </g>
    <g id="text_23">
     <!-- ffj33 -->
     <g transform="translate(206.792 82.175625) scale(0.12 -0.12)">
      <use xlink:href="#CenturyGothic-66"/>
      <use xlink:href="#CenturyGothic-66" x="31.396484"/>
      <use xlink:href="#CenturyGothic-6a" x="62.792969"/>
      <use xlink:href="#CenturyGothic-33" x="83.105469"/>
      <use xlink:href="#CenturyGothic-33" x="138.525391"/>
     </g>
    </g>
    <g id="line2d_35">
     <g>
      <use xlink:href="#mb5b48a204d" x="185.192" y="95.47125" style="fill: #28ae80; stroke: #28ae80; stroke-linejoin: miter"/>
     </g>
    </g>
    <g id="text_24">
     <!-- ffj34 -->
     <g transform="translate(206.792 99.67125) scale(0.12 -0.12)">
      <use xlink:href="#CenturyGothic-66"/>
      <use xlink:href="#CenturyGothic-66" x="31.396484"/>
      <use xlink:href="#CenturyGothic-6a" x="62.792969"/>
      <use xlink:href="#CenturyGothic-33" x="83.105469"/>
      <use xlink:href="#CenturyGothic-34" x="138.525391"/>
     </g>
    </g>
    <g id="line2d_36">
     <g>
      <use xlink:href="#m051b47312e" x="185.192" y="112.966875" style="fill: #addc30; stroke: #addc30; stroke-linejoin: miter"/>
     </g>
    </g>
    <g id="text_25">
     <!-- ffj37 -->
     <g transform="translate(206.792 117.166875) scale(0.12 -0.12)">
      <defs>
       <path id="CenturyGothic-37" d="M 459 4597 
L 3375 4597 
L 916 -116 
L 538 78 
L 2663 4163 
L 459 4163 
L 459 4597 
z
" transform="scale(0.015625)"/>
      </defs>
      <use xlink:href="#CenturyGothic-66"/>
      <use xlink:href="#CenturyGothic-66" x="31.396484"/>
      <use xlink:href="#CenturyGothic-6a" x="62.792969"/>
      <use xlink:href="#CenturyGothic-33" x="83.105469"/>
      <use xlink:href="#CenturyGothic-37" x="138.525391"/>
     </g>
    </g>
    <g id="line2d_37">
     <g>
      <use xlink:href="#mcf07c34474" x="185.192" y="130.8225" style="fill: #addc30; stroke: #addc30; stroke-linejoin: miter"/>
     </g>
    </g>
    <g id="text_26">
     <!-- ffj37$\mathrm{^a}$ -->
     <g transform="translate(206.792 135.0225) scale(0.12 -0.12)">
      <use xlink:href="#CenturyGothic-66" transform="translate(0 0.51875)"/>
      <use xlink:href="#CenturyGothic-66" transform="translate(31.396484 0.51875)"/>
      <use xlink:href="#CenturyGothic-6a" transform="translate(62.792969 0.51875)"/>
      <use xlink:href="#CenturyGothic-33" transform="translate(83.105469 0.51875)"/>
      <use xlink:href="#CenturyGothic-37" transform="translate(138.525391 0.51875)"/>
      <use xlink:href="#DejaVuSans-61" transform="translate(194.902344 38.8) scale(0.7)"/>
     </g>
    </g>
   </g>
  </g>
 </g>
 <defs>
  <clipPath id="p9517b006c4">
   <rect x="75.872" y="27" width="322.918" height="330.928"/>
  </clipPath>
 </defs>
</svg>
