<?xml version="1.0" encoding="utf-8" standalone="no"?>
<!DOCTYPE svg PUBLIC "-//W3C//DTD SVG 1.1//EN"
  "http://www.w3.org/Graphics/SVG/1.1/DTD/svg11.dtd">
<svg xmlns:xlink="http://www.w3.org/1999/xlink" width="432pt" height="432pt" viewBox="0 0 432 432" xmlns="http://www.w3.org/2000/svg" version="1.1">
 <metadata>
  <rdf:RDF xmlns:dc="http://purl.org/dc/elements/1.1/" xmlns:cc="http://creativecommons.org/ns#" xmlns:rdf="http://www.w3.org/1999/02/22-rdf-syntax-ns#">
   <cc:Work>
    <dc:type rdf:resource="http://purl.org/dc/dcmitype/StillImage"/>
    <dc:date>2024-10-04T20:50:01.446036</dc:date>
    <dc:format>image/svg+xml</dc:format>
    <dc:creator>
     <cc:Agent>
      <dc:title>Matplotlib v3.7.2, https://matplotlib.org/</dc:title>
     </cc:Agent>
    </dc:creator>
   </cc:Work>
  </rdf:RDF>
 </metadata>
 <defs>
  <style type="text/css">*{stroke-linejoin: round; stroke-linecap: butt}</style>
 </defs>
 <g id="figure_1">
  <g id="patch_1">
   <path d="M 0 432 
L 432 432 
L 432 0 
L 0 0 
z
" style="fill: #ffffff"/>
  </g>
  <g id="axes_1">
   <g id="patch_2">
    <path d="M 75.368 367.72 
L 402.66 367.72 
L 402.66 27 
L 75.368 27 
z
" style="fill: #ffffff"/>
   </g>
   <g id="matplotlib.axis_1">
    <g id="xtick_1">
     <g id="line2d_1">
      <defs>
       <path id="m52aa2ee78c" d="M 0 0 
L 0 3.5 
" style="stroke: #000000; stroke-width: 0.8"/>
      </defs>
      <g>
       <use xlink:href="#m52aa2ee78c" x="75.368" y="367.72" style="stroke: #000000; stroke-width: 0.8"/>
      </g>
     </g>
     <g id="text_1">
      <!-- 0 -->
      <g transform="translate(71.488469 385.029688) scale(0.14 -0.14)">
       <defs>
        <path id="CenturyGothic-30" d="M 203 2297 
Q 203 3206 398 3703 
Q 594 4200 950 4456 
Q 1306 4713 1747 4713 
Q 2194 4713 2556 4455 
Q 2919 4197 3130 3681 
Q 3341 3166 3341 2297 
Q 3341 1431 3133 918 
Q 2925 406 2559 145 
Q 2194 -116 1747 -116 
Q 1306 -116 953 137 
Q 600 391 401 892 
Q 203 1394 203 2297 
z
M 638 2288 
Q 638 1509 777 1111 
Q 916 713 1187 506 
Q 1459 300 1763 300 
Q 2069 300 2334 501 
Q 2600 703 2738 1106 
Q 2909 1597 2909 2288 
Q 2909 2981 2756 3423 
Q 2603 3866 2333 4070 
Q 2063 4275 1763 4275 
Q 1456 4275 1187 4070 
Q 919 3866 778 3467 
Q 638 3069 638 2288 
z
" transform="scale(0.015625)"/>
       </defs>
       <use xlink:href="#CenturyGothic-30"/>
      </g>
     </g>
    </g>
    <g id="xtick_2">
     <g id="line2d_2">
      <g>
       <use xlink:href="#m52aa2ee78c" x="157.191" y="367.72" style="stroke: #000000; stroke-width: 0.8"/>
      </g>
     </g>
     <g id="text_2">
      <!-- 20 -->
      <g transform="translate(149.431938 385.029688) scale(0.14 -0.14)">
       <defs>
        <path id="CenturyGothic-32" d="M 741 3156 
L 300 3156 
Q 319 3838 755 4275 
Q 1191 4713 1831 4713 
Q 2466 4713 2858 4303 
Q 3250 3894 3250 3338 
Q 3250 2947 3062 2605 
Q 2875 2263 2334 1678 
L 1191 444 
L 3313 444 
L 3313 0 
L 191 0 
L 1947 1897 
Q 2481 2469 2642 2745 
Q 2803 3022 2803 3328 
Q 2803 3716 2514 3995 
Q 2225 4275 1806 4275 
Q 1366 4275 1073 3981 
Q 781 3688 741 3156 
z
" transform="scale(0.015625)"/>
       </defs>
       <use xlink:href="#CenturyGothic-32"/>
       <use xlink:href="#CenturyGothic-30" x="55.419922"/>
      </g>
     </g>
    </g>
    <g id="xtick_3">
     <g id="line2d_3">
      <g>
       <use xlink:href="#m52aa2ee78c" x="239.014" y="367.72" style="stroke: #000000; stroke-width: 0.8"/>
      </g>
     </g>
     <g id="text_3">
      <!-- 40 -->
      <g transform="translate(231.254937 385.029688) scale(0.14 -0.14)">
       <defs>
        <path id="CenturyGothic-34" d="M 2725 4713 
L 2819 4713 
L 2819 1509 
L 3375 1509 
L 3375 1069 
L 2819 1069 
L 2819 0 
L 2359 0 
L 2359 1069 
L 163 1069 
L 2725 4713 
z
M 2359 1509 
L 2359 3425 
L 1006 1509 
L 2359 1509 
z
" transform="scale(0.015625)"/>
       </defs>
       <use xlink:href="#CenturyGothic-34"/>
       <use xlink:href="#CenturyGothic-30" x="55.419922"/>
      </g>
     </g>
    </g>
    <g id="xtick_4">
     <g id="line2d_4">
      <g>
       <use xlink:href="#m52aa2ee78c" x="320.837" y="367.72" style="stroke: #000000; stroke-width: 0.8"/>
      </g>
     </g>
     <g id="text_4">
      <!-- 60 -->
      <g transform="translate(313.077937 385.029688) scale(0.14 -0.14)">
       <defs>
        <path id="CenturyGothic-36" d="M 2347 4713 
L 2725 4466 
L 1484 2584 
Q 1734 2669 1953 2669 
Q 2500 2669 2881 2273 
Q 3263 1878 3263 1300 
Q 3263 903 3078 583 
Q 2894 263 2555 73 
Q 2216 -116 1825 -116 
Q 1447 -116 1123 67 
Q 800 250 615 581 
Q 431 913 431 1291 
Q 431 1572 545 1883 
Q 659 2194 953 2631 
L 2347 4713 
z
M 1844 2266 
Q 1444 2266 1161 1983 
Q 878 1700 878 1297 
Q 878 897 1161 614 
Q 1444 331 1844 331 
Q 2244 331 2526 614 
Q 2809 897 2809 1297 
Q 2809 1700 2526 1983 
Q 2244 2266 1844 2266 
z
" transform="scale(0.015625)"/>
       </defs>
       <use xlink:href="#CenturyGothic-36"/>
       <use xlink:href="#CenturyGothic-30" x="55.419922"/>
      </g>
     </g>
    </g>
    <g id="xtick_5">
     <g id="line2d_5">
      <g>
       <use xlink:href="#m52aa2ee78c" x="402.66" y="367.72" style="stroke: #000000; stroke-width: 0.8"/>
      </g>
     </g>
     <g id="text_5">
      <!-- 80 -->
      <g transform="translate(394.900937 385.029688) scale(0.14 -0.14)">
       <defs>
        <path id="CenturyGothic-38" d="M 2459 2522 
Q 2925 2291 3126 1994 
Q 3328 1697 3328 1319 
Q 3328 788 2981 381 
Q 2556 -116 1766 -116 
Q 1003 -116 609 320 
Q 216 756 216 1281 
Q 216 1666 422 1973 
Q 628 2281 1109 2522 
Q 772 2697 603 2956 
Q 434 3216 434 3513 
Q 434 3813 614 4098 
Q 794 4384 1111 4548 
Q 1428 4713 1797 4713 
Q 2156 4713 2462 4547 
Q 2769 4381 2942 4097 
Q 3116 3813 3116 3500 
Q 3116 3188 2952 2944 
Q 2788 2700 2459 2522 
z
M 1775 4266 
Q 1397 4266 1148 4042 
Q 900 3819 900 3509 
Q 900 3203 1167 2954 
Q 1434 2706 1791 2706 
Q 2019 2706 2222 2818 
Q 2425 2931 2539 3126 
Q 2653 3322 2653 3519 
Q 2653 3797 2428 4031 
Q 2203 4266 1775 4266 
z
M 1797 2291 
Q 1322 2291 1000 1983 
Q 678 1675 678 1266 
Q 678 1013 815 788 
Q 953 563 1200 441 
Q 1447 319 1772 319 
Q 2275 319 2572 616 
Q 2869 913 2869 1309 
Q 2869 1694 2555 1992 
Q 2241 2291 1797 2291 
z
" transform="scale(0.015625)"/>
       </defs>
       <use xlink:href="#CenturyGothic-38"/>
       <use xlink:href="#CenturyGothic-30" x="55.419922"/>
      </g>
     </g>
    </g>
    <g id="text_6">
     <!-- Ion Beam Power [mW] -->
     <g transform="translate(131.062437 406.479062) scale(0.2 -0.2)">
      <defs>
       <path id="CenturyGothic-49" d="M 494 4597 
L 953 4597 
L 953 0 
L 494 0 
L 494 4597 
z
" transform="scale(0.015625)"/>
       <path id="CenturyGothic-6f" d="M 2097 3488 
Q 2881 3488 3397 2919 
Q 3866 2400 3866 1691 
Q 3866 978 3370 445 
Q 2875 -88 2097 -88 
Q 1316 -88 820 445 
Q 325 978 325 1691 
Q 325 2397 794 2916 
Q 1309 3488 2097 3488 
z
M 2097 3059 
Q 1553 3059 1162 2656 
Q 772 2253 772 1681 
Q 772 1313 950 994 
Q 1128 675 1431 501 
Q 1734 328 2097 328 
Q 2459 328 2762 501 
Q 3066 675 3244 994 
Q 3422 1313 3422 1681 
Q 3422 2253 3030 2656 
Q 2638 3059 2097 3059 
z
" transform="scale(0.015625)"/>
       <path id="CenturyGothic-6e" d="M 488 3400 
L 925 3400 
L 925 2791 
Q 1188 3141 1506 3314 
Q 1825 3488 2200 3488 
Q 2581 3488 2876 3294 
Q 3172 3100 3312 2772 
Q 3453 2444 3453 1750 
L 3453 0 
L 3019 0 
L 3019 1622 
Q 3019 2209 2969 2406 
Q 2891 2744 2675 2914 
Q 2459 3084 2113 3084 
Q 1716 3084 1402 2821 
Q 1088 2559 988 2172 
Q 925 1919 925 1247 
L 925 0 
L 488 0 
L 488 3400 
z
" transform="scale(0.015625)"/>
       <path id="CenturyGothic-20" transform="scale(0.015625)"/>
       <path id="CenturyGothic-42" d="M 572 4597 
L 1478 4597 
Q 2025 4597 2319 4467 
Q 2613 4338 2783 4069 
Q 2953 3800 2953 3472 
Q 2953 3166 2803 2914 
Q 2653 2663 2363 2506 
Q 2722 2384 2915 2220 
Q 3109 2056 3217 1823 
Q 3325 1591 3325 1319 
Q 3325 766 2920 383 
Q 2516 0 1834 0 
L 572 0 
L 572 4597 
z
M 1022 4147 
L 1022 2675 
L 1284 2675 
Q 1763 2675 1988 2764 
Q 2213 2853 2344 3045 
Q 2475 3238 2475 3472 
Q 2475 3788 2254 3967 
Q 2034 4147 1553 4147 
L 1022 4147 
z
M 1022 2213 
L 1022 450 
L 1591 450 
Q 2094 450 2328 548 
Q 2563 647 2705 856 
Q 2847 1066 2847 1309 
Q 2847 1616 2647 1844 
Q 2447 2072 2097 2156 
Q 1863 2213 1281 2213 
L 1022 2213 
z
" transform="scale(0.015625)"/>
       <path id="CenturyGothic-65" d="M 3350 1128 
L 3719 934 
Q 3538 578 3300 359 
Q 3063 141 2766 26 
Q 2469 -88 2094 -88 
Q 1263 -88 794 457 
Q 325 1003 325 1691 
Q 325 2338 722 2844 
Q 1225 3488 2069 3488 
Q 2938 3488 3456 2828 
Q 3825 2363 3831 1666 
L 775 1666 
Q 788 1072 1153 692 
Q 1519 313 2056 313 
Q 2316 313 2561 403 
Q 2806 494 2978 644 
Q 3150 794 3350 1128 
z
M 3350 2044 
Q 3263 2394 3095 2603 
Q 2928 2813 2653 2941 
Q 2378 3069 2075 3069 
Q 1575 3069 1216 2747 
Q 953 2513 819 2044 
L 3350 2044 
z
" transform="scale(0.015625)"/>
       <path id="CenturyGothic-61" d="M 3875 3400 
L 3875 0 
L 3444 0 
L 3444 584 
Q 3169 250 2826 81 
Q 2484 -88 2078 -88 
Q 1356 -88 845 435 
Q 334 959 334 1709 
Q 334 2444 850 2966 
Q 1366 3488 2091 3488 
Q 2509 3488 2848 3309 
Q 3188 3131 3444 2775 
L 3444 3400 
L 3875 3400 
z
M 2125 3066 
Q 1759 3066 1450 2886 
Q 1141 2706 958 2381 
Q 775 2056 775 1694 
Q 775 1334 959 1006 
Q 1144 678 1455 495 
Q 1766 313 2122 313 
Q 2481 313 2803 494 
Q 3125 675 3298 984 
Q 3472 1294 3472 1681 
Q 3472 2272 3083 2669 
Q 2694 3066 2125 3066 
z
" transform="scale(0.015625)"/>
       <path id="CenturyGothic-6d" d="M 484 3400 
L 919 3400 
L 919 2813 
Q 1147 3138 1388 3288 
Q 1719 3488 2084 3488 
Q 2331 3488 2553 3391 
Q 2775 3294 2915 3133 
Q 3056 2972 3159 2672 
Q 3378 3072 3706 3280 
Q 4034 3488 4413 3488 
Q 4766 3488 5036 3309 
Q 5306 3131 5437 2812 
Q 5569 2494 5569 1856 
L 5569 0 
L 5122 0 
L 5122 1856 
Q 5122 2403 5044 2608 
Q 4966 2813 4777 2938 
Q 4588 3063 4325 3063 
Q 4006 3063 3742 2875 
Q 3478 2688 3356 2375 
Q 3234 2063 3234 1331 
L 3234 0 
L 2800 0 
L 2800 1741 
Q 2800 2356 2723 2576 
Q 2647 2797 2456 2930 
Q 2266 3063 2003 3063 
Q 1700 3063 1436 2880 
Q 1172 2697 1045 2387 
Q 919 2078 919 1441 
L 919 0 
L 484 0 
L 484 3400 
z
" transform="scale(0.015625)"/>
       <path id="CenturyGothic-50" d="M 556 4597 
L 1472 4597 
Q 2259 4597 2534 4528 
Q 2928 4431 3178 4129 
Q 3428 3828 3428 3372 
Q 3428 2913 3184 2614 
Q 2941 2316 2513 2213 
Q 2200 2138 1344 2138 
L 1016 2138 
L 1016 0 
L 556 0 
L 556 4597 
z
M 1016 4150 
L 1016 2588 
L 1794 2578 
Q 2266 2578 2484 2664 
Q 2703 2750 2828 2942 
Q 2953 3134 2953 3372 
Q 2953 3603 2828 3795 
Q 2703 3988 2498 4069 
Q 2294 4150 1828 4150 
L 1016 4150 
z
" transform="scale(0.015625)"/>
       <path id="CenturyGothic-77" d="M 28 3400 
L 478 3400 
L 1519 931 
L 2609 3400 
L 2688 3400 
L 3775 931 
L 4834 3400 
L 5291 3400 
L 3816 0 
L 3731 0 
L 2650 2434 
L 1559 0 
L 1478 0 
L 28 3400 
z
" transform="scale(0.015625)"/>
       <path id="CenturyGothic-72" d="M 322 3400 
L 769 3400 
L 769 2903 
Q 969 3197 1191 3342 
Q 1413 3488 1653 3488 
Q 1834 3488 2041 3372 
L 1813 3003 
Q 1675 3063 1581 3063 
Q 1363 3063 1159 2883 
Q 956 2703 850 2325 
Q 769 2034 769 1150 
L 769 0 
L 322 0 
L 322 3400 
z
" transform="scale(0.015625)"/>
       <path id="CenturyGothic-5b" d="M 906 4713 
L 1956 4713 
L 1956 4269 
L 1344 4269 
L 1344 -816 
L 1956 -816 
L 1956 -1244 
L 906 -1244 
L 906 4713 
z
" transform="scale(0.015625)"/>
       <path id="CenturyGothic-57" d="M 300 4597 
L 772 4597 
L 1706 1284 
L 3025 4597 
L 3119 4597 
L 4422 1284 
L 5375 4597 
L 5844 4597 
L 4525 0 
L 4438 0 
L 3075 3478 
L 1684 0 
L 1597 0 
L 300 4597 
z
" transform="scale(0.015625)"/>
       <path id="CenturyGothic-5d" d="M 1341 -1244 
L 291 -1244 
L 291 -800 
L 900 -800 
L 900 4284 
L 291 4284 
L 291 4713 
L 1341 4713 
L 1341 -1244 
z
" transform="scale(0.015625)"/>
      </defs>
      <use xlink:href="#CenturyGothic-49"/>
      <use xlink:href="#CenturyGothic-6f" x="22.607422"/>
      <use xlink:href="#CenturyGothic-6e" x="88.085938"/>
      <use xlink:href="#CenturyGothic-20" x="149.072266"/>
      <use xlink:href="#CenturyGothic-42" x="176.757812"/>
      <use xlink:href="#CenturyGothic-65" x="234.179688"/>
      <use xlink:href="#CenturyGothic-61" x="299.169922"/>
      <use xlink:href="#CenturyGothic-6d" x="367.480469"/>
      <use xlink:href="#CenturyGothic-20" x="461.279297"/>
      <use xlink:href="#CenturyGothic-50" x="488.964844"/>
      <use xlink:href="#CenturyGothic-6f" x="548.144531"/>
      <use xlink:href="#CenturyGothic-77" x="613.623047"/>
      <use xlink:href="#CenturyGothic-65" x="696.728516"/>
      <use xlink:href="#CenturyGothic-72" x="761.71875"/>
      <use xlink:href="#CenturyGothic-20" x="791.796875"/>
      <use xlink:href="#CenturyGothic-5b" x="819.482422"/>
      <use xlink:href="#CenturyGothic-6d" x="854.589844"/>
      <use xlink:href="#CenturyGothic-57" x="948.388672"/>
      <use xlink:href="#CenturyGothic-5d" x="1044.384766"/>
     </g>
    </g>
   </g>
   <g id="matplotlib.axis_2">
    <g id="ytick_1">
     <g id="line2d_6">
      <defs>
       <path id="ma1fcb7b36d" d="M 0 0 
L -3.5 0 
" style="stroke: #000000; stroke-width: 0.8"/>
      </defs>
      <g>
       <use xlink:href="#ma1fcb7b36d" x="75.368" y="367.72" style="stroke: #000000; stroke-width: 0.8"/>
      </g>
     </g>
     <g id="text_7">
      <!-- 0 -->
      <g transform="translate(60.608938 372.874844) scale(0.14 -0.14)">
       <use xlink:href="#CenturyGothic-30"/>
      </g>
     </g>
    </g>
    <g id="ytick_2">
     <g id="line2d_7">
      <g>
       <use xlink:href="#ma1fcb7b36d" x="75.368" y="319.045714" style="stroke: #000000; stroke-width: 0.8"/>
      </g>
     </g>
     <g id="text_8">
      <!-- 5 -->
      <g transform="translate(60.608938 324.200558) scale(0.14 -0.14)">
       <defs>
        <path id="CenturyGothic-35" d="M 3147 4597 
L 3147 4159 
L 1509 4159 
L 1281 2906 
Q 1581 2994 1822 2994 
Q 2450 2994 2858 2573 
Q 3266 2153 3266 1497 
Q 3266 1044 3056 666 
Q 2847 288 2489 86 
Q 2131 -116 1663 -116 
Q 1103 -116 718 226 
Q 334 569 259 1113 
L 731 1113 
Q 784 847 911 681 
Q 1038 516 1248 414 
Q 1459 313 1691 313 
Q 2144 313 2469 656 
Q 2794 1000 2794 1516 
Q 2794 1981 2500 2272 
Q 2206 2563 1716 2563 
Q 1309 2563 731 2316 
L 1156 4597 
L 3147 4597 
z
" transform="scale(0.015625)"/>
       </defs>
       <use xlink:href="#CenturyGothic-35"/>
      </g>
     </g>
    </g>
    <g id="ytick_3">
     <g id="line2d_8">
      <g>
       <use xlink:href="#ma1fcb7b36d" x="75.368" y="270.371429" style="stroke: #000000; stroke-width: 0.8"/>
      </g>
     </g>
     <g id="text_9">
      <!-- 10 -->
      <g transform="translate(52.849875 275.526272) scale(0.14 -0.14)">
       <defs>
        <path id="CenturyGothic-31" d="M 1184 4597 
L 2088 4597 
L 2088 0 
L 1631 0 
L 1631 4147 
L 909 4147 
L 1184 4597 
z
" transform="scale(0.015625)"/>
       </defs>
       <use xlink:href="#CenturyGothic-31"/>
       <use xlink:href="#CenturyGothic-30" x="55.419922"/>
      </g>
     </g>
    </g>
    <g id="ytick_4">
     <g id="line2d_9">
      <g>
       <use xlink:href="#ma1fcb7b36d" x="75.368" y="221.697143" style="stroke: #000000; stroke-width: 0.8"/>
      </g>
     </g>
     <g id="text_10">
      <!-- 15 -->
      <g transform="translate(52.849875 226.851987) scale(0.14 -0.14)">
       <use xlink:href="#CenturyGothic-31"/>
       <use xlink:href="#CenturyGothic-35" x="55.419922"/>
      </g>
     </g>
    </g>
    <g id="ytick_5">
     <g id="line2d_10">
      <g>
       <use xlink:href="#ma1fcb7b36d" x="75.368" y="173.022857" style="stroke: #000000; stroke-width: 0.8"/>
      </g>
     </g>
     <g id="text_11">
      <!-- 20 -->
      <g transform="translate(52.849875 178.177701) scale(0.14 -0.14)">
       <use xlink:href="#CenturyGothic-32"/>
       <use xlink:href="#CenturyGothic-30" x="55.419922"/>
      </g>
     </g>
    </g>
    <g id="ytick_6">
     <g id="line2d_11">
      <g>
       <use xlink:href="#ma1fcb7b36d" x="75.368" y="124.348571" style="stroke: #000000; stroke-width: 0.8"/>
      </g>
     </g>
     <g id="text_12">
      <!-- 25 -->
      <g transform="translate(52.849875 129.503415) scale(0.14 -0.14)">
       <use xlink:href="#CenturyGothic-32"/>
       <use xlink:href="#CenturyGothic-35" x="55.419922"/>
      </g>
     </g>
    </g>
    <g id="ytick_7">
     <g id="line2d_12">
      <g>
       <use xlink:href="#ma1fcb7b36d" x="75.368" y="75.674286" style="stroke: #000000; stroke-width: 0.8"/>
      </g>
     </g>
     <g id="text_13">
      <!-- 30 -->
      <g transform="translate(52.849875 80.829129) scale(0.14 -0.14)">
       <defs>
        <path id="CenturyGothic-33" d="M 847 3531 
L 378 3531 
Q 506 4100 868 4406 
Q 1231 4713 1725 4713 
Q 2084 4713 2395 4548 
Q 2706 4384 2876 4106 
Q 3047 3828 3047 3525 
Q 3047 2931 2456 2584 
Q 2788 2450 3000 2191 
Q 3300 1825 3300 1372 
Q 3300 981 3094 626 
Q 2888 272 2531 78 
Q 2175 -116 1734 -116 
Q 1141 -116 744 226 
Q 347 569 225 1231 
L 675 1231 
Q 794 784 1016 584 
Q 1300 331 1741 331 
Q 2241 331 2544 631 
Q 2847 931 2847 1334 
Q 2847 1603 2695 1837 
Q 2544 2072 2289 2190 
Q 2034 2309 1500 2338 
L 1500 2759 
Q 1816 2759 2075 2870 
Q 2334 2981 2451 3153 
Q 2569 3325 2569 3528 
Q 2569 3828 2330 4047 
Q 2091 4266 1725 4266 
Q 1428 4266 1212 4098 
Q 997 3931 847 3531 
z
" transform="scale(0.015625)"/>
       </defs>
       <use xlink:href="#CenturyGothic-33"/>
       <use xlink:href="#CenturyGothic-30" x="55.419922"/>
      </g>
     </g>
    </g>
    <g id="ytick_8">
     <g id="line2d_13">
      <g>
       <use xlink:href="#ma1fcb7b36d" x="75.368" y="27" style="stroke: #000000; stroke-width: 0.8"/>
      </g>
     </g>
     <g id="text_14">
      <!-- 35 -->
      <g transform="translate(52.849875 32.154844) scale(0.14 -0.14)">
       <use xlink:href="#CenturyGothic-33"/>
       <use xlink:href="#CenturyGothic-35" x="55.419922"/>
      </g>
     </g>
    </g>
    <g id="text_15">
     <!-- Suppression $\mathrm{1 - I_c^{ON}\, /\, I_c^{OFF}}$ [%] -->
     <g transform="translate(43.049875 330.56) rotate(-90) scale(0.2 -0.2)">
      <defs>
       <path id="CenturyGothic-53" d="M 84 856 
L 475 1091 
Q 888 331 1428 331 
Q 1659 331 1862 439 
Q 2066 547 2172 728 
Q 2278 909 2278 1113 
Q 2278 1344 2122 1566 
Q 1906 1872 1334 2303 
Q 759 2738 619 2931 
Q 375 3256 375 3634 
Q 375 3934 519 4181 
Q 663 4428 923 4570 
Q 1184 4713 1491 4713 
Q 1816 4713 2098 4552 
Q 2381 4391 2697 3959 
L 2322 3675 
Q 2063 4019 1880 4128 
Q 1697 4238 1481 4238 
Q 1203 4238 1026 4069 
Q 850 3900 850 3653 
Q 850 3503 912 3362 
Q 975 3222 1141 3056 
Q 1231 2969 1734 2597 
Q 2331 2156 2553 1812 
Q 2775 1469 2775 1122 
Q 2775 622 2395 253 
Q 2016 -116 1472 -116 
Q 1053 -116 712 107 
Q 372 331 84 856 
z
" transform="scale(0.015625)"/>
       <path id="CenturyGothic-75" d="M 431 3400 
L 872 3400 
L 872 1813 
Q 872 1231 934 1013 
Q 1028 700 1292 519 
Q 1556 338 1922 338 
Q 2288 338 2542 514 
Q 2797 691 2894 978 
Q 2959 1175 2959 1813 
L 2959 3400 
L 3406 3400 
L 3406 1731 
Q 3406 1028 3242 672 
Q 3078 316 2748 114 
Q 2419 -88 1922 -88 
Q 1425 -88 1092 114 
Q 759 316 595 677 
Q 431 1038 431 1763 
L 431 3400 
z
" transform="scale(0.015625)"/>
       <path id="CenturyGothic-70" d="M 494 3400 
L 928 3400 
L 928 2775 
Q 1188 3131 1525 3309 
Q 1863 3488 2278 3488 
Q 3003 3488 3518 2966 
Q 4034 2444 4034 1709 
Q 4034 959 3523 435 
Q 3013 -88 2291 -88 
Q 1884 -88 1543 81 
Q 1203 250 928 584 
L 928 -1244 
L 494 -1244 
L 494 3400 
z
M 2244 3066 
Q 1675 3066 1286 2669 
Q 897 2272 897 1681 
Q 897 1294 1070 984 
Q 1244 675 1567 494 
Q 1891 313 2250 313 
Q 2603 313 2914 495 
Q 3225 678 3409 1006 
Q 3594 1334 3594 1694 
Q 3594 2056 3411 2381 
Q 3228 2706 2918 2886 
Q 2609 3066 2244 3066 
z
" transform="scale(0.015625)"/>
       <path id="CenturyGothic-73" d="M 2197 3028 
L 1916 2738 
Q 1566 3078 1231 3078 
Q 1019 3078 867 2937 
Q 716 2797 716 2609 
Q 716 2444 841 2294 
Q 966 2141 1366 1934 
Q 1853 1681 2028 1447 
Q 2200 1209 2200 913 
Q 2200 494 1906 203 
Q 1613 -88 1172 -88 
Q 878 -88 611 40 
Q 344 169 169 394 
L 444 706 
Q 778 328 1153 328 
Q 1416 328 1600 497 
Q 1784 666 1784 894 
Q 1784 1081 1663 1228 
Q 1541 1372 1113 1591 
Q 653 1828 488 2059 
Q 322 2291 322 2588 
Q 322 2975 586 3231 
Q 850 3488 1253 3488 
Q 1722 3488 2197 3028 
z
" transform="scale(0.015625)"/>
       <path id="CenturyGothic-69" d="M 641 4800 
Q 791 4800 897 4694 
Q 1003 4588 1003 4438 
Q 1003 4291 897 4184 
Q 791 4078 641 4078 
Q 494 4078 387 4184 
Q 281 4291 281 4438 
Q 281 4588 387 4694 
Q 494 4800 641 4800 
z
M 422 3400 
L 863 3400 
L 863 0 
L 422 0 
L 422 3400 
z
" transform="scale(0.015625)"/>
       <path id="DejaVuSans-31" d="M 794 531 
L 1825 531 
L 1825 4091 
L 703 3866 
L 703 4441 
L 1819 4666 
L 2450 4666 
L 2450 531 
L 3481 531 
L 3481 0 
L 794 0 
L 794 531 
z
" transform="scale(0.015625)"/>
       <path id="DejaVuSans-2212" d="M 678 2272 
L 4684 2272 
L 4684 1741 
L 678 1741 
L 678 2272 
z
" transform="scale(0.015625)"/>
       <path id="DejaVuSans-49" d="M 628 4666 
L 1259 4666 
L 1259 0 
L 628 0 
L 628 4666 
z
" transform="scale(0.015625)"/>
       <path id="DejaVuSans-4f" d="M 2522 4238 
Q 1834 4238 1429 3725 
Q 1025 3213 1025 2328 
Q 1025 1447 1429 934 
Q 1834 422 2522 422 
Q 3209 422 3611 934 
Q 4013 1447 4013 2328 
Q 4013 3213 3611 3725 
Q 3209 4238 2522 4238 
z
M 2522 4750 
Q 3503 4750 4090 4092 
Q 4678 3434 4678 2328 
Q 4678 1225 4090 567 
Q 3503 -91 2522 -91 
Q 1538 -91 948 565 
Q 359 1222 359 2328 
Q 359 3434 948 4092 
Q 1538 4750 2522 4750 
z
" transform="scale(0.015625)"/>
       <path id="DejaVuSans-4e" d="M 628 4666 
L 1478 4666 
L 3547 763 
L 3547 4666 
L 4159 4666 
L 4159 0 
L 3309 0 
L 1241 3903 
L 1241 0 
L 628 0 
L 628 4666 
z
" transform="scale(0.015625)"/>
       <path id="DejaVuSans-63" d="M 3122 3366 
L 3122 2828 
Q 2878 2963 2633 3030 
Q 2388 3097 2138 3097 
Q 1578 3097 1268 2742 
Q 959 2388 959 1747 
Q 959 1106 1268 751 
Q 1578 397 2138 397 
Q 2388 397 2633 464 
Q 2878 531 3122 666 
L 3122 134 
Q 2881 22 2623 -34 
Q 2366 -91 2075 -91 
Q 1284 -91 818 406 
Q 353 903 353 1747 
Q 353 2603 823 3093 
Q 1294 3584 2113 3584 
Q 2378 3584 2631 3529 
Q 2884 3475 3122 3366 
z
" transform="scale(0.015625)"/>
       <path id="DejaVuSans-2f" d="M 1625 4666 
L 2156 4666 
L 531 -594 
L 0 -594 
L 1625 4666 
z
" transform="scale(0.015625)"/>
       <path id="DejaVuSans-46" d="M 628 4666 
L 3309 4666 
L 3309 4134 
L 1259 4134 
L 1259 2759 
L 3109 2759 
L 3109 2228 
L 1259 2228 
L 1259 0 
L 628 0 
L 628 4666 
z
" transform="scale(0.015625)"/>
       <path id="CenturyGothic-25" d="M 4316 4800 
L 966 -319 
L 553 -319 
L 3600 4344 
Q 3059 4213 2281 4213 
L 2113 4216 
Q 2306 3947 2306 3647 
Q 2306 3219 2007 2881 
Q 1709 2544 1216 2544 
Q 763 2544 453 2858 
Q 144 3172 144 3622 
Q 144 3922 284 4167 
Q 425 4413 684 4563 
Q 944 4713 1216 4713 
Q 1331 4713 1597 4656 
Q 2003 4569 2478 4569 
Q 2828 4569 3139 4614 
Q 3450 4659 3947 4800 
L 4316 4800 
z
M 1225 4316 
Q 941 4316 741 4114 
Q 541 3913 541 3628 
Q 541 3344 741 3144 
Q 941 2944 1225 2944 
Q 1509 2944 1711 3144 
Q 1913 3344 1913 3628 
Q 1913 3913 1711 4114 
Q 1509 4316 1225 4316 
z
M 3734 2028 
Q 4181 2028 4498 1711 
Q 4816 1394 4816 947 
Q 4816 500 4498 183 
Q 4181 -134 3734 -134 
Q 3288 -134 2970 183 
Q 2653 500 2653 947 
Q 2653 1394 2970 1711 
Q 3288 2028 3734 2028 
z
M 3734 1631 
Q 3450 1631 3250 1431 
Q 3050 1231 3050 947 
Q 3050 663 3250 463 
Q 3450 263 3734 263 
Q 4019 263 4220 463 
Q 4422 663 4422 947 
Q 4422 1231 4220 1431 
Q 4019 1631 3734 1631 
z
" transform="scale(0.015625)"/>
      </defs>
      <use xlink:href="#CenturyGothic-53" transform="translate(0 0.765625)"/>
      <use xlink:href="#CenturyGothic-75" transform="translate(49.804688 0.765625)"/>
      <use xlink:href="#CenturyGothic-70" transform="translate(110.595703 0.765625)"/>
      <use xlink:href="#CenturyGothic-70" transform="translate(178.808594 0.765625)"/>
      <use xlink:href="#CenturyGothic-72" transform="translate(247.021484 0.765625)"/>
      <use xlink:href="#CenturyGothic-65" transform="translate(277.099609 0.765625)"/>
      <use xlink:href="#CenturyGothic-73" transform="translate(342.089844 0.765625)"/>
      <use xlink:href="#CenturyGothic-73" transform="translate(380.908203 0.765625)"/>
      <use xlink:href="#CenturyGothic-69" transform="translate(419.726562 0.765625)"/>
      <use xlink:href="#CenturyGothic-6f" transform="translate(439.746094 0.765625)"/>
      <use xlink:href="#CenturyGothic-6e" transform="translate(505.224609 0.765625)"/>
      <use xlink:href="#CenturyGothic-20" transform="translate(566.210938 0.765625)"/>
      <use xlink:href="#DejaVuSans-31" transform="translate(593.896484 0.765625)"/>
      <use xlink:href="#DejaVuSans-2212" transform="translate(677.001953 0.765625)"/>
      <use xlink:href="#DejaVuSans-49" transform="translate(780.273438 0.765625)"/>
      <use xlink:href="#DejaVuSans-4f" transform="translate(810.722656 39.046875) scale(0.7)"/>
      <use xlink:href="#DejaVuSans-4e" transform="translate(865.820312 39.046875) scale(0.7)"/>
      <use xlink:href="#DejaVuSans-63" transform="translate(810.722656 -26.578125) scale(0.7)"/>
      <use xlink:href="#DejaVuSans-2f" transform="translate(937.153645 0.765625)"/>
      <use xlink:href="#DejaVuSans-49" transform="translate(987.080728 0.765625)"/>
      <use xlink:href="#DejaVuSans-4f" transform="translate(1017.529946 39.046875) scale(0.7)"/>
      <use xlink:href="#DejaVuSans-46" transform="translate(1072.627603 39.046875) scale(0.7)"/>
      <use xlink:href="#DejaVuSans-46" transform="translate(1112.891274 39.046875) scale(0.7)"/>
      <use xlink:href="#DejaVuSans-63" transform="translate(1017.529946 -26.578125) scale(0.7)"/>
      <use xlink:href="#CenturyGothic-20" transform="translate(1155.889321 0.765625)"/>
      <use xlink:href="#CenturyGothic-5b" transform="translate(1183.574868 0.765625)"/>
      <use xlink:href="#CenturyGothic-25" transform="translate(1218.68229 0.765625)"/>
      <use xlink:href="#CenturyGothic-5d" transform="translate(1296.172524 0.765625)"/>
     </g>
    </g>
   </g>
   <g id="line2d_14">
    <path d="M 75.368 367.72 
L 398.56885 80.462702 
L 398.56885 80.462702 
" clip-path="url(#p8e57b29faf)" style="fill: none; stroke: #808080; stroke-opacity: 0.3; stroke-width: 4; stroke-linecap: round"/>
   </g>
   <g id="LineCollection_1">
    <path d="M 216.590182 225.366073 
L 226.574903 225.366073 
" clip-path="url(#p8e57b29faf)" style="fill: none; stroke: #3b0f70; stroke-width: 1.5"/>
    <path d="M 120.014876 321.10287 
L 123.097684 321.10287 
" clip-path="url(#p8e57b29faf)" style="fill: none; stroke: #3b0f70; stroke-width: 1.5"/>
    <path d="M 120.527775 321.294418 
L 123.650432 321.294418 
" clip-path="url(#p8e57b29faf)" style="fill: none; stroke: #3b0f70; stroke-width: 1.5"/>
    <path d="M 120.698738 322.440972 
L 123.834035 322.440972 
" clip-path="url(#p8e57b29faf)" style="fill: none; stroke: #3b0f70; stroke-width: 1.5"/>
    <path d="M 121.175016 323.765133 
L 124.339633 323.765133 
" clip-path="url(#p8e57b29faf)" style="fill: none; stroke: #3b0f70; stroke-width: 1.5"/>
    <path d="M 124.153889 320.636811 
L 127.521709 320.636811 
" clip-path="url(#p8e57b29faf)" style="fill: none; stroke: #3b0f70; stroke-width: 1.5"/>
    <path d="M 100.07642 348.19684 
L 101.786588 348.19684 
" clip-path="url(#p8e57b29faf)" style="fill: none; stroke: #3b0f70; stroke-width: 1.5"/>
    <path d="M 100.25943 348.759005 
L 101.978158 348.759005 
" clip-path="url(#p8e57b29faf)" style="fill: none; stroke: #3b0f70; stroke-width: 1.5"/>
    <path d="M 100.297933 348.365109 
L 102.027323 348.365109 
" clip-path="url(#p8e57b29faf)" style="fill: none; stroke: #3b0f70; stroke-width: 1.5"/>
    <path d="M 100.627087 345.602441 
L 102.37658 345.602441 
" clip-path="url(#p8e57b29faf)" style="fill: none; stroke: #3b0f70; stroke-width: 1.5"/>
    <path d="M 271.912646 229.259151 
L 285.597601 229.259151 
" clip-path="url(#p8e57b29faf)" style="fill: none; stroke: #3b0f70; stroke-width: 1.5"/>
    <path d="M 271.920499 222.737368 
L 285.50208 222.737368 
" clip-path="url(#p8e57b29faf)" style="fill: none; stroke: #3b0f70; stroke-width: 1.5"/>
    <path d="M 260.853555 224.727982 
L 283.681902 224.727982 
" clip-path="url(#p8e57b29faf)" style="fill: none; stroke: #3b0f70; stroke-width: 1.5"/>
    <path d="M 186.927541 255.928748 
L 194.721701 255.928748 
" clip-path="url(#p8e57b29faf)" style="fill: none; stroke: #3b0f70; stroke-width: 1.5"/>
    <path d="M 186.952592 259.873515 
L 194.668965 259.873515 
" clip-path="url(#p8e57b29faf)" style="fill: none; stroke: #3b0f70; stroke-width: 1.5"/>
    <path d="M 186.806576 260.804193 
L 194.491996 260.804193 
" clip-path="url(#p8e57b29faf)" style="fill: none; stroke: #3b0f70; stroke-width: 1.5"/>
    <path d="M 187.266276 260.272406 
L 195.001252 260.272406 
" clip-path="url(#p8e57b29faf)" style="fill: none; stroke: #3b0f70; stroke-width: 1.5"/>
    <path d="M 150.960061 289.360579 
L 156.210606 289.360579 
" clip-path="url(#p8e57b29faf)" style="fill: none; stroke: #3b0f70; stroke-width: 1.5"/>
    <path d="M 152.518496 290.753467 
L 157.848381 290.753467 
" clip-path="url(#p8e57b29faf)" style="fill: none; stroke: #3b0f70; stroke-width: 1.5"/>
    <path d="M 150.90234 290.675892 
L 157.44754 290.675892 
" clip-path="url(#p8e57b29faf)" style="fill: none; stroke: #3b0f70; stroke-width: 1.5"/>
    <path d="M 151.863099 290.872457 
L 157.15935 290.872457 
" clip-path="url(#p8e57b29faf)" style="fill: none; stroke: #3b0f70; stroke-width: 1.5"/>
    <path d="M 292.122582 131.584791 
L 307.105055 131.584791 
" clip-path="url(#p8e57b29faf)" style="fill: none; stroke: #3b0f70; stroke-width: 1.5"/>
    <path d="M 293.67106 130.709944 
L 308.922958 130.709944 
" clip-path="url(#p8e57b29faf)" style="fill: none; stroke: #3b0f70; stroke-width: 1.5"/>
   </g>
   <g id="LineCollection_2">
    <path d="M 221.582542 225.366073 
L 221.582542 225.366072 
" clip-path="url(#p8e57b29faf)" style="fill: none; stroke: #3b0f70; stroke-width: 1.5"/>
    <path d="M 121.55628 321.102871 
L 121.55628 321.10287 
" clip-path="url(#p8e57b29faf)" style="fill: none; stroke: #3b0f70; stroke-width: 1.5"/>
    <path d="M 122.089103 321.294418 
L 122.089103 321.294417 
" clip-path="url(#p8e57b29faf)" style="fill: none; stroke: #3b0f70; stroke-width: 1.5"/>
    <path d="M 122.266387 322.440972 
L 122.266387 322.440971 
" clip-path="url(#p8e57b29faf)" style="fill: none; stroke: #3b0f70; stroke-width: 1.5"/>
    <path d="M 122.757325 323.765134 
L 122.757325 323.765132 
" clip-path="url(#p8e57b29faf)" style="fill: none; stroke: #3b0f70; stroke-width: 1.5"/>
    <path d="M 125.837799 320.636812 
L 125.837799 320.63681 
" clip-path="url(#p8e57b29faf)" style="fill: none; stroke: #3b0f70; stroke-width: 1.5"/>
    <path d="M 100.931504 348.196841 
L 100.931504 348.196839 
" clip-path="url(#p8e57b29faf)" style="fill: none; stroke: #3b0f70; stroke-width: 1.5"/>
    <path d="M 101.118794 348.759006 
L 101.118794 348.759004 
" clip-path="url(#p8e57b29faf)" style="fill: none; stroke: #3b0f70; stroke-width: 1.5"/>
    <path d="M 101.162628 348.36511 
L 101.162628 348.365108 
" clip-path="url(#p8e57b29faf)" style="fill: none; stroke: #3b0f70; stroke-width: 1.5"/>
    <path d="M 101.501833 345.602442 
L 101.501833 345.60244 
" clip-path="url(#p8e57b29faf)" style="fill: none; stroke: #3b0f70; stroke-width: 1.5"/>
    <path d="M 278.755123 229.259152 
L 278.755123 229.25915 
" clip-path="url(#p8e57b29faf)" style="fill: none; stroke: #3b0f70; stroke-width: 1.5"/>
    <path d="M 278.71129 222.737369 
L 278.71129 222.737367 
" clip-path="url(#p8e57b29faf)" style="fill: none; stroke: #3b0f70; stroke-width: 1.5"/>
    <path d="M 272.267728 224.727983 
L 272.267728 224.727981 
" clip-path="url(#p8e57b29faf)" style="fill: none; stroke: #3b0f70; stroke-width: 1.5"/>
    <path d="M 190.824621 255.928749 
L 190.824621 255.928747 
" clip-path="url(#p8e57b29faf)" style="fill: none; stroke: #3b0f70; stroke-width: 1.5"/>
    <path d="M 190.810779 259.873516 
L 190.810779 259.873514 
" clip-path="url(#p8e57b29faf)" style="fill: none; stroke: #3b0f70; stroke-width: 1.5"/>
    <path d="M 190.649286 260.804193 
L 190.649286 260.804192 
" clip-path="url(#p8e57b29faf)" style="fill: none; stroke: #3b0f70; stroke-width: 1.5"/>
    <path d="M 191.133764 260.272407 
L 191.133764 260.272405 
" clip-path="url(#p8e57b29faf)" style="fill: none; stroke: #3b0f70; stroke-width: 1.5"/>
    <path d="M 153.585333 289.36058 
L 153.585333 289.360578 
" clip-path="url(#p8e57b29faf)" style="fill: none; stroke: #3b0f70; stroke-width: 1.5"/>
    <path d="M 155.183439 290.753468 
L 155.183439 290.753466 
" clip-path="url(#p8e57b29faf)" style="fill: none; stroke: #3b0f70; stroke-width: 1.5"/>
    <path d="M 154.17494 290.675893 
L 154.17494 290.675891 
" clip-path="url(#p8e57b29faf)" style="fill: none; stroke: #3b0f70; stroke-width: 1.5"/>
    <path d="M 154.511225 290.872458 
L 154.511225 290.872456 
" clip-path="url(#p8e57b29faf)" style="fill: none; stroke: #3b0f70; stroke-width: 1.5"/>
    <path d="M 299.613818 131.584791 
L 299.613818 131.58479 
" clip-path="url(#p8e57b29faf)" style="fill: none; stroke: #3b0f70; stroke-width: 1.5"/>
    <path d="M 301.297009 130.709945 
L 301.297009 130.709943 
" clip-path="url(#p8e57b29faf)" style="fill: none; stroke: #3b0f70; stroke-width: 1.5"/>
   </g>
   <g id="line2d_15">
    <defs>
     <path id="mf753126e01" d="M 0 4 
C 1.060812 4 2.078319 3.578535 2.828427 2.828427 
C 3.578535 2.078319 4 1.060812 4 0 
C 4 -1.060812 3.578535 -2.078319 2.828427 -2.828427 
C 2.078319 -3.578535 1.060812 -4 0 -4 
C -1.060812 -4 -2.078319 -3.578535 -2.828427 -2.828427 
C -3.578535 -2.078319 -4 -1.060812 -4 0 
C -4 1.060812 -3.578535 2.078319 -2.828427 2.828427 
C -2.078319 3.578535 -1.060812 4 0 4 
z
" style="stroke: #3b0f70"/>
    </defs>
    <g clip-path="url(#p8e57b29faf)">
     <use xlink:href="#mf753126e01" x="221.582542" y="225.366073" style="fill: #ffffff; stroke: #3b0f70"/>
     <use xlink:href="#mf753126e01" x="121.55628" y="321.10287" style="fill: #ffffff; stroke: #3b0f70"/>
     <use xlink:href="#mf753126e01" x="122.089103" y="321.294418" style="fill: #ffffff; stroke: #3b0f70"/>
     <use xlink:href="#mf753126e01" x="122.266387" y="322.440972" style="fill: #ffffff; stroke: #3b0f70"/>
     <use xlink:href="#mf753126e01" x="122.757325" y="323.765133" style="fill: #ffffff; stroke: #3b0f70"/>
     <use xlink:href="#mf753126e01" x="125.837799" y="320.636811" style="fill: #ffffff; stroke: #3b0f70"/>
     <use xlink:href="#mf753126e01" x="100.931504" y="348.19684" style="fill: #ffffff; stroke: #3b0f70"/>
     <use xlink:href="#mf753126e01" x="101.118794" y="348.759005" style="fill: #ffffff; stroke: #3b0f70"/>
     <use xlink:href="#mf753126e01" x="101.162628" y="348.365109" style="fill: #ffffff; stroke: #3b0f70"/>
     <use xlink:href="#mf753126e01" x="101.501833" y="345.602441" style="fill: #ffffff; stroke: #3b0f70"/>
     <use xlink:href="#mf753126e01" x="278.755123" y="229.259151" style="fill: #ffffff; stroke: #3b0f70"/>
     <use xlink:href="#mf753126e01" x="278.71129" y="222.737368" style="fill: #ffffff; stroke: #3b0f70"/>
     <use xlink:href="#mf753126e01" x="272.267728" y="224.727982" style="fill: #ffffff; stroke: #3b0f70"/>
     <use xlink:href="#mf753126e01" x="190.824621" y="255.928748" style="fill: #ffffff; stroke: #3b0f70"/>
     <use xlink:href="#mf753126e01" x="190.810779" y="259.873515" style="fill: #ffffff; stroke: #3b0f70"/>
     <use xlink:href="#mf753126e01" x="190.649286" y="260.804193" style="fill: #ffffff; stroke: #3b0f70"/>
     <use xlink:href="#mf753126e01" x="191.133764" y="260.272406" style="fill: #ffffff; stroke: #3b0f70"/>
     <use xlink:href="#mf753126e01" x="153.585333" y="289.360579" style="fill: #ffffff; stroke: #3b0f70"/>
     <use xlink:href="#mf753126e01" x="155.183439" y="290.753467" style="fill: #ffffff; stroke: #3b0f70"/>
     <use xlink:href="#mf753126e01" x="154.17494" y="290.675892" style="fill: #ffffff; stroke: #3b0f70"/>
     <use xlink:href="#mf753126e01" x="154.511225" y="290.872457" style="fill: #ffffff; stroke: #3b0f70"/>
     <use xlink:href="#mf753126e01" x="299.613818" y="131.584791" style="fill: #ffffff; stroke: #3b0f70"/>
     <use xlink:href="#mf753126e01" x="301.297009" y="130.709944" style="fill: #ffffff; stroke: #3b0f70"/>
    </g>
   </g>
   <g id="LineCollection_3">
    <path d="M 226.544368 221.736809 
L 229.865696 221.736809 
" clip-path="url(#p8e57b29faf)" style="fill: none; stroke: #fe9f6d; stroke-width: 1.5"/>
    <path d="M 212.653825 225.70704 
L 234.916349 225.70704 
" clip-path="url(#p8e57b29faf)" style="fill: none; stroke: #fe9f6d; stroke-width: 1.5"/>
    <path d="M 225.480303 225.595135 
L 228.103125 225.595135 
" clip-path="url(#p8e57b29faf)" style="fill: none; stroke: #fe9f6d; stroke-width: 1.5"/>
    <path d="M 155.027154 288.917141 
L 155.714279 288.917141 
" clip-path="url(#p8e57b29faf)" style="fill: none; stroke: #fe9f6d; stroke-width: 1.5"/>
    <path d="M 155.41324 286.494568 
L 156.319524 286.494568 
" clip-path="url(#p8e57b29faf)" style="fill: none; stroke: #fe9f6d; stroke-width: 1.5"/>
    <path d="M 153.326912 289.290315 
L 154.448702 289.290315 
" clip-path="url(#p8e57b29faf)" style="fill: none; stroke: #fe9f6d; stroke-width: 1.5"/>
    <path d="M 108.588533 333.830682 
L 109.218298 333.830682 
" clip-path="url(#p8e57b29faf)" style="fill: none; stroke: #fe9f6d; stroke-width: 1.5"/>
    <path d="M 392.493441 63.860456 
L 395.03299 63.860456 
" clip-path="url(#p8e57b29faf)" style="fill: none; stroke: #fe9f6d; stroke-width: 1.5"/>
    <path d="M 391.031145 59.790248 
L 393.260302 59.790248 
" clip-path="url(#p8e57b29faf)" style="fill: none; stroke: #fe9f6d; stroke-width: 1.5"/>
    <path d="M 389.314889 68.208117 
L 390.924791 68.208117 
" clip-path="url(#p8e57b29faf)" style="fill: none; stroke: #fe9f6d; stroke-width: 1.5"/>
    <path clip-path="url(#p8e57b29faf)" style="fill: none; stroke: #fe9f6d; stroke-width: 1.5"/>
    <path clip-path="url(#p8e57b29faf)" style="fill: none; stroke: #fe9f6d; stroke-width: 1.5"/>
    <path clip-path="url(#p8e57b29faf)" style="fill: none; stroke: #fe9f6d; stroke-width: 1.5"/>
    <path clip-path="url(#p8e57b29faf)" style="fill: none; stroke: #fe9f6d; stroke-width: 1.5"/>
    <path clip-path="url(#p8e57b29faf)" style="fill: none; stroke: #fe9f6d; stroke-width: 1.5"/>
    <path clip-path="url(#p8e57b29faf)" style="fill: none; stroke: #fe9f6d; stroke-width: 1.5"/>
    <path clip-path="url(#p8e57b29faf)" style="fill: none; stroke: #fe9f6d; stroke-width: 1.5"/>
    <path clip-path="url(#p8e57b29faf)" style="fill: none; stroke: #fe9f6d; stroke-width: 1.5"/>
    <path clip-path="url(#p8e57b29faf)" style="fill: none; stroke: #fe9f6d; stroke-width: 1.5"/>
    <path clip-path="url(#p8e57b29faf)" style="fill: none; stroke: #fe9f6d; stroke-width: 1.5"/>
    <path clip-path="url(#p8e57b29faf)" style="fill: none; stroke: #fe9f6d; stroke-width: 1.5"/>
   </g>
   <g id="LineCollection_4">
    <path d="M 228.205032 221.73681 
L 228.205032 221.736808 
" clip-path="url(#p8e57b29faf)" style="fill: none; stroke: #fe9f6d; stroke-width: 1.5"/>
    <path d="M 223.785087 225.707041 
L 223.785087 225.70704 
" clip-path="url(#p8e57b29faf)" style="fill: none; stroke: #fe9f6d; stroke-width: 1.5"/>
    <path d="M 226.791714 225.595136 
L 226.791714 225.595134 
" clip-path="url(#p8e57b29faf)" style="fill: none; stroke: #fe9f6d; stroke-width: 1.5"/>
    <path d="M 155.370716 288.917142 
L 155.370716 288.91714 
" clip-path="url(#p8e57b29faf)" style="fill: none; stroke: #fe9f6d; stroke-width: 1.5"/>
    <path d="M 155.866382 286.494569 
L 155.866382 286.494567 
" clip-path="url(#p8e57b29faf)" style="fill: none; stroke: #fe9f6d; stroke-width: 1.5"/>
    <path d="M 153.887807 289.290316 
L 153.887807 289.290314 
" clip-path="url(#p8e57b29faf)" style="fill: none; stroke: #fe9f6d; stroke-width: 1.5"/>
    <path d="M 108.903415 333.830683 
L 108.903415 333.830681 
" clip-path="url(#p8e57b29faf)" style="fill: none; stroke: #fe9f6d; stroke-width: 1.5"/>
    <path d="M 393.763215 63.860457 
L 393.763215 63.860455 
" clip-path="url(#p8e57b29faf)" style="fill: none; stroke: #fe9f6d; stroke-width: 1.5"/>
    <path d="M 392.145724 59.790249 
L 392.145724 59.790248 
" clip-path="url(#p8e57b29faf)" style="fill: none; stroke: #fe9f6d; stroke-width: 1.5"/>
    <path d="M 390.11984 68.208118 
L 390.11984 68.208116 
" clip-path="url(#p8e57b29faf)" style="fill: none; stroke: #fe9f6d; stroke-width: 1.5"/>
    <path clip-path="url(#p8e57b29faf)" style="fill: none; stroke: #fe9f6d; stroke-width: 1.5"/>
    <path clip-path="url(#p8e57b29faf)" style="fill: none; stroke: #fe9f6d; stroke-width: 1.5"/>
    <path clip-path="url(#p8e57b29faf)" style="fill: none; stroke: #fe9f6d; stroke-width: 1.5"/>
    <path clip-path="url(#p8e57b29faf)" style="fill: none; stroke: #fe9f6d; stroke-width: 1.5"/>
    <path clip-path="url(#p8e57b29faf)" style="fill: none; stroke: #fe9f6d; stroke-width: 1.5"/>
    <path clip-path="url(#p8e57b29faf)" style="fill: none; stroke: #fe9f6d; stroke-width: 1.5"/>
    <path clip-path="url(#p8e57b29faf)" style="fill: none; stroke: #fe9f6d; stroke-width: 1.5"/>
    <path clip-path="url(#p8e57b29faf)" style="fill: none; stroke: #fe9f6d; stroke-width: 1.5"/>
    <path clip-path="url(#p8e57b29faf)" style="fill: none; stroke: #fe9f6d; stroke-width: 1.5"/>
    <path clip-path="url(#p8e57b29faf)" style="fill: none; stroke: #fe9f6d; stroke-width: 1.5"/>
    <path clip-path="url(#p8e57b29faf)" style="fill: none; stroke: #fe9f6d; stroke-width: 1.5"/>
   </g>
   <g id="line2d_16">
    <defs>
     <path id="m15287410fb" d="M -0 4 
L 4 -4 
L -4 -4 
z
" style="stroke: #fe9f6d; stroke-linejoin: miter"/>
    </defs>
    <g clip-path="url(#p8e57b29faf)">
     <use xlink:href="#m15287410fb" x="228.205032" y="221.736809" style="fill: #fe9f6d; stroke: #fe9f6d; stroke-linejoin: miter"/>
     <use xlink:href="#m15287410fb" x="223.785087" y="225.70704" style="fill: #fe9f6d; stroke: #fe9f6d; stroke-linejoin: miter"/>
     <use xlink:href="#m15287410fb" x="226.791714" y="225.595135" style="fill: #fe9f6d; stroke: #fe9f6d; stroke-linejoin: miter"/>
     <use xlink:href="#m15287410fb" x="155.370716" y="288.917141" style="fill: #fe9f6d; stroke: #fe9f6d; stroke-linejoin: miter"/>
     <use xlink:href="#m15287410fb" x="155.866382" y="286.494568" style="fill: #fe9f6d; stroke: #fe9f6d; stroke-linejoin: miter"/>
     <use xlink:href="#m15287410fb" x="153.887807" y="289.290315" style="fill: #fe9f6d; stroke: #fe9f6d; stroke-linejoin: miter"/>
     <use xlink:href="#m15287410fb" x="108.903415" y="333.830682" style="fill: #fe9f6d; stroke: #fe9f6d; stroke-linejoin: miter"/>
     <use xlink:href="#m15287410fb" x="393.763215" y="63.860456" style="fill: #fe9f6d; stroke: #fe9f6d; stroke-linejoin: miter"/>
     <use xlink:href="#m15287410fb" x="392.145724" y="59.790248" style="fill: #fe9f6d; stroke: #fe9f6d; stroke-linejoin: miter"/>
     <use xlink:href="#m15287410fb" x="390.11984" y="68.208117" style="fill: #fe9f6d; stroke: #fe9f6d; stroke-linejoin: miter"/>
     <use xlink:href="#m15287410fb" x="507.135575" y="-1" style="fill: #fe9f6d; stroke: #fe9f6d; stroke-linejoin: miter"/>
     <use xlink:href="#m15287410fb" x="543.71096" y="-1" style="fill: #fe9f6d; stroke: #fe9f6d; stroke-linejoin: miter"/>
     <use xlink:href="#m15287410fb" x="478.742036" y="37.445964" style="fill: #fe9f6d; stroke: #fe9f6d; stroke-linejoin: miter"/>
     <use xlink:href="#m15287410fb" x="468.803483" y="39.597966" style="fill: #fe9f6d; stroke: #fe9f6d; stroke-linejoin: miter"/>
     <use xlink:href="#m15287410fb" x="470.664235" y="39.968405" style="fill: #fe9f6d; stroke: #fe9f6d; stroke-linejoin: miter"/>
     <use xlink:href="#m15287410fb" x="529.677014" y="-1" style="fill: #fe9f6d; stroke: #fe9f6d; stroke-linejoin: miter"/>
    </g>
   </g>
   <g id="line2d_17"/>
   <g id="line2d_18"/>
   <g id="patch_3">
    <path d="M 75.368 367.72 
L 75.368 27 
" style="fill: none; stroke: #000000; stroke-width: 0.8; stroke-linejoin: miter; stroke-linecap: square"/>
   </g>
   <g id="patch_4">
    <path d="M 75.368 367.72 
L 402.66 367.72 
" style="fill: none; stroke: #000000; stroke-width: 0.8; stroke-linejoin: miter; stroke-linecap: square"/>
   </g>
   <g id="legend_1">
    <g id="line2d_19">
     <g>
      <use xlink:href="#mf753126e01" x="98.168" y="42.6" style="fill: #ffffff; stroke: #3b0f70"/>
     </g>
    </g>
    <g id="text_16">
     <!-- No damage in the REBCO layer (150 keV) -->
     <g transform="translate(119.768 46.8) scale(0.12 -0.12)">
      <defs>
       <path id="CenturyGothic-4e" d="M 563 0 
L 563 4597 
L 663 4597 
L 3719 1078 
L 3719 4597 
L 4172 4597 
L 4172 0 
L 4069 0 
L 1038 3475 
L 1038 0 
L 563 0 
z
" transform="scale(0.015625)"/>
       <path id="CenturyGothic-64" d="M 3881 4713 
L 3881 0 
L 3450 0 
L 3450 584 
Q 3175 250 2833 81 
Q 2491 -88 2084 -88 
Q 1363 -88 852 435 
Q 341 959 341 1709 
Q 341 2444 856 2966 
Q 1372 3488 2097 3488 
Q 2516 3488 2855 3309 
Q 3194 3131 3450 2775 
L 3450 4713 
L 3881 4713 
z
M 2131 3066 
Q 1766 3066 1456 2886 
Q 1147 2706 964 2381 
Q 781 2056 781 1694 
Q 781 1334 965 1006 
Q 1150 678 1461 495 
Q 1772 313 2128 313 
Q 2488 313 2809 494 
Q 3131 675 3304 984 
Q 3478 1294 3478 1681 
Q 3478 2272 3089 2669 
Q 2700 3066 2131 3066 
z
" transform="scale(0.015625)"/>
       <path id="CenturyGothic-67" d="M 3416 3400 
L 3856 3400 
L 3856 691 
Q 3856 -25 3731 -356 
Q 3559 -825 3134 -1078 
Q 2709 -1331 2113 -1331 
Q 1675 -1331 1326 -1207 
Q 978 -1084 759 -876 
Q 541 -669 356 -269 
L 831 -269 
Q 1025 -606 1331 -768 
Q 1638 -931 2091 -931 
Q 2538 -931 2845 -764 
Q 3153 -597 3284 -344 
Q 3416 -91 3416 472 
L 3416 647 
Q 3169 334 2812 167 
Q 2456 0 2056 0 
Q 1588 0 1175 233 
Q 763 466 538 859 
Q 313 1253 313 1725 
Q 313 2197 547 2605 
Q 781 3013 1195 3250 
Q 1609 3488 2069 3488 
Q 2450 3488 2779 3330 
Q 3109 3172 3416 2809 
L 3416 3400 
z
M 2125 3066 
Q 1753 3066 1434 2886 
Q 1116 2706 934 2389 
Q 753 2072 753 1703 
Q 753 1144 1128 778 
Q 1503 413 2100 413 
Q 2703 413 3070 775 
Q 3438 1138 3438 1728 
Q 3438 2113 3269 2414 
Q 3100 2716 2790 2891 
Q 2481 3066 2125 3066 
z
" transform="scale(0.015625)"/>
       <path id="CenturyGothic-74" d="M 869 4663 
L 1309 4663 
L 1309 3400 
L 2003 3400 
L 2003 3025 
L 1309 3025 
L 1309 0 
L 869 0 
L 869 3025 
L 272 3025 
L 272 3400 
L 869 3400 
L 869 4663 
z
" transform="scale(0.015625)"/>
       <path id="CenturyGothic-68" d="M 488 4713 
L 925 4713 
L 925 2791 
Q 1191 3141 1509 3314 
Q 1828 3488 2200 3488 
Q 2581 3488 2876 3294 
Q 3172 3100 3312 2773 
Q 3453 2447 3453 1750 
L 3453 0 
L 3016 0 
L 3016 1622 
Q 3016 2209 2969 2406 
Q 2888 2744 2673 2914 
Q 2459 3084 2113 3084 
Q 1716 3084 1402 2821 
Q 1088 2559 988 2172 
Q 925 1922 925 1247 
L 925 0 
L 488 0 
L 488 4713 
z
" transform="scale(0.015625)"/>
       <path id="CenturyGothic-52" d="M 584 4597 
L 1500 4597 
Q 2266 4597 2538 4534 
Q 2947 4441 3203 4133 
Q 3459 3825 3459 3375 
Q 3459 3000 3282 2715 
Q 3106 2431 2778 2286 
Q 2450 2141 1872 2138 
L 3525 0 
L 2956 0 
L 1306 2138 
L 1044 2138 
L 1044 0 
L 584 0 
L 584 4597 
z
M 1044 4147 
L 1044 2584 
L 1834 2578 
Q 2294 2578 2514 2665 
Q 2734 2753 2857 2945 
Q 2981 3138 2981 3375 
Q 2981 3606 2856 3795 
Q 2731 3984 2528 4065 
Q 2325 4147 1853 4147 
L 1044 4147 
z
" transform="scale(0.015625)"/>
       <path id="CenturyGothic-45" d="M 563 4597 
L 3197 4597 
L 3197 4144 
L 1022 4144 
L 1022 2706 
L 3178 2706 
L 3178 2256 
L 1022 2256 
L 1022 453 
L 3178 453 
L 3178 0 
L 563 0 
L 563 4597 
z
" transform="scale(0.015625)"/>
       <path id="CenturyGothic-43" d="M 4841 3744 
L 4478 3466 
Q 4178 3856 3758 4057 
Q 3338 4259 2834 4259 
Q 2284 4259 1815 3995 
Q 1347 3731 1089 3286 
Q 831 2841 831 2284 
Q 831 1444 1407 881 
Q 1984 319 2863 319 
Q 3828 319 4478 1075 
L 4841 800 
Q 4497 363 3983 123 
Q 3469 -116 2834 -116 
Q 1628 -116 931 688 
Q 347 1366 347 2325 
Q 347 3334 1055 4023 
Q 1763 4713 2828 4713 
Q 3472 4713 3990 4458 
Q 4509 4203 4841 3744 
z
" transform="scale(0.015625)"/>
       <path id="CenturyGothic-4f" d="M 2750 4713 
Q 3794 4713 4497 4016 
Q 5200 3319 5200 2300 
Q 5200 1291 4498 587 
Q 3797 -116 2788 -116 
Q 1766 -116 1062 584 
Q 359 1284 359 2278 
Q 359 2941 679 3506 
Q 1000 4072 1553 4392 
Q 2106 4713 2750 4713 
z
M 2772 4263 
Q 2263 4263 1806 3997 
Q 1350 3731 1094 3281 
Q 838 2831 838 2278 
Q 838 1459 1405 895 
Q 1972 331 2772 331 
Q 3306 331 3761 590 
Q 4216 850 4470 1300 
Q 4725 1750 4725 2300 
Q 4725 2847 4470 3289 
Q 4216 3731 3753 3997 
Q 3291 4263 2772 4263 
z
" transform="scale(0.015625)"/>
       <path id="CenturyGothic-6c" d="M 422 4713 
L 859 4713 
L 859 0 
L 422 0 
L 422 4713 
z
" transform="scale(0.015625)"/>
       <path id="CenturyGothic-79" d="M 122 3400 
L 584 3400 
L 1753 781 
L 2888 3400 
L 3353 3400 
L 1325 -1244 
L 863 -1244 
L 1519 256 
L 122 3400 
z
" transform="scale(0.015625)"/>
       <path id="CenturyGothic-28" d="M 1469 4800 
L 1975 4800 
Q 1669 4172 1484 3334 
Q 1300 2497 1300 1606 
Q 1300 781 1439 15 
Q 1578 -750 1822 -1331 
L 1341 -1331 
Q 1109 -775 971 -22 
Q 834 731 834 1547 
Q 834 2425 996 3258 
Q 1159 4091 1469 4800 
z
" transform="scale(0.015625)"/>
       <path id="CenturyGothic-6b" d="M 484 4713 
L 925 4713 
L 925 2031 
L 2497 3400 
L 3141 3400 
L 1275 1778 
L 3250 0 
L 2631 0 
L 925 1528 
L 925 0 
L 484 0 
L 484 4713 
z
" transform="scale(0.015625)"/>
       <path id="CenturyGothic-56" d="M 209 4597 
L 709 4597 
L 2231 1044 
L 3781 4597 
L 4281 4597 
L 2281 0 
L 2181 0 
L 209 4597 
z
" transform="scale(0.015625)"/>
       <path id="CenturyGothic-29" d="M 894 -1331 
L 388 -1331 
Q 697 -703 880 134 
Q 1063 972 1063 1863 
Q 1063 2688 923 3453 
Q 784 4219 541 4800 
L 1022 4800 
Q 1256 4244 1392 3489 
Q 1528 2734 1528 1919 
Q 1528 1044 1365 211 
Q 1203 -622 894 -1331 
z
" transform="scale(0.015625)"/>
      </defs>
      <use xlink:href="#CenturyGothic-4e"/>
      <use xlink:href="#CenturyGothic-6f" x="73.974609"/>
      <use xlink:href="#CenturyGothic-20" x="139.453125"/>
      <use xlink:href="#CenturyGothic-64" x="167.138672"/>
      <use xlink:href="#CenturyGothic-61" x="235.644531"/>
      <use xlink:href="#CenturyGothic-6d" x="303.955078"/>
      <use xlink:href="#CenturyGothic-61" x="397.753906"/>
      <use xlink:href="#CenturyGothic-67" x="466.064453"/>
      <use xlink:href="#CenturyGothic-65" x="533.349609"/>
      <use xlink:href="#CenturyGothic-20" x="598.339844"/>
      <use xlink:href="#CenturyGothic-69" x="626.025391"/>
      <use xlink:href="#CenturyGothic-6e" x="646.044922"/>
      <use xlink:href="#CenturyGothic-20" x="707.03125"/>
      <use xlink:href="#CenturyGothic-74" x="734.716797"/>
      <use xlink:href="#CenturyGothic-68" x="768.603516"/>
      <use xlink:href="#CenturyGothic-65" x="829.589844"/>
      <use xlink:href="#CenturyGothic-20" x="894.580078"/>
      <use xlink:href="#CenturyGothic-52" x="922.265625"/>
      <use xlink:href="#CenturyGothic-45" x="982.958984"/>
      <use xlink:href="#CenturyGothic-42" x="1036.572266"/>
      <use xlink:href="#CenturyGothic-43" x="1093.994141"/>
      <use xlink:href="#CenturyGothic-4f" x="1175.292969"/>
      <use xlink:href="#CenturyGothic-20" x="1262.207031"/>
      <use xlink:href="#CenturyGothic-6c" x="1289.892578"/>
      <use xlink:href="#CenturyGothic-61" x="1309.912109"/>
      <use xlink:href="#CenturyGothic-79" x="1378.222656"/>
      <use xlink:href="#CenturyGothic-65" x="1431.835938"/>
      <use xlink:href="#CenturyGothic-72" x="1496.826172"/>
      <use xlink:href="#CenturyGothic-20" x="1526.904297"/>
      <use xlink:href="#CenturyGothic-28" x="1554.589844"/>
      <use xlink:href="#CenturyGothic-31" x="1591.503906"/>
      <use xlink:href="#CenturyGothic-35" x="1646.923828"/>
      <use xlink:href="#CenturyGothic-30" x="1702.34375"/>
      <use xlink:href="#CenturyGothic-20" x="1757.763672"/>
      <use xlink:href="#CenturyGothic-6b" x="1785.449219"/>
      <use xlink:href="#CenturyGothic-65" x="1835.644531"/>
      <use xlink:href="#CenturyGothic-56" x="1900.634766"/>
      <use xlink:href="#CenturyGothic-29" x="1970.849609"/>
     </g>
    </g>
    <g id="line2d_20">
     <g>
      <use xlink:href="#m15287410fb" x="98.168" y="61.895625" style="fill: #fe9f6d; stroke: #fe9f6d; stroke-linejoin: miter"/>
     </g>
    </g>
    <g id="text_17">
     <!-- 4 x $\mathrm{10^{-5}}$ mdpa/s in REBCO (2400 keV) -->
     <g transform="translate(119.768 66.095625) scale(0.12 -0.12)">
      <defs>
       <path id="CenturyGothic-78" d="M 100 3400 
L 625 3400 
L 1525 2141 
L 2425 3400 
L 2950 3400 
L 1788 1784 
L 3097 0 
L 2566 0 
L 1525 1428 
L 500 0 
L -22 0 
L 1266 1784 
L 100 3400 
z
" transform="scale(0.015625)"/>
       <path id="DejaVuSans-30" d="M 2034 4250 
Q 1547 4250 1301 3770 
Q 1056 3291 1056 2328 
Q 1056 1369 1301 889 
Q 1547 409 2034 409 
Q 2525 409 2770 889 
Q 3016 1369 3016 2328 
Q 3016 3291 2770 3770 
Q 2525 4250 2034 4250 
z
M 2034 4750 
Q 2819 4750 3233 4129 
Q 3647 3509 3647 2328 
Q 3647 1150 3233 529 
Q 2819 -91 2034 -91 
Q 1250 -91 836 529 
Q 422 1150 422 2328 
Q 422 3509 836 4129 
Q 1250 4750 2034 4750 
z
" transform="scale(0.015625)"/>
       <path id="DejaVuSans-35" d="M 691 4666 
L 3169 4666 
L 3169 4134 
L 1269 4134 
L 1269 2991 
Q 1406 3038 1543 3061 
Q 1681 3084 1819 3084 
Q 2600 3084 3056 2656 
Q 3513 2228 3513 1497 
Q 3513 744 3044 326 
Q 2575 -91 1722 -91 
Q 1428 -91 1123 -41 
Q 819 9 494 109 
L 494 744 
Q 775 591 1075 516 
Q 1375 441 1709 441 
Q 2250 441 2565 725 
Q 2881 1009 2881 1497 
Q 2881 1984 2565 2268 
Q 2250 2553 1709 2553 
Q 1456 2553 1204 2497 
Q 953 2441 691 2322 
L 691 4666 
z
" transform="scale(0.015625)"/>
       <path id="CenturyGothic-2f" d="M 2613 4713 
L 703 -625 
L 225 -625 
L 2131 4713 
L 2613 4713 
z
" transform="scale(0.015625)"/>
      </defs>
      <use xlink:href="#CenturyGothic-34" transform="translate(0 0.684375)"/>
      <use xlink:href="#CenturyGothic-20" transform="translate(55.419922 0.684375)"/>
      <use xlink:href="#CenturyGothic-78" transform="translate(83.105469 0.684375)"/>
      <use xlink:href="#CenturyGothic-20" transform="translate(131.103516 0.684375)"/>
      <use xlink:href="#DejaVuSans-31" transform="translate(158.789062 0.684375)"/>
      <use xlink:href="#DejaVuSans-30" transform="translate(222.412109 0.684375)"/>
      <use xlink:href="#DejaVuSans-2212" transform="translate(286.992188 38.965625) scale(0.7)"/>
      <use xlink:href="#DejaVuSans-35" transform="translate(345.644531 38.965625) scale(0.7)"/>
      <use xlink:href="#CenturyGothic-20" transform="translate(392.915039 0.684375)"/>
      <use xlink:href="#CenturyGothic-6d" transform="translate(420.600586 0.684375)"/>
      <use xlink:href="#CenturyGothic-64" transform="translate(514.399414 0.684375)"/>
      <use xlink:href="#CenturyGothic-70" transform="translate(582.905273 0.684375)"/>
      <use xlink:href="#CenturyGothic-61" transform="translate(651.118164 0.684375)"/>
      <use xlink:href="#CenturyGothic-2f" transform="translate(719.428711 0.684375)"/>
      <use xlink:href="#CenturyGothic-73" transform="translate(763.129883 0.684375)"/>
      <use xlink:href="#CenturyGothic-20" transform="translate(801.948242 0.684375)"/>
      <use xlink:href="#CenturyGothic-69" transform="translate(829.633789 0.684375)"/>
      <use xlink:href="#CenturyGothic-6e" transform="translate(849.65332 0.684375)"/>
      <use xlink:href="#CenturyGothic-20" transform="translate(910.639648 0.684375)"/>
      <use xlink:href="#CenturyGothic-52" transform="translate(938.325195 0.684375)"/>
      <use xlink:href="#CenturyGothic-45" transform="translate(999.018555 0.684375)"/>
      <use xlink:href="#CenturyGothic-42" transform="translate(1052.631836 0.684375)"/>
      <use xlink:href="#CenturyGothic-43" transform="translate(1110.053711 0.684375)"/>
      <use xlink:href="#CenturyGothic-4f" transform="translate(1191.352539 0.684375)"/>
      <use xlink:href="#CenturyGothic-20" transform="translate(1278.266602 0.684375)"/>
      <use xlink:href="#CenturyGothic-28" transform="translate(1305.952148 0.684375)"/>
      <use xlink:href="#CenturyGothic-32" transform="translate(1342.866211 0.684375)"/>
      <use xlink:href="#CenturyGothic-34" transform="translate(1398.286133 0.684375)"/>
      <use xlink:href="#CenturyGothic-30" transform="translate(1453.706055 0.684375)"/>
      <use xlink:href="#CenturyGothic-30" transform="translate(1509.125977 0.684375)"/>
      <use xlink:href="#CenturyGothic-20" transform="translate(1564.545898 0.684375)"/>
      <use xlink:href="#CenturyGothic-6b" transform="translate(1592.231445 0.684375)"/>
      <use xlink:href="#CenturyGothic-65" transform="translate(1642.426758 0.684375)"/>
      <use xlink:href="#CenturyGothic-56" transform="translate(1707.416992 0.684375)"/>
      <use xlink:href="#CenturyGothic-29" transform="translate(1777.631836 0.684375)"/>
     </g>
    </g>
   </g>
  </g>
 </g>
 <defs>
  <clipPath id="p8e57b29faf">
   <rect x="75.368" y="27" width="327.292" height="340.72"/>
  </clipPath>
 </defs>
</svg>
