<?xml version="1.0" encoding="utf-8" standalone="no"?>
<!DOCTYPE svg PUBLIC "-//W3C//DTD SVG 1.1//EN"
  "http://www.w3.org/Graphics/SVG/1.1/DTD/svg11.dtd">
<svg xmlns:xlink="http://www.w3.org/1999/xlink" width="576pt" height="288pt" viewBox="0 0 576 288" xmlns="http://www.w3.org/2000/svg" version="1.1">
 <metadata>
  <rdf:RDF xmlns:dc="http://purl.org/dc/elements/1.1/" xmlns:cc="http://creativecommons.org/ns#" xmlns:rdf="http://www.w3.org/1999/02/22-rdf-syntax-ns#">
   <cc:Work>
    <dc:type rdf:resource="http://purl.org/dc/dcmitype/StillImage"/>
    <dc:date>2024-09-30T00:03:24.755645</dc:date>
    <dc:format>image/svg+xml</dc:format>
    <dc:creator>
     <cc:Agent>
      <dc:title>Matplotlib v3.7.2, https://matplotlib.org/</dc:title>
     </cc:Agent>
    </dc:creator>
   </cc:Work>
  </rdf:RDF>
 </metadata>
 <defs>
  <style type="text/css">*{stroke-linejoin: round; stroke-linecap: butt}</style>
 </defs>
 <g id="figure_1">
  <g id="patch_1">
   <path d="M 0 288 
L 576 288 
L 576 0 
L 0 0 
L 0 288 
z
" style="fill: none"/>
  </g>
  <g id="axes_1">
   <g id="patch_2">
    <path d="M 44.08 206.9868 
L 554.4 206.9868 
L 554.4 21.6 
L 44.08 21.6 
L 44.08 206.9868 
z
" style="fill: none"/>
   </g>
   <g id="patch_3">
    <path d="M 113.128802 206.9868 
L 124.203688 206.9868 
L 124.203688 204.139076 
L 113.128802 204.139076 
z
" clip-path="url(#pf2e14d02e7)" style="fill: #1f77b4"/>
   </g>
   <g id="patch_4">
    <path d="M 124.203688 206.9868 
L 135.278575 206.9868 
L 135.278575 195.595906 
L 124.203688 195.595906 
z
" clip-path="url(#pf2e14d02e7)" style="fill: #1f77b4"/>
   </g>
   <g id="patch_5">
    <path d="M 135.278575 206.9868 
L 146.353461 206.9868 
L 146.353461 201.291353 
L 135.278575 201.291353 
z
" clip-path="url(#pf2e14d02e7)" style="fill: #1f77b4"/>
   </g>
   <g id="patch_6">
    <path d="M 146.353461 206.9868 
L 157.428347 206.9868 
L 157.428347 187.052735 
L 146.353461 187.052735 
z
" clip-path="url(#pf2e14d02e7)" style="fill: #1f77b4"/>
   </g>
   <g id="patch_7">
    <path d="M 157.428347 206.9868 
L 168.503233 206.9868 
L 168.503233 187.052735 
L 157.428347 187.052735 
z
" clip-path="url(#pf2e14d02e7)" style="fill: #1f77b4"/>
   </g>
   <g id="patch_8">
    <path d="M 168.503233 206.9868 
L 179.578119 206.9868 
L 179.578119 175.661841 
L 168.503233 175.661841 
z
" clip-path="url(#pf2e14d02e7)" style="fill: #1f77b4"/>
   </g>
   <g id="patch_9">
    <path d="M 179.578119 206.9868 
L 190.653005 206.9868 
L 190.653005 144.336883 
L 179.578119 144.336883 
z
" clip-path="url(#pf2e14d02e7)" style="fill: #1f77b4"/>
   </g>
   <g id="patch_10">
    <path d="M 190.653005 206.9868 
L 201.727891 206.9868 
L 201.727891 124.402818 
L 190.653005 124.402818 
z
" clip-path="url(#pf2e14d02e7)" style="fill: #1f77b4"/>
   </g>
   <g id="patch_11">
    <path d="M 201.727891 206.9868 
L 212.802777 206.9868 
L 212.802777 115.859648 
L 201.727891 115.859648 
z
" clip-path="url(#pf2e14d02e7)" style="fill: #1f77b4"/>
   </g>
   <g id="patch_12">
    <path d="M 212.802777 206.9868 
L 223.877664 206.9868 
L 223.877664 93.07786 
L 212.802777 93.07786 
z
" clip-path="url(#pf2e14d02e7)" style="fill: #1f77b4"/>
   </g>
   <g id="patch_13">
    <path d="M 223.877664 206.9868 
L 234.95255 206.9868 
L 234.95255 115.859648 
L 223.877664 115.859648 
z
" clip-path="url(#pf2e14d02e7)" style="fill: #1f77b4"/>
   </g>
   <g id="patch_14">
    <path d="M 234.95255 206.9868 
L 246.027436 206.9868 
L 246.027436 36.12339 
L 234.95255 36.12339 
z
" clip-path="url(#pf2e14d02e7)" style="fill: #1f77b4"/>
   </g>
   <g id="patch_15">
    <path d="M 246.027436 206.9868 
L 257.102322 206.9868 
L 257.102322 70.296072 
L 246.027436 70.296072 
z
" clip-path="url(#pf2e14d02e7)" style="fill: #1f77b4"/>
   </g>
   <g id="patch_16">
    <path d="M 257.102322 206.9868 
L 268.177208 206.9868 
L 268.177208 73.143795 
L 257.102322 73.143795 
z
" clip-path="url(#pf2e14d02e7)" style="fill: #1f77b4"/>
   </g>
   <g id="patch_17">
    <path d="M 268.177208 206.9868 
L 279.252094 206.9868 
L 279.252094 30.427943 
L 268.177208 30.427943 
z
" clip-path="url(#pf2e14d02e7)" style="fill: #1f77b4"/>
   </g>
   <g id="patch_18">
    <path d="M 279.252094 206.9868 
L 290.32698 206.9868 
L 290.32698 104.468754 
L 279.252094 104.468754 
z
" clip-path="url(#pf2e14d02e7)" style="fill: #1f77b4"/>
   </g>
   <g id="patch_19">
    <path d="M 290.32698 206.9868 
L 301.401866 206.9868 
L 301.401866 67.448348 
L 290.32698 67.448348 
z
" clip-path="url(#pf2e14d02e7)" style="fill: #1f77b4"/>
   </g>
   <g id="patch_20">
    <path d="M 301.401866 206.9868 
L 312.476752 206.9868 
L 312.476752 121.555095 
L 301.401866 121.555095 
z
" clip-path="url(#pf2e14d02e7)" style="fill: #1f77b4"/>
   </g>
   <g id="patch_21">
    <path d="M 312.476752 206.9868 
L 323.551639 206.9868 
L 323.551639 110.164201 
L 312.476752 110.164201 
z
" clip-path="url(#pf2e14d02e7)" style="fill: #1f77b4"/>
   </g>
   <g id="patch_22">
    <path d="M 323.551639 206.9868 
L 334.626525 206.9868 
L 334.626525 135.793712 
L 323.551639 135.793712 
z
" clip-path="url(#pf2e14d02e7)" style="fill: #1f77b4"/>
   </g>
   <g id="patch_23">
    <path d="M 334.626525 206.9868 
L 345.701411 206.9868 
L 345.701411 121.555095 
L 334.626525 121.555095 
z
" clip-path="url(#pf2e14d02e7)" style="fill: #1f77b4"/>
   </g>
   <g id="patch_24">
    <path d="M 345.701411 206.9868 
L 356.776297 206.9868 
L 356.776297 161.423224 
L 345.701411 161.423224 
z
" clip-path="url(#pf2e14d02e7)" style="fill: #1f77b4"/>
   </g>
   <g id="patch_25">
    <path d="M 356.776297 206.9868 
L 367.851183 206.9868 
L 367.851183 189.900459 
L 356.776297 189.900459 
z
" clip-path="url(#pf2e14d02e7)" style="fill: #1f77b4"/>
   </g>
   <g id="patch_26">
    <path d="M 367.851183 206.9868 
L 378.926069 206.9868 
L 378.926069 184.205012 
L 367.851183 184.205012 
z
" clip-path="url(#pf2e14d02e7)" style="fill: #1f77b4"/>
   </g>
   <g id="patch_27">
    <path d="M 378.926069 206.9868 
L 390.000955 206.9868 
L 390.000955 189.900459 
L 378.926069 189.900459 
z
" clip-path="url(#pf2e14d02e7)" style="fill: #1f77b4"/>
   </g>
   <g id="patch_28">
    <path d="M 390.000955 206.9868 
L 401.075841 206.9868 
L 401.075841 201.291353 
L 390.000955 201.291353 
z
" clip-path="url(#pf2e14d02e7)" style="fill: #1f77b4"/>
   </g>
   <g id="patch_29">
    <path d="M 401.075841 206.9868 
L 412.150728 206.9868 
L 412.150728 192.748182 
L 401.075841 192.748182 
z
" clip-path="url(#pf2e14d02e7)" style="fill: #1f77b4"/>
   </g>
   <g id="patch_30">
    <path d="M 412.150728 206.9868 
L 423.225614 206.9868 
L 423.225614 204.139076 
L 412.150728 204.139076 
z
" clip-path="url(#pf2e14d02e7)" style="fill: #1f77b4"/>
   </g>
   <g id="patch_31">
    <path d="M 423.225614 206.9868 
L 434.3005 206.9868 
L 434.3005 204.139076 
L 423.225614 204.139076 
z
" clip-path="url(#pf2e14d02e7)" style="fill: #1f77b4"/>
   </g>
   <g id="patch_32">
    <path d="M 434.3005 206.9868 
L 445.375386 206.9868 
L 445.375386 204.139076 
L 434.3005 204.139076 
z
" clip-path="url(#pf2e14d02e7)" style="fill: #1f77b4"/>
   </g>
   <g id="matplotlib.axis_1">
    <g id="xtick_1">
     <g id="line2d_1">
      <defs>
       <path id="m50973b3450" d="M 0 0 
L 0 3.5 
" style="stroke: #000000; stroke-width: 0.8"/>
      </defs>
      <g>
       <use xlink:href="#m50973b3450" x="95.112" y="206.9868" style="stroke: #000000; stroke-width: 0.8"/>
      </g>
     </g>
     <g id="text_1">
      <!-- 8 -->
      <g transform="translate(91.232469 224.296488) scale(0.14 -0.14)">
       <defs>
        <path id="CenturyGothic-38" d="M 2459 2522 
Q 2925 2291 3126 1994 
Q 3328 1697 3328 1319 
Q 3328 788 2981 381 
Q 2556 -116 1766 -116 
Q 1003 -116 609 320 
Q 216 756 216 1281 
Q 216 1666 422 1973 
Q 628 2281 1109 2522 
Q 772 2697 603 2956 
Q 434 3216 434 3513 
Q 434 3813 614 4098 
Q 794 4384 1111 4548 
Q 1428 4713 1797 4713 
Q 2156 4713 2462 4547 
Q 2769 4381 2942 4097 
Q 3116 3813 3116 3500 
Q 3116 3188 2952 2944 
Q 2788 2700 2459 2522 
z
M 1775 4266 
Q 1397 4266 1148 4042 
Q 900 3819 900 3509 
Q 900 3203 1167 2954 
Q 1434 2706 1791 2706 
Q 2019 2706 2222 2818 
Q 2425 2931 2539 3126 
Q 2653 3322 2653 3519 
Q 2653 3797 2428 4031 
Q 2203 4266 1775 4266 
z
M 1797 2291 
Q 1322 2291 1000 1983 
Q 678 1675 678 1266 
Q 678 1013 815 788 
Q 953 563 1200 441 
Q 1447 319 1772 319 
Q 2275 319 2572 616 
Q 2869 913 2869 1309 
Q 2869 1694 2555 1992 
Q 2241 2291 1797 2291 
z
" transform="scale(0.015625)"/>
       </defs>
       <use xlink:href="#CenturyGothic-38"/>
      </g>
     </g>
    </g>
    <g id="xtick_2">
     <g id="line2d_2">
      <g>
       <use xlink:href="#m50973b3450" x="197.176" y="206.9868" style="stroke: #000000; stroke-width: 0.8"/>
      </g>
     </g>
     <g id="text_2">
      <!-- 10 -->
      <g transform="translate(189.416937 224.296488) scale(0.14 -0.14)">
       <defs>
        <path id="CenturyGothic-31" d="M 1184 4597 
L 2088 4597 
L 2088 0 
L 1631 0 
L 1631 4147 
L 909 4147 
L 1184 4597 
z
" transform="scale(0.015625)"/>
        <path id="CenturyGothic-30" d="M 203 2297 
Q 203 3206 398 3703 
Q 594 4200 950 4456 
Q 1306 4713 1747 4713 
Q 2194 4713 2556 4455 
Q 2919 4197 3130 3681 
Q 3341 3166 3341 2297 
Q 3341 1431 3133 918 
Q 2925 406 2559 145 
Q 2194 -116 1747 -116 
Q 1306 -116 953 137 
Q 600 391 401 892 
Q 203 1394 203 2297 
z
M 638 2288 
Q 638 1509 777 1111 
Q 916 713 1187 506 
Q 1459 300 1763 300 
Q 2069 300 2334 501 
Q 2600 703 2738 1106 
Q 2909 1597 2909 2288 
Q 2909 2981 2756 3423 
Q 2603 3866 2333 4070 
Q 2063 4275 1763 4275 
Q 1456 4275 1187 4070 
Q 919 3866 778 3467 
Q 638 3069 638 2288 
z
" transform="scale(0.015625)"/>
       </defs>
       <use xlink:href="#CenturyGothic-31"/>
       <use xlink:href="#CenturyGothic-30" x="55.419922"/>
      </g>
     </g>
    </g>
    <g id="xtick_3">
     <g id="line2d_3">
      <g>
       <use xlink:href="#m50973b3450" x="299.24" y="206.9868" style="stroke: #000000; stroke-width: 0.8"/>
      </g>
     </g>
     <g id="text_3">
      <!-- 12 -->
      <g transform="translate(291.480937 224.296488) scale(0.14 -0.14)">
       <defs>
        <path id="CenturyGothic-32" d="M 741 3156 
L 300 3156 
Q 319 3838 755 4275 
Q 1191 4713 1831 4713 
Q 2466 4713 2858 4303 
Q 3250 3894 3250 3338 
Q 3250 2947 3062 2605 
Q 2875 2263 2334 1678 
L 1191 444 
L 3313 444 
L 3313 0 
L 191 0 
L 1947 1897 
Q 2481 2469 2642 2745 
Q 2803 3022 2803 3328 
Q 2803 3716 2514 3995 
Q 2225 4275 1806 4275 
Q 1366 4275 1073 3981 
Q 781 3688 741 3156 
z
" transform="scale(0.015625)"/>
       </defs>
       <use xlink:href="#CenturyGothic-31"/>
       <use xlink:href="#CenturyGothic-32" x="55.419922"/>
      </g>
     </g>
    </g>
    <g id="xtick_4">
     <g id="line2d_4">
      <g>
       <use xlink:href="#m50973b3450" x="401.304" y="206.9868" style="stroke: #000000; stroke-width: 0.8"/>
      </g>
     </g>
     <g id="text_4">
      <!-- 14 -->
      <g transform="translate(393.544938 224.296488) scale(0.14 -0.14)">
       <defs>
        <path id="CenturyGothic-34" d="M 2725 4713 
L 2819 4713 
L 2819 1509 
L 3375 1509 
L 3375 1069 
L 2819 1069 
L 2819 0 
L 2359 0 
L 2359 1069 
L 163 1069 
L 2725 4713 
z
M 2359 1509 
L 2359 3425 
L 1006 1509 
L 2359 1509 
z
" transform="scale(0.015625)"/>
       </defs>
       <use xlink:href="#CenturyGothic-31"/>
       <use xlink:href="#CenturyGothic-34" x="55.419922"/>
      </g>
     </g>
    </g>
    <g id="xtick_5">
     <g id="line2d_5">
      <g>
       <use xlink:href="#m50973b3450" x="503.368" y="206.9868" style="stroke: #000000; stroke-width: 0.8"/>
      </g>
     </g>
     <g id="text_5">
      <!-- 16 -->
      <g transform="translate(495.608937 224.296488) scale(0.14 -0.14)">
       <defs>
        <path id="CenturyGothic-36" d="M 2347 4713 
L 2725 4466 
L 1484 2584 
Q 1734 2669 1953 2669 
Q 2500 2669 2881 2273 
Q 3263 1878 3263 1300 
Q 3263 903 3078 583 
Q 2894 263 2555 73 
Q 2216 -116 1825 -116 
Q 1447 -116 1123 67 
Q 800 250 615 581 
Q 431 913 431 1291 
Q 431 1572 545 1883 
Q 659 2194 953 2631 
L 2347 4713 
z
M 1844 2266 
Q 1444 2266 1161 1983 
Q 878 1700 878 1297 
Q 878 897 1161 614 
Q 1444 331 1844 331 
Q 2244 331 2526 614 
Q 2809 897 2809 1297 
Q 2809 1700 2526 1983 
Q 2244 2266 1844 2266 
z
" transform="scale(0.015625)"/>
       </defs>
       <use xlink:href="#CenturyGothic-31"/>
       <use xlink:href="#CenturyGothic-36" x="55.419922"/>
      </g>
     </g>
    </g>
    <g id="text_6">
     <!-- $\mathrm{\frac{\rho_{ffj28}}{\rho}  \cdot \frac{36}{P_b} \cdot \left( T_{REBCO} - T_{Coldmass} \right)}$ [K] -->
     <g transform="translate(150.74 252.017738) scale(0.2 -0.2)">
      <defs>
       <path id="DejaVuSans-3c1" d="M 863 2875 
Q 1053 3194 1525 3475 
Q 1709 3584 2278 3584 
Q 2916 3584 3314 3078 
Q 3713 2572 3713 1747 
Q 3713 922 3314 415 
Q 2916 -91 2278 -91 
Q 1894 -91 1617 61 
Q 1341 213 1159 525 
L 1159 -1331 
L 581 -1331 
L 581 1716 
Q 581 2438 863 2875 
z
M 3116 1747 
Q 3116 2381 2855 2742 
Q 2594 3103 2138 3103 
Q 1681 3103 1420 2742 
Q 1159 2381 1159 1747 
Q 1159 1113 1420 752 
Q 1681 391 2138 391 
Q 2594 391 2855 752 
Q 3116 1113 3116 1747 
z
" transform="scale(0.015625)"/>
       <path id="DejaVuSans-66" d="M 2375 4863 
L 2375 4384 
L 1825 4384 
Q 1516 4384 1395 4259 
Q 1275 4134 1275 3809 
L 1275 3500 
L 2222 3500 
L 2222 3053 
L 1275 3053 
L 1275 0 
L 697 0 
L 697 3053 
L 147 3053 
L 147 3500 
L 697 3500 
L 697 3744 
Q 697 4328 969 4595 
Q 1241 4863 1831 4863 
L 2375 4863 
z
" transform="scale(0.015625)"/>
       <path id="DejaVuSans-6a" d="M 603 3500 
L 1178 3500 
L 1178 -63 
Q 1178 -731 923 -1031 
Q 669 -1331 103 -1331 
L -116 -1331 
L -116 -844 
L 38 -844 
Q 366 -844 484 -692 
Q 603 -541 603 -63 
L 603 3500 
z
M 603 4863 
L 1178 4863 
L 1178 4134 
L 603 4134 
L 603 4863 
z
" transform="scale(0.015625)"/>
       <path id="DejaVuSans-32" d="M 1228 531 
L 3431 531 
L 3431 0 
L 469 0 
L 469 531 
Q 828 903 1448 1529 
Q 2069 2156 2228 2338 
Q 2531 2678 2651 2914 
Q 2772 3150 2772 3378 
Q 2772 3750 2511 3984 
Q 2250 4219 1831 4219 
Q 1534 4219 1204 4116 
Q 875 4013 500 3803 
L 500 4441 
Q 881 4594 1212 4672 
Q 1544 4750 1819 4750 
Q 2544 4750 2975 4387 
Q 3406 4025 3406 3419 
Q 3406 3131 3298 2873 
Q 3191 2616 2906 2266 
Q 2828 2175 2409 1742 
Q 1991 1309 1228 531 
z
" transform="scale(0.015625)"/>
       <path id="DejaVuSans-38" d="M 2034 2216 
Q 1584 2216 1326 1975 
Q 1069 1734 1069 1313 
Q 1069 891 1326 650 
Q 1584 409 2034 409 
Q 2484 409 2743 651 
Q 3003 894 3003 1313 
Q 3003 1734 2745 1975 
Q 2488 2216 2034 2216 
z
M 1403 2484 
Q 997 2584 770 2862 
Q 544 3141 544 3541 
Q 544 4100 942 4425 
Q 1341 4750 2034 4750 
Q 2731 4750 3128 4425 
Q 3525 4100 3525 3541 
Q 3525 3141 3298 2862 
Q 3072 2584 2669 2484 
Q 3125 2378 3379 2068 
Q 3634 1759 3634 1313 
Q 3634 634 3220 271 
Q 2806 -91 2034 -91 
Q 1263 -91 848 271 
Q 434 634 434 1313 
Q 434 1759 690 2068 
Q 947 2378 1403 2484 
z
M 1172 3481 
Q 1172 3119 1398 2916 
Q 1625 2713 2034 2713 
Q 2441 2713 2670 2916 
Q 2900 3119 2900 3481 
Q 2900 3844 2670 4047 
Q 2441 4250 2034 4250 
Q 1625 4250 1398 4047 
Q 1172 3844 1172 3481 
z
" transform="scale(0.015625)"/>
       <path id="DejaVuSans-22c5" d="M 684 2619 
L 1344 2619 
L 1344 1825 
L 684 1825 
L 684 2619 
z
" transform="scale(0.015625)"/>
       <path id="DejaVuSans-33" d="M 2597 2516 
Q 3050 2419 3304 2112 
Q 3559 1806 3559 1356 
Q 3559 666 3084 287 
Q 2609 -91 1734 -91 
Q 1441 -91 1130 -33 
Q 819 25 488 141 
L 488 750 
Q 750 597 1062 519 
Q 1375 441 1716 441 
Q 2309 441 2620 675 
Q 2931 909 2931 1356 
Q 2931 1769 2642 2001 
Q 2353 2234 1838 2234 
L 1294 2234 
L 1294 2753 
L 1863 2753 
Q 2328 2753 2575 2939 
Q 2822 3125 2822 3475 
Q 2822 3834 2567 4026 
Q 2313 4219 1838 4219 
Q 1578 4219 1281 4162 
Q 984 4106 628 3988 
L 628 4550 
Q 988 4650 1302 4700 
Q 1616 4750 1894 4750 
Q 2613 4750 3031 4423 
Q 3450 4097 3450 3541 
Q 3450 3153 3228 2886 
Q 3006 2619 2597 2516 
z
" transform="scale(0.015625)"/>
       <path id="DejaVuSans-36" d="M 2113 2584 
Q 1688 2584 1439 2293 
Q 1191 2003 1191 1497 
Q 1191 994 1439 701 
Q 1688 409 2113 409 
Q 2538 409 2786 701 
Q 3034 994 3034 1497 
Q 3034 2003 2786 2293 
Q 2538 2584 2113 2584 
z
M 3366 4563 
L 3366 3988 
Q 3128 4100 2886 4159 
Q 2644 4219 2406 4219 
Q 1781 4219 1451 3797 
Q 1122 3375 1075 2522 
Q 1259 2794 1537 2939 
Q 1816 3084 2150 3084 
Q 2853 3084 3261 2657 
Q 3669 2231 3669 1497 
Q 3669 778 3244 343 
Q 2819 -91 2113 -91 
Q 1303 -91 875 529 
Q 447 1150 447 2328 
Q 447 3434 972 4092 
Q 1497 4750 2381 4750 
Q 2619 4750 2861 4703 
Q 3103 4656 3366 4563 
z
" transform="scale(0.015625)"/>
       <path id="DejaVuSans-50" d="M 1259 4147 
L 1259 2394 
L 2053 2394 
Q 2494 2394 2734 2622 
Q 2975 2850 2975 3272 
Q 2975 3691 2734 3919 
Q 2494 4147 2053 4147 
L 1259 4147 
z
M 628 4666 
L 2053 4666 
Q 2838 4666 3239 4311 
Q 3641 3956 3641 3272 
Q 3641 2581 3239 2228 
Q 2838 1875 2053 1875 
L 1259 1875 
L 1259 0 
L 628 0 
L 628 4666 
z
" transform="scale(0.015625)"/>
       <path id="DejaVuSans-62" d="M 3116 1747 
Q 3116 2381 2855 2742 
Q 2594 3103 2138 3103 
Q 1681 3103 1420 2742 
Q 1159 2381 1159 1747 
Q 1159 1113 1420 752 
Q 1681 391 2138 391 
Q 2594 391 2855 752 
Q 3116 1113 3116 1747 
z
M 1159 2969 
Q 1341 3281 1617 3432 
Q 1894 3584 2278 3584 
Q 2916 3584 3314 3078 
Q 3713 2572 3713 1747 
Q 3713 922 3314 415 
Q 2916 -91 2278 -91 
Q 1894 -91 1617 61 
Q 1341 213 1159 525 
L 1159 0 
L 581 0 
L 581 4863 
L 1159 4863 
L 1159 2969 
z
" transform="scale(0.015625)"/>
       <path id="DejaVuSans-28" d="M 1984 4856 
Q 1566 4138 1362 3434 
Q 1159 2731 1159 2009 
Q 1159 1288 1364 580 
Q 1569 -128 1984 -844 
L 1484 -844 
Q 1016 -109 783 600 
Q 550 1309 550 2009 
Q 550 2706 781 3412 
Q 1013 4119 1484 4856 
L 1984 4856 
z
" transform="scale(0.015625)"/>
       <path id="DejaVuSans-54" d="M -19 4666 
L 3928 4666 
L 3928 4134 
L 2272 4134 
L 2272 0 
L 1638 0 
L 1638 4134 
L -19 4134 
L -19 4666 
z
" transform="scale(0.015625)"/>
       <path id="DejaVuSans-52" d="M 2841 2188 
Q 3044 2119 3236 1894 
Q 3428 1669 3622 1275 
L 4263 0 
L 3584 0 
L 2988 1197 
Q 2756 1666 2539 1819 
Q 2322 1972 1947 1972 
L 1259 1972 
L 1259 0 
L 628 0 
L 628 4666 
L 2053 4666 
Q 2853 4666 3247 4331 
Q 3641 3997 3641 3322 
Q 3641 2881 3436 2590 
Q 3231 2300 2841 2188 
z
M 1259 4147 
L 1259 2491 
L 2053 2491 
Q 2509 2491 2742 2702 
Q 2975 2913 2975 3322 
Q 2975 3731 2742 3939 
Q 2509 4147 2053 4147 
L 1259 4147 
z
" transform="scale(0.015625)"/>
       <path id="DejaVuSans-45" d="M 628 4666 
L 3578 4666 
L 3578 4134 
L 1259 4134 
L 1259 2753 
L 3481 2753 
L 3481 2222 
L 1259 2222 
L 1259 531 
L 3634 531 
L 3634 0 
L 628 0 
L 628 4666 
z
" transform="scale(0.015625)"/>
       <path id="DejaVuSans-42" d="M 1259 2228 
L 1259 519 
L 2272 519 
Q 2781 519 3026 730 
Q 3272 941 3272 1375 
Q 3272 1813 3026 2020 
Q 2781 2228 2272 2228 
L 1259 2228 
z
M 1259 4147 
L 1259 2741 
L 2194 2741 
Q 2656 2741 2882 2914 
Q 3109 3088 3109 3444 
Q 3109 3797 2882 3972 
Q 2656 4147 2194 4147 
L 1259 4147 
z
M 628 4666 
L 2241 4666 
Q 2963 4666 3353 4366 
Q 3744 4066 3744 3513 
Q 3744 3084 3544 2831 
Q 3344 2578 2956 2516 
Q 3422 2416 3680 2098 
Q 3938 1781 3938 1306 
Q 3938 681 3513 340 
Q 3088 0 2303 0 
L 628 0 
L 628 4666 
z
" transform="scale(0.015625)"/>
       <path id="DejaVuSans-43" d="M 4122 4306 
L 4122 3641 
Q 3803 3938 3442 4084 
Q 3081 4231 2675 4231 
Q 1875 4231 1450 3742 
Q 1025 3253 1025 2328 
Q 1025 1406 1450 917 
Q 1875 428 2675 428 
Q 3081 428 3442 575 
Q 3803 722 4122 1019 
L 4122 359 
Q 3791 134 3420 21 
Q 3050 -91 2638 -91 
Q 1578 -91 968 557 
Q 359 1206 359 2328 
Q 359 3453 968 4101 
Q 1578 4750 2638 4750 
Q 3056 4750 3426 4639 
Q 3797 4528 4122 4306 
z
" transform="scale(0.015625)"/>
       <path id="DejaVuSans-4f" d="M 2522 4238 
Q 1834 4238 1429 3725 
Q 1025 3213 1025 2328 
Q 1025 1447 1429 934 
Q 1834 422 2522 422 
Q 3209 422 3611 934 
Q 4013 1447 4013 2328 
Q 4013 3213 3611 3725 
Q 3209 4238 2522 4238 
z
M 2522 4750 
Q 3503 4750 4090 4092 
Q 4678 3434 4678 2328 
Q 4678 1225 4090 567 
Q 3503 -91 2522 -91 
Q 1538 -91 948 565 
Q 359 1222 359 2328 
Q 359 3434 948 4092 
Q 1538 4750 2522 4750 
z
" transform="scale(0.015625)"/>
       <path id="DejaVuSans-2212" d="M 678 2272 
L 4684 2272 
L 4684 1741 
L 678 1741 
L 678 2272 
z
" transform="scale(0.015625)"/>
       <path id="DejaVuSans-6f" d="M 1959 3097 
Q 1497 3097 1228 2736 
Q 959 2375 959 1747 
Q 959 1119 1226 758 
Q 1494 397 1959 397 
Q 2419 397 2687 759 
Q 2956 1122 2956 1747 
Q 2956 2369 2687 2733 
Q 2419 3097 1959 3097 
z
M 1959 3584 
Q 2709 3584 3137 3096 
Q 3566 2609 3566 1747 
Q 3566 888 3137 398 
Q 2709 -91 1959 -91 
Q 1206 -91 779 398 
Q 353 888 353 1747 
Q 353 2609 779 3096 
Q 1206 3584 1959 3584 
z
" transform="scale(0.015625)"/>
       <path id="DejaVuSans-6c" d="M 603 4863 
L 1178 4863 
L 1178 0 
L 603 0 
L 603 4863 
z
" transform="scale(0.015625)"/>
       <path id="DejaVuSans-64" d="M 2906 2969 
L 2906 4863 
L 3481 4863 
L 3481 0 
L 2906 0 
L 2906 525 
Q 2725 213 2448 61 
Q 2172 -91 1784 -91 
Q 1150 -91 751 415 
Q 353 922 353 1747 
Q 353 2572 751 3078 
Q 1150 3584 1784 3584 
Q 2172 3584 2448 3432 
Q 2725 3281 2906 2969 
z
M 947 1747 
Q 947 1113 1208 752 
Q 1469 391 1925 391 
Q 2381 391 2643 752 
Q 2906 1113 2906 1747 
Q 2906 2381 2643 2742 
Q 2381 3103 1925 3103 
Q 1469 3103 1208 2742 
Q 947 2381 947 1747 
z
" transform="scale(0.015625)"/>
       <path id="DejaVuSans-6d" d="M 3328 2828 
Q 3544 3216 3844 3400 
Q 4144 3584 4550 3584 
Q 5097 3584 5394 3201 
Q 5691 2819 5691 2113 
L 5691 0 
L 5113 0 
L 5113 2094 
Q 5113 2597 4934 2840 
Q 4756 3084 4391 3084 
Q 3944 3084 3684 2787 
Q 3425 2491 3425 1978 
L 3425 0 
L 2847 0 
L 2847 2094 
Q 2847 2600 2669 2842 
Q 2491 3084 2119 3084 
Q 1678 3084 1418 2786 
Q 1159 2488 1159 1978 
L 1159 0 
L 581 0 
L 581 3500 
L 1159 3500 
L 1159 2956 
Q 1356 3278 1631 3431 
Q 1906 3584 2284 3584 
Q 2666 3584 2933 3390 
Q 3200 3197 3328 2828 
z
" transform="scale(0.015625)"/>
       <path id="DejaVuSans-61" d="M 2194 1759 
Q 1497 1759 1228 1600 
Q 959 1441 959 1056 
Q 959 750 1161 570 
Q 1363 391 1709 391 
Q 2188 391 2477 730 
Q 2766 1069 2766 1631 
L 2766 1759 
L 2194 1759 
z
M 3341 1997 
L 3341 0 
L 2766 0 
L 2766 531 
Q 2569 213 2275 61 
Q 1981 -91 1556 -91 
Q 1019 -91 701 211 
Q 384 513 384 1019 
Q 384 1609 779 1909 
Q 1175 2209 1959 2209 
L 2766 2209 
L 2766 2266 
Q 2766 2663 2505 2880 
Q 2244 3097 1772 3097 
Q 1472 3097 1187 3025 
Q 903 2953 641 2809 
L 641 3341 
Q 956 3463 1253 3523 
Q 1550 3584 1831 3584 
Q 2591 3584 2966 3190 
Q 3341 2797 3341 1997 
z
" transform="scale(0.015625)"/>
       <path id="DejaVuSans-73" d="M 2834 3397 
L 2834 2853 
Q 2591 2978 2328 3040 
Q 2066 3103 1784 3103 
Q 1356 3103 1142 2972 
Q 928 2841 928 2578 
Q 928 2378 1081 2264 
Q 1234 2150 1697 2047 
L 1894 2003 
Q 2506 1872 2764 1633 
Q 3022 1394 3022 966 
Q 3022 478 2636 193 
Q 2250 -91 1575 -91 
Q 1294 -91 989 -36 
Q 684 19 347 128 
L 347 722 
Q 666 556 975 473 
Q 1284 391 1588 391 
Q 1994 391 2212 530 
Q 2431 669 2431 922 
Q 2431 1156 2273 1281 
Q 2116 1406 1581 1522 
L 1381 1569 
Q 847 1681 609 1914 
Q 372 2147 372 2553 
Q 372 3047 722 3315 
Q 1072 3584 1716 3584 
Q 2034 3584 2315 3537 
Q 2597 3491 2834 3397 
z
" transform="scale(0.015625)"/>
       <path id="DejaVuSans-29" d="M 513 4856 
L 1013 4856 
Q 1481 4119 1714 3412 
Q 1947 2706 1947 2009 
Q 1947 1309 1714 600 
Q 1481 -109 1013 -844 
L 513 -844 
Q 928 -128 1133 580 
Q 1338 1288 1338 2009 
Q 1338 2731 1133 3434 
Q 928 4138 513 4856 
z
" transform="scale(0.015625)"/>
       <path id="CenturyGothic-20" transform="scale(0.015625)"/>
       <path id="CenturyGothic-5b" d="M 906 4713 
L 1956 4713 
L 1956 4269 
L 1344 4269 
L 1344 -816 
L 1956 -816 
L 1956 -1244 
L 906 -1244 
L 906 4713 
z
" transform="scale(0.015625)"/>
       <path id="CenturyGothic-4b" d="M 559 4597 
L 1028 4597 
L 1028 2872 
L 2863 4597 
L 3484 4597 
L 1275 2534 
L 3656 0 
L 3047 0 
L 1028 2144 
L 1028 0 
L 559 0 
L 559 4597 
z
" transform="scale(0.015625)"/>
       <path id="CenturyGothic-5d" d="M 1341 -1244 
L 291 -1244 
L 291 -800 
L 900 -800 
L 900 4284 
L 291 4284 
L 291 4713 
L 1341 4713 
L 1341 -1244 
z
" transform="scale(0.015625)"/>
      </defs>
      <use xlink:href="#DejaVuSans-3c1" transform="translate(0 65.8) scale(0.7)"/>
      <use xlink:href="#DejaVuSans-66" transform="translate(45.103516 54.315625) scale(0.49)"/>
      <use xlink:href="#DejaVuSans-66" transform="translate(62.354004 54.315625) scale(0.49)"/>
      <use xlink:href="#DejaVuSans-6a" transform="translate(79.604492 54.315625) scale(0.49)"/>
      <use xlink:href="#DejaVuSans-32" transform="translate(93.218262 54.315625) scale(0.49)"/>
      <use xlink:href="#DejaVuSans-38" transform="translate(124.393555 54.315625) scale(0.49)"/>
      <use xlink:href="#DejaVuSans-3c1" transform="translate(57 -26.324844) scale(0.7)"/>
      <use xlink:href="#DejaVuSans-22c5" transform="translate(189.465332 0.328281)"/>
      <use xlink:href="#DejaVuSans-33" transform="translate(240.734863 45.120469) scale(0.7)"/>
      <use xlink:href="#DejaVuSans-36" transform="translate(285.270996 45.120469) scale(0.7)"/>
      <use xlink:href="#DejaVuSans-50" transform="translate(247.734863 -38.159219) scale(0.7)"/>
      <use xlink:href="#DejaVuSans-62" transform="translate(290.616699 -49.643594) scale(0.49)"/>
      <use xlink:href="#DejaVuSans-22c5" transform="translate(361.789551 0.328281)"/>
      <use xlink:href="#DejaVuSans-28" transform="translate(413.059082 0.328281)"/>
      <use xlink:href="#DejaVuSans-54" transform="translate(452.072754 0.328281)"/>
      <use xlink:href="#DejaVuSans-52" transform="translate(514.11377 -16.077969) scale(0.7)"/>
      <use xlink:href="#DejaVuSans-45" transform="translate(562.751465 -16.077969) scale(0.7)"/>
      <use xlink:href="#DejaVuSans-42" transform="translate(606.97998 -16.077969) scale(0.7)"/>
      <use xlink:href="#DejaVuSans-43" transform="translate(655.002441 -16.077969) scale(0.7)"/>
      <use xlink:href="#DejaVuSans-4f" transform="translate(703.879395 -16.077969) scale(0.7)"/>
      <use xlink:href="#DejaVuSans-2212" transform="translate(781.193848 0.328281)"/>
      <use xlink:href="#DejaVuSans-54" transform="translate(884.465332 0.328281)"/>
      <use xlink:href="#DejaVuSans-43" transform="translate(946.506348 -16.077969) scale(0.7)"/>
      <use xlink:href="#DejaVuSans-6f" transform="translate(995.383301 -16.077969) scale(0.7)"/>
      <use xlink:href="#DejaVuSans-6c" transform="translate(1038.210449 -16.077969) scale(0.7)"/>
      <use xlink:href="#DejaVuSans-64" transform="translate(1057.658691 -16.077969) scale(0.7)"/>
      <use xlink:href="#DejaVuSans-6d" transform="translate(1102.092285 -16.077969) scale(0.7)"/>
      <use xlink:href="#DejaVuSans-61" transform="translate(1170.280762 -16.077969) scale(0.7)"/>
      <use xlink:href="#DejaVuSans-73" transform="translate(1213.17627 -16.077969) scale(0.7)"/>
      <use xlink:href="#DejaVuSans-73" transform="translate(1249.645996 -16.077969) scale(0.7)"/>
      <use xlink:href="#DejaVuSans-29" transform="translate(1288.850098 0.328281)"/>
      <use xlink:href="#CenturyGothic-20" transform="translate(1327.86377 0.328281)"/>
      <use xlink:href="#CenturyGothic-5b" transform="translate(1355.549316 0.328281)"/>
      <use xlink:href="#CenturyGothic-4b" transform="translate(1390.656738 0.328281)"/>
      <use xlink:href="#CenturyGothic-5d" transform="translate(1449.73877 0.328281)"/>
      <path d="M 0 19.125156 
L 0 25.375156 
L 157.48291 25.375156 
L 157.48291 19.125156 
L 0 19.125156 
z
"/>
      <path d="M 240.734863 19.125156 
L 240.734863 25.375156 
L 329.807129 25.375156 
L 329.807129 19.125156 
L 240.734863 19.125156 
z
"/>
     </g>
    </g>
   </g>
   <g id="matplotlib.axis_2">
    <g id="ytick_1">
     <g id="line2d_6">
      <defs>
       <path id="m2f6e8494ee" d="M 0 0 
L -3.5 0 
" style="stroke: #000000; stroke-width: 0.8"/>
      </defs>
      <g>
       <use xlink:href="#m2f6e8494ee" x="44.08" y="206.9868" style="stroke: #000000; stroke-width: 0.8"/>
      </g>
     </g>
     <g id="text_7">
      <!-- 0 -->
      <g transform="translate(29.320938 212.141644) scale(0.14 -0.14)">
       <use xlink:href="#CenturyGothic-30"/>
      </g>
     </g>
    </g>
    <g id="ytick_2">
     <g id="line2d_7">
      <g>
       <use xlink:href="#m2f6e8494ee" x="44.08" y="150.03233" style="stroke: #000000; stroke-width: 0.8"/>
      </g>
     </g>
     <g id="text_8">
      <!-- 20 -->
      <g transform="translate(21.561875 155.187174) scale(0.14 -0.14)">
       <use xlink:href="#CenturyGothic-32"/>
       <use xlink:href="#CenturyGothic-30" x="55.419922"/>
      </g>
     </g>
    </g>
    <g id="ytick_3">
     <g id="line2d_8">
      <g>
       <use xlink:href="#m2f6e8494ee" x="44.08" y="93.07786" style="stroke: #000000; stroke-width: 0.8"/>
      </g>
     </g>
     <g id="text_9">
      <!-- 40 -->
      <g transform="translate(21.561875 98.232704) scale(0.14 -0.14)">
       <use xlink:href="#CenturyGothic-34"/>
       <use xlink:href="#CenturyGothic-30" x="55.419922"/>
      </g>
     </g>
    </g>
    <g id="ytick_4">
     <g id="line2d_9">
      <g>
       <use xlink:href="#m2f6e8494ee" x="44.08" y="36.12339" style="stroke: #000000; stroke-width: 0.8"/>
      </g>
     </g>
     <g id="text_10">
      <!-- 60 -->
      <g transform="translate(21.561875 41.278234) scale(0.14 -0.14)">
       <use xlink:href="#CenturyGothic-36"/>
       <use xlink:href="#CenturyGothic-30" x="55.419922"/>
      </g>
     </g>
    </g>
   </g>
   <g id="patch_33">
    <path d="M 44.08 206.9868 
L 44.08 21.6 
" style="fill: none; stroke: #000000; stroke-width: 0.8; stroke-linejoin: miter; stroke-linecap: square"/>
   </g>
   <g id="patch_34">
    <path d="M 44.08 206.9868 
L 554.4 206.9868 
" style="fill: none; stroke: #000000; stroke-width: 0.8; stroke-linejoin: miter; stroke-linecap: square"/>
   </g>
  </g>
 </g>
 <defs>
  <clipPath id="pf2e14d02e7">
   <rect x="44.08" y="21.6" width="510.32" height="185.3868"/>
  </clipPath>
 </defs>
</svg>
