<?xml version="1.0" encoding="utf-8" standalone="no"?>
<!DOCTYPE svg PUBLIC "-//W3C//DTD SVG 1.1//EN"
  "http://www.w3.org/Graphics/SVG/1.1/DTD/svg11.dtd">
<svg xmlns:xlink="http://www.w3.org/1999/xlink" width="432pt" height="432pt" viewBox="0 0 432 432" xmlns="http://www.w3.org/2000/svg" version="1.1">
 <metadata>
  <rdf:RDF xmlns:dc="http://purl.org/dc/elements/1.1/" xmlns:cc="http://creativecommons.org/ns#" xmlns:rdf="http://www.w3.org/1999/02/22-rdf-syntax-ns#">
   <cc:Work>
    <dc:type rdf:resource="http://purl.org/dc/dcmitype/StillImage"/>
    <dc:date>2024-06-16T18:00:46.712856</dc:date>
    <dc:format>image/svg+xml</dc:format>
    <dc:creator>
     <cc:Agent>
      <dc:title>Matplotlib v3.7.2, https://matplotlib.org/</dc:title>
     </cc:Agent>
    </dc:creator>
   </cc:Work>
  </rdf:RDF>
 </metadata>
 <defs>
  <style type="text/css">*{stroke-linejoin: round; stroke-linecap: butt}</style>
 </defs>
 <g id="figure_1">
  <g id="patch_1">
   <path d="M 0 432 
L 432 432 
L 432 0 
L 0 0 
z
" style="fill: #ffffff"/>
  </g>
  <g id="axes_1">
   <g id="patch_2">
    <path d="M 71.48 376.36 
L 412.29 376.36 
L 412.29 16.2 
L 71.48 16.2 
z
" style="fill: #ffffff"/>
   </g>
   <g id="patch_3">
    <path d="M 323.6794 376.36 
L 323.6794 16.2 
L 350.9442 16.2 
L 350.9442 376.36 
z
" clip-path="url(#pceb7299975)" style="opacity: 0.05; stroke: #000000; stroke-linejoin: miter"/>
   </g>
   <g id="patch_4">
    <path d="M 378.209 376.36 
L 378.209 16.2 
L 405.4738 16.2 
L 405.4738 376.36 
z
" clip-path="url(#pceb7299975)" style="opacity: 0.05; stroke: #000000; stroke-linejoin: miter"/>
   </g>
   <g id="matplotlib.axis_1">
    <g id="xtick_1">
     <g id="line2d_1">
      <defs>
       <path id="mde616fc7b3" d="M 0 0 
L 0 3.5 
" style="stroke: #000000; stroke-width: 0.8"/>
      </defs>
      <g>
       <use xlink:href="#mde616fc7b3" x="71.48" y="376.36" style="stroke: #000000; stroke-width: 0.8"/>
      </g>
     </g>
     <g id="text_1">
      <!-- 0 -->
      <g transform="translate(67.02625 393.997813) scale(0.14 -0.14)">
       <defs>
        <path id="DejaVuSans-30" d="M 2034 4250 
Q 1547 4250 1301 3770 
Q 1056 3291 1056 2328 
Q 1056 1369 1301 889 
Q 1547 409 2034 409 
Q 2525 409 2770 889 
Q 3016 1369 3016 2328 
Q 3016 3291 2770 3770 
Q 2525 4250 2034 4250 
z
M 2034 4750 
Q 2819 4750 3233 4129 
Q 3647 3509 3647 2328 
Q 3647 1150 3233 529 
Q 2819 -91 2034 -91 
Q 1250 -91 836 529 
Q 422 1150 422 2328 
Q 422 3509 836 4129 
Q 1250 4750 2034 4750 
z
" transform="scale(0.015625)"/>
       </defs>
       <use xlink:href="#DejaVuSans-30"/>
      </g>
     </g>
    </g>
    <g id="xtick_2">
     <g id="line2d_2">
      <g>
       <use xlink:href="#mde616fc7b3" x="139.642" y="376.36" style="stroke: #000000; stroke-width: 0.8"/>
      </g>
     </g>
     <g id="text_2">
      <!-- 10 -->
      <g transform="translate(130.7345 393.997813) scale(0.14 -0.14)">
       <defs>
        <path id="DejaVuSans-31" d="M 794 531 
L 1825 531 
L 1825 4091 
L 703 3866 
L 703 4441 
L 1819 4666 
L 2450 4666 
L 2450 531 
L 3481 531 
L 3481 0 
L 794 0 
L 794 531 
z
" transform="scale(0.015625)"/>
       </defs>
       <use xlink:href="#DejaVuSans-31"/>
       <use xlink:href="#DejaVuSans-30" x="63.623047"/>
      </g>
     </g>
    </g>
    <g id="xtick_3">
     <g id="line2d_3">
      <g>
       <use xlink:href="#mde616fc7b3" x="207.804" y="376.36" style="stroke: #000000; stroke-width: 0.8"/>
      </g>
     </g>
     <g id="text_3">
      <!-- 20 -->
      <g transform="translate(198.8965 393.997813) scale(0.14 -0.14)">
       <defs>
        <path id="DejaVuSans-32" d="M 1228 531 
L 3431 531 
L 3431 0 
L 469 0 
L 469 531 
Q 828 903 1448 1529 
Q 2069 2156 2228 2338 
Q 2531 2678 2651 2914 
Q 2772 3150 2772 3378 
Q 2772 3750 2511 3984 
Q 2250 4219 1831 4219 
Q 1534 4219 1204 4116 
Q 875 4013 500 3803 
L 500 4441 
Q 881 4594 1212 4672 
Q 1544 4750 1819 4750 
Q 2544 4750 2975 4387 
Q 3406 4025 3406 3419 
Q 3406 3131 3298 2873 
Q 3191 2616 2906 2266 
Q 2828 2175 2409 1742 
Q 1991 1309 1228 531 
z
" transform="scale(0.015625)"/>
       </defs>
       <use xlink:href="#DejaVuSans-32"/>
       <use xlink:href="#DejaVuSans-30" x="63.623047"/>
      </g>
     </g>
    </g>
    <g id="xtick_4">
     <g id="line2d_4">
      <g>
       <use xlink:href="#mde616fc7b3" x="275.966" y="376.36" style="stroke: #000000; stroke-width: 0.8"/>
      </g>
     </g>
     <g id="text_4">
      <!-- 30 -->
      <g transform="translate(267.0585 393.997813) scale(0.14 -0.14)">
       <defs>
        <path id="DejaVuSans-33" d="M 2597 2516 
Q 3050 2419 3304 2112 
Q 3559 1806 3559 1356 
Q 3559 666 3084 287 
Q 2609 -91 1734 -91 
Q 1441 -91 1130 -33 
Q 819 25 488 141 
L 488 750 
Q 750 597 1062 519 
Q 1375 441 1716 441 
Q 2309 441 2620 675 
Q 2931 909 2931 1356 
Q 2931 1769 2642 2001 
Q 2353 2234 1838 2234 
L 1294 2234 
L 1294 2753 
L 1863 2753 
Q 2328 2753 2575 2939 
Q 2822 3125 2822 3475 
Q 2822 3834 2567 4026 
Q 2313 4219 1838 4219 
Q 1578 4219 1281 4162 
Q 984 4106 628 3988 
L 628 4550 
Q 988 4650 1302 4700 
Q 1616 4750 1894 4750 
Q 2613 4750 3031 4423 
Q 3450 4097 3450 3541 
Q 3450 3153 3228 2886 
Q 3006 2619 2597 2516 
z
" transform="scale(0.015625)"/>
       </defs>
       <use xlink:href="#DejaVuSans-33"/>
       <use xlink:href="#DejaVuSans-30" x="63.623047"/>
      </g>
     </g>
    </g>
    <g id="xtick_5">
     <g id="line2d_5">
      <g>
       <use xlink:href="#mde616fc7b3" x="344.128" y="376.36" style="stroke: #000000; stroke-width: 0.8"/>
      </g>
     </g>
     <g id="text_5">
      <!-- 40 -->
      <g transform="translate(335.2205 393.997813) scale(0.14 -0.14)">
       <defs>
        <path id="DejaVuSans-34" d="M 2419 4116 
L 825 1625 
L 2419 1625 
L 2419 4116 
z
M 2253 4666 
L 3047 4666 
L 3047 1625 
L 3713 1625 
L 3713 1100 
L 3047 1100 
L 3047 0 
L 2419 0 
L 2419 1100 
L 313 1100 
L 313 1709 
L 2253 4666 
z
" transform="scale(0.015625)"/>
       </defs>
       <use xlink:href="#DejaVuSans-34"/>
       <use xlink:href="#DejaVuSans-30" x="63.623047"/>
      </g>
     </g>
    </g>
    <g id="xtick_6">
     <g id="line2d_6">
      <g>
       <use xlink:href="#mde616fc7b3" x="412.29" y="376.36" style="stroke: #000000; stroke-width: 0.8"/>
      </g>
     </g>
     <g id="text_6">
      <!-- 50 -->
      <g transform="translate(403.3825 393.997813) scale(0.14 -0.14)">
       <defs>
        <path id="DejaVuSans-35" d="M 691 4666 
L 3169 4666 
L 3169 4134 
L 1269 4134 
L 1269 2991 
Q 1406 3038 1543 3061 
Q 1681 3084 1819 3084 
Q 2600 3084 3056 2656 
Q 3513 2228 3513 1497 
Q 3513 744 3044 326 
Q 2575 -91 1722 -91 
Q 1428 -91 1123 -41 
Q 819 9 494 109 
L 494 744 
Q 775 591 1075 516 
Q 1375 441 1709 441 
Q 2250 441 2565 725 
Q 2881 1009 2881 1497 
Q 2881 1984 2565 2268 
Q 2250 2553 1709 2553 
Q 1456 2553 1204 2497 
Q 953 2441 691 2322 
L 691 4666 
z
" transform="scale(0.015625)"/>
       </defs>
       <use xlink:href="#DejaVuSans-35"/>
       <use xlink:href="#DejaVuSans-30" x="63.623047"/>
      </g>
     </g>
    </g>
    <g id="text_7">
     <!-- Time [s] -->
     <g transform="translate(201.227187 416.10625) scale(0.2 -0.2)">
      <defs>
       <path id="DejaVuSans-54" d="M -19 4666 
L 3928 4666 
L 3928 4134 
L 2272 4134 
L 2272 0 
L 1638 0 
L 1638 4134 
L -19 4134 
L -19 4666 
z
" transform="scale(0.015625)"/>
       <path id="DejaVuSans-69" d="M 603 3500 
L 1178 3500 
L 1178 0 
L 603 0 
L 603 3500 
z
M 603 4863 
L 1178 4863 
L 1178 4134 
L 603 4134 
L 603 4863 
z
" transform="scale(0.015625)"/>
       <path id="DejaVuSans-6d" d="M 3328 2828 
Q 3544 3216 3844 3400 
Q 4144 3584 4550 3584 
Q 5097 3584 5394 3201 
Q 5691 2819 5691 2113 
L 5691 0 
L 5113 0 
L 5113 2094 
Q 5113 2597 4934 2840 
Q 4756 3084 4391 3084 
Q 3944 3084 3684 2787 
Q 3425 2491 3425 1978 
L 3425 0 
L 2847 0 
L 2847 2094 
Q 2847 2600 2669 2842 
Q 2491 3084 2119 3084 
Q 1678 3084 1418 2786 
Q 1159 2488 1159 1978 
L 1159 0 
L 581 0 
L 581 3500 
L 1159 3500 
L 1159 2956 
Q 1356 3278 1631 3431 
Q 1906 3584 2284 3584 
Q 2666 3584 2933 3390 
Q 3200 3197 3328 2828 
z
" transform="scale(0.015625)"/>
       <path id="DejaVuSans-65" d="M 3597 1894 
L 3597 1613 
L 953 1613 
Q 991 1019 1311 708 
Q 1631 397 2203 397 
Q 2534 397 2845 478 
Q 3156 559 3463 722 
L 3463 178 
Q 3153 47 2828 -22 
Q 2503 -91 2169 -91 
Q 1331 -91 842 396 
Q 353 884 353 1716 
Q 353 2575 817 3079 
Q 1281 3584 2069 3584 
Q 2775 3584 3186 3129 
Q 3597 2675 3597 1894 
z
M 3022 2063 
Q 3016 2534 2758 2815 
Q 2500 3097 2075 3097 
Q 1594 3097 1305 2825 
Q 1016 2553 972 2059 
L 3022 2063 
z
" transform="scale(0.015625)"/>
       <path id="DejaVuSans-20" transform="scale(0.015625)"/>
       <path id="DejaVuSans-5b" d="M 550 4863 
L 1875 4863 
L 1875 4416 
L 1125 4416 
L 1125 -397 
L 1875 -397 
L 1875 -844 
L 550 -844 
L 550 4863 
z
" transform="scale(0.015625)"/>
       <path id="DejaVuSans-73" d="M 2834 3397 
L 2834 2853 
Q 2591 2978 2328 3040 
Q 2066 3103 1784 3103 
Q 1356 3103 1142 2972 
Q 928 2841 928 2578 
Q 928 2378 1081 2264 
Q 1234 2150 1697 2047 
L 1894 2003 
Q 2506 1872 2764 1633 
Q 3022 1394 3022 966 
Q 3022 478 2636 193 
Q 2250 -91 1575 -91 
Q 1294 -91 989 -36 
Q 684 19 347 128 
L 347 722 
Q 666 556 975 473 
Q 1284 391 1588 391 
Q 1994 391 2212 530 
Q 2431 669 2431 922 
Q 2431 1156 2273 1281 
Q 2116 1406 1581 1522 
L 1381 1569 
Q 847 1681 609 1914 
Q 372 2147 372 2553 
Q 372 3047 722 3315 
Q 1072 3584 1716 3584 
Q 2034 3584 2315 3537 
Q 2597 3491 2834 3397 
z
" transform="scale(0.015625)"/>
       <path id="DejaVuSans-5d" d="M 1947 4863 
L 1947 -844 
L 622 -844 
L 622 -397 
L 1369 -397 
L 1369 4416 
L 622 4416 
L 622 4863 
L 1947 4863 
z
" transform="scale(0.015625)"/>
      </defs>
      <use xlink:href="#DejaVuSans-54"/>
      <use xlink:href="#DejaVuSans-69" x="57.958984"/>
      <use xlink:href="#DejaVuSans-6d" x="85.742188"/>
      <use xlink:href="#DejaVuSans-65" x="183.154297"/>
      <use xlink:href="#DejaVuSans-20" x="244.677734"/>
      <use xlink:href="#DejaVuSans-5b" x="276.464844"/>
      <use xlink:href="#DejaVuSans-73" x="315.478516"/>
      <use xlink:href="#DejaVuSans-5d" x="367.578125"/>
     </g>
    </g>
   </g>
   <g id="matplotlib.axis_2">
    <g id="ytick_1">
     <g id="line2d_7">
      <defs>
       <path id="m1e2e00eeff" d="M 0 0 
L -3.5 0 
" style="stroke: #000000; stroke-width: 0.8"/>
      </defs>
      <g>
       <use xlink:href="#m1e2e00eeff" x="71.48" y="376.36" style="stroke: #000000; stroke-width: 0.8"/>
      </g>
     </g>
     <g id="text_8">
      <!-- −10 -->
      <g transform="translate(34.933437 381.678906) scale(0.14 -0.14)">
       <defs>
        <path id="DejaVuSans-2212" d="M 678 2272 
L 4684 2272 
L 4684 1741 
L 678 1741 
L 678 2272 
z
" transform="scale(0.015625)"/>
       </defs>
       <use xlink:href="#DejaVuSans-2212"/>
       <use xlink:href="#DejaVuSans-31" x="83.789062"/>
       <use xlink:href="#DejaVuSans-30" x="147.412109"/>
      </g>
     </g>
    </g>
    <g id="ytick_2">
     <g id="line2d_8">
      <g>
       <use xlink:href="#m1e2e00eeff" x="71.48" y="316.333333" style="stroke: #000000; stroke-width: 0.8"/>
      </g>
     </g>
     <g id="text_9">
      <!-- 0 -->
      <g transform="translate(55.5725 321.65224) scale(0.14 -0.14)">
       <use xlink:href="#DejaVuSans-30"/>
      </g>
     </g>
    </g>
    <g id="ytick_3">
     <g id="line2d_9">
      <g>
       <use xlink:href="#m1e2e00eeff" x="71.48" y="256.306667" style="stroke: #000000; stroke-width: 0.8"/>
      </g>
     </g>
     <g id="text_10">
      <!-- 10 -->
      <g transform="translate(46.665 261.625573) scale(0.14 -0.14)">
       <use xlink:href="#DejaVuSans-31"/>
       <use xlink:href="#DejaVuSans-30" x="63.623047"/>
      </g>
     </g>
    </g>
    <g id="ytick_4">
     <g id="line2d_10">
      <g>
       <use xlink:href="#m1e2e00eeff" x="71.48" y="196.28" style="stroke: #000000; stroke-width: 0.8"/>
      </g>
     </g>
     <g id="text_11">
      <!-- 20 -->
      <g transform="translate(46.665 201.598906) scale(0.14 -0.14)">
       <use xlink:href="#DejaVuSans-32"/>
       <use xlink:href="#DejaVuSans-30" x="63.623047"/>
      </g>
     </g>
    </g>
    <g id="ytick_5">
     <g id="line2d_11">
      <g>
       <use xlink:href="#m1e2e00eeff" x="71.48" y="136.253333" style="stroke: #000000; stroke-width: 0.8"/>
      </g>
     </g>
     <g id="text_12">
      <!-- 30 -->
      <g transform="translate(46.665 141.57224) scale(0.14 -0.14)">
       <use xlink:href="#DejaVuSans-33"/>
       <use xlink:href="#DejaVuSans-30" x="63.623047"/>
      </g>
     </g>
    </g>
    <g id="ytick_6">
     <g id="line2d_12">
      <g>
       <use xlink:href="#m1e2e00eeff" x="71.48" y="76.226667" style="stroke: #000000; stroke-width: 0.8"/>
      </g>
     </g>
     <g id="text_13">
      <!-- 40 -->
      <g transform="translate(46.665 81.545573) scale(0.14 -0.14)">
       <use xlink:href="#DejaVuSans-34"/>
       <use xlink:href="#DejaVuSans-30" x="63.623047"/>
      </g>
     </g>
    </g>
    <g id="ytick_7">
     <g id="line2d_13">
      <g>
       <use xlink:href="#m1e2e00eeff" x="71.48" y="16.2" style="stroke: #000000; stroke-width: 0.8"/>
      </g>
     </g>
     <g id="text_14">
      <!-- 50 -->
      <g transform="translate(46.665 21.518906) scale(0.14 -0.14)">
       <use xlink:href="#DejaVuSans-35"/>
       <use xlink:href="#DejaVuSans-30" x="63.623047"/>
      </g>
     </g>
    </g>
    <g id="text_15">
     <!-- Beam Current [nA] -->
     <g transform="translate(26.774062 290.053438) rotate(-90) scale(0.2 -0.2)">
      <defs>
       <path id="DejaVuSans-42" d="M 1259 2228 
L 1259 519 
L 2272 519 
Q 2781 519 3026 730 
Q 3272 941 3272 1375 
Q 3272 1813 3026 2020 
Q 2781 2228 2272 2228 
L 1259 2228 
z
M 1259 4147 
L 1259 2741 
L 2194 2741 
Q 2656 2741 2882 2914 
Q 3109 3088 3109 3444 
Q 3109 3797 2882 3972 
Q 2656 4147 2194 4147 
L 1259 4147 
z
M 628 4666 
L 2241 4666 
Q 2963 4666 3353 4366 
Q 3744 4066 3744 3513 
Q 3744 3084 3544 2831 
Q 3344 2578 2956 2516 
Q 3422 2416 3680 2098 
Q 3938 1781 3938 1306 
Q 3938 681 3513 340 
Q 3088 0 2303 0 
L 628 0 
L 628 4666 
z
" transform="scale(0.015625)"/>
       <path id="DejaVuSans-61" d="M 2194 1759 
Q 1497 1759 1228 1600 
Q 959 1441 959 1056 
Q 959 750 1161 570 
Q 1363 391 1709 391 
Q 2188 391 2477 730 
Q 2766 1069 2766 1631 
L 2766 1759 
L 2194 1759 
z
M 3341 1997 
L 3341 0 
L 2766 0 
L 2766 531 
Q 2569 213 2275 61 
Q 1981 -91 1556 -91 
Q 1019 -91 701 211 
Q 384 513 384 1019 
Q 384 1609 779 1909 
Q 1175 2209 1959 2209 
L 2766 2209 
L 2766 2266 
Q 2766 2663 2505 2880 
Q 2244 3097 1772 3097 
Q 1472 3097 1187 3025 
Q 903 2953 641 2809 
L 641 3341 
Q 956 3463 1253 3523 
Q 1550 3584 1831 3584 
Q 2591 3584 2966 3190 
Q 3341 2797 3341 1997 
z
" transform="scale(0.015625)"/>
       <path id="DejaVuSans-43" d="M 4122 4306 
L 4122 3641 
Q 3803 3938 3442 4084 
Q 3081 4231 2675 4231 
Q 1875 4231 1450 3742 
Q 1025 3253 1025 2328 
Q 1025 1406 1450 917 
Q 1875 428 2675 428 
Q 3081 428 3442 575 
Q 3803 722 4122 1019 
L 4122 359 
Q 3791 134 3420 21 
Q 3050 -91 2638 -91 
Q 1578 -91 968 557 
Q 359 1206 359 2328 
Q 359 3453 968 4101 
Q 1578 4750 2638 4750 
Q 3056 4750 3426 4639 
Q 3797 4528 4122 4306 
z
" transform="scale(0.015625)"/>
       <path id="DejaVuSans-75" d="M 544 1381 
L 544 3500 
L 1119 3500 
L 1119 1403 
Q 1119 906 1312 657 
Q 1506 409 1894 409 
Q 2359 409 2629 706 
Q 2900 1003 2900 1516 
L 2900 3500 
L 3475 3500 
L 3475 0 
L 2900 0 
L 2900 538 
Q 2691 219 2414 64 
Q 2138 -91 1772 -91 
Q 1169 -91 856 284 
Q 544 659 544 1381 
z
M 1991 3584 
L 1991 3584 
z
" transform="scale(0.015625)"/>
       <path id="DejaVuSans-72" d="M 2631 2963 
Q 2534 3019 2420 3045 
Q 2306 3072 2169 3072 
Q 1681 3072 1420 2755 
Q 1159 2438 1159 1844 
L 1159 0 
L 581 0 
L 581 3500 
L 1159 3500 
L 1159 2956 
Q 1341 3275 1631 3429 
Q 1922 3584 2338 3584 
Q 2397 3584 2469 3576 
Q 2541 3569 2628 3553 
L 2631 2963 
z
" transform="scale(0.015625)"/>
       <path id="DejaVuSans-6e" d="M 3513 2113 
L 3513 0 
L 2938 0 
L 2938 2094 
Q 2938 2591 2744 2837 
Q 2550 3084 2163 3084 
Q 1697 3084 1428 2787 
Q 1159 2491 1159 1978 
L 1159 0 
L 581 0 
L 581 3500 
L 1159 3500 
L 1159 2956 
Q 1366 3272 1645 3428 
Q 1925 3584 2291 3584 
Q 2894 3584 3203 3211 
Q 3513 2838 3513 2113 
z
" transform="scale(0.015625)"/>
       <path id="DejaVuSans-74" d="M 1172 4494 
L 1172 3500 
L 2356 3500 
L 2356 3053 
L 1172 3053 
L 1172 1153 
Q 1172 725 1289 603 
Q 1406 481 1766 481 
L 2356 481 
L 2356 0 
L 1766 0 
Q 1100 0 847 248 
Q 594 497 594 1153 
L 594 3053 
L 172 3053 
L 172 3500 
L 594 3500 
L 594 4494 
L 1172 4494 
z
" transform="scale(0.015625)"/>
       <path id="DejaVuSans-41" d="M 2188 4044 
L 1331 1722 
L 3047 1722 
L 2188 4044 
z
M 1831 4666 
L 2547 4666 
L 4325 0 
L 3669 0 
L 3244 1197 
L 1141 1197 
L 716 0 
L 50 0 
L 1831 4666 
z
" transform="scale(0.015625)"/>
      </defs>
      <use xlink:href="#DejaVuSans-42"/>
      <use xlink:href="#DejaVuSans-65" x="68.603516"/>
      <use xlink:href="#DejaVuSans-61" x="130.126953"/>
      <use xlink:href="#DejaVuSans-6d" x="191.40625"/>
      <use xlink:href="#DejaVuSans-20" x="288.818359"/>
      <use xlink:href="#DejaVuSans-43" x="320.605469"/>
      <use xlink:href="#DejaVuSans-75" x="390.429688"/>
      <use xlink:href="#DejaVuSans-72" x="453.808594"/>
      <use xlink:href="#DejaVuSans-72" x="493.171875"/>
      <use xlink:href="#DejaVuSans-65" x="532.035156"/>
      <use xlink:href="#DejaVuSans-6e" x="593.558594"/>
      <use xlink:href="#DejaVuSans-74" x="656.9375"/>
      <use xlink:href="#DejaVuSans-20" x="696.146484"/>
      <use xlink:href="#DejaVuSans-5b" x="727.933594"/>
      <use xlink:href="#DejaVuSans-6e" x="766.947266"/>
      <use xlink:href="#DejaVuSans-41" x="830.326172"/>
      <use xlink:href="#DejaVuSans-5d" x="898.734375"/>
     </g>
    </g>
   </g>
   <g id="line2d_14">
    <path d="M 70.79838 316.253498 
L 72.84324 316.0332 
L 76.93296 315.913147 
L 78.97782 316.21328 
L 83.06754 315.973173 
L 87.15726 316.093227 
L 95.3367 315.752875 
L 97.38156 315.812902 
L 101.47128 315.632822 
L 103.51614 315.432933 
L 105.561 315.692849 
L 107.60586 315.613013 
L 109.65072 315.372907 
L 111.69558 315.413125 
L 113.74044 315.632822 
L 115.7853 315.632822 
L 117.83016 315.192827 
L 119.87502 315.533178 
L 123.96474 315.632822 
L 126.0096 315.272662 
L 128.05446 315.85312 
L 132.14418 315.733067 
L 134.18904 315.533178 
L 136.2339 316.153253 
L 138.27876 314.972529 
L 140.32362 296.024511 
L 142.36848 233.496533 
L 144.41334 191.317595 
L 146.4582 166.667045 
L 148.50306 152.900529 
L 150.54792 145.49744 
L 152.59278 141.595707 
L 154.63764 139.234858 
L 156.6825 137.953889 
L 158.72736 137.773809 
L 160.77222 137.153733 
L 162.81708 136.713738 
L 166.9068 136.573275 
L 168.95166 136.13328 
L 170.99652 136.113471 
L 173.04138 135.713093 
L 175.08624 399.690565 
L 177.1311 373.538747 
L 179.17596 271.633275 
L 181.22082 211.76688 
L 183.26568 177.971867 
L 185.31054 160.523915 
L 187.3554 157.882742 
L 189.40026 154.801573 
L 191.44512 154.981653 
L 193.48998 156.081942 
L 195.53484 158.483009 
L 197.5797 158.223093 
L 199.62456 158.343147 
L 203.71428 159.963867 
L 205.75914 158.443391 
L 207.804 158.28312 
L 209.84886 158.82336 
L 211.89372 159.643925 
L 213.93858 158.4632 
L 215.98344 158.122849 
L 218.0283 159.243547 
L 220.07316 159.323382 
L 222.11802 158.483009 
L 224.16288 158.623471 
L 226.20774 160.124138 
L 228.2526 158.82336 
L 230.29746 158.803551 
L 234.38718 160.064111 
L 236.43204 159.423627 
L 238.4769 159.063467 
L 240.52176 159.00344 
L 242.56662 159.623515 
L 244.61148 159.3636 
L 246.65634 158.963222 
L 248.7012 159.423627 
L 250.74606 160.064111 
L 252.79092 159.743569 
L 254.83578 158.743525 
L 256.88064 161.764667 
L 258.9255 161.484342 
L 260.97036 160.643969 
L 263.01522 159.243547 
L 265.06008 160.244191 
L 267.10494 160.504107 
L 269.1498 160.08392 
L 271.19466 159.503462 
L 273.23952 160.80424 
L 275.28438 160.864267 
L 277.32924 160.143947 
L 279.3741 159.283765 
L 281.41896 160.484298 
L 283.46382 159.843813 
L 285.50868 158.543035 
L 287.55354 158.743525 
L 289.5984 160.223782 
L 291.64326 160.103729 
L 293.68812 159.123493 
L 295.73298 152.70064 
L 296.962846 -1 
M 301.674361 -1 
L 301.86756 7.316053 
L 303.91242 63.9212 
L 305.95728 95.955631 
L 308.00214 113.143067 
L 310.047 123.287573 
L 312.09186 128.089707 
L 314.13672 130.91096 
L 316.18158 132.491462 
L 318.22644 133.832458 
L 320.2713 133.812049 
L 322.31616 133.992129 
L 326.40588 134.732858 
L 328.45074 134.612805 
L 330.4956 134.672831 
L 332.54046 135.072609 
L 334.58532 135.093018 
L 336.63018 134.832502 
L 338.67504 134.732858 
L 340.7199 135.0528 
L 342.76476 134.672831 
L 344.80962 134.612805 
L 346.85448 135.032991 
L 348.89934 135.172853 
L 350.9442 134.69264 
L 352.98906 135.0528 
L 355.03392 138.574565 
L 357.07878 186.3756 
L 359.12364 241.980102 
L 361.1685 274.895125 
L 363.21336 292.98296 
L 365.25822 303.087249 
L 367.30308 308.589893 
L 369.34794 311.671062 
L 371.3928 313.392027 
L 373.43766 314.292427 
L 375.48252 315.012747 
L 377.52738 314.972529 
L 379.57224 315.332689 
L 381.6171 315.413125 
L 383.66196 315.85312 
L 385.70682 315.372907 
L 387.75168 315.692849 
L 391.8414 316.113035 
L 393.88626 315.533178 
L 395.93112 316.013391 
L 400.02084 316.193471 
L 402.0657 315.692849 
L 404.11056 316.173062 
L 406.15542 316.253498 
L 410.24514 315.833311 
L 412.29 316.193471 
L 412.29 316.193471 
" clip-path="url(#pceb7299975)" style="fill: none; stroke: #000000; stroke-width: 1.5; stroke-linecap: square"/>
    <defs>
     <path id="mcf146371db" d="M -4 0 
L 4 0 
M 0 4 
L 0 -4 
" style="stroke: #000000"/>
    </defs>
    <g clip-path="url(#pceb7299975)">
     <use xlink:href="#mcf146371db" x="70.79838" y="316.253498" style="stroke: #000000"/>
     <use xlink:href="#mcf146371db" x="72.84324" y="316.0332" style="stroke: #000000"/>
     <use xlink:href="#mcf146371db" x="74.8881" y="315.992982" style="stroke: #000000"/>
     <use xlink:href="#mcf146371db" x="76.93296" y="315.913147" style="stroke: #000000"/>
     <use xlink:href="#mcf146371db" x="78.97782" y="316.21328" style="stroke: #000000"/>
     <use xlink:href="#mcf146371db" x="81.02268" y="316.093227" style="stroke: #000000"/>
     <use xlink:href="#mcf146371db" x="83.06754" y="315.973173" style="stroke: #000000"/>
     <use xlink:href="#mcf146371db" x="85.1124" y="316.073418" style="stroke: #000000"/>
     <use xlink:href="#mcf146371db" x="87.15726" y="316.093227" style="stroke: #000000"/>
     <use xlink:href="#mcf146371db" x="89.20212" y="316.013391" style="stroke: #000000"/>
     <use xlink:href="#mcf146371db" x="91.24698" y="315.893338" style="stroke: #000000"/>
     <use xlink:href="#mcf146371db" x="93.29184" y="315.932955" style="stroke: #000000"/>
     <use xlink:href="#mcf146371db" x="95.3367" y="315.752875" style="stroke: #000000"/>
     <use xlink:href="#mcf146371db" x="97.38156" y="315.812902" style="stroke: #000000"/>
     <use xlink:href="#mcf146371db" x="99.42642" y="315.733067" style="stroke: #000000"/>
     <use xlink:href="#mcf146371db" x="101.47128" y="315.632822" style="stroke: #000000"/>
     <use xlink:href="#mcf146371db" x="103.51614" y="315.432933" style="stroke: #000000"/>
     <use xlink:href="#mcf146371db" x="105.561" y="315.692849" style="stroke: #000000"/>
     <use xlink:href="#mcf146371db" x="107.60586" y="315.613013" style="stroke: #000000"/>
     <use xlink:href="#mcf146371db" x="109.65072" y="315.372907" style="stroke: #000000"/>
     <use xlink:href="#mcf146371db" x="111.69558" y="315.413125" style="stroke: #000000"/>
     <use xlink:href="#mcf146371db" x="113.74044" y="315.632822" style="stroke: #000000"/>
     <use xlink:href="#mcf146371db" x="115.7853" y="315.632822" style="stroke: #000000"/>
     <use xlink:href="#mcf146371db" x="117.83016" y="315.192827" style="stroke: #000000"/>
     <use xlink:href="#mcf146371db" x="119.87502" y="315.533178" style="stroke: #000000"/>
     <use xlink:href="#mcf146371db" x="121.91988" y="315.632822" style="stroke: #000000"/>
     <use xlink:href="#mcf146371db" x="123.96474" y="315.632822" style="stroke: #000000"/>
     <use xlink:href="#mcf146371db" x="126.0096" y="315.272662" style="stroke: #000000"/>
     <use xlink:href="#mcf146371db" x="128.05446" y="315.85312" style="stroke: #000000"/>
     <use xlink:href="#mcf146371db" x="130.09932" y="315.812902" style="stroke: #000000"/>
     <use xlink:href="#mcf146371db" x="132.14418" y="315.733067" style="stroke: #000000"/>
     <use xlink:href="#mcf146371db" x="134.18904" y="315.533178" style="stroke: #000000"/>
     <use xlink:href="#mcf146371db" x="136.2339" y="316.153253" style="stroke: #000000"/>
     <use xlink:href="#mcf146371db" x="138.27876" y="314.972529" style="stroke: #000000"/>
     <use xlink:href="#mcf146371db" x="140.32362" y="296.024511" style="stroke: #000000"/>
     <use xlink:href="#mcf146371db" x="142.36848" y="233.496533" style="stroke: #000000"/>
     <use xlink:href="#mcf146371db" x="144.41334" y="191.317595" style="stroke: #000000"/>
     <use xlink:href="#mcf146371db" x="146.4582" y="166.667045" style="stroke: #000000"/>
     <use xlink:href="#mcf146371db" x="148.50306" y="152.900529" style="stroke: #000000"/>
     <use xlink:href="#mcf146371db" x="150.54792" y="145.49744" style="stroke: #000000"/>
     <use xlink:href="#mcf146371db" x="152.59278" y="141.595707" style="stroke: #000000"/>
     <use xlink:href="#mcf146371db" x="154.63764" y="139.234858" style="stroke: #000000"/>
     <use xlink:href="#mcf146371db" x="156.6825" y="137.953889" style="stroke: #000000"/>
     <use xlink:href="#mcf146371db" x="158.72736" y="137.773809" style="stroke: #000000"/>
     <use xlink:href="#mcf146371db" x="160.77222" y="137.153733" style="stroke: #000000"/>
     <use xlink:href="#mcf146371db" x="162.81708" y="136.713738" style="stroke: #000000"/>
     <use xlink:href="#mcf146371db" x="164.86194" y="136.613493" style="stroke: #000000"/>
     <use xlink:href="#mcf146371db" x="166.9068" y="136.573275" style="stroke: #000000"/>
     <use xlink:href="#mcf146371db" x="168.95166" y="136.13328" style="stroke: #000000"/>
     <use xlink:href="#mcf146371db" x="170.99652" y="136.113471" style="stroke: #000000"/>
     <use xlink:href="#mcf146371db" x="173.04138" y="135.713093" style="stroke: #000000"/>
     <use xlink:href="#mcf146371db" x="175.08624" y="399.690565" style="stroke: #000000"/>
     <use xlink:href="#mcf146371db" x="177.1311" y="373.538747" style="stroke: #000000"/>
     <use xlink:href="#mcf146371db" x="179.17596" y="271.633275" style="stroke: #000000"/>
     <use xlink:href="#mcf146371db" x="181.22082" y="211.76688" style="stroke: #000000"/>
     <use xlink:href="#mcf146371db" x="183.26568" y="177.971867" style="stroke: #000000"/>
     <use xlink:href="#mcf146371db" x="185.31054" y="160.523915" style="stroke: #000000"/>
     <use xlink:href="#mcf146371db" x="187.3554" y="157.882742" style="stroke: #000000"/>
     <use xlink:href="#mcf146371db" x="189.40026" y="154.801573" style="stroke: #000000"/>
     <use xlink:href="#mcf146371db" x="191.44512" y="154.981653" style="stroke: #000000"/>
     <use xlink:href="#mcf146371db" x="193.48998" y="156.081942" style="stroke: #000000"/>
     <use xlink:href="#mcf146371db" x="195.53484" y="158.483009" style="stroke: #000000"/>
     <use xlink:href="#mcf146371db" x="197.5797" y="158.223093" style="stroke: #000000"/>
     <use xlink:href="#mcf146371db" x="199.62456" y="158.343147" style="stroke: #000000"/>
     <use xlink:href="#mcf146371db" x="201.66942" y="159.163711" style="stroke: #000000"/>
     <use xlink:href="#mcf146371db" x="203.71428" y="159.963867" style="stroke: #000000"/>
     <use xlink:href="#mcf146371db" x="205.75914" y="158.443391" style="stroke: #000000"/>
     <use xlink:href="#mcf146371db" x="207.804" y="158.28312" style="stroke: #000000"/>
     <use xlink:href="#mcf146371db" x="209.84886" y="158.82336" style="stroke: #000000"/>
     <use xlink:href="#mcf146371db" x="211.89372" y="159.643925" style="stroke: #000000"/>
     <use xlink:href="#mcf146371db" x="213.93858" y="158.4632" style="stroke: #000000"/>
     <use xlink:href="#mcf146371db" x="215.98344" y="158.122849" style="stroke: #000000"/>
     <use xlink:href="#mcf146371db" x="218.0283" y="159.243547" style="stroke: #000000"/>
     <use xlink:href="#mcf146371db" x="220.07316" y="159.323382" style="stroke: #000000"/>
     <use xlink:href="#mcf146371db" x="222.11802" y="158.483009" style="stroke: #000000"/>
     <use xlink:href="#mcf146371db" x="224.16288" y="158.623471" style="stroke: #000000"/>
     <use xlink:href="#mcf146371db" x="226.20774" y="160.124138" style="stroke: #000000"/>
     <use xlink:href="#mcf146371db" x="228.2526" y="158.82336" style="stroke: #000000"/>
     <use xlink:href="#mcf146371db" x="230.29746" y="158.803551" style="stroke: #000000"/>
     <use xlink:href="#mcf146371db" x="232.34232" y="159.403818" style="stroke: #000000"/>
     <use xlink:href="#mcf146371db" x="234.38718" y="160.064111" style="stroke: #000000"/>
     <use xlink:href="#mcf146371db" x="236.43204" y="159.423627" style="stroke: #000000"/>
     <use xlink:href="#mcf146371db" x="238.4769" y="159.063467" style="stroke: #000000"/>
     <use xlink:href="#mcf146371db" x="240.52176" y="159.00344" style="stroke: #000000"/>
     <use xlink:href="#mcf146371db" x="242.56662" y="159.623515" style="stroke: #000000"/>
     <use xlink:href="#mcf146371db" x="244.61148" y="159.3636" style="stroke: #000000"/>
     <use xlink:href="#mcf146371db" x="246.65634" y="158.963222" style="stroke: #000000"/>
     <use xlink:href="#mcf146371db" x="248.7012" y="159.423627" style="stroke: #000000"/>
     <use xlink:href="#mcf146371db" x="250.74606" y="160.064111" style="stroke: #000000"/>
     <use xlink:href="#mcf146371db" x="252.79092" y="159.743569" style="stroke: #000000"/>
     <use xlink:href="#mcf146371db" x="254.83578" y="158.743525" style="stroke: #000000"/>
     <use xlink:href="#mcf146371db" x="256.88064" y="161.764667" style="stroke: #000000"/>
     <use xlink:href="#mcf146371db" x="258.9255" y="161.484342" style="stroke: #000000"/>
     <use xlink:href="#mcf146371db" x="260.97036" y="160.643969" style="stroke: #000000"/>
     <use xlink:href="#mcf146371db" x="263.01522" y="159.243547" style="stroke: #000000"/>
     <use xlink:href="#mcf146371db" x="265.06008" y="160.244191" style="stroke: #000000"/>
     <use xlink:href="#mcf146371db" x="267.10494" y="160.504107" style="stroke: #000000"/>
     <use xlink:href="#mcf146371db" x="269.1498" y="160.08392" style="stroke: #000000"/>
     <use xlink:href="#mcf146371db" x="271.19466" y="159.503462" style="stroke: #000000"/>
     <use xlink:href="#mcf146371db" x="273.23952" y="160.80424" style="stroke: #000000"/>
     <use xlink:href="#mcf146371db" x="275.28438" y="160.864267" style="stroke: #000000"/>
     <use xlink:href="#mcf146371db" x="277.32924" y="160.143947" style="stroke: #000000"/>
     <use xlink:href="#mcf146371db" x="279.3741" y="159.283765" style="stroke: #000000"/>
     <use xlink:href="#mcf146371db" x="281.41896" y="160.484298" style="stroke: #000000"/>
     <use xlink:href="#mcf146371db" x="283.46382" y="159.843813" style="stroke: #000000"/>
     <use xlink:href="#mcf146371db" x="285.50868" y="158.543035" style="stroke: #000000"/>
     <use xlink:href="#mcf146371db" x="287.55354" y="158.743525" style="stroke: #000000"/>
     <use xlink:href="#mcf146371db" x="289.5984" y="160.223782" style="stroke: #000000"/>
     <use xlink:href="#mcf146371db" x="291.64326" y="160.103729" style="stroke: #000000"/>
     <use xlink:href="#mcf146371db" x="293.68812" y="159.123493" style="stroke: #000000"/>
     <use xlink:href="#mcf146371db" x="295.73298" y="152.70064" style="stroke: #000000"/>
     <use xlink:href="#mcf146371db" x="296.962846" y="-1" style="stroke: #000000"/>
     <use xlink:href="#mcf146371db" x="301.674361" y="-1" style="stroke: #000000"/>
     <use xlink:href="#mcf146371db" x="301.86756" y="7.316053" style="stroke: #000000"/>
     <use xlink:href="#mcf146371db" x="303.91242" y="63.9212" style="stroke: #000000"/>
     <use xlink:href="#mcf146371db" x="305.95728" y="95.955631" style="stroke: #000000"/>
     <use xlink:href="#mcf146371db" x="308.00214" y="113.143067" style="stroke: #000000"/>
     <use xlink:href="#mcf146371db" x="310.047" y="123.287573" style="stroke: #000000"/>
     <use xlink:href="#mcf146371db" x="312.09186" y="128.089707" style="stroke: #000000"/>
     <use xlink:href="#mcf146371db" x="314.13672" y="130.91096" style="stroke: #000000"/>
     <use xlink:href="#mcf146371db" x="316.18158" y="132.491462" style="stroke: #000000"/>
     <use xlink:href="#mcf146371db" x="318.22644" y="133.832458" style="stroke: #000000"/>
     <use xlink:href="#mcf146371db" x="320.2713" y="133.812049" style="stroke: #000000"/>
     <use xlink:href="#mcf146371db" x="322.31616" y="133.992129" style="stroke: #000000"/>
     <use xlink:href="#mcf146371db" x="324.36102" y="134.392507" style="stroke: #000000"/>
     <use xlink:href="#mcf146371db" x="326.40588" y="134.732858" style="stroke: #000000"/>
     <use xlink:href="#mcf146371db" x="328.45074" y="134.612805" style="stroke: #000000"/>
     <use xlink:href="#mcf146371db" x="330.4956" y="134.672831" style="stroke: #000000"/>
     <use xlink:href="#mcf146371db" x="332.54046" y="135.072609" style="stroke: #000000"/>
     <use xlink:href="#mcf146371db" x="334.58532" y="135.093018" style="stroke: #000000"/>
     <use xlink:href="#mcf146371db" x="336.63018" y="134.832502" style="stroke: #000000"/>
     <use xlink:href="#mcf146371db" x="338.67504" y="134.732858" style="stroke: #000000"/>
     <use xlink:href="#mcf146371db" x="340.7199" y="135.0528" style="stroke: #000000"/>
     <use xlink:href="#mcf146371db" x="342.76476" y="134.672831" style="stroke: #000000"/>
     <use xlink:href="#mcf146371db" x="344.80962" y="134.612805" style="stroke: #000000"/>
     <use xlink:href="#mcf146371db" x="346.85448" y="135.032991" style="stroke: #000000"/>
     <use xlink:href="#mcf146371db" x="348.89934" y="135.172853" style="stroke: #000000"/>
     <use xlink:href="#mcf146371db" x="350.9442" y="134.69264" style="stroke: #000000"/>
     <use xlink:href="#mcf146371db" x="352.98906" y="135.0528" style="stroke: #000000"/>
     <use xlink:href="#mcf146371db" x="355.03392" y="138.574565" style="stroke: #000000"/>
     <use xlink:href="#mcf146371db" x="357.07878" y="186.3756" style="stroke: #000000"/>
     <use xlink:href="#mcf146371db" x="359.12364" y="241.980102" style="stroke: #000000"/>
     <use xlink:href="#mcf146371db" x="361.1685" y="274.895125" style="stroke: #000000"/>
     <use xlink:href="#mcf146371db" x="363.21336" y="292.98296" style="stroke: #000000"/>
     <use xlink:href="#mcf146371db" x="365.25822" y="303.087249" style="stroke: #000000"/>
     <use xlink:href="#mcf146371db" x="367.30308" y="308.589893" style="stroke: #000000"/>
     <use xlink:href="#mcf146371db" x="369.34794" y="311.671062" style="stroke: #000000"/>
     <use xlink:href="#mcf146371db" x="371.3928" y="313.392027" style="stroke: #000000"/>
     <use xlink:href="#mcf146371db" x="373.43766" y="314.292427" style="stroke: #000000"/>
     <use xlink:href="#mcf146371db" x="375.48252" y="315.012747" style="stroke: #000000"/>
     <use xlink:href="#mcf146371db" x="377.52738" y="314.972529" style="stroke: #000000"/>
     <use xlink:href="#mcf146371db" x="379.57224" y="315.332689" style="stroke: #000000"/>
     <use xlink:href="#mcf146371db" x="381.6171" y="315.413125" style="stroke: #000000"/>
     <use xlink:href="#mcf146371db" x="383.66196" y="315.85312" style="stroke: #000000"/>
     <use xlink:href="#mcf146371db" x="385.70682" y="315.372907" style="stroke: #000000"/>
     <use xlink:href="#mcf146371db" x="387.75168" y="315.692849" style="stroke: #000000"/>
     <use xlink:href="#mcf146371db" x="389.79654" y="315.85312" style="stroke: #000000"/>
     <use xlink:href="#mcf146371db" x="391.8414" y="316.113035" style="stroke: #000000"/>
     <use xlink:href="#mcf146371db" x="393.88626" y="315.533178" style="stroke: #000000"/>
     <use xlink:href="#mcf146371db" x="395.93112" y="316.013391" style="stroke: #000000"/>
     <use xlink:href="#mcf146371db" x="397.97598" y="316.113035" style="stroke: #000000"/>
     <use xlink:href="#mcf146371db" x="400.02084" y="316.193471" style="stroke: #000000"/>
     <use xlink:href="#mcf146371db" x="402.0657" y="315.692849" style="stroke: #000000"/>
     <use xlink:href="#mcf146371db" x="404.11056" y="316.173062" style="stroke: #000000"/>
     <use xlink:href="#mcf146371db" x="406.15542" y="316.253498" style="stroke: #000000"/>
     <use xlink:href="#mcf146371db" x="408.20028" y="316.073418" style="stroke: #000000"/>
     <use xlink:href="#mcf146371db" x="410.24514" y="315.833311" style="stroke: #000000"/>
     <use xlink:href="#mcf146371db" x="412.29" y="316.193471" style="stroke: #000000"/>
    </g>
   </g>
   <g id="line2d_15">
    <defs>
     <path id="m92ab7e7f7c" d="M -4 0 
L 4 0 
M 0 4 
L 0 -4 
" style="stroke: #0000ff"/>
    </defs>
    <g clip-path="url(#pceb7299975)">
     <use xlink:href="#m92ab7e7f7c" x="324.36102" y="134.392507" style="fill: #0000ff; stroke: #0000ff"/>
     <use xlink:href="#m92ab7e7f7c" x="326.40588" y="134.732858" style="fill: #0000ff; stroke: #0000ff"/>
     <use xlink:href="#m92ab7e7f7c" x="328.45074" y="134.612805" style="fill: #0000ff; stroke: #0000ff"/>
     <use xlink:href="#m92ab7e7f7c" x="330.4956" y="134.672831" style="fill: #0000ff; stroke: #0000ff"/>
     <use xlink:href="#m92ab7e7f7c" x="332.54046" y="135.072609" style="fill: #0000ff; stroke: #0000ff"/>
     <use xlink:href="#m92ab7e7f7c" x="334.58532" y="135.093018" style="fill: #0000ff; stroke: #0000ff"/>
     <use xlink:href="#m92ab7e7f7c" x="336.63018" y="134.832502" style="fill: #0000ff; stroke: #0000ff"/>
     <use xlink:href="#m92ab7e7f7c" x="338.67504" y="134.732858" style="fill: #0000ff; stroke: #0000ff"/>
     <use xlink:href="#m92ab7e7f7c" x="340.7199" y="135.0528" style="fill: #0000ff; stroke: #0000ff"/>
     <use xlink:href="#m92ab7e7f7c" x="342.76476" y="134.672831" style="fill: #0000ff; stroke: #0000ff"/>
     <use xlink:href="#m92ab7e7f7c" x="344.80962" y="134.612805" style="fill: #0000ff; stroke: #0000ff"/>
     <use xlink:href="#m92ab7e7f7c" x="346.85448" y="135.032991" style="fill: #0000ff; stroke: #0000ff"/>
     <use xlink:href="#m92ab7e7f7c" x="348.89934" y="135.172853" style="fill: #0000ff; stroke: #0000ff"/>
    </g>
   </g>
   <g id="line2d_16">
    <g clip-path="url(#pceb7299975)">
     <use xlink:href="#m92ab7e7f7c" x="379.57224" y="315.332689" style="fill: #0000ff; stroke: #0000ff"/>
     <use xlink:href="#m92ab7e7f7c" x="381.6171" y="315.413125" style="fill: #0000ff; stroke: #0000ff"/>
     <use xlink:href="#m92ab7e7f7c" x="383.66196" y="315.85312" style="fill: #0000ff; stroke: #0000ff"/>
     <use xlink:href="#m92ab7e7f7c" x="385.70682" y="315.372907" style="fill: #0000ff; stroke: #0000ff"/>
     <use xlink:href="#m92ab7e7f7c" x="387.75168" y="315.692849" style="fill: #0000ff; stroke: #0000ff"/>
     <use xlink:href="#m92ab7e7f7c" x="389.79654" y="315.85312" style="fill: #0000ff; stroke: #0000ff"/>
     <use xlink:href="#m92ab7e7f7c" x="391.8414" y="316.113035" style="fill: #0000ff; stroke: #0000ff"/>
     <use xlink:href="#m92ab7e7f7c" x="393.88626" y="315.533178" style="fill: #0000ff; stroke: #0000ff"/>
     <use xlink:href="#m92ab7e7f7c" x="395.93112" y="316.013391" style="fill: #0000ff; stroke: #0000ff"/>
     <use xlink:href="#m92ab7e7f7c" x="397.97598" y="316.113035" style="fill: #0000ff; stroke: #0000ff"/>
     <use xlink:href="#m92ab7e7f7c" x="400.02084" y="316.193471" style="fill: #0000ff; stroke: #0000ff"/>
     <use xlink:href="#m92ab7e7f7c" x="402.0657" y="315.692849" style="fill: #0000ff; stroke: #0000ff"/>
     <use xlink:href="#m92ab7e7f7c" x="404.11056" y="316.173062" style="fill: #0000ff; stroke: #0000ff"/>
    </g>
   </g>
   <g id="patch_5">
    <path d="M 71.48 376.36 
L 71.48 16.2 
" style="fill: none; stroke: #000000; stroke-width: 0.8; stroke-linejoin: miter; stroke-linecap: square"/>
   </g>
   <g id="patch_6">
    <path d="M 412.29 376.36 
L 412.29 16.2 
" style="fill: none; stroke: #000000; stroke-width: 0.8; stroke-linejoin: miter; stroke-linecap: square"/>
   </g>
   <g id="patch_7">
    <path d="M 71.48 376.36 
L 412.29 376.36 
" style="fill: none; stroke: #000000; stroke-width: 0.8; stroke-linejoin: miter; stroke-linecap: square"/>
   </g>
   <g id="patch_8">
    <path d="M 71.48 16.2 
L 412.29 16.2 
" style="fill: none; stroke: #000000; stroke-width: 0.8; stroke-linejoin: miter; stroke-linecap: square"/>
   </g>
  </g>
 </g>
 <defs>
  <clipPath id="pceb7299975">
   <rect x="71.48" y="16.2" width="340.81" height="360.16"/>
  </clipPath>
 </defs>
</svg>
