<?xml version="1.0" encoding="utf-8" standalone="no"?>
<!DOCTYPE svg PUBLIC "-//W3C//DTD SVG 1.1//EN"
  "http://www.w3.org/Graphics/SVG/1.1/DTD/svg11.dtd">
<svg xmlns:xlink="http://www.w3.org/1999/xlink" width="432pt" height="432pt" viewBox="0 0 432 432" xmlns="http://www.w3.org/2000/svg" version="1.1">
 <metadata>
  <rdf:RDF xmlns:dc="http://purl.org/dc/elements/1.1/" xmlns:cc="http://creativecommons.org/ns#" xmlns:rdf="http://www.w3.org/1999/02/22-rdf-syntax-ns#">
   <cc:Work>
    <dc:type rdf:resource="http://purl.org/dc/dcmitype/StillImage"/>
    <dc:date>2024-06-18T16:11:30.105967</dc:date>
    <dc:format>image/svg+xml</dc:format>
    <dc:creator>
     <cc:Agent>
      <dc:title>Matplotlib v3.7.2, https://matplotlib.org/</dc:title>
     </cc:Agent>
    </dc:creator>
   </cc:Work>
  </rdf:RDF>
 </metadata>
 <defs>
  <style type="text/css">*{stroke-linejoin: round; stroke-linecap: butt}</style>
 </defs>
 <g id="figure_1">
  <g id="patch_1">
   <path d="M 0 432 
L 432 432 
L 432 0 
L 0 0 
z
" style="fill: #ffffff"/>
  </g>
  <g id="axes_1">
   <g id="patch_2">
    <path d="M 86.978 357.928 
L 410.4 357.928 
L 410.4 27 
L 86.978 27 
z
" style="fill: #ffffff"/>
   </g>
   <g id="matplotlib.axis_1">
    <g id="xtick_1">
     <g id="line2d_1">
      <defs>
       <path id="m831d1ad996" d="M 0 0 
L 0 3.5 
" style="stroke: #000000; stroke-width: 0.8"/>
      </defs>
      <g>
       <use xlink:href="#m831d1ad996" x="86.978" y="357.928" style="stroke: #000000; stroke-width: 0.8"/>
      </g>
     </g>
     <g id="text_1">
      <!-- 0.0 -->
      <g transform="translate(77.280813 375.237687) scale(0.14 -0.14)">
       <defs>
        <path id="CenturyGothic-30" d="M 203 2297 
Q 203 3206 398 3703 
Q 594 4200 950 4456 
Q 1306 4713 1747 4713 
Q 2194 4713 2556 4455 
Q 2919 4197 3130 3681 
Q 3341 3166 3341 2297 
Q 3341 1431 3133 918 
Q 2925 406 2559 145 
Q 2194 -116 1747 -116 
Q 1306 -116 953 137 
Q 600 391 401 892 
Q 203 1394 203 2297 
z
M 638 2288 
Q 638 1509 777 1111 
Q 916 713 1187 506 
Q 1459 300 1763 300 
Q 2069 300 2334 501 
Q 2600 703 2738 1106 
Q 2909 1597 2909 2288 
Q 2909 2981 2756 3423 
Q 2603 3866 2333 4070 
Q 2063 4275 1763 4275 
Q 1456 4275 1187 4070 
Q 919 3866 778 3467 
Q 638 3069 638 2288 
z
" transform="scale(0.015625)"/>
        <path id="CenturyGothic-2e" d="M 969 688 
Q 1128 688 1240 575 
Q 1353 463 1353 300 
Q 1353 141 1240 26 
Q 1128 -88 969 -88 
Q 809 -88 696 26 
Q 584 141 584 300 
Q 584 463 696 575 
Q 809 688 969 688 
z
" transform="scale(0.015625)"/>
       </defs>
       <use xlink:href="#CenturyGothic-30"/>
       <use xlink:href="#CenturyGothic-2e" x="55.419922"/>
       <use xlink:href="#CenturyGothic-30" x="83.105469"/>
      </g>
     </g>
    </g>
    <g id="xtick_2">
     <g id="line2d_2">
      <g>
       <use xlink:href="#m831d1ad996" x="148.58219" y="357.928" style="stroke: #000000; stroke-width: 0.8"/>
      </g>
     </g>
     <g id="text_2">
      <!-- 0.2 -->
      <g transform="translate(138.885003 375.237687) scale(0.14 -0.14)">
       <defs>
        <path id="CenturyGothic-32" d="M 741 3156 
L 300 3156 
Q 319 3838 755 4275 
Q 1191 4713 1831 4713 
Q 2466 4713 2858 4303 
Q 3250 3894 3250 3338 
Q 3250 2947 3062 2605 
Q 2875 2263 2334 1678 
L 1191 444 
L 3313 444 
L 3313 0 
L 191 0 
L 1947 1897 
Q 2481 2469 2642 2745 
Q 2803 3022 2803 3328 
Q 2803 3716 2514 3995 
Q 2225 4275 1806 4275 
Q 1366 4275 1073 3981 
Q 781 3688 741 3156 
z
" transform="scale(0.015625)"/>
       </defs>
       <use xlink:href="#CenturyGothic-30"/>
       <use xlink:href="#CenturyGothic-2e" x="55.419922"/>
       <use xlink:href="#CenturyGothic-32" x="83.105469"/>
      </g>
     </g>
    </g>
    <g id="xtick_3">
     <g id="line2d_3">
      <g>
       <use xlink:href="#m831d1ad996" x="210.186381" y="357.928" style="stroke: #000000; stroke-width: 0.8"/>
      </g>
     </g>
     <g id="text_3">
      <!-- 0.4 -->
      <g transform="translate(200.489193 375.237687) scale(0.14 -0.14)">
       <defs>
        <path id="CenturyGothic-34" d="M 2725 4713 
L 2819 4713 
L 2819 1509 
L 3375 1509 
L 3375 1069 
L 2819 1069 
L 2819 0 
L 2359 0 
L 2359 1069 
L 163 1069 
L 2725 4713 
z
M 2359 1509 
L 2359 3425 
L 1006 1509 
L 2359 1509 
z
" transform="scale(0.015625)"/>
       </defs>
       <use xlink:href="#CenturyGothic-30"/>
       <use xlink:href="#CenturyGothic-2e" x="55.419922"/>
       <use xlink:href="#CenturyGothic-34" x="83.105469"/>
      </g>
     </g>
    </g>
    <g id="xtick_4">
     <g id="line2d_4">
      <g>
       <use xlink:href="#m831d1ad996" x="271.790571" y="357.928" style="stroke: #000000; stroke-width: 0.8"/>
      </g>
     </g>
     <g id="text_4">
      <!-- 0.6 -->
      <g transform="translate(262.093384 375.237687) scale(0.14 -0.14)">
       <defs>
        <path id="CenturyGothic-36" d="M 2347 4713 
L 2725 4466 
L 1484 2584 
Q 1734 2669 1953 2669 
Q 2500 2669 2881 2273 
Q 3263 1878 3263 1300 
Q 3263 903 3078 583 
Q 2894 263 2555 73 
Q 2216 -116 1825 -116 
Q 1447 -116 1123 67 
Q 800 250 615 581 
Q 431 913 431 1291 
Q 431 1572 545 1883 
Q 659 2194 953 2631 
L 2347 4713 
z
M 1844 2266 
Q 1444 2266 1161 1983 
Q 878 1700 878 1297 
Q 878 897 1161 614 
Q 1444 331 1844 331 
Q 2244 331 2526 614 
Q 2809 897 2809 1297 
Q 2809 1700 2526 1983 
Q 2244 2266 1844 2266 
z
" transform="scale(0.015625)"/>
       </defs>
       <use xlink:href="#CenturyGothic-30"/>
       <use xlink:href="#CenturyGothic-2e" x="55.419922"/>
       <use xlink:href="#CenturyGothic-36" x="83.105469"/>
      </g>
     </g>
    </g>
    <g id="xtick_5">
     <g id="line2d_5">
      <g>
       <use xlink:href="#m831d1ad996" x="333.394762" y="357.928" style="stroke: #000000; stroke-width: 0.8"/>
      </g>
     </g>
     <g id="text_5">
      <!-- 0.8 -->
      <g transform="translate(323.697574 375.237687) scale(0.14 -0.14)">
       <defs>
        <path id="CenturyGothic-38" d="M 2459 2522 
Q 2925 2291 3126 1994 
Q 3328 1697 3328 1319 
Q 3328 788 2981 381 
Q 2556 -116 1766 -116 
Q 1003 -116 609 320 
Q 216 756 216 1281 
Q 216 1666 422 1973 
Q 628 2281 1109 2522 
Q 772 2697 603 2956 
Q 434 3216 434 3513 
Q 434 3813 614 4098 
Q 794 4384 1111 4548 
Q 1428 4713 1797 4713 
Q 2156 4713 2462 4547 
Q 2769 4381 2942 4097 
Q 3116 3813 3116 3500 
Q 3116 3188 2952 2944 
Q 2788 2700 2459 2522 
z
M 1775 4266 
Q 1397 4266 1148 4042 
Q 900 3819 900 3509 
Q 900 3203 1167 2954 
Q 1434 2706 1791 2706 
Q 2019 2706 2222 2818 
Q 2425 2931 2539 3126 
Q 2653 3322 2653 3519 
Q 2653 3797 2428 4031 
Q 2203 4266 1775 4266 
z
M 1797 2291 
Q 1322 2291 1000 1983 
Q 678 1675 678 1266 
Q 678 1013 815 788 
Q 953 563 1200 441 
Q 1447 319 1772 319 
Q 2275 319 2572 616 
Q 2869 913 2869 1309 
Q 2869 1694 2555 1992 
Q 2241 2291 1797 2291 
z
" transform="scale(0.015625)"/>
       </defs>
       <use xlink:href="#CenturyGothic-30"/>
       <use xlink:href="#CenturyGothic-2e" x="55.419922"/>
       <use xlink:href="#CenturyGothic-38" x="83.105469"/>
      </g>
     </g>
    </g>
    <g id="xtick_6">
     <g id="line2d_6">
      <g>
       <use xlink:href="#m831d1ad996" x="394.998952" y="357.928" style="stroke: #000000; stroke-width: 0.8"/>
      </g>
     </g>
     <g id="text_6">
      <!-- 1.0 -->
      <g transform="translate(385.301765 375.237687) scale(0.14 -0.14)">
       <defs>
        <path id="CenturyGothic-31" d="M 1184 4597 
L 2088 4597 
L 2088 0 
L 1631 0 
L 1631 4147 
L 909 4147 
L 1184 4597 
z
" transform="scale(0.015625)"/>
       </defs>
       <use xlink:href="#CenturyGothic-31"/>
       <use xlink:href="#CenturyGothic-2e" x="55.419922"/>
       <use xlink:href="#CenturyGothic-30" x="83.105469"/>
      </g>
     </g>
    </g>
    <g id="text_7">
     <!-- Degradation $\mathrm{1 - I_c^{OFF}\, /\, I_c^{Unirradiated}}$ -->
     <g transform="translate(94.489 400.358937) scale(0.2 -0.2)">
      <defs>
       <path id="CenturyGothic-44" d="M 559 0 
L 559 4597 
L 1513 4597 
Q 2544 4597 3009 4431 
Q 3678 4197 4054 3619 
Q 4431 3041 4431 2241 
Q 4431 1550 4132 1025 
Q 3834 500 3357 250 
Q 2881 0 2022 0 
L 559 0 
z
M 1000 434 
L 1531 434 
Q 2484 434 2853 553 
Q 3372 722 3669 1161 
Q 3966 1600 3966 2234 
Q 3966 2900 3644 3372 
Q 3322 3844 2747 4019 
Q 2316 4150 1325 4150 
L 1000 4150 
L 1000 434 
z
" transform="scale(0.015625)"/>
       <path id="CenturyGothic-65" d="M 3350 1128 
L 3719 934 
Q 3538 578 3300 359 
Q 3063 141 2766 26 
Q 2469 -88 2094 -88 
Q 1263 -88 794 457 
Q 325 1003 325 1691 
Q 325 2338 722 2844 
Q 1225 3488 2069 3488 
Q 2938 3488 3456 2828 
Q 3825 2363 3831 1666 
L 775 1666 
Q 788 1072 1153 692 
Q 1519 313 2056 313 
Q 2316 313 2561 403 
Q 2806 494 2978 644 
Q 3150 794 3350 1128 
z
M 3350 2044 
Q 3263 2394 3095 2603 
Q 2928 2813 2653 2941 
Q 2378 3069 2075 3069 
Q 1575 3069 1216 2747 
Q 953 2513 819 2044 
L 3350 2044 
z
" transform="scale(0.015625)"/>
       <path id="CenturyGothic-67" d="M 3416 3400 
L 3856 3400 
L 3856 691 
Q 3856 -25 3731 -356 
Q 3559 -825 3134 -1078 
Q 2709 -1331 2113 -1331 
Q 1675 -1331 1326 -1207 
Q 978 -1084 759 -876 
Q 541 -669 356 -269 
L 831 -269 
Q 1025 -606 1331 -768 
Q 1638 -931 2091 -931 
Q 2538 -931 2845 -764 
Q 3153 -597 3284 -344 
Q 3416 -91 3416 472 
L 3416 647 
Q 3169 334 2812 167 
Q 2456 0 2056 0 
Q 1588 0 1175 233 
Q 763 466 538 859 
Q 313 1253 313 1725 
Q 313 2197 547 2605 
Q 781 3013 1195 3250 
Q 1609 3488 2069 3488 
Q 2450 3488 2779 3330 
Q 3109 3172 3416 2809 
L 3416 3400 
z
M 2125 3066 
Q 1753 3066 1434 2886 
Q 1116 2706 934 2389 
Q 753 2072 753 1703 
Q 753 1144 1128 778 
Q 1503 413 2100 413 
Q 2703 413 3070 775 
Q 3438 1138 3438 1728 
Q 3438 2113 3269 2414 
Q 3100 2716 2790 2891 
Q 2481 3066 2125 3066 
z
" transform="scale(0.015625)"/>
       <path id="CenturyGothic-72" d="M 322 3400 
L 769 3400 
L 769 2903 
Q 969 3197 1191 3342 
Q 1413 3488 1653 3488 
Q 1834 3488 2041 3372 
L 1813 3003 
Q 1675 3063 1581 3063 
Q 1363 3063 1159 2883 
Q 956 2703 850 2325 
Q 769 2034 769 1150 
L 769 0 
L 322 0 
L 322 3400 
z
" transform="scale(0.015625)"/>
       <path id="CenturyGothic-61" d="M 3875 3400 
L 3875 0 
L 3444 0 
L 3444 584 
Q 3169 250 2826 81 
Q 2484 -88 2078 -88 
Q 1356 -88 845 435 
Q 334 959 334 1709 
Q 334 2444 850 2966 
Q 1366 3488 2091 3488 
Q 2509 3488 2848 3309 
Q 3188 3131 3444 2775 
L 3444 3400 
L 3875 3400 
z
M 2125 3066 
Q 1759 3066 1450 2886 
Q 1141 2706 958 2381 
Q 775 2056 775 1694 
Q 775 1334 959 1006 
Q 1144 678 1455 495 
Q 1766 313 2122 313 
Q 2481 313 2803 494 
Q 3125 675 3298 984 
Q 3472 1294 3472 1681 
Q 3472 2272 3083 2669 
Q 2694 3066 2125 3066 
z
" transform="scale(0.015625)"/>
       <path id="CenturyGothic-64" d="M 3881 4713 
L 3881 0 
L 3450 0 
L 3450 584 
Q 3175 250 2833 81 
Q 2491 -88 2084 -88 
Q 1363 -88 852 435 
Q 341 959 341 1709 
Q 341 2444 856 2966 
Q 1372 3488 2097 3488 
Q 2516 3488 2855 3309 
Q 3194 3131 3450 2775 
L 3450 4713 
L 3881 4713 
z
M 2131 3066 
Q 1766 3066 1456 2886 
Q 1147 2706 964 2381 
Q 781 2056 781 1694 
Q 781 1334 965 1006 
Q 1150 678 1461 495 
Q 1772 313 2128 313 
Q 2488 313 2809 494 
Q 3131 675 3304 984 
Q 3478 1294 3478 1681 
Q 3478 2272 3089 2669 
Q 2700 3066 2131 3066 
z
" transform="scale(0.015625)"/>
       <path id="CenturyGothic-74" d="M 869 4663 
L 1309 4663 
L 1309 3400 
L 2003 3400 
L 2003 3025 
L 1309 3025 
L 1309 0 
L 869 0 
L 869 3025 
L 272 3025 
L 272 3400 
L 869 3400 
L 869 4663 
z
" transform="scale(0.015625)"/>
       <path id="CenturyGothic-69" d="M 641 4800 
Q 791 4800 897 4694 
Q 1003 4588 1003 4438 
Q 1003 4291 897 4184 
Q 791 4078 641 4078 
Q 494 4078 387 4184 
Q 281 4291 281 4438 
Q 281 4588 387 4694 
Q 494 4800 641 4800 
z
M 422 3400 
L 863 3400 
L 863 0 
L 422 0 
L 422 3400 
z
" transform="scale(0.015625)"/>
       <path id="CenturyGothic-6f" d="M 2097 3488 
Q 2881 3488 3397 2919 
Q 3866 2400 3866 1691 
Q 3866 978 3370 445 
Q 2875 -88 2097 -88 
Q 1316 -88 820 445 
Q 325 978 325 1691 
Q 325 2397 794 2916 
Q 1309 3488 2097 3488 
z
M 2097 3059 
Q 1553 3059 1162 2656 
Q 772 2253 772 1681 
Q 772 1313 950 994 
Q 1128 675 1431 501 
Q 1734 328 2097 328 
Q 2459 328 2762 501 
Q 3066 675 3244 994 
Q 3422 1313 3422 1681 
Q 3422 2253 3030 2656 
Q 2638 3059 2097 3059 
z
" transform="scale(0.015625)"/>
       <path id="CenturyGothic-6e" d="M 488 3400 
L 925 3400 
L 925 2791 
Q 1188 3141 1506 3314 
Q 1825 3488 2200 3488 
Q 2581 3488 2876 3294 
Q 3172 3100 3312 2772 
Q 3453 2444 3453 1750 
L 3453 0 
L 3019 0 
L 3019 1622 
Q 3019 2209 2969 2406 
Q 2891 2744 2675 2914 
Q 2459 3084 2113 3084 
Q 1716 3084 1402 2821 
Q 1088 2559 988 2172 
Q 925 1919 925 1247 
L 925 0 
L 488 0 
L 488 3400 
z
" transform="scale(0.015625)"/>
       <path id="CenturyGothic-20" transform="scale(0.015625)"/>
       <path id="DejaVuSans-31" d="M 794 531 
L 1825 531 
L 1825 4091 
L 703 3866 
L 703 4441 
L 1819 4666 
L 2450 4666 
L 2450 531 
L 3481 531 
L 3481 0 
L 794 0 
L 794 531 
z
" transform="scale(0.015625)"/>
       <path id="DejaVuSans-2212" d="M 678 2272 
L 4684 2272 
L 4684 1741 
L 678 1741 
L 678 2272 
z
" transform="scale(0.015625)"/>
       <path id="DejaVuSans-49" d="M 628 4666 
L 1259 4666 
L 1259 0 
L 628 0 
L 628 4666 
z
" transform="scale(0.015625)"/>
       <path id="DejaVuSans-4f" d="M 2522 4238 
Q 1834 4238 1429 3725 
Q 1025 3213 1025 2328 
Q 1025 1447 1429 934 
Q 1834 422 2522 422 
Q 3209 422 3611 934 
Q 4013 1447 4013 2328 
Q 4013 3213 3611 3725 
Q 3209 4238 2522 4238 
z
M 2522 4750 
Q 3503 4750 4090 4092 
Q 4678 3434 4678 2328 
Q 4678 1225 4090 567 
Q 3503 -91 2522 -91 
Q 1538 -91 948 565 
Q 359 1222 359 2328 
Q 359 3434 948 4092 
Q 1538 4750 2522 4750 
z
" transform="scale(0.015625)"/>
       <path id="DejaVuSans-46" d="M 628 4666 
L 3309 4666 
L 3309 4134 
L 1259 4134 
L 1259 2759 
L 3109 2759 
L 3109 2228 
L 1259 2228 
L 1259 0 
L 628 0 
L 628 4666 
z
" transform="scale(0.015625)"/>
       <path id="DejaVuSans-63" d="M 3122 3366 
L 3122 2828 
Q 2878 2963 2633 3030 
Q 2388 3097 2138 3097 
Q 1578 3097 1268 2742 
Q 959 2388 959 1747 
Q 959 1106 1268 751 
Q 1578 397 2138 397 
Q 2388 397 2633 464 
Q 2878 531 3122 666 
L 3122 134 
Q 2881 22 2623 -34 
Q 2366 -91 2075 -91 
Q 1284 -91 818 406 
Q 353 903 353 1747 
Q 353 2603 823 3093 
Q 1294 3584 2113 3584 
Q 2378 3584 2631 3529 
Q 2884 3475 3122 3366 
z
" transform="scale(0.015625)"/>
       <path id="DejaVuSans-2f" d="M 1625 4666 
L 2156 4666 
L 531 -594 
L 0 -594 
L 1625 4666 
z
" transform="scale(0.015625)"/>
       <path id="DejaVuSans-55" d="M 556 4666 
L 1191 4666 
L 1191 1831 
Q 1191 1081 1462 751 
Q 1734 422 2344 422 
Q 2950 422 3222 751 
Q 3494 1081 3494 1831 
L 3494 4666 
L 4128 4666 
L 4128 1753 
Q 4128 841 3676 375 
Q 3225 -91 2344 -91 
Q 1459 -91 1007 375 
Q 556 841 556 1753 
L 556 4666 
z
" transform="scale(0.015625)"/>
       <path id="DejaVuSans-6e" d="M 3513 2113 
L 3513 0 
L 2938 0 
L 2938 2094 
Q 2938 2591 2744 2837 
Q 2550 3084 2163 3084 
Q 1697 3084 1428 2787 
Q 1159 2491 1159 1978 
L 1159 0 
L 581 0 
L 581 3500 
L 1159 3500 
L 1159 2956 
Q 1366 3272 1645 3428 
Q 1925 3584 2291 3584 
Q 2894 3584 3203 3211 
Q 3513 2838 3513 2113 
z
" transform="scale(0.015625)"/>
       <path id="DejaVuSans-69" d="M 603 3500 
L 1178 3500 
L 1178 0 
L 603 0 
L 603 3500 
z
M 603 4863 
L 1178 4863 
L 1178 4134 
L 603 4134 
L 603 4863 
z
" transform="scale(0.015625)"/>
       <path id="DejaVuSans-72" d="M 2631 2963 
Q 2534 3019 2420 3045 
Q 2306 3072 2169 3072 
Q 1681 3072 1420 2755 
Q 1159 2438 1159 1844 
L 1159 0 
L 581 0 
L 581 3500 
L 1159 3500 
L 1159 2956 
Q 1341 3275 1631 3429 
Q 1922 3584 2338 3584 
Q 2397 3584 2469 3576 
Q 2541 3569 2628 3553 
L 2631 2963 
z
" transform="scale(0.015625)"/>
       <path id="DejaVuSans-61" d="M 2194 1759 
Q 1497 1759 1228 1600 
Q 959 1441 959 1056 
Q 959 750 1161 570 
Q 1363 391 1709 391 
Q 2188 391 2477 730 
Q 2766 1069 2766 1631 
L 2766 1759 
L 2194 1759 
z
M 3341 1997 
L 3341 0 
L 2766 0 
L 2766 531 
Q 2569 213 2275 61 
Q 1981 -91 1556 -91 
Q 1019 -91 701 211 
Q 384 513 384 1019 
Q 384 1609 779 1909 
Q 1175 2209 1959 2209 
L 2766 2209 
L 2766 2266 
Q 2766 2663 2505 2880 
Q 2244 3097 1772 3097 
Q 1472 3097 1187 3025 
Q 903 2953 641 2809 
L 641 3341 
Q 956 3463 1253 3523 
Q 1550 3584 1831 3584 
Q 2591 3584 2966 3190 
Q 3341 2797 3341 1997 
z
" transform="scale(0.015625)"/>
       <path id="DejaVuSans-64" d="M 2906 2969 
L 2906 4863 
L 3481 4863 
L 3481 0 
L 2906 0 
L 2906 525 
Q 2725 213 2448 61 
Q 2172 -91 1784 -91 
Q 1150 -91 751 415 
Q 353 922 353 1747 
Q 353 2572 751 3078 
Q 1150 3584 1784 3584 
Q 2172 3584 2448 3432 
Q 2725 3281 2906 2969 
z
M 947 1747 
Q 947 1113 1208 752 
Q 1469 391 1925 391 
Q 2381 391 2643 752 
Q 2906 1113 2906 1747 
Q 2906 2381 2643 2742 
Q 2381 3103 1925 3103 
Q 1469 3103 1208 2742 
Q 947 2381 947 1747 
z
" transform="scale(0.015625)"/>
       <path id="DejaVuSans-74" d="M 1172 4494 
L 1172 3500 
L 2356 3500 
L 2356 3053 
L 1172 3053 
L 1172 1153 
Q 1172 725 1289 603 
Q 1406 481 1766 481 
L 2356 481 
L 2356 0 
L 1766 0 
Q 1100 0 847 248 
Q 594 497 594 1153 
L 594 3053 
L 172 3053 
L 172 3500 
L 594 3500 
L 594 4494 
L 1172 4494 
z
" transform="scale(0.015625)"/>
       <path id="DejaVuSans-65" d="M 3597 1894 
L 3597 1613 
L 953 1613 
Q 991 1019 1311 708 
Q 1631 397 2203 397 
Q 2534 397 2845 478 
Q 3156 559 3463 722 
L 3463 178 
Q 3153 47 2828 -22 
Q 2503 -91 2169 -91 
Q 1331 -91 842 396 
Q 353 884 353 1716 
Q 353 2575 817 3079 
Q 1281 3584 2069 3584 
Q 2775 3584 3186 3129 
Q 3597 2675 3597 1894 
z
M 3022 2063 
Q 3016 2534 2758 2815 
Q 2500 3097 2075 3097 
Q 1594 3097 1305 2825 
Q 1016 2553 972 2059 
L 3022 2063 
z
" transform="scale(0.015625)"/>
      </defs>
      <use xlink:href="#CenturyGothic-44" transform="translate(0 0.529687)"/>
      <use xlink:href="#CenturyGothic-65" transform="translate(74.414062 0.529687)"/>
      <use xlink:href="#CenturyGothic-67" transform="translate(139.404297 0.529687)"/>
      <use xlink:href="#CenturyGothic-72" transform="translate(206.689453 0.529687)"/>
      <use xlink:href="#CenturyGothic-61" transform="translate(236.767578 0.529687)"/>
      <use xlink:href="#CenturyGothic-64" transform="translate(305.078125 0.529687)"/>
      <use xlink:href="#CenturyGothic-61" transform="translate(373.583984 0.529687)"/>
      <use xlink:href="#CenturyGothic-74" transform="translate(441.894531 0.529687)"/>
      <use xlink:href="#CenturyGothic-69" transform="translate(475.78125 0.529687)"/>
      <use xlink:href="#CenturyGothic-6f" transform="translate(495.800781 0.529687)"/>
      <use xlink:href="#CenturyGothic-6e" transform="translate(561.279297 0.529687)"/>
      <use xlink:href="#CenturyGothic-20" transform="translate(622.265625 0.529687)"/>
      <use xlink:href="#DejaVuSans-31" transform="translate(649.951172 0.529687)"/>
      <use xlink:href="#DejaVuSans-2212" transform="translate(733.056641 0.529687)"/>
      <use xlink:href="#DejaVuSans-49" transform="translate(836.328125 0.529687)"/>
      <use xlink:href="#DejaVuSans-4f" transform="translate(866.777344 38.810937) scale(0.7)"/>
      <use xlink:href="#DejaVuSans-46" transform="translate(921.875 38.810937) scale(0.7)"/>
      <use xlink:href="#DejaVuSans-46" transform="translate(962.138672 38.810937) scale(0.7)"/>
      <use xlink:href="#DejaVuSans-63" transform="translate(866.777344 -26.814063) scale(0.7)"/>
      <use xlink:href="#DejaVuSans-2f" transform="translate(1021.372395 0.529687)"/>
      <use xlink:href="#DejaVuSans-49" transform="translate(1071.299478 0.529687)"/>
      <use xlink:href="#DejaVuSans-55" transform="translate(1101.748696 38.810938) scale(0.7)"/>
      <use xlink:href="#DejaVuSans-6e" transform="translate(1152.984048 38.810938) scale(0.7)"/>
      <use xlink:href="#DejaVuSans-69" transform="translate(1197.349282 38.810938) scale(0.7)"/>
      <use xlink:href="#DejaVuSans-72" transform="translate(1216.797524 38.810938) scale(0.7)"/>
      <use xlink:href="#DejaVuSans-72" transform="translate(1245.576821 38.810938) scale(0.7)"/>
      <use xlink:href="#DejaVuSans-61" transform="translate(1274.356118 38.810938) scale(0.7)"/>
      <use xlink:href="#DejaVuSans-64" transform="translate(1317.251626 38.810938) scale(0.7)"/>
      <use xlink:href="#DejaVuSans-69" transform="translate(1361.68522 38.810938) scale(0.7)"/>
      <use xlink:href="#DejaVuSans-61" transform="translate(1381.133462 38.810938) scale(0.7)"/>
      <use xlink:href="#DejaVuSans-74" transform="translate(1424.02897 38.810938) scale(0.7)"/>
      <use xlink:href="#DejaVuSans-65" transform="translate(1451.475259 38.810938) scale(0.7)"/>
      <use xlink:href="#DejaVuSans-64" transform="translate(1494.541665 38.810938) scale(0.7)"/>
      <use xlink:href="#DejaVuSans-63" transform="translate(1101.748696 -26.814063) scale(0.7)"/>
     </g>
    </g>
   </g>
   <g id="matplotlib.axis_2">
    <g id="ytick_1">
     <g id="line2d_7">
      <defs>
       <path id="m4edd6522da" d="M 0 0 
L -3.5 0 
" style="stroke: #000000; stroke-width: 0.8"/>
      </defs>
      <g>
       <use xlink:href="#m4edd6522da" x="86.978" y="357.928" style="stroke: #000000; stroke-width: 0.8"/>
      </g>
     </g>
     <g id="text_8">
      <!-- 0.24 -->
      <g transform="translate(52.824563 363.082844) scale(0.14 -0.14)">
       <use xlink:href="#CenturyGothic-30"/>
       <use xlink:href="#CenturyGothic-2e" x="55.419922"/>
       <use xlink:href="#CenturyGothic-32" x="83.105469"/>
       <use xlink:href="#CenturyGothic-34" x="138.525391"/>
      </g>
     </g>
    </g>
    <g id="ytick_2">
     <g id="line2d_8">
      <g>
       <use xlink:href="#m4edd6522da" x="86.978" y="291.7424" style="stroke: #000000; stroke-width: 0.8"/>
      </g>
     </g>
     <g id="text_9">
      <!-- 0.26 -->
      <g transform="translate(52.824563 296.897244) scale(0.14 -0.14)">
       <use xlink:href="#CenturyGothic-30"/>
       <use xlink:href="#CenturyGothic-2e" x="55.419922"/>
       <use xlink:href="#CenturyGothic-32" x="83.105469"/>
       <use xlink:href="#CenturyGothic-36" x="138.525391"/>
      </g>
     </g>
    </g>
    <g id="ytick_3">
     <g id="line2d_9">
      <g>
       <use xlink:href="#m4edd6522da" x="86.978" y="225.5568" style="stroke: #000000; stroke-width: 0.8"/>
      </g>
     </g>
     <g id="text_10">
      <!-- 0.28 -->
      <g transform="translate(52.824563 230.711644) scale(0.14 -0.14)">
       <use xlink:href="#CenturyGothic-30"/>
       <use xlink:href="#CenturyGothic-2e" x="55.419922"/>
       <use xlink:href="#CenturyGothic-32" x="83.105469"/>
       <use xlink:href="#CenturyGothic-38" x="138.525391"/>
      </g>
     </g>
    </g>
    <g id="ytick_4">
     <g id="line2d_10">
      <g>
       <use xlink:href="#m4edd6522da" x="86.978" y="159.3712" style="stroke: #000000; stroke-width: 0.8"/>
      </g>
     </g>
     <g id="text_11">
      <!-- 0.30 -->
      <g transform="translate(52.824563 164.526044) scale(0.14 -0.14)">
       <defs>
        <path id="CenturyGothic-33" d="M 847 3531 
L 378 3531 
Q 506 4100 868 4406 
Q 1231 4713 1725 4713 
Q 2084 4713 2395 4548 
Q 2706 4384 2876 4106 
Q 3047 3828 3047 3525 
Q 3047 2931 2456 2584 
Q 2788 2450 3000 2191 
Q 3300 1825 3300 1372 
Q 3300 981 3094 626 
Q 2888 272 2531 78 
Q 2175 -116 1734 -116 
Q 1141 -116 744 226 
Q 347 569 225 1231 
L 675 1231 
Q 794 784 1016 584 
Q 1300 331 1741 331 
Q 2241 331 2544 631 
Q 2847 931 2847 1334 
Q 2847 1603 2695 1837 
Q 2544 2072 2289 2190 
Q 2034 2309 1500 2338 
L 1500 2759 
Q 1816 2759 2075 2870 
Q 2334 2981 2451 3153 
Q 2569 3325 2569 3528 
Q 2569 3828 2330 4047 
Q 2091 4266 1725 4266 
Q 1428 4266 1212 4098 
Q 997 3931 847 3531 
z
" transform="scale(0.015625)"/>
       </defs>
       <use xlink:href="#CenturyGothic-30"/>
       <use xlink:href="#CenturyGothic-2e" x="55.419922"/>
       <use xlink:href="#CenturyGothic-33" x="83.105469"/>
       <use xlink:href="#CenturyGothic-30" x="138.525391"/>
      </g>
     </g>
    </g>
    <g id="ytick_5">
     <g id="line2d_11">
      <g>
       <use xlink:href="#m4edd6522da" x="86.978" y="93.1856" style="stroke: #000000; stroke-width: 0.8"/>
      </g>
     </g>
     <g id="text_12">
      <!-- 0.32 -->
      <g transform="translate(52.824563 98.340444) scale(0.14 -0.14)">
       <use xlink:href="#CenturyGothic-30"/>
       <use xlink:href="#CenturyGothic-2e" x="55.419922"/>
       <use xlink:href="#CenturyGothic-33" x="83.105469"/>
       <use xlink:href="#CenturyGothic-32" x="138.525391"/>
      </g>
     </g>
    </g>
    <g id="ytick_6">
     <g id="line2d_12">
      <g>
       <use xlink:href="#m4edd6522da" x="86.978" y="27" style="stroke: #000000; stroke-width: 0.8"/>
      </g>
     </g>
     <g id="text_13">
      <!-- 0.34 -->
      <g transform="translate(52.824563 32.154844) scale(0.14 -0.14)">
       <use xlink:href="#CenturyGothic-30"/>
       <use xlink:href="#CenturyGothic-2e" x="55.419922"/>
       <use xlink:href="#CenturyGothic-33" x="83.105469"/>
       <use xlink:href="#CenturyGothic-34" x="138.525391"/>
      </g>
     </g>
    </g>
    <g id="text_14">
     <!-- Suppression $\mathrm{1 - I_c^{ON}\, /\, I_c^{OFF}}$ -->
     <g transform="translate(43.024563 308.064) rotate(-90) scale(0.2 -0.2)">
      <defs>
       <path id="CenturyGothic-53" d="M 84 856 
L 475 1091 
Q 888 331 1428 331 
Q 1659 331 1862 439 
Q 2066 547 2172 728 
Q 2278 909 2278 1113 
Q 2278 1344 2122 1566 
Q 1906 1872 1334 2303 
Q 759 2738 619 2931 
Q 375 3256 375 3634 
Q 375 3934 519 4181 
Q 663 4428 923 4570 
Q 1184 4713 1491 4713 
Q 1816 4713 2098 4552 
Q 2381 4391 2697 3959 
L 2322 3675 
Q 2063 4019 1880 4128 
Q 1697 4238 1481 4238 
Q 1203 4238 1026 4069 
Q 850 3900 850 3653 
Q 850 3503 912 3362 
Q 975 3222 1141 3056 
Q 1231 2969 1734 2597 
Q 2331 2156 2553 1812 
Q 2775 1469 2775 1122 
Q 2775 622 2395 253 
Q 2016 -116 1472 -116 
Q 1053 -116 712 107 
Q 372 331 84 856 
z
" transform="scale(0.015625)"/>
       <path id="CenturyGothic-75" d="M 431 3400 
L 872 3400 
L 872 1813 
Q 872 1231 934 1013 
Q 1028 700 1292 519 
Q 1556 338 1922 338 
Q 2288 338 2542 514 
Q 2797 691 2894 978 
Q 2959 1175 2959 1813 
L 2959 3400 
L 3406 3400 
L 3406 1731 
Q 3406 1028 3242 672 
Q 3078 316 2748 114 
Q 2419 -88 1922 -88 
Q 1425 -88 1092 114 
Q 759 316 595 677 
Q 431 1038 431 1763 
L 431 3400 
z
" transform="scale(0.015625)"/>
       <path id="CenturyGothic-70" d="M 494 3400 
L 928 3400 
L 928 2775 
Q 1188 3131 1525 3309 
Q 1863 3488 2278 3488 
Q 3003 3488 3518 2966 
Q 4034 2444 4034 1709 
Q 4034 959 3523 435 
Q 3013 -88 2291 -88 
Q 1884 -88 1543 81 
Q 1203 250 928 584 
L 928 -1244 
L 494 -1244 
L 494 3400 
z
M 2244 3066 
Q 1675 3066 1286 2669 
Q 897 2272 897 1681 
Q 897 1294 1070 984 
Q 1244 675 1567 494 
Q 1891 313 2250 313 
Q 2603 313 2914 495 
Q 3225 678 3409 1006 
Q 3594 1334 3594 1694 
Q 3594 2056 3411 2381 
Q 3228 2706 2918 2886 
Q 2609 3066 2244 3066 
z
" transform="scale(0.015625)"/>
       <path id="CenturyGothic-73" d="M 2197 3028 
L 1916 2738 
Q 1566 3078 1231 3078 
Q 1019 3078 867 2937 
Q 716 2797 716 2609 
Q 716 2444 841 2294 
Q 966 2141 1366 1934 
Q 1853 1681 2028 1447 
Q 2200 1209 2200 913 
Q 2200 494 1906 203 
Q 1613 -88 1172 -88 
Q 878 -88 611 40 
Q 344 169 169 394 
L 444 706 
Q 778 328 1153 328 
Q 1416 328 1600 497 
Q 1784 666 1784 894 
Q 1784 1081 1663 1228 
Q 1541 1372 1113 1591 
Q 653 1828 488 2059 
Q 322 2291 322 2588 
Q 322 2975 586 3231 
Q 850 3488 1253 3488 
Q 1722 3488 2197 3028 
z
" transform="scale(0.015625)"/>
       <path id="DejaVuSans-4e" d="M 628 4666 
L 1478 4666 
L 3547 763 
L 3547 4666 
L 4159 4666 
L 4159 0 
L 3309 0 
L 1241 3903 
L 1241 0 
L 628 0 
L 628 4666 
z
" transform="scale(0.015625)"/>
      </defs>
      <use xlink:href="#CenturyGothic-53" transform="translate(0 0.765625)"/>
      <use xlink:href="#CenturyGothic-75" transform="translate(49.804688 0.765625)"/>
      <use xlink:href="#CenturyGothic-70" transform="translate(110.595703 0.765625)"/>
      <use xlink:href="#CenturyGothic-70" transform="translate(178.808594 0.765625)"/>
      <use xlink:href="#CenturyGothic-72" transform="translate(247.021484 0.765625)"/>
      <use xlink:href="#CenturyGothic-65" transform="translate(277.099609 0.765625)"/>
      <use xlink:href="#CenturyGothic-73" transform="translate(342.089844 0.765625)"/>
      <use xlink:href="#CenturyGothic-73" transform="translate(380.908203 0.765625)"/>
      <use xlink:href="#CenturyGothic-69" transform="translate(419.726562 0.765625)"/>
      <use xlink:href="#CenturyGothic-6f" transform="translate(439.746094 0.765625)"/>
      <use xlink:href="#CenturyGothic-6e" transform="translate(505.224609 0.765625)"/>
      <use xlink:href="#CenturyGothic-20" transform="translate(566.210938 0.765625)"/>
      <use xlink:href="#DejaVuSans-31" transform="translate(593.896484 0.765625)"/>
      <use xlink:href="#DejaVuSans-2212" transform="translate(677.001953 0.765625)"/>
      <use xlink:href="#DejaVuSans-49" transform="translate(780.273438 0.765625)"/>
      <use xlink:href="#DejaVuSans-4f" transform="translate(810.722656 39.046875) scale(0.7)"/>
      <use xlink:href="#DejaVuSans-4e" transform="translate(865.820312 39.046875) scale(0.7)"/>
      <use xlink:href="#DejaVuSans-63" transform="translate(810.722656 -26.578125) scale(0.7)"/>
      <use xlink:href="#DejaVuSans-2f" transform="translate(937.153645 0.765625)"/>
      <use xlink:href="#DejaVuSans-49" transform="translate(987.080728 0.765625)"/>
      <use xlink:href="#DejaVuSans-4f" transform="translate(1017.529946 39.046875) scale(0.7)"/>
      <use xlink:href="#DejaVuSans-46" transform="translate(1072.627603 39.046875) scale(0.7)"/>
      <use xlink:href="#DejaVuSans-46" transform="translate(1112.891274 39.046875) scale(0.7)"/>
      <use xlink:href="#DejaVuSans-63" transform="translate(1017.529946 -26.578125) scale(0.7)"/>
     </g>
    </g>
   </g>
   <g id="line2d_13">
    <defs>
     <path id="mac6b8ed61a" d="M 0 2 
C 0.530406 2 1.03916 1.789267 1.414214 1.414214 
C 1.789267 1.03916 2 0.530406 2 0 
C 2 -0.530406 1.789267 -1.03916 1.414214 -1.414214 
C 1.03916 -1.789267 0.530406 -2 0 -2 
C -0.530406 -2 -1.03916 -1.789267 -1.414214 -1.414214 
C -1.789267 -1.03916 -2 -0.530406 -2 0 
C -2 0.530406 -1.789267 1.03916 -1.414214 1.414214 
C -1.03916 1.789267 -0.530406 2 0 2 
z
" style="stroke: #3b0f70; stroke-opacity: 0.2"/>
    </defs>
    <g clip-path="url(#p775c5766eb)">
     <use xlink:href="#mac6b8ed61a" x="394.998952" y="355.309589" style="fill: #3b0f70; fill-opacity: 0.2; stroke: #3b0f70; stroke-opacity: 0.2"/>
     <use xlink:href="#mac6b8ed61a" x="394.998952" y="348.593924" style="fill: #3b0f70; fill-opacity: 0.2; stroke: #3b0f70; stroke-opacity: 0.2"/>
     <use xlink:href="#mac6b8ed61a" x="394.998952" y="236.33766" style="fill: #3b0f70; fill-opacity: 0.2; stroke: #3b0f70; stroke-opacity: 0.2"/>
     <use xlink:href="#mac6b8ed61a" x="394.998952" y="214.884168" style="fill: #3b0f70; fill-opacity: 0.2; stroke: #3b0f70; stroke-opacity: 0.2"/>
     <use xlink:href="#mac6b8ed61a" x="394.998952" y="215.353506" style="fill: #3b0f70; fill-opacity: 0.2; stroke: #3b0f70; stroke-opacity: 0.2"/>
     <use xlink:href="#mac6b8ed61a" x="394.998952" y="218.128842" style="fill: #3b0f70; fill-opacity: 0.2; stroke: #3b0f70; stroke-opacity: 0.2"/>
     <use xlink:href="#mac6b8ed61a" x="394.998952" y="225.180599" style="fill: #3b0f70; fill-opacity: 0.2; stroke: #3b0f70; stroke-opacity: 0.2"/>
     <use xlink:href="#mac6b8ed61a" x="394.998952" y="225.038835" style="fill: #3b0f70; fill-opacity: 0.2; stroke: #3b0f70; stroke-opacity: 0.2"/>
     <use xlink:href="#mac6b8ed61a" x="394.998952" y="251.954819" style="fill: #3b0f70; fill-opacity: 0.2; stroke: #3b0f70; stroke-opacity: 0.2"/>
     <use xlink:href="#mac6b8ed61a" x="394.998952" y="246.53997" style="fill: #3b0f70; fill-opacity: 0.2; stroke: #3b0f70; stroke-opacity: 0.2"/>
     <use xlink:href="#mac6b8ed61a" x="394.998952" y="238.356212" style="fill: #3b0f70; fill-opacity: 0.2; stroke: #3b0f70; stroke-opacity: 0.2"/>
     <use xlink:href="#mac6b8ed61a" x="394.998952" y="256.065481" style="fill: #3b0f70; fill-opacity: 0.2; stroke: #3b0f70; stroke-opacity: 0.2"/>
     <use xlink:href="#mac6b8ed61a" x="394.998952" y="250.013964" style="fill: #3b0f70; fill-opacity: 0.2; stroke: #3b0f70; stroke-opacity: 0.2"/>
     <use xlink:href="#mac6b8ed61a" x="394.998952" y="245.778816" style="fill: #3b0f70; fill-opacity: 0.2; stroke: #3b0f70; stroke-opacity: 0.2"/>
     <use xlink:href="#mac6b8ed61a" x="394.998952" y="261.302938" style="fill: #3b0f70; fill-opacity: 0.2; stroke: #3b0f70; stroke-opacity: 0.2"/>
     <use xlink:href="#mac6b8ed61a" x="394.998952" y="236.220906" style="fill: #3b0f70; fill-opacity: 0.2; stroke: #3b0f70; stroke-opacity: 0.2"/>
     <use xlink:href="#mac6b8ed61a" x="394.998952" y="244.298369" style="fill: #3b0f70; fill-opacity: 0.2; stroke: #3b0f70; stroke-opacity: 0.2"/>
     <use xlink:href="#mac6b8ed61a" x="394.998952" y="163.691503" style="fill: #3b0f70; fill-opacity: 0.2; stroke: #3b0f70; stroke-opacity: 0.2"/>
     <use xlink:href="#mac6b8ed61a" x="394.998952" y="226.584364" style="fill: #3b0f70; fill-opacity: 0.2; stroke: #3b0f70; stroke-opacity: 0.2"/>
     <use xlink:href="#mac6b8ed61a" x="394.998952" y="230.918685" style="fill: #3b0f70; fill-opacity: 0.2; stroke: #3b0f70; stroke-opacity: 0.2"/>
     <use xlink:href="#mac6b8ed61a" x="394.998952" y="221.069495" style="fill: #3b0f70; fill-opacity: 0.2; stroke: #3b0f70; stroke-opacity: 0.2"/>
     <use xlink:href="#mac6b8ed61a" x="394.998952" y="229.889878" style="fill: #3b0f70; fill-opacity: 0.2; stroke: #3b0f70; stroke-opacity: 0.2"/>
     <use xlink:href="#mac6b8ed61a" x="394.998952" y="157.145242" style="fill: #3b0f70; fill-opacity: 0.2; stroke: #3b0f70; stroke-opacity: 0.2"/>
     <use xlink:href="#mac6b8ed61a" x="394.998952" y="150.070911" style="fill: #3b0f70; fill-opacity: 0.2; stroke: #3b0f70; stroke-opacity: 0.2"/>
     <use xlink:href="#mac6b8ed61a" x="394.998952" y="268.518185" style="fill: #3b0f70; fill-opacity: 0.2; stroke: #3b0f70; stroke-opacity: 0.2"/>
     <use xlink:href="#mac6b8ed61a" x="394.998952" y="160.760616" style="fill: #3b0f70; fill-opacity: 0.2; stroke: #3b0f70; stroke-opacity: 0.2"/>
     <use xlink:href="#mac6b8ed61a" x="394.998952" y="184.825626" style="fill: #3b0f70; fill-opacity: 0.2; stroke: #3b0f70; stroke-opacity: 0.2"/>
     <use xlink:href="#mac6b8ed61a" x="394.998952" y="241.301545" style="fill: #3b0f70; fill-opacity: 0.2; stroke: #3b0f70; stroke-opacity: 0.2"/>
     <use xlink:href="#mac6b8ed61a" x="394.998952" y="151.205383" style="fill: #3b0f70; fill-opacity: 0.2; stroke: #3b0f70; stroke-opacity: 0.2"/>
     <use xlink:href="#mac6b8ed61a" x="394.998952" y="202.611466" style="fill: #3b0f70; fill-opacity: 0.2; stroke: #3b0f70; stroke-opacity: 0.2"/>
     <use xlink:href="#mac6b8ed61a" x="394.998952" y="195.991846" style="fill: #3b0f70; fill-opacity: 0.2; stroke: #3b0f70; stroke-opacity: 0.2"/>
     <use xlink:href="#mac6b8ed61a" x="394.998952" y="168.944367" style="fill: #3b0f70; fill-opacity: 0.2; stroke: #3b0f70; stroke-opacity: 0.2"/>
     <use xlink:href="#mac6b8ed61a" x="394.998952" y="160.29655" style="fill: #3b0f70; fill-opacity: 0.2; stroke: #3b0f70; stroke-opacity: 0.2"/>
     <use xlink:href="#mac6b8ed61a" x="394.998952" y="160.643346" style="fill: #3b0f70; fill-opacity: 0.2; stroke: #3b0f70; stroke-opacity: 0.2"/>
     <use xlink:href="#mac6b8ed61a" x="394.998952" y="178.247687" style="fill: #3b0f70; fill-opacity: 0.2; stroke: #3b0f70; stroke-opacity: 0.2"/>
     <use xlink:href="#mac6b8ed61a" x="394.998952" y="222.245659" style="fill: #3b0f70; fill-opacity: 0.2; stroke: #3b0f70; stroke-opacity: 0.2"/>
     <use xlink:href="#mac6b8ed61a" x="394.998952" y="146.234276" style="fill: #3b0f70; fill-opacity: 0.2; stroke: #3b0f70; stroke-opacity: 0.2"/>
     <use xlink:href="#mac6b8ed61a" x="394.998952" y="158.20705" style="fill: #3b0f70; fill-opacity: 0.2; stroke: #3b0f70; stroke-opacity: 0.2"/>
     <use xlink:href="#mac6b8ed61a" x="394.998952" y="219.466479" style="fill: #3b0f70; fill-opacity: 0.2; stroke: #3b0f70; stroke-opacity: 0.2"/>
     <use xlink:href="#mac6b8ed61a" x="394.998952" y="202.340299" style="fill: #3b0f70; fill-opacity: 0.2; stroke: #3b0f70; stroke-opacity: 0.2"/>
     <use xlink:href="#mac6b8ed61a" x="394.998952" y="219.761102" style="fill: #3b0f70; fill-opacity: 0.2; stroke: #3b0f70; stroke-opacity: 0.2"/>
     <use xlink:href="#mac6b8ed61a" x="394.998952" y="218.534374" style="fill: #3b0f70; fill-opacity: 0.2; stroke: #3b0f70; stroke-opacity: 0.2"/>
    </g>
   </g>
   <g id="line2d_14">
    <defs>
     <path id="m359584645c" d="M -2 2 
L 2 2 
L 2 -2 
L -2 -2 
z
" style="stroke: #de4968; stroke-opacity: 0.2; stroke-linejoin: miter"/>
    </defs>
    <g clip-path="url(#p775c5766eb)">
     <use xlink:href="#m359584645c" x="392.779192" y="351.033727" style="fill: #de4968; fill-opacity: 0.2; stroke: #de4968; stroke-opacity: 0.2; stroke-linejoin: miter"/>
     <use xlink:href="#m359584645c" x="394.031263" y="287.73136" style="fill: #de4968; fill-opacity: 0.2; stroke: #de4968; stroke-opacity: 0.2; stroke-linejoin: miter"/>
     <use xlink:href="#m359584645c" x="390.263829" y="308.299399" style="fill: #de4968; fill-opacity: 0.2; stroke: #de4968; stroke-opacity: 0.2; stroke-linejoin: miter"/>
     <use xlink:href="#m359584645c" x="388.633503" y="328.330396" style="fill: #de4968; fill-opacity: 0.2; stroke: #de4968; stroke-opacity: 0.2; stroke-linejoin: miter"/>
     <use xlink:href="#m359584645c" x="388.689619" y="262.1942" style="fill: #de4968; fill-opacity: 0.2; stroke: #de4968; stroke-opacity: 0.2; stroke-linejoin: miter"/>
     <use xlink:href="#m359584645c" x="389.30829" y="310.596637" style="fill: #de4968; fill-opacity: 0.2; stroke: #de4968; stroke-opacity: 0.2; stroke-linejoin: miter"/>
     <use xlink:href="#m359584645c" x="389.30829" y="251.096294" style="fill: #de4968; fill-opacity: 0.2; stroke: #de4968; stroke-opacity: 0.2; stroke-linejoin: miter"/>
     <use xlink:href="#m359584645c" x="386.60299" y="346.978213" style="fill: #de4968; fill-opacity: 0.2; stroke: #de4968; stroke-opacity: 0.2; stroke-linejoin: miter"/>
     <use xlink:href="#m359584645c" x="386.577409" y="378.221071" style="fill: #de4968; fill-opacity: 0.2; stroke: #de4968; stroke-opacity: 0.2; stroke-linejoin: miter"/>
    </g>
   </g>
   <g id="line2d_15"/>
   <g id="line2d_16">
    <g clip-path="url(#p775c5766eb)">
     <use xlink:href="#m359584645c" x="222.961155" y="182.75044" style="fill: #de4968; fill-opacity: 0.2; stroke: #de4968; stroke-opacity: 0.2; stroke-linejoin: miter"/>
     <use xlink:href="#m359584645c" x="221.986761" y="213.197373" style="fill: #de4968; fill-opacity: 0.2; stroke: #de4968; stroke-opacity: 0.2; stroke-linejoin: miter"/>
     <use xlink:href="#m359584645c" x="222.131623" y="146.547267" style="fill: #de4968; fill-opacity: 0.2; stroke: #de4968; stroke-opacity: 0.2; stroke-linejoin: miter"/>
     <use xlink:href="#m359584645c" x="220.976127" y="177.386393" style="fill: #de4968; fill-opacity: 0.2; stroke: #de4968; stroke-opacity: 0.2; stroke-linejoin: miter"/>
     <use xlink:href="#m359584645c" x="220.831968" y="159.959906" style="fill: #de4968; fill-opacity: 0.2; stroke: #de4968; stroke-opacity: 0.2; stroke-linejoin: miter"/>
     <use xlink:href="#m359584645c" x="220.552004" y="171.641091" style="fill: #de4968; fill-opacity: 0.2; stroke: #de4968; stroke-opacity: 0.2; stroke-linejoin: miter"/>
     <use xlink:href="#m359584645c" x="220.450323" y="167.740273" style="fill: #de4968; fill-opacity: 0.2; stroke: #de4968; stroke-opacity: 0.2; stroke-linejoin: miter"/>
     <use xlink:href="#m359584645c" x="219.997967" y="196.784472" style="fill: #de4968; fill-opacity: 0.2; stroke: #de4968; stroke-opacity: 0.2; stroke-linejoin: miter"/>
     <use xlink:href="#m359584645c" x="219.595485" y="173.708889" style="fill: #de4968; fill-opacity: 0.2; stroke: #de4968; stroke-opacity: 0.2; stroke-linejoin: miter"/>
     <use xlink:href="#m359584645c" x="219.307231" y="188.503131" style="fill: #de4968; fill-opacity: 0.2; stroke: #de4968; stroke-opacity: 0.2; stroke-linejoin: miter"/>
    </g>
   </g>
   <g id="line2d_17">
    <g clip-path="url(#p775c5766eb)">
     <use xlink:href="#mac6b8ed61a" x="149.480448" y="91.562095" style="fill: #3b0f70; fill-opacity: 0.2; stroke: #3b0f70; stroke-opacity: 0.2"/>
     <use xlink:href="#mac6b8ed61a" x="149.480448" y="94.432054" style="fill: #3b0f70; fill-opacity: 0.2; stroke: #3b0f70; stroke-opacity: 0.2"/>
     <use xlink:href="#mac6b8ed61a" x="149.480448" y="125.430823" style="fill: #3b0f70; fill-opacity: 0.2; stroke: #3b0f70; stroke-opacity: 0.2"/>
     <use xlink:href="#mac6b8ed61a" x="149.480448" y="94.630786" style="fill: #3b0f70; fill-opacity: 0.2; stroke: #3b0f70; stroke-opacity: 0.2"/>
     <use xlink:href="#mac6b8ed61a" x="149.480448" y="85.510382" style="fill: #3b0f70; fill-opacity: 0.2; stroke: #3b0f70; stroke-opacity: 0.2"/>
     <use xlink:href="#mac6b8ed61a" x="149.480448" y="88.642379" style="fill: #3b0f70; fill-opacity: 0.2; stroke: #3b0f70; stroke-opacity: 0.2"/>
     <use xlink:href="#mac6b8ed61a" x="149.480448" y="93.579103" style="fill: #3b0f70; fill-opacity: 0.2; stroke: #3b0f70; stroke-opacity: 0.2"/>
     <use xlink:href="#mac6b8ed61a" x="149.480448" y="87.800077" style="fill: #3b0f70; fill-opacity: 0.2; stroke: #3b0f70; stroke-opacity: 0.2"/>
     <use xlink:href="#mac6b8ed61a" x="149.480448" y="86.225847" style="fill: #3b0f70; fill-opacity: 0.2; stroke: #3b0f70; stroke-opacity: 0.2"/>
     <use xlink:href="#mac6b8ed61a" x="149.480448" y="80.783362" style="fill: #3b0f70; fill-opacity: 0.2; stroke: #3b0f70; stroke-opacity: 0.2"/>
     <use xlink:href="#mac6b8ed61a" x="149.480448" y="78.99861" style="fill: #3b0f70; fill-opacity: 0.2; stroke: #3b0f70; stroke-opacity: 0.2"/>
     <use xlink:href="#mac6b8ed61a" x="149.480448" y="88.692345" style="fill: #3b0f70; fill-opacity: 0.2; stroke: #3b0f70; stroke-opacity: 0.2"/>
     <use xlink:href="#mac6b8ed61a" x="149.480448" y="111.486697" style="fill: #3b0f70; fill-opacity: 0.2; stroke: #3b0f70; stroke-opacity: 0.2"/>
     <use xlink:href="#mac6b8ed61a" x="149.480448" y="116.501067" style="fill: #3b0f70; fill-opacity: 0.2; stroke: #3b0f70; stroke-opacity: 0.2"/>
     <use xlink:href="#mac6b8ed61a" x="149.480448" y="141.067955" style="fill: #3b0f70; fill-opacity: 0.2; stroke: #3b0f70; stroke-opacity: 0.2"/>
     <use xlink:href="#mac6b8ed61a" x="149.480448" y="119.405746" style="fill: #3b0f70; fill-opacity: 0.2; stroke: #3b0f70; stroke-opacity: 0.2"/>
     <use xlink:href="#mac6b8ed61a" x="149.480448" y="117.386564" style="fill: #3b0f70; fill-opacity: 0.2; stroke: #3b0f70; stroke-opacity: 0.2"/>
     <use xlink:href="#mac6b8ed61a" x="149.480448" y="113.627578" style="fill: #3b0f70; fill-opacity: 0.2; stroke: #3b0f70; stroke-opacity: 0.2"/>
     <use xlink:href="#mac6b8ed61a" x="149.480448" y="113.427182" style="fill: #3b0f70; fill-opacity: 0.2; stroke: #3b0f70; stroke-opacity: 0.2"/>
     <use xlink:href="#mac6b8ed61a" x="149.480448" y="108.883989" style="fill: #3b0f70; fill-opacity: 0.2; stroke: #3b0f70; stroke-opacity: 0.2"/>
     <use xlink:href="#mac6b8ed61a" x="149.480448" y="112.201611" style="fill: #3b0f70; fill-opacity: 0.2; stroke: #3b0f70; stroke-opacity: 0.2"/>
     <use xlink:href="#mac6b8ed61a" x="149.480448" y="120.731484" style="fill: #3b0f70; fill-opacity: 0.2; stroke: #3b0f70; stroke-opacity: 0.2"/>
     <use xlink:href="#mac6b8ed61a" x="149.480448" y="103.054296" style="fill: #3b0f70; fill-opacity: 0.2; stroke: #3b0f70; stroke-opacity: 0.2"/>
     <use xlink:href="#mac6b8ed61a" x="149.480448" y="117.070818" style="fill: #3b0f70; fill-opacity: 0.2; stroke: #3b0f70; stroke-opacity: 0.2"/>
     <use xlink:href="#mac6b8ed61a" x="149.480448" y="116.84597" style="fill: #3b0f70; fill-opacity: 0.2; stroke: #3b0f70; stroke-opacity: 0.2"/>
     <use xlink:href="#mac6b8ed61a" x="149.480448" y="73.480737" style="fill: #3b0f70; fill-opacity: 0.2; stroke: #3b0f70; stroke-opacity: 0.2"/>
    </g>
   </g>
   <g id="line2d_18">
    <g clip-path="url(#p775c5766eb)">
     <use xlink:href="#m359584645c" x="149.062266" y="67.547764" style="fill: #de4968; fill-opacity: 0.2; stroke: #de4968; stroke-opacity: 0.2; stroke-linejoin: miter"/>
     <use xlink:href="#m359584645c" x="148.728301" y="104.122342" style="fill: #de4968; fill-opacity: 0.2; stroke: #de4968; stroke-opacity: 0.2; stroke-linejoin: miter"/>
     <use xlink:href="#m359584645c" x="149.010206" y="94.424524" style="fill: #de4968; fill-opacity: 0.2; stroke: #de4968; stroke-opacity: 0.2; stroke-linejoin: miter"/>
     <use xlink:href="#m359584645c" x="149.186314" y="71.232942" style="fill: #de4968; fill-opacity: 0.2; stroke: #de4968; stroke-opacity: 0.2; stroke-linejoin: miter"/>
     <use xlink:href="#m359584645c" x="148.777765" y="91.270922" style="fill: #de4968; fill-opacity: 0.2; stroke: #de4968; stroke-opacity: 0.2; stroke-linejoin: miter"/>
     <use xlink:href="#m359584645c" x="148.962387" y="99.205222" style="fill: #de4968; fill-opacity: 0.2; stroke: #de4968; stroke-opacity: 0.2; stroke-linejoin: miter"/>
     <use xlink:href="#m359584645c" x="148.504186" y="104.503244" style="fill: #de4968; fill-opacity: 0.2; stroke: #de4968; stroke-opacity: 0.2; stroke-linejoin: miter"/>
     <use xlink:href="#m359584645c" x="148.436281" y="82.626786" style="fill: #de4968; fill-opacity: 0.2; stroke: #de4968; stroke-opacity: 0.2; stroke-linejoin: miter"/>
     <use xlink:href="#m359584645c" x="148.140043" y="92.949645" style="fill: #de4968; fill-opacity: 0.2; stroke: #de4968; stroke-opacity: 0.2; stroke-linejoin: miter"/>
     <use xlink:href="#m359584645c" x="147.836458" y="100.101364" style="fill: #de4968; fill-opacity: 0.2; stroke: #de4968; stroke-opacity: 0.2; stroke-linejoin: miter"/>
     <use xlink:href="#m359584645c" x="147.418218" y="95.544254" style="fill: #de4968; fill-opacity: 0.2; stroke: #de4968; stroke-opacity: 0.2; stroke-linejoin: miter"/>
     <use xlink:href="#m359584645c" x="147.267542" y="113.179015" style="fill: #de4968; fill-opacity: 0.2; stroke: #de4968; stroke-opacity: 0.2; stroke-linejoin: miter"/>
     <use xlink:href="#m359584645c" x="147.167733" y="154.821852" style="fill: #de4968; fill-opacity: 0.2; stroke: #de4968; stroke-opacity: 0.2; stroke-linejoin: miter"/>
     <use xlink:href="#m359584645c" x="147.039255" y="54.820027" style="fill: #de4968; fill-opacity: 0.2; stroke: #de4968; stroke-opacity: 0.2; stroke-linejoin: miter"/>
     <use xlink:href="#m359584645c" x="147.457628" y="58.207678" style="fill: #de4968; fill-opacity: 0.2; stroke: #de4968; stroke-opacity: 0.2; stroke-linejoin: miter"/>
     <use xlink:href="#m359584645c" x="147.178436" y="77.186736" style="fill: #de4968; fill-opacity: 0.2; stroke: #de4968; stroke-opacity: 0.2; stroke-linejoin: miter"/>
     <use xlink:href="#m359584645c" x="146.970568" y="88.070819" style="fill: #de4968; fill-opacity: 0.2; stroke: #de4968; stroke-opacity: 0.2; stroke-linejoin: miter"/>
     <use xlink:href="#m359584645c" x="146.73412" y="73.766151" style="fill: #de4968; fill-opacity: 0.2; stroke: #de4968; stroke-opacity: 0.2; stroke-linejoin: miter"/>
     <use xlink:href="#m359584645c" x="146.84453" y="67.875137" style="fill: #de4968; fill-opacity: 0.2; stroke: #de4968; stroke-opacity: 0.2; stroke-linejoin: miter"/>
     <use xlink:href="#m359584645c" x="146.677453" y="60.529354" style="fill: #de4968; fill-opacity: 0.2; stroke: #de4968; stroke-opacity: 0.2; stroke-linejoin: miter"/>
     <use xlink:href="#m359584645c" x="146.365403" y="89.443985" style="fill: #de4968; fill-opacity: 0.2; stroke: #de4968; stroke-opacity: 0.2; stroke-linejoin: miter"/>
     <use xlink:href="#m359584645c" x="146.211734" y="87.15855" style="fill: #de4968; fill-opacity: 0.2; stroke: #de4968; stroke-opacity: 0.2; stroke-linejoin: miter"/>
     <use xlink:href="#m359584645c" x="146.521467" y="58.454839" style="fill: #de4968; fill-opacity: 0.2; stroke: #de4968; stroke-opacity: 0.2; stroke-linejoin: miter"/>
     <use xlink:href="#m359584645c" x="146.020511" y="87.791293" style="fill: #de4968; fill-opacity: 0.2; stroke: #de4968; stroke-opacity: 0.2; stroke-linejoin: miter"/>
     <use xlink:href="#m359584645c" x="146.181846" y="82.130899" style="fill: #de4968; fill-opacity: 0.2; stroke: #de4968; stroke-opacity: 0.2; stroke-linejoin: miter"/>
     <use xlink:href="#m359584645c" x="145.350285" y="100.725455" style="fill: #de4968; fill-opacity: 0.2; stroke: #de4968; stroke-opacity: 0.2; stroke-linejoin: miter"/>
     <use xlink:href="#m359584645c" x="145.237455" y="83.916673" style="fill: #de4968; fill-opacity: 0.2; stroke: #de4968; stroke-opacity: 0.2; stroke-linejoin: miter"/>
     <use xlink:href="#m359584645c" x="144.924028" y="102.802711" style="fill: #de4968; fill-opacity: 0.2; stroke: #de4968; stroke-opacity: 0.2; stroke-linejoin: miter"/>
     <use xlink:href="#m359584645c" x="145.311518" y="63.322035" style="fill: #de4968; fill-opacity: 0.2; stroke: #de4968; stroke-opacity: 0.2; stroke-linejoin: miter"/>
    </g>
   </g>
   <g id="LineCollection_1">
    <path d="M 389.577154 353.50121 
L 389.577154 274.161301 
" clip-path="url(#p775c5766eb)" style="fill: none; stroke: #de4968; stroke-width: 2"/>
    <path d="M 220.879064 195.720203 
L 220.879064 159.923644 
" clip-path="url(#p775c5766eb)" style="fill: none; stroke: #de4968; stroke-width: 2"/>
    <path d="M 147.224963 106.88494 
L 147.224963 66.06211 
" clip-path="url(#p775c5766eb)" style="fill: none; stroke: #de4968; stroke-width: 2"/>
   </g>
   <g id="line2d_19">
    <defs>
     <path id="mcd152ec18f" d="M 5 0 
L -5 -0 
" style="stroke: #de4968"/>
    </defs>
    <g clip-path="url(#p775c5766eb)">
     <use xlink:href="#mcd152ec18f" x="389.577154" y="353.50121" style="fill: #de4968; stroke: #de4968"/>
     <use xlink:href="#mcd152ec18f" x="220.879064" y="195.720203" style="fill: #de4968; stroke: #de4968"/>
     <use xlink:href="#mcd152ec18f" x="147.224963" y="106.88494" style="fill: #de4968; stroke: #de4968"/>
    </g>
   </g>
   <g id="line2d_20">
    <g clip-path="url(#p775c5766eb)">
     <use xlink:href="#mcd152ec18f" x="389.577154" y="274.161301" style="fill: #de4968; stroke: #de4968"/>
     <use xlink:href="#mcd152ec18f" x="220.879064" y="159.923644" style="fill: #de4968; stroke: #de4968"/>
     <use xlink:href="#mcd152ec18f" x="147.224963" y="66.06211" style="fill: #de4968; stroke: #de4968"/>
    </g>
   </g>
   <g id="line2d_21">
    <path d="M 389.577154 313.831255 
L 220.879064 177.821924 
L 147.224963 86.473525 
" clip-path="url(#p775c5766eb)" style="fill: none; stroke-dasharray: 3.7,1.6; stroke-dashoffset: 0; stroke: #de4968"/>
    <defs>
     <path id="m0b7f2c2aca" d="M -4 4 
L 4 4 
L 4 -4 
L -4 -4 
z
" style="stroke: #de4968; stroke-linejoin: miter"/>
    </defs>
    <g clip-path="url(#p775c5766eb)">
     <use xlink:href="#m0b7f2c2aca" x="389.577154" y="313.831255" style="fill: #de4968; stroke: #de4968; stroke-linejoin: miter"/>
     <use xlink:href="#m0b7f2c2aca" x="220.879064" y="177.821924" style="fill: #de4968; stroke: #de4968; stroke-linejoin: miter"/>
     <use xlink:href="#m0b7f2c2aca" x="147.224963" y="86.473525" style="fill: #de4968; stroke: #de4968; stroke-linejoin: miter"/>
    </g>
   </g>
   <g id="patch_3">
    <path d="M 86.978 357.928 
L 86.978 27 
" style="fill: none; stroke: #000000; stroke-width: 0.8; stroke-linejoin: miter; stroke-linecap: square"/>
   </g>
   <g id="patch_4">
    <path d="M 410.4 357.928 
L 410.4 27 
" style="fill: none; stroke: #000000; stroke-width: 0.8; stroke-linejoin: miter; stroke-linecap: square"/>
   </g>
   <g id="patch_5">
    <path d="M 86.978 357.928 
L 410.4 357.928 
" style="fill: none; stroke: #000000; stroke-width: 0.8; stroke-linejoin: miter; stroke-linecap: square"/>
   </g>
   <g id="patch_6">
    <path d="M 86.978 27 
L 410.4 27 
" style="fill: none; stroke: #000000; stroke-width: 0.8; stroke-linejoin: miter; stroke-linecap: square"/>
   </g>
   <g id="legend_1">
    <g id="patch_7">
     <path d="M 95.378 351.928 
L 328.296125 351.928 
Q 330.696125 351.928 330.696125 349.528 
L 330.696125 315.73675 
Q 330.696125 313.33675 328.296125 313.33675 
L 95.378 313.33675 
Q 92.978 313.33675 92.978 315.73675 
L 92.978 349.528 
Q 92.978 351.928 95.378 351.928 
z
" style="fill: #ffffff; opacity: 0.8; stroke: #cccccc; stroke-linejoin: miter"/>
    </g>
    <g id="LineCollection_2">
     <path d="M 109.778 328.93675 
L 109.778 316.93675 
" style="fill: none; stroke: #de4968; stroke-width: 2"/>
    </g>
    <g id="line2d_22">
     <g>
      <use xlink:href="#mcd152ec18f" x="109.778" y="328.93675" style="fill: #de4968; stroke: #de4968"/>
     </g>
    </g>
    <g id="line2d_23">
     <g>
      <use xlink:href="#mcd152ec18f" x="109.778" y="316.93675" style="fill: #de4968; stroke: #de4968"/>
     </g>
    </g>
    <g id="line2d_24">
     <path d="M 97.778 322.93675 
L 121.778 322.93675 
" style="fill: none; stroke-dasharray: 3.7,1.6; stroke-dashoffset: 0; stroke: #de4968"/>
    </g>
    <g id="line2d_25">
     <g>
      <use xlink:href="#m0b7f2c2aca" x="109.778" y="322.93675" style="fill: #de4968; stroke: #de4968; stroke-linejoin: miter"/>
     </g>
    </g>
    <g id="text_15">
     <!-- 5 x damage to REBCO (1200 keV) -->
     <g transform="translate(131.378 327.13675) scale(0.12 -0.12)">
      <defs>
       <path id="CenturyGothic-35" d="M 3147 4597 
L 3147 4159 
L 1509 4159 
L 1281 2906 
Q 1581 2994 1822 2994 
Q 2450 2994 2858 2573 
Q 3266 2153 3266 1497 
Q 3266 1044 3056 666 
Q 2847 288 2489 86 
Q 2131 -116 1663 -116 
Q 1103 -116 718 226 
Q 334 569 259 1113 
L 731 1113 
Q 784 847 911 681 
Q 1038 516 1248 414 
Q 1459 313 1691 313 
Q 2144 313 2469 656 
Q 2794 1000 2794 1516 
Q 2794 1981 2500 2272 
Q 2206 2563 1716 2563 
Q 1309 2563 731 2316 
L 1156 4597 
L 3147 4597 
z
" transform="scale(0.015625)"/>
       <path id="CenturyGothic-78" d="M 100 3400 
L 625 3400 
L 1525 2141 
L 2425 3400 
L 2950 3400 
L 1788 1784 
L 3097 0 
L 2566 0 
L 1525 1428 
L 500 0 
L -22 0 
L 1266 1784 
L 100 3400 
z
" transform="scale(0.015625)"/>
       <path id="CenturyGothic-6d" d="M 484 3400 
L 919 3400 
L 919 2813 
Q 1147 3138 1388 3288 
Q 1719 3488 2084 3488 
Q 2331 3488 2553 3391 
Q 2775 3294 2915 3133 
Q 3056 2972 3159 2672 
Q 3378 3072 3706 3280 
Q 4034 3488 4413 3488 
Q 4766 3488 5036 3309 
Q 5306 3131 5437 2812 
Q 5569 2494 5569 1856 
L 5569 0 
L 5122 0 
L 5122 1856 
Q 5122 2403 5044 2608 
Q 4966 2813 4777 2938 
Q 4588 3063 4325 3063 
Q 4006 3063 3742 2875 
Q 3478 2688 3356 2375 
Q 3234 2063 3234 1331 
L 3234 0 
L 2800 0 
L 2800 1741 
Q 2800 2356 2723 2576 
Q 2647 2797 2456 2930 
Q 2266 3063 2003 3063 
Q 1700 3063 1436 2880 
Q 1172 2697 1045 2387 
Q 919 2078 919 1441 
L 919 0 
L 484 0 
L 484 3400 
z
" transform="scale(0.015625)"/>
       <path id="CenturyGothic-52" d="M 584 4597 
L 1500 4597 
Q 2266 4597 2538 4534 
Q 2947 4441 3203 4133 
Q 3459 3825 3459 3375 
Q 3459 3000 3282 2715 
Q 3106 2431 2778 2286 
Q 2450 2141 1872 2138 
L 3525 0 
L 2956 0 
L 1306 2138 
L 1044 2138 
L 1044 0 
L 584 0 
L 584 4597 
z
M 1044 4147 
L 1044 2584 
L 1834 2578 
Q 2294 2578 2514 2665 
Q 2734 2753 2857 2945 
Q 2981 3138 2981 3375 
Q 2981 3606 2856 3795 
Q 2731 3984 2528 4065 
Q 2325 4147 1853 4147 
L 1044 4147 
z
" transform="scale(0.015625)"/>
       <path id="CenturyGothic-45" d="M 563 4597 
L 3197 4597 
L 3197 4144 
L 1022 4144 
L 1022 2706 
L 3178 2706 
L 3178 2256 
L 1022 2256 
L 1022 453 
L 3178 453 
L 3178 0 
L 563 0 
L 563 4597 
z
" transform="scale(0.015625)"/>
       <path id="CenturyGothic-42" d="M 572 4597 
L 1478 4597 
Q 2025 4597 2319 4467 
Q 2613 4338 2783 4069 
Q 2953 3800 2953 3472 
Q 2953 3166 2803 2914 
Q 2653 2663 2363 2506 
Q 2722 2384 2915 2220 
Q 3109 2056 3217 1823 
Q 3325 1591 3325 1319 
Q 3325 766 2920 383 
Q 2516 0 1834 0 
L 572 0 
L 572 4597 
z
M 1022 4147 
L 1022 2675 
L 1284 2675 
Q 1763 2675 1988 2764 
Q 2213 2853 2344 3045 
Q 2475 3238 2475 3472 
Q 2475 3788 2254 3967 
Q 2034 4147 1553 4147 
L 1022 4147 
z
M 1022 2213 
L 1022 450 
L 1591 450 
Q 2094 450 2328 548 
Q 2563 647 2705 856 
Q 2847 1066 2847 1309 
Q 2847 1616 2647 1844 
Q 2447 2072 2097 2156 
Q 1863 2213 1281 2213 
L 1022 2213 
z
" transform="scale(0.015625)"/>
       <path id="CenturyGothic-43" d="M 4841 3744 
L 4478 3466 
Q 4178 3856 3758 4057 
Q 3338 4259 2834 4259 
Q 2284 4259 1815 3995 
Q 1347 3731 1089 3286 
Q 831 2841 831 2284 
Q 831 1444 1407 881 
Q 1984 319 2863 319 
Q 3828 319 4478 1075 
L 4841 800 
Q 4497 363 3983 123 
Q 3469 -116 2834 -116 
Q 1628 -116 931 688 
Q 347 1366 347 2325 
Q 347 3334 1055 4023 
Q 1763 4713 2828 4713 
Q 3472 4713 3990 4458 
Q 4509 4203 4841 3744 
z
" transform="scale(0.015625)"/>
       <path id="CenturyGothic-4f" d="M 2750 4713 
Q 3794 4713 4497 4016 
Q 5200 3319 5200 2300 
Q 5200 1291 4498 587 
Q 3797 -116 2788 -116 
Q 1766 -116 1062 584 
Q 359 1284 359 2278 
Q 359 2941 679 3506 
Q 1000 4072 1553 4392 
Q 2106 4713 2750 4713 
z
M 2772 4263 
Q 2263 4263 1806 3997 
Q 1350 3731 1094 3281 
Q 838 2831 838 2278 
Q 838 1459 1405 895 
Q 1972 331 2772 331 
Q 3306 331 3761 590 
Q 4216 850 4470 1300 
Q 4725 1750 4725 2300 
Q 4725 2847 4470 3289 
Q 4216 3731 3753 3997 
Q 3291 4263 2772 4263 
z
" transform="scale(0.015625)"/>
       <path id="CenturyGothic-28" d="M 1469 4800 
L 1975 4800 
Q 1669 4172 1484 3334 
Q 1300 2497 1300 1606 
Q 1300 781 1439 15 
Q 1578 -750 1822 -1331 
L 1341 -1331 
Q 1109 -775 971 -22 
Q 834 731 834 1547 
Q 834 2425 996 3258 
Q 1159 4091 1469 4800 
z
" transform="scale(0.015625)"/>
       <path id="CenturyGothic-6b" d="M 484 4713 
L 925 4713 
L 925 2031 
L 2497 3400 
L 3141 3400 
L 1275 1778 
L 3250 0 
L 2631 0 
L 925 1528 
L 925 0 
L 484 0 
L 484 4713 
z
" transform="scale(0.015625)"/>
       <path id="CenturyGothic-56" d="M 209 4597 
L 709 4597 
L 2231 1044 
L 3781 4597 
L 4281 4597 
L 2281 0 
L 2181 0 
L 209 4597 
z
" transform="scale(0.015625)"/>
       <path id="CenturyGothic-29" d="M 894 -1331 
L 388 -1331 
Q 697 -703 880 134 
Q 1063 972 1063 1863 
Q 1063 2688 923 3453 
Q 784 4219 541 4800 
L 1022 4800 
Q 1256 4244 1392 3489 
Q 1528 2734 1528 1919 
Q 1528 1044 1365 211 
Q 1203 -622 894 -1331 
z
" transform="scale(0.015625)"/>
      </defs>
      <use xlink:href="#CenturyGothic-35"/>
      <use xlink:href="#CenturyGothic-20" x="55.419922"/>
      <use xlink:href="#CenturyGothic-78" x="83.105469"/>
      <use xlink:href="#CenturyGothic-20" x="131.103516"/>
      <use xlink:href="#CenturyGothic-64" x="158.789062"/>
      <use xlink:href="#CenturyGothic-61" x="227.294922"/>
      <use xlink:href="#CenturyGothic-6d" x="295.605469"/>
      <use xlink:href="#CenturyGothic-61" x="389.404297"/>
      <use xlink:href="#CenturyGothic-67" x="457.714844"/>
      <use xlink:href="#CenturyGothic-65" x="525"/>
      <use xlink:href="#CenturyGothic-20" x="589.990234"/>
      <use xlink:href="#CenturyGothic-74" x="617.675781"/>
      <use xlink:href="#CenturyGothic-6f" x="651.5625"/>
      <use xlink:href="#CenturyGothic-20" x="717.041016"/>
      <use xlink:href="#CenturyGothic-52" x="744.726562"/>
      <use xlink:href="#CenturyGothic-45" x="805.419922"/>
      <use xlink:href="#CenturyGothic-42" x="859.033203"/>
      <use xlink:href="#CenturyGothic-43" x="916.455078"/>
      <use xlink:href="#CenturyGothic-4f" x="997.753906"/>
      <use xlink:href="#CenturyGothic-20" x="1084.667969"/>
      <use xlink:href="#CenturyGothic-28" x="1112.353516"/>
      <use xlink:href="#CenturyGothic-31" x="1149.267578"/>
      <use xlink:href="#CenturyGothic-32" x="1204.6875"/>
      <use xlink:href="#CenturyGothic-30" x="1260.107422"/>
      <use xlink:href="#CenturyGothic-30" x="1315.527344"/>
      <use xlink:href="#CenturyGothic-20" x="1370.947266"/>
      <use xlink:href="#CenturyGothic-6b" x="1398.632812"/>
      <use xlink:href="#CenturyGothic-65" x="1448.828125"/>
      <use xlink:href="#CenturyGothic-56" x="1513.818359"/>
      <use xlink:href="#CenturyGothic-29" x="1584.033203"/>
     </g>
    </g>
    <g id="LineCollection_3">
     <path d="M 109.778 346.432375 
L 109.778 334.432375 
" style="fill: none; stroke: #3b0f70; stroke-width: 2"/>
    </g>
    <g id="line2d_26">
     <defs>
      <path id="m709b89030d" d="M 5 0 
L -5 -0 
" style="stroke: #3b0f70"/>
     </defs>
     <g>
      <use xlink:href="#m709b89030d" x="109.778" y="346.432375" style="fill: #3b0f70; stroke: #3b0f70"/>
     </g>
    </g>
    <g id="line2d_27">
     <g>
      <use xlink:href="#m709b89030d" x="109.778" y="334.432375" style="fill: #3b0f70; stroke: #3b0f70"/>
     </g>
    </g>
    <g id="line2d_28">
     <path d="M 97.778 340.432375 
L 121.778 340.432375 
" style="fill: none; stroke-dasharray: 3.7,1.6; stroke-dashoffset: 0; stroke: #3b0f70"/>
    </g>
    <g id="line2d_29">
     <defs>
      <path id="m4d007479d7" d="M 0 4 
C 1.060812 4 2.078319 3.578535 2.828427 2.828427 
C 3.578535 2.078319 4 1.060812 4 0 
C 4 -1.060812 3.578535 -2.078319 2.828427 -2.828427 
C 2.078319 -3.578535 1.060812 -4 0 -4 
C -1.060812 -4 -2.078319 -3.578535 -2.828427 -2.828427 
C -3.578535 -2.078319 -4 -1.060812 -4 0 
C -4 1.060812 -3.578535 2.078319 -2.828427 2.828427 
C -2.078319 3.578535 -1.060812 4 0 4 
z
" style="stroke: #3b0f70"/>
     </defs>
     <g>
      <use xlink:href="#m4d007479d7" x="109.778" y="340.432375" style="fill: #ffffff; stroke: #3b0f70"/>
     </g>
    </g>
    <g id="text_16">
     <!-- No damage to REBCO (150 keV) -->
     <g transform="translate(131.378 344.632375) scale(0.12 -0.12)">
      <defs>
       <path id="CenturyGothic-4e" d="M 563 0 
L 563 4597 
L 663 4597 
L 3719 1078 
L 3719 4597 
L 4172 4597 
L 4172 0 
L 4069 0 
L 1038 3475 
L 1038 0 
L 563 0 
z
" transform="scale(0.015625)"/>
      </defs>
      <use xlink:href="#CenturyGothic-4e"/>
      <use xlink:href="#CenturyGothic-6f" x="73.974609"/>
      <use xlink:href="#CenturyGothic-20" x="139.453125"/>
      <use xlink:href="#CenturyGothic-64" x="167.138672"/>
      <use xlink:href="#CenturyGothic-61" x="235.644531"/>
      <use xlink:href="#CenturyGothic-6d" x="303.955078"/>
      <use xlink:href="#CenturyGothic-61" x="397.753906"/>
      <use xlink:href="#CenturyGothic-67" x="466.064453"/>
      <use xlink:href="#CenturyGothic-65" x="533.349609"/>
      <use xlink:href="#CenturyGothic-20" x="598.339844"/>
      <use xlink:href="#CenturyGothic-74" x="626.025391"/>
      <use xlink:href="#CenturyGothic-6f" x="659.912109"/>
      <use xlink:href="#CenturyGothic-20" x="725.390625"/>
      <use xlink:href="#CenturyGothic-52" x="753.076172"/>
      <use xlink:href="#CenturyGothic-45" x="813.769531"/>
      <use xlink:href="#CenturyGothic-42" x="867.382812"/>
      <use xlink:href="#CenturyGothic-43" x="924.804688"/>
      <use xlink:href="#CenturyGothic-4f" x="1006.103516"/>
      <use xlink:href="#CenturyGothic-20" x="1093.017578"/>
      <use xlink:href="#CenturyGothic-28" x="1120.703125"/>
      <use xlink:href="#CenturyGothic-31" x="1157.617188"/>
      <use xlink:href="#CenturyGothic-35" x="1213.037109"/>
      <use xlink:href="#CenturyGothic-30" x="1268.457031"/>
      <use xlink:href="#CenturyGothic-20" x="1323.876953"/>
      <use xlink:href="#CenturyGothic-6b" x="1351.5625"/>
      <use xlink:href="#CenturyGothic-65" x="1401.757812"/>
      <use xlink:href="#CenturyGothic-56" x="1466.748047"/>
      <use xlink:href="#CenturyGothic-29" x="1536.962891"/>
     </g>
    </g>
   </g>
   <g id="LineCollection_4">
    <path d="M 394.998952 262.846033 
L 394.998952 170.909421 
" clip-path="url(#p775c5766eb)" style="fill: none; stroke: #3b0f70; stroke-width: 2"/>
    <path d="M 149.480448 119.8439 
L 149.480448 86.422219 
" clip-path="url(#p775c5766eb)" style="fill: none; stroke: #3b0f70; stroke-width: 2"/>
   </g>
   <g id="line2d_30">
    <g clip-path="url(#p775c5766eb)">
     <use xlink:href="#m709b89030d" x="394.998952" y="262.846033" style="fill: #3b0f70; stroke: #3b0f70"/>
     <use xlink:href="#m709b89030d" x="149.480448" y="119.8439" style="fill: #3b0f70; stroke: #3b0f70"/>
    </g>
   </g>
   <g id="line2d_31">
    <g clip-path="url(#p775c5766eb)">
     <use xlink:href="#m709b89030d" x="394.998952" y="170.909421" style="fill: #3b0f70; stroke: #3b0f70"/>
     <use xlink:href="#m709b89030d" x="149.480448" y="86.422219" style="fill: #3b0f70; stroke: #3b0f70"/>
    </g>
   </g>
   <g id="line2d_32">
    <path d="M 394.998952 216.877727 
L 149.480448 103.13306 
" clip-path="url(#p775c5766eb)" style="fill: none; stroke-dasharray: 3.7,1.6; stroke-dashoffset: 0; stroke: #3b0f70"/>
    <g clip-path="url(#p775c5766eb)">
     <use xlink:href="#m4d007479d7" x="394.998952" y="216.877727" style="fill: #ffffff; stroke: #3b0f70"/>
     <use xlink:href="#m4d007479d7" x="149.480448" y="103.13306" style="fill: #ffffff; stroke: #3b0f70"/>
    </g>
   </g>
  </g>
 </g>
 <defs>
  <clipPath id="p775c5766eb">
   <rect x="86.978" y="27" width="323.422" height="330.928"/>
  </clipPath>
 </defs>
</svg>
