<?xml version="1.0" encoding="utf-8" standalone="no"?>
<!DOCTYPE svg PUBLIC "-//W3C//DTD SVG 1.1//EN"
  "http://www.w3.org/Graphics/SVG/1.1/DTD/svg11.dtd">
<svg xmlns:xlink="http://www.w3.org/1999/xlink" width="432pt" height="432pt" viewBox="0 0 432 432" xmlns="http://www.w3.org/2000/svg" version="1.1">
 <metadata>
  <rdf:RDF xmlns:dc="http://purl.org/dc/elements/1.1/" xmlns:cc="http://creativecommons.org/ns#" xmlns:rdf="http://www.w3.org/1999/02/22-rdf-syntax-ns#">
   <cc:Work>
    <dc:type rdf:resource="http://purl.org/dc/dcmitype/StillImage"/>
    <dc:date>2024-09-23T14:53:32.721016</dc:date>
    <dc:format>image/svg+xml</dc:format>
    <dc:creator>
     <cc:Agent>
      <dc:title>Matplotlib v3.7.2, https://matplotlib.org/</dc:title>
     </cc:Agent>
    </dc:creator>
   </cc:Work>
  </rdf:RDF>
 </metadata>
 <defs>
  <style type="text/css">*{stroke-linejoin: round; stroke-linecap: butt}</style>
 </defs>
 <g id="figure_1">
  <g id="patch_1">
   <path d="M 0 432 
L 432 432 
L 432 0 
L 0 0 
z
" style="fill: #ffffff"/>
  </g>
  <g id="axes_1">
   <g id="patch_2">
    <path d="M 79.238 367.72 
L 402.66 367.72 
L 402.66 27 
L 79.238 27 
z
" style="fill: #ffffff"/>
   </g>
   <g id="matplotlib.axis_1">
    <g id="xtick_1">
     <g id="line2d_1">
      <defs>
       <path id="m5ea29cf5d8" d="M 0 0 
L 0 3.5 
" style="stroke: #000000; stroke-width: 0.8"/>
      </defs>
      <g>
       <use xlink:href="#m5ea29cf5d8" x="79.238" y="367.72" style="stroke: #000000; stroke-width: 0.8"/>
      </g>
     </g>
     <g id="text_1">
      <!-- 20 -->
      <g transform="translate(71.478938 385.029688) scale(0.14 -0.14)">
       <defs>
        <path id="CenturyGothic-32" d="M 741 3156 
L 300 3156 
Q 319 3838 755 4275 
Q 1191 4713 1831 4713 
Q 2466 4713 2858 4303 
Q 3250 3894 3250 3338 
Q 3250 2947 3062 2605 
Q 2875 2263 2334 1678 
L 1191 444 
L 3313 444 
L 3313 0 
L 191 0 
L 1947 1897 
Q 2481 2469 2642 2745 
Q 2803 3022 2803 3328 
Q 2803 3716 2514 3995 
Q 2225 4275 1806 4275 
Q 1366 4275 1073 3981 
Q 781 3688 741 3156 
z
" transform="scale(0.015625)"/>
        <path id="CenturyGothic-30" d="M 203 2297 
Q 203 3206 398 3703 
Q 594 4200 950 4456 
Q 1306 4713 1747 4713 
Q 2194 4713 2556 4455 
Q 2919 4197 3130 3681 
Q 3341 3166 3341 2297 
Q 3341 1431 3133 918 
Q 2925 406 2559 145 
Q 2194 -116 1747 -116 
Q 1306 -116 953 137 
Q 600 391 401 892 
Q 203 1394 203 2297 
z
M 638 2288 
Q 638 1509 777 1111 
Q 916 713 1187 506 
Q 1459 300 1763 300 
Q 2069 300 2334 501 
Q 2600 703 2738 1106 
Q 2909 1597 2909 2288 
Q 2909 2981 2756 3423 
Q 2603 3866 2333 4070 
Q 2063 4275 1763 4275 
Q 1456 4275 1187 4070 
Q 919 3866 778 3467 
Q 638 3069 638 2288 
z
" transform="scale(0.015625)"/>
       </defs>
       <use xlink:href="#CenturyGothic-32"/>
       <use xlink:href="#CenturyGothic-30" x="55.419922"/>
      </g>
     </g>
    </g>
    <g id="xtick_2">
     <g id="line2d_2">
      <g>
       <use xlink:href="#m5ea29cf5d8" x="125.441143" y="367.72" style="stroke: #000000; stroke-width: 0.8"/>
      </g>
     </g>
     <g id="text_2">
      <!-- 30 -->
      <g transform="translate(117.68208 385.029688) scale(0.14 -0.14)">
       <defs>
        <path id="CenturyGothic-33" d="M 847 3531 
L 378 3531 
Q 506 4100 868 4406 
Q 1231 4713 1725 4713 
Q 2084 4713 2395 4548 
Q 2706 4384 2876 4106 
Q 3047 3828 3047 3525 
Q 3047 2931 2456 2584 
Q 2788 2450 3000 2191 
Q 3300 1825 3300 1372 
Q 3300 981 3094 626 
Q 2888 272 2531 78 
Q 2175 -116 1734 -116 
Q 1141 -116 744 226 
Q 347 569 225 1231 
L 675 1231 
Q 794 784 1016 584 
Q 1300 331 1741 331 
Q 2241 331 2544 631 
Q 2847 931 2847 1334 
Q 2847 1603 2695 1837 
Q 2544 2072 2289 2190 
Q 2034 2309 1500 2338 
L 1500 2759 
Q 1816 2759 2075 2870 
Q 2334 2981 2451 3153 
Q 2569 3325 2569 3528 
Q 2569 3828 2330 4047 
Q 2091 4266 1725 4266 
Q 1428 4266 1212 4098 
Q 997 3931 847 3531 
z
" transform="scale(0.015625)"/>
       </defs>
       <use xlink:href="#CenturyGothic-33"/>
       <use xlink:href="#CenturyGothic-30" x="55.419922"/>
      </g>
     </g>
    </g>
    <g id="xtick_3">
     <g id="line2d_3">
      <g>
       <use xlink:href="#m5ea29cf5d8" x="171.644286" y="367.72" style="stroke: #000000; stroke-width: 0.8"/>
      </g>
     </g>
     <g id="text_3">
      <!-- 40 -->
      <g transform="translate(163.885223 385.029688) scale(0.14 -0.14)">
       <defs>
        <path id="CenturyGothic-34" d="M 2725 4713 
L 2819 4713 
L 2819 1509 
L 3375 1509 
L 3375 1069 
L 2819 1069 
L 2819 0 
L 2359 0 
L 2359 1069 
L 163 1069 
L 2725 4713 
z
M 2359 1509 
L 2359 3425 
L 1006 1509 
L 2359 1509 
z
" transform="scale(0.015625)"/>
       </defs>
       <use xlink:href="#CenturyGothic-34"/>
       <use xlink:href="#CenturyGothic-30" x="55.419922"/>
      </g>
     </g>
    </g>
    <g id="xtick_4">
     <g id="line2d_4">
      <g>
       <use xlink:href="#m5ea29cf5d8" x="217.847429" y="367.72" style="stroke: #000000; stroke-width: 0.8"/>
      </g>
     </g>
     <g id="text_4">
      <!-- 50 -->
      <g transform="translate(210.088366 385.029688) scale(0.14 -0.14)">
       <defs>
        <path id="CenturyGothic-35" d="M 3147 4597 
L 3147 4159 
L 1509 4159 
L 1281 2906 
Q 1581 2994 1822 2994 
Q 2450 2994 2858 2573 
Q 3266 2153 3266 1497 
Q 3266 1044 3056 666 
Q 2847 288 2489 86 
Q 2131 -116 1663 -116 
Q 1103 -116 718 226 
Q 334 569 259 1113 
L 731 1113 
Q 784 847 911 681 
Q 1038 516 1248 414 
Q 1459 313 1691 313 
Q 2144 313 2469 656 
Q 2794 1000 2794 1516 
Q 2794 1981 2500 2272 
Q 2206 2563 1716 2563 
Q 1309 2563 731 2316 
L 1156 4597 
L 3147 4597 
z
" transform="scale(0.015625)"/>
       </defs>
       <use xlink:href="#CenturyGothic-35"/>
       <use xlink:href="#CenturyGothic-30" x="55.419922"/>
      </g>
     </g>
    </g>
    <g id="xtick_5">
     <g id="line2d_5">
      <g>
       <use xlink:href="#m5ea29cf5d8" x="264.050571" y="367.72" style="stroke: #000000; stroke-width: 0.8"/>
      </g>
     </g>
     <g id="text_5">
      <!-- 60 -->
      <g transform="translate(256.291509 385.029688) scale(0.14 -0.14)">
       <defs>
        <path id="CenturyGothic-36" d="M 2347 4713 
L 2725 4466 
L 1484 2584 
Q 1734 2669 1953 2669 
Q 2500 2669 2881 2273 
Q 3263 1878 3263 1300 
Q 3263 903 3078 583 
Q 2894 263 2555 73 
Q 2216 -116 1825 -116 
Q 1447 -116 1123 67 
Q 800 250 615 581 
Q 431 913 431 1291 
Q 431 1572 545 1883 
Q 659 2194 953 2631 
L 2347 4713 
z
M 1844 2266 
Q 1444 2266 1161 1983 
Q 878 1700 878 1297 
Q 878 897 1161 614 
Q 1444 331 1844 331 
Q 2244 331 2526 614 
Q 2809 897 2809 1297 
Q 2809 1700 2526 1983 
Q 2244 2266 1844 2266 
z
" transform="scale(0.015625)"/>
       </defs>
       <use xlink:href="#CenturyGothic-36"/>
       <use xlink:href="#CenturyGothic-30" x="55.419922"/>
      </g>
     </g>
    </g>
    <g id="xtick_6">
     <g id="line2d_6">
      <g>
       <use xlink:href="#m5ea29cf5d8" x="310.253714" y="367.72" style="stroke: #000000; stroke-width: 0.8"/>
      </g>
     </g>
     <g id="text_6">
      <!-- 70 -->
      <g transform="translate(302.494652 385.029688) scale(0.14 -0.14)">
       <defs>
        <path id="CenturyGothic-37" d="M 459 4597 
L 3375 4597 
L 916 -116 
L 538 78 
L 2663 4163 
L 459 4163 
L 459 4597 
z
" transform="scale(0.015625)"/>
       </defs>
       <use xlink:href="#CenturyGothic-37"/>
       <use xlink:href="#CenturyGothic-30" x="55.419922"/>
      </g>
     </g>
    </g>
    <g id="xtick_7">
     <g id="line2d_7">
      <g>
       <use xlink:href="#m5ea29cf5d8" x="356.456857" y="367.72" style="stroke: #000000; stroke-width: 0.8"/>
      </g>
     </g>
     <g id="text_7">
      <!-- 80 -->
      <g transform="translate(348.697795 385.029688) scale(0.14 -0.14)">
       <defs>
        <path id="CenturyGothic-38" d="M 2459 2522 
Q 2925 2291 3126 1994 
Q 3328 1697 3328 1319 
Q 3328 788 2981 381 
Q 2556 -116 1766 -116 
Q 1003 -116 609 320 
Q 216 756 216 1281 
Q 216 1666 422 1973 
Q 628 2281 1109 2522 
Q 772 2697 603 2956 
Q 434 3216 434 3513 
Q 434 3813 614 4098 
Q 794 4384 1111 4548 
Q 1428 4713 1797 4713 
Q 2156 4713 2462 4547 
Q 2769 4381 2942 4097 
Q 3116 3813 3116 3500 
Q 3116 3188 2952 2944 
Q 2788 2700 2459 2522 
z
M 1775 4266 
Q 1397 4266 1148 4042 
Q 900 3819 900 3509 
Q 900 3203 1167 2954 
Q 1434 2706 1791 2706 
Q 2019 2706 2222 2818 
Q 2425 2931 2539 3126 
Q 2653 3322 2653 3519 
Q 2653 3797 2428 4031 
Q 2203 4266 1775 4266 
z
M 1797 2291 
Q 1322 2291 1000 1983 
Q 678 1675 678 1266 
Q 678 1013 815 788 
Q 953 563 1200 441 
Q 1447 319 1772 319 
Q 2275 319 2572 616 
Q 2869 913 2869 1309 
Q 2869 1694 2555 1992 
Q 2241 2291 1797 2291 
z
" transform="scale(0.015625)"/>
       </defs>
       <use xlink:href="#CenturyGothic-38"/>
       <use xlink:href="#CenturyGothic-30" x="55.419922"/>
      </g>
     </g>
    </g>
    <g id="xtick_8">
     <g id="line2d_8">
      <g>
       <use xlink:href="#m5ea29cf5d8" x="402.66" y="367.72" style="stroke: #000000; stroke-width: 0.8"/>
      </g>
     </g>
     <g id="text_8">
      <!-- 90 -->
      <g transform="translate(394.900938 385.029688) scale(0.14 -0.14)">
       <defs>
        <path id="CenturyGothic-39" d="M 1228 -116 
L 850 128 
L 2091 2009 
Q 1841 1928 1622 1928 
Q 1075 1928 694 2323 
Q 313 2719 313 3297 
Q 313 3694 497 4012 
Q 681 4331 1020 4522 
Q 1359 4713 1747 4713 
Q 2128 4713 2451 4528 
Q 2775 4344 2959 4012 
Q 3144 3681 3144 3306 
Q 3144 3022 3030 2711 
Q 2916 2400 2622 1963 
L 1228 -116 
z
M 1728 2331 
Q 2131 2331 2414 2614 
Q 2697 2897 2697 3297 
Q 2697 3697 2414 3980 
Q 2131 4263 1728 4263 
Q 1328 4263 1045 3980 
Q 763 3697 763 3297 
Q 763 2897 1045 2614 
Q 1328 2331 1728 2331 
z
" transform="scale(0.015625)"/>
       </defs>
       <use xlink:href="#CenturyGothic-39"/>
       <use xlink:href="#CenturyGothic-30" x="55.419922"/>
      </g>
     </g>
    </g>
    <g id="text_9">
     <!-- Temperature [K] -->
     <g transform="translate(162.98025 406.479062) scale(0.2 -0.2)">
      <defs>
       <path id="CenturyGothic-54" d="M 103 4150 
L 103 4597 
L 2625 4597 
L 2625 4150 
L 1600 4150 
L 1600 0 
L 1131 0 
L 1131 4150 
L 103 4150 
z
" transform="scale(0.015625)"/>
       <path id="CenturyGothic-65" d="M 3350 1128 
L 3719 934 
Q 3538 578 3300 359 
Q 3063 141 2766 26 
Q 2469 -88 2094 -88 
Q 1263 -88 794 457 
Q 325 1003 325 1691 
Q 325 2338 722 2844 
Q 1225 3488 2069 3488 
Q 2938 3488 3456 2828 
Q 3825 2363 3831 1666 
L 775 1666 
Q 788 1072 1153 692 
Q 1519 313 2056 313 
Q 2316 313 2561 403 
Q 2806 494 2978 644 
Q 3150 794 3350 1128 
z
M 3350 2044 
Q 3263 2394 3095 2603 
Q 2928 2813 2653 2941 
Q 2378 3069 2075 3069 
Q 1575 3069 1216 2747 
Q 953 2513 819 2044 
L 3350 2044 
z
" transform="scale(0.015625)"/>
       <path id="CenturyGothic-6d" d="M 484 3400 
L 919 3400 
L 919 2813 
Q 1147 3138 1388 3288 
Q 1719 3488 2084 3488 
Q 2331 3488 2553 3391 
Q 2775 3294 2915 3133 
Q 3056 2972 3159 2672 
Q 3378 3072 3706 3280 
Q 4034 3488 4413 3488 
Q 4766 3488 5036 3309 
Q 5306 3131 5437 2812 
Q 5569 2494 5569 1856 
L 5569 0 
L 5122 0 
L 5122 1856 
Q 5122 2403 5044 2608 
Q 4966 2813 4777 2938 
Q 4588 3063 4325 3063 
Q 4006 3063 3742 2875 
Q 3478 2688 3356 2375 
Q 3234 2063 3234 1331 
L 3234 0 
L 2800 0 
L 2800 1741 
Q 2800 2356 2723 2576 
Q 2647 2797 2456 2930 
Q 2266 3063 2003 3063 
Q 1700 3063 1436 2880 
Q 1172 2697 1045 2387 
Q 919 2078 919 1441 
L 919 0 
L 484 0 
L 484 3400 
z
" transform="scale(0.015625)"/>
       <path id="CenturyGothic-70" d="M 494 3400 
L 928 3400 
L 928 2775 
Q 1188 3131 1525 3309 
Q 1863 3488 2278 3488 
Q 3003 3488 3518 2966 
Q 4034 2444 4034 1709 
Q 4034 959 3523 435 
Q 3013 -88 2291 -88 
Q 1884 -88 1543 81 
Q 1203 250 928 584 
L 928 -1244 
L 494 -1244 
L 494 3400 
z
M 2244 3066 
Q 1675 3066 1286 2669 
Q 897 2272 897 1681 
Q 897 1294 1070 984 
Q 1244 675 1567 494 
Q 1891 313 2250 313 
Q 2603 313 2914 495 
Q 3225 678 3409 1006 
Q 3594 1334 3594 1694 
Q 3594 2056 3411 2381 
Q 3228 2706 2918 2886 
Q 2609 3066 2244 3066 
z
" transform="scale(0.015625)"/>
       <path id="CenturyGothic-72" d="M 322 3400 
L 769 3400 
L 769 2903 
Q 969 3197 1191 3342 
Q 1413 3488 1653 3488 
Q 1834 3488 2041 3372 
L 1813 3003 
Q 1675 3063 1581 3063 
Q 1363 3063 1159 2883 
Q 956 2703 850 2325 
Q 769 2034 769 1150 
L 769 0 
L 322 0 
L 322 3400 
z
" transform="scale(0.015625)"/>
       <path id="CenturyGothic-61" d="M 3875 3400 
L 3875 0 
L 3444 0 
L 3444 584 
Q 3169 250 2826 81 
Q 2484 -88 2078 -88 
Q 1356 -88 845 435 
Q 334 959 334 1709 
Q 334 2444 850 2966 
Q 1366 3488 2091 3488 
Q 2509 3488 2848 3309 
Q 3188 3131 3444 2775 
L 3444 3400 
L 3875 3400 
z
M 2125 3066 
Q 1759 3066 1450 2886 
Q 1141 2706 958 2381 
Q 775 2056 775 1694 
Q 775 1334 959 1006 
Q 1144 678 1455 495 
Q 1766 313 2122 313 
Q 2481 313 2803 494 
Q 3125 675 3298 984 
Q 3472 1294 3472 1681 
Q 3472 2272 3083 2669 
Q 2694 3066 2125 3066 
z
" transform="scale(0.015625)"/>
       <path id="CenturyGothic-74" d="M 869 4663 
L 1309 4663 
L 1309 3400 
L 2003 3400 
L 2003 3025 
L 1309 3025 
L 1309 0 
L 869 0 
L 869 3025 
L 272 3025 
L 272 3400 
L 869 3400 
L 869 4663 
z
" transform="scale(0.015625)"/>
       <path id="CenturyGothic-75" d="M 431 3400 
L 872 3400 
L 872 1813 
Q 872 1231 934 1013 
Q 1028 700 1292 519 
Q 1556 338 1922 338 
Q 2288 338 2542 514 
Q 2797 691 2894 978 
Q 2959 1175 2959 1813 
L 2959 3400 
L 3406 3400 
L 3406 1731 
Q 3406 1028 3242 672 
Q 3078 316 2748 114 
Q 2419 -88 1922 -88 
Q 1425 -88 1092 114 
Q 759 316 595 677 
Q 431 1038 431 1763 
L 431 3400 
z
" transform="scale(0.015625)"/>
       <path id="CenturyGothic-20" transform="scale(0.015625)"/>
       <path id="CenturyGothic-5b" d="M 906 4713 
L 1956 4713 
L 1956 4269 
L 1344 4269 
L 1344 -816 
L 1956 -816 
L 1956 -1244 
L 906 -1244 
L 906 4713 
z
" transform="scale(0.015625)"/>
       <path id="CenturyGothic-4b" d="M 559 4597 
L 1028 4597 
L 1028 2872 
L 2863 4597 
L 3484 4597 
L 1275 2534 
L 3656 0 
L 3047 0 
L 1028 2144 
L 1028 0 
L 559 0 
L 559 4597 
z
" transform="scale(0.015625)"/>
       <path id="CenturyGothic-5d" d="M 1341 -1244 
L 291 -1244 
L 291 -800 
L 900 -800 
L 900 4284 
L 291 4284 
L 291 4713 
L 1341 4713 
L 1341 -1244 
z
" transform="scale(0.015625)"/>
      </defs>
      <use xlink:href="#CenturyGothic-54"/>
      <use xlink:href="#CenturyGothic-65" x="42.578125"/>
      <use xlink:href="#CenturyGothic-6d" x="107.568359"/>
      <use xlink:href="#CenturyGothic-70" x="201.367188"/>
      <use xlink:href="#CenturyGothic-65" x="269.580078"/>
      <use xlink:href="#CenturyGothic-72" x="334.570312"/>
      <use xlink:href="#CenturyGothic-61" x="364.648438"/>
      <use xlink:href="#CenturyGothic-74" x="432.958984"/>
      <use xlink:href="#CenturyGothic-75" x="466.845703"/>
      <use xlink:href="#CenturyGothic-72" x="527.636719"/>
      <use xlink:href="#CenturyGothic-65" x="557.714844"/>
      <use xlink:href="#CenturyGothic-20" x="622.705078"/>
      <use xlink:href="#CenturyGothic-5b" x="650.390625"/>
      <use xlink:href="#CenturyGothic-4b" x="685.498047"/>
      <use xlink:href="#CenturyGothic-5d" x="744.580078"/>
     </g>
    </g>
   </g>
   <g id="matplotlib.axis_2">
    <g id="ytick_1">
     <g id="line2d_9">
      <defs>
       <path id="m9e970115e0" d="M 0 0 
L -3.5 0 
" style="stroke: #000000; stroke-width: 0.8"/>
      </defs>
      <g>
       <use xlink:href="#m9e970115e0" x="79.238" y="367.72" style="stroke: #000000; stroke-width: 0.8"/>
      </g>
     </g>
     <g id="text_10">
      <!-- 0.0 -->
      <g transform="translate(52.843625 372.874844) scale(0.14 -0.14)">
       <defs>
        <path id="CenturyGothic-2e" d="M 969 688 
Q 1128 688 1240 575 
Q 1353 463 1353 300 
Q 1353 141 1240 26 
Q 1128 -88 969 -88 
Q 809 -88 696 26 
Q 584 141 584 300 
Q 584 463 696 575 
Q 809 688 969 688 
z
" transform="scale(0.015625)"/>
       </defs>
       <use xlink:href="#CenturyGothic-30"/>
       <use xlink:href="#CenturyGothic-2e" x="55.419922"/>
       <use xlink:href="#CenturyGothic-30" x="83.105469"/>
      </g>
     </g>
    </g>
    <g id="ytick_2">
     <g id="line2d_10">
      <g>
       <use xlink:href="#m9e970115e0" x="79.238" y="299.576" style="stroke: #000000; stroke-width: 0.8"/>
      </g>
     </g>
     <g id="text_11">
      <!-- 0.2 -->
      <g transform="translate(52.843625 304.730844) scale(0.14 -0.14)">
       <use xlink:href="#CenturyGothic-30"/>
       <use xlink:href="#CenturyGothic-2e" x="55.419922"/>
       <use xlink:href="#CenturyGothic-32" x="83.105469"/>
      </g>
     </g>
    </g>
    <g id="ytick_3">
     <g id="line2d_11">
      <g>
       <use xlink:href="#m9e970115e0" x="79.238" y="231.432" style="stroke: #000000; stroke-width: 0.8"/>
      </g>
     </g>
     <g id="text_12">
      <!-- 0.4 -->
      <g transform="translate(52.843625 236.586844) scale(0.14 -0.14)">
       <use xlink:href="#CenturyGothic-30"/>
       <use xlink:href="#CenturyGothic-2e" x="55.419922"/>
       <use xlink:href="#CenturyGothic-34" x="83.105469"/>
      </g>
     </g>
    </g>
    <g id="ytick_4">
     <g id="line2d_12">
      <g>
       <use xlink:href="#m9e970115e0" x="79.238" y="163.288" style="stroke: #000000; stroke-width: 0.8"/>
      </g>
     </g>
     <g id="text_13">
      <!-- 0.6 -->
      <g transform="translate(52.843625 168.442844) scale(0.14 -0.14)">
       <use xlink:href="#CenturyGothic-30"/>
       <use xlink:href="#CenturyGothic-2e" x="55.419922"/>
       <use xlink:href="#CenturyGothic-36" x="83.105469"/>
      </g>
     </g>
    </g>
    <g id="ytick_5">
     <g id="line2d_13">
      <g>
       <use xlink:href="#m9e970115e0" x="79.238" y="95.144" style="stroke: #000000; stroke-width: 0.8"/>
      </g>
     </g>
     <g id="text_14">
      <!-- 0.8 -->
      <g transform="translate(52.843625 100.298844) scale(0.14 -0.14)">
       <use xlink:href="#CenturyGothic-30"/>
       <use xlink:href="#CenturyGothic-2e" x="55.419922"/>
       <use xlink:href="#CenturyGothic-38" x="83.105469"/>
      </g>
     </g>
    </g>
    <g id="ytick_6">
     <g id="line2d_14">
      <g>
       <use xlink:href="#m9e970115e0" x="79.238" y="27" style="stroke: #000000; stroke-width: 0.8"/>
      </g>
     </g>
     <g id="text_15">
      <!-- 1.0 -->
      <g transform="translate(52.843625 32.154844) scale(0.14 -0.14)">
       <defs>
        <path id="CenturyGothic-31" d="M 1184 4597 
L 2088 4597 
L 2088 0 
L 1631 0 
L 1631 4147 
L 909 4147 
L 1184 4597 
z
" transform="scale(0.015625)"/>
       </defs>
       <use xlink:href="#CenturyGothic-31"/>
       <use xlink:href="#CenturyGothic-2e" x="55.419922"/>
       <use xlink:href="#CenturyGothic-30" x="83.105469"/>
      </g>
     </g>
    </g>
    <g id="text_16">
     <!-- $\mathrm{I_c\, /\, I_c^{20K}}$ [K] -->
     <g transform="translate(43.043625 243.66) rotate(-90) scale(0.2 -0.2)">
      <defs>
       <path id="DejaVuSans-49" d="M 628 4666 
L 1259 4666 
L 1259 0 
L 628 0 
L 628 4666 
z
" transform="scale(0.015625)"/>
       <path id="DejaVuSans-63" d="M 3122 3366 
L 3122 2828 
Q 2878 2963 2633 3030 
Q 2388 3097 2138 3097 
Q 1578 3097 1268 2742 
Q 959 2388 959 1747 
Q 959 1106 1268 751 
Q 1578 397 2138 397 
Q 2388 397 2633 464 
Q 2878 531 3122 666 
L 3122 134 
Q 2881 22 2623 -34 
Q 2366 -91 2075 -91 
Q 1284 -91 818 406 
Q 353 903 353 1747 
Q 353 2603 823 3093 
Q 1294 3584 2113 3584 
Q 2378 3584 2631 3529 
Q 2884 3475 3122 3366 
z
" transform="scale(0.015625)"/>
       <path id="DejaVuSans-2f" d="M 1625 4666 
L 2156 4666 
L 531 -594 
L 0 -594 
L 1625 4666 
z
" transform="scale(0.015625)"/>
       <path id="DejaVuSans-32" d="M 1228 531 
L 3431 531 
L 3431 0 
L 469 0 
L 469 531 
Q 828 903 1448 1529 
Q 2069 2156 2228 2338 
Q 2531 2678 2651 2914 
Q 2772 3150 2772 3378 
Q 2772 3750 2511 3984 
Q 2250 4219 1831 4219 
Q 1534 4219 1204 4116 
Q 875 4013 500 3803 
L 500 4441 
Q 881 4594 1212 4672 
Q 1544 4750 1819 4750 
Q 2544 4750 2975 4387 
Q 3406 4025 3406 3419 
Q 3406 3131 3298 2873 
Q 3191 2616 2906 2266 
Q 2828 2175 2409 1742 
Q 1991 1309 1228 531 
z
" transform="scale(0.015625)"/>
       <path id="DejaVuSans-30" d="M 2034 4250 
Q 1547 4250 1301 3770 
Q 1056 3291 1056 2328 
Q 1056 1369 1301 889 
Q 1547 409 2034 409 
Q 2525 409 2770 889 
Q 3016 1369 3016 2328 
Q 3016 3291 2770 3770 
Q 2525 4250 2034 4250 
z
M 2034 4750 
Q 2819 4750 3233 4129 
Q 3647 3509 3647 2328 
Q 3647 1150 3233 529 
Q 2819 -91 2034 -91 
Q 1250 -91 836 529 
Q 422 1150 422 2328 
Q 422 3509 836 4129 
Q 1250 4750 2034 4750 
z
" transform="scale(0.015625)"/>
       <path id="DejaVuSans-4b" d="M 628 4666 
L 1259 4666 
L 1259 2694 
L 3353 4666 
L 4166 4666 
L 1850 2491 
L 4331 0 
L 3500 0 
L 1259 2247 
L 1259 0 
L 628 0 
L 628 4666 
z
" transform="scale(0.015625)"/>
      </defs>
      <use xlink:href="#DejaVuSans-49" transform="translate(0 0.765625)"/>
      <use xlink:href="#DejaVuSans-63" transform="translate(30.449219 -15.640625) scale(0.7)"/>
      <use xlink:href="#DejaVuSans-2f" transform="translate(87.905598 0.765625)"/>
      <use xlink:href="#DejaVuSans-49" transform="translate(137.832681 0.765625)"/>
      <use xlink:href="#DejaVuSans-32" transform="translate(168.281899 39.046875) scale(0.7)"/>
      <use xlink:href="#DejaVuSans-30" transform="translate(212.818032 39.046875) scale(0.7)"/>
      <use xlink:href="#DejaVuSans-4b" transform="translate(257.354165 39.046875) scale(0.7)"/>
      <use xlink:href="#DejaVuSans-63" transform="translate(168.281899 -26.578125) scale(0.7)"/>
      <use xlink:href="#CenturyGothic-20" transform="translate(305.99186 0.765625)"/>
      <use xlink:href="#CenturyGothic-5b" transform="translate(333.677407 0.765625)"/>
      <use xlink:href="#CenturyGothic-4b" transform="translate(368.784829 0.765625)"/>
      <use xlink:href="#CenturyGothic-5d" transform="translate(427.86686 0.765625)"/>
     </g>
    </g>
   </g>
   <g id="line2d_15">
    <path d="M 79.238 27 
L 89.588539 44.549797 
L 99.842042 61.499713 
L 110.030854 77.914865 
L 120.122629 93.754635 
L 130.149714 109.081148 
L 140.112108 123.90364 
L 149.977465 138.185071 
L 159.778132 151.983217 
L 169.481762 165.263341 
L 179.120702 178.080383 
L 188.69495 190.443008 
L 198.204508 202.359783 
L 207.61703 213.800473 
L 216.96486 224.814564 
L 226.248 235.410303 
L 235.466449 245.595842 
L 244.620207 255.379244 
L 253.676928 264.735638 
L 262.668959 273.708015 
L 271.596299 282.30413 
L 280.458948 290.531647 
L 289.256906 298.39814 
L 298.022519 305.938377 
L 306.723441 313.130319 
L 315.359672 319.981312 
L 323.931212 326.498618 
L 332.438062 332.689414 
L 340.912565 338.582766 
L 349.322378 344.161648 
L 357.699846 349.452938 
L 366.012623 354.441566 
L 374.293054 359.152258 
L 382.508794 363.571868 
L 390.692189 367.723004 
L 398.843239 371.609344 
L 402.66 373.344121 
L 402.66 373.344121 
" clip-path="url(#p9dd72c9e26)" style="fill: none; stroke: #fcbba1; stroke-opacity: 0.6; stroke-width: 6; stroke-linecap: square"/>
   </g>
   <g id="line2d_16">
    <path d="M 79.238 27 
L 85.027833 46.621772 
L 90.78532 65.351293 
L 96.478117 83.120525 
L 102.138568 100.066646 
L 107.766673 116.218792 
L 113.362433 131.605452 
L 118.925848 146.254481 
L 124.424572 160.113369 
L 129.89095 173.295402 
L 135.324983 185.826235 
L 140.726671 197.730926 
L 146.128359 209.100458 
L 151.497701 219.886104 
L 156.834697 230.111484 
L 162.139349 239.799644 
L 167.444 249.027969 
L 172.716306 257.758169 
L 177.988612 266.061582 
L 183.260917 273.951893 
L 188.533223 281.442789 
L 193.805529 288.547956 
L 199.077835 295.281081 
L 204.350141 301.65585 
L 209.654792 307.721908 
L 214.959443 313.452994 
L 220.328785 318.927102 
L 225.730473 324.116914 
L 231.164506 329.031567 
L 236.66323 333.707354 
L 242.25899 338.174527 
L 247.951787 342.434601 
L 253.741619 346.490571 
L 259.693179 350.38794 
L 265.806466 354.124733 
L 272.113826 357.719507 
L 278.679949 361.205506 
L 285.569527 364.610707 
L 292.911941 367.988906 
L 300.836572 371.386309 
L 309.63453 374.91083 
L 319.952724 378.795853 
L 334.249406 383.918489 
L 357.214664 392.147741 
L 367.597549 396.125295 
L 376.363162 399.7179 
L 384.223102 403.176895 
L 391.500825 406.620953 
L 398.325712 410.094415 
L 402.66 412.436654 
L 402.66 412.436654 
" clip-path="url(#p9dd72c9e26)" style="fill: none; stroke: #000000; stroke-opacity: 0.6; stroke-width: 6; stroke-linecap: square"/>
   </g>
   <g id="line2d_17">
    <path d="M 339.738963 367.72 
L 306.582044 349.787368 
L 280.961124 331.854737 
L 259.709365 313.922105 
L 241.297947 295.989474 
L 224.901674 278.056842 
L 210.023666 260.124211 
L 196.339509 242.191579 
L 183.624329 224.258947 
L 171.714995 206.326316 
L 160.488884 188.393684 
L 149.85115 170.461053 
L 139.726699 152.528421 
L 130.054911 134.595789 
L 120.786031 116.663158 
L 111.878647 98.730526 
L 103.297864 80.797895 
L 95.013962 62.865263 
L 87.001391 44.932632 
L 79.238 27 
" clip-path="url(#p9dd72c9e26)" style="fill: none; stroke: #ee3a2c; stroke-opacity: 0.6; stroke-width: 6; stroke-linecap: square"/>
   </g>
   <g id="line2d_18">
    <defs>
     <path id="mfe8477d7ad" d="M 0 4 
C 1.060812 4 2.078319 3.578535 2.828427 2.828427 
C 3.578535 2.078319 4 1.060812 4 0 
C 4 -1.060812 3.578535 -2.078319 2.828427 -2.828427 
C 2.078319 -3.578535 1.060812 -4 0 -4 
C -1.060812 -4 -2.078319 -3.578535 -2.828427 -2.828427 
C -3.578535 -2.078319 -4 -1.060812 -4 0 
C -4 1.060812 -3.578535 2.078319 -2.828427 2.828427 
C -2.078319 3.578535 -1.060812 4 0 4 
z
" style="stroke: #ee3a2c"/>
    </defs>
    <g clip-path="url(#p9dd72c9e26)">
     <use xlink:href="#mfe8477d7ad" x="83.947856" y="46.715551" style="fill: #ffffff; stroke: #ee3a2c"/>
     <use xlink:href="#mfe8477d7ad" x="167.271297" y="191.593902" style="fill: #ffffff; stroke: #ee3a2c"/>
     <use xlink:href="#mfe8477d7ad" x="102.507705" y="77.417788" style="fill: #ffffff; stroke: #ee3a2c"/>
     <use xlink:href="#mfe8477d7ad" x="153.202486" y="168.902621" style="fill: #ffffff; stroke: #ee3a2c"/>
     <use xlink:href="#mfe8477d7ad" x="125.278323" y="122.611133" style="fill: #ffffff; stroke: #ee3a2c"/>
     <use xlink:href="#mfe8477d7ad" x="194.536788" y="228.650323" style="fill: #ffffff; stroke: #ee3a2c"/>
     <use xlink:href="#mfe8477d7ad" x="116.109771" y="104.425868" style="fill: #ffffff; stroke: #ee3a2c"/>
     <use xlink:href="#mfe8477d7ad" x="83.38293" y="36.870081" style="fill: #ffffff; stroke: #ee3a2c"/>
     <use xlink:href="#mfe8477d7ad" x="167.397616" y="191.654202" style="fill: #ffffff; stroke: #ee3a2c"/>
     <use xlink:href="#mfe8477d7ad" x="263.735651" y="310.801223" style="fill: #ffffff; stroke: #ee3a2c"/>
     <use xlink:href="#mfe8477d7ad" x="93.195045" y="66.542778" style="fill: #ffffff; stroke: #ee3a2c"/>
     <use xlink:href="#mfe8477d7ad" x="79.221736" y="28.53657" style="fill: #ffffff; stroke: #ee3a2c"/>
     <use xlink:href="#mfe8477d7ad" x="82.445145" y="35.548849" style="fill: #ffffff; stroke: #ee3a2c"/>
     <use xlink:href="#mfe8477d7ad" x="82.417423" y="34.371374" style="fill: #ffffff; stroke: #ee3a2c"/>
     <use xlink:href="#mfe8477d7ad" x="134.697157" y="144.242209" style="fill: #ffffff; stroke: #ee3a2c"/>
     <use xlink:href="#mfe8477d7ad" x="107.011402" y="94.990956" style="fill: #ffffff; stroke: #ee3a2c"/>
     <use xlink:href="#mfe8477d7ad" x="217.569517" y="255.788224" style="fill: #ffffff; stroke: #ee3a2c"/>
     <use xlink:href="#mfe8477d7ad" x="139.333689" y="146.834236" style="fill: #ffffff; stroke: #ee3a2c"/>
     <use xlink:href="#mfe8477d7ad" x="102.538106" y="77.546856" style="fill: #ffffff; stroke: #ee3a2c"/>
     <use xlink:href="#mfe8477d7ad" x="107.01727" y="95.767545" style="fill: #ffffff; stroke: #ee3a2c"/>
     <use xlink:href="#mfe8477d7ad" x="139.365014" y="146.674575" style="fill: #ffffff; stroke: #ee3a2c"/>
     <use xlink:href="#mfe8477d7ad" x="167.253" y="191.725957" style="fill: #ffffff; stroke: #ee3a2c"/>
     <use xlink:href="#mfe8477d7ad" x="93.217315" y="67.661548" style="fill: #ffffff; stroke: #ee3a2c"/>
     <use xlink:href="#mfe8477d7ad" x="93.18964" y="66.030949" style="fill: #ffffff; stroke: #ee3a2c"/>
     <use xlink:href="#mfe8477d7ad" x="139.425494" y="147.605759" style="fill: #ffffff; stroke: #ee3a2c"/>
     <use xlink:href="#mfe8477d7ad" x="120.652187" y="122.150813" style="fill: #ffffff; stroke: #ee3a2c"/>
     <use xlink:href="#mfe8477d7ad" x="79.308275" y="38.880733" style="fill: #ffffff; stroke: #ee3a2c"/>
     <use xlink:href="#mfe8477d7ad" x="79.272976" y="29.390198" style="fill: #ffffff; stroke: #ee3a2c"/>
     <use xlink:href="#mfe8477d7ad" x="153.27022" y="168.501295" style="fill: #ffffff; stroke: #ee3a2c"/>
     <use xlink:href="#mfe8477d7ad" x="83.954509" y="47.445554" style="fill: #ffffff; stroke: #ee3a2c"/>
     <use xlink:href="#mfe8477d7ad" x="107.003548" y="95.567818" style="fill: #ffffff; stroke: #ee3a2c"/>
     <use xlink:href="#mfe8477d7ad" x="315.249198" y="353.859762" style="fill: #ffffff; stroke: #ee3a2c"/>
     <use xlink:href="#mfe8477d7ad" x="314.530416" y="352.821338" style="fill: #ffffff; stroke: #ee3a2c"/>
     <use xlink:href="#mfe8477d7ad" x="217.639006" y="261.411595" style="fill: #ffffff; stroke: #ee3a2c"/>
     <use xlink:href="#mfe8477d7ad" x="93.395752" y="58.749219" style="fill: #ffffff; stroke: #ee3a2c"/>
     <use xlink:href="#mfe8477d7ad" x="106.971945" y="95.075592" style="fill: #ffffff; stroke: #ee3a2c"/>
     <use xlink:href="#mfe8477d7ad" x="217.617799" y="261.03259" style="fill: #ffffff; stroke: #ee3a2c"/>
     <use xlink:href="#mfe8477d7ad" x="363.961495" y="367.604325" style="fill: #ffffff; stroke: #ee3a2c"/>
     <use xlink:href="#mfe8477d7ad" x="315.473283" y="353.760223" style="fill: #ffffff; stroke: #ee3a2c"/>
     <use xlink:href="#mfe8477d7ad" x="264.232981" y="307.992518" style="fill: #ffffff; stroke: #ee3a2c"/>
     <use xlink:href="#mfe8477d7ad" x="217.641316" y="257.765505" style="fill: #ffffff; stroke: #ee3a2c"/>
     <use xlink:href="#mfe8477d7ad" x="79.286375" y="28.618377" style="fill: #ffffff; stroke: #ee3a2c"/>
     <use xlink:href="#mfe8477d7ad" x="120.601086" y="120.817612" style="fill: #ffffff; stroke: #ee3a2c"/>
     <use xlink:href="#mfe8477d7ad" x="83.370871" y="37.062399" style="fill: #ffffff; stroke: #ee3a2c"/>
     <use xlink:href="#mfe8477d7ad" x="125.332658" y="121.248288" style="fill: #ffffff; stroke: #ee3a2c"/>
     <use xlink:href="#mfe8477d7ad" x="102.471712" y="77.637058" style="fill: #ffffff; stroke: #ee3a2c"/>
     <use xlink:href="#mfe8477d7ad" x="153.207661" y="170.803352" style="fill: #ffffff; stroke: #ee3a2c"/>
     <use xlink:href="#mfe8477d7ad" x="83.972436" y="47.914371" style="fill: #ffffff; stroke: #ee3a2c"/>
     <use xlink:href="#mfe8477d7ad" x="93.409659" y="58.94492" style="fill: #ffffff; stroke: #ee3a2c"/>
     <use xlink:href="#mfe8477d7ad" x="167.286359" y="191.443366" style="fill: #ffffff; stroke: #ee3a2c"/>
     <use xlink:href="#mfe8477d7ad" x="309.961387" y="351.753206" style="fill: #ffffff; stroke: #ee3a2c"/>
     <use xlink:href="#mfe8477d7ad" x="217.617891" y="261.140296" style="fill: #ffffff; stroke: #ee3a2c"/>
     <use xlink:href="#mfe8477d7ad" x="93.400187" y="58.67468" style="fill: #ffffff; stroke: #ee3a2c"/>
     <use xlink:href="#mfe8477d7ad" x="83.375353" y="36.647001" style="fill: #ffffff; stroke: #ee3a2c"/>
     <use xlink:href="#mfe8477d7ad" x="264.298729" y="307.379409" style="fill: #ffffff; stroke: #ee3a2c"/>
     <use xlink:href="#mfe8477d7ad" x="125.313345" y="122.275613" style="fill: #ffffff; stroke: #ee3a2c"/>
     <use xlink:href="#mfe8477d7ad" x="139.332072" y="144.915175" style="fill: #ffffff; stroke: #ee3a2c"/>
     <use xlink:href="#mfe8477d7ad" x="148.410712" y="167.7767" style="fill: #ffffff; stroke: #ee3a2c"/>
     <use xlink:href="#mfe8477d7ad" x="83.935104" y="47.590627" style="fill: #ffffff; stroke: #ee3a2c"/>
     <use xlink:href="#mfe8477d7ad" x="264.339156" y="307.299329" style="fill: #ffffff; stroke: #ee3a2c"/>
     <use xlink:href="#mfe8477d7ad" x="309.92983" y="351.687371" style="fill: #ffffff; stroke: #ee3a2c"/>
     <use xlink:href="#mfe8477d7ad" x="263.760231" y="310.606758" style="fill: #ffffff; stroke: #ee3a2c"/>
     <use xlink:href="#mfe8477d7ad" x="79.812998" y="28.512385" style="fill: #ffffff; stroke: #ee3a2c"/>
     <use xlink:href="#mfe8477d7ad" x="79.277688" y="27" style="fill: #ffffff; stroke: #ee3a2c"/>
     <use xlink:href="#mfe8477d7ad" x="125.280356" y="121.78615" style="fill: #ffffff; stroke: #ee3a2c"/>
     <use xlink:href="#mfe8477d7ad" x="194.518214" y="229.180061" style="fill: #ffffff; stroke: #ee3a2c"/>
     <use xlink:href="#mfe8477d7ad" x="217.663401" y="261.324977" style="fill: #ffffff; stroke: #ee3a2c"/>
     <use xlink:href="#mfe8477d7ad" x="264.340958" y="306.350754" style="fill: #ffffff; stroke: #ee3a2c"/>
     <use xlink:href="#mfe8477d7ad" x="171.477816" y="201.940341" style="fill: #ffffff; stroke: #ee3a2c"/>
     <use xlink:href="#mfe8477d7ad" x="93.157251" y="66.439633" style="fill: #ffffff; stroke: #ee3a2c"/>
     <use xlink:href="#mfe8477d7ad" x="217.596638" y="255.456079" style="fill: #ffffff; stroke: #ee3a2c"/>
     <use xlink:href="#mfe8477d7ad" x="79.809487" y="29.388096" style="fill: #ffffff; stroke: #ee3a2c"/>
     <use xlink:href="#mfe8477d7ad" x="79.283556" y="36.966696" style="fill: #ffffff; stroke: #ee3a2c"/>
     <use xlink:href="#mfe8477d7ad" x="102.517592" y="77.856421" style="fill: #ffffff; stroke: #ee3a2c"/>
     <use xlink:href="#mfe8477d7ad" x="139.355173" y="145.606749" style="fill: #ffffff; stroke: #ee3a2c"/>
     <use xlink:href="#mfe8477d7ad" x="82.482847" y="34.283061" style="fill: #ffffff; stroke: #ee3a2c"/>
     <use xlink:href="#mfe8477d7ad" x="167.270511" y="190.839794" style="fill: #ffffff; stroke: #ee3a2c"/>
     <use xlink:href="#mfe8477d7ad" x="120.610004" y="120.168226" style="fill: #ffffff; stroke: #ee3a2c"/>
     <use xlink:href="#mfe8477d7ad" x="217.619508" y="256.318575" style="fill: #ffffff; stroke: #ee3a2c"/>
     <use xlink:href="#mfe8477d7ad" x="153.199113" y="169.426567" style="fill: #ffffff; stroke: #ee3a2c"/>
     <use xlink:href="#mfe8477d7ad" x="93.418853" y="58.702668" style="fill: #ffffff; stroke: #ee3a2c"/>
     <use xlink:href="#mfe8477d7ad" x="264.24213" y="307.319585" style="fill: #ffffff; stroke: #ee3a2c"/>
     <use xlink:href="#mfe8477d7ad" x="120.636339" y="121.45" style="fill: #ffffff; stroke: #ee3a2c"/>
     <use xlink:href="#mfe8477d7ad" x="79.327542" y="37.139897" style="fill: #ffffff; stroke: #ee3a2c"/>
     <use xlink:href="#mfe8477d7ad" x="134.689996" y="145.820538" style="fill: #ffffff; stroke: #ee3a2c"/>
     <use xlink:href="#mfe8477d7ad" x="315.080141" y="353.651221" style="fill: #ffffff; stroke: #ee3a2c"/>
     <use xlink:href="#mfe8477d7ad" x="134.650769" y="143.736406" style="fill: #ffffff; stroke: #ee3a2c"/>
     <use xlink:href="#mfe8477d7ad" x="79.287068" y="28.645365" style="fill: #ffffff; stroke: #ee3a2c"/>
     <use xlink:href="#mfe8477d7ad" x="309.876142" y="351.734627" style="fill: #ffffff; stroke: #ee3a2c"/>
     <use xlink:href="#mfe8477d7ad" x="310.012072" y="351.774613" style="fill: #ffffff; stroke: #ee3a2c"/>
     <use xlink:href="#mfe8477d7ad" x="171.483314" y="201.251877" style="fill: #ffffff; stroke: #ee3a2c"/>
     <use xlink:href="#mfe8477d7ad" x="263.777326" y="310.795324" style="fill: #ffffff; stroke: #ee3a2c"/>
     <use xlink:href="#mfe8477d7ad" x="153.222307" y="171.073708" style="fill: #ffffff; stroke: #ee3a2c"/>
     <use xlink:href="#mfe8477d7ad" x="171.508679" y="201.881689" style="fill: #ffffff; stroke: #ee3a2c"/>
     <use xlink:href="#mfe8477d7ad" x="93.221381" y="66.426776" style="fill: #ffffff; stroke: #ee3a2c"/>
     <use xlink:href="#mfe8477d7ad" x="314.864095" y="353.580707" style="fill: #ffffff; stroke: #ee3a2c"/>
     <use xlink:href="#mfe8477d7ad" x="263.775894" y="310.661115" style="fill: #ffffff; stroke: #ee3a2c"/>
     <use xlink:href="#mfe8477d7ad" x="194.49405" y="228.954867" style="fill: #ffffff; stroke: #ee3a2c"/>
     <use xlink:href="#mfe8477d7ad" x="83.957928" y="48.216479" style="fill: #ffffff; stroke: #ee3a2c"/>
     <use xlink:href="#mfe8477d7ad" x="134.754449" y="144.58248" style="fill: #ffffff; stroke: #ee3a2c"/>
     <use xlink:href="#mfe8477d7ad" x="106.978182" y="96.412897" style="fill: #ffffff; stroke: #ee3a2c"/>
     <use xlink:href="#mfe8477d7ad" x="116.095726" y="103.766477" style="fill: #ffffff; stroke: #ee3a2c"/>
     <use xlink:href="#mfe8477d7ad" x="125.32485" y="122.056761" style="fill: #ffffff; stroke: #ee3a2c"/>
     <use xlink:href="#mfe8477d7ad" x="79.256712" y="28.439265" style="fill: #ffffff; stroke: #ee3a2c"/>
     <use xlink:href="#mfe8477d7ad" x="79.293952" y="27.814192" style="fill: #ffffff; stroke: #ee3a2c"/>
     <use xlink:href="#mfe8477d7ad" x="116.09129" y="105.082858" style="fill: #ffffff; stroke: #ee3a2c"/>
     <use xlink:href="#mfe8477d7ad" x="79.220489" y="28.607865" style="fill: #ffffff; stroke: #ee3a2c"/>
     <use xlink:href="#mfe8477d7ad" x="83.363063" y="37.042572" style="fill: #ffffff; stroke: #ee3a2c"/>
     <use xlink:href="#mfe8477d7ad" x="315.1792" y="353.577268" style="fill: #ffffff; stroke: #ee3a2c"/>
     <use xlink:href="#mfe8477d7ad" x="102.495877" y="78.177912" style="fill: #ffffff; stroke: #ee3a2c"/>
     <use xlink:href="#mfe8477d7ad" x="263.78458" y="310.809377" style="fill: #ffffff; stroke: #ee3a2c"/>
     <use xlink:href="#mfe8477d7ad" x="79.638535" y="27.567177" style="fill: #ffffff; stroke: #ee3a2c"/>
     <use xlink:href="#mfe8477d7ad" x="217.63531" y="261.363966" style="fill: #ffffff; stroke: #ee3a2c"/>
     <use xlink:href="#mfe8477d7ad" x="148.374997" y="168.906446" style="fill: #ffffff; stroke: #ee3a2c"/>
     <use xlink:href="#mfe8477d7ad" x="134.770066" y="144.632291" style="fill: #ffffff; stroke: #ee3a2c"/>
     <use xlink:href="#mfe8477d7ad" x="171.444087" y="201.10216" style="fill: #ffffff; stroke: #ee3a2c"/>
     <use xlink:href="#mfe8477d7ad" x="194.503568" y="229.659589" style="fill: #ffffff; stroke: #ee3a2c"/>
     <use xlink:href="#mfe8477d7ad" x="82.47125" y="36.60134" style="fill: #ffffff; stroke: #ee3a2c"/>
     <use xlink:href="#mfe8477d7ad" x="79.261286" y="29.307362" style="fill: #ffffff; stroke: #ee3a2c"/>
     <use xlink:href="#mfe8477d7ad" x="83.355763" y="37.091379" style="fill: #ffffff; stroke: #ee3a2c"/>
     <use xlink:href="#mfe8477d7ad" x="79.252323" y="27.958926" style="fill: #ffffff; stroke: #ee3a2c"/>
     <use xlink:href="#mfe8477d7ad" x="120.60275" y="121.220207" style="fill: #ffffff; stroke: #ee3a2c"/>
     <use xlink:href="#mfe8477d7ad" x="217.576586" y="256.215076" style="fill: #ffffff; stroke: #ee3a2c"/>
     <use xlink:href="#mfe8477d7ad" x="93.422134" y="58.433273" style="fill: #ffffff; stroke: #ee3a2c"/>
     <use xlink:href="#mfe8477d7ad" x="79.729463" y="28.806956" style="fill: #ffffff; stroke: #ee3a2c"/>
     <use xlink:href="#mfe8477d7ad" x="116.104366" y="105.144822" style="fill: #ffffff; stroke: #ee3a2c"/>
     <use xlink:href="#mfe8477d7ad" x="82.448102" y="32.733746" style="fill: #ffffff; stroke: #ee3a2c"/>
     <use xlink:href="#mfe8477d7ad" x="171.466866" y="201.740951" style="fill: #ffffff; stroke: #ee3a2c"/>
     <use xlink:href="#mfe8477d7ad" x="148.405352" y="167.366951" style="fill: #ffffff; stroke: #ee3a2c"/>
     <use xlink:href="#mfe8477d7ad" x="116.131348" y="104.983308" style="fill: #ffffff; stroke: #ee3a2c"/>
     <use xlink:href="#mfe8477d7ad" x="79.740598" y="28.799404" style="fill: #ffffff; stroke: #ee3a2c"/>
     <use xlink:href="#mfe8477d7ad" x="194.471179" y="229.397996" style="fill: #ffffff; stroke: #ee3a2c"/>
     <use xlink:href="#mfe8477d7ad" x="79.293305" y="39.181006" style="fill: #ffffff; stroke: #ee3a2c"/>
     <use xlink:href="#mfe8477d7ad" x="148.394726" y="167.586334" style="fill: #ffffff; stroke: #ee3a2c"/>
     <use xlink:href="#mfe8477d7ad" x="148.384931" y="169.24992" style="fill: #ffffff; stroke: #ee3a2c"/>
    </g>
   </g>
   <g id="patch_3">
    <path d="M 79.238 367.72 
L 79.238 27 
" style="fill: none; stroke: #000000; stroke-width: 0.8; stroke-linejoin: miter; stroke-linecap: square"/>
   </g>
   <g id="patch_4">
    <path d="M 402.66 367.72 
L 402.66 27 
" style="fill: none; stroke: #000000; stroke-width: 0.8; stroke-linejoin: miter; stroke-linecap: square"/>
   </g>
   <g id="patch_5">
    <path d="M 79.238 367.72 
L 402.66 367.72 
" style="fill: none; stroke: #000000; stroke-width: 0.8; stroke-linejoin: miter; stroke-linecap: square"/>
   </g>
   <g id="patch_6">
    <path d="M 79.238 27 
L 402.66 27 
" style="fill: none; stroke: #000000; stroke-width: 0.8; stroke-linejoin: miter; stroke-linecap: square"/>
   </g>
   <g id="legend_1">
    <g id="patch_7">
     <path d="M 269.80125 105.60375 
L 394.26 105.60375 
Q 396.66 105.60375 396.66 103.20375 
L 396.66 35.4 
Q 396.66 33 394.26 33 
L 269.80125 33 
Q 267.40125 33 267.40125 35.4 
L 267.40125 103.20375 
Q 267.40125 105.60375 269.80125 105.60375 
z
" style="fill: #ffffff; opacity: 0.8; stroke: #cccccc; stroke-linejoin: miter"/>
    </g>
    <g id="line2d_19">
     <path d="M 272.20125 42.436875 
L 284.20125 42.436875 
L 296.20125 42.436875 
" style="fill: none; stroke: #fcbba1; stroke-opacity: 0.6; stroke-width: 6; stroke-linecap: square"/>
    </g>
    <g id="text_17">
     <!-- Pristine -->
     <g transform="translate(305.80125 46.636875) scale(0.12 -0.12)">
      <defs>
       <path id="CenturyGothic-50" d="M 556 4597 
L 1472 4597 
Q 2259 4597 2534 4528 
Q 2928 4431 3178 4129 
Q 3428 3828 3428 3372 
Q 3428 2913 3184 2614 
Q 2941 2316 2513 2213 
Q 2200 2138 1344 2138 
L 1016 2138 
L 1016 0 
L 556 0 
L 556 4597 
z
M 1016 4150 
L 1016 2588 
L 1794 2578 
Q 2266 2578 2484 2664 
Q 2703 2750 2828 2942 
Q 2953 3134 2953 3372 
Q 2953 3603 2828 3795 
Q 2703 3988 2498 4069 
Q 2294 4150 1828 4150 
L 1016 4150 
z
" transform="scale(0.015625)"/>
       <path id="CenturyGothic-69" d="M 641 4800 
Q 791 4800 897 4694 
Q 1003 4588 1003 4438 
Q 1003 4291 897 4184 
Q 791 4078 641 4078 
Q 494 4078 387 4184 
Q 281 4291 281 4438 
Q 281 4588 387 4694 
Q 494 4800 641 4800 
z
M 422 3400 
L 863 3400 
L 863 0 
L 422 0 
L 422 3400 
z
" transform="scale(0.015625)"/>
       <path id="CenturyGothic-73" d="M 2197 3028 
L 1916 2738 
Q 1566 3078 1231 3078 
Q 1019 3078 867 2937 
Q 716 2797 716 2609 
Q 716 2444 841 2294 
Q 966 2141 1366 1934 
Q 1853 1681 2028 1447 
Q 2200 1209 2200 913 
Q 2200 494 1906 203 
Q 1613 -88 1172 -88 
Q 878 -88 611 40 
Q 344 169 169 394 
L 444 706 
Q 778 328 1153 328 
Q 1416 328 1600 497 
Q 1784 666 1784 894 
Q 1784 1081 1663 1228 
Q 1541 1372 1113 1591 
Q 653 1828 488 2059 
Q 322 2291 322 2588 
Q 322 2975 586 3231 
Q 850 3488 1253 3488 
Q 1722 3488 2197 3028 
z
" transform="scale(0.015625)"/>
       <path id="CenturyGothic-6e" d="M 488 3400 
L 925 3400 
L 925 2791 
Q 1188 3141 1506 3314 
Q 1825 3488 2200 3488 
Q 2581 3488 2876 3294 
Q 3172 3100 3312 2772 
Q 3453 2444 3453 1750 
L 3453 0 
L 3019 0 
L 3019 1622 
Q 3019 2209 2969 2406 
Q 2891 2744 2675 2914 
Q 2459 3084 2113 3084 
Q 1716 3084 1402 2821 
Q 1088 2559 988 2172 
Q 925 1919 925 1247 
L 925 0 
L 488 0 
L 488 3400 
z
" transform="scale(0.015625)"/>
      </defs>
      <use xlink:href="#CenturyGothic-50"/>
      <use xlink:href="#CenturyGothic-72" x="59.179688"/>
      <use xlink:href="#CenturyGothic-69" x="89.257812"/>
      <use xlink:href="#CenturyGothic-73" x="109.277344"/>
      <use xlink:href="#CenturyGothic-74" x="148.095703"/>
      <use xlink:href="#CenturyGothic-69" x="181.982422"/>
      <use xlink:href="#CenturyGothic-6e" x="202.001953"/>
      <use xlink:href="#CenturyGothic-65" x="262.988281"/>
     </g>
    </g>
    <g id="line2d_20">
     <path d="M 272.20125 59.769375 
L 284.20125 59.769375 
L 296.20125 59.769375 
" style="fill: none; stroke: #000000; stroke-opacity: 0.6; stroke-width: 6; stroke-linecap: square"/>
    </g>
    <g id="text_18">
     <!-- 90% degraded -->
     <g transform="translate(305.80125 63.969375) scale(0.12 -0.12)">
      <defs>
       <path id="CenturyGothic-25" d="M 4316 4800 
L 966 -319 
L 553 -319 
L 3600 4344 
Q 3059 4213 2281 4213 
L 2113 4216 
Q 2306 3947 2306 3647 
Q 2306 3219 2007 2881 
Q 1709 2544 1216 2544 
Q 763 2544 453 2858 
Q 144 3172 144 3622 
Q 144 3922 284 4167 
Q 425 4413 684 4563 
Q 944 4713 1216 4713 
Q 1331 4713 1597 4656 
Q 2003 4569 2478 4569 
Q 2828 4569 3139 4614 
Q 3450 4659 3947 4800 
L 4316 4800 
z
M 1225 4316 
Q 941 4316 741 4114 
Q 541 3913 541 3628 
Q 541 3344 741 3144 
Q 941 2944 1225 2944 
Q 1509 2944 1711 3144 
Q 1913 3344 1913 3628 
Q 1913 3913 1711 4114 
Q 1509 4316 1225 4316 
z
M 3734 2028 
Q 4181 2028 4498 1711 
Q 4816 1394 4816 947 
Q 4816 500 4498 183 
Q 4181 -134 3734 -134 
Q 3288 -134 2970 183 
Q 2653 500 2653 947 
Q 2653 1394 2970 1711 
Q 3288 2028 3734 2028 
z
M 3734 1631 
Q 3450 1631 3250 1431 
Q 3050 1231 3050 947 
Q 3050 663 3250 463 
Q 3450 263 3734 263 
Q 4019 263 4220 463 
Q 4422 663 4422 947 
Q 4422 1231 4220 1431 
Q 4019 1631 3734 1631 
z
" transform="scale(0.015625)"/>
       <path id="CenturyGothic-64" d="M 3881 4713 
L 3881 0 
L 3450 0 
L 3450 584 
Q 3175 250 2833 81 
Q 2491 -88 2084 -88 
Q 1363 -88 852 435 
Q 341 959 341 1709 
Q 341 2444 856 2966 
Q 1372 3488 2097 3488 
Q 2516 3488 2855 3309 
Q 3194 3131 3450 2775 
L 3450 4713 
L 3881 4713 
z
M 2131 3066 
Q 1766 3066 1456 2886 
Q 1147 2706 964 2381 
Q 781 2056 781 1694 
Q 781 1334 965 1006 
Q 1150 678 1461 495 
Q 1772 313 2128 313 
Q 2488 313 2809 494 
Q 3131 675 3304 984 
Q 3478 1294 3478 1681 
Q 3478 2272 3089 2669 
Q 2700 3066 2131 3066 
z
" transform="scale(0.015625)"/>
       <path id="CenturyGothic-67" d="M 3416 3400 
L 3856 3400 
L 3856 691 
Q 3856 -25 3731 -356 
Q 3559 -825 3134 -1078 
Q 2709 -1331 2113 -1331 
Q 1675 -1331 1326 -1207 
Q 978 -1084 759 -876 
Q 541 -669 356 -269 
L 831 -269 
Q 1025 -606 1331 -768 
Q 1638 -931 2091 -931 
Q 2538 -931 2845 -764 
Q 3153 -597 3284 -344 
Q 3416 -91 3416 472 
L 3416 647 
Q 3169 334 2812 167 
Q 2456 0 2056 0 
Q 1588 0 1175 233 
Q 763 466 538 859 
Q 313 1253 313 1725 
Q 313 2197 547 2605 
Q 781 3013 1195 3250 
Q 1609 3488 2069 3488 
Q 2450 3488 2779 3330 
Q 3109 3172 3416 2809 
L 3416 3400 
z
M 2125 3066 
Q 1753 3066 1434 2886 
Q 1116 2706 934 2389 
Q 753 2072 753 1703 
Q 753 1144 1128 778 
Q 1503 413 2100 413 
Q 2703 413 3070 775 
Q 3438 1138 3438 1728 
Q 3438 2113 3269 2414 
Q 3100 2716 2790 2891 
Q 2481 3066 2125 3066 
z
" transform="scale(0.015625)"/>
      </defs>
      <use xlink:href="#CenturyGothic-39"/>
      <use xlink:href="#CenturyGothic-30" x="55.419922"/>
      <use xlink:href="#CenturyGothic-25" x="110.839844"/>
      <use xlink:href="#CenturyGothic-20" x="188.330078"/>
      <use xlink:href="#CenturyGothic-64" x="216.015625"/>
      <use xlink:href="#CenturyGothic-65" x="284.521484"/>
      <use xlink:href="#CenturyGothic-67" x="349.511719"/>
      <use xlink:href="#CenturyGothic-72" x="416.796875"/>
      <use xlink:href="#CenturyGothic-61" x="446.875"/>
      <use xlink:href="#CenturyGothic-64" x="515.185547"/>
      <use xlink:href="#CenturyGothic-65" x="583.691406"/>
      <use xlink:href="#CenturyGothic-64" x="648.681641"/>
     </g>
    </g>
    <g id="line2d_21">
     <path d="M 272.20125 77.101875 
L 284.20125 77.101875 
L 296.20125 77.101875 
" style="fill: none; stroke: #ee3a2c; stroke-opacity: 0.6; stroke-width: 6; stroke-linecap: square"/>
    </g>
    <g id="text_19">
     <!-- Interpolated -->
     <g transform="translate(305.80125 81.301875) scale(0.12 -0.12)">
      <defs>
       <path id="CenturyGothic-49" d="M 494 4597 
L 953 4597 
L 953 0 
L 494 0 
L 494 4597 
z
" transform="scale(0.015625)"/>
       <path id="CenturyGothic-6f" d="M 2097 3488 
Q 2881 3488 3397 2919 
Q 3866 2400 3866 1691 
Q 3866 978 3370 445 
Q 2875 -88 2097 -88 
Q 1316 -88 820 445 
Q 325 978 325 1691 
Q 325 2397 794 2916 
Q 1309 3488 2097 3488 
z
M 2097 3059 
Q 1553 3059 1162 2656 
Q 772 2253 772 1681 
Q 772 1313 950 994 
Q 1128 675 1431 501 
Q 1734 328 2097 328 
Q 2459 328 2762 501 
Q 3066 675 3244 994 
Q 3422 1313 3422 1681 
Q 3422 2253 3030 2656 
Q 2638 3059 2097 3059 
z
" transform="scale(0.015625)"/>
       <path id="CenturyGothic-6c" d="M 422 4713 
L 859 4713 
L 859 0 
L 422 0 
L 422 4713 
z
" transform="scale(0.015625)"/>
      </defs>
      <use xlink:href="#CenturyGothic-49"/>
      <use xlink:href="#CenturyGothic-6e" x="22.607422"/>
      <use xlink:href="#CenturyGothic-74" x="83.59375"/>
      <use xlink:href="#CenturyGothic-65" x="117.480469"/>
      <use xlink:href="#CenturyGothic-72" x="182.470703"/>
      <use xlink:href="#CenturyGothic-70" x="212.548828"/>
      <use xlink:href="#CenturyGothic-6f" x="280.761719"/>
      <use xlink:href="#CenturyGothic-6c" x="346.240234"/>
      <use xlink:href="#CenturyGothic-61" x="366.259766"/>
      <use xlink:href="#CenturyGothic-74" x="434.570312"/>
      <use xlink:href="#CenturyGothic-65" x="468.457031"/>
      <use xlink:href="#CenturyGothic-64" x="533.447266"/>
     </g>
    </g>
    <g id="line2d_22">
     <g>
      <use xlink:href="#mfe8477d7ad" x="284.20125" y="94.27125" style="fill: #ffffff; stroke: #ee3a2c"/>
     </g>
    </g>
    <g id="text_20">
     <!-- Test data -->
     <g transform="translate(305.80125 98.47125) scale(0.12 -0.12)">
      <use xlink:href="#CenturyGothic-54"/>
      <use xlink:href="#CenturyGothic-65" x="42.578125"/>
      <use xlink:href="#CenturyGothic-73" x="107.568359"/>
      <use xlink:href="#CenturyGothic-74" x="146.386719"/>
      <use xlink:href="#CenturyGothic-20" x="180.273438"/>
      <use xlink:href="#CenturyGothic-64" x="207.958984"/>
      <use xlink:href="#CenturyGothic-61" x="276.464844"/>
      <use xlink:href="#CenturyGothic-74" x="344.775391"/>
      <use xlink:href="#CenturyGothic-61" x="378.662109"/>
     </g>
    </g>
   </g>
  </g>
 </g>
 <defs>
  <clipPath id="p9dd72c9e26">
   <rect x="79.238" y="27" width="323.422" height="340.72"/>
  </clipPath>
 </defs>
</svg>
