<?xml version="1.0" encoding="utf-8" standalone="no"?>
<!DOCTYPE svg PUBLIC "-//W3C//DTD SVG 1.1//EN"
  "http://www.w3.org/Graphics/SVG/1.1/DTD/svg11.dtd">
<svg xmlns:xlink="http://www.w3.org/1999/xlink" width="576pt" height="288pt" viewBox="0 0 576 288" xmlns="http://www.w3.org/2000/svg" version="1.1">
 <metadata>
  <rdf:RDF xmlns:dc="http://purl.org/dc/elements/1.1/" xmlns:cc="http://creativecommons.org/ns#" xmlns:rdf="http://www.w3.org/1999/02/22-rdf-syntax-ns#">
   <cc:Work>
    <dc:type rdf:resource="http://purl.org/dc/dcmitype/StillImage"/>
    <dc:date>2024-06-29T16:53:31.556628</dc:date>
    <dc:format>image/svg+xml</dc:format>
    <dc:creator>
     <cc:Agent>
      <dc:title>Matplotlib v3.7.2, https://matplotlib.org/</dc:title>
     </cc:Agent>
    </dc:creator>
   </cc:Work>
  </rdf:RDF>
 </metadata>
 <defs>
  <style type="text/css">*{stroke-linejoin: round; stroke-linecap: butt}</style>
 </defs>
 <g id="figure_1">
  <g id="patch_1">
   <path d="M 0 288 
L 576 288 
L 576 0 
L 0 0 
z
" style="fill: #ffffff"/>
  </g>
  <g id="axes_1">
   <g id="patch_2">
    <path d="M 25.47 220.84 
L 546.66 220.84 
L 546.66 21.6 
L 25.47 21.6 
z
" style="fill: #ffffff"/>
   </g>
   <g id="PolyCollection_1">
    <defs>
     <path id="m70903154a5" d="M 33.555528 -67.17273 
L 33.555528 -67.16 
L 36.326287 -67.16 
L 39.097047 -67.16 
L 41.867807 -67.16 
L 44.638566 -67.16 
L 47.409326 -67.16 
L 50.180085 -67.16 
L 52.950845 -67.16 
L 55.721604 -67.16 
L 58.492364 -67.16 
L 61.263123 -67.16 
L 64.033883 -67.16 
L 66.804642 -67.16 
L 69.575402 -67.16 
L 72.346161 -67.16 
L 75.116921 -67.16 
L 77.88768 -67.16 
L 80.65844 -67.16 
L 83.429199 -67.16 
L 86.199959 -67.16 
L 88.970718 -67.16 
L 91.741478 -67.16 
L 94.512237 -67.16 
L 97.282997 -67.16 
L 100.053756 -67.16 
L 102.824516 -67.16 
L 105.595276 -67.16 
L 108.366035 -67.16 
L 111.136795 -67.16 
L 113.907554 -67.16 
L 116.678314 -67.16 
L 119.449073 -67.16 
L 122.219833 -67.16 
L 124.990592 -67.16 
L 127.761352 -67.16 
L 130.532111 -67.16 
L 133.302871 -67.16 
L 136.07363 -67.16 
L 138.84439 -67.16 
L 141.615149 -67.16 
L 144.385909 -67.16 
L 147.156668 -67.16 
L 149.927428 -67.16 
L 152.698187 -67.16 
L 155.468947 -67.16 
L 158.239706 -67.16 
L 161.010466 -67.16 
L 163.781225 -67.16 
L 166.551985 -67.16 
L 169.322745 -67.16 
L 172.093504 -67.16 
L 174.864264 -67.16 
L 177.635023 -67.16 
L 180.405783 -67.16 
L 183.176542 -67.16 
L 185.947302 -67.16 
L 188.718061 -67.16 
L 191.488821 -67.16 
L 194.25958 -67.16 
L 197.03034 -67.16 
L 199.801099 -67.16 
L 202.571859 -67.16 
L 205.342618 -67.16 
L 208.113378 -67.16 
L 210.884137 -67.16 
L 213.654897 -67.16 
L 216.425656 -67.16 
L 219.196416 -67.16 
L 221.967175 -67.16 
L 224.737935 -67.16 
L 227.508694 -67.16 
L 230.279454 -67.16 
L 233.050214 -67.16 
L 235.820973 -67.16 
L 238.591733 -67.16 
L 241.362492 -67.16 
L 244.133252 -67.16 
L 246.904011 -67.16 
L 249.674771 -67.16 
L 252.44553 -67.16 
L 255.21629 -67.16 
L 257.987049 -67.16 
L 260.757809 -67.16 
L 263.528568 -67.16 
L 266.299328 -67.16 
L 269.070087 -67.16 
L 271.840847 -67.16 
L 274.611606 -67.16 
L 277.382366 -67.16 
L 280.153125 -67.16 
L 282.923885 -67.16 
L 285.694644 -67.16 
L 288.465404 -67.16 
L 291.236164 -67.16 
L 294.006923 -67.16 
L 296.777683 -67.16 
L 299.548442 -67.16 
L 302.319202 -67.16 
L 305.089961 -67.16 
L 307.860721 -67.16 
L 310.63148 -67.16 
L 313.40224 -67.16 
L 316.172999 -67.16 
L 318.943759 -67.16 
L 321.714518 -67.16 
L 324.485278 -67.16 
L 327.256037 -67.16 
L 330.026797 -67.16 
L 332.797556 -67.16 
L 335.568316 -67.16 
L 338.339075 -67.16 
L 341.109835 -67.16 
L 343.880594 -67.16 
L 346.651354 -67.16 
L 349.422113 -67.16 
L 352.192873 -67.16 
L 354.963633 -67.16 
L 357.734392 -67.16 
L 360.505152 -67.16 
L 363.275911 -67.16 
L 366.046671 -67.16 
L 368.81743 -67.16 
L 371.58819 -67.16 
L 374.358949 -67.16 
L 377.129709 -67.16 
L 379.900468 -67.16 
L 382.671228 -67.16 
L 385.441987 -67.16 
L 388.212747 -67.16 
L 390.983506 -67.16 
L 393.754266 -67.16 
L 396.525025 -67.16 
L 399.295785 -67.16 
L 402.066544 -67.16 
L 404.837304 -67.16 
L 407.608063 -67.16 
L 410.378823 -67.16 
L 413.149582 -67.16 
L 415.920342 -67.16 
L 418.691102 -67.16 
L 421.461861 -67.16 
L 424.232621 -67.16 
L 427.00338 -67.16 
L 429.77414 -67.16 
L 432.544899 -67.16 
L 435.315659 -67.16 
L 438.086418 -67.16 
L 440.857178 -67.16 
L 443.627937 -67.16 
L 446.398697 -67.16 
L 449.169456 -67.16 
L 451.940216 -67.16 
L 454.710975 -67.16 
L 457.481735 -67.16 
L 460.252494 -67.16 
L 463.023254 -67.16 
L 465.794013 -67.16 
L 468.564773 -67.16 
L 471.335532 -67.16 
L 474.106292 -67.16 
L 476.877052 -67.16 
L 479.647811 -67.16 
L 482.418571 -67.16 
L 485.18933 -67.16 
L 487.96009 -67.16 
L 490.730849 -67.16 
L 493.501609 -67.16 
L 496.272368 -67.16 
L 499.043128 -67.16 
L 501.813887 -67.16 
L 504.584647 -67.16 
L 507.355406 -67.16 
L 510.126166 -67.16 
L 512.896925 -67.16 
L 515.667685 -67.16 
L 518.438444 -67.16 
L 521.209204 -67.16 
L 523.979963 -67.16 
L 526.750723 -67.16 
L 529.521482 -67.16 
L 532.292242 -67.16 
L 535.063001 -67.16 
L 537.833761 -67.16 
L 540.604521 -67.16 
L 543.37528 -67.16 
L 546.14604 -67.16 
L 548.916799 -67.16 
L 551.687559 -67.16 
L 554.458318 -67.16 
L 557.229078 -67.16 
L 559.999837 -67.16 
L 562.770597 -67.16 
L 565.541356 -67.16 
L 568.312116 -67.16 
L 571.082875 -67.16 
L 573.853635 -67.16 
L 576.624394 -67.16 
L 579.395154 -67.16 
L 582.165913 -67.16 
L 584.936673 -67.16 
L 584.936673 -67.17015 
L 584.936673 -67.17015 
L 582.165913 -67.175382 
L 579.395154 -67.182884 
L 576.624394 -67.193432 
L 573.853635 -67.20797 
L 571.082875 -67.227623 
L 568.312116 -67.253682 
L 565.541356 -67.287589 
L 562.770597 -67.330903 
L 559.999837 -67.38525 
L 557.229078 -67.45227 
L 554.458318 -67.53356 
L 551.687559 -67.630617 
L 548.916799 -67.744797 
L 546.14604 -67.877276 
L 543.37528 -68.029039 
L 540.604521 -68.20087 
L 537.833761 -68.393348 
L 535.063001 -68.606849 
L 532.292242 -68.841523 
L 529.521482 -69.097264 
L 526.750723 -69.373666 
L 523.979963 -69.669959 
L 521.209204 -69.984967 
L 518.438444 -70.31707 
L 515.667685 -70.664224 
L 512.896925 -71.024012 
L 510.126166 -71.393761 
L 507.355406 -71.770689 
L 504.584647 -72.152074 
L 501.813887 -72.535402 
L 499.043128 -72.918477 
L 496.272368 -73.299455 
L 493.501609 -73.676796 
L 490.730849 -74.049152 
L 487.96009 -74.415205 
L 485.18933 -74.77352 
L 482.418571 -75.122444 
L 479.647811 -75.460113 
L 476.877052 -75.784587 
L 474.106292 -76.094131 
L 471.335532 -76.387613 
L 468.564773 -76.66497 
L 465.794013 -76.927692 
L 463.023254 -77.17923 
L 460.252494 -77.425286 
L 457.481735 -77.673915 
L 454.710975 -77.935431 
L 451.940216 -78.222108 
L 449.169456 -78.547697 
L 446.398697 -78.926807 
L 443.627937 -79.374186 
L 440.857178 -79.903953 
L 438.086418 -80.528814 
L 435.315659 -81.2593 
L 432.544899 -82.103036 
L 429.77414 -83.06409 
L 427.00338 -84.1424 
L 424.232621 -85.333348 
L 421.461861 -86.627497 
L 418.691102 -88.010581 
L 415.920342 -89.46378 
L 413.149582 -90.964348 
L 410.378823 -92.486618 
L 407.608063 -94.003374 
L 404.837304 -95.487572 
L 402.066544 -96.914283 
L 399.295785 -98.262754 
L 396.525025 -99.518391 
L 393.754266 -100.674476 
L 390.983506 -101.733407 
L 388.212747 -102.707284 
L 385.441987 -103.617712 
L 382.671228 -104.494737 
L 379.900468 -105.374962 
L 377.129709 -106.298957 
L 374.358949 -107.308181 
L 371.58819 -108.441728 
L 368.81743 -109.733254 
L 366.046671 -111.208435 
L 363.275911 -112.883303 
L 360.505152 -114.763679 
L 357.734392 -116.845812 
L 354.963633 -119.118164 
L 352.192873 -121.564114 
L 349.422113 -124.165207 
L 346.651354 -126.904495 
L 343.880594 -129.769466 
L 341.109835 -132.754106 
L 338.339075 -135.859784 
L 335.568316 -139.094783 
L 332.797556 -142.47254 
L 330.026797 -146.008821 
L 327.256037 -149.718248 
L 324.485278 -153.610655 
L 321.714518 -157.687794 
L 318.943759 -161.940847 
L 316.172999 -166.349069 
L 313.40224 -170.87974 
L 310.63148 -175.489435 
L 307.860721 -180.126435 
L 305.089961 -184.734019 
L 302.319202 -189.254253 
L 299.548442 -193.631891 
L 296.777683 -197.817991 
L 294.006923 -201.772894 
L 291.236164 -205.468297 
L 288.465404 -208.888214 
L 285.694644 -212.028754 
L 282.923885 -214.896729 
L 280.153125 -217.507261 
L 277.382366 -219.880633 
L 274.611606 -222.038769 
L 271.840847 -224.001767 
L 269.070087 -225.78493 
L 266.299328 -227.396697 
L 263.528568 -228.837738 
L 260.757809 -230.101356 
L 257.987049 -231.175068 
L 255.21629 -232.043115 
L 252.44553 -232.689454 
L 249.674771 -233.100697 
L 246.904011 -233.268508 
L 244.133252 -233.191031 
L 241.362492 -232.873114 
L 238.591733 -232.32532 
L 235.820973 -231.561903 
L 233.050214 -230.598141 
L 230.279454 -229.447479 
L 227.508694 -228.118968 
L 224.737935 -226.615426 
L 221.967175 -224.932578 
L 219.196416 -223.059296 
L 216.425656 -220.978888 
L 213.654897 -218.671227 
L 210.884137 -216.115454 
L 208.113378 -213.292913 
L 205.342618 -210.190021 
L 202.571859 -206.800771 
L 199.801099 -203.128646 
L 197.03034 -199.187754 
L 194.25958 -195.003058 
L 191.488821 -190.609641 
L 188.718061 -186.050994 
L 185.947302 -181.376412 
L 183.176542 -176.637689 
L 180.405783 -171.885377 
L 177.635023 -167.165006 
L 174.864264 -162.51368 
L 172.093504 -157.95749 
L 169.322745 -153.510109 
L 166.551985 -149.172805 
L 163.781225 -144.935918 
L 161.010466 -140.78163 
L 158.239706 -136.687695 
L 155.468947 -132.631608 
L 152.698187 -128.594661 
L 149.927428 -124.565345 
L 147.156668 -120.541676 
L 144.385909 -116.532172 
L 141.615149 -112.555459 
L 138.84439 -108.638626 
L 136.07363 -104.814655 
L 133.302871 -101.119312 
L 130.532111 -97.587934 
L 127.761352 -94.252498 
L 124.990592 -91.139271 
L 122.219833 -88.267217 
L 119.449073 -85.647236 
L 116.678314 -83.28217 
L 113.907554 -81.16747 
L 111.136795 -79.292337 
L 108.366035 -77.64116 
L 105.595276 -76.195061 
L 102.824516 -74.933394 
L 100.053756 -73.83509 
L 97.282997 -72.879759 
L 94.512237 -72.048508 
L 91.741478 -71.32448 
L 88.970718 -70.693103 
L 86.199959 -70.142122 
L 83.429199 -69.661437 
L 80.65844 -69.242813 
L 77.88768 -68.879523 
L 75.116921 -68.565976 
L 72.346161 -68.29737 
L 69.575402 -68.069398 
L 66.804642 -67.878038 
L 64.033883 -67.719413 
L 61.263123 -67.589733 
L 58.492364 -67.485291 
L 55.721604 -67.402498 
L 52.950845 -67.337951 
L 50.180085 -67.288487 
L 47.409326 -67.251249 
L 44.638566 -67.223718 
L 41.867807 -67.203736 
L 39.097047 -67.189502 
L 36.326287 -67.179553 
L 33.555528 -67.17273 
z
" style="stroke: #1f77b4"/>
    </defs>
    <g clip-path="url(#p8fa2cb431d)">
     <use xlink:href="#m70903154a5" x="0" y="288" style="fill: #1f77b4; fill-opacity: 0.25; stroke: #1f77b4"/>
    </g>
   </g>
   <g id="matplotlib.axis_1">
    <g id="xtick_1">
     <g id="line2d_1">
      <defs>
       <path id="ma672778f9c" d="M 0 0 
L 0 3.5 
" style="stroke: #000000; stroke-width: 0.8"/>
      </defs>
      <g>
       <use xlink:href="#ma672778f9c" x="25.47" y="220.84" style="stroke: #000000; stroke-width: 0.8"/>
      </g>
     </g>
     <g id="text_1">
      <!-- 6 -->
      <g transform="translate(21.590469 238.149687) scale(0.14 -0.14)">
       <defs>
        <path id="CenturyGothic-36" d="M 2347 4713 
L 2725 4466 
L 1484 2584 
Q 1734 2669 1953 2669 
Q 2500 2669 2881 2273 
Q 3263 1878 3263 1300 
Q 3263 903 3078 583 
Q 2894 263 2555 73 
Q 2216 -116 1825 -116 
Q 1447 -116 1123 67 
Q 800 250 615 581 
Q 431 913 431 1291 
Q 431 1572 545 1883 
Q 659 2194 953 2631 
L 2347 4713 
z
M 1844 2266 
Q 1444 2266 1161 1983 
Q 878 1700 878 1297 
Q 878 897 1161 614 
Q 1444 331 1844 331 
Q 2244 331 2526 614 
Q 2809 897 2809 1297 
Q 2809 1700 2526 1983 
Q 2244 2266 1844 2266 
z
" transform="scale(0.015625)"/>
       </defs>
       <use xlink:href="#CenturyGothic-36"/>
      </g>
     </g>
    </g>
    <g id="xtick_2">
     <g id="line2d_2">
      <g>
       <use xlink:href="#ma672778f9c" x="99.925714" y="220.84" style="stroke: #000000; stroke-width: 0.8"/>
      </g>
     </g>
     <g id="text_2">
      <!-- 7 -->
      <g transform="translate(96.046183 238.149687) scale(0.14 -0.14)">
       <defs>
        <path id="CenturyGothic-37" d="M 459 4597 
L 3375 4597 
L 916 -116 
L 538 78 
L 2663 4163 
L 459 4163 
L 459 4597 
z
" transform="scale(0.015625)"/>
       </defs>
       <use xlink:href="#CenturyGothic-37"/>
      </g>
     </g>
    </g>
    <g id="xtick_3">
     <g id="line2d_3">
      <g>
       <use xlink:href="#ma672778f9c" x="174.381429" y="220.84" style="stroke: #000000; stroke-width: 0.8"/>
      </g>
     </g>
     <g id="text_3">
      <!-- 8 -->
      <g transform="translate(170.501897 238.149687) scale(0.14 -0.14)">
       <defs>
        <path id="CenturyGothic-38" d="M 2459 2522 
Q 2925 2291 3126 1994 
Q 3328 1697 3328 1319 
Q 3328 788 2981 381 
Q 2556 -116 1766 -116 
Q 1003 -116 609 320 
Q 216 756 216 1281 
Q 216 1666 422 1973 
Q 628 2281 1109 2522 
Q 772 2697 603 2956 
Q 434 3216 434 3513 
Q 434 3813 614 4098 
Q 794 4384 1111 4548 
Q 1428 4713 1797 4713 
Q 2156 4713 2462 4547 
Q 2769 4381 2942 4097 
Q 3116 3813 3116 3500 
Q 3116 3188 2952 2944 
Q 2788 2700 2459 2522 
z
M 1775 4266 
Q 1397 4266 1148 4042 
Q 900 3819 900 3509 
Q 900 3203 1167 2954 
Q 1434 2706 1791 2706 
Q 2019 2706 2222 2818 
Q 2425 2931 2539 3126 
Q 2653 3322 2653 3519 
Q 2653 3797 2428 4031 
Q 2203 4266 1775 4266 
z
M 1797 2291 
Q 1322 2291 1000 1983 
Q 678 1675 678 1266 
Q 678 1013 815 788 
Q 953 563 1200 441 
Q 1447 319 1772 319 
Q 2275 319 2572 616 
Q 2869 913 2869 1309 
Q 2869 1694 2555 1992 
Q 2241 2291 1797 2291 
z
" transform="scale(0.015625)"/>
       </defs>
       <use xlink:href="#CenturyGothic-38"/>
      </g>
     </g>
    </g>
    <g id="xtick_4">
     <g id="line2d_4">
      <g>
       <use xlink:href="#ma672778f9c" x="248.837143" y="220.84" style="stroke: #000000; stroke-width: 0.8"/>
      </g>
     </g>
     <g id="text_4">
      <!-- 9 -->
      <g transform="translate(244.957612 238.149687) scale(0.14 -0.14)">
       <defs>
        <path id="CenturyGothic-39" d="M 1228 -116 
L 850 128 
L 2091 2009 
Q 1841 1928 1622 1928 
Q 1075 1928 694 2323 
Q 313 2719 313 3297 
Q 313 3694 497 4012 
Q 681 4331 1020 4522 
Q 1359 4713 1747 4713 
Q 2128 4713 2451 4528 
Q 2775 4344 2959 4012 
Q 3144 3681 3144 3306 
Q 3144 3022 3030 2711 
Q 2916 2400 2622 1963 
L 1228 -116 
z
M 1728 2331 
Q 2131 2331 2414 2614 
Q 2697 2897 2697 3297 
Q 2697 3697 2414 3980 
Q 2131 4263 1728 4263 
Q 1328 4263 1045 3980 
Q 763 3697 763 3297 
Q 763 2897 1045 2614 
Q 1328 2331 1728 2331 
z
" transform="scale(0.015625)"/>
       </defs>
       <use xlink:href="#CenturyGothic-39"/>
      </g>
     </g>
    </g>
    <g id="xtick_5">
     <g id="line2d_5">
      <g>
       <use xlink:href="#ma672778f9c" x="323.292857" y="220.84" style="stroke: #000000; stroke-width: 0.8"/>
      </g>
     </g>
     <g id="text_5">
      <!-- 10 -->
      <g transform="translate(315.533795 238.149687) scale(0.14 -0.14)">
       <defs>
        <path id="CenturyGothic-31" d="M 1184 4597 
L 2088 4597 
L 2088 0 
L 1631 0 
L 1631 4147 
L 909 4147 
L 1184 4597 
z
" transform="scale(0.015625)"/>
        <path id="CenturyGothic-30" d="M 203 2297 
Q 203 3206 398 3703 
Q 594 4200 950 4456 
Q 1306 4713 1747 4713 
Q 2194 4713 2556 4455 
Q 2919 4197 3130 3681 
Q 3341 3166 3341 2297 
Q 3341 1431 3133 918 
Q 2925 406 2559 145 
Q 2194 -116 1747 -116 
Q 1306 -116 953 137 
Q 600 391 401 892 
Q 203 1394 203 2297 
z
M 638 2288 
Q 638 1509 777 1111 
Q 916 713 1187 506 
Q 1459 300 1763 300 
Q 2069 300 2334 501 
Q 2600 703 2738 1106 
Q 2909 1597 2909 2288 
Q 2909 2981 2756 3423 
Q 2603 3866 2333 4070 
Q 2063 4275 1763 4275 
Q 1456 4275 1187 4070 
Q 919 3866 778 3467 
Q 638 3069 638 2288 
z
" transform="scale(0.015625)"/>
       </defs>
       <use xlink:href="#CenturyGothic-31"/>
       <use xlink:href="#CenturyGothic-30" x="55.419922"/>
      </g>
     </g>
    </g>
    <g id="xtick_6">
     <g id="line2d_6">
      <g>
       <use xlink:href="#ma672778f9c" x="397.748571" y="220.84" style="stroke: #000000; stroke-width: 0.8"/>
      </g>
     </g>
     <g id="text_6">
      <!-- 11 -->
      <g transform="translate(389.989509 238.149687) scale(0.14 -0.14)">
       <use xlink:href="#CenturyGothic-31"/>
       <use xlink:href="#CenturyGothic-31" x="55.419922"/>
      </g>
     </g>
    </g>
    <g id="xtick_7">
     <g id="line2d_7">
      <g>
       <use xlink:href="#ma672778f9c" x="472.204286" y="220.84" style="stroke: #000000; stroke-width: 0.8"/>
      </g>
     </g>
     <g id="text_7">
      <!-- 12 -->
      <g transform="translate(464.445223 238.149687) scale(0.14 -0.14)">
       <defs>
        <path id="CenturyGothic-32" d="M 741 3156 
L 300 3156 
Q 319 3838 755 4275 
Q 1191 4713 1831 4713 
Q 2466 4713 2858 4303 
Q 3250 3894 3250 3338 
Q 3250 2947 3062 2605 
Q 2875 2263 2334 1678 
L 1191 444 
L 3313 444 
L 3313 0 
L 191 0 
L 1947 1897 
Q 2481 2469 2642 2745 
Q 2803 3022 2803 3328 
Q 2803 3716 2514 3995 
Q 2225 4275 1806 4275 
Q 1366 4275 1073 3981 
Q 781 3688 741 3156 
z
" transform="scale(0.015625)"/>
       </defs>
       <use xlink:href="#CenturyGothic-31"/>
       <use xlink:href="#CenturyGothic-32" x="55.419922"/>
      </g>
     </g>
    </g>
    <g id="xtick_8">
     <g id="line2d_8">
      <g>
       <use xlink:href="#ma672778f9c" x="546.66" y="220.84" style="stroke: #000000; stroke-width: 0.8"/>
      </g>
     </g>
     <g id="text_8">
      <!-- 13 -->
      <g transform="translate(538.900938 238.149687) scale(0.14 -0.14)">
       <defs>
        <path id="CenturyGothic-33" d="M 847 3531 
L 378 3531 
Q 506 4100 868 4406 
Q 1231 4713 1725 4713 
Q 2084 4713 2395 4548 
Q 2706 4384 2876 4106 
Q 3047 3828 3047 3525 
Q 3047 2931 2456 2584 
Q 2788 2450 3000 2191 
Q 3300 1825 3300 1372 
Q 3300 981 3094 626 
Q 2888 272 2531 78 
Q 2175 -116 1734 -116 
Q 1141 -116 744 226 
Q 347 569 225 1231 
L 675 1231 
Q 794 784 1016 584 
Q 1300 331 1741 331 
Q 2241 331 2544 631 
Q 2847 931 2847 1334 
Q 2847 1603 2695 1837 
Q 2544 2072 2289 2190 
Q 2034 2309 1500 2338 
L 1500 2759 
Q 1816 2759 2075 2870 
Q 2334 2981 2451 3153 
Q 2569 3325 2569 3528 
Q 2569 3828 2330 4047 
Q 2091 4266 1725 4266 
Q 1428 4266 1212 4098 
Q 997 3931 847 3531 
z
" transform="scale(0.015625)"/>
       </defs>
       <use xlink:href="#CenturyGothic-31"/>
       <use xlink:href="#CenturyGothic-33" x="55.419922"/>
      </g>
     </g>
    </g>
    <g id="text_9">
     <!-- (T$\mathrm{_{REBCO}}$ - T$\mathrm{_{Coldmass}}$) rescaled to 36 mW [K] -->
     <g transform="translate(112.545 258.370937) scale(0.18 -0.18)">
      <defs>
       <path id="CenturyGothic-28" d="M 1469 4800 
L 1975 4800 
Q 1669 4172 1484 3334 
Q 1300 2497 1300 1606 
Q 1300 781 1439 15 
Q 1578 -750 1822 -1331 
L 1341 -1331 
Q 1109 -775 971 -22 
Q 834 731 834 1547 
Q 834 2425 996 3258 
Q 1159 4091 1469 4800 
z
" transform="scale(0.015625)"/>
       <path id="CenturyGothic-54" d="M 103 4150 
L 103 4597 
L 2625 4597 
L 2625 4150 
L 1600 4150 
L 1600 0 
L 1131 0 
L 1131 4150 
L 103 4150 
z
" transform="scale(0.015625)"/>
       <path id="DejaVuSans-52" d="M 2841 2188 
Q 3044 2119 3236 1894 
Q 3428 1669 3622 1275 
L 4263 0 
L 3584 0 
L 2988 1197 
Q 2756 1666 2539 1819 
Q 2322 1972 1947 1972 
L 1259 1972 
L 1259 0 
L 628 0 
L 628 4666 
L 2053 4666 
Q 2853 4666 3247 4331 
Q 3641 3997 3641 3322 
Q 3641 2881 3436 2590 
Q 3231 2300 2841 2188 
z
M 1259 4147 
L 1259 2491 
L 2053 2491 
Q 2509 2491 2742 2702 
Q 2975 2913 2975 3322 
Q 2975 3731 2742 3939 
Q 2509 4147 2053 4147 
L 1259 4147 
z
" transform="scale(0.015625)"/>
       <path id="DejaVuSans-45" d="M 628 4666 
L 3578 4666 
L 3578 4134 
L 1259 4134 
L 1259 2753 
L 3481 2753 
L 3481 2222 
L 1259 2222 
L 1259 531 
L 3634 531 
L 3634 0 
L 628 0 
L 628 4666 
z
" transform="scale(0.015625)"/>
       <path id="DejaVuSans-42" d="M 1259 2228 
L 1259 519 
L 2272 519 
Q 2781 519 3026 730 
Q 3272 941 3272 1375 
Q 3272 1813 3026 2020 
Q 2781 2228 2272 2228 
L 1259 2228 
z
M 1259 4147 
L 1259 2741 
L 2194 2741 
Q 2656 2741 2882 2914 
Q 3109 3088 3109 3444 
Q 3109 3797 2882 3972 
Q 2656 4147 2194 4147 
L 1259 4147 
z
M 628 4666 
L 2241 4666 
Q 2963 4666 3353 4366 
Q 3744 4066 3744 3513 
Q 3744 3084 3544 2831 
Q 3344 2578 2956 2516 
Q 3422 2416 3680 2098 
Q 3938 1781 3938 1306 
Q 3938 681 3513 340 
Q 3088 0 2303 0 
L 628 0 
L 628 4666 
z
" transform="scale(0.015625)"/>
       <path id="DejaVuSans-43" d="M 4122 4306 
L 4122 3641 
Q 3803 3938 3442 4084 
Q 3081 4231 2675 4231 
Q 1875 4231 1450 3742 
Q 1025 3253 1025 2328 
Q 1025 1406 1450 917 
Q 1875 428 2675 428 
Q 3081 428 3442 575 
Q 3803 722 4122 1019 
L 4122 359 
Q 3791 134 3420 21 
Q 3050 -91 2638 -91 
Q 1578 -91 968 557 
Q 359 1206 359 2328 
Q 359 3453 968 4101 
Q 1578 4750 2638 4750 
Q 3056 4750 3426 4639 
Q 3797 4528 4122 4306 
z
" transform="scale(0.015625)"/>
       <path id="DejaVuSans-4f" d="M 2522 4238 
Q 1834 4238 1429 3725 
Q 1025 3213 1025 2328 
Q 1025 1447 1429 934 
Q 1834 422 2522 422 
Q 3209 422 3611 934 
Q 4013 1447 4013 2328 
Q 4013 3213 3611 3725 
Q 3209 4238 2522 4238 
z
M 2522 4750 
Q 3503 4750 4090 4092 
Q 4678 3434 4678 2328 
Q 4678 1225 4090 567 
Q 3503 -91 2522 -91 
Q 1538 -91 948 565 
Q 359 1222 359 2328 
Q 359 3434 948 4092 
Q 1538 4750 2522 4750 
z
" transform="scale(0.015625)"/>
       <path id="CenturyGothic-20" transform="scale(0.015625)"/>
       <path id="CenturyGothic-2d" d="M 203 1919 
L 1922 1919 
L 1922 1538 
L 203 1538 
L 203 1919 
z
" transform="scale(0.015625)"/>
       <path id="DejaVuSans-6f" d="M 1959 3097 
Q 1497 3097 1228 2736 
Q 959 2375 959 1747 
Q 959 1119 1226 758 
Q 1494 397 1959 397 
Q 2419 397 2687 759 
Q 2956 1122 2956 1747 
Q 2956 2369 2687 2733 
Q 2419 3097 1959 3097 
z
M 1959 3584 
Q 2709 3584 3137 3096 
Q 3566 2609 3566 1747 
Q 3566 888 3137 398 
Q 2709 -91 1959 -91 
Q 1206 -91 779 398 
Q 353 888 353 1747 
Q 353 2609 779 3096 
Q 1206 3584 1959 3584 
z
" transform="scale(0.015625)"/>
       <path id="DejaVuSans-6c" d="M 603 4863 
L 1178 4863 
L 1178 0 
L 603 0 
L 603 4863 
z
" transform="scale(0.015625)"/>
       <path id="DejaVuSans-64" d="M 2906 2969 
L 2906 4863 
L 3481 4863 
L 3481 0 
L 2906 0 
L 2906 525 
Q 2725 213 2448 61 
Q 2172 -91 1784 -91 
Q 1150 -91 751 415 
Q 353 922 353 1747 
Q 353 2572 751 3078 
Q 1150 3584 1784 3584 
Q 2172 3584 2448 3432 
Q 2725 3281 2906 2969 
z
M 947 1747 
Q 947 1113 1208 752 
Q 1469 391 1925 391 
Q 2381 391 2643 752 
Q 2906 1113 2906 1747 
Q 2906 2381 2643 2742 
Q 2381 3103 1925 3103 
Q 1469 3103 1208 2742 
Q 947 2381 947 1747 
z
" transform="scale(0.015625)"/>
       <path id="DejaVuSans-6d" d="M 3328 2828 
Q 3544 3216 3844 3400 
Q 4144 3584 4550 3584 
Q 5097 3584 5394 3201 
Q 5691 2819 5691 2113 
L 5691 0 
L 5113 0 
L 5113 2094 
Q 5113 2597 4934 2840 
Q 4756 3084 4391 3084 
Q 3944 3084 3684 2787 
Q 3425 2491 3425 1978 
L 3425 0 
L 2847 0 
L 2847 2094 
Q 2847 2600 2669 2842 
Q 2491 3084 2119 3084 
Q 1678 3084 1418 2786 
Q 1159 2488 1159 1978 
L 1159 0 
L 581 0 
L 581 3500 
L 1159 3500 
L 1159 2956 
Q 1356 3278 1631 3431 
Q 1906 3584 2284 3584 
Q 2666 3584 2933 3390 
Q 3200 3197 3328 2828 
z
" transform="scale(0.015625)"/>
       <path id="DejaVuSans-61" d="M 2194 1759 
Q 1497 1759 1228 1600 
Q 959 1441 959 1056 
Q 959 750 1161 570 
Q 1363 391 1709 391 
Q 2188 391 2477 730 
Q 2766 1069 2766 1631 
L 2766 1759 
L 2194 1759 
z
M 3341 1997 
L 3341 0 
L 2766 0 
L 2766 531 
Q 2569 213 2275 61 
Q 1981 -91 1556 -91 
Q 1019 -91 701 211 
Q 384 513 384 1019 
Q 384 1609 779 1909 
Q 1175 2209 1959 2209 
L 2766 2209 
L 2766 2266 
Q 2766 2663 2505 2880 
Q 2244 3097 1772 3097 
Q 1472 3097 1187 3025 
Q 903 2953 641 2809 
L 641 3341 
Q 956 3463 1253 3523 
Q 1550 3584 1831 3584 
Q 2591 3584 2966 3190 
Q 3341 2797 3341 1997 
z
" transform="scale(0.015625)"/>
       <path id="DejaVuSans-73" d="M 2834 3397 
L 2834 2853 
Q 2591 2978 2328 3040 
Q 2066 3103 1784 3103 
Q 1356 3103 1142 2972 
Q 928 2841 928 2578 
Q 928 2378 1081 2264 
Q 1234 2150 1697 2047 
L 1894 2003 
Q 2506 1872 2764 1633 
Q 3022 1394 3022 966 
Q 3022 478 2636 193 
Q 2250 -91 1575 -91 
Q 1294 -91 989 -36 
Q 684 19 347 128 
L 347 722 
Q 666 556 975 473 
Q 1284 391 1588 391 
Q 1994 391 2212 530 
Q 2431 669 2431 922 
Q 2431 1156 2273 1281 
Q 2116 1406 1581 1522 
L 1381 1569 
Q 847 1681 609 1914 
Q 372 2147 372 2553 
Q 372 3047 722 3315 
Q 1072 3584 1716 3584 
Q 2034 3584 2315 3537 
Q 2597 3491 2834 3397 
z
" transform="scale(0.015625)"/>
       <path id="CenturyGothic-29" d="M 894 -1331 
L 388 -1331 
Q 697 -703 880 134 
Q 1063 972 1063 1863 
Q 1063 2688 923 3453 
Q 784 4219 541 4800 
L 1022 4800 
Q 1256 4244 1392 3489 
Q 1528 2734 1528 1919 
Q 1528 1044 1365 211 
Q 1203 -622 894 -1331 
z
" transform="scale(0.015625)"/>
       <path id="CenturyGothic-72" d="M 322 3400 
L 769 3400 
L 769 2903 
Q 969 3197 1191 3342 
Q 1413 3488 1653 3488 
Q 1834 3488 2041 3372 
L 1813 3003 
Q 1675 3063 1581 3063 
Q 1363 3063 1159 2883 
Q 956 2703 850 2325 
Q 769 2034 769 1150 
L 769 0 
L 322 0 
L 322 3400 
z
" transform="scale(0.015625)"/>
       <path id="CenturyGothic-65" d="M 3350 1128 
L 3719 934 
Q 3538 578 3300 359 
Q 3063 141 2766 26 
Q 2469 -88 2094 -88 
Q 1263 -88 794 457 
Q 325 1003 325 1691 
Q 325 2338 722 2844 
Q 1225 3488 2069 3488 
Q 2938 3488 3456 2828 
Q 3825 2363 3831 1666 
L 775 1666 
Q 788 1072 1153 692 
Q 1519 313 2056 313 
Q 2316 313 2561 403 
Q 2806 494 2978 644 
Q 3150 794 3350 1128 
z
M 3350 2044 
Q 3263 2394 3095 2603 
Q 2928 2813 2653 2941 
Q 2378 3069 2075 3069 
Q 1575 3069 1216 2747 
Q 953 2513 819 2044 
L 3350 2044 
z
" transform="scale(0.015625)"/>
       <path id="CenturyGothic-73" d="M 2197 3028 
L 1916 2738 
Q 1566 3078 1231 3078 
Q 1019 3078 867 2937 
Q 716 2797 716 2609 
Q 716 2444 841 2294 
Q 966 2141 1366 1934 
Q 1853 1681 2028 1447 
Q 2200 1209 2200 913 
Q 2200 494 1906 203 
Q 1613 -88 1172 -88 
Q 878 -88 611 40 
Q 344 169 169 394 
L 444 706 
Q 778 328 1153 328 
Q 1416 328 1600 497 
Q 1784 666 1784 894 
Q 1784 1081 1663 1228 
Q 1541 1372 1113 1591 
Q 653 1828 488 2059 
Q 322 2291 322 2588 
Q 322 2975 586 3231 
Q 850 3488 1253 3488 
Q 1722 3488 2197 3028 
z
" transform="scale(0.015625)"/>
       <path id="CenturyGothic-63" d="M 3788 2694 
L 3441 2478 
Q 2991 3075 2213 3075 
Q 1591 3075 1180 2675 
Q 769 2275 769 1703 
Q 769 1331 958 1003 
Q 1147 675 1476 494 
Q 1806 313 2216 313 
Q 2966 313 3441 909 
L 3788 681 
Q 3544 316 3133 114 
Q 2722 -88 2197 -88 
Q 1391 -88 859 425 
Q 328 938 328 1672 
Q 328 2166 576 2589 
Q 825 3013 1259 3250 
Q 1694 3488 2231 3488 
Q 2569 3488 2883 3384 
Q 3197 3281 3415 3115 
Q 3634 2950 3788 2694 
z
" transform="scale(0.015625)"/>
       <path id="CenturyGothic-61" d="M 3875 3400 
L 3875 0 
L 3444 0 
L 3444 584 
Q 3169 250 2826 81 
Q 2484 -88 2078 -88 
Q 1356 -88 845 435 
Q 334 959 334 1709 
Q 334 2444 850 2966 
Q 1366 3488 2091 3488 
Q 2509 3488 2848 3309 
Q 3188 3131 3444 2775 
L 3444 3400 
L 3875 3400 
z
M 2125 3066 
Q 1759 3066 1450 2886 
Q 1141 2706 958 2381 
Q 775 2056 775 1694 
Q 775 1334 959 1006 
Q 1144 678 1455 495 
Q 1766 313 2122 313 
Q 2481 313 2803 494 
Q 3125 675 3298 984 
Q 3472 1294 3472 1681 
Q 3472 2272 3083 2669 
Q 2694 3066 2125 3066 
z
" transform="scale(0.015625)"/>
       <path id="CenturyGothic-6c" d="M 422 4713 
L 859 4713 
L 859 0 
L 422 0 
L 422 4713 
z
" transform="scale(0.015625)"/>
       <path id="CenturyGothic-64" d="M 3881 4713 
L 3881 0 
L 3450 0 
L 3450 584 
Q 3175 250 2833 81 
Q 2491 -88 2084 -88 
Q 1363 -88 852 435 
Q 341 959 341 1709 
Q 341 2444 856 2966 
Q 1372 3488 2097 3488 
Q 2516 3488 2855 3309 
Q 3194 3131 3450 2775 
L 3450 4713 
L 3881 4713 
z
M 2131 3066 
Q 1766 3066 1456 2886 
Q 1147 2706 964 2381 
Q 781 2056 781 1694 
Q 781 1334 965 1006 
Q 1150 678 1461 495 
Q 1772 313 2128 313 
Q 2488 313 2809 494 
Q 3131 675 3304 984 
Q 3478 1294 3478 1681 
Q 3478 2272 3089 2669 
Q 2700 3066 2131 3066 
z
" transform="scale(0.015625)"/>
       <path id="CenturyGothic-74" d="M 869 4663 
L 1309 4663 
L 1309 3400 
L 2003 3400 
L 2003 3025 
L 1309 3025 
L 1309 0 
L 869 0 
L 869 3025 
L 272 3025 
L 272 3400 
L 869 3400 
L 869 4663 
z
" transform="scale(0.015625)"/>
       <path id="CenturyGothic-6f" d="M 2097 3488 
Q 2881 3488 3397 2919 
Q 3866 2400 3866 1691 
Q 3866 978 3370 445 
Q 2875 -88 2097 -88 
Q 1316 -88 820 445 
Q 325 978 325 1691 
Q 325 2397 794 2916 
Q 1309 3488 2097 3488 
z
M 2097 3059 
Q 1553 3059 1162 2656 
Q 772 2253 772 1681 
Q 772 1313 950 994 
Q 1128 675 1431 501 
Q 1734 328 2097 328 
Q 2459 328 2762 501 
Q 3066 675 3244 994 
Q 3422 1313 3422 1681 
Q 3422 2253 3030 2656 
Q 2638 3059 2097 3059 
z
" transform="scale(0.015625)"/>
       <path id="CenturyGothic-6d" d="M 484 3400 
L 919 3400 
L 919 2813 
Q 1147 3138 1388 3288 
Q 1719 3488 2084 3488 
Q 2331 3488 2553 3391 
Q 2775 3294 2915 3133 
Q 3056 2972 3159 2672 
Q 3378 3072 3706 3280 
Q 4034 3488 4413 3488 
Q 4766 3488 5036 3309 
Q 5306 3131 5437 2812 
Q 5569 2494 5569 1856 
L 5569 0 
L 5122 0 
L 5122 1856 
Q 5122 2403 5044 2608 
Q 4966 2813 4777 2938 
Q 4588 3063 4325 3063 
Q 4006 3063 3742 2875 
Q 3478 2688 3356 2375 
Q 3234 2063 3234 1331 
L 3234 0 
L 2800 0 
L 2800 1741 
Q 2800 2356 2723 2576 
Q 2647 2797 2456 2930 
Q 2266 3063 2003 3063 
Q 1700 3063 1436 2880 
Q 1172 2697 1045 2387 
Q 919 2078 919 1441 
L 919 0 
L 484 0 
L 484 3400 
z
" transform="scale(0.015625)"/>
       <path id="CenturyGothic-57" d="M 300 4597 
L 772 4597 
L 1706 1284 
L 3025 4597 
L 3119 4597 
L 4422 1284 
L 5375 4597 
L 5844 4597 
L 4525 0 
L 4438 0 
L 3075 3478 
L 1684 0 
L 1597 0 
L 300 4597 
z
" transform="scale(0.015625)"/>
       <path id="CenturyGothic-5b" d="M 906 4713 
L 1956 4713 
L 1956 4269 
L 1344 4269 
L 1344 -816 
L 1956 -816 
L 1956 -1244 
L 906 -1244 
L 906 4713 
z
" transform="scale(0.015625)"/>
       <path id="CenturyGothic-4b" d="M 559 4597 
L 1028 4597 
L 1028 2872 
L 2863 4597 
L 3484 4597 
L 1275 2534 
L 3656 0 
L 3047 0 
L 1028 2144 
L 1028 0 
L 559 0 
L 559 4597 
z
" transform="scale(0.015625)"/>
       <path id="CenturyGothic-5d" d="M 1341 -1244 
L 291 -1244 
L 291 -800 
L 900 -800 
L 900 4284 
L 291 4284 
L 291 4713 
L 1341 4713 
L 1341 -1244 
z
" transform="scale(0.015625)"/>
      </defs>
      <use xlink:href="#CenturyGothic-28"/>
      <use xlink:href="#CenturyGothic-54" transform="translate(36.914062 0)"/>
      <use xlink:href="#DejaVuSans-52" transform="translate(80.449219 -16.40625) scale(0.7)"/>
      <use xlink:href="#DejaVuSans-45" transform="translate(129.086914 -16.40625) scale(0.7)"/>
      <use xlink:href="#DejaVuSans-42" transform="translate(173.31543 -16.40625) scale(0.7)"/>
      <use xlink:href="#DejaVuSans-43" transform="translate(221.337891 -16.40625) scale(0.7)"/>
      <use xlink:href="#DejaVuSans-4f" transform="translate(270.214844 -16.40625) scale(0.7)"/>
      <use xlink:href="#CenturyGothic-20" transform="translate(328.046875 0)"/>
      <use xlink:href="#CenturyGothic-2d" transform="translate(355.732422 0)"/>
      <use xlink:href="#CenturyGothic-20" transform="translate(388.935547 0)"/>
      <use xlink:href="#CenturyGothic-54" transform="translate(416.621094 0)"/>
      <use xlink:href="#DejaVuSans-43" transform="translate(460.15625 -16.40625) scale(0.7)"/>
      <use xlink:href="#DejaVuSans-6f" transform="translate(509.033203 -16.40625) scale(0.7)"/>
      <use xlink:href="#DejaVuSans-6c" transform="translate(551.860352 -16.40625) scale(0.7)"/>
      <use xlink:href="#DejaVuSans-64" transform="translate(571.308594 -16.40625) scale(0.7)"/>
      <use xlink:href="#DejaVuSans-6d" transform="translate(615.742188 -16.40625) scale(0.7)"/>
      <use xlink:href="#DejaVuSans-61" transform="translate(683.930664 -16.40625) scale(0.7)"/>
      <use xlink:href="#DejaVuSans-73" transform="translate(726.826172 -16.40625) scale(0.7)"/>
      <use xlink:href="#DejaVuSans-73" transform="translate(763.295898 -16.40625) scale(0.7)"/>
      <use xlink:href="#CenturyGothic-29" transform="translate(802.5 0)"/>
      <use xlink:href="#CenturyGothic-20" transform="translate(839.414062 0)"/>
      <use xlink:href="#CenturyGothic-72" transform="translate(867.099609 0)"/>
      <use xlink:href="#CenturyGothic-65" transform="translate(897.177734 0)"/>
      <use xlink:href="#CenturyGothic-73" transform="translate(962.167969 0)"/>
      <use xlink:href="#CenturyGothic-63" transform="translate(1000.986328 0)"/>
      <use xlink:href="#CenturyGothic-61" transform="translate(1065.683594 0)"/>
      <use xlink:href="#CenturyGothic-6c" transform="translate(1133.994141 0)"/>
      <use xlink:href="#CenturyGothic-65" transform="translate(1154.013672 0)"/>
      <use xlink:href="#CenturyGothic-64" transform="translate(1219.003906 0)"/>
      <use xlink:href="#CenturyGothic-20" transform="translate(1287.509766 0)"/>
      <use xlink:href="#CenturyGothic-74" transform="translate(1315.195312 0)"/>
      <use xlink:href="#CenturyGothic-6f" transform="translate(1349.082031 0)"/>
      <use xlink:href="#CenturyGothic-20" transform="translate(1414.560547 0)"/>
      <use xlink:href="#CenturyGothic-33" transform="translate(1442.246094 0)"/>
      <use xlink:href="#CenturyGothic-36" transform="translate(1497.666016 0)"/>
      <use xlink:href="#CenturyGothic-20" transform="translate(1553.085938 0)"/>
      <use xlink:href="#CenturyGothic-6d" transform="translate(1580.771484 0)"/>
      <use xlink:href="#CenturyGothic-57" transform="translate(1674.570312 0)"/>
      <use xlink:href="#CenturyGothic-20" transform="translate(1770.566406 0)"/>
      <use xlink:href="#CenturyGothic-5b" transform="translate(1798.251953 0)"/>
      <use xlink:href="#CenturyGothic-4b" transform="translate(1833.359375 0)"/>
      <use xlink:href="#CenturyGothic-5d" transform="translate(1892.441406 0)"/>
     </g>
    </g>
   </g>
   <g id="matplotlib.axis_2"/>
   <g id="patch_3">
    <path d="M 25.47 220.84 
L 546.66 220.84 
" style="fill: none; stroke: #000000; stroke-width: 0.8; stroke-linejoin: miter; stroke-linecap: square"/>
   </g>
  </g>
 </g>
 <defs>
  <clipPath id="p8fa2cb431d">
   <rect x="25.47" y="21.6" width="521.19" height="199.24"/>
  </clipPath>
 </defs>
</svg>
