<?xml version="1.0" encoding="utf-8" standalone="no"?>
<!DOCTYPE svg PUBLIC "-//W3C//DTD SVG 1.1//EN"
  "http://www.w3.org/Graphics/SVG/1.1/DTD/svg11.dtd">
<svg xmlns:xlink="http://www.w3.org/1999/xlink" width="576pt" height="288pt" viewBox="0 0 576 288" xmlns="http://www.w3.org/2000/svg" version="1.1">
 <metadata>
  <rdf:RDF xmlns:dc="http://purl.org/dc/elements/1.1/" xmlns:cc="http://creativecommons.org/ns#" xmlns:rdf="http://www.w3.org/1999/02/22-rdf-syntax-ns#">
   <cc:Work>
    <dc:type rdf:resource="http://purl.org/dc/dcmitype/StillImage"/>
    <dc:date>2024-06-29T17:29:18.859348</dc:date>
    <dc:format>image/svg+xml</dc:format>
    <dc:creator>
     <cc:Agent>
      <dc:title>Matplotlib v3.7.2, https://matplotlib.org/</dc:title>
     </cc:Agent>
    </dc:creator>
   </cc:Work>
  </rdf:RDF>
 </metadata>
 <defs>
  <style type="text/css">*{stroke-linejoin: round; stroke-linecap: butt}</style>
 </defs>
 <g id="figure_1">
  <g id="patch_1">
   <path d="M 0 288 
L 576 288 
L 576 0 
L 0 0 
L 0 288 
z
" style="fill: none"/>
  </g>
  <g id="axes_1">
   <g id="patch_2">
    <path d="M 29.34 204.3925 
L 538.92 204.3925 
L 538.92 21.6 
L 29.34 21.6 
L 29.34 204.3925 
z
" style="fill: none"/>
   </g>
   <g id="PolyCollection_1">
    <defs>
     <path id="m3e66c3c6d7" d="M 37.245415 -83.619179 
L 37.245415 -83.6075 
L 39.954453 -83.6075 
L 42.663492 -83.6075 
L 45.37253 -83.6075 
L 48.081568 -83.6075 
L 50.790606 -83.6075 
L 53.499645 -83.6075 
L 56.208683 -83.6075 
L 58.917721 -83.6075 
L 61.626759 -83.6075 
L 64.335797 -83.6075 
L 67.044836 -83.6075 
L 69.753874 -83.6075 
L 72.462912 -83.6075 
L 75.17195 -83.6075 
L 77.880989 -83.6075 
L 80.590027 -83.6075 
L 83.299065 -83.6075 
L 86.008103 -83.6075 
L 88.717142 -83.6075 
L 91.42618 -83.6075 
L 94.135218 -83.6075 
L 96.844256 -83.6075 
L 99.553295 -83.6075 
L 102.262333 -83.6075 
L 104.971371 -83.6075 
L 107.680409 -83.6075 
L 110.389447 -83.6075 
L 113.098486 -83.6075 
L 115.807524 -83.6075 
L 118.516562 -83.6075 
L 121.2256 -83.6075 
L 123.934639 -83.6075 
L 126.643677 -83.6075 
L 129.352715 -83.6075 
L 132.061753 -83.6075 
L 134.770792 -83.6075 
L 137.47983 -83.6075 
L 140.188868 -83.6075 
L 142.897906 -83.6075 
L 145.606945 -83.6075 
L 148.315983 -83.6075 
L 151.025021 -83.6075 
L 153.734059 -83.6075 
L 156.443097 -83.6075 
L 159.152136 -83.6075 
L 161.861174 -83.6075 
L 164.570212 -83.6075 
L 167.27925 -83.6075 
L 169.988289 -83.6075 
L 172.697327 -83.6075 
L 175.406365 -83.6075 
L 178.115403 -83.6075 
L 180.824442 -83.6075 
L 183.53348 -83.6075 
L 186.242518 -83.6075 
L 188.951556 -83.6075 
L 191.660595 -83.6075 
L 194.369633 -83.6075 
L 197.078671 -83.6075 
L 199.787709 -83.6075 
L 202.496747 -83.6075 
L 205.205786 -83.6075 
L 207.914824 -83.6075 
L 210.623862 -83.6075 
L 213.3329 -83.6075 
L 216.041939 -83.6075 
L 218.750977 -83.6075 
L 221.460015 -83.6075 
L 224.169053 -83.6075 
L 226.878092 -83.6075 
L 229.58713 -83.6075 
L 232.296168 -83.6075 
L 235.005206 -83.6075 
L 237.714245 -83.6075 
L 240.423283 -83.6075 
L 243.132321 -83.6075 
L 245.841359 -83.6075 
L 248.550397 -83.6075 
L 251.259436 -83.6075 
L 253.968474 -83.6075 
L 256.677512 -83.6075 
L 259.38655 -83.6075 
L 262.095589 -83.6075 
L 264.804627 -83.6075 
L 267.513665 -83.6075 
L 270.222703 -83.6075 
L 272.931742 -83.6075 
L 275.64078 -83.6075 
L 278.349818 -83.6075 
L 281.058856 -83.6075 
L 283.767894 -83.6075 
L 286.476933 -83.6075 
L 289.185971 -83.6075 
L 291.895009 -83.6075 
L 294.604047 -83.6075 
L 297.313086 -83.6075 
L 300.022124 -83.6075 
L 302.731162 -83.6075 
L 305.4402 -83.6075 
L 308.149239 -83.6075 
L 310.858277 -83.6075 
L 313.567315 -83.6075 
L 316.276353 -83.6075 
L 318.985392 -83.6075 
L 321.69443 -83.6075 
L 324.403468 -83.6075 
L 327.112506 -83.6075 
L 329.821544 -83.6075 
L 332.530583 -83.6075 
L 335.239621 -83.6075 
L 337.948659 -83.6075 
L 340.657697 -83.6075 
L 343.366736 -83.6075 
L 346.075774 -83.6075 
L 348.784812 -83.6075 
L 351.49385 -83.6075 
L 354.202889 -83.6075 
L 356.911927 -83.6075 
L 359.620965 -83.6075 
L 362.330003 -83.6075 
L 365.039042 -83.6075 
L 367.74808 -83.6075 
L 370.457118 -83.6075 
L 373.166156 -83.6075 
L 375.875194 -83.6075 
L 378.584233 -83.6075 
L 381.293271 -83.6075 
L 384.002309 -83.6075 
L 386.711347 -83.6075 
L 389.420386 -83.6075 
L 392.129424 -83.6075 
L 394.838462 -83.6075 
L 397.5475 -83.6075 
L 400.256539 -83.6075 
L 402.965577 -83.6075 
L 405.674615 -83.6075 
L 408.383653 -83.6075 
L 411.092692 -83.6075 
L 413.80173 -83.6075 
L 416.510768 -83.6075 
L 419.219806 -83.6075 
L 421.928844 -83.6075 
L 424.637883 -83.6075 
L 427.346921 -83.6075 
L 430.055959 -83.6075 
L 432.764997 -83.6075 
L 435.474036 -83.6075 
L 438.183074 -83.6075 
L 440.892112 -83.6075 
L 443.60115 -83.6075 
L 446.310189 -83.6075 
L 449.019227 -83.6075 
L 451.728265 -83.6075 
L 454.437303 -83.6075 
L 457.146341 -83.6075 
L 459.85538 -83.6075 
L 462.564418 -83.6075 
L 465.273456 -83.6075 
L 467.982494 -83.6075 
L 470.691533 -83.6075 
L 473.400571 -83.6075 
L 476.109609 -83.6075 
L 478.818647 -83.6075 
L 481.527686 -83.6075 
L 484.236724 -83.6075 
L 486.945762 -83.6075 
L 489.6548 -83.6075 
L 492.363839 -83.6075 
L 495.072877 -83.6075 
L 497.781915 -83.6075 
L 500.490953 -83.6075 
L 503.199991 -83.6075 
L 505.90903 -83.6075 
L 508.618068 -83.6075 
L 511.327106 -83.6075 
L 514.036144 -83.6075 
L 516.745183 -83.6075 
L 519.454221 -83.6075 
L 522.163259 -83.6075 
L 524.872297 -83.6075 
L 527.581336 -83.6075 
L 530.290374 -83.6075 
L 532.999412 -83.6075 
L 535.70845 -83.6075 
L 538.417489 -83.6075 
L 541.126527 -83.6075 
L 543.835565 -83.6075 
L 546.544603 -83.6075 
L 549.253641 -83.6075 
L 551.96268 -83.6075 
L 554.671718 -83.6075 
L 557.380756 -83.6075 
L 560.089794 -83.6075 
L 562.798833 -83.6075 
L 565.507871 -83.6075 
L 568.216909 -83.6075 
L 570.925947 -83.6075 
L 573.634986 -83.6075 
L 576.344024 -83.6075 
L 576.344024 -83.616812 
L 576.344024 -83.616812 
L 573.634986 -83.621612 
L 570.925947 -83.628495 
L 568.216909 -83.638172 
L 565.507871 -83.65151 
L 562.798833 -83.66954 
L 560.089794 -83.693448 
L 557.380756 -83.724557 
L 554.671718 -83.764295 
L 551.96268 -83.814155 
L 549.253641 -83.875643 
L 546.544603 -83.950222 
L 543.835565 -84.039267 
L 541.126527 -84.144021 
L 538.417489 -84.265564 
L 535.70845 -84.404799 
L 532.999412 -84.562445 
L 530.290374 -84.739034 
L 527.581336 -84.93491 
L 524.872297 -85.150211 
L 522.163259 -85.384841 
L 519.454221 -85.638425 
L 516.745183 -85.910259 
L 514.036144 -86.199262 
L 511.327106 -86.50395 
L 508.618068 -86.822446 
L 505.90903 -87.152534 
L 503.199991 -87.491759 
L 500.490953 -87.837572 
L 497.781915 -88.187472 
L 495.072877 -88.539156 
L 492.363839 -88.890608 
L 489.6548 -89.240136 
L 486.945762 -89.586327 
L 484.236724 -89.927944 
L 481.527686 -90.263779 
L 478.818647 -90.592515 
L 476.109609 -90.912635 
L 473.400571 -91.222429 
L 470.691533 -91.520117 
L 467.982494 -91.804108 
L 465.273456 -92.073362 
L 462.564418 -92.327823 
L 459.85538 -92.568857 
L 457.146341 -92.799631 
L 454.437303 -93.025374 
L 451.728265 -93.253478 
L 449.019227 -93.493406 
L 446.310189 -93.756418 
L 443.60115 -94.055129 
L 440.892112 -94.402943 
L 438.183074 -94.81339 
L 435.474036 -95.299424 
L 432.764997 -95.872703 
L 430.055959 -96.542886 
L 427.346921 -97.31697 
L 424.637883 -98.198688 
L 421.928844 -99.187983 
L 419.219806 -100.280616 
L 416.510768 -101.467932 
L 413.80173 -102.736841 
L 411.092692 -104.070076 
L 408.383653 -105.446771 
L 405.674615 -106.843375 
L 402.965577 -108.234922 
L 400.256539 -109.596597 
L 397.5475 -110.905531 
L 394.838462 -112.142684 
L 392.129424 -113.294667 
L 389.420386 -114.355316 
L 386.711347 -115.326831 
L 384.002309 -116.220314 
L 381.293271 -117.055585 
L 378.584233 -117.86021 
L 375.875194 -118.667771 
L 373.166156 -119.515489 
L 370.457118 -120.4414 
L 367.74808 -121.481372 
L 365.039042 -122.666281 
L 362.330003 -124.019684 
L 359.620965 -125.55629 
L 356.911927 -127.281438 
L 354.202889 -129.191689 
L 351.49385 -131.276456 
L 348.784812 -133.520489 
L 346.075774 -135.906859 
L 343.366736 -138.420016 
L 340.657697 -141.04848 
L 337.948659 -143.786734 
L 335.239621 -146.636035 
L 332.530583 -149.603981 
L 329.821544 -152.7029 
L 327.112506 -155.947257 
L 324.403468 -159.350466 
L 321.69443 -162.92155 
L 318.985392 -166.662117 
L 316.276353 -170.564075 
L 313.567315 -174.608393 
L 310.858277 -178.765052 
L 308.149239 -182.994211 
L 305.4402 -187.248421 
L 302.731162 -191.475643 
L 300.022124 -195.622726 
L 297.313086 -199.638985 
L 294.604047 -203.479517 
L 291.895009 -207.107939 
L 289.185971 -210.498282 
L 286.476933 -213.635881 
L 283.767894 -216.517165 
L 281.058856 -219.148386 
L 278.349818 -221.543415 
L 275.64078 -223.720862 
L 272.931742 -225.700841 
L 270.222703 -227.501792 
L 267.513665 -229.137753 
L 264.804627 -230.616466 
L 262.095589 -231.938548 
L 259.38655 -233.097853 
L 256.677512 -234.082928 
L 253.968474 -234.879317 
L 251.259436 -235.4723 
L 248.550397 -235.849594 
L 245.841359 -236.003552 
L 243.132321 -235.932471 
L 240.423283 -235.640799 
L 237.714245 -235.138225 
L 235.005206 -234.437829 
L 232.296168 -233.553627 
L 229.58713 -232.497953 
L 226.878092 -231.279113 
L 224.169053 -229.899691 
L 221.460015 -228.355763 
L 218.750977 -226.637123 
L 216.041939 -224.728455 
L 213.3329 -222.611295 
L 210.623862 -220.266504 
L 207.914824 -217.676967 
L 205.205786 -214.830221 
L 202.496747 -211.720758 
L 199.787709 -208.351772 
L 197.078671 -204.736205 
L 194.369633 -200.896961 
L 191.660595 -196.866226 
L 188.951556 -192.6839 
L 186.242518 -188.395211 
L 183.53348 -184.047675 
L 180.824442 -179.687672 
L 178.115403 -175.356973 
L 175.406365 -171.08962 
L 172.697327 -166.909549 
L 169.988289 -162.829304 
L 167.27925 -158.85005 
L 164.570212 -154.962923 
L 161.861174 -151.151576 
L 159.152136 -147.395601 
L 156.443097 -143.674348 
L 153.734059 -139.970656 
L 151.025021 -136.273966 
L 148.315983 -132.582455 
L 145.606945 -128.90394 
L 142.897906 -125.255509 
L 140.188868 -121.662016 
L 137.47983 -118.153719 
L 134.770792 -114.763431 
L 132.061753 -111.523572 
L 129.352715 -108.46348 
L 126.643677 -105.607253 
L 123.934639 -102.972291 
L 121.2256 -100.568593 
L 118.516562 -98.398766 
L 115.807524 -96.458636 
L 113.098486 -94.738298 
L 110.389447 -93.223428 
L 107.680409 -91.896706 
L 104.971371 -90.739191 
L 102.262333 -89.731553 
L 99.553295 -88.855086 
L 96.844256 -88.092456 
L 94.135218 -87.428197 
L 91.42618 -86.848941 
L 88.717142 -86.343445 
L 86.008103 -85.902441 
L 83.299065 -85.518374 
L 80.590027 -85.185074 
L 77.880989 -84.897411 
L 75.17195 -84.650978 
L 72.462912 -84.441826 
L 69.753874 -84.266263 
L 67.044836 -84.120733 
L 64.335797 -84.001758 
L 61.626759 -83.905937 
L 58.917721 -83.82998 
L 56.208683 -83.770761 
L 53.499645 -83.72538 
L 50.790606 -83.691216 
L 48.081568 -83.665958 
L 45.37253 -83.647625 
L 42.663492 -83.634567 
L 39.954453 -83.625439 
L 37.245415 -83.619179 
z
" style="stroke: #808080; stroke-width: 2"/>
    </defs>
    <g clip-path="url(#pe568750186)">
     <use xlink:href="#m3e66c3c6d7" x="0" y="288" style="fill: #808080; fill-opacity: 0.25; stroke: #808080; stroke-width: 2"/>
    </g>
   </g>
   <g id="matplotlib.axis_1">
    <g id="xtick_1">
     <g id="line2d_1">
      <defs>
       <path id="m77b9d784dc" d="M 0 0 
L 0 3.5 
" style="stroke: #000000; stroke-width: 0.8"/>
      </defs>
      <g>
       <use xlink:href="#m77b9d784dc" x="29.34" y="204.3925" style="stroke: #000000; stroke-width: 0.8"/>
      </g>
     </g>
     <g id="text_1">
      <!-- 6 -->
      <g style="fill: #808080" transform="translate(21.580937 232.011875) scale(0.28 -0.28)">
       <defs>
        <path id="CenturyGothic-36" d="M 2347 4713 
L 2725 4466 
L 1484 2584 
Q 1734 2669 1953 2669 
Q 2500 2669 2881 2273 
Q 3263 1878 3263 1300 
Q 3263 903 3078 583 
Q 2894 263 2555 73 
Q 2216 -116 1825 -116 
Q 1447 -116 1123 67 
Q 800 250 615 581 
Q 431 913 431 1291 
Q 431 1572 545 1883 
Q 659 2194 953 2631 
L 2347 4713 
z
M 1844 2266 
Q 1444 2266 1161 1983 
Q 878 1700 878 1297 
Q 878 897 1161 614 
Q 1444 331 1844 331 
Q 2244 331 2526 614 
Q 2809 897 2809 1297 
Q 2809 1700 2526 1983 
Q 2244 2266 1844 2266 
z
" transform="scale(0.015625)"/>
       </defs>
       <use xlink:href="#CenturyGothic-36"/>
      </g>
     </g>
    </g>
    <g id="xtick_2">
     <g id="line2d_2">
      <g>
       <use xlink:href="#m77b9d784dc" x="102.137143" y="204.3925" style="stroke: #000000; stroke-width: 0.8"/>
      </g>
     </g>
     <g id="text_2">
      <!-- 7 -->
      <g style="fill: #808080" transform="translate(94.37808 232.011875) scale(0.28 -0.28)">
       <defs>
        <path id="CenturyGothic-37" d="M 459 4597 
L 3375 4597 
L 916 -116 
L 538 78 
L 2663 4163 
L 459 4163 
L 459 4597 
z
" transform="scale(0.015625)"/>
       </defs>
       <use xlink:href="#CenturyGothic-37"/>
      </g>
     </g>
    </g>
    <g id="xtick_3">
     <g id="line2d_3">
      <g>
       <use xlink:href="#m77b9d784dc" x="174.934286" y="204.3925" style="stroke: #000000; stroke-width: 0.8"/>
      </g>
     </g>
     <g id="text_3">
      <!-- 8 -->
      <g style="fill: #808080" transform="translate(167.175223 232.011875) scale(0.28 -0.28)">
       <defs>
        <path id="CenturyGothic-38" d="M 2459 2522 
Q 2925 2291 3126 1994 
Q 3328 1697 3328 1319 
Q 3328 788 2981 381 
Q 2556 -116 1766 -116 
Q 1003 -116 609 320 
Q 216 756 216 1281 
Q 216 1666 422 1973 
Q 628 2281 1109 2522 
Q 772 2697 603 2956 
Q 434 3216 434 3513 
Q 434 3813 614 4098 
Q 794 4384 1111 4548 
Q 1428 4713 1797 4713 
Q 2156 4713 2462 4547 
Q 2769 4381 2942 4097 
Q 3116 3813 3116 3500 
Q 3116 3188 2952 2944 
Q 2788 2700 2459 2522 
z
M 1775 4266 
Q 1397 4266 1148 4042 
Q 900 3819 900 3509 
Q 900 3203 1167 2954 
Q 1434 2706 1791 2706 
Q 2019 2706 2222 2818 
Q 2425 2931 2539 3126 
Q 2653 3322 2653 3519 
Q 2653 3797 2428 4031 
Q 2203 4266 1775 4266 
z
M 1797 2291 
Q 1322 2291 1000 1983 
Q 678 1675 678 1266 
Q 678 1013 815 788 
Q 953 563 1200 441 
Q 1447 319 1772 319 
Q 2275 319 2572 616 
Q 2869 913 2869 1309 
Q 2869 1694 2555 1992 
Q 2241 2291 1797 2291 
z
" transform="scale(0.015625)"/>
       </defs>
       <use xlink:href="#CenturyGothic-38"/>
      </g>
     </g>
    </g>
    <g id="xtick_4">
     <g id="line2d_4">
      <g>
       <use xlink:href="#m77b9d784dc" x="247.731429" y="204.3925" style="stroke: #000000; stroke-width: 0.8"/>
      </g>
     </g>
     <g id="text_4">
      <!-- 9 -->
      <g style="fill: #808080" transform="translate(239.972366 232.011875) scale(0.28 -0.28)">
       <defs>
        <path id="CenturyGothic-39" d="M 1228 -116 
L 850 128 
L 2091 2009 
Q 1841 1928 1622 1928 
Q 1075 1928 694 2323 
Q 313 2719 313 3297 
Q 313 3694 497 4012 
Q 681 4331 1020 4522 
Q 1359 4713 1747 4713 
Q 2128 4713 2451 4528 
Q 2775 4344 2959 4012 
Q 3144 3681 3144 3306 
Q 3144 3022 3030 2711 
Q 2916 2400 2622 1963 
L 1228 -116 
z
M 1728 2331 
Q 2131 2331 2414 2614 
Q 2697 2897 2697 3297 
Q 2697 3697 2414 3980 
Q 2131 4263 1728 4263 
Q 1328 4263 1045 3980 
Q 763 3697 763 3297 
Q 763 2897 1045 2614 
Q 1328 2331 1728 2331 
z
" transform="scale(0.015625)"/>
       </defs>
       <use xlink:href="#CenturyGothic-39"/>
      </g>
     </g>
    </g>
    <g id="xtick_5">
     <g id="line2d_5">
      <g>
       <use xlink:href="#m77b9d784dc" x="320.528571" y="204.3925" style="stroke: #000000; stroke-width: 0.8"/>
      </g>
     </g>
     <g id="text_5">
      <!-- 10 -->
      <g style="fill: #808080" transform="translate(305.010446 232.011875) scale(0.28 -0.28)">
       <defs>
        <path id="CenturyGothic-31" d="M 1184 4597 
L 2088 4597 
L 2088 0 
L 1631 0 
L 1631 4147 
L 909 4147 
L 1184 4597 
z
" transform="scale(0.015625)"/>
        <path id="CenturyGothic-30" d="M 203 2297 
Q 203 3206 398 3703 
Q 594 4200 950 4456 
Q 1306 4713 1747 4713 
Q 2194 4713 2556 4455 
Q 2919 4197 3130 3681 
Q 3341 3166 3341 2297 
Q 3341 1431 3133 918 
Q 2925 406 2559 145 
Q 2194 -116 1747 -116 
Q 1306 -116 953 137 
Q 600 391 401 892 
Q 203 1394 203 2297 
z
M 638 2288 
Q 638 1509 777 1111 
Q 916 713 1187 506 
Q 1459 300 1763 300 
Q 2069 300 2334 501 
Q 2600 703 2738 1106 
Q 2909 1597 2909 2288 
Q 2909 2981 2756 3423 
Q 2603 3866 2333 4070 
Q 2063 4275 1763 4275 
Q 1456 4275 1187 4070 
Q 919 3866 778 3467 
Q 638 3069 638 2288 
z
" transform="scale(0.015625)"/>
       </defs>
       <use xlink:href="#CenturyGothic-31"/>
       <use xlink:href="#CenturyGothic-30" x="55.419922"/>
      </g>
     </g>
    </g>
    <g id="xtick_6">
     <g id="line2d_6">
      <g>
       <use xlink:href="#m77b9d784dc" x="393.325714" y="204.3925" style="stroke: #000000; stroke-width: 0.8"/>
      </g>
     </g>
     <g id="text_6">
      <!-- 11 -->
      <g style="fill: #808080" transform="translate(377.807589 232.011875) scale(0.28 -0.28)">
       <use xlink:href="#CenturyGothic-31"/>
       <use xlink:href="#CenturyGothic-31" x="55.419922"/>
      </g>
     </g>
    </g>
    <g id="xtick_7">
     <g id="line2d_7">
      <g>
       <use xlink:href="#m77b9d784dc" x="466.122857" y="204.3925" style="stroke: #000000; stroke-width: 0.8"/>
      </g>
     </g>
     <g id="text_7">
      <!-- 12 -->
      <g style="fill: #808080" transform="translate(450.604732 232.011875) scale(0.28 -0.28)">
       <defs>
        <path id="CenturyGothic-32" d="M 741 3156 
L 300 3156 
Q 319 3838 755 4275 
Q 1191 4713 1831 4713 
Q 2466 4713 2858 4303 
Q 3250 3894 3250 3338 
Q 3250 2947 3062 2605 
Q 2875 2263 2334 1678 
L 1191 444 
L 3313 444 
L 3313 0 
L 191 0 
L 1947 1897 
Q 2481 2469 2642 2745 
Q 2803 3022 2803 3328 
Q 2803 3716 2514 3995 
Q 2225 4275 1806 4275 
Q 1366 4275 1073 3981 
Q 781 3688 741 3156 
z
" transform="scale(0.015625)"/>
       </defs>
       <use xlink:href="#CenturyGothic-31"/>
       <use xlink:href="#CenturyGothic-32" x="55.419922"/>
      </g>
     </g>
    </g>
    <g id="xtick_8">
     <g id="line2d_8">
      <g>
       <use xlink:href="#m77b9d784dc" x="538.92" y="204.3925" style="stroke: #000000; stroke-width: 0.8"/>
      </g>
     </g>
     <g id="text_8">
      <!-- 13 -->
      <g style="fill: #808080" transform="translate(523.401875 232.011875) scale(0.28 -0.28)">
       <defs>
        <path id="CenturyGothic-33" d="M 847 3531 
L 378 3531 
Q 506 4100 868 4406 
Q 1231 4713 1725 4713 
Q 2084 4713 2395 4548 
Q 2706 4384 2876 4106 
Q 3047 3828 3047 3525 
Q 3047 2931 2456 2584 
Q 2788 2450 3000 2191 
Q 3300 1825 3300 1372 
Q 3300 981 3094 626 
Q 2888 272 2531 78 
Q 2175 -116 1734 -116 
Q 1141 -116 744 226 
Q 347 569 225 1231 
L 675 1231 
Q 794 784 1016 584 
Q 1300 331 1741 331 
Q 2241 331 2544 631 
Q 2847 931 2847 1334 
Q 2847 1603 2695 1837 
Q 2544 2072 2289 2190 
Q 2034 2309 1500 2338 
L 1500 2759 
Q 1816 2759 2075 2870 
Q 2334 2981 2451 3153 
Q 2569 3325 2569 3528 
Q 2569 3828 2330 4047 
Q 2091 4266 1725 4266 
Q 1428 4266 1212 4098 
Q 997 3931 847 3531 
z
" transform="scale(0.015625)"/>
       </defs>
       <use xlink:href="#CenturyGothic-31"/>
       <use xlink:href="#CenturyGothic-33" x="55.419922"/>
      </g>
     </g>
    </g>
    <g id="text_9">
     <!-- Scaled to 36 mW [K] -->
     <g style="fill: #808080" transform="translate(147.435313 262.07375) scale(0.28 -0.28)">
      <defs>
       <path id="CenturyGothic-53" d="M 84 856 
L 475 1091 
Q 888 331 1428 331 
Q 1659 331 1862 439 
Q 2066 547 2172 728 
Q 2278 909 2278 1113 
Q 2278 1344 2122 1566 
Q 1906 1872 1334 2303 
Q 759 2738 619 2931 
Q 375 3256 375 3634 
Q 375 3934 519 4181 
Q 663 4428 923 4570 
Q 1184 4713 1491 4713 
Q 1816 4713 2098 4552 
Q 2381 4391 2697 3959 
L 2322 3675 
Q 2063 4019 1880 4128 
Q 1697 4238 1481 4238 
Q 1203 4238 1026 4069 
Q 850 3900 850 3653 
Q 850 3503 912 3362 
Q 975 3222 1141 3056 
Q 1231 2969 1734 2597 
Q 2331 2156 2553 1812 
Q 2775 1469 2775 1122 
Q 2775 622 2395 253 
Q 2016 -116 1472 -116 
Q 1053 -116 712 107 
Q 372 331 84 856 
z
" transform="scale(0.015625)"/>
       <path id="CenturyGothic-63" d="M 3788 2694 
L 3441 2478 
Q 2991 3075 2213 3075 
Q 1591 3075 1180 2675 
Q 769 2275 769 1703 
Q 769 1331 958 1003 
Q 1147 675 1476 494 
Q 1806 313 2216 313 
Q 2966 313 3441 909 
L 3788 681 
Q 3544 316 3133 114 
Q 2722 -88 2197 -88 
Q 1391 -88 859 425 
Q 328 938 328 1672 
Q 328 2166 576 2589 
Q 825 3013 1259 3250 
Q 1694 3488 2231 3488 
Q 2569 3488 2883 3384 
Q 3197 3281 3415 3115 
Q 3634 2950 3788 2694 
z
" transform="scale(0.015625)"/>
       <path id="CenturyGothic-61" d="M 3875 3400 
L 3875 0 
L 3444 0 
L 3444 584 
Q 3169 250 2826 81 
Q 2484 -88 2078 -88 
Q 1356 -88 845 435 
Q 334 959 334 1709 
Q 334 2444 850 2966 
Q 1366 3488 2091 3488 
Q 2509 3488 2848 3309 
Q 3188 3131 3444 2775 
L 3444 3400 
L 3875 3400 
z
M 2125 3066 
Q 1759 3066 1450 2886 
Q 1141 2706 958 2381 
Q 775 2056 775 1694 
Q 775 1334 959 1006 
Q 1144 678 1455 495 
Q 1766 313 2122 313 
Q 2481 313 2803 494 
Q 3125 675 3298 984 
Q 3472 1294 3472 1681 
Q 3472 2272 3083 2669 
Q 2694 3066 2125 3066 
z
" transform="scale(0.015625)"/>
       <path id="CenturyGothic-6c" d="M 422 4713 
L 859 4713 
L 859 0 
L 422 0 
L 422 4713 
z
" transform="scale(0.015625)"/>
       <path id="CenturyGothic-65" d="M 3350 1128 
L 3719 934 
Q 3538 578 3300 359 
Q 3063 141 2766 26 
Q 2469 -88 2094 -88 
Q 1263 -88 794 457 
Q 325 1003 325 1691 
Q 325 2338 722 2844 
Q 1225 3488 2069 3488 
Q 2938 3488 3456 2828 
Q 3825 2363 3831 1666 
L 775 1666 
Q 788 1072 1153 692 
Q 1519 313 2056 313 
Q 2316 313 2561 403 
Q 2806 494 2978 644 
Q 3150 794 3350 1128 
z
M 3350 2044 
Q 3263 2394 3095 2603 
Q 2928 2813 2653 2941 
Q 2378 3069 2075 3069 
Q 1575 3069 1216 2747 
Q 953 2513 819 2044 
L 3350 2044 
z
" transform="scale(0.015625)"/>
       <path id="CenturyGothic-64" d="M 3881 4713 
L 3881 0 
L 3450 0 
L 3450 584 
Q 3175 250 2833 81 
Q 2491 -88 2084 -88 
Q 1363 -88 852 435 
Q 341 959 341 1709 
Q 341 2444 856 2966 
Q 1372 3488 2097 3488 
Q 2516 3488 2855 3309 
Q 3194 3131 3450 2775 
L 3450 4713 
L 3881 4713 
z
M 2131 3066 
Q 1766 3066 1456 2886 
Q 1147 2706 964 2381 
Q 781 2056 781 1694 
Q 781 1334 965 1006 
Q 1150 678 1461 495 
Q 1772 313 2128 313 
Q 2488 313 2809 494 
Q 3131 675 3304 984 
Q 3478 1294 3478 1681 
Q 3478 2272 3089 2669 
Q 2700 3066 2131 3066 
z
" transform="scale(0.015625)"/>
       <path id="CenturyGothic-20" transform="scale(0.015625)"/>
       <path id="CenturyGothic-74" d="M 869 4663 
L 1309 4663 
L 1309 3400 
L 2003 3400 
L 2003 3025 
L 1309 3025 
L 1309 0 
L 869 0 
L 869 3025 
L 272 3025 
L 272 3400 
L 869 3400 
L 869 4663 
z
" transform="scale(0.015625)"/>
       <path id="CenturyGothic-6f" d="M 2097 3488 
Q 2881 3488 3397 2919 
Q 3866 2400 3866 1691 
Q 3866 978 3370 445 
Q 2875 -88 2097 -88 
Q 1316 -88 820 445 
Q 325 978 325 1691 
Q 325 2397 794 2916 
Q 1309 3488 2097 3488 
z
M 2097 3059 
Q 1553 3059 1162 2656 
Q 772 2253 772 1681 
Q 772 1313 950 994 
Q 1128 675 1431 501 
Q 1734 328 2097 328 
Q 2459 328 2762 501 
Q 3066 675 3244 994 
Q 3422 1313 3422 1681 
Q 3422 2253 3030 2656 
Q 2638 3059 2097 3059 
z
" transform="scale(0.015625)"/>
       <path id="CenturyGothic-6d" d="M 484 3400 
L 919 3400 
L 919 2813 
Q 1147 3138 1388 3288 
Q 1719 3488 2084 3488 
Q 2331 3488 2553 3391 
Q 2775 3294 2915 3133 
Q 3056 2972 3159 2672 
Q 3378 3072 3706 3280 
Q 4034 3488 4413 3488 
Q 4766 3488 5036 3309 
Q 5306 3131 5437 2812 
Q 5569 2494 5569 1856 
L 5569 0 
L 5122 0 
L 5122 1856 
Q 5122 2403 5044 2608 
Q 4966 2813 4777 2938 
Q 4588 3063 4325 3063 
Q 4006 3063 3742 2875 
Q 3478 2688 3356 2375 
Q 3234 2063 3234 1331 
L 3234 0 
L 2800 0 
L 2800 1741 
Q 2800 2356 2723 2576 
Q 2647 2797 2456 2930 
Q 2266 3063 2003 3063 
Q 1700 3063 1436 2880 
Q 1172 2697 1045 2387 
Q 919 2078 919 1441 
L 919 0 
L 484 0 
L 484 3400 
z
" transform="scale(0.015625)"/>
       <path id="CenturyGothic-57" d="M 300 4597 
L 772 4597 
L 1706 1284 
L 3025 4597 
L 3119 4597 
L 4422 1284 
L 5375 4597 
L 5844 4597 
L 4525 0 
L 4438 0 
L 3075 3478 
L 1684 0 
L 1597 0 
L 300 4597 
z
" transform="scale(0.015625)"/>
       <path id="CenturyGothic-5b" d="M 906 4713 
L 1956 4713 
L 1956 4269 
L 1344 4269 
L 1344 -816 
L 1956 -816 
L 1956 -1244 
L 906 -1244 
L 906 4713 
z
" transform="scale(0.015625)"/>
       <path id="CenturyGothic-4b" d="M 559 4597 
L 1028 4597 
L 1028 2872 
L 2863 4597 
L 3484 4597 
L 1275 2534 
L 3656 0 
L 3047 0 
L 1028 2144 
L 1028 0 
L 559 0 
L 559 4597 
z
" transform="scale(0.015625)"/>
       <path id="CenturyGothic-5d" d="M 1341 -1244 
L 291 -1244 
L 291 -800 
L 900 -800 
L 900 4284 
L 291 4284 
L 291 4713 
L 1341 4713 
L 1341 -1244 
z
" transform="scale(0.015625)"/>
      </defs>
      <use xlink:href="#CenturyGothic-53"/>
      <use xlink:href="#CenturyGothic-63" x="49.804688"/>
      <use xlink:href="#CenturyGothic-61" x="114.501953"/>
      <use xlink:href="#CenturyGothic-6c" x="182.8125"/>
      <use xlink:href="#CenturyGothic-65" x="202.832031"/>
      <use xlink:href="#CenturyGothic-64" x="267.822266"/>
      <use xlink:href="#CenturyGothic-20" x="336.328125"/>
      <use xlink:href="#CenturyGothic-74" x="364.013672"/>
      <use xlink:href="#CenturyGothic-6f" x="397.900391"/>
      <use xlink:href="#CenturyGothic-20" x="463.378906"/>
      <use xlink:href="#CenturyGothic-33" x="491.064453"/>
      <use xlink:href="#CenturyGothic-36" x="546.484375"/>
      <use xlink:href="#CenturyGothic-20" x="601.904297"/>
      <use xlink:href="#CenturyGothic-6d" x="629.589844"/>
      <use xlink:href="#CenturyGothic-57" x="723.388672"/>
      <use xlink:href="#CenturyGothic-20" x="819.384766"/>
      <use xlink:href="#CenturyGothic-5b" x="847.070312"/>
      <use xlink:href="#CenturyGothic-4b" x="882.177734"/>
      <use xlink:href="#CenturyGothic-5d" x="941.259766"/>
     </g>
    </g>
   </g>
   <g id="matplotlib.axis_2"/>
   <g id="patch_3">
    <path d="M 29.34 204.3925 
L 538.92 204.3925 
" style="fill: none; stroke: #000000; stroke-width: 0.8; stroke-linejoin: miter; stroke-linecap: square"/>
   </g>
  </g>
 </g>
 <defs>
  <clipPath id="pe568750186">
   <rect x="29.34" y="21.6" width="509.58" height="182.7925"/>
  </clipPath>
 </defs>
</svg>
