<?xml version="1.0" encoding="UTF-8" standalone="no"?>
<svg
   width="432pt"
   height="432pt"
   viewBox="0 0 432 432"
   version="1.1"
   id="svg110"
   sodipodi:docname="thermal-resistance-normalized-energy.svg"
   inkscape:version="1.3.2 (091e20e, 2023-11-25)"
   inkscape:export-filename="thermal-resistance-normalized-energy.png"
   inkscape:export-xdpi="96"
   inkscape:export-ydpi="96"
   xmlns:inkscape="http://www.inkscape.org/namespaces/inkscape"
   xmlns:sodipodi="http://sodipodi.sourceforge.net/DTD/sodipodi-0.dtd"
   xmlns:xlink="http://www.w3.org/1999/xlink"
   xmlns="http://www.w3.org/2000/svg"
   xmlns:svg="http://www.w3.org/2000/svg"
   xmlns:rdf="http://www.w3.org/1999/02/22-rdf-syntax-ns#"
   xmlns:cc="http://creativecommons.org/ns#"
   xmlns:dc="http://purl.org/dc/elements/1.1/">
  <sodipodi:namedview
     id="namedview110"
     pagecolor="#ffffff"
     bordercolor="#000000"
     borderopacity="0.25"
     inkscape:showpageshadow="2"
     inkscape:pageopacity="0.0"
     inkscape:pagecheckerboard="0"
     inkscape:deskcolor="#d1d1d1"
     inkscape:document-units="pt"
     inkscape:zoom="1.0939016"
     inkscape:cx="164.09154"
     inkscape:cy="276.99017"
     inkscape:window-width="1904"
     inkscape:window-height="889"
     inkscape:window-x="39"
     inkscape:window-y="40"
     inkscape:window-maximized="0"
     inkscape:current-layer="svg110" />
  <metadata
     id="metadata1">
    <rdf:RDF>
      <cc:Work>
        <dc:type
           rdf:resource="http://purl.org/dc/dcmitype/StillImage" />
        <dc:date>2024-06-29T20:56:53.320047</dc:date>
        <dc:format>image/svg+xml</dc:format>
        <dc:creator>
          <cc:Agent>
            <dc:title>Matplotlib v3.7.2, https://matplotlib.org/</dc:title>
          </cc:Agent>
        </dc:creator>
      </cc:Work>
    </rdf:RDF>
  </metadata>
  <defs
     id="defs1">
    <style
       type="text/css"
       id="style1">*{stroke-linejoin: round; stroke-linecap: butt}</style>
  </defs>
  <g
     id="figure_1">
    <g
       id="patch_1">
      <path
         d="M 0 432  L 432 432  L 432 0  L 0 0  L 0 432  z "
         style="fill: none"
         id="path1" />
    </g>
    <g
       id="axes_1">
      <g
         id="patch_2">
        <path
           d="M 69.95 348.15  L 410.4 348.15  L 410.4 27  L 69.95 27  L 69.95 348.15  z "
           style="fill: none"
           id="path2" />
      </g>
      <g
         id="PolyCollection_1">
        <defs
           id="defs2">
          <path
             id="md26f2c6e74"
             d="M 85.425 -83.911688  L 85.425 -83.85  L 86.980276 -83.85  L 88.535553 -83.85  L 90.090829 -83.85  L 91.646106 -83.85  L 93.201382 -83.85  L 94.756658 -83.85  L 96.311935 -83.85  L 97.867211 -83.85  L 99.422487 -83.85  L 100.977764 -83.85  L 102.53304 -83.85  L 104.088317 -83.85  L 105.643593 -83.85  L 107.198869 -83.85  L 108.754146 -83.85  L 110.309422 -83.85  L 111.864698 -83.85  L 113.419975 -83.85  L 114.975251 -83.85  L 116.530528 -83.85  L 118.085804 -83.85  L 119.64108 -83.85  L 121.196357 -83.85  L 122.751633 -83.85  L 124.30691 -83.85  L 125.862186 -83.85  L 127.417462 -83.85  L 128.972739 -83.85  L 130.528015 -83.85  L 132.083291 -83.85  L 133.638568 -83.85  L 135.193844 -83.85  L 136.749121 -83.85  L 138.304397 -83.85  L 139.859673 -83.85  L 141.41495 -83.85  L 142.970226 -83.85  L 144.525503 -83.85  L 146.080779 -83.85  L 147.636055 -83.85  L 149.191332 -83.85  L 150.746608 -83.85  L 152.301884 -83.85  L 153.857161 -83.85  L 155.412437 -83.85  L 156.967714 -83.85  L 158.52299 -83.85  L 160.078266 -83.85  L 161.633543 -83.85  L 163.188819 -83.85  L 164.744095 -83.85  L 166.299372 -83.85  L 167.854648 -83.85  L 169.409925 -83.85  L 170.965201 -83.85  L 172.520477 -83.85  L 174.075754 -83.85  L 175.63103 -83.85  L 177.186307 -83.85  L 178.741583 -83.85  L 180.296859 -83.85  L 181.852136 -83.85  L 183.407412 -83.85  L 184.962688 -83.85  L 186.517965 -83.85  L 188.073241 -83.85  L 189.628518 -83.85  L 191.183794 -83.85  L 192.73907 -83.85  L 194.294347 -83.85  L 195.849623 -83.85  L 197.404899 -83.85  L 198.960176 -83.85  L 200.515452 -83.85  L 202.070729 -83.85  L 203.626005 -83.85  L 205.181281 -83.85  L 206.736558 -83.85  L 208.291834 -83.85  L 209.847111 -83.85  L 211.402387 -83.85  L 212.957663 -83.85  L 214.51294 -83.85  L 216.068216 -83.85  L 217.623492 -83.85  L 219.178769 -83.85  L 220.734045 -83.85  L 222.289322 -83.85  L 223.844598 -83.85  L 225.399874 -83.85  L 226.955151 -83.85  L 228.510427 -83.85  L 230.065704 -83.85  L 231.62098 -83.85  L 233.176256 -83.85  L 234.731533 -83.85  L 236.286809 -83.85  L 237.842085 -83.85  L 239.397362 -83.85  L 240.952638 -83.85  L 242.507915 -83.85  L 244.063191 -83.85  L 245.618467 -83.85  L 247.173744 -83.85  L 248.72902 -83.85  L 250.284296 -83.85  L 251.839573 -83.85  L 253.394849 -83.85  L 254.950126 -83.85  L 256.505402 -83.85  L 258.060678 -83.85  L 259.615955 -83.85  L 261.171231 -83.85  L 262.726508 -83.85  L 264.281784 -83.85  L 265.83706 -83.85  L 267.392337 -83.85  L 268.947613 -83.85  L 270.502889 -83.85  L 272.058166 -83.85  L 273.613442 -83.85  L 275.168719 -83.85  L 276.723995 -83.85  L 278.279271 -83.85  L 279.834548 -83.85  L 281.389824 -83.85  L 282.945101 -83.85  L 284.500377 -83.85  L 286.055653 -83.85  L 287.61093 -83.85  L 289.166206 -83.85  L 290.721482 -83.85  L 292.276759 -83.85  L 293.832035 -83.85  L 295.387312 -83.85  L 296.942588 -83.85  L 298.497864 -83.85  L 300.053141 -83.85  L 301.608417 -83.85  L 303.163693 -83.85  L 304.71897 -83.85  L 306.274246 -83.85  L 307.829523 -83.85  L 309.384799 -83.85  L 310.940075 -83.85  L 312.495352 -83.85  L 314.050628 -83.85  L 315.605905 -83.85  L 317.161181 -83.85  L 318.716457 -83.85  L 320.271734 -83.85  L 321.82701 -83.85  L 323.382286 -83.85  L 324.937563 -83.85  L 326.492839 -83.85  L 328.048116 -83.85  L 329.603392 -83.85  L 331.158668 -83.85  L 332.713945 -83.85  L 334.269221 -83.85  L 335.824497 -83.85  L 337.379774 -83.85  L 338.93505 -83.85  L 340.490327 -83.85  L 342.045603 -83.85  L 343.600879 -83.85  L 345.156156 -83.85  L 346.711432 -83.85  L 348.266709 -83.85  L 349.821985 -83.85  L 351.377261 -83.85  L 352.932538 -83.85  L 354.487814 -83.85  L 356.04309 -83.85  L 357.598367 -83.85  L 359.153643 -83.85  L 360.70892 -83.85  L 362.264196 -83.85  L 363.819472 -83.85  L 365.374749 -83.85  L 366.930025 -83.85  L 368.485302 -83.85  L 370.040578 -83.85  L 371.595854 -83.85  L 373.151131 -83.85  L 374.706407 -83.85  L 376.261683 -83.85  L 377.81696 -83.85  L 379.372236 -83.85  L 380.927513 -83.85  L 382.482789 -83.85  L 384.038065 -83.85  L 385.593342 -83.85  L 387.148618 -83.85  L 388.703894 -83.85  L 390.259171 -83.85  L 391.814447 -83.85  L 393.369724 -83.85  L 394.925 -83.85  L 394.925 -83.887265  L 394.925 -83.887265  L 393.369724 -83.899773  L 391.814447 -83.915984  L 390.259171 -83.936828  L 388.703894 -83.963416  L 387.148618 -83.997066  L 385.593342 -84.039322  L 384.038065 -84.091972  L 382.482789 -84.157067  L 380.927513 -84.236933  L 379.372236 -84.334173  L 377.81696 -84.451669  L 376.261683 -84.592571  L 374.706407 -84.760275  L 373.151131 -84.958391  L 371.595854 -85.1907  L 370.040578 -85.461092  L 368.485302 -85.773503  L 366.930025 -86.131823  L 365.374749 -86.539809  L 363.819472 -87.000979  L 362.264196 -87.518499  L 360.70892 -88.095072  L 359.153643 -88.73282  L 357.598367 -89.433174  L 356.04309 -90.19677  L 354.487814 -91.023359  L 352.932538 -91.911734  L 351.377261 -92.859678  L 349.821985 -93.86394  L 348.266709 -94.920243  L 346.711432 -96.023316  L 345.156156 -97.166975  L 343.600879 -98.344227  L 342.045603 -99.547421  L 340.490327 -100.768427  L 338.93505 -101.998853  L 337.379774 -103.230294  L 335.824497 -104.4546  L 334.269221 -105.664174  L 332.713945 -106.85228  L 331.158668 -108.013352  L 329.603392 -109.143313  L 328.048116 -110.239866  L 326.492839 -111.302777  L 324.937563 -112.334107  L 323.382286 -113.33841  L 321.82701 -114.322859  L 320.271734 -115.29731  L 318.716457 -116.274271  L 317.161181 -117.268792  L 315.605905 -118.298242  L 314.050628 -119.381993  L 312.495352 -120.541002  L 310.940075 -121.797296  L 309.384799 -123.173373  L 307.829523 -124.691541  L 306.274246 -126.373208  L 304.71897 -128.238157  L 303.163693 -130.303832  L 301.608417 -132.584661  L 300.053141 -135.091455  L 298.497864 -137.830912  L 296.942588 -140.805242  L 295.387312 -144.011935  L 293.832035 -147.443691  L 292.276759 -151.088504  L 290.721482 -154.9299  L 289.166206 -158.947311  L 287.61093 -163.116566  L 286.055653 -167.410467  L 284.500377 -171.799421  L 282.945101 -176.252084  L 281.389824 -180.736005  L 279.834548 -185.218208  L 278.279271 -189.665725  L 276.723995 -194.046032  L 275.168719 -198.327405  L 273.613442 -202.479176  L 272.058166 -206.471925  L 270.502889 -210.277589  L 268.947613 -213.86955  L 267.392337 -217.222693  L 265.83706 -220.313477  L 264.281784 -223.120032  L 262.726508 -225.622304  L 261.171231 -227.802259  L 259.615955 -229.644136  L 258.060678 -231.134773  L 256.505402 -232.263959  L 254.950126 -233.024825  L 253.394849 -233.414232  L 251.839573 -233.433145  L 250.284296 -233.086956  L 248.72902 -232.385744  L 247.173744 -231.344447  L 245.618467 -229.982926  L 244.063191 -228.325917  L 242.507915 -226.402869  L 240.952638 -224.247654  L 239.397362 -221.898166  L 237.842085 -219.39582  L 236.286809 -216.784938  L 234.731533 -214.112068  L 233.176256 -211.425218  L 231.62098 -208.773039  L 230.065704 -206.203949  L 228.510427 -203.765229  L 226.955151 -201.502093  L 225.399874 -199.456736  L 223.844598 -197.667393  L 222.289322 -196.167406  L 220.734045 -194.98433  L 219.178769 -194.139095  L 217.623492 -193.645251  L 216.068216 -193.508328  L 214.51294 -193.725344  L 212.957663 -194.284491  L 211.402387 -195.165039  L 209.847111 -196.337483  L 208.291834 -197.763956  L 206.736558 -199.398933  L 205.181281 -201.190218  L 203.626005 -203.080215  L 202.070729 -205.007444  L 200.515452 -206.908273  L 198.960176 -208.718804  L 197.404899 -210.376837  L 195.849623 -211.823832  L 194.294347 -213.006788  L 192.73907 -213.879933  L 191.183794 -214.406155  L 189.628518 -214.558086  L 188.073241 -214.318786  L 186.517965 -213.681986  L 184.962688 -212.651868  L 183.407412 -211.242411  L 181.852136 -209.47631  L 180.296859 -207.383562  L 178.741583 -204.999773  L 177.186307 -202.364298  L 175.63103 -199.518321  L 174.075754 -196.502967  L 172.520477 -193.357574  L 170.965201 -190.118187  L 169.409925 -186.816369  L 167.854648 -183.478373  L 166.299372 -180.124692  L 164.744095 -176.769996  L 163.188819 -173.423431  L 161.633543 -170.089228  L 160.078266 -166.767565  L 158.52299 -163.455601  L 156.967714 -160.148602  L 155.412437 -156.841089  L 153.857161 -153.527907  L 152.301884 -150.205182  L 150.746608 -146.871089  L 149.191332 -143.526413  L 147.636055 -140.174872  L 146.080779 -136.823213  L 144.525503 -133.481093  L 142.970226 -130.160761  L 141.41495 -126.876591  L 139.859673 -123.644506  L 138.304397 -120.481323  L 136.749121 -117.404085  L 135.193844 -114.429405  L 133.638568 -111.572859  L 132.083291 -108.848463  L 130.528015 -106.268246  L 128.972739 -103.841934  L 127.417462 -101.576746  L 125.862186 -99.477314  L 124.30691 -97.545688  L 122.751633 -95.781455  L 121.196357 -94.181915  L 119.64108 -92.742334  L 118.085804 -91.456223  L 116.530528 -90.315656  L 114.975251 -89.311589  L 113.419975 -88.434177  L 111.864698 -87.673078  L 110.309422 -87.017731  L 108.754146 -86.457596  L 107.198869 -85.982375  L 105.643593 -85.582177  L 104.088317 -85.247656  L 102.53304 -84.970113  L 100.977764 -84.741563  L 99.422487 -84.554766  L 97.867211 -84.403243  L 96.311935 -84.281261  L 94.756658 -84.183805  L 93.201382 -84.106537  L 91.646106 -84.045744  L 90.090829 -83.998281  L 88.535553 -83.96151  L 86.980276 -83.933245  L 85.425 -83.911688  z "
             style="stroke: #3b0f70" />
        </defs>
        <g
           clip-path="url(#pd8d7bab59f)"
           id="g2">
          <use
             xlink:href="#md26f2c6e74"
             x="0"
             y="432"
             style="fill: #3b0f70; stroke: #3b0f70"
             id="use2" />
        </g>
      </g>
      <g
         id="PolyCollection_2">
        <defs
           id="defs3">
          <path
             id="m53a2f8db6b"
             d="M 106.270441 -83.870786  L 106.270441 -83.85  L 107.462508 -83.85  L 108.654576 -83.85  L 109.846643 -83.85  L 111.038711 -83.85  L 112.230778 -83.85  L 113.422846 -83.85  L 114.614913 -83.85  L 115.806981 -83.85  L 116.999049 -83.85  L 118.191116 -83.85  L 119.383184 -83.85  L 120.575251 -83.85  L 121.767319 -83.85  L 122.959386 -83.85  L 124.151454 -83.85  L 125.343522 -83.85  L 126.535589 -83.85  L 127.727657 -83.85  L 128.919724 -83.85  L 130.111792 -83.85  L 131.303859 -83.85  L 132.495927 -83.85  L 133.687994 -83.85  L 134.880062 -83.85  L 136.07213 -83.85  L 137.264197 -83.85  L 138.456265 -83.85  L 139.648332 -83.85  L 140.8404 -83.85  L 142.032467 -83.85  L 143.224535 -83.85  L 144.416602 -83.85  L 145.60867 -83.85  L 146.800738 -83.85  L 147.992805 -83.85  L 149.184873 -83.85  L 150.37694 -83.85  L 151.569008 -83.85  L 152.761075 -83.85  L 153.953143 -83.85  L 155.145211 -83.85  L 156.337278 -83.85  L 157.529346 -83.85  L 158.721413 -83.85  L 159.913481 -83.85  L 161.105548 -83.85  L 162.297616 -83.85  L 163.489683 -83.85  L 164.681751 -83.85  L 165.873819 -83.85  L 167.065886 -83.85  L 168.257954 -83.85  L 169.450021 -83.85  L 170.642089 -83.85  L 171.834156 -83.85  L 173.026224 -83.85  L 174.218291 -83.85  L 175.410359 -83.85  L 176.602427 -83.85  L 177.794494 -83.85  L 178.986562 -83.85  L 180.178629 -83.85  L 181.370697 -83.85  L 182.562764 -83.85  L 183.754832 -83.85  L 184.9469 -83.85  L 186.138967 -83.85  L 187.331035 -83.85  L 188.523102 -83.85  L 189.71517 -83.85  L 190.907237 -83.85  L 192.099305 -83.85  L 193.291372 -83.85  L 194.48344 -83.85  L 195.675508 -83.85  L 196.867575 -83.85  L 198.059643 -83.85  L 199.25171 -83.85  L 200.443778 -83.85  L 201.635845 -83.85  L 202.827913 -83.85  L 204.019981 -83.85  L 205.212048 -83.85  L 206.404116 -83.85  L 207.596183 -83.85  L 208.788251 -83.85  L 209.980318 -83.85  L 211.172386 -83.85  L 212.364453 -83.85  L 213.556521 -83.85  L 214.748589 -83.85  L 215.940656 -83.85  L 217.132724 -83.85  L 218.324791 -83.85  L 219.516859 -83.85  L 220.708926 -83.85  L 221.900994 -83.85  L 223.093061 -83.85  L 224.285129 -83.85  L 225.477197 -83.85  L 226.669264 -83.85  L 227.861332 -83.85  L 229.053399 -83.85  L 230.245467 -83.85  L 231.437534 -83.85  L 232.629602 -83.85  L 233.82167 -83.85  L 235.013737 -83.85  L 236.205805 -83.85  L 237.397872 -83.85  L 238.58994 -83.85  L 239.782007 -83.85  L 240.974075 -83.85  L 242.166142 -83.85  L 243.35821 -83.85  L 244.550278 -83.85  L 245.742345 -83.85  L 246.934413 -83.85  L 248.12648 -83.85  L 249.318548 -83.85  L 250.510615 -83.85  L 251.702683 -83.85  L 252.89475 -83.85  L 254.086818 -83.85  L 255.278886 -83.85  L 256.470953 -83.85  L 257.663021 -83.85  L 258.855088 -83.85  L 260.047156 -83.85  L 261.239223 -83.85  L 262.431291 -83.85  L 263.623359 -83.85  L 264.815426 -83.85  L 266.007494 -83.85  L 267.199561 -83.85  L 268.391629 -83.85  L 269.583696 -83.85  L 270.775764 -83.85  L 271.967831 -83.85  L 273.159899 -83.85  L 274.351967 -83.85  L 275.544034 -83.85  L 276.736102 -83.85  L 277.928169 -83.85  L 279.120237 -83.85  L 280.312304 -83.85  L 281.504372 -83.85  L 282.696439 -83.85  L 283.888507 -83.85  L 285.080575 -83.85  L 286.272642 -83.85  L 287.46471 -83.85  L 288.656777 -83.85  L 289.848845 -83.85  L 291.040912 -83.85  L 292.23298 -83.85  L 293.425048 -83.85  L 294.617115 -83.85  L 295.809183 -83.85  L 297.00125 -83.85  L 298.193318 -83.85  L 299.385385 -83.85  L 300.577453 -83.85  L 301.76952 -83.85  L 302.961588 -83.85  L 304.153656 -83.85  L 305.345723 -83.85  L 306.537791 -83.85  L 307.729858 -83.85  L 308.921926 -83.85  L 310.113993 -83.85  L 311.306061 -83.85  L 312.498129 -83.85  L 313.690196 -83.85  L 314.882264 -83.85  L 316.074331 -83.85  L 317.266399 -83.85  L 318.458466 -83.85  L 319.650534 -83.85  L 320.842601 -83.85  L 322.034669 -83.85  L 323.226737 -83.85  L 324.418804 -83.85  L 325.610872 -83.85  L 326.802939 -83.85  L 327.995007 -83.85  L 329.187074 -83.85  L 330.379142 -83.85  L 331.571209 -83.85  L 332.763277 -83.85  L 333.955345 -83.85  L 335.147412 -83.85  L 336.33948 -83.85  L 337.531547 -83.85  L 338.723615 -83.85  L 339.915682 -83.85  L 341.10775 -83.85  L 342.299818 -83.85  L 343.491885 -83.85  L 343.491885 -83.872522  L 343.491885 -83.872522  L 342.299818 -83.884391  L 341.10775 -83.901521  L 339.915682 -83.925728  L 338.723615 -83.959223  L 337.531547 -84.0046  L 336.33948 -84.064786  L 335.147412 -84.142932  L 333.955345 -84.24226  L 332.763277 -84.36584  L 331.571209 -84.516341  L 330.379142 -84.695744  L 329.187074 -84.905083  L 327.995007 -85.144224  L 326.802939 -85.411744  L 325.610872 -85.704938  L 324.418804 -86.019982  L 323.226737 -86.352268  L 322.034669 -86.69688  L 320.842601 -87.049191  L 319.650534 -87.405492  L 318.458466 -87.763593  L 317.266399 -88.123292  L 316.074331 -88.486634  L 314.882264 -88.857912  L 313.690196 -89.243368  L 312.498129 -89.650626  L 311.306061 -90.087918  L 310.113993 -90.563184  L 308.921926 -91.083193  L 307.729858 -91.652789  L 306.537791 -92.274372  L 305.345723 -92.947692  L 304.153656 -93.669963  L 302.961588 -94.436255  L 301.76952 -95.240095  L 300.577453 -96.074125  L 299.385385 -96.930715  L 298.193318 -97.802385  L 297.00125 -98.681982  L 295.809183 -99.562581  L 294.617115 -100.437143  L 293.425048 -101.298045  L 292.23298 -102.136595  L 291.040912 -102.94268  L 289.848845 -103.704678  L 288.656777 -104.409705  L 287.46471 -105.044233  L 286.272642 -105.595041  L 285.080575 -106.0504  L 283.888507 -106.401383  L 282.696439 -106.643143  L 281.504372 -106.776039  L 280.312304 -106.8065  L 279.120237 -106.747557  L 277.928169 -106.619013  L 276.736102 -106.447241  L 275.544034 -106.264623  L 274.351967 -106.108651  L 273.159899 -106.020708  L 271.967831 -106.044543  L 270.775764 -106.224484  L 269.583696 -106.603443  L 268.391629 -107.220812  L 267.199561 -108.110411  L 266.007494 -109.298694  L 264.815426 -110.80345  L 263.623359 -112.633247  L 262.431291 -114.7878  L 261.239223 -117.259395  L 260.047156 -120.035292  L 258.855088 -123.100929  L 257.663021 -126.443568  L 256.470953 -130.055871  L 255.278886 -133.938903  L 254.086818 -138.104032  L 252.89475 -142.573345  L 251.702683 -147.378422  L 250.510615 -152.557495  L 249.318548 -158.15132  L 248.12648 -164.198234  L 246.934413 -170.72902  L 245.742345 -177.762169  L 244.550278 -185.300074  L 243.35821 -193.326519  L 242.166142 -201.80559  L 240.974075 -210.682004  L 239.782007 -219.882649  L 238.58994 -229.319079  L 237.397872 -238.89072  L 236.205805 -248.488558  L 235.013737 -257.999212  L 233.82167 -267.309327  L 232.629602 -276.310263  L 231.437534 -284.903005  L 230.245467 -293.003101  L 229.053399 -300.545306  L 227.861332 -307.487443  L 226.669264 -313.81289  L 225.477197 -319.531141  L 224.285129 -324.675972  L 223.093061 -329.301029  L 221.900994 -333.47302  L 220.708926 -337.263054  L 219.516859 -340.737074  L 218.324791 -343.946556  L 217.132724 -346.920755  L 215.940656 -349.661625  L 214.748589 -352.142257  L 213.556521 -354.309174  L 212.364453 -356.088295  L 211.172386 -357.393819  L 209.980318 -358.138867  L 208.788251 -358.246457  L 207.596183 -357.65937  L 206.404116 -356.347639  L 205.212048 -354.312808  L 204.019981 -351.588565  L 202.827913 -348.237906  L 201.635845 -344.347445  L 200.443778 -340.019787  L 199.25171 -335.365082  L 198.059643 -330.49278  L 196.867575 -325.504474  L 195.675508 -320.488367  L 194.48344 -315.515604  L 193.291372 -310.638385  L 192.099305 -305.889589  L 190.907237 -301.283503  L 189.71517 -296.817325  L 188.523102 -292.473152  L 187.331035 -288.220342  L 186.138967 -284.018234  L 184.9469 -279.819294  L 183.754832 -275.572704  L 182.562764 -271.228327  L 181.370697 -266.740813  L 180.178629 -262.073464  L 178.986562 -257.201355  L 177.794494 -252.113211  L 176.602427 -246.81166  L 175.410359 -241.311689  L 174.218291 -235.637458  L 173.026224 -229.817925  L 171.834156 -223.882012  L 170.642089 -217.854141  L 169.450021 -211.750992  L 168.257954 -205.580077  L 167.065886 -199.340456  L 165.873819 -193.025468  L 164.681751 -186.627016  L 163.489683 -180.140624  L 162.297616 -173.570359  L 161.105548 -166.932734  L 159.913481 -160.258926  L 158.721413 -153.594922  L 157.529346 -146.999585  L 156.337278 -140.540972  L 155.145211 -134.291469  L 153.953143 -128.322457  L 152.761075 -122.69921  L 151.569008 -117.476638  L 150.37694 -112.696247  L 149.184873 -108.384524  L 147.992805 -104.552687  L 146.800738 -101.197598  L 145.60867 -98.303545  L 144.416602 -95.844521  L 143.224535 -93.78671  L 142.032467 -92.090915  L 140.8404 -90.714769  L 139.648332 -89.614649  L 138.456265 -88.74727  L 137.264197 -88.071005  L 136.07213 -87.546948  L 134.880062 -87.139778  L 133.687994 -86.818429  L 132.495927 -86.556567  L 131.303859 -86.332854  L 130.111792 -86.130989  L 128.919724 -85.939505  L 127.727657 -85.751332  L 126.535589 -85.563167  L 125.343522 -85.374688  L 124.151454 -85.187706  L 122.959386 -85.005314  L 121.767319 -84.831115  L 120.575251 -84.668584  L 119.383184 -84.520603  L 118.191116 -84.389177  L 116.999049 -84.27532  L 115.806981 -84.179088  L 114.614913 -84.099712  L 113.422846 -84.035798  L 112.230778 -83.985541  L 111.038711 -83.946939  L 109.846643 -83.917967  L 108.654576 -83.896715  L 107.462508 -83.881474  L 106.270441 -83.870786  z "
             style="stroke: #000000" />
        </defs>
        <g
           clip-path="url(#pd8d7bab59f)"
           id="g3">
          <use
             xlink:href="#m53a2f8db6b"
             x="0"
             y="432"
             style="fill: #ffffff; fill-opacity: 0.5; stroke: #000000"
             id="use3" />
        </g>
      </g>
      <g
         id="matplotlib.axis_1">
        <g
           id="xtick_1">
          <g
             id="line2d_1">
            <defs
               id="defs4">
              <path
                 id="mbc78950032"
                 d="M 0 0  L 0 3.5  "
                 style="stroke: #000000; stroke-width: 0.8" />
            </defs>
            <g
               id="g4">
              <use
                 xlink:href="#mbc78950032"
                 x="98.281877"
                 y="348.15"
                 style="stroke: #000000; stroke-width: 0.8"
                 id="use4" />
            </g>
          </g>
          <g
             id="text_1">
            <!-- 6 -->
            <g
               transform="translate(94.402346 365.459687) scale(0.14 -0.14)"
               id="g5">
              <defs
                 id="defs5">
                <path
                   id="CenturyGothic-36"
                   d="M 2347 4713  L 2725 4466  L 1484 2584  Q 1734 2669 1953 2669  Q 2500 2669 2881 2273  Q 3263 1878 3263 1300  Q 3263 903 3078 583  Q 2894 263 2555 73  Q 2216 -116 1825 -116  Q 1447 -116 1123 67  Q 800 250 615 581  Q 431 913 431 1291  Q 431 1572 545 1883  Q 659 2194 953 2631  L 2347 4713  z M 1844 2266  Q 1444 2266 1161 1983  Q 878 1700 878 1297  Q 878 897 1161 614  Q 1444 331 1844 331  Q 2244 331 2526 614  Q 2809 897 2809 1297  Q 2809 1700 2526 1983  Q 2244 2266 1844 2266  z "
                   transform="scale(0.015625)" />
              </defs>
              <use
                 xlink:href="#CenturyGothic-36"
                 id="use5" />
            </g>
          </g>
        </g>
        <g
           id="xtick_2">
          <g
             id="line2d_2">
            <g
               id="g6">
              <use
                 xlink:href="#mbc78950032"
                 x="171.577031"
                 y="348.15"
                 style="stroke: #000000; stroke-width: 0.8"
                 id="use6" />
            </g>
          </g>
          <g
             id="text_2">
            <!-- 8 -->
            <g
               transform="translate(167.6975 365.459687) scale(0.14 -0.14)"
               id="g7">
              <defs
                 id="defs6">
                <path
                   id="CenturyGothic-38"
                   d="M 2459 2522  Q 2925 2291 3126 1994  Q 3328 1697 3328 1319  Q 3328 788 2981 381  Q 2556 -116 1766 -116  Q 1003 -116 609 320  Q 216 756 216 1281  Q 216 1666 422 1973  Q 628 2281 1109 2522  Q 772 2697 603 2956  Q 434 3216 434 3513  Q 434 3813 614 4098  Q 794 4384 1111 4548  Q 1428 4713 1797 4713  Q 2156 4713 2462 4547  Q 2769 4381 2942 4097  Q 3116 3813 3116 3500  Q 3116 3188 2952 2944  Q 2788 2700 2459 2522  z M 1775 4266  Q 1397 4266 1148 4042  Q 900 3819 900 3509  Q 900 3203 1167 2954  Q 1434 2706 1791 2706  Q 2019 2706 2222 2818  Q 2425 2931 2539 3126  Q 2653 3322 2653 3519  Q 2653 3797 2428 4031  Q 2203 4266 1775 4266  z M 1797 2291  Q 1322 2291 1000 1983  Q 678 1675 678 1266  Q 678 1013 815 788  Q 953 563 1200 441  Q 1447 319 1772 319  Q 2275 319 2572 616  Q 2869 913 2869 1309  Q 2869 1694 2555 1992  Q 2241 2291 1797 2291  z "
                   transform="scale(0.015625)" />
              </defs>
              <use
                 xlink:href="#CenturyGothic-38"
                 id="use7" />
            </g>
          </g>
        </g>
        <g
           id="xtick_3">
          <g
             id="line2d_3">
            <g
               id="g8">
              <use
                 xlink:href="#mbc78950032"
                 x="244.872185"
                 y="348.15"
                 style="stroke: #000000; stroke-width: 0.8"
                 id="use8" />
            </g>
          </g>
          <g
             id="text_3">
            <!-- 10 -->
            <g
               transform="translate(237.113123 365.459687) scale(0.14 -0.14)"
               id="g10">
              <defs
                 id="defs8">
                <path
                   id="CenturyGothic-31"
                   d="M 1184 4597  L 2088 4597  L 2088 0  L 1631 0  L 1631 4147  L 909 4147  L 1184 4597  z "
                   transform="scale(0.015625)" />
                <path
                   id="CenturyGothic-30"
                   d="M 203 2297  Q 203 3206 398 3703  Q 594 4200 950 4456  Q 1306 4713 1747 4713  Q 2194 4713 2556 4455  Q 2919 4197 3130 3681  Q 3341 3166 3341 2297  Q 3341 1431 3133 918  Q 2925 406 2559 145  Q 2194 -116 1747 -116  Q 1306 -116 953 137  Q 600 391 401 892  Q 203 1394 203 2297  z M 638 2288  Q 638 1509 777 1111  Q 916 713 1187 506  Q 1459 300 1763 300  Q 2069 300 2334 501  Q 2600 703 2738 1106  Q 2909 1597 2909 2288  Q 2909 2981 2756 3423  Q 2603 3866 2333 4070  Q 2063 4275 1763 4275  Q 1456 4275 1187 4070  Q 919 3866 778 3467  Q 638 3069 638 2288  z "
                   transform="scale(0.015625)" />
              </defs>
              <use
                 xlink:href="#CenturyGothic-31"
                 id="use9" />
              <use
                 xlink:href="#CenturyGothic-30"
                 x="55.419922"
                 id="use10" />
            </g>
          </g>
        </g>
        <g
           id="xtick_4">
          <g
             id="line2d_4">
            <g
               id="g11">
              <use
                 xlink:href="#mbc78950032"
                 x="318.167339"
                 y="348.15"
                 style="stroke: #000000; stroke-width: 0.8"
                 id="use11" />
            </g>
          </g>
          <g
             id="text_4">
            <!-- 12 -->
            <g
               transform="translate(310.408277 365.459687) scale(0.14 -0.14)"
               id="g13">
              <defs
                 id="defs11">
                <path
                   id="CenturyGothic-32"
                   d="M 741 3156  L 300 3156  Q 319 3838 755 4275  Q 1191 4713 1831 4713  Q 2466 4713 2858 4303  Q 3250 3894 3250 3338  Q 3250 2947 3062 2605  Q 2875 2263 2334 1678  L 1191 444  L 3313 444  L 3313 0  L 191 0  L 1947 1897  Q 2481 2469 2642 2745  Q 2803 3022 2803 3328  Q 2803 3716 2514 3995  Q 2225 4275 1806 4275  Q 1366 4275 1073 3981  Q 781 3688 741 3156  z "
                   transform="scale(0.015625)" />
              </defs>
              <use
                 xlink:href="#CenturyGothic-31"
                 id="use12" />
              <use
                 xlink:href="#CenturyGothic-32"
                 x="55.419922"
                 id="use13" />
            </g>
          </g>
        </g>
        <g
           id="xtick_5">
          <g
             id="line2d_5">
            <g
               id="g14">
              <use
                 xlink:href="#mbc78950032"
                 x="391.462493"
                 y="348.15"
                 style="stroke: #000000; stroke-width: 0.8"
                 id="use14" />
            </g>
          </g>
          <g
             id="text_5">
            <!-- 14 -->
            <g
               transform="translate(383.703431 365.459687) scale(0.14 -0.14)"
               id="g16">
              <defs
                 id="defs14">
                <path
                   id="CenturyGothic-34"
                   d="M 2725 4713  L 2819 4713  L 2819 1509  L 3375 1509  L 3375 1069  L 2819 1069  L 2819 0  L 2359 0  L 2359 1069  L 163 1069  L 2725 4713  z M 2359 1509  L 2359 3425  L 1006 1509  L 2359 1509  z "
                   transform="scale(0.015625)" />
              </defs>
              <use
                 xlink:href="#CenturyGothic-31"
                 id="use15" />
              <use
                 xlink:href="#CenturyGothic-34"
                 x="55.419922"
                 id="use16" />
            </g>
          </g>
        </g>
        <g
           id="text_6">
          <!-- $\mathrm{\frac{36\,\rho_{ffj28}}{P_{beam}\rho} \cdot (T_{REBCO} - T_{Cold mass})}$ [K] -->
          <g
             transform="translate(98.875 395.780937) scale(0.2 -0.2)"
             id="g53">
            <defs
               id="defs16">
              <path
                 id="DejaVuSans-33"
                 d="M 2597 2516  Q 3050 2419 3304 2112  Q 3559 1806 3559 1356  Q 3559 666 3084 287  Q 2609 -91 1734 -91  Q 1441 -91 1130 -33  Q 819 25 488 141  L 488 750  Q 750 597 1062 519  Q 1375 441 1716 441  Q 2309 441 2620 675  Q 2931 909 2931 1356  Q 2931 1769 2642 2001  Q 2353 2234 1838 2234  L 1294 2234  L 1294 2753  L 1863 2753  Q 2328 2753 2575 2939  Q 2822 3125 2822 3475  Q 2822 3834 2567 4026  Q 2313 4219 1838 4219  Q 1578 4219 1281 4162  Q 984 4106 628 3988  L 628 4550  Q 988 4650 1302 4700  Q 1616 4750 1894 4750  Q 2613 4750 3031 4423  Q 3450 4097 3450 3541  Q 3450 3153 3228 2886  Q 3006 2619 2597 2516  z "
                 transform="scale(0.015625)" />
              <path
                 id="DejaVuSans-36"
                 d="M 2113 2584  Q 1688 2584 1439 2293  Q 1191 2003 1191 1497  Q 1191 994 1439 701  Q 1688 409 2113 409  Q 2538 409 2786 701  Q 3034 994 3034 1497  Q 3034 2003 2786 2293  Q 2538 2584 2113 2584  z M 3366 4563  L 3366 3988  Q 3128 4100 2886 4159  Q 2644 4219 2406 4219  Q 1781 4219 1451 3797  Q 1122 3375 1075 2522  Q 1259 2794 1537 2939  Q 1816 3084 2150 3084  Q 2853 3084 3261 2657  Q 3669 2231 3669 1497  Q 3669 778 3244 343  Q 2819 -91 2113 -91  Q 1303 -91 875 529  Q 447 1150 447 2328  Q 447 3434 972 4092  Q 1497 4750 2381 4750  Q 2619 4750 2861 4703  Q 3103 4656 3366 4563  z "
                 transform="scale(0.015625)" />
              <path
                 id="DejaVuSans-3c1"
                 d="M 863 2875  Q 1053 3194 1525 3475  Q 1709 3584 2278 3584  Q 2916 3584 3314 3078  Q 3713 2572 3713 1747  Q 3713 922 3314 415  Q 2916 -91 2278 -91  Q 1894 -91 1617 61  Q 1341 213 1159 525  L 1159 -1331  L 581 -1331  L 581 1716  Q 581 2438 863 2875  z M 3116 1747  Q 3116 2381 2855 2742  Q 2594 3103 2138 3103  Q 1681 3103 1420 2742  Q 1159 2381 1159 1747  Q 1159 1113 1420 752  Q 1681 391 2138 391  Q 2594 391 2855 752  Q 3116 1113 3116 1747  z "
                 transform="scale(0.015625)" />
              <path
                 id="DejaVuSans-66"
                 d="M 2375 4863  L 2375 4384  L 1825 4384  Q 1516 4384 1395 4259  Q 1275 4134 1275 3809  L 1275 3500  L 2222 3500  L 2222 3053  L 1275 3053  L 1275 0  L 697 0  L 697 3053  L 147 3053  L 147 3500  L 697 3500  L 697 3744  Q 697 4328 969 4595  Q 1241 4863 1831 4863  L 2375 4863  z "
                 transform="scale(0.015625)" />
              <path
                 id="DejaVuSans-6a"
                 d="M 603 3500  L 1178 3500  L 1178 -63  Q 1178 -731 923 -1031  Q 669 -1331 103 -1331  L -116 -1331  L -116 -844  L 38 -844  Q 366 -844 484 -692  Q 603 -541 603 -63  L 603 3500  z M 603 4863  L 1178 4863  L 1178 4134  L 603 4134  L 603 4863  z "
                 transform="scale(0.015625)" />
              <path
                 id="DejaVuSans-32"
                 d="M 1228 531  L 3431 531  L 3431 0  L 469 0  L 469 531  Q 828 903 1448 1529  Q 2069 2156 2228 2338  Q 2531 2678 2651 2914  Q 2772 3150 2772 3378  Q 2772 3750 2511 3984  Q 2250 4219 1831 4219  Q 1534 4219 1204 4116  Q 875 4013 500 3803  L 500 4441  Q 881 4594 1212 4672  Q 1544 4750 1819 4750  Q 2544 4750 2975 4387  Q 3406 4025 3406 3419  Q 3406 3131 3298 2873  Q 3191 2616 2906 2266  Q 2828 2175 2409 1742  Q 1991 1309 1228 531  z "
                 transform="scale(0.015625)" />
              <path
                 id="DejaVuSans-38"
                 d="M 2034 2216  Q 1584 2216 1326 1975  Q 1069 1734 1069 1313  Q 1069 891 1326 650  Q 1584 409 2034 409  Q 2484 409 2743 651  Q 3003 894 3003 1313  Q 3003 1734 2745 1975  Q 2488 2216 2034 2216  z M 1403 2484  Q 997 2584 770 2862  Q 544 3141 544 3541  Q 544 4100 942 4425  Q 1341 4750 2034 4750  Q 2731 4750 3128 4425  Q 3525 4100 3525 3541  Q 3525 3141 3298 2862  Q 3072 2584 2669 2484  Q 3125 2378 3379 2068  Q 3634 1759 3634 1313  Q 3634 634 3220 271  Q 2806 -91 2034 -91  Q 1263 -91 848 271  Q 434 634 434 1313  Q 434 1759 690 2068  Q 947 2378 1403 2484  z M 1172 3481  Q 1172 3119 1398 2916  Q 1625 2713 2034 2713  Q 2441 2713 2670 2916  Q 2900 3119 2900 3481  Q 2900 3844 2670 4047  Q 2441 4250 2034 4250  Q 1625 4250 1398 4047  Q 1172 3844 1172 3481  z "
                 transform="scale(0.015625)" />
              <path
                 id="DejaVuSans-50"
                 d="M 1259 4147  L 1259 2394  L 2053 2394  Q 2494 2394 2734 2622  Q 2975 2850 2975 3272  Q 2975 3691 2734 3919  Q 2494 4147 2053 4147  L 1259 4147  z M 628 4666  L 2053 4666  Q 2838 4666 3239 4311  Q 3641 3956 3641 3272  Q 3641 2581 3239 2228  Q 2838 1875 2053 1875  L 1259 1875  L 1259 0  L 628 0  L 628 4666  z "
                 transform="scale(0.015625)" />
              <path
                 id="DejaVuSans-62"
                 d="M 3116 1747  Q 3116 2381 2855 2742  Q 2594 3103 2138 3103  Q 1681 3103 1420 2742  Q 1159 2381 1159 1747  Q 1159 1113 1420 752  Q 1681 391 2138 391  Q 2594 391 2855 752  Q 3116 1113 3116 1747  z M 1159 2969  Q 1341 3281 1617 3432  Q 1894 3584 2278 3584  Q 2916 3584 3314 3078  Q 3713 2572 3713 1747  Q 3713 922 3314 415  Q 2916 -91 2278 -91  Q 1894 -91 1617 61  Q 1341 213 1159 525  L 1159 0  L 581 0  L 581 4863  L 1159 4863  L 1159 2969  z "
                 transform="scale(0.015625)" />
              <path
                 id="DejaVuSans-65"
                 d="M 3597 1894  L 3597 1613  L 953 1613  Q 991 1019 1311 708  Q 1631 397 2203 397  Q 2534 397 2845 478  Q 3156 559 3463 722  L 3463 178  Q 3153 47 2828 -22  Q 2503 -91 2169 -91  Q 1331 -91 842 396  Q 353 884 353 1716  Q 353 2575 817 3079  Q 1281 3584 2069 3584  Q 2775 3584 3186 3129  Q 3597 2675 3597 1894  z M 3022 2063  Q 3016 2534 2758 2815  Q 2500 3097 2075 3097  Q 1594 3097 1305 2825  Q 1016 2553 972 2059  L 3022 2063  z "
                 transform="scale(0.015625)" />
              <path
                 id="DejaVuSans-61"
                 d="M 2194 1759  Q 1497 1759 1228 1600  Q 959 1441 959 1056  Q 959 750 1161 570  Q 1363 391 1709 391  Q 2188 391 2477 730  Q 2766 1069 2766 1631  L 2766 1759  L 2194 1759  z M 3341 1997  L 3341 0  L 2766 0  L 2766 531  Q 2569 213 2275 61  Q 1981 -91 1556 -91  Q 1019 -91 701 211  Q 384 513 384 1019  Q 384 1609 779 1909  Q 1175 2209 1959 2209  L 2766 2209  L 2766 2266  Q 2766 2663 2505 2880  Q 2244 3097 1772 3097  Q 1472 3097 1187 3025  Q 903 2953 641 2809  L 641 3341  Q 956 3463 1253 3523  Q 1550 3584 1831 3584  Q 2591 3584 2966 3190  Q 3341 2797 3341 1997  z "
                 transform="scale(0.015625)" />
              <path
                 id="DejaVuSans-6d"
                 d="M 3328 2828  Q 3544 3216 3844 3400  Q 4144 3584 4550 3584  Q 5097 3584 5394 3201  Q 5691 2819 5691 2113  L 5691 0  L 5113 0  L 5113 2094  Q 5113 2597 4934 2840  Q 4756 3084 4391 3084  Q 3944 3084 3684 2787  Q 3425 2491 3425 1978  L 3425 0  L 2847 0  L 2847 2094  Q 2847 2600 2669 2842  Q 2491 3084 2119 3084  Q 1678 3084 1418 2786  Q 1159 2488 1159 1978  L 1159 0  L 581 0  L 581 3500  L 1159 3500  L 1159 2956  Q 1356 3278 1631 3431  Q 1906 3584 2284 3584  Q 2666 3584 2933 3390  Q 3200 3197 3328 2828  z "
                 transform="scale(0.015625)" />
              <path
                 id="DejaVuSans-22c5"
                 d="M 684 2619  L 1344 2619  L 1344 1825  L 684 1825  L 684 2619  z "
                 transform="scale(0.015625)" />
              <path
                 id="DejaVuSans-28"
                 d="M 1984 4856  Q 1566 4138 1362 3434  Q 1159 2731 1159 2009  Q 1159 1288 1364 580  Q 1569 -128 1984 -844  L 1484 -844  Q 1016 -109 783 600  Q 550 1309 550 2009  Q 550 2706 781 3412  Q 1013 4119 1484 4856  L 1984 4856  z "
                 transform="scale(0.015625)" />
              <path
                 id="DejaVuSans-54"
                 d="M -19 4666  L 3928 4666  L 3928 4134  L 2272 4134  L 2272 0  L 1638 0  L 1638 4134  L -19 4134  L -19 4666  z "
                 transform="scale(0.015625)" />
              <path
                 id="DejaVuSans-52"
                 d="M 2841 2188  Q 3044 2119 3236 1894  Q 3428 1669 3622 1275  L 4263 0  L 3584 0  L 2988 1197  Q 2756 1666 2539 1819  Q 2322 1972 1947 1972  L 1259 1972  L 1259 0  L 628 0  L 628 4666  L 2053 4666  Q 2853 4666 3247 4331  Q 3641 3997 3641 3322  Q 3641 2881 3436 2590  Q 3231 2300 2841 2188  z M 1259 4147  L 1259 2491  L 2053 2491  Q 2509 2491 2742 2702  Q 2975 2913 2975 3322  Q 2975 3731 2742 3939  Q 2509 4147 2053 4147  L 1259 4147  z "
                 transform="scale(0.015625)" />
              <path
                 id="DejaVuSans-45"
                 d="M 628 4666  L 3578 4666  L 3578 4134  L 1259 4134  L 1259 2753  L 3481 2753  L 3481 2222  L 1259 2222  L 1259 531  L 3634 531  L 3634 0  L 628 0  L 628 4666  z "
                 transform="scale(0.015625)" />
              <path
                 id="DejaVuSans-42"
                 d="M 1259 2228  L 1259 519  L 2272 519  Q 2781 519 3026 730  Q 3272 941 3272 1375  Q 3272 1813 3026 2020  Q 2781 2228 2272 2228  L 1259 2228  z M 1259 4147  L 1259 2741  L 2194 2741  Q 2656 2741 2882 2914  Q 3109 3088 3109 3444  Q 3109 3797 2882 3972  Q 2656 4147 2194 4147  L 1259 4147  z M 628 4666  L 2241 4666  Q 2963 4666 3353 4366  Q 3744 4066 3744 3513  Q 3744 3084 3544 2831  Q 3344 2578 2956 2516  Q 3422 2416 3680 2098  Q 3938 1781 3938 1306  Q 3938 681 3513 340  Q 3088 0 2303 0  L 628 0  L 628 4666  z "
                 transform="scale(0.015625)" />
              <path
                 id="DejaVuSans-43"
                 d="M 4122 4306  L 4122 3641  Q 3803 3938 3442 4084  Q 3081 4231 2675 4231  Q 1875 4231 1450 3742  Q 1025 3253 1025 2328  Q 1025 1406 1450 917  Q 1875 428 2675 428  Q 3081 428 3442 575  Q 3803 722 4122 1019  L 4122 359  Q 3791 134 3420 21  Q 3050 -91 2638 -91  Q 1578 -91 968 557  Q 359 1206 359 2328  Q 359 3453 968 4101  Q 1578 4750 2638 4750  Q 3056 4750 3426 4639  Q 3797 4528 4122 4306  z "
                 transform="scale(0.015625)" />
              <path
                 id="DejaVuSans-4f"
                 d="M 2522 4238  Q 1834 4238 1429 3725  Q 1025 3213 1025 2328  Q 1025 1447 1429 934  Q 1834 422 2522 422  Q 3209 422 3611 934  Q 4013 1447 4013 2328  Q 4013 3213 3611 3725  Q 3209 4238 2522 4238  z M 2522 4750  Q 3503 4750 4090 4092  Q 4678 3434 4678 2328  Q 4678 1225 4090 567  Q 3503 -91 2522 -91  Q 1538 -91 948 565  Q 359 1222 359 2328  Q 359 3434 948 4092  Q 1538 4750 2522 4750  z "
                 transform="scale(0.015625)" />
              <path
                 id="DejaVuSans-2212"
                 d="M 678 2272  L 4684 2272  L 4684 1741  L 678 1741  L 678 2272  z "
                 transform="scale(0.015625)" />
              <path
                 id="DejaVuSans-6f"
                 d="M 1959 3097  Q 1497 3097 1228 2736  Q 959 2375 959 1747  Q 959 1119 1226 758  Q 1494 397 1959 397  Q 2419 397 2687 759  Q 2956 1122 2956 1747  Q 2956 2369 2687 2733  Q 2419 3097 1959 3097  z M 1959 3584  Q 2709 3584 3137 3096  Q 3566 2609 3566 1747  Q 3566 888 3137 398  Q 2709 -91 1959 -91  Q 1206 -91 779 398  Q 353 888 353 1747  Q 353 2609 779 3096  Q 1206 3584 1959 3584  z "
                 transform="scale(0.015625)" />
              <path
                 id="DejaVuSans-6c"
                 d="M 603 4863  L 1178 4863  L 1178 0  L 603 0  L 603 4863  z "
                 transform="scale(0.015625)" />
              <path
                 id="DejaVuSans-64"
                 d="M 2906 2969  L 2906 4863  L 3481 4863  L 3481 0  L 2906 0  L 2906 525  Q 2725 213 2448 61  Q 2172 -91 1784 -91  Q 1150 -91 751 415  Q 353 922 353 1747  Q 353 2572 751 3078  Q 1150 3584 1784 3584  Q 2172 3584 2448 3432  Q 2725 3281 2906 2969  z M 947 1747  Q 947 1113 1208 752  Q 1469 391 1925 391  Q 2381 391 2643 752  Q 2906 1113 2906 1747  Q 2906 2381 2643 2742  Q 2381 3103 1925 3103  Q 1469 3103 1208 2742  Q 947 2381 947 1747  z "
                 transform="scale(0.015625)" />
              <path
                 id="DejaVuSans-73"
                 d="M 2834 3397  L 2834 2853  Q 2591 2978 2328 3040  Q 2066 3103 1784 3103  Q 1356 3103 1142 2972  Q 928 2841 928 2578  Q 928 2378 1081 2264  Q 1234 2150 1697 2047  L 1894 2003  Q 2506 1872 2764 1633  Q 3022 1394 3022 966  Q 3022 478 2636 193  Q 2250 -91 1575 -91  Q 1294 -91 989 -36  Q 684 19 347 128  L 347 722  Q 666 556 975 473  Q 1284 391 1588 391  Q 1994 391 2212 530  Q 2431 669 2431 922  Q 2431 1156 2273 1281  Q 2116 1406 1581 1522  L 1381 1569  Q 847 1681 609 1914  Q 372 2147 372 2553  Q 372 3047 722 3315  Q 1072 3584 1716 3584  Q 2034 3584 2315 3537  Q 2597 3491 2834 3397  z "
                 transform="scale(0.015625)" />
              <path
                 id="DejaVuSans-29"
                 d="M 513 4856  L 1013 4856  Q 1481 4119 1714 3412  Q 1947 2706 1947 2009  Q 1947 1309 1714 600  Q 1481 -109 1013 -844  L 513 -844  Q 928 -128 1133 580  Q 1338 1288 1338 2009  Q 1338 2731 1133 3434  Q 928 4138 513 4856  z "
                 transform="scale(0.015625)" />
              <path
                 id="CenturyGothic-20"
                 transform="scale(0.015625)" />
              <path
                 id="CenturyGothic-5b"
                 d="M 906 4713  L 1956 4713  L 1956 4269  L 1344 4269  L 1344 -816  L 1956 -816  L 1956 -1244  L 906 -1244  L 906 4713  z "
                 transform="scale(0.015625)" />
              <path
                 id="CenturyGothic-4b"
                 d="M 559 4597  L 1028 4597  L 1028 2872  L 2863 4597  L 3484 4597  L 1275 2534  L 3656 0  L 3047 0  L 1028 2144  L 1028 0  L 559 0  L 559 4597  z "
                 transform="scale(0.015625)" />
              <path
                 id="CenturyGothic-5d"
                 d="M 1341 -1244  L 291 -1244  L 291 -800  L 900 -800  L 900 4284  L 291 4284  L 291 4713  L 1341 4713  L 1341 -1244  z "
                 transform="scale(0.015625)" />
            </defs>
            <use
               xlink:href="#DejaVuSans-33"
               transform="translate(0 66.046875) scale(0.7)"
               id="use17" />
            <use
               xlink:href="#DejaVuSans-36"
               transform="translate(44.536133 66.046875) scale(0.7)"
               id="use18" />
            <use
               xlink:href="#DejaVuSans-3c1"
               transform="translate(100.437239 66.046875) scale(0.7)"
               id="use19" />
            <use
               xlink:href="#DejaVuSans-66"
               transform="translate(145.540755 54.5625) scale(0.49)"
               id="use20" />
            <use
               xlink:href="#DejaVuSans-66"
               transform="translate(162.791243 54.5625) scale(0.49)"
               id="use21" />
            <use
               xlink:href="#DejaVuSans-6a"
               transform="translate(180.041731 54.5625) scale(0.49)"
               id="use22" />
            <use
               xlink:href="#DejaVuSans-32"
               transform="translate(193.655501 54.5625) scale(0.49)"
               id="use23" />
            <use
               xlink:href="#DejaVuSans-38"
               transform="translate(224.830794 54.5625) scale(0.49)"
               id="use24" />
            <use
               xlink:href="#DejaVuSans-50"
               transform="translate(15 -37.912344) scale(0.7)"
               id="use25" />
            <use
               xlink:href="#DejaVuSans-62"
               transform="translate(57.881836 -49.396719) scale(0.49)"
               id="use26" />
            <use
               xlink:href="#DejaVuSans-65"
               transform="translate(88.985352 -49.396719) scale(0.49)"
               id="use27" />
            <use
               xlink:href="#DejaVuSans-61"
               transform="translate(119.131836 -49.396719) scale(0.49)"
               id="use28" />
            <use
               xlink:href="#DejaVuSans-6d"
               transform="translate(149.158691 -49.396719) scale(0.49)"
               id="use29" />
            <use
               xlink:href="#DejaVuSans-3c1"
               transform="translate(198.804688 -37.912344) scale(0.7)"
               id="use30" />
            <use
               xlink:href="#DejaVuSans-22c5"
               transform="translate(289.902571 0.575156)"
               id="use31" />
            <use
               xlink:href="#DejaVuSans-28"
               transform="translate(341.172102 0.575156)"
               id="use32" />
            <use
               xlink:href="#DejaVuSans-54"
               transform="translate(380.185774 0.575156)"
               id="use33" />
            <use
               xlink:href="#DejaVuSans-52"
               transform="translate(442.22679 -15.831094) scale(0.7)"
               id="use34" />
            <use
               xlink:href="#DejaVuSans-45"
               transform="translate(490.864485 -15.831094) scale(0.7)"
               id="use35" />
            <use
               xlink:href="#DejaVuSans-42"
               transform="translate(535.093001 -15.831094) scale(0.7)"
               id="use36" />
            <use
               xlink:href="#DejaVuSans-43"
               transform="translate(583.115462 -15.831094) scale(0.7)"
               id="use37" />
            <use
               xlink:href="#DejaVuSans-4f"
               transform="translate(631.992415 -15.831094) scale(0.7)"
               id="use38" />
            <use
               xlink:href="#DejaVuSans-2212"
               transform="translate(709.306868 0.575156)"
               id="use39" />
            <use
               xlink:href="#DejaVuSans-54"
               transform="translate(812.578352 0.575156)"
               id="use40" />
            <use
               xlink:href="#DejaVuSans-43"
               transform="translate(874.619368 -15.831094) scale(0.7)"
               id="use41" />
            <use
               xlink:href="#DejaVuSans-6f"
               transform="translate(923.496321 -15.831094) scale(0.7)"
               id="use42" />
            <use
               xlink:href="#DejaVuSans-6c"
               transform="translate(966.323469 -15.831094) scale(0.7)"
               id="use43" />
            <use
               xlink:href="#DejaVuSans-64"
               transform="translate(985.771712 -15.831094) scale(0.7)"
               id="use44" />
            <use
               xlink:href="#DejaVuSans-6d"
               transform="translate(1030.205305 -15.831094) scale(0.7)"
               id="use45" />
            <use
               xlink:href="#DejaVuSans-61"
               transform="translate(1098.393782 -15.831094) scale(0.7)"
               id="use46" />
            <use
               xlink:href="#DejaVuSans-73"
               transform="translate(1141.28929 -15.831094) scale(0.7)"
               id="use47" />
            <use
               xlink:href="#DejaVuSans-73"
               transform="translate(1177.759016 -15.831094) scale(0.7)"
               id="use48" />
            <use
               xlink:href="#DejaVuSans-29"
               transform="translate(1216.963118 0.575156)"
               id="use49" />
            <use
               xlink:href="#CenturyGothic-20"
               transform="translate(1255.97679 0.575156)"
               id="use50" />
            <use
               xlink:href="#CenturyGothic-5b"
               transform="translate(1283.662337 0.575156)"
               id="use51" />
            <use
               xlink:href="#CenturyGothic-4b"
               transform="translate(1318.769759 0.575156)"
               id="use52" />
            <use
               xlink:href="#CenturyGothic-5d"
               transform="translate(1377.85179 0.575156)"
               id="use53" />
            <path
               d="M 0 19.372031  L 0 25.622031  L 257.920149 25.622031  L 257.920149 19.372031  L 0 19.372031  z "
               id="path53" />
          </g>
        </g>
      </g>
      <g
         id="matplotlib.axis_2">
        <g
           id="ytick_1">
          <g
             id="line2d_6">
            <defs
               id="defs53">
              <path
                 id="mdf2d72d6ed"
                 d="M 0 0  L -3.5 0  "
                 style="stroke: #000000; stroke-width: 0.8" />
            </defs>
            <g
               id="g54">
              <use
                 xlink:href="#mdf2d72d6ed"
                 x="69.95"
                 y="348.15"
                 style="stroke: #000000; stroke-width: 0.8"
                 id="use54" />
            </g>
          </g>
          <g
             id="text_7">
            <!-- 0.0 -->
            <g
               transform="translate(43.555625 353.304844) scale(0.14 -0.14)"
               id="g57">
              <defs
                 id="defs54">
                <path
                   id="CenturyGothic-2e"
                   d="M 969 688  Q 1128 688 1240 575  Q 1353 463 1353 300  Q 1353 141 1240 26  Q 1128 -88 969 -88  Q 809 -88 696 26  Q 584 141 584 300  Q 584 463 696 575  Q 809 688 969 688  z "
                   transform="scale(0.015625)" />
              </defs>
              <use
                 xlink:href="#CenturyGothic-30"
                 id="use55" />
              <use
                 xlink:href="#CenturyGothic-2e"
                 x="55.419922"
                 id="use56" />
              <use
                 xlink:href="#CenturyGothic-30"
                 x="83.105469"
                 id="use57" />
            </g>
          </g>
        </g>
        <g
           id="ytick_2">
          <g
             id="line2d_7">
            <g
               id="g58">
              <use
                 xlink:href="#mdf2d72d6ed"
                 x="69.95"
                 y="294.625"
                 style="stroke: #000000; stroke-width: 0.8"
                 id="use58" />
            </g>
          </g>
          <g
             id="text_8">
            <!-- 0.1 -->
            <g
               transform="translate(43.555625 299.779844) scale(0.14 -0.14)"
               id="g61">
              <use
                 xlink:href="#CenturyGothic-30"
                 id="use59" />
              <use
                 xlink:href="#CenturyGothic-2e"
                 x="55.419922"
                 id="use60" />
              <use
                 xlink:href="#CenturyGothic-31"
                 x="83.105469"
                 id="use61" />
            </g>
          </g>
        </g>
        <g
           id="ytick_3">
          <g
             id="line2d_8">
            <g
               id="g62">
              <use
                 xlink:href="#mdf2d72d6ed"
                 x="69.95"
                 y="241.1"
                 style="stroke: #000000; stroke-width: 0.8"
                 id="use62" />
            </g>
          </g>
          <g
             id="text_9">
            <!-- 0.2 -->
            <g
               transform="translate(43.555625 246.254844) scale(0.14 -0.14)"
               id="g65">
              <use
                 xlink:href="#CenturyGothic-30"
                 id="use63" />
              <use
                 xlink:href="#CenturyGothic-2e"
                 x="55.419922"
                 id="use64" />
              <use
                 xlink:href="#CenturyGothic-32"
                 x="83.105469"
                 id="use65" />
            </g>
          </g>
        </g>
        <g
           id="ytick_4">
          <g
             id="line2d_9">
            <g
               id="g66">
              <use
                 xlink:href="#mdf2d72d6ed"
                 x="69.95"
                 y="187.575"
                 style="stroke: #000000; stroke-width: 0.8"
                 id="use66" />
            </g>
          </g>
          <g
             id="text_10">
            <!-- 0.3 -->
            <g
               transform="translate(43.555625 192.729844) scale(0.14 -0.14)"
               id="g69">
              <defs
                 id="defs66">
                <path
                   id="CenturyGothic-33"
                   d="M 847 3531  L 378 3531  Q 506 4100 868 4406  Q 1231 4713 1725 4713  Q 2084 4713 2395 4548  Q 2706 4384 2876 4106  Q 3047 3828 3047 3525  Q 3047 2931 2456 2584  Q 2788 2450 3000 2191  Q 3300 1825 3300 1372  Q 3300 981 3094 626  Q 2888 272 2531 78  Q 2175 -116 1734 -116  Q 1141 -116 744 226  Q 347 569 225 1231  L 675 1231  Q 794 784 1016 584  Q 1300 331 1741 331  Q 2241 331 2544 631  Q 2847 931 2847 1334  Q 2847 1603 2695 1837  Q 2544 2072 2289 2190  Q 2034 2309 1500 2338  L 1500 2759  Q 1816 2759 2075 2870  Q 2334 2981 2451 3153  Q 2569 3325 2569 3528  Q 2569 3828 2330 4047  Q 2091 4266 1725 4266  Q 1428 4266 1212 4098  Q 997 3931 847 3531  z "
                   transform="scale(0.015625)" />
              </defs>
              <use
                 xlink:href="#CenturyGothic-30"
                 id="use67" />
              <use
                 xlink:href="#CenturyGothic-2e"
                 x="55.419922"
                 id="use68" />
              <use
                 xlink:href="#CenturyGothic-33"
                 x="83.105469"
                 id="use69" />
            </g>
          </g>
        </g>
        <g
           id="ytick_5">
          <g
             id="line2d_10">
            <g
               id="g70">
              <use
                 xlink:href="#mdf2d72d6ed"
                 x="69.95"
                 y="134.05"
                 style="stroke: #000000; stroke-width: 0.8"
                 id="use70" />
            </g>
          </g>
          <g
             id="text_11">
            <!-- 0.4 -->
            <g
               transform="translate(43.555625 139.204844) scale(0.14 -0.14)"
               id="g73">
              <use
                 xlink:href="#CenturyGothic-30"
                 id="use71" />
              <use
                 xlink:href="#CenturyGothic-2e"
                 x="55.419922"
                 id="use72" />
              <use
                 xlink:href="#CenturyGothic-34"
                 x="83.105469"
                 id="use73" />
            </g>
          </g>
        </g>
        <g
           id="ytick_6">
          <g
             id="line2d_11">
            <g
               id="g74">
              <use
                 xlink:href="#mdf2d72d6ed"
                 x="69.95"
                 y="80.525"
                 style="stroke: #000000; stroke-width: 0.8"
                 id="use74" />
            </g>
          </g>
          <g
             id="text_12">
            <!-- 0.5 -->
            <g
               transform="translate(43.555625 85.679844) scale(0.14 -0.14)"
               id="g77">
              <defs
                 id="defs74">
                <path
                   id="CenturyGothic-35"
                   d="M 3147 4597  L 3147 4159  L 1509 4159  L 1281 2906  Q 1581 2994 1822 2994  Q 2450 2994 2858 2573  Q 3266 2153 3266 1497  Q 3266 1044 3056 666  Q 2847 288 2489 86  Q 2131 -116 1663 -116  Q 1103 -116 718 226  Q 334 569 259 1113  L 731 1113  Q 784 847 911 681  Q 1038 516 1248 414  Q 1459 313 1691 313  Q 2144 313 2469 656  Q 2794 1000 2794 1516  Q 2794 1981 2500 2272  Q 2206 2563 1716 2563  Q 1309 2563 731 2316  L 1156 4597  L 3147 4597  z "
                   transform="scale(0.015625)" />
              </defs>
              <use
                 xlink:href="#CenturyGothic-30"
                 id="use75" />
              <use
                 xlink:href="#CenturyGothic-2e"
                 x="55.419922"
                 id="use76" />
              <use
                 xlink:href="#CenturyGothic-35"
                 x="83.105469"
                 id="use77" />
            </g>
          </g>
        </g>
        <g
           id="ytick_7">
          <g
             id="line2d_12">
            <g
               id="g78">
              <use
                 xlink:href="#mdf2d72d6ed"
                 x="69.95"
                 y="27"
                 style="stroke: #000000; stroke-width: 0.8"
                 id="use78" />
            </g>
          </g>
          <g
             id="text_13">
            <!-- 0.6 -->
            <g
               transform="translate(43.555625 32.154844) scale(0.14 -0.14)"
               id="g81">
              <use
                 xlink:href="#CenturyGothic-30"
                 id="use79" />
              <use
                 xlink:href="#CenturyGothic-2e"
                 x="55.419922"
                 id="use80" />
              <use
                 xlink:href="#CenturyGothic-36"
                 x="83.105469"
                 id="use81" />
            </g>
          </g>
        </g>
        <g
           id="text_14">
          <!-- Probability density [a.u.] -->
          <g
             transform="translate(35.668125 303.367188) rotate(-90) scale(0.2 -0.2)"
             id="g107">
            <defs
               id="defs81">
              <path
                 id="CenturyGothic-50"
                 d="M 556 4597  L 1472 4597  Q 2259 4597 2534 4528  Q 2928 4431 3178 4129  Q 3428 3828 3428 3372  Q 3428 2913 3184 2614  Q 2941 2316 2513 2213  Q 2200 2138 1344 2138  L 1016 2138  L 1016 0  L 556 0  L 556 4597  z M 1016 4150  L 1016 2588  L 1794 2578  Q 2266 2578 2484 2664  Q 2703 2750 2828 2942  Q 2953 3134 2953 3372  Q 2953 3603 2828 3795  Q 2703 3988 2498 4069  Q 2294 4150 1828 4150  L 1016 4150  z "
                 transform="scale(0.015625)" />
              <path
                 id="CenturyGothic-72"
                 d="M 322 3400  L 769 3400  L 769 2903  Q 969 3197 1191 3342  Q 1413 3488 1653 3488  Q 1834 3488 2041 3372  L 1813 3003  Q 1675 3063 1581 3063  Q 1363 3063 1159 2883  Q 956 2703 850 2325  Q 769 2034 769 1150  L 769 0  L 322 0  L 322 3400  z "
                 transform="scale(0.015625)" />
              <path
                 id="CenturyGothic-6f"
                 d="M 2097 3488  Q 2881 3488 3397 2919  Q 3866 2400 3866 1691  Q 3866 978 3370 445  Q 2875 -88 2097 -88  Q 1316 -88 820 445  Q 325 978 325 1691  Q 325 2397 794 2916  Q 1309 3488 2097 3488  z M 2097 3059  Q 1553 3059 1162 2656  Q 772 2253 772 1681  Q 772 1313 950 994  Q 1128 675 1431 501  Q 1734 328 2097 328  Q 2459 328 2762 501  Q 3066 675 3244 994  Q 3422 1313 3422 1681  Q 3422 2253 3030 2656  Q 2638 3059 2097 3059  z "
                 transform="scale(0.015625)" />
              <path
                 id="CenturyGothic-62"
                 d="M 516 0  L 516 4713  L 950 4713  L 950 2816  Q 1225 3153 1565 3320  Q 1906 3488 2313 3488  Q 3034 3488 3545 2964  Q 4056 2441 4056 1694  Q 4056 956 3540 434  Q 3025 -88 2300 -88  Q 1884 -88 1546 90  Q 1209 269 950 625  L 950 0  L 516 0  z M 2266 334  Q 2631 334 2940 514  Q 3250 694 3433 1019  Q 3616 1344 3616 1706  Q 3616 2069 3431 2397  Q 3247 2725 2936 2908  Q 2625 3091 2272 3091  Q 1913 3091 1589 2908  Q 1266 2725 1092 2415  Q 919 2106 919 1719  Q 919 1128 1308 731  Q 1697 334 2266 334  z "
                 transform="scale(0.015625)" />
              <path
                 id="CenturyGothic-61"
                 d="M 3875 3400  L 3875 0  L 3444 0  L 3444 584  Q 3169 250 2826 81  Q 2484 -88 2078 -88  Q 1356 -88 845 435  Q 334 959 334 1709  Q 334 2444 850 2966  Q 1366 3488 2091 3488  Q 2509 3488 2848 3309  Q 3188 3131 3444 2775  L 3444 3400  L 3875 3400  z M 2125 3066  Q 1759 3066 1450 2886  Q 1141 2706 958 2381  Q 775 2056 775 1694  Q 775 1334 959 1006  Q 1144 678 1455 495  Q 1766 313 2122 313  Q 2481 313 2803 494  Q 3125 675 3298 984  Q 3472 1294 3472 1681  Q 3472 2272 3083 2669  Q 2694 3066 2125 3066  z "
                 transform="scale(0.015625)" />
              <path
                 id="CenturyGothic-69"
                 d="M 641 4800  Q 791 4800 897 4694  Q 1003 4588 1003 4438  Q 1003 4291 897 4184  Q 791 4078 641 4078  Q 494 4078 387 4184  Q 281 4291 281 4438  Q 281 4588 387 4694  Q 494 4800 641 4800  z M 422 3400  L 863 3400  L 863 0  L 422 0  L 422 3400  z "
                 transform="scale(0.015625)" />
              <path
                 id="CenturyGothic-6c"
                 d="M 422 4713  L 859 4713  L 859 0  L 422 0  L 422 4713  z "
                 transform="scale(0.015625)" />
              <path
                 id="CenturyGothic-74"
                 d="M 869 4663  L 1309 4663  L 1309 3400  L 2003 3400  L 2003 3025  L 1309 3025  L 1309 0  L 869 0  L 869 3025  L 272 3025  L 272 3400  L 869 3400  L 869 4663  z "
                 transform="scale(0.015625)" />
              <path
                 id="CenturyGothic-79"
                 d="M 122 3400  L 584 3400  L 1753 781  L 2888 3400  L 3353 3400  L 1325 -1244  L 863 -1244  L 1519 256  L 122 3400  z "
                 transform="scale(0.015625)" />
              <path
                 id="CenturyGothic-64"
                 d="M 3881 4713  L 3881 0  L 3450 0  L 3450 584  Q 3175 250 2833 81  Q 2491 -88 2084 -88  Q 1363 -88 852 435  Q 341 959 341 1709  Q 341 2444 856 2966  Q 1372 3488 2097 3488  Q 2516 3488 2855 3309  Q 3194 3131 3450 2775  L 3450 4713  L 3881 4713  z M 2131 3066  Q 1766 3066 1456 2886  Q 1147 2706 964 2381  Q 781 2056 781 1694  Q 781 1334 965 1006  Q 1150 678 1461 495  Q 1772 313 2128 313  Q 2488 313 2809 494  Q 3131 675 3304 984  Q 3478 1294 3478 1681  Q 3478 2272 3089 2669  Q 2700 3066 2131 3066  z "
                 transform="scale(0.015625)" />
              <path
                 id="CenturyGothic-65"
                 d="M 3350 1128  L 3719 934  Q 3538 578 3300 359  Q 3063 141 2766 26  Q 2469 -88 2094 -88  Q 1263 -88 794 457  Q 325 1003 325 1691  Q 325 2338 722 2844  Q 1225 3488 2069 3488  Q 2938 3488 3456 2828  Q 3825 2363 3831 1666  L 775 1666  Q 788 1072 1153 692  Q 1519 313 2056 313  Q 2316 313 2561 403  Q 2806 494 2978 644  Q 3150 794 3350 1128  z M 3350 2044  Q 3263 2394 3095 2603  Q 2928 2813 2653 2941  Q 2378 3069 2075 3069  Q 1575 3069 1216 2747  Q 953 2513 819 2044  L 3350 2044  z "
                 transform="scale(0.015625)" />
              <path
                 id="CenturyGothic-6e"
                 d="M 488 3400  L 925 3400  L 925 2791  Q 1188 3141 1506 3314  Q 1825 3488 2200 3488  Q 2581 3488 2876 3294  Q 3172 3100 3312 2772  Q 3453 2444 3453 1750  L 3453 0  L 3019 0  L 3019 1622  Q 3019 2209 2969 2406  Q 2891 2744 2675 2914  Q 2459 3084 2113 3084  Q 1716 3084 1402 2821  Q 1088 2559 988 2172  Q 925 1919 925 1247  L 925 0  L 488 0  L 488 3400  z "
                 transform="scale(0.015625)" />
              <path
                 id="CenturyGothic-73"
                 d="M 2197 3028  L 1916 2738  Q 1566 3078 1231 3078  Q 1019 3078 867 2937  Q 716 2797 716 2609  Q 716 2444 841 2294  Q 966 2141 1366 1934  Q 1853 1681 2028 1447  Q 2200 1209 2200 913  Q 2200 494 1906 203  Q 1613 -88 1172 -88  Q 878 -88 611 40  Q 344 169 169 394  L 444 706  Q 778 328 1153 328  Q 1416 328 1600 497  Q 1784 666 1784 894  Q 1784 1081 1663 1228  Q 1541 1372 1113 1591  Q 653 1828 488 2059  Q 322 2291 322 2588  Q 322 2975 586 3231  Q 850 3488 1253 3488  Q 1722 3488 2197 3028  z "
                 transform="scale(0.015625)" />
              <path
                 id="CenturyGothic-75"
                 d="M 431 3400  L 872 3400  L 872 1813  Q 872 1231 934 1013  Q 1028 700 1292 519  Q 1556 338 1922 338  Q 2288 338 2542 514  Q 2797 691 2894 978  Q 2959 1175 2959 1813  L 2959 3400  L 3406 3400  L 3406 1731  Q 3406 1028 3242 672  Q 3078 316 2748 114  Q 2419 -88 1922 -88  Q 1425 -88 1092 114  Q 759 316 595 677  Q 431 1038 431 1763  L 431 3400  z "
                 transform="scale(0.015625)" />
            </defs>
            <use
               xlink:href="#CenturyGothic-50"
               id="use82" />
            <use
               xlink:href="#CenturyGothic-72"
               x="59.179688"
               id="use83" />
            <use
               xlink:href="#CenturyGothic-6f"
               x="89.257812"
               id="use84" />
            <use
               xlink:href="#CenturyGothic-62"
               x="154.736328"
               id="use85" />
            <use
               xlink:href="#CenturyGothic-61"
               x="222.949219"
               id="use86" />
            <use
               xlink:href="#CenturyGothic-62"
               x="291.259766"
               id="use87" />
            <use
               xlink:href="#CenturyGothic-69"
               x="359.472656"
               id="use88" />
            <use
               xlink:href="#CenturyGothic-6c"
               x="379.492188"
               id="use89" />
            <use
               xlink:href="#CenturyGothic-69"
               x="399.511719"
               id="use90" />
            <use
               xlink:href="#CenturyGothic-74"
               x="419.53125"
               id="use91" />
            <use
               xlink:href="#CenturyGothic-79"
               x="453.417969"
               id="use92" />
            <use
               xlink:href="#CenturyGothic-20"
               x="507.03125"
               id="use93" />
            <use
               xlink:href="#CenturyGothic-64"
               x="534.716797"
               id="use94" />
            <use
               xlink:href="#CenturyGothic-65"
               x="603.222656"
               id="use95" />
            <use
               xlink:href="#CenturyGothic-6e"
               x="668.212891"
               id="use96" />
            <use
               xlink:href="#CenturyGothic-73"
               x="729.199219"
               id="use97" />
            <use
               xlink:href="#CenturyGothic-69"
               x="768.017578"
               id="use98" />
            <use
               xlink:href="#CenturyGothic-74"
               x="788.037109"
               id="use99" />
            <use
               xlink:href="#CenturyGothic-79"
               x="821.923828"
               id="use100" />
            <use
               xlink:href="#CenturyGothic-20"
               x="875.537109"
               id="use101" />
            <use
               xlink:href="#CenturyGothic-5b"
               x="903.222656"
               id="use102" />
            <use
               xlink:href="#CenturyGothic-61"
               x="938.330078"
               id="use103" />
            <use
               xlink:href="#CenturyGothic-2e"
               x="1006.640625"
               id="use104" />
            <use
               xlink:href="#CenturyGothic-75"
               x="1034.326172"
               id="use105" />
            <use
               xlink:href="#CenturyGothic-2e"
               x="1095.117188"
               id="use106" />
            <use
               xlink:href="#CenturyGothic-5d"
               x="1122.802734"
               id="use107" />
          </g>
        </g>
      </g>
      <g
         id="patch_3">
        <path
           d="M 69.95 348.15  L 69.95 27  "
           style="fill: none; stroke: #000000; stroke-width: 0.8; stroke-linejoin: miter; stroke-linecap: square"
           id="path107" />
      </g>
      <g
         id="patch_4">
        <path
           d="M 410.4 348.15  L 410.4 27  "
           style="fill: none; stroke: #000000; stroke-width: 0.8; stroke-linejoin: miter; stroke-linecap: square"
           id="path108" />
      </g>
      <g
         id="patch_5">
        <path
           d="M 69.95 348.15  L 410.4 348.15  "
           style="fill: none; stroke: #000000; stroke-width: 0.8; stroke-linejoin: miter; stroke-linecap: square"
           id="path109" />
      </g>
      <g
         id="patch_6">
        <path
           d="M 69.95 27  L 410.4 27  "
           style="fill: none; stroke: #000000; stroke-width: 0.8; stroke-linejoin: miter; stroke-linecap: square"
           id="path110" />
      </g>
    </g>
  </g>
  <defs
     id="defs110">
    <clipPath
       id="pd8d7bab59f">
      <rect
         x="69.95"
         y="27"
         width="340.45"
         height="321.15"
         id="rect110" />
    </clipPath>
  </defs>
  <text
     xml:space="preserve"
     style="font-style:normal;font-variant:normal;font-weight:normal;font-stretch:normal;font-size:18px;font-family:Sans;-inkscape-font-specification:'Sans, Normal';font-variant-ligatures:normal;font-variant-caps:normal;font-variant-numeric:normal;font-variant-east-asian:normal;text-align:end;text-anchor:end;fill:#000000;fill-opacity:1;stroke:#000000;stroke-width:0.999997;stroke-linecap:butt;stroke-linejoin:round;stroke-dasharray:none;stroke-opacity:1"
     x="231.63286"
     y="103.23302"
     id="text111"><tspan
       sodipodi:role="line"
       style="font-style:normal;font-variant:normal;font-weight:normal;font-stretch:normal;font-size:18px;font-family:Sans;-inkscape-font-specification:'Sans, Normal';font-variant-ligatures:normal;font-variant-caps:normal;font-variant-numeric:normal;font-variant-east-asian:normal;text-align:start;text-anchor:start;fill:#000000;fill-opacity:1;stroke:none;stroke-width:1"
       x="231.63286"
       y="103.23302"
       id="tspan114">E<tspan
   style="font-size:65%;baseline-shift:sub"
   id="tspan115">B</tspan> 800 keV</tspan></text>
  <text
     xml:space="preserve"
     style="font-style:normal;font-variant:normal;font-weight:normal;font-stretch:normal;font-size:18px;font-family:Sans;-inkscape-font-specification:'Sans, Normal';font-variant-ligatures:normal;font-variant-caps:normal;font-variant-numeric:normal;font-variant-east-asian:normal;text-align:end;text-anchor:end;fill:#3b0f70;fill-opacity:1;stroke:#000000;stroke-width:0.999997;stroke-linecap:butt;stroke-linejoin:round;stroke-dasharray:none;stroke-opacity:1"
     x="277.32489"
     y="227.58614"
     id="text111-5"><tspan
       sodipodi:role="line"
       style="font-style:normal;font-variant:normal;font-weight:normal;font-stretch:normal;font-size:18px;font-family:Sans;-inkscape-font-specification:'Sans, Normal';font-variant-ligatures:normal;font-variant-caps:normal;font-variant-numeric:normal;font-variant-east-asian:normal;text-align:start;text-anchor:start;fill:#3b0f70;fill-opacity:1;stroke:none;stroke-width:1"
       x="277.32489"
       y="227.58614"
       id="tspan112-5">E<tspan
   style="font-size:65%;baseline-shift:sub"
   id="tspan116">B</tspan>=150 keV</tspan></text>
</svg>
